<svg xmlns="http://www.w3.org/2000/svg" width="166.64" height="220" viewBox="0 0 166.64 220"><title>RCD Mallorca logo - Brandlogos.net</title><path d="M574.92,587.33v-.45l.31.08-.28.34a0,0,0,0,1,0,0Zm0-5.2v-.61c.14-.08.28-.14.39-.2a1.26,1.26,0,0,1,.61-1.17,2,2,0,0,1,2.29,0,1.17,1.17,0,0,1,.5.95,1.48,1.48,0,0,1-1.15,1.29,2.43,2.43,0,0,1-1.34,0,1.42,1.42,0,0,1-.73-.53l-.59.31Zm0-7.43v-21a14.77,14.77,0,0,1,1,2.37c.11.36.22.75.31,1.15v-.87c0-.84-.11-1.7-.2-2.54a1.24,1.24,0,0,1-.87-.47h0a1.68,1.68,0,0,1-.25-.36v-1.37c.08-.11.14-.22.22-.34a1.2,1.2,0,0,1,1.87,0,1.76,1.76,0,0,1,0,2.07h0a1.12,1.12,0,0,1-.45.36c.11.87.17,1.73.2,2.63,0,.53,0,1.06,0,1.59a12.66,12.66,0,0,1,3-4.36c.14-.14.31-.25.45-.39a13.29,13.29,0,0,1-3-3.21,11,11,0,0,1-1.62-4.14,21.9,21.9,0,0,1-.22-6.34A26.36,26.36,0,0,1,577,533l.22-.53.28.5a30.52,30.52,0,0,0,1.65,2.68c.73,1.06,1.51,2.1,2.29,3.1a9.69,9.69,0,0,1,.64-2.93v0a10.3,10.3,0,0,1-.78-4.22,13.62,13.62,0,0,1-5.92-4.39c-.17-.25-.31-.5-.47-.75v-7.26a6.47,6.47,0,0,1,1.42-.14,16.84,16.84,0,0,1-1.23-4.19,3.41,3.41,0,0,0-.2.47V488.64c2.85,3.58,5.28,7.18,5.7,9.75a8.07,8.07,0,0,1-.5,5.06l-.89,2c-.73,1.54-1.42,3.07-2.12,4.67a4.9,4.9,0,0,1,2.57.81,4.07,4.07,0,0,1,1.62,2.4,15.72,15.72,0,0,1,2.4-2.51,16.62,16.62,0,0,1,2.85-2,21,21,0,0,0-.75,3.63,7.69,7.69,0,0,0,.28,3,9.48,9.48,0,0,1,.42,1.7,5.85,5.85,0,0,0,.67-.78,7.46,7.46,0,0,0,.7-1.2,1.29,1.29,0,0,1-.5-.59,2,2,0,0,1,.59-2.32,1.48,1.48,0,0,1,1.17-.25,1.26,1.26,0,0,1,.87.73,1.91,1.91,0,0,1,.11,1.26,2,2,0,0,1-.7,1.06,1.48,1.48,0,0,1-1,.31,7.76,7.76,0,0,1-.78,1.31,8.18,8.18,0,0,1-1,1.17,5,5,0,0,1,0,.64,8.61,8.61,0,0,1-.17,2.07,24.7,24.7,0,0,1,5-3.86,37.54,37.54,0,0,0-1,4.67,21.51,21.51,0,0,1-1.31,4.47,19.67,19.67,0,0,1-1.29,2.68,16.77,16.77,0,0,1,2.63-2c-.2.75-.36,1.51-.53,2.24a13.06,13.06,0,0,0-.59,5.09,3.43,3.43,0,0,1,.7-.73,4.51,4.51,0,0,0,1.76-1.93,2.84,2.84,0,0,1,1.2-1.68,2,2,0,0,1,1.17-.39.74.74,0,0,1,.78.67,1.8,1.8,0,0,1-.22,1,2,2,0,0,1-1,1A3.89,3.89,0,0,1,592,532a12.43,12.43,0,0,1-1.68,1.54,3.76,3.76,0,0,0-.78.84l-.17.2a7.37,7.37,0,0,1-.22,2,9.83,9.83,0,0,1-.56,1.68,18.76,18.76,0,0,1,6.73-2.43c-.7,1.56-1.15,3.19-2,4.69a21.79,21.79,0,0,1-3.8,5.28,37.67,37.67,0,0,1-4.89,4.05,6.86,6.86,0,0,0-1.23,1.31,10.14,10.14,0,0,1,3.44-.92,4.86,4.86,0,0,0-.84,1c-1.29,2-3.3,5.22-3,7.6a11.28,11.28,0,0,0,.28,1.15,10,10,0,0,1,.36,1.45q.84-1,1.68-1.76c.64-.61,1.26-1.15,1.87-1.68a1.32,1.32,0,0,1-.08-1,1.63,1.63,0,0,1,1.84-1.06,1.31,1.31,0,0,1,1.06,1.68,1.66,1.66,0,0,1-1.84,1.06,1.36,1.36,0,0,1-.59-.22c-.64.5-1.26,1.06-1.87,1.65s-1.37,1.4-2,2.12a5.55,5.55,0,0,1-.14,1.12,15.21,15.21,0,0,1,7.12-1.23c-.42.45-.84.89-1.26,1.37-1.2,1.26-2.4,2.54-3.6,4a24.39,24.39,0,0,1-6,5.39,12.82,12.82,0,0,1-4.92,1.79ZM553.77,437.46a7.16,7.16,0,0,1,4.27,2.24,4.34,4.34,0,0,0,1.76.78,12.27,12.27,0,0,0,.53-2.82,12,12,0,0,0-3.35-9.14,16,16,0,0,0-3.21-2.71v-5.17c0,.06,0,.11.06.17a1.29,1.29,0,0,1,.2-.2,2.58,2.58,0,0,1,1.82-.78,2.61,2.61,0,0,1,2.6,2.6v.17a2.53,2.53,0,0,1,1.62-.56,2.68,2.68,0,0,1,2.68,2.68,2.55,2.55,0,0,1-.5,1.56,2.7,2.7,0,0,1,1.4-.39,2.77,2.77,0,0,1,2.77,2.77,2.73,2.73,0,0,1-1.51,2.46,3.29,3.29,0,0,1,.75-.08,2.69,2.69,0,0,1,.45,5.34,2.42,2.42,0,0,1,1.82,2.35,2.45,2.45,0,0,1-2.21,2.43,2.24,2.24,0,0,1,.75,1.65,2.21,2.21,0,0,1-2.21,2.21h-.06a2.12,2.12,0,0,1,.56,1.48,2.21,2.21,0,0,1-2.21,2.21,2.26,2.26,0,0,1-.95-.22,3.8,3.8,0,0,0-.84,1.4,4.44,4.44,0,0,1,.64,4.44,1.62,1.62,0,0,1-2.46.67,1.75,1.75,0,0,1-.53-2.26,1.88,1.88,0,0,0-.92-.89,1.81,1.81,0,0,0-1.2.08,4.41,4.41,0,0,0-1.29.84h0a5.77,5.77,0,0,0-1.23,1.65V437.46Zm21.15,51.19v26.71c-.5,1.34-1,2.71-1.4,4.11a8.56,8.56,0,0,0,.89-.14,3.25,3.25,0,0,1,.5-.11v7.26a15.59,15.59,0,0,1-1.79-5.67c-.06.2-.14.42-.2.64a62.92,62.92,0,0,0-19.17-31.63v-6.34a9.09,9.09,0,0,0,4.75.84,4.47,4.47,0,0,0,3.74-2.74,4,4,0,0,0,.25-1.84,1.45,1.45,0,0,1-1.37-1.34,1.87,1.87,0,0,1,1.56-2,2.94,2.94,0,0,1,2.54.78,11.84,11.84,0,0,1,1.79,2c.89,1.17,2.12,2.6,3.46,4.16s3,3.49,4.41,5.31Zm0,62.92v1.37a1.8,1.8,0,0,1-.14-.67,1.83,1.83,0,0,1,.14-.7Zm0,2.1c-.11-.22-.22-.47-.36-.7a18.88,18.88,0,0,0-1.4-2A61.8,61.8,0,0,1,568,565a18.51,18.51,0,0,0,.81,5.73,5.11,5.11,0,0,0,3,3.38,24.43,24.43,0,0,0-7.85,6.12,9.65,9.65,0,0,1-.06-1.79,14.81,14.81,0,0,1,.28-2.24h0a1.37,1.37,0,0,0,1-.36,1.87,1.87,0,0,0,.45-1,3,3,0,0,0,0-.5,1.34,1.34,0,0,0-.34-.75,1.26,1.26,0,0,0-.7-.39,1,1,0,0,0-.28,0,1.22,1.22,0,0,0-.84.5,2,2,0,0,0-.36,1,1.85,1.85,0,0,0,.28,1,1.19,1.19,0,0,0,.34.31,17.35,17.35,0,0,0-.34,2.37,11.41,11.41,0,0,0,.14,2.37,26,26,0,0,0-1.7,2.49,17,17,0,0,0-.17-4.19,10.3,10.3,0,0,0-.89-2.93,59.49,59.49,0,0,1-5.56,6,15.3,15.3,0,0,0,.45,3L554.3,583c-.17.17-.34.31-.53.47V601.1c1.37-1.7,2.63-3.44,3.77-5.17a12.68,12.68,0,0,0,9.75-1.68,30.3,30.3,0,0,0,7.63-6.93v-.45l-.14,0a13.38,13.38,0,0,0-4.72,0,17.45,17.45,0,0,0-3.8,1.09,20.25,20.25,0,0,0,3.19-3.91,25.43,25.43,0,0,0,3.16-.92,23.76,23.76,0,0,0,2.32-.95v-.61a25.11,25.11,0,0,1-2.51,1.06,20.8,20.8,0,0,1-2.57.75c.36-.59.7-1.23,1-1.9.78-1.59,1.51-3.27,2.24-4.92.25-.59.5-1.17.75-1.73l1.06-.08ZM547.18,433.35a15,15,0,0,1,2.93.36,7.49,7.49,0,0,1,.89,3.44,21.47,21.47,0,0,1,2.77.31v16.93a3,3,0,0,0-.25,1,1.46,1.46,0,0,1-.14.64,1.92,1.92,0,0,1-1,1,3.34,3.34,0,0,1-1.37.28h-.17a5.16,5.16,0,0,1-.87,1.17,5,5,0,0,0-.95,2,1.53,1.53,0,0,1,.5.92,1.28,1.28,0,0,1-.06.73,1.54,1.54,0,0,1-.39.64,2.32,2.32,0,0,1-.5.36,2.42,2.42,0,0,1,1.82.92,1.62,1.62,0,0,1,.28,1.65c-.34.84-1.09.87-1.9.89a2,2,0,0,0-1.76.67,8,8,0,0,0-1.23,3.77,9.47,9.47,0,0,0,.7,4.22,16.87,16.87,0,0,0,3.63,5.48,13.68,13.68,0,0,0,3.66,2.68v6.34a62.54,62.54,0,0,0-26-14V423.09a10.73,10.73,0,0,1,4.19.28c2.4.84,2.77,3.49,6,3.8.14,0,.31,0,.47.06a14.63,14.63,0,0,0-.61-3.91,6,6,0,0,0-2.43-3.55,7.94,7.94,0,0,0-4.44-1.06c-1.17,0-2.21-.06-3.21-.14V413a2.19,2.19,0,0,1,1.51,1.7,1.66,1.66,0,0,1,.39-.59h0a2.23,2.23,0,0,1,1.51-.61,2.15,2.15,0,0,1,2.15,2.15v.11a2.31,2.31,0,0,1,.59-1.09h0a2.21,2.21,0,0,1,3.77,1.48,2.25,2.25,0,0,1,3.86,1.56,1,1,0,0,1,0,.28,2.25,2.25,0,0,1,4.3.92V419a.74.74,0,0,1,.14-.17h0a2.26,2.26,0,0,1,1.62-.67,2.31,2.31,0,0,1,2.21,1.65l.17-.22h0a2.32,2.32,0,0,1,1.65-.67,2.28,2.28,0,0,1,2.21,1.7v5.17a19,19,0,0,0-6.34-2.63,7.34,7.34,0,0,1,.17,1.34.79.79,0,0,0,0,.22,32.38,32.38,0,0,1,0,6.4,16.1,16.1,0,0,1-.42,2.21h0Zm6.59,150.12V601.1a74.4,74.4,0,0,1-9.83,10.31c-3.35,3.44-10.45,9.5-16.21,9.22V597.44A62.54,62.54,0,0,0,553.77,583.47ZM527.73,413v5.59c-.61-.06-1.23-.14-1.82-.22a38.82,38.82,0,0,1-4.83-1.17,14.63,14.63,0,0,0-2.26-.53c-.56-.08-1.15-.14-1.76-.2l.11.2a18.65,18.65,0,0,1,1.79,4.83c1.12.28,2.18.61,3.21.95,1.56.53,2.71,1.15,4.36.84l1.2-.17v52.75a62.59,62.59,0,0,0-31.26-.06v-51a7,7,0,0,1,1.54.06,8.45,8.45,0,0,0,2.88.28c2-.56,3.19-2.29,5-3.19.06-.08.08-.2.14-.28a17.68,17.68,0,0,0,.53-2.12,21.73,21.73,0,0,1,.78-3.16c-.75.08-1.48.14-2.18.25a14.63,14.63,0,0,0-2.26.53,38.82,38.82,0,0,1-4.83,1.17c-.53.08-1.06.14-1.62.2V413a2.16,2.16,0,0,1,.42-.06,2.14,2.14,0,0,1,1.51.64h0a2,2,0,0,1,.36.47,2.1,2.1,0,0,1,3.58-1.06,2.11,2.11,0,0,1,.31.39,2,2,0,0,1,3.94.75,4.55,4.55,0,0,0,1.73-.34,4.2,4.2,0,0,1-.36-1.68,4.09,4.09,0,0,1,3.41-4V406H508.9v-1.34h2.46V402h1.29v2.63h2.46V406h-2.46v2.1a4.09,4.09,0,0,1,3.41,4,4.2,4.2,0,0,1-.36,1.68,4.55,4.55,0,0,0,1.73.34,2,2,0,0,1,3.94-.75,2.11,2.11,0,0,1,.31-.39,2.1,2.1,0,0,1,3.58,1.06,2,2,0,0,1,.36-.47h0a2.14,2.14,0,0,1,1.51-.64,2.18,2.18,0,0,1,.61.08h0Zm0,184.46v23.19a7.65,7.65,0,0,1-1.4-.2c-2.51-.64-4.55-2.6-4.41-5.34a10.61,10.61,0,0,1-19.87,0c.14,2.74-1.9,4.69-4.39,5.34a8.3,8.3,0,0,1-1.2.17V597.5a62.59,62.59,0,0,0,31.26-.06ZM496.47,413v5.59a31.62,31.62,0,0,1-3.41.17,7.94,7.94,0,0,0-4.44,1.06,6,6,0,0,0-2.43,3.55,14.11,14.11,0,0,0-.59,4.64,15.68,15.68,0,0,0,.59,3.58,9.81,9.81,0,0,0,4.33-3.6,8.76,8.76,0,0,1,6-3.13v51a62.57,62.57,0,0,0-26.29,14.08V483.5a14.57,14.57,0,0,0,3.69-2.71,16.53,16.53,0,0,0,3.66-5.48,10.32,10.32,0,0,0,.7-4.22,8.34,8.34,0,0,0-1.23-3.77,2,2,0,0,0-1.76-.67c-.81,0-1.56-.06-1.93-.89a1.68,1.68,0,0,1,.28-1.65,2.52,2.52,0,0,1,1.84-.92,2.32,2.32,0,0,1-.5-.36,1.89,1.89,0,0,1-.39-.64,1.28,1.28,0,0,1-.06-.73,1.53,1.53,0,0,1,.5-.92,4.63,4.63,0,0,0-.95-2,5.16,5.16,0,0,1-.87-1.17H473a3.34,3.34,0,0,1-1.37-.28,2.07,2.07,0,0,1-1-1,2,2,0,0,1-.11-.64,2.73,2.73,0,0,0-.28-1.06V434.41c2-1.42,4.05-2.21,6.51-1.56-.11-.59-.22-1.15-.28-1.7a32.38,32.38,0,0,1,0-6.4.79.79,0,0,0,0-.22,7.34,7.34,0,0,1,.17-1.34,19.33,19.33,0,0,0-6.4,2.65v-5h0a2.32,2.32,0,0,1,3.91-1.2h0l.17.22a2.31,2.31,0,0,1,2.21-1.65,2.26,2.26,0,0,1,1.62.67h0a.74.74,0,0,1,.14.17v-.11a2.25,2.25,0,0,1,4.3-.92,1,1,0,0,1,0-.28,9.55,9.55,0,0,0,6.06-3.69,2.22,2.22,0,0,1,1.56.64h0a2.31,2.31,0,0,1,.59,1.09v-.11a2.15,2.15,0,0,1,2.15-2.15,2.23,2.23,0,0,1,1.51.61h0a1.66,1.66,0,0,1,.39.59,2.14,2.14,0,0,1,1.7-1.73Zm0,184.54V620.6c-5.78.47-13-5.7-16.43-9.19A73.4,73.4,0,0,1,470.18,601V583.41A62.57,62.57,0,0,0,496.47,597.5ZM470.18,420.8v5a15.55,15.55,0,0,0-3.16,2.68,12.41,12.41,0,0,0-3.38,7.68c3,.78,4.16-.08,6.54-1.76v19.89a5.09,5.09,0,0,0-1.23-1.59h0a4.41,4.41,0,0,0-1.29-.84,1.81,1.81,0,0,0-1.2-.08,1.88,1.88,0,0,0-.92.89A1.75,1.75,0,0,1,465,455a1.62,1.62,0,0,1-2.46-.67,4.68,4.68,0,0,1-.25-2.4h0a4.5,4.5,0,0,1,.89-2.12,3.39,3.39,0,0,0-.81-1.31,2.16,2.16,0,0,1-.95.22,2.21,2.21,0,0,1-2.21-2.21,2.12,2.12,0,0,1,.56-1.48h-.06a2.21,2.21,0,0,1-2.21-2.21,2.24,2.24,0,0,1,.75-1.65,2.43,2.43,0,0,1-.39-4.78,2.69,2.69,0,0,1,.45-5.34,3.29,3.29,0,0,1,.75.08,2.73,2.73,0,0,1-1.51-2.46,2.77,2.77,0,0,1,2.77-2.77,2.7,2.7,0,0,1,1.4.39,2.55,2.55,0,0,1-.5-1.56,2.69,2.69,0,0,1,4.33-2.12.35.35,0,0,1,0-.17,2.61,2.61,0,0,1,2.6-2.6,2.58,2.58,0,0,1,1.82.78,1.29,1.29,0,0,1,.2.2Zm0,62.7v6.37A63,63,0,0,0,451,521.47c-.34-1.26-.7-2.51-1.12-3.72a10,10,0,0,1-.06,1.84,10.68,10.68,0,0,1-1.09,3.63,18.24,18.24,0,0,1-2.88,4.08l-.95.95V494.51c2-3.52,5.53-7.66,8.52-11.18,1.34-1.56,2.57-3,3.49-4.16a10.74,10.74,0,0,1,1.79-2,2.91,2.91,0,0,1,2.51-.78,1.89,1.89,0,0,1,1.59,2,1.47,1.47,0,0,1-1.4,1.34,4.35,4.35,0,0,0,.25,1.84,4.51,4.51,0,0,0,3.77,2.74,8.41,8.41,0,0,0,3.41-.34,8,8,0,0,0,1.29-.47Zm0,99.91V601a92.07,92.07,0,0,1-5.78-8.21,8.87,8.87,0,0,1-6.26,1.17,13.33,13.33,0,0,1-7.18-4.61,18.7,18.7,0,0,0-1.7-1.84c-.67-.67-1.4-1.29-2.12-1.93a22.2,22.2,0,0,1,6.79-.42,7,7,0,0,1-1.17-1.23,8.93,8.93,0,0,1-.81-1.42,14.78,14.78,0,0,1-5.48-2.15,1,1,0,0,1-.42.2,1.5,1.5,0,0,1-1.09-.17v-1.87l.11,0a1.52,1.52,0,0,1,1.62.7,1,1,0,0,1,.08.73,14.46,14.46,0,0,0,4.92,2c-.11-.31-.2-.61-.31-.92a18.53,18.53,0,0,0-1.62-4,19.36,19.36,0,0,0-2.46-3.46c-.81-.5-1.59-1.06-2.35-1.62V553.85a16.84,16.84,0,0,1,1,1.87,4.7,4.7,0,0,1,.06-.56h0c0-.39,0-.78.06-1.17s0-.84,0-1.26a1.71,1.71,0,0,1-.95-.87,2.18,2.18,0,0,1-.11-.59h0V532.9c0-.06,0-.11.06-.17.53-1.45,1-2.88,1.51-4.33a9.54,9.54,0,0,1,2.6,3.69,3.29,3.29,0,0,1,.2.56c-.06,1.31-.11,2.65-.11,4,0,1.12,0,2.24.08,3.32a66.18,66.18,0,0,1-2.32,6.37c-.5,1.29-1,2.51-1.4,3.66a2.12,2.12,0,0,0-.11.31,1.71,1.71,0,0,1,1.06-.31,1.34,1.34,0,0,1,1.29.89,1.62,1.62,0,0,1,0,1.15,1.3,1.3,0,0,1-1.2.81V554c0,.39,0,.78,0,1.17.08.17.2.36.31.56.22.45.47.89.73,1.34a24.48,24.48,0,0,1,1.17-4.92,10.92,10.92,0,0,1,1.68-3.07,63.52,63.52,0,0,0,2.91,9.95,40.35,40.35,0,0,1,.28,6.43,18.58,18.58,0,0,1-.5,3.94,4.6,4.6,0,0,1-1.31,2.35,6.42,6.42,0,0,1,.2,2.18,18.11,18.11,0,0,1,2.6,1.09,16.48,16.48,0,0,1,3.13,2.18,10.92,10.92,0,0,0-.06-3,1.17,1.17,0,0,1-.7-.34,1.35,1.35,0,0,1-.14-1.7,1,1,0,0,1,1.56-.11,1.35,1.35,0,0,1,.14,1.7.89.89,0,0,1-.34.31,10.41,10.41,0,0,1,0,3.6,24.52,24.52,0,0,1,3.55,4.58c.22.34.42.67.59,1a52.4,52.4,0,0,1-.45-8.77,61.79,61.79,0,0,0,8.3,9Zm-25.23-88.91v33.75a29.83,29.83,0,0,1-3.74,3.19,33,33,0,0,1,1.65,8c.22-.87.45-1.7.7-2.54.45-1.34.92-2.65,1.4-4v18.38a2,2,0,0,1-.75.17,1.37,1.37,0,0,1-.34.92,11.91,11.91,0,0,1,1.09,1.48V572c-1.23-.92-2.4-1.93-3.55-3a57.57,57.57,0,0,1-5.36-5.67,16.17,16.17,0,0,0-3.13-2.71,10.12,10.12,0,0,1-1.17-1c2.29-.28,6.2.78,8.3,1.51l.31.08c-.08-.47-.11-1-.17-1.48a10.41,10.41,0,0,1-1.87-.89,20.22,20.22,0,0,1-1.7-1.15,2.75,2.75,0,0,1-1.79-.47,2.18,2.18,0,0,1-.92-1.56,1.63,1.63,0,0,1,.06-.53,1.6,1.6,0,0,1,.56-.73,1.58,1.58,0,0,1,.87-.34,2.49,2.49,0,0,1,.61.08,1.72,1.72,0,0,1,1.09,1.29,3.34,3.34,0,0,1-.08,1.87,17.52,17.52,0,0,0,1.59,1.06,11.36,11.36,0,0,0,1.54.78,22.1,22.1,0,0,0-.5-3.21,26.29,26.29,0,0,0-1.23-3.8,27.19,27.19,0,0,0-2-4c.53.14,1.09.25,1.62.42a15.91,15.91,0,0,0-3.1-3.8,21.39,21.39,0,0,1-2.6-2.88,28.77,28.77,0,0,1-2.65-4.53,9.55,9.55,0,0,1-.89-4.89,23.4,23.4,0,0,1,6.76,4.05c.5.45,1,.92,1.48,1.4a42.79,42.79,0,0,0-2.32-3.94,22.49,22.49,0,0,0-2.74-3.41,1.58,1.58,0,0,1-.5.08,1.41,1.41,0,0,1-1-.39,1.36,1.36,0,0,1-.42-.95,1.33,1.33,0,0,1,.39-.95,1.46,1.46,0,0,1,1-.39,1.35,1.35,0,0,1,1,.39,1.24,1.24,0,0,1,.45.95,1.36,1.36,0,0,1-.42.95,23.82,23.82,0,0,1,2.71,3.41c.39.59.78,1.2,1.15,1.82a27.29,27.29,0,0,1-.7-3.27,25.37,25.37,0,0,1,.14-7.12A21.8,21.8,0,0,1,432,518a22.69,22.69,0,0,1-.92-7.49,19.05,19.05,0,0,1,4.25,3.35,13.45,13.45,0,0,1,1.76,2.43c-.06-.73-.08-1.45-.08-2.15l0,0a18,18,0,0,0-1.31-2.18,16.77,16.77,0,0,0-1.34-1.73.15.15,0,0,1-.11.06,1.57,1.57,0,0,1-1.23-.08,1.87,1.87,0,0,1-.84-.95,1.63,1.63,0,0,1,0-1.26,1.48,1.48,0,0,1,.89-.84,1.56,1.56,0,0,1,1.23.11,1.69,1.69,0,0,1,.81,2.18,1.08,1.08,0,0,1-.31.47c.45.53.89,1.12,1.34,1.73.28.42.59.89.87,1.37a57.21,57.21,0,0,1,.5-6.54,17.15,17.15,0,0,1,3.3,4.47,10,10,0,0,1,.14-4.41,8.81,8.81,0,0,1,2.54-4.08,8.45,8.45,0,0,1-.08-4,11.51,11.51,0,0,1,1.56-3.88Zm0,84v1.87a1.22,1.22,0,0,1-.53-.53A.9.9,0,0,1,444.95,578.55Z" transform="translate(-428.68 -402)"/><path d="M517,426.92a44.93,44.93,0,0,1,.06,5.11,20.67,20.67,0,0,1-.42,3.63,7.83,7.83,0,0,1-.36,1.06,1.66,1.66,0,0,0,.36,2.21l.2.17a1,1,0,0,0,.61.22,1,1,0,0,0,.64-.34.75.75,0,0,0,.2-.22,5.75,5.75,0,0,0,.89-2.46,23.88,23.88,0,0,0,.28-4.33,51.48,51.48,0,0,0-.53-7.8,21.53,21.53,0,0,0-2.24-7.26,6.35,6.35,0,0,0-.92-1.34,1.07,1.07,0,0,0-1.15-.31c-.92.42-.73,1.4.06,1.9s1.48,2.6,1.82,4.67h0A50.38,50.38,0,0,1,517,426.92Z" transform="translate(-428.68 -402)" style="fill:#fff704"/><path d="M541.73,458A111.29,111.29,0,0,0,486.35,457c-.78.2-.42-.06-.87-.22-.25-.11-.5.08-1.17.11-.87.06-.7-.47-.31-.92s.75-.47.73-.67a2.58,2.58,0,0,1-1,.17c-.31-.08-.08-.64-.7-.5s-1.12.39-1.12.11a1.06,1.06,0,0,1,.67-.84,102.62,102.62,0,0,1,18.27-3.58,3.76,3.76,0,0,1,1.26,1,3.81,3.81,0,0,1,1-1.23c2.93-.25,5.92-.36,8.88-.36s5.92.11,8.91.36a4,4,0,0,1,1,1.23,4.33,4.33,0,0,1,1.23-1,101,101,0,0,1,22.46,4.92,20.85,20.85,0,0,1-4.47-.92c-.14.53,3,1.37,3.8,1.31a5.69,5.69,0,0,1,2.6.78c.81.5,1.31,1.12-.17,1.31s-3.55-.87-4-1C542.57,456.68,540.95,456.85,541.73,458Z" transform="translate(-428.68 -402)" style="fill:#fff704"/><path d="M508.4,415.58c1.9-.59.87,1.45.39,2.12a11.46,11.46,0,0,0-1.29,4.14h0a50.38,50.38,0,0,0-.5,5.09,44.93,44.93,0,0,0-.06,5.11,20.67,20.67,0,0,0,.42,3.63,7.83,7.83,0,0,0,.36,1.06,1.66,1.66,0,0,1-.36,2.21l-.2.17a1,1,0,0,1-.61.22,1,1,0,0,1-.64-.34,1.6,1.6,0,0,1-.2-.22,6.14,6.14,0,0,1-.89-2.46,23.88,23.88,0,0,1-.28-4.33,27.83,27.83,0,0,1,.34-5.25,23.3,23.3,0,0,1,1.68-4.83,16,16,0,0,0,.56-2.24,18.33,18.33,0,0,1,.89-3.41A3.85,3.85,0,0,1,508.4,415.58Z" transform="translate(-428.68 -402)" style="fill:#fff704"/><path d="M509.93,419.63a2.13,2.13,0,0,0,1.7,1.59,2.18,2.18,0,0,0,.2,4.33,2.32,2.32,0,0,0,.06,4.64,2.26,2.26,0,0,0-.28,4.47,2,2,0,0,0-1.56,2,1.36,1.36,0,0,0,0,.34,2.92,2.92,0,0,0-.92,1.65,3.83,3.83,0,0,0-1,.22c.61-.84.36-1.45.06-2.29a7.06,7.06,0,0,1-.34-1,19,19,0,0,1-.42-3.52c-.06-1.56,0-3.32.06-5.06.06-.84.17-2.65.42-4.47A3.57,3.57,0,0,1,509.93,419.63Z" transform="translate(-428.68 -402)" style="fill:#fff704"/><path d="M515.86,438.85a3,3,0,0,0-1-.25,2.92,2.92,0,0,0-.92-1.65,1.36,1.36,0,0,0,0-.34,2,2,0,0,0-1.56-2,2.26,2.26,0,0,0-.28-4.47,2.32,2.32,0,0,0,.06-4.64,2.18,2.18,0,0,0,.2-4.33,2.16,2.16,0,0,0,1.73-2.54,3.07,3.07,0,0,1,1.62,2c.08.39.17.81.22,1.23h0a49.94,49.94,0,0,1,.53,5c.08,1.73.11,3.49.06,5.06a19,19,0,0,1-.42,3.52,7.06,7.06,0,0,1-.34,1A2,2,0,0,0,515.86,438.85Z" transform="translate(-428.68 -402)" style="fill:#fff704"/><path d="M511.7,444.33a6.51,6.51,0,0,1-4.58,3.1,9.11,9.11,0,0,1-5.42-1.59.28.28,0,0,1,.06-.5,1.69,1.69,0,0,0,1.17-1.12,1.62,1.62,0,0,0,.08-.89,2.2,2.2,0,0,0-.34-.84h0a1.82,1.82,0,0,0-3.07.25,1.87,1.87,0,0,0-.17.78h0a2,2,0,0,0,.11.81,1.71,1.71,0,0,0,1.54,1.09.28.28,0,0,1,.2.45,6.88,6.88,0,0,1-4.47,2.6,8,8,0,0,1-5.34-1.26.29.29,0,0,1,.2-.5,2.65,2.65,0,0,0,2.82-1.34,3.15,3.15,0,0,0,.34-1.59,3.34,3.34,0,0,0-.5-1.51,2.17,2.17,0,0,0-2.43-.78.28.28,0,0,1-.31-.17,2.41,2.41,0,0,0-1.65-1.56,2.64,2.64,0,0,0-1.15,0,2.32,2.32,0,0,0-1.79,2.63.33.33,0,0,1-.22.28,2.15,2.15,0,0,0-1.82,1.82,2.8,2.8,0,0,0,.14,1.42,3.26,3.26,0,0,0,.81,1.23,2.78,2.78,0,0,0,3.19.25.28.28,0,0,1,.34.39,8,8,0,0,1-4.08,3.1,9.06,9.06,0,0,1-5.39-.25.26.26,0,0,1-.14-.39,1.8,1.8,0,0,0,.28-1,1.7,1.7,0,0,0-.22-.89,1.58,1.58,0,0,0-.61-.67,1.86,1.86,0,0,0-2.43.42,2.2,2.2,0,0,0-.34.84,2.08,2.08,0,0,0,.08.92,1.74,1.74,0,0,0,1.17,1.12.28.28,0,0,1,.14.39A4.66,4.66,0,0,1,476,453a5.61,5.61,0,0,1-2.63.53.26.26,0,0,1-.22-.42,3.14,3.14,0,0,0,.7-1.93,2.46,2.46,0,0,0-.17-.92,2.33,2.33,0,0,0-.53-.73,2.4,2.4,0,0,0-1.42-.42h0a2,2,0,0,0-1.17.28,3.35,3.35,0,0,0-.92.87.28.28,0,0,1-.45-.06,3.42,3.42,0,0,0-1.56-1.48,2.71,2.71,0,0,0-1.82-.11,3.5,3.5,0,0,0-1.68.95h0a3.86,3.86,0,0,0-1.23,2.35h0a6.92,6.92,0,0,0-.06.81,3.42,3.42,0,0,0,.22,1.31,1.06,1.06,0,0,0,.81.64l.2,0a1.14,1.14,0,0,0,.67-.22,1,1,0,0,0,.36-.42,1.27,1.27,0,0,0,.14-.56,1.09,1.09,0,0,0-.2-.64.33.33,0,0,1,0-.28,2.23,2.23,0,0,1,1.31-1.31,2.18,2.18,0,0,1,1.56.08,3.84,3.84,0,0,1,1.2.73c.61.5.95,1.37,1.76.61h0a2,2,0,0,0,.56-.81c.17-.36.67-.17.5.2a2.77,2.77,0,0,1-.67,1h0c-1.09.87-.22.87-.22,2.26a1.16,1.16,0,0,0,.08.45,2.13,2.13,0,0,0,2.57.84,105.84,105.84,0,0,1,76.64,0,2.14,2.14,0,0,0,2.57-.84c1-2.07-3.41-1.79-4.89-2.79a4.66,4.66,0,0,1-1.9-1.68.26.26,0,0,1,.14-.39,1.74,1.74,0,0,0,1.17-1.12,2.59,2.59,0,0,0,.08-.92,1.88,1.88,0,0,0-.36-.84,1.66,1.66,0,0,0-1.42-.7,1.93,1.93,0,0,0-1,.28,1.86,1.86,0,0,0-.84,1.57,1.83,1.83,0,0,0,.31,1,.27.27,0,0,1-.17.39,9.05,9.05,0,0,1-5.39.25,7.9,7.9,0,0,1-4.08-3.13c-.14-.2.11-.5.36-.39a2.75,2.75,0,0,0,3.16-.2,2.85,2.85,0,0,0,.84-1.23,2.55,2.55,0,0,0,.17-1.42,2.18,2.18,0,0,0-1.82-1.84.33.33,0,0,1-.22-.28,2.32,2.32,0,0,0-1.79-2.63,2.64,2.64,0,0,0-1.15,0,2.41,2.41,0,0,0-1.65,1.56.28.28,0,0,1-.31.17,2.2,2.2,0,0,0-2.46.81,3,3,0,0,0-.47,1.48,2.93,2.93,0,0,0,.31,1.54,2.68,2.68,0,0,0,2.82,1.4.28.28,0,0,1,.17.5,7.87,7.87,0,0,1-5.31,1.26,6.88,6.88,0,0,1-4.47-2.6.27.27,0,0,1,.2-.45,1.71,1.71,0,0,0,1.54-1.09,2.58,2.58,0,0,0,.11-.81,1.9,1.9,0,0,0-.2-.78,1.65,1.65,0,0,0-1.59-1,1.69,1.69,0,0,0-1.45.73,1.57,1.57,0,0,0-.34.84,1.92,1.92,0,0,0,.06.89,1.68,1.68,0,0,0,1.2,1.12.28.28,0,0,1,.06.5,8.82,8.82,0,0,1-5.45,1.56,6.39,6.39,0,0,1-4.58-3.13c-.17-.22.17-.56.39-.39a2.15,2.15,0,0,0,1.45.45,3.21,3.21,0,0,0,1.34-.28h0a2.54,2.54,0,0,0,1.09-.78,2.38,2.38,0,0,0,.53-1.59,2.71,2.71,0,0,0-.73-1.82,2.27,2.27,0,0,0-1.73-.7.3.3,0,0,1-.25-.25,2.49,2.49,0,0,0-.61-1.37,2,2,0,0,1-1.7,1.06c.53,2.18.5,2,2.82,2.54a5.12,5.12,0,0,1-5.7,0c2.32-.53,2.29-.36,2.82-2.54a2,2,0,0,1-1.7-1.06,2.49,2.49,0,0,0-.61,1.37.3.3,0,0,1-.25.25,2.65,2.65,0,0,0-1.76.61,1.76,1.76,0,0,0-.64,1.42,1.43,1.43,0,0,0,.47,1,1.64,1.64,0,0,0,.47.28.81.81,0,0,0,.5.08.88.88,0,0,0,.67-.31.27.27,0,0,1,.45.25,1.57,1.57,0,0,0,.08.89,1.41,1.41,0,0,0,.42.56h0a1.23,1.23,0,0,0,.61.2.93.93,0,0,0,.61-.22C511.53,443.77,511.83,444.11,511.7,444.33Z" transform="translate(-428.68 -402)" style="fill:#fff704"/><path d="M512,417.51a1.61,1.61,0,1,0,1.59,1.59A1.61,1.61,0,0,0,512,417.51Z" transform="translate(-428.68 -402)" style="fill:#fff704"/><path d="M498.81,615.15a2.42,2.42,0,0,1-2.68,1.54,4.72,4.72,0,0,1-3.24-1.7,3.92,3.92,0,0,1-.75-1.48,4.66,4.66,0,0,1-.14-1.65,5,5,0,0,1,2-3.32c1.29-1,3.86-1.87,6.17-2.65.92-.31,1.82-.59,2.54-.87a2.48,2.48,0,0,0,1.7-2,1.45,1.45,0,0,0-.56-1.37,1.63,1.63,0,0,0-1.73.2,28.77,28.77,0,0,1-4.69,2.12c-.81.34-1.68.64-2.54,1a10.54,10.54,0,0,0-4.67,4.05,7.4,7.4,0,0,0-.75,6.85,7.3,7.3,0,0,0,3,3.24,6.65,6.65,0,0,0,5.11.75,5.63,5.63,0,0,0,3.38-2.35,4.25,4.25,0,0,0-.25-4.81,1.86,1.86,0,0,0-3.07.39,1.33,1.33,0,0,0,.25,1.45,2.87,2.87,0,0,0,1,.56Z" transform="translate(-428.68 -402)" style="fill:#fff704"/><path d="M518.32,601.24c.84.92,1.37,1.93,2.32,2.82a11.18,11.18,0,0,0,1.12,1,8.17,8.17,0,0,0,2.1.89c2.35.75,4.95,1.59,6.2,2.6a5,5,0,0,1,2,3.32,4.36,4.36,0,0,1-.89,3.13,4.72,4.72,0,0,1-3.24,1.7,2.42,2.42,0,0,1-2.68-1.54,2.86,2.86,0,0,0,1-.56,1.33,1.33,0,0,0,.25-1.45,1.86,1.86,0,0,0-3.07-.39,4.25,4.25,0,0,0-.25,4.81,5.63,5.63,0,0,0,3.38,2.35,6.65,6.65,0,0,0,5.11-.75,7.3,7.3,0,0,0,3-3.24,7.4,7.4,0,0,0-.75-6.85,10.54,10.54,0,0,0-4.67-4.05c-.87-.39-1.73-.7-2.54-1a28.77,28.77,0,0,1-4.69-2.12,6.81,6.81,0,0,0-3.6-.61Z" transform="translate(-428.68 -402)" style="fill:#fff704"/><path d="M512,599.45a62.81,62.81,0,1,0-62.81-62.84A62.94,62.94,0,0,0,512,599.45Z" transform="translate(-428.68 -402)" style="fill:#ed1b24"/><path d="M517.59,602.69a10.65,10.65,0,0,1,1.87,1.48,10.37,10.37,0,0,1,3.1,7.38,9.48,9.48,0,0,1-.11,1.54,2.79,2.79,0,0,1,.5-.73,2.66,2.66,0,0,1,1.2-.7,2.86,2.86,0,0,1,1.29,0,2.63,2.63,0,0,1,1,.56,2.23,2.23,0,0,1,.5.75,1.84,1.84,0,0,1,.14,1,1.91,1.91,0,0,1-.5,1,3.9,3.9,0,0,1-.61.45,1.57,1.57,0,0,0,.61.53,2.25,2.25,0,0,0,1.23.2,4.39,4.39,0,0,0,2.91-1.51,3.28,3.28,0,0,0,.64-1.29,3.63,3.63,0,0,0,.11-1.45,4.37,4.37,0,0,0-1.73-3c-1.17-.95-3.74-1.76-6-2.51l-.81-.25a5.64,5.64,0,0,1-1.42-.7,12,12,0,0,1-1.2-1c-.45-.45-.87-.89-1.29-1.37l0,0-.95-.25c-.14,0-.25-.08-.39-.11Z" transform="translate(-428.68 -402)" style="fill:#fff704"/><path d="M526.53,483.75a54.84,54.84,0,0,1,0,105.78v-6a49,49,0,0,0,9.28-89.72v15.06a36.58,36.58,0,0,1-9.28,61.41V563.8a30.94,30.94,0,0,0,16.29-27.19,30.63,30.63,0,0,0-7-19.53v15.67h-5.92V511.58a33.86,33.86,0,0,0-3.35-2.1V503q1.72.75,3.35,1.68V491c-1.09-.45-2.21-.84-3.35-1.2Zm-8.07-1.59a55,55,0,0,1,8.07,1.59v6q-1.63-.5-3.35-.92v12.91a34.42,34.42,0,0,1,3.35,1.26v6.45a36.56,36.56,0,0,0-3.35-1.56v45.57h-4.72V482.16Zm8.07,107.37a55,55,0,0,1-8.07,1.59v-5.87a48.27,48.27,0,0,0,8.07-1.76v6Zm0-19.28a37,37,0,0,1-8.07,2.43v-5.92a31.07,31.07,0,0,0,8.07-3ZM517.26,482c.39.06.81.08,1.2.14v71.33h-1.2V506.27a31.08,31.08,0,0,0-10.51,0v26.35h-5.92v-24.7a31.16,31.16,0,0,0-6.71,3.66v50.12a30.53,30.53,0,0,0,24.34,5.06v5.92a35.33,35.33,0,0,1-6.45.59,36.74,36.74,0,0,1-36-30.18l5.67-1.2a31.2,31.2,0,0,0,6.57,14.28V517.09a30.89,30.89,0,0,0-4.36,7l-5.2-2.6a36.89,36.89,0,0,1,22.18-19.75V488.87a49.05,49.05,0,0,0,8.24,96.73v5.84A54.87,54.87,0,0,1,506.75,482V500.4a35.46,35.46,0,0,1,10.51,0V482Zm1.2,109.11v-5.87c-1.17.17-2.32.28-3.52.34v5.84C516.14,591.35,517.28,591.27,518.46,591.13Z" transform="translate(-428.68 -402)" style="fill:#fff704"/><path d="M512.06,605.88c-.56,1-1.15,2-1.79,3q-.75,1.26-1.59,2.51c-.17.28-.22.47.06.64a3.21,3.21,0,0,0,1.34.28,15.29,15.29,0,0,1,6.71,2.71,8.33,8.33,0,0,0,2.12,1.23c.28.06.53-.08.87-.47h0a14.59,14.59,0,0,0,.95-1.34c.67-1.2-.28-2.18-1.29-2.74a32.8,32.8,0,0,0-7.26-3,.27.27,0,1,1,.14-.53,35.63,35.63,0,0,1,6.54,2.54c1.2.61,2-.64,2.18-1.62a2.67,2.67,0,0,0-1.9-3.21,40.48,40.48,0,0,0-5.7-1.42c-1.37-.25-.7.25-1.34,1.37Z" transform="translate(-428.68 -402)" style="fill:#fff704"/><path d="M519.07,604.54a10.08,10.08,0,0,0-6.54-2.88s0,0,0,0c-.22.14-.25.53-.22.84s.17,1.29.61,1.34a36.65,36.65,0,0,1,5.45,1.26.56.56,0,0,0,.7-.17c.06-.08.11-.34,0-.42Z" transform="translate(-428.68 -402)" style="fill:#fff704"/><path d="M511.39,621.41a4.53,4.53,0,0,0,.61,0h.22a9.62,9.62,0,0,0,.14-1.26.27.27,0,1,1,.53,0,5.83,5.83,0,0,1-.11,1.2c.36,0,.73-.08,1.09-.14a8.09,8.09,0,0,0,0-1.42.28.28,0,1,1,.56-.06c0,.45,0,.89,0,1.34.31-.08.64-.17.95-.28a7.15,7.15,0,0,0-.14-1.54.27.27,0,1,1,.53-.08,7.64,7.64,0,0,1,.17,1.4,9.38,9.38,0,0,0,.92-.45,3.59,3.59,0,0,0-.06-1.34.28.28,0,1,1,.53-.14,4.29,4.29,0,0,1,.11,1.15,1,1,0,0,0,.45-.89c0-.08-.06-.17-.08-.28a.26.26,0,1,1,.47-.22s0,0,0,.06a1.8,1.8,0,0,0,.17-.84c0-.95-1.12-1.73-1.93-2.07-2.35-1-3.35.84-5.17,1.62a11.86,11.86,0,0,1-4.89,1,3.94,3.94,0,0,0,1,1.34l.17-.22a.27.27,0,1,1,.45.31l-.2.25a3.39,3.39,0,0,0,.39.28.82.82,0,0,0,.2-.45.27.27,0,1,1,.53.11,1.41,1.41,0,0,1-.25.64,4.21,4.21,0,0,0,.61.31,2,2,0,0,0,.22-.7.27.27,0,1,1,.53.08,2.67,2.67,0,0,1-.25.84,7.15,7.15,0,0,0,.89.34,2.31,2.31,0,0,0,.14-.95.28.28,0,1,1,.56-.06,3.65,3.65,0,0,1-.14,1.09Z" transform="translate(-428.68 -402)" style="fill:#fff704"/><path d="M506.55,617.64a9.27,9.27,0,0,0,2-.17c1.37-.22,3.88-.95,4.61-2.29a1.22,1.22,0,0,0-.5-1.65,10.46,10.46,0,0,0-4.64-.73c-.53.06-1,.25-1.51.34v4.5Zm0-5.06a2.07,2.07,0,0,0,1.29-.89c.7-1,1.34-2.07,2-3.07s1.23-2,1.82-3,.67-2.57-.45-3.27c-.06,0-.08-.06-.14-.06h0c-.39-.2-1.68-.2-1.45.53.14.5.73.78.84,1.37a2.36,2.36,0,0,1-.28,1.31,34.18,34.18,0,0,1-2.35,4.19.27.27,0,1,1-.45-.31,28.06,28.06,0,0,0,2.29-4.11,1.72,1.72,0,0,0,.22-1,2.26,2.26,0,0,0-.75-1,2.4,2.4,0,0,0-2.54.11v3c.2-.34.39-.64.59-.95a.27.27,0,1,1,.45.28l-.75,1.26a3.39,3.39,0,0,0-.28.39v5.22Zm-1.62-8a9.75,9.75,0,0,0-2.93,7,9.61,9.61,0,0,0,1.17,4.64,3.87,3.87,0,0,0,3.38,1.45v-4.5a3.08,3.08,0,0,1-.5.06,3.34,3.34,0,0,1-2.46-.92c-.28-.28.08-.67.36-.39a2.91,2.91,0,0,0,2.07.78,1.63,1.63,0,0,0,.53-.08v-5.22l-.59.84c-.25.34-.7,0-.45-.31s.59-.81.84-1.23l.2-.28v-3a7,7,0,0,0-1.62,1.2Z" transform="translate(-428.68 -402)" style="fill:#fff704"/><path d="M501.55,613.09a9.48,9.48,0,0,1-.11-1.54,10.29,10.29,0,0,1,2.32-6.51,3,3,0,0,1-.89.47c-.75.28-1.65.59-2.57.89-2.26.75-4.81,1.59-6,2.54a4.37,4.37,0,0,0-1.73,3,3.63,3.63,0,0,0,.11,1.45,3.28,3.28,0,0,0,.64,1.29c1,1.23,3.13,1.84,3.91.06a2.3,2.3,0,0,1-.28-.73,1.84,1.84,0,0,1,.14-1,2.23,2.23,0,0,1,.5-.75,2.63,2.63,0,0,1,1-.56,2.86,2.86,0,0,1,1.29,0,2.66,2.66,0,0,1,1.2.7,2.79,2.79,0,0,1,.5.73Z" transform="translate(-428.68 -402)" style="fill:#fff704"/><path d="M512,601.1a25.57,25.57,0,0,1,6.59,1.31c-.7-1.09-3-3-4.39-3l-2.21,0c-.67,0-1.37,0-2,0a1.15,1.15,0,0,0-.78,2.07,10.43,10.43,0,0,1,2.82-.39Z" transform="translate(-428.68 -402)" style="fill:#fff704"/><path d="M488.45,612.17a9.23,9.23,0,0,1,1.26-3.38,11.34,11.34,0,0,1,4.92-4.27c.89-.39,1.76-.7,2.6-1a30.33,30.33,0,0,0,4.61-2.1l.34-.17a1.35,1.35,0,0,0,.08-1c-.59,0-1.06.08-1.45.14-.92.11-1.29.08-1.37-.92,0-.22,0-.5-.06-.87-.39.17-.75.31-1,.45a6.62,6.62,0,0,0-.92.59.32.32,0,0,1-.28,0,12.54,12.54,0,0,0-2.68-.87,8.06,8.06,0,0,0-2.71-.14.26.26,0,0,1-.25-.42,9.59,9.59,0,0,1,.67-.92,3,3,0,0,1,.28-.34,3.25,3.25,0,0,0-.5.11,8.1,8.1,0,0,0-1.17.34.28.28,0,0,1-.31-.39l.59-1.06a8.6,8.6,0,0,0-1.48.22,9.53,9.53,0,0,0-1.87.56c-.2.08-.45-.17-.34-.36l.7-1.62a.09.09,0,0,0-.06,0c-.75.14-1.51.31-2.26.47a.29.29,0,0,1-.31-.36l.34-1.09-.25-.14a7.17,7.17,0,0,1-2,.95,2.47,2.47,0,0,1-1.51-.08,1.83,1.83,0,0,1-1-1.17,5.27,5.27,0,0,1-.14-2.1l-.08,0-.84.7a.28.28,0,0,1-.45-.2l-.08-1.31a.58.58,0,0,0-.17-.11l-.56.47c-.06.06-.11.08-.14.11a.28.28,0,0,1-.45-.17,6,6,0,0,1,0-1,3.43,3.43,0,0,1-.89.47.27.27,0,0,1-.36-.22,9.13,9.13,0,0,1,0-1.23,1.7,1.7,0,0,0-.28-.2,2.28,2.28,0,0,1-1,.28,1.94,1.94,0,0,1-1.12-.25,2.05,2.05,0,0,1-.81-.81,2.54,2.54,0,0,1-.31-1.62c-1.31-1-2.57-2.1-3.8-3.21a5.35,5.35,0,0,1-.25.89,13.24,13.24,0,0,1-1.68,3.46,13.3,13.3,0,0,0-1.51,2.77c-.34.81-.95,2.24-.64,3.1a1.18,1.18,0,0,0,1.76.45c.25-.67.53-1.31.78-2s.64-1.45.95-2.1a.26.26,0,1,1,.47.22c-.31.67-.61,1.37-.92,2.07s-.59,1.45-.87,2.15a2.5,2.5,0,0,0,.11,1.56.77.77,0,0,0,.92.47,1.41,1.41,0,0,0,1-.81c.22-.59.45-1.15.7-1.68h0c.22-.59.47-1.17.75-1.79a.28.28,0,1,1,.5.22q-.38.84-.75,1.76h0l-.75,1.84a3,3,0,0,0-.2,1.7,1.76,1.76,0,0,0,.73,1.12c.45.28,1.09-.25,1.23-.64s.25-.78.39-1.17l.28-.84c.14-.36.67-.2.53.17l-.31.87c-.11.36-.25.75-.39,1.15a3.92,3.92,0,0,0-.17,1.79,3.08,3.08,0,0,0,.73,1.48c.28.34.53.64.95.45a1.11,1.11,0,0,0,.61-.61c.34-.92.67-1.9,1-2.85.2-.56.36-1.09.5-1.42a.27.27,0,1,1,.5.17l-.47,1.42c-.34.95-.64,1.87-1,2.85a2.29,2.29,0,0,0-.08,1.54.87.87,0,0,0,.92.59,1.31,1.31,0,0,0,1.17-1.06c.06-.53.14-1.17.28-1.87s.39-1.79.64-2.82a.27.27,0,1,1,.53.14c-.25,1-.47,2-.64,2.79a17.08,17.08,0,0,0-.28,2.07,1.11,1.11,0,0,0,.17.84.47.47,0,0,0,.59.14,1.82,1.82,0,0,0,.92-1,11.5,11.5,0,0,0,.84-2.15,27.44,27.44,0,0,0,.64-3.1.27.27,0,1,1,.53.08,27.27,27.27,0,0,1-.64,3.16,11.94,11.94,0,0,1-.89,2.26c-.42.81-.25,2.51,1,1.54a11.9,11.9,0,0,0,2.24-3.16,4.43,4.43,0,0,1,.36-.61.27.27,0,1,1,.45.28c-.08.14-.2.34-.34.61a14.93,14.93,0,0,1-2,2.91c-.5.56-1.29,1.51-1.12,2.29a.76.76,0,0,0,.78.61c.73,0,1.26-.67,1.62-1.23.5-.84,1.06-1.59,1.62-2.35s1.23-1.59,1.84-2.35a.28.28,0,1,1,.42.36c-.64.75-1.26,1.54-1.82,2.32a23.22,23.22,0,0,0-1.59,2.26c-.34.5-.89.95-1.06,1.51a1.52,1.52,0,0,0,0,1.17.62.62,0,0,0,.64.36,1.94,1.94,0,0,0,1.17-.87c.78-1.12,1.59-2.18,2.46-3.24s1.76-2,2.68-3a.28.28,0,1,1,.39.39c-.92.95-1.82,2-2.65,3s-1.65,2.1-2.43,3.19a2.54,2.54,0,0,1-.75.78,2.57,2.57,0,0,0,.11,2.24,3,3,0,0,0,.42.42c.81.42,1.45-1,1.65-1.54a11.91,11.91,0,0,1,2-3.21,15.92,15.92,0,0,1,2.74-2.37c.11-.08.22-.17.39.06s0,.31-.08.39a14.72,14.72,0,0,0-2.63,2.29,10.44,10.44,0,0,0-1.84,3c-.28.73-1,1.42-.25,2.15a1.27,1.27,0,0,0,.53.31,1.24,1.24,0,0,0,.64.06,1.54,1.54,0,0,0,1.17-1.12Z" transform="translate(-428.68 -402)" style="fill:#fff704"/><path d="M524.46,602.53c.78.36,1.56.64,2.35.95s1.68.64,2.57,1a11.34,11.34,0,0,1,4.92,4.27,9.52,9.52,0,0,1,1.31,3.63,7.84,7.84,0,0,1-.22,2.91c.31.31.84.08,1.17-.14a4.65,4.65,0,0,0,1.42-2.57,6.73,6.73,0,0,0,.11-3.46,10.59,10.59,0,0,0-3.46-4.75,14.58,14.58,0,0,0-5.64-2.57.27.27,0,1,1,.11-.53A14.71,14.71,0,0,1,535,604a11.09,11.09,0,0,1,3.63,5,4.87,4.87,0,0,1,.22,1.4.85.85,0,0,0,.47.75c.56.36.87-.5.95-.92a6.66,6.66,0,0,0-1.17-5,10.57,10.57,0,0,0-5.22-4,.27.27,0,1,1,.17-.5,11.39,11.39,0,0,1,5.53,4.16,7.14,7.14,0,0,1,1.15,5.76,1,1,0,0,0,.08.89.46.46,0,0,0,.5.31c1-.2,1.2-2,1.29-2.74a17.18,17.18,0,0,0,.17-2.43,6.27,6.27,0,0,0-.67-3c-.73-1.37-2.93-2.43-4.69-3.32-.53-.25-1-.5-1.45-.75a.27.27,0,1,1,.25-.47c.42.25.92.47,1.45.75,1.82.89,4.11,2,4.95,3.55a7,7,0,0,1,.73,3.24,18.69,18.69,0,0,1-.2,2.51c-.06.64.45.92.95.5a5.56,5.56,0,0,0,1.56-3.3,6.78,6.78,0,0,0-.39-3.94,8.21,8.21,0,0,0-2.46-2.74,17.48,17.48,0,0,0-3.6-1.87.27.27,0,1,1,.2-.5,16.13,16.13,0,0,1,3.72,2,8.52,8.52,0,0,1,2.65,2.91,6.21,6.21,0,0,1,.53,3c0,.31-.11.47.2.7a.79.79,0,0,0,1.09.06,2.67,2.67,0,0,0,.5-.84,7.1,7.1,0,0,0,.28-2.93c-.28-2.32-2.43-4.08-4.95-5.36a35.27,35.27,0,0,0-6.82-2.4h0a3,3,0,0,1,0,1,.29.29,0,0,1-.39.22c-.42-.2-.75-.39-1.09-.59a4.9,4.9,0,0,1,.36,1.23.27.27,0,0,1-.34.31,15.89,15.89,0,0,1-1.65-.45h0c-.11,0-.45-.25-.56-.28.31.31.84.78,1.23,1.15.17.17-.06.53-.28.45a15.06,15.06,0,0,1-2.35-1.09,12.06,12.06,0,0,0,1.17,1.76c.14.22-.17.56-.39.39a28.21,28.21,0,0,1-2.35-1.73l-.34.11c.17.45.36.89.56,1.31.11.25-.28.5-.45.31a16,16,0,0,1-1-1.37l-1.59.42c.5.53,1,1,1.56,1.51a.28.28,0,1,1-.36.42,18,18,0,0,1-1.79-1.79c-.42.11-.84.2-1.23.28l1.48,1.62a.28.28,0,1,1-.42.36l-1.7-1.84-1.73.34c.22.17.45.36.7.53.56.42,1.12.81,1.73,1.2.34.2,0,.67-.31.47-.61-.39-1.2-.81-1.76-1.23-.36-.28-.73-.56-1.06-.87-.42.08-.87.14-1.29.2a9.2,9.2,0,0,0,1.23,1.79,8.87,8.87,0,0,0,2.07,1.76Z" transform="translate(-428.68 -402)" style="fill:#fff704"/><path d="M540.45,595a28.77,28.77,0,0,1,3.19,1.37c2.65,1.34,4.92,3.24,5.25,5.78a8.71,8.71,0,0,1,0,1.23c.42.34.53.47,1,0a3.29,3.29,0,0,0,1-2.71,7.09,7.09,0,0,0-1.51-3.13,10,10,0,0,0-3.52-2.46,18,18,0,0,1-2.32-1.37c-.42-.28-.84-.53-1.26-.84a1.88,1.88,0,0,0-1.26-.5c-.28,0-.39.08-.34.36a6.93,6.93,0,0,0,.47.89,3.13,3.13,0,0,1-1-.14c-.45-.11-.89-.25-1,0C539,594,540,594.87,540.45,595Z" transform="translate(-428.68 -402)" style="fill:#fff704"/><path d="M552.85,587.52a10.49,10.49,0,0,1,1.84,2,15.69,15.69,0,0,1,1.59,2.63,6.15,6.15,0,0,1,.25.59c.61.17.56.06.56-.5a1.25,1.25,0,0,1,0-.31,10.48,10.48,0,0,0-.25-2.51,7.71,7.71,0,0,0-1.06-2.6,2.56,2.56,0,0,0-1.93-1.17,3.17,3.17,0,0,0-.7.08.87.87,0,0,0-.7.53,1.29,1.29,0,0,0,.36,1.29Z" transform="translate(-428.68 -402)" style="fill:#fff704"/><path d="M551.12,590.26a31.76,31.76,0,0,1,3.49,4.11,5.67,5.67,0,0,1,.78,1.82c.36.14.84.28,1-.17a2.61,2.61,0,0,0,.11-.87,8.5,8.5,0,0,0-.75-2.77,12.82,12.82,0,0,0-1.54-2.54,8.62,8.62,0,0,0-1.73-1.87,1.77,1.77,0,0,0-1.23-.45,1.57,1.57,0,0,0-1,.61.83.83,0,0,0-.22.64C550.06,589.31,550.78,589.92,551.12,590.26Z" transform="translate(-428.68 -402)" style="fill:#fff704"/><path d="M548.69,592.27c.47.45.95.89,1.45,1.31a10.64,10.64,0,0,1,2.21,2.54,7.48,7.48,0,0,1,.73,1.82c.06.28.11.53.53.59.87.06,1.37-.95,1.34-1.7a4.38,4.38,0,0,0-.81-2.15,30.41,30.41,0,0,0-3.41-4c-.25-.28-.53-.53-.64-.67h0a2.06,2.06,0,0,0-1-.61.88.88,0,0,0-.81.2c-.28.25-.7.5-.73.95-.11.89.56,1.2,1.17,1.76Z" transform="translate(-428.68 -402)" style="fill:#fff704"/><path d="M546.12,594.62a10.22,10.22,0,0,1,3.72,2.63,7.36,7.36,0,0,1,1.62,3.35,3.42,3.42,0,0,1,.06.53h.22a1.07,1.07,0,0,0,.61-.2,1.21,1.21,0,0,0,.36-.61,4.23,4.23,0,0,0,.06-.64,7.24,7.24,0,0,0-.89-3.27,9,9,0,0,0-2.1-2.4c-.5-.42-1-.89-1.48-1.34s-.95-.92-1.48-1.37a3.73,3.73,0,0,0-1.48-.75c-.2,0-.5-.08-.59.17a3.51,3.51,0,0,0,.17,1.17c-.47-.11-1.62-.78-1.45.22C543.66,593.36,545.08,594.14,546.12,594.62Z" transform="translate(-428.68 -402)" style="fill:#fff704"/><path d="M451.32,520.41a107,107,0,0,0-6-15.2c-.61-1.31-1.26-2.6-.7-4.08.28-.73.89-.67,1.51-.45a47.18,47.18,0,0,1,2.49,4.25,46.12,46.12,0,0,1,2.21,4.92.27.27,0,1,0,.5-.2,44.75,44.75,0,0,0-2.24-5,46,46,0,0,0-2.57-4.36,3.22,3.22,0,0,1-.47-2.71,1.35,1.35,0,0,1,1-1.06,4.92,4.92,0,0,0,.39.64c.89,1.15,1.7,2.32,2.51,3.49s1.54,2.4,2.24,3.66a.28.28,0,1,0,.47-.28q-1-1.89-2.26-3.69t-2.51-3.52a2.77,2.77,0,0,1-.61-1.48c-.06-1.09,1.2-2.57,2-1.4,1,1.45,2.07,3,3.07,4.53s2.15,3.38,3.19,5.14a.28.28,0,1,0,.47-.28c-1.06-1.76-2.12-3.49-3.21-5.14s-2.12-3.24-3.21-4.75a1.39,1.39,0,0,1-.31-.95h0a1,1,0,0,1,.17-.59.89.89,0,0,1,1.4-.14C452,493.2,453,494.59,454,496s2,3,3,4.5a.26.26,0,1,0,.45-.28c-1-1.56-2-3-3-4.53s-2.12-3-3.35-4.44a1.3,1.3,0,0,1-.06-1.31l.22-.31c.53-.59,1-.64,1.48-.08a39,39,0,0,1,5.84,7.26.27.27,0,1,0,.45-.28,41.39,41.39,0,0,0-5.9-7.38c-.39-.39-.75-.64-.67-1.26a1.75,1.75,0,0,1,.59-1.09c.61-.5.89-.59,1.45,0a32.14,32.14,0,0,1,2.79,3.38c.92,1.29,1.84,2.65,2.79,4.11.06.11.14.22.36.08s.17-.25.08-.39c-.92-1.45-1.87-2.85-2.79-4.11a33.85,33.85,0,0,0-2.85-3.44c-.47-.5-.75-.89-.36-1.56.73-1.15,1.34-.42,2,.31.95,1.06,1.87,2.15,2.77,3.32s1.76,2.46,2.6,3.8c.08.11.14.22.39.08s.14-.25.08-.36c-.87-1.37-1.73-2.65-2.63-3.83s-1.84-2.32-2.79-3.38a2.34,2.34,0,0,1-.7-1.17.9.9,0,0,1,.31-.75c.53-.59,1.73-1.82,2.35-.45a8,8,0,0,0,2.4,3,9.1,9.1,0,0,0,3.66,1.68c3.13.67,6.31-.67,8.8-2.46a22.59,22.59,0,0,0,6.62-7.4,12.11,12.11,0,0,0,1.29-8.41,37.18,37.18,0,0,0,13.33,3,31.43,31.43,0,0,0,10.06-1.37,23.89,23.89,0,0,1,13.86,0A31.53,31.53,0,0,0,529,471.93a37.18,37.18,0,0,0,13.33-3,12,12,0,0,0,1.31,8.41,22.2,22.2,0,0,0,6.59,7.4c2.49,1.79,5.67,3.13,8.8,2.46a9.1,9.1,0,0,0,3.66-1.68,8,8,0,0,0,2.4-3c.61-1.37,1.82-.14,2.35.45a.9.9,0,0,1,.31.75,2.34,2.34,0,0,1-.7,1.17c-.95,1.06-1.87,2.18-2.79,3.38s-1.76,2.46-2.63,3.83c-.06.11-.14.22.08.36s.31,0,.39-.08c.84-1.34,1.7-2.6,2.6-3.8s1.82-2.26,2.77-3.32c.64-.73,1.26-1.45,2-.31.39.67.11,1.06-.36,1.56a33.85,33.85,0,0,0-2.85,3.44c-.92,1.26-1.84,2.65-2.79,4.11-.08.14-.14.25.08.39s.31,0,.36-.08c.95-1.45,1.87-2.82,2.79-4.11a32.14,32.14,0,0,1,2.79-3.38c.56-.59.84-.5,1.45,0a1.75,1.75,0,0,1,.59,1.09c.08.61-.28.87-.67,1.26a41.39,41.39,0,0,0-5.9,7.38.27.27,0,1,0,.45.28,39,39,0,0,1,5.84-7.26c.47-.56.95-.5,1.48.08l.22.31a1.3,1.3,0,0,1-.06,1.31c-1.23,1.48-2.32,2.93-3.35,4.44s-2,3-3,4.53a.26.26,0,1,0,.45.28c1-1.54,2-3,3-4.5s2-2.79,3.16-4.19a.89.89,0,0,1,1.4.14,1,1,0,0,1,.17.59h0a1.39,1.39,0,0,1-.31.95c-1.09,1.51-2.15,3.1-3.21,4.75s-2.15,3.38-3.21,5.14a.28.28,0,1,0,.47.28c1-1.76,2.1-3.46,3.19-5.14s2-3.07,3.07-4.53c.84-1.17,2.1.31,2,1.4a2.57,2.57,0,0,1-.61,1.48q-1.3,1.72-2.51,3.52c-.78,1.2-1.56,2.43-2.26,3.69a.28.28,0,1,0,.47.28c.7-1.26,1.45-2.46,2.24-3.66s1.62-2.35,2.51-3.49a4.92,4.92,0,0,0,.39-.64,1.35,1.35,0,0,1,1,1.06,3.22,3.22,0,0,1-.47,2.71,46,46,0,0,0-2.57,4.36,44.75,44.75,0,0,0-2.24,5,.27.27,0,1,0,.5.2,46.12,46.12,0,0,1,2.21-4.92,47.18,47.18,0,0,1,2.49-4.25c.61-.22,1.23-.28,1.51.45.56,1.48-.08,2.77-.7,4.08a107,107,0,0,0-6,15.2,62.82,62.82,0,0,0-121.37,0Z" transform="translate(-428.68 -402)" style="fill:#fff704"/><path d="M561.71,478.33c.06.78.7.87,1.31.84a5,5,0,0,1-.22,2.57,5,5,0,0,1-4.22,3.1,8.49,8.49,0,0,1-3.63-.34,12.78,12.78,0,0,1-5.2-3.35,16.82,16.82,0,0,1-3.77-5.64,10.5,10.5,0,0,1-.75-4.44,9,9,0,0,1,1.31-4,2.33,2.33,0,0,1,2.21-.92c.64,0,1.23-.06,1.42-.56a1.08,1.08,0,0,0-.2-1.12,1.94,1.94,0,0,0-1.45-.73c-2.71-.08-4.78,2.35-5.5,4.72a11.62,11.62,0,0,0,1.09,8.61,21.94,21.94,0,0,0,6.43,7.21c2.35,1.7,5.42,3,8.38,2.37a8.74,8.74,0,0,0,3.44-1.56,7.38,7.38,0,0,0,2.24-2.85,5.33,5.33,0,0,0,.42-3,2.82,2.82,0,0,0-.42-1.12,2,2,0,0,0-2-1A1.18,1.18,0,0,0,561.71,478.33Z" transform="translate(-428.68 -402)" style="fill:#fff704"/><path d="M542.82,467.44a8.15,8.15,0,0,1,2.07-2.88c-7.35,2.82-17.1,4.47-27.27,4.92A29.62,29.62,0,0,0,529,471.4a36,36,0,0,0,12.52-2.79A2.26,2.26,0,0,0,542.82,467.44Z" transform="translate(-428.68 -402)" style="fill:#fff704"/><path d="M462.3,478.33c-.06.78-.7.87-1.31.84a5.33,5.33,0,0,0,.22,2.57,5,5,0,0,0,4.22,3.1,8.49,8.49,0,0,0,3.63-.34,12.78,12.78,0,0,0,5.2-3.35,16.41,16.41,0,0,0,3.77-5.64,10.5,10.5,0,0,0,.75-4.44,9,9,0,0,0-1.31-4,2.33,2.33,0,0,0-2.21-.92c-.64,0-1.23-.06-1.42-.56a1.08,1.08,0,0,1,.2-1.12,2,2,0,0,1,1.45-.73c2.71-.08,4.78,2.35,5.5,4.72A11.49,11.49,0,0,1,479.9,477a21.94,21.94,0,0,1-6.43,7.21c-2.35,1.7-5.42,3-8.38,2.37a8.74,8.74,0,0,1-3.44-1.56,7.38,7.38,0,0,1-2.24-2.85,5.33,5.33,0,0,1-.42-3,2.82,2.82,0,0,1,.42-1.12,2,2,0,0,1,2-1A1.18,1.18,0,0,1,462.3,478.33Z" transform="translate(-428.68 -402)" style="fill:#fff704"/><path d="M499.37,470.79a12.51,12.51,0,0,1-4.36.61,36,36,0,0,1-12.52-2.79h0a2.31,2.31,0,0,1-1.29-1.17h0a8.15,8.15,0,0,0-2.07-2.88,79.64,79.64,0,0,0,19.56,4.33C499.74,469,500.74,470.2,499.37,470.79Z" transform="translate(-428.68 -402)" style="fill:#fff704"/><path d="M455.37,585.43a19,19,0,0,1,2.15.64,21.76,21.76,0,0,1,5.87,3.74c-.64-.81-1.29-1.59-2-2.35-1.12-1.29-2.32-2.54-3.46-3.77a4.86,4.86,0,0,1-.36-.42,7,7,0,0,1-1.76-.61,18.07,18.07,0,0,1-1.79-1.09.27.27,0,1,1,.31-.45,14.15,14.15,0,0,0,1.73,1,4.73,4.73,0,0,0,.87.36c-.25-.25-.45-.53-.67-.78-.5-.67-.95-1.29-1.37-1.93a.27.27,0,1,1,.45-.31c.42.61.87,1.26,1.37,1.9s1.06,1.29,1.62,1.9c1.15,1.23,2.29,2.46,3.46,3.8.75.87,1.51,1.73,2.21,2.65a27.36,27.36,0,0,1-1.31-4.44,13.22,13.22,0,0,0-1.42-2.79c-1.87-3-3.86-5.39-7-7a16.48,16.48,0,0,0-6.2-1.82,20.1,20.1,0,0,1,2.1,3.1,19.75,19.75,0,0,1,1.7,4.08,8.38,8.38,0,0,0,1.26,2.77A5.7,5.7,0,0,0,455.37,585.43Z" transform="translate(-428.68 -402)" style="fill:#178358"/><path d="M445.34,506.64c.11.28.25.56.39.84a1.64,1.64,0,0,0-.7.14A3.3,3.3,0,0,0,445.34,506.64Z" transform="translate(-428.68 -402)" style="fill:#178358"/><path d="M446.93,510.16c.78,1.79,1.54,3.6,2.24,5.48a18.67,18.67,0,0,0-2.57,2v-1.82c.5-.22.78-.36.78-1.31a1.07,1.07,0,0,0-.2-.73,4.59,4.59,0,0,1-.59.67v-3.86C446.71,510.49,446.82,510.32,446.93,510.16Zm-.34,7.52c-.31.31-.64.64-.95,1a15.06,15.06,0,0,0-2,2.85,22.61,22.61,0,0,1,.95-3.32.28.28,0,1,0-.53-.2,26.3,26.3,0,0,0-.87,3,25.72,25.72,0,0,0-.61-4.83,5.63,5.63,0,0,1,.64-1.65,4.62,4.62,0,0,1,1.12-1.34,11,11,0,0,0,2.24-2.51v3.86c-.11.06-.22.14-.36.2-.56.2-.39.89-.36,1.54a5.81,5.81,0,0,1,.73-.36Z" transform="translate(-428.68 -402)" style="fill:#178358"/><path d="M448.36,586c.45.39.87.78,1.29,1.2A23.55,23.55,0,0,1,451.4,589a12.55,12.55,0,0,0,6.85,4.44,8.23,8.23,0,0,0,5.87-1.12c-.06-.11-.14-.22-.2-.34l-.11,0a10.33,10.33,0,0,0-3.94-1.23h-.08a4.55,4.55,0,0,0-.87.08c-.59.11-1.09.2-1.54.25a5.3,5.3,0,0,1-1.17,0c-.14,0-.28-.06-.22-.34s.2-.25.31-.22a4.33,4.33,0,0,0,1.06,0,8.19,8.19,0,0,0,1.26-.2,6.51,6.51,0,0,1-.92-.39,17.56,17.56,0,0,1-2.18-1.2c-.11-.08-.22-.17-.08-.39s.28-.14.39-.08a15.37,15.37,0,0,0,2.12,1.2,14.62,14.62,0,0,0,1.9.73,11,11,0,0,1,4.19,1.29.4.4,0,0,0,.17.06l.14-.17a23,23,0,0,0-7-4.78A16.48,16.48,0,0,0,448.36,586Z" transform="translate(-428.68 -402)" style="fill:#178358"/><path d="M447.54,573.1a18,18,0,0,1,3.63.59,10.76,10.76,0,0,0-1.9-2.26,18.73,18.73,0,0,0-1.9-1.65,6.21,6.21,0,0,0-1.9-.08.27.27,0,1,1-.06-.53,4.75,4.75,0,0,1,1.06-.06,4,4,0,0,0-.42-.31c-.34-.25-.67-.5-1-.73a11.79,11.79,0,0,1-2-.7c-.7-.31-1.45-.67-2.26-1.12-.36-.17-.11-.64.25-.47.81.42,1.54.81,2.24,1.09a2.85,2.85,0,0,0,.61.25,3.22,3.22,0,0,1-.47-.39c-.89-.7-1.73-1.4-2.6-2.15a.27.27,0,1,1,.34-.42c.89.75,1.73,1.45,2.6,2.15s1.76,1.4,2.65,2a27.41,27.41,0,0,1,3.3,2.65,13.63,13.63,0,0,1,1.82,2.12,7.57,7.57,0,0,0-1.12-3.35,17.48,17.48,0,0,0-3.88-4.36,20.72,20.72,0,0,0-6.62-3.8,30.29,30.29,0,0,0-6.65-1.48l0,0a17.29,17.29,0,0,1,3.24,2.82,59.24,59.24,0,0,0,5.28,5.59A44.82,44.82,0,0,0,447.54,573.1Z" transform="translate(-428.68 -402)" style="fill:#178358"/><path d="M445.2,579.06c-.31.08-.45.31-.31.59a1,1,0,0,0,1,.42.39.39,0,0,0,.31-.59A.94.94,0,0,0,445.2,579.06Z" transform="translate(-428.68 -402)" style="fill:#178358"/><path d="M457.27,572.46a.8.8,0,0,0,.08,1,.49.49,0,0,0,.75,0C458.55,572.77,457.74,571.82,457.27,572.46Z" transform="translate(-428.68 -402)" style="fill:#178358"/><path d="M440.92,561.43a21.38,21.38,0,0,1,3.55,1.84,15.19,15.19,0,0,1,.22-1.68c.06-.36.17-.53.06-.89a21.43,21.43,0,0,0-1-2.57,15.39,15.39,0,0,0-1.34-2.29c-.22-.31.2-.61.45-.31a17.71,17.71,0,0,1,1.4,2.37,21.07,21.07,0,0,1,.89,2.12c.53-1.51,1-2.54.28-4.16a13.27,13.27,0,0,0-3-4.3,12,12,0,0,0-4.86-2.63,29.29,29.29,0,0,1,1.42,3,31.15,31.15,0,0,1,1.26,3.86,26.49,26.49,0,0,1,.53,3.8C440.78,560.2,440.84,560.81,440.92,561.43Z" transform="translate(-428.68 -402)" style="fill:#178358"/><path d="M445,563.61a21,21,0,0,1,1.82,1.4c.36.31.7.61,1,.92a6.37,6.37,0,0,0-.22-2,8.83,8.83,0,0,0-.92-2.21.27.27,0,1,1,.47-.25,9.32,9.32,0,0,1,1,2.32,7.19,7.19,0,0,1,.2,2.6,15.62,15.62,0,0,1,1.82,2.12,16.67,16.67,0,0,0-.28-4.11,22.06,22.06,0,0,0-1.65-4.78c-.56-1.2-1.2-2.37-1.82-3.55a12.56,12.56,0,0,1-.7,3.74,10,10,0,0,0-.53,1.84,10.42,10.42,0,0,0-.2,1.9Z" transform="translate(-428.68 -402)" style="fill:#178358"/><path d="M450.7,569.28a9.19,9.19,0,0,1,.92,1.9,4.15,4.15,0,0,0,.95-1.93,17.69,17.69,0,0,0,.5-3.83,42.66,42.66,0,0,0-.67-8.94,59.21,59.21,0,0,1-1.82-6.71,11,11,0,0,0-1.31,2.57,24.93,24.93,0,0,0-1.26,5.56c.25.5.5,1,.75,1.54a23,23,0,0,1,1.62,4.64c.06-.84.11-1.7.17-2.51.08-1.51.14-3,.17-4.39a.28.28,0,1,1,.56,0c0,1.45-.08,2.93-.2,4.41s-.17,2.71-.28,4.05S450.81,568.08,450.7,569.28Z" transform="translate(-428.68 -402)" style="fill:#178358"/><path d="M438.72,548.77a12.4,12.4,0,0,1,3.13,1.68,38.44,38.44,0,0,0-2-3.55c-.95-1.51-2-3-3-4.44a0,0,0,0,0,0,0,10.26,10.26,0,0,1-1.93-.95,16,16,0,0,1-2-1.54.27.27,0,1,1,.36-.39,18.62,18.62,0,0,0,2,1.45,8.13,8.13,0,0,0,1.17.64c-.22-.34-.45-.7-.7-1a17.5,17.5,0,0,0-1.29-1.65.28.28,0,1,1,.42-.36c.47.56.92,1.12,1.31,1.68,1.42,2,2.85,4.27,4.16,6.34a43.64,43.64,0,0,1,2.6,4.69h0a6.68,6.68,0,0,1,.61.64c.34-.39.22-1.26-.28-2.6a50.75,50.75,0,0,0-3.46-7,21.06,21.06,0,0,0-4.64-5.48,23,23,0,0,0-5.87-3.69,8.61,8.61,0,0,0,.87,3.88,27.92,27.92,0,0,0,2.63,4.44,18.49,18.49,0,0,0,2.51,2.79,15.08,15.08,0,0,1,3.44,4.39S438.72,548.74,438.72,548.77Z" transform="translate(-428.68 -402)" style="fill:#178358"/><path d="M446.51,550.53a.88.88,0,0,0-.92.42c-.34.64.31,1.31.95,1.31a.71.71,0,0,0,.73-.47.94.94,0,0,0,0-.73A.78.78,0,0,0,446.51,550.53Z" transform="translate(-428.68 -402)" style="fill:#178358"/><path d="M436.48,557.15a3.18,3.18,0,0,0,.08-1.59,1.14,1.14,0,0,0-.75-.89.89.89,0,0,0-.39-.06,1.08,1.08,0,0,0-.59.22.93.93,0,0,0-.36.45,1.15,1.15,0,0,0,0,.31,1.59,1.59,0,0,0,.7,1.17A2.1,2.1,0,0,0,436.48,557.15Z" transform="translate(-428.68 -402)" style="fill:#178358"/><path d="M440.22,542.12c.53.95,1,1.84,1.45,2.65a44.16,44.16,0,0,0-1.45-6.26,39.42,39.42,0,0,0-3.1-7.29.28.28,0,1,1,.47-.28,39.58,39.58,0,0,1,3.16,7.4,53.92,53.92,0,0,1,1.45,6.29,26.22,26.22,0,0,1,.28-3v-.14a34.26,34.26,0,0,0-2-10.45,11.55,11.55,0,0,0-4.25-5.64,23.67,23.67,0,0,0-.11,6.73,22.51,22.51,0,0,0,1.79,6.23C438.52,539.74,439.47,540.75,440.22,542.12Z" transform="translate(-428.68 -402)" style="fill:#178358"/><path d="M443.94,549.83c.2-1.73.45-3.46.73-5.14.34-2,.73-4,1.17-5.9a12.63,12.63,0,0,1-.17-1.48q0-.75.08-1.59a.28.28,0,1,1,.56.06,7.19,7.19,0,0,0-.08,1.54,6.85,6.85,0,0,0,.06.75,2.61,2.61,0,0,0,.39-.53,5.36,5.36,0,0,0,.5-1.2c.06-.11.08-.25.36-.17s.22.22.17.34a5.16,5.16,0,0,1-.56,1.31,4.17,4.17,0,0,1-.75.92c-.45,2-.87,4-1.2,6s-.59,4-.78,6.09c.47-.08.47-.67.61-1.06.42-1.17.92-2.43,1.42-3.69a46.8,46.8,0,0,0,2.74-8.19v-1.31c0-.67,0-1.34,0-2a9.73,9.73,0,0,0-.61-2.32,8.49,8.49,0,0,0-1.84-2.91c-.39,1.2-.81,2.37-1.23,3.52-.5,1.4-1,2.79-1.45,4.14a29,29,0,0,0-1.34,9C442.77,547.4,443.58,548.57,443.94,549.83Z" transform="translate(-428.68 -402)" style="fill:#178358"/><path d="M438.69,526.86a50.44,50.44,0,0,0-2.07-5.28,23.4,23.4,0,0,0-3.77-6c-.08-.11-.2-.22,0-.39s.28-.08.36,0a23.8,23.8,0,0,1,3.88,6.09c.45.95.84,1.9,1.23,2.91a41.34,41.34,0,0,1-1.15-6.4,11.89,11.89,0,0,0-2.29-3.66,16.53,16.53,0,0,0-3.3-2.74,20.29,20.29,0,0,0,.89,6.37,21.54,21.54,0,0,0,3,6.06C436.42,525.19,437.65,525.63,438.69,526.86Z" transform="translate(-428.68 -402)" style="fill:#178358"/><path d="M440.73,530.22a7.28,7.28,0,0,1,.28.7c.42-.28.61-1.2.89-2.6.08-.39.17-.84.25-1.31a25.44,25.44,0,0,0-.17-11.15,18.1,18.1,0,0,0-4.08-8.21,43.5,43.5,0,0,0-.2,9.78A47.71,47.71,0,0,0,440.36,529c.17-1.17.25-2.37.31-3.58a48,48,0,0,0-.11-4.89,15.41,15.41,0,0,0-1.65-4.72c-.28-.53-.53-1.09-.75-1.59-.06-.14-.11-.25.14-.36s.31,0,.36.14c.2.5.47,1,.73,1.59s.56,1.17.81,1.76l-.17-1.48c-.2-1.17-.42-2.37-.67-3.58,0-.14-.08-.28.2-.34s.31.08.34.22c.25,1.23.5,2.43.67,3.6s.25,2,.34,3c.06.59.17,1.12.2,1.68a48.88,48.88,0,0,1,.11,4.95,29.4,29.4,0,0,1-.47,4.72Z" transform="translate(-428.68 -402)" style="fill:#178358"/><path d="M431.37,528.48a1,1,0,0,0-.61.22.78.78,0,0,0-.22.56.7.7,0,0,0,.25.56.87.87,0,0,0,.61.22.92.92,0,0,0,.61-.22.75.75,0,0,0,0-1.12A1,1,0,0,0,431.37,528.48Z" transform="translate(-428.68 -402)" style="fill:#178358"/><path d="M441.93,513.65a10.89,10.89,0,0,0,.47-1.34,5,5,0,0,1,2.18-2.65c.11-.08.22-.2.31-.25a.27.27,0,1,1,.34.42,2,2,0,0,1-.31.25,4.48,4.48,0,0,0-2,2.37,9.43,9.43,0,0,1-.36,1.06,2.94,2.94,0,0,1-.42.84c.06.22.14.47.2.73a5,5,0,0,1,.42-.87,5.23,5.23,0,0,1,1.26-1.48,11.59,11.59,0,0,0,2.49-2.93c-.14-.53-.22-1.37-.64-1.7-.14-.14-.42-.08-.73.06a5.39,5.39,0,0,0-1.42,1,11,11,0,0,0-1.68,2.12C441.4,512.31,441.59,512.61,441.93,513.65Z" transform="translate(-428.68 -402)" style="fill:#178358"/><path d="M443.16,523.87a21.44,21.44,0,0,1-.47,3.27c.11-.08.22-.22.36-.34a7.37,7.37,0,0,0,.92-1.23h0c.61-1,1.12-1.68,1.7-2.51a2.81,2.81,0,0,1,.36-.53.28.28,0,1,1,.45.34c-.06.06-.14.2-.36.5-.59.84-1.09,1.54-1.68,2.51h0a8.63,8.63,0,0,1-1,1.29c-.5.53-.87.53-1,1.26s-.25,1.2-.36,1.68a29,29,0,0,0,3.44-3.16,16.68,16.68,0,0,0,2.77-3.94,10.57,10.57,0,0,0,1.06-3.46,9.12,9.12,0,0,0-.17-3.24,16.22,16.22,0,0,0-3.1,2.71,15.43,15.43,0,0,0-2.88,4.81A.1.1,0,0,0,443.16,523.87Z" transform="translate(-428.68 -402)" style="fill:#178358"/><path d="M433.24,507.64a.93.93,0,0,0-.59.53,1.09,1.09,0,0,0,0,.84,1,1,0,0,0,.56.64,1,1,0,0,0,.81.08,1,1,0,0,0,.59-.56,1.09,1.09,0,0,0,0-.84,1.26,1.26,0,0,0-.56-.64A1,1,0,0,0,433.24,507.64Z" transform="translate(-428.68 -402)" style="fill:#178358"/><path d="M441.82,510.55a15.65,15.65,0,0,1,1.51-1.82c.84-.84,1.65-1.34,1.45-2.82a7.13,7.13,0,0,0-1.17-2.88,8.23,8.23,0,0,0-2.32,7.46,19.32,19.32,0,0,1,.53-2.82,17.92,17.92,0,0,1,1.31-3.6.28.28,0,1,1,.5.22,18.38,18.38,0,0,0-1.29,3.52A22.56,22.56,0,0,0,441.82,510.55Z" transform="translate(-428.68 -402)" style="fill:#178358"/><path d="M466,588.84a17,17,0,0,0,.11-3.41,23.67,23.67,0,0,0-1.48-7.12.28.28,0,0,1,.17-.36c-.81-.92-1.56-1.84-2.32-2.82a48.42,48.42,0,0,0,.5,8.47,27.49,27.49,0,0,0,2,7A8.13,8.13,0,0,0,466,588.84Z" transform="translate(-428.68 -402)" style="fill:#178358"/><path d="M465.26,578.5a25,25,0,0,1,1.37,6.93c0,.75,0,1.48,0,2.21a3.7,3.7,0,0,0,.53-1.65,26.78,26.78,0,0,0,.14-5c0-.11,0-.2.08-.22C466.66,580,466,579.28,465.26,578.5Z" transform="translate(-428.68 -402)" style="fill:#178358"/><path d="M467.86,581.26a29.16,29.16,0,0,1-.11,4.61,14.51,14.51,0,0,0,1-2.32c.11-.36.2-.75.31-1.17C468.64,582,468.25,581.63,467.86,581.26Z" transform="translate(-428.68 -402)" style="fill:#178358"/><path d="M583.81,545a11.07,11.07,0,0,1-.17,2.35c.87-.92,1.76-1.82,2.65-2.71a9.49,9.49,0,0,1,.22-1.29A8.69,8.69,0,0,1,587,542a.27.27,0,1,1,.5.17c-.17.47-.31.89-.42,1.34,0,.17-.08.36-.11.53,1.23-1.17,2.51-2.32,3.8-3.46a.28.28,0,1,1,.36.42c-1.31,1.15-2.6,2.29-3.86,3.49a2.11,2.11,0,0,1,.42,0c.34,0,.7,0,1,.06a.27.27,0,1,1-.06.53c-.31,0-.64-.06-1-.06h-.95c-1.12,1.09-2.21,2.21-3.27,3.41a13.38,13.38,0,0,1-1.62,3.6l.67-.39a8.82,8.82,0,0,1,1.9-2.18,39.16,39.16,0,0,0,4.81-4,20.68,20.68,0,0,0,3.72-5.14c.61-1.15.92-2.68,1.59-3.66a15.68,15.68,0,0,0-5.48,2,15.85,15.85,0,0,0-5.06,6c-.08.17-.14.2-.14.36Z" transform="translate(-428.68 -402)" style="fill:#178358"/><path d="M587.75,538.93a16.21,16.21,0,0,0,.89-2.43,6.09,6.09,0,0,0,.11-2.46,13.82,13.82,0,0,1,.59-5.39c.08-.31.14-.59.2-.87a29.57,29.57,0,0,0-5.28,5.31,10.36,10.36,0,0,0-2.24,6.45,11,11,0,0,1,1.48,3.38c0-.87,0-1.7.08-2.46a17.35,17.35,0,0,1,.45-3,7.72,7.72,0,0,1,1-2.15,5.41,5.41,0,0,1,1.34-1.31.28.28,0,1,1,.34.45,4.56,4.56,0,0,0-1.23,1.2,6.71,6.71,0,0,0-.92,2c-.06.2-.08.39-.14.61a7.59,7.59,0,0,1,.67-.67,11.43,11.43,0,0,1,1.48-1.12.28.28,0,1,1,.28.47,12,12,0,0,0-1.4,1,13.39,13.39,0,0,0-1.2,1.31h0c-.06.39-.08.81-.11,1.26-.06.87-.08,1.79-.08,2.79A15.21,15.21,0,0,1,587.75,538.93Z" transform="translate(-428.68 -402)" style="fill:#178358"/><path d="M576.66,559.83a0,0,0,0,0,0,0,27.26,27.26,0,0,1-1.84,10.09c.95-1.59,1.87-3.35,2.74-5.17l.17-.34h0a9,9,0,0,0,.08-1.2c0-.39-.08-.78-.14-1.15a.27.27,0,1,1,.53-.11,7.55,7.55,0,0,1,.14,1.15c.81-1.84,1.59-3.72,2.29-5.5a.27.27,0,1,1,.5.2c-.7,1.82-1.48,3.69-2.29,5.53.08-.06.14-.14.22-.2q.67-.5,1.34-.92a.28.28,0,0,1,.28.47,12.94,12.94,0,0,0-1.29.87A4,4,0,0,0,578,565q-.84,1.8-1.76,3.44a23.47,23.47,0,0,1,3.69-3.13,25.33,25.33,0,0,1,2.93-1.65,5,5,0,0,0-.11-3.44,7.48,7.48,0,0,1-.31-1.26c-.28-2.54,1.76-5.78,3.1-7.91a13.56,13.56,0,0,0-5,2.54A13.25,13.25,0,0,0,576.66,559.83Z" transform="translate(-428.68 -402)" style="fill:#178358"/><path d="M589,512.56a.83.83,0,0,0-.7.17,1.31,1.31,0,0,0-.47.75,1.38,1.38,0,0,0,.06.89.76.76,0,0,0,1.2.28,1.37,1.37,0,0,0,.5-.78,1.27,1.27,0,0,0-.06-.87A.78.78,0,0,0,589,512.56Z" transform="translate(-428.68 -402)" style="fill:#178358"/><path d="M578.5,513.59a9.09,9.09,0,0,1,.78,1.56c.14.34.25.7.36,1.06a13.88,13.88,0,0,1,1.23-2.29,3.69,3.69,0,0,0-1.51-2.57,4.56,4.56,0,0,0-2.35-.73c-1,1.79-1.4,2.85-1.37,3.94a15.14,15.14,0,0,0,1.31,4.5v.06a3.39,3.39,0,0,1,1.82.95,11.12,11.12,0,0,1,.31-2.12,5.35,5.35,0,0,1,.25-.89c-.17-.59-.36-1.15-.56-1.68a9.46,9.46,0,0,0-.73-1.51A.27.27,0,1,1,578.5,513.59Z" transform="translate(-428.68 -402)" style="fill:#178358"/><path d="M579.62,518.09a10.4,10.4,0,0,0,1.26,8,14.61,14.61,0,0,0,1.12,1.56c.06-.17.11-.34.17-.47a18.13,18.13,0,0,1-.39-6.71c.11-.84.28-1.7.47-2.57-.17-.39-.34-.78-.47-1.17a6.72,6.72,0,0,1-.22-1.34c0-.39.53-.39.56,0a4.13,4.13,0,0,0,.2,1.17,4.07,4.07,0,0,0,.2.53,22.24,22.24,0,0,1,1.23-3.27.28.28,0,1,1,.5.25,20.23,20.23,0,0,0-1.15,3,.74.74,0,0,1,.14-.17,4.34,4.34,0,0,0,.67-.78.28.28,0,1,1,.47.31,7.28,7.28,0,0,1-.75.87,9.69,9.69,0,0,1-.81.7,17,17,0,0,0-.47,2.6c-.06.47-.11.95-.14,1.42l.45-.45a8,8,0,0,0,.61-.78.28.28,0,1,1,.5.25,7.89,7.89,0,0,1-.73.89,6.81,6.81,0,0,0-.84,1,19.48,19.48,0,0,0,.34,3.35,20.75,20.75,0,0,1,3.16-4.89,9.4,9.4,0,0,0,.39-2.88,10.4,10.4,0,0,0-.5-2.91,7.8,7.8,0,0,1-.31-3.21,15.28,15.28,0,0,1,.42-2.43,17.63,17.63,0,0,0-1.62,1.23A13.19,13.19,0,0,0,579.62,518.09Z" transform="translate(-428.68 -402)" style="fill:#178358"/><path d="M574.76,523a5.36,5.36,0,0,0,1.34.42c-.56-.75-1.09-1.54-1.59-2.29a.27.27,0,1,1,.45-.31l1.51,2.18c0-.25-.08-.53-.11-.78-.08-.53-.2-1-.31-1.56a.27.27,0,1,1,.53-.14c.11.53.22,1.09.31,1.62s.2,1.2.25,1.82l1.12,1.54c.22.28.42.59.64.87,0-.11,0-.22,0-.31h0c0-.36,0-.73,0-1.06a.28.28,0,1,1,.56,0c0,.36,0,.73,0,1.09h0c0,.31-.06.59-.11.89.7.89,1.4,1.76,2.12,2.63a11.6,11.6,0,0,1,.31-1.34h0a13.86,13.86,0,0,1-1.34-1.9,11.34,11.34,0,0,1-1.68-5.53c-1.34-1.56-2.6-1.31-4.22-1l-.95.17a14.67,14.67,0,0,0,2.29,6.87,12.42,12.42,0,0,0,5.48,4.14c0-.22,0-.45,0-.67-.81-.95-1.59-1.93-2.35-2.91h-.84a4.77,4.77,0,0,1-.87-.08.27.27,0,1,1,.06-.53c.28,0,.56.06.84.06a1.84,1.84,0,0,0,.39,0c-.28-.36-.53-.73-.78-1.06-.45-.61-.89-1.2-1.31-1.82a5.33,5.33,0,0,1-2-.5A.28.28,0,1,1,574.76,523Z" transform="translate(-428.68 -402)" style="fill:#178358"/><path d="M583,526.67a12.1,12.1,0,0,0-1.09,4.55,10.78,10.78,0,0,0,.53,3.91,13.71,13.71,0,0,1,1.12-1.93l0,0a3.87,3.87,0,0,1,0-1.79,27.33,27.33,0,0,1,2.12-5.64c.42-.78.84-1.59,1.31-2.35.06-.36.11-.64.14-.92a7.59,7.59,0,0,0,.08-.87.27.27,0,1,1,.53,0,3.38,3.38,0,0,1,0,.53c.31-.5.64-1,.95-1.48.08-.11.14-.22.36-.08s.17.25.08.39a55.75,55.75,0,0,0-2.93,5c-.14.25-.25.5-.36.75l0,0a7.16,7.16,0,0,1,1-.61.28.28,0,1,1,.25.5,4.51,4.51,0,0,0-.92.56,10.21,10.21,0,0,0-.84.75,0,0,0,0,0,0,0,21.51,21.51,0,0,0-1.2,3.58,2.28,2.28,0,0,0-.06,1.06,26.54,26.54,0,0,1,2.4-2.71.1.1,0,0,0,0-.06,22,22,0,0,0,2.18-4.16,21.29,21.29,0,0,0,1.31-4.39c.2-1.09.34-2.21.61-3.32a21.08,21.08,0,0,0-3.94,3.32,20.59,20.59,0,0,0-3.58,5.39Z" transform="translate(-428.68 -402)" style="fill:#178358"/><path d="M593.22,530a2.5,2.5,0,0,0-.95,1.42s0,.06,0,.08a2.88,2.88,0,0,0,1.2-.22,1.53,1.53,0,0,0,.75-.7c.11-.25.39-.87-.08-.89A2.11,2.11,0,0,0,593.22,530Z" transform="translate(-428.68 -402)" style="fill:#178358"/><path d="M581,539c-.84-1.06-1.59-2.07-2.26-3-.53-.78-1-1.51-1.37-2.21a23.43,23.43,0,0,0-1.34,5.73,22,22,0,0,0,.2,6.2,11.41,11.41,0,0,0,1.56,3.94,11.76,11.76,0,0,0,2.51,2.79,45.21,45.21,0,0,0-1-6.71,8.45,8.45,0,0,1-1.17-.87,10.06,10.06,0,0,1-1.15-1.26.27.27,0,1,1,.42-.34,9,9,0,0,0,1.12,1.17c.2.2.39.34.59.5-.39-1.51-.84-3-1.34-4.44a.28.28,0,1,1,.53-.17c.47,1.4.92,2.82,1.29,4.25a8.71,8.71,0,0,0,.22-1.45.27.27,0,1,1,.53,0,7.29,7.29,0,0,1-.53,2.4,44.13,44.13,0,0,1,1.06,6.93C583.84,548.41,584.23,543.15,581,539Z" transform="translate(-428.68 -402)" style="fill:#178358"/><path d="M580.26,565.76a18,18,0,0,0-6.57,7.52,27.75,27.75,0,0,0,4.41-2.32,5.47,5.47,0,0,1,.36-1.15,6.64,6.64,0,0,1,.64-1.15c.08-.11.17-.22.39-.06s.14.25.06.36A4.42,4.42,0,0,0,579,570a1.23,1.23,0,0,0-.17.45,44.23,44.23,0,0,0,5.06-4.36.28.28,0,1,1,.39.39,44.94,44.94,0,0,1-4.95,4.27,24.1,24.1,0,0,1-4.89,2.79c-.08.22-.2.42-.28.64a11.74,11.74,0,0,0,5.42-1.79,22.72,22.72,0,0,0,5.84-5.25c1.31-1.56,2.71-3,4.08-4.53A17,17,0,0,0,580.26,565.76Z" transform="translate(-428.68 -402)" style="fill:#178358"/><path d="M587.64,557.21a.75.75,0,0,0,.64,1,1.13,1.13,0,0,0,1.23-.7.77.77,0,0,0-.64-1A1.1,1.1,0,0,0,587.64,557.21Z" transform="translate(-428.68 -402)" style="fill:#178358"/><path d="M575.57,551.59a1,1,0,0,0-.22.67,1,1,0,0,0,.25.67h0a.6.6,0,0,0,1,.06h0a1.2,1.2,0,0,0,0-1.4A.66.66,0,0,0,575.57,551.59Z" transform="translate(-428.68 -402)" style="fill:#178358"/><path d="M573.16,564.58a11,11,0,0,0-.92,1.31,11.48,11.48,0,0,0-.75,1.42h0a21.57,21.57,0,0,0,.17,3.41,7.82,7.82,0,0,0,1,3c.67-.31,1.17-2.65,1.48-3.52,1.48-4.39,2.85-9.14,1.29-14.05a13.69,13.69,0,0,0-1.31-2.93,12,12,0,0,0-1.09-1.65,62.59,62.59,0,0,1-4.33,12.13l-.11.2a20.59,20.59,0,0,0,.78,6.65,4.49,4.49,0,0,0,2.57,3,9.54,9.54,0,0,1-.78-2.79A24.45,24.45,0,0,1,571,566a39.61,39.61,0,0,1,.5-4.33,30.22,30.22,0,0,1,1.12-4.5.27.27,0,1,1,.5.17,32.8,32.8,0,0,0-1.09,4.41,38.46,38.46,0,0,0-.47,4.27v0c.08-.14.14-.28.22-.39a15.7,15.7,0,0,1,1-1.4.28.28,0,1,1,.42.36Z" transform="translate(-428.68 -402)" style="fill:#178358"/><path d="M559.64,590.23c.39-.56.78-1.09,1.23-1.62,1.4-1.68,2.82-2.51,3.32-4.75a7.94,7.94,0,0,0,.17-2c0-.42.5-.47.53-.06a6.94,6.94,0,0,1-.17,2.15,6.86,6.86,0,0,1-.22.81c.56-.59,1.09-1.17,1.59-1.79a18,18,0,0,0,2.29-3.49.28.28,0,1,1,.5.25,22,22,0,0,1-2.35,3.58c-.34.39-.64.78-1,1.15.42-.22.81-.45,1.2-.61a.26.26,0,1,1,.22.47c-.5.25-1,.53-1.54.84a16.2,16.2,0,0,0-4.14,3.8,26.59,26.59,0,0,0-1.82,2.46,18.11,18.11,0,0,0,6-3.49,21.29,21.29,0,0,0,4.95-6.73c.78-1.65,1.51-3.27,2.24-4.92.34-.81.7-1.62,1.06-2.43C566.32,577.07,561.48,582.46,559.64,590.23Z" transform="translate(-428.68 -402)" style="fill:#178358"/><path d="M564.39,573.75a.81.81,0,0,0-.5.31,1.31,1.31,0,0,0-.25.7,1.2,1.2,0,0,0,.2.7.45.45,0,0,0,.39.22.76.76,0,0,0,.56-.2,1.25,1.25,0,0,0,.31-.7,1.59,1.59,0,0,0,0-.36,1.06,1.06,0,0,0-.2-.47.53.53,0,0,0-.36-.2Z" transform="translate(-428.68 -402)" style="fill:#178358"/><path d="M576.24,580.59a.65.65,0,0,0,.2,1.23,1.76,1.76,0,0,0,1,0c.59-.17,1.06-.81.47-1.29A1.52,1.52,0,0,0,576.24,580.59Z" transform="translate(-428.68 -402)" style="fill:#178358"/><path d="M565.79,591.07a24.38,24.38,0,0,1-1.9,1.9c1.34-.64,2.77-1.4,4.3-2.24a.27.27,0,1,1,.25.47c-1.82,1-3.49,1.87-5.06,2.57a5.89,5.89,0,0,1,1.87.45c.22.08.22.22.08.42a11.87,11.87,0,0,0,1.68-.87,28.62,28.62,0,0,0,7.21-6.45,14.55,14.55,0,0,0-9.86,2.18,20,20,0,0,1-5.17,2.63,5,5,0,0,0-1.09,1.42,9.76,9.76,0,0,0-.56,1.31,13.79,13.79,0,0,0,4.55-1.15,22.28,22.28,0,0,0,3.27-3A.28.28,0,1,1,565.79,591.07Z" transform="translate(-428.68 -402)" style="fill:#178358"/><path d="M565.12,594.76l-.08-.06a7.29,7.29,0,0,0-2.43-.42h-.39a15.68,15.68,0,0,1-4.5,1.15A11.66,11.66,0,0,0,565.12,594.76Z" transform="translate(-428.68 -402)" style="fill:#178358"/><path d="M559.86,581.71a6.36,6.36,0,0,0-.84,1.62,14.1,14.1,0,0,0-.47,1.79,8.72,8.72,0,0,0,1.12,3,25.66,25.66,0,0,1,1.48-3.6,17.56,17.56,0,0,0-.06-5.31,10,10,0,0,0-.73-2.54,61,61,0,0,1-4.67,5,17.35,17.35,0,0,0,2.43,8.1h0c.25.45.47.92.73,1.42q.25-1.22.59-2.35a11.26,11.26,0,0,1-1.4-3.44c-.11-.47-.89-1-1.34-1.23a.27.27,0,1,1,.25-.47,3.67,3.67,0,0,1,1.15.84,11.53,11.53,0,0,1,.42-1.4,6.7,6.7,0,0,1,.89-1.79A.28.28,0,1,1,559.86,581.71Z" transform="translate(-428.68 -402)" style="fill:#178358"/><path d="M552.38,449.16a2.34,2.34,0,0,0-1.59.64h0a2.36,2.36,0,0,0-.67,1.59,2.27,2.27,0,0,0,2.26,2.26A2.23,2.23,0,0,0,554,453h0a2.25,2.25,0,0,0-1.59-3.86Z" transform="translate(-428.68 -402)" style="fill:#fff704"/><path d="M512,451a5,5,0,0,1-1.29,1.68h.87a.42.42,0,1,1,.84,0h.87A5,5,0,0,1,512,451Z" transform="translate(-428.68 -402)"/><path d="M512,446.28a4.08,4.08,0,0,1-1.29,1.4h.87a.42.42,0,0,1,.84,0h.87A4.08,4.08,0,0,1,512,446.28Z" transform="translate(-428.68 -402)"/><path d="M476.21,460.45c-.78.25-1.15.67-1.2,1.09a1.32,1.32,0,0,0,0,.47,1.11,1.11,0,0,0,.28.42,1.29,1.29,0,0,0,1.4.31c12.66-4,24-6,35.29-6s22.63,2,35.29,6a1.29,1.29,0,0,0,1.4-.31A1.11,1.11,0,0,0,549,462a1.32,1.32,0,0,0,0-.47c-.06-.42-.42-.84-1.2-1.09a111.09,111.09,0,0,0-71.58,0Z" transform="translate(-428.68 -402)" style="fill:#fff704"/><path d="M495.77,453.19l-.39.34a6.54,6.54,0,0,1-6.62,1.26l-.53-.17.45-.31a7,7,0,0,1,3.16-1.37,8.32,8.32,0,0,1,3.41.14Z" transform="translate(-428.68 -402)"/><path d="M501.61,447.07a4.15,4.15,0,0,1-1.12,1.34l.87-.11a1.63,1.63,0,0,0,.39-.36,1.22,1.22,0,0,0,.45.28l.87-.08A4.35,4.35,0,0,1,501.61,447.07Z" transform="translate(-428.68 -402)"/><path d="M490.77,448.35a4.37,4.37,0,0,1-.95,1.56l.84-.2a1,1,0,0,0,.34-.45,1.42,1.42,0,0,0,.5.25l.84-.2A4.26,4.26,0,0,1,490.77,448.35Z" transform="translate(-428.68 -402)"/><path d="M479.14,451.4a4.29,4.29,0,0,1-.84,1.62l.81-.25a1.17,1.17,0,0,0,.31-.45,1.38,1.38,0,0,0,.5.22l.84-.25A4.57,4.57,0,0,1,479.14,451.4Z" transform="translate(-428.68 -402)"/><path d="M494.57,453.49a7.56,7.56,0,0,0-2.63,0,6.34,6.34,0,0,0-2.46.95A5.93,5.93,0,0,0,494.57,453.49Z" transform="translate(-428.68 -402)" style="fill:#ed1b24"/><path d="M528.24,453.19l.39.34a6.55,6.55,0,0,0,6.62,1.26l.53-.17-.45-.31a7,7,0,0,0-3.16-1.37,8.32,8.32,0,0,0-3.41.14Z" transform="translate(-428.68 -402)"/><path d="M522.4,447.07a4.15,4.15,0,0,0,1.12,1.34l-.87-.11a1.63,1.63,0,0,1-.39-.36,1.22,1.22,0,0,1-.45.28l-.87-.08A4.35,4.35,0,0,0,522.4,447.07Z" transform="translate(-428.68 -402)"/><path d="M533.24,448.35a4.37,4.37,0,0,0,.95,1.56l-.84-.2a1.7,1.7,0,0,1-.34-.45,1.42,1.42,0,0,1-.5.25l-.84-.2A4.26,4.26,0,0,0,533.24,448.35Z" transform="translate(-428.68 -402)"/><path d="M544.86,451.4a4.29,4.29,0,0,0,.84,1.62l-.81-.25a1.17,1.17,0,0,1-.31-.45,1.38,1.38,0,0,1-.5.22l-.84-.25A4.57,4.57,0,0,0,544.86,451.4Z" transform="translate(-428.68 -402)"/><path d="M529.44,453.49a7.56,7.56,0,0,1,2.63,0,6.34,6.34,0,0,1,2.46.95A5.93,5.93,0,0,1,529.44,453.49Z" transform="translate(-428.68 -402)" style="fill:#ed1b24"/><path d="M534.8,442.15c-.08,2.46,0,1.82,2.15,3a5.09,5.09,0,0,1-5.53-1.48C533.88,443.71,533.63,444.3,534.8,442.15Z" transform="translate(-428.68 -402)"/><path d="M508.65,446.17a1.18,1.18,0,0,0,1.17-1.17,1.16,1.16,0,0,0-1.17-1.15A1.13,1.13,0,0,0,507.5,445,1.16,1.16,0,0,0,508.65,446.17Z" transform="translate(-428.68 -402)" style="fill:#fff704"/><path d="M489.2,442.15c.08,2.46,0,1.82-2.15,3a5.09,5.09,0,0,0,5.53-1.48C490.13,443.71,490.38,444.3,489.2,442.15Z" transform="translate(-428.68 -402)"/><path d="M512,435.16a1.44,1.44,0,1,0,1.42,1.45A1.44,1.44,0,0,0,512,435.16Z" transform="translate(-428.68 -402)" style="fill:#fff704"/><path d="M512,426.08a1.78,1.78,0,0,0-1.76,1.79,1.76,1.76,0,1,0,3.52,0A1.78,1.78,0,0,0,512,426.08Z" transform="translate(-428.68 -402)" style="fill:#fff704"/><path d="M512,421.73a1.65,1.65,0,0,0-1.62,1.65,1.62,1.62,0,1,0,3.24,0A1.65,1.65,0,0,0,512,421.73Z" transform="translate(-428.68 -402)" style="fill:#fff704"/><path d="M512,430.72a1.72,1.72,0,1,0,1.7,1.73A1.74,1.74,0,0,0,512,430.72Z" transform="translate(-428.68 -402)" style="fill:#fff704"/><path d="M512,408.57a3.52,3.52,0,1,0,3.49,3.52A3.5,3.5,0,0,0,512,408.57Z" transform="translate(-428.68 -402)" style="fill:#fff704"/><path d="M539.24,437.51a1.5,1.5,0,0,0-1.51,1.51,1.53,1.53,0,0,0,1.51,1.54,1.54,1.54,0,0,0,1.09-.45h0a1.54,1.54,0,0,0,.45-1.09A1.53,1.53,0,0,0,539.24,437.51Z" transform="translate(-428.68 -402)" style="fill:#fff704"/><path d="M543.13,429.88a1.67,1.67,0,0,0-1.17.5h0a1.67,1.67,0,0,0,2.35,2.37h0a1.68,1.68,0,0,0-1.17-2.88Z" transform="translate(-428.68 -402)" style="fill:#fff704"/><path d="M541.51,433.88a1.62,1.62,0,0,0-1.62,1.62,1.62,1.62,0,0,0,1.62,1.59,1.62,1.62,0,0,0,1.59-1.59A1.62,1.62,0,0,0,541.51,433.88Z" transform="translate(-428.68 -402)" style="fill:#fff704"/><path d="M543.44,425.89a1.65,1.65,0,0,0-1.17.47h0a1.65,1.65,0,0,0-.47,1.17,1.68,1.68,0,0,0,1.65,1.68,1.79,1.79,0,0,0,1.2-.47h0a1.68,1.68,0,0,0-1.2-2.85Z" transform="translate(-428.68 -402)" style="fill:#fff704"/><path d="M543.13,421.59a1.69,1.69,0,0,0-1.2.5h0a1.7,1.7,0,1,0,2.4,2.4h0a1.58,1.58,0,0,0,.5-1.2A1.69,1.69,0,0,0,543.13,421.59Z" transform="translate(-428.68 -402)" style="fill:#fff704"/><path d="M543.52,417.23a1.69,1.69,0,1,0,1.7,1.68A1.68,1.68,0,0,0,543.52,417.23Z" transform="translate(-428.68 -402)" style="fill:#fff704"/><path d="M539.27,416a1.7,1.7,0,1,0,1.68,1.7A1.71,1.71,0,0,0,539.27,416Z" transform="translate(-428.68 -402)" style="fill:#fff704"/><path d="M535.44,414.57a1.65,1.65,0,0,0-1.17.47h0a1.66,1.66,0,1,0,2.35,2.35h0a1.58,1.58,0,0,0,.5-1.17A1.66,1.66,0,0,0,535.44,414.57Z" transform="translate(-428.68 -402)" style="fill:#fff704"/><path d="M531.14,414a1.61,1.61,0,0,0-1.12.45h0a1.7,1.7,0,0,0-.47,1.15,1.61,1.61,0,0,0,1.59,1.59,1.7,1.7,0,0,0,1.15-.47h0a1.66,1.66,0,0,0,.45-1.12A1.57,1.57,0,0,0,531.14,414Z" transform="translate(-428.68 -402)" style="fill:#fff704"/><path d="M527.12,413.46a1.56,1.56,0,0,0-1.12.45h0a1.58,1.58,0,0,0-.47,1.15,1.61,1.61,0,0,0,1.59,1.59,1.58,1.58,0,0,0,1.12-.47h0a1.52,1.52,0,0,0,.47-1.12A1.59,1.59,0,0,0,527.12,413.46Z" transform="translate(-428.68 -402)" style="fill:#fff704"/><path d="M523.18,412.87a1.56,1.56,0,0,0-1.12.45,1.69,1.69,0,0,0-.47,1.12,1.59,1.59,0,0,0,1.59,1.56,1.54,1.54,0,0,0,1.09-.45,1.69,1.69,0,0,0,.47-1.12A1.58,1.58,0,0,0,523.18,412.87Z" transform="translate(-428.68 -402)" style="fill:#fff704"/><path d="M519.46,412.59a1.48,1.48,0,1,0,1.48,1.48A1.5,1.5,0,0,0,519.46,412.59Z" transform="translate(-428.68 -402)" style="fill:#fff704"/><path d="M547.54,418.74a1.75,1.75,0,0,0-1.23.5h0a1.73,1.73,0,0,0-.53,1.26,1.77,1.77,0,0,0,1.76,1.76,1.67,1.67,0,0,0,1.23-.53h0a1.76,1.76,0,0,0-1.26-3Z" transform="translate(-428.68 -402)" style="fill:#fff704"/><path d="M551.57,419.49a1.82,1.82,0,0,0-1.26.5h0a1.82,1.82,0,0,0-.5,1.26,1.74,1.74,0,0,0,3,1.23h0a1.67,1.67,0,0,0,.53-1.23A1.77,1.77,0,0,0,551.57,419.49Z" transform="translate(-428.68 -402)" style="fill:#fff704"/><path d="M555.84,420.38a2,2,0,0,0-1.42.59,2.15,2.15,0,0,0-.61,1.45,2.05,2.05,0,0,0,2,2,2.1,2.1,0,0,0,1.45-.61,2,2,0,0,0,.59-1.42A2.05,2.05,0,0,0,555.84,420.38Z" transform="translate(-428.68 -402)" style="fill:#fff704"/><path d="M560.06,422.56a2.14,2.14,0,0,0-1.51.64h0a2.14,2.14,0,0,0-.64,1.51,2.17,2.17,0,0,0,2.15,2.15,2.14,2.14,0,0,0,1.51-.64h0a2.14,2.14,0,0,0,.64-1.51A2.17,2.17,0,0,0,560.06,422.56Z" transform="translate(-428.68 -402)" style="fill:#fff704"/><path d="M563.64,426.45a2.22,2.22,0,1,0,2.24,2.21A2.23,2.23,0,0,0,563.64,426.45Z" transform="translate(-428.68 -402)" style="fill:#fff704"/><path d="M565.65,431.56a2.15,2.15,0,1,0,2.12,2.15A2.15,2.15,0,0,0,565.65,431.56Z" transform="translate(-428.68 -402)" style="fill:#fff704"/><path d="M565.48,436.81a1.9,1.9,0,0,0,0,3.8,1.9,1.9,0,0,0,0-3.8Z" transform="translate(-428.68 -402)" style="fill:#fff704"/><path d="M564.25,441.14a1.67,1.67,0,0,0-1.65,1.65,1.65,1.65,0,0,0,1.65,1.65,1.63,1.63,0,0,0,1.65-1.65A1.65,1.65,0,0,0,564.25,441.14Z" transform="translate(-428.68 -402)" style="fill:#fff704"/><path d="M562.55,444.8a1.66,1.66,0,1,0,1.68,1.68A1.68,1.68,0,0,0,562.55,444.8Z" transform="translate(-428.68 -402)" style="fill:#fff704"/><path d="M545.61,429.8a15.21,15.21,0,0,1-1.17,4.53,29.31,29.31,0,0,1-2.35,4.33,18.73,18.73,0,0,1-2.74,3.35c-.17.2-.28.34-.25.5a2,2,0,0,0,.45.81,1.81,1.81,0,0,0,.25.22,1,1,0,0,0,1.09-.11,6.71,6.71,0,0,0,1.48-1.48,27.27,27.27,0,0,0,2.91-5,19.17,19.17,0,0,0,1.79-5.87,36.5,36.5,0,0,0,0-6.54c-.08-.92-.14-2.1-1.09-2.24-.25,0-.36.22-.42.56a6,6,0,0,0,.06,1.42,24.17,24.17,0,0,1,0,5.5Z" transform="translate(-428.68 -402)" style="fill:#fff704"/><path d="M538.35,423.18A15.05,15.05,0,0,1,539,428a16.5,16.5,0,0,1-.95,4.72,13,13,0,0,1-1.15,2.43c-.47.75-1,1.48-1.48,2.21s-.61,1-.53,1.23.36.31.78.42c1.2.28,1.68-.53,2.18-1.4.14-.22.28-.47.45-.73A16.41,16.41,0,0,0,541,430a15.83,15.83,0,0,0-.67-7.32,4.1,4.1,0,0,0-.81-1.48,1.19,1.19,0,0,0-.84-.47c-.67,0-.75.42-.81.81C537.82,422.09,538.18,422.56,538.35,423.18Z" transform="translate(-428.68 -402)" style="fill:#fff704"/><path d="M484.76,437.51a1.5,1.5,0,0,1,1.51,1.51,1.53,1.53,0,0,1-1.51,1.54,1.54,1.54,0,0,1-1.09-.45h0a1.54,1.54,0,0,1-.45-1.09A1.53,1.53,0,0,1,484.76,437.51Z" transform="translate(-428.68 -402)" style="fill:#fff704"/><path d="M480.88,429.88a1.67,1.67,0,0,1,1.17.5h0a1.67,1.67,0,0,1-2.35,2.37h0a1.68,1.68,0,0,1,1.17-2.88Z" transform="translate(-428.68 -402)" style="fill:#fff704"/><path d="M482.5,433.88a1.62,1.62,0,0,1,1.62,1.62,1.62,1.62,0,0,1-1.62,1.59,1.62,1.62,0,0,1-1.59-1.59A1.62,1.62,0,0,1,482.5,433.88Z" transform="translate(-428.68 -402)" style="fill:#fff704"/><path d="M480.57,425.89a1.65,1.65,0,0,1,1.17.47h0a1.65,1.65,0,0,1,.47,1.17,1.68,1.68,0,0,1-1.65,1.68,1.79,1.79,0,0,1-1.2-.47h0a1.68,1.68,0,0,1,1.2-2.85Z" transform="translate(-428.68 -402)" style="fill:#fff704"/><path d="M480.88,421.59a1.69,1.69,0,0,1,1.2.5h0a1.7,1.7,0,1,1-2.4,2.4h0a1.58,1.58,0,0,1-.5-1.2A1.69,1.69,0,0,1,480.88,421.59Z" transform="translate(-428.68 -402)" style="fill:#fff704"/><path d="M480.49,417.23a1.69,1.69,0,1,1-1.7,1.68A1.68,1.68,0,0,1,480.49,417.23Z" transform="translate(-428.68 -402)" style="fill:#fff704"/><path d="M484.73,416a1.7,1.7,0,1,1-1.68,1.7A1.71,1.71,0,0,1,484.73,416Z" transform="translate(-428.68 -402)" style="fill:#fff704"/><path d="M488.56,414.57a1.65,1.65,0,0,1,1.17.47h0a1.66,1.66,0,1,1-2.35,2.35h0a1.58,1.58,0,0,1-.5-1.17A1.66,1.66,0,0,1,488.56,414.57Z" transform="translate(-428.68 -402)" style="fill:#fff704"/><path d="M492.86,414a1.61,1.61,0,0,1,1.12.45h0a1.7,1.7,0,0,1,.47,1.15,1.61,1.61,0,0,1-1.59,1.59,1.58,1.58,0,0,1-1.12-.47h0a1.58,1.58,0,0,1,1.12-2.71Z" transform="translate(-428.68 -402)" style="fill:#fff704"/><path d="M496.89,413.46a1.56,1.56,0,0,1,1.12.45h0a1.58,1.58,0,0,1,.47,1.15,1.61,1.61,0,0,1-1.59,1.59,1.58,1.58,0,0,1-1.12-.47h0a1.52,1.52,0,0,1-.47-1.12A1.59,1.59,0,0,1,496.89,413.46Z" transform="translate(-428.68 -402)" style="fill:#fff704"/><path d="M500.83,412.87a1.56,1.56,0,0,1,1.12.45,1.69,1.69,0,0,1,.47,1.12,1.59,1.59,0,0,1-1.59,1.56,1.54,1.54,0,0,1-1.09-.45,1.69,1.69,0,0,1-.47-1.12A1.58,1.58,0,0,1,500.83,412.87Z" transform="translate(-428.68 -402)" style="fill:#fff704"/><path d="M504.54,412.59a1.48,1.48,0,1,1-1.48,1.48A1.5,1.5,0,0,1,504.54,412.59Z" transform="translate(-428.68 -402)" style="fill:#fff704"/><path d="M476.46,418.74a1.75,1.75,0,0,1,1.23.5h0a1.73,1.73,0,0,1,.53,1.26,1.77,1.77,0,0,1-1.76,1.76,1.67,1.67,0,0,1-1.23-.53h0a1.76,1.76,0,0,1,1.26-3Z" transform="translate(-428.68 -402)" style="fill:#fff704"/><path d="M472.44,419.49a1.82,1.82,0,0,1,1.26.5h0a1.82,1.82,0,0,1,.5,1.26,1.74,1.74,0,0,1-3,1.23h0a1.67,1.67,0,0,1-.53-1.23A1.77,1.77,0,0,1,472.44,419.49Z" transform="translate(-428.68 -402)" style="fill:#fff704"/><path d="M468.16,420.38a2,2,0,0,1,1.42.59,2.15,2.15,0,0,1,.61,1.45,2.05,2.05,0,0,1-2,2,2.1,2.1,0,0,1-1.45-.61,2,2,0,0,1-.59-1.42A2.05,2.05,0,0,1,468.16,420.38Z" transform="translate(-428.68 -402)" style="fill:#fff704"/><path d="M463.95,422.56a2.14,2.14,0,0,1,1.51.64h0a2.14,2.14,0,0,1,.64,1.51,2.17,2.17,0,0,1-2.15,2.15,2.14,2.14,0,0,1-1.51-.64h0a2.14,2.14,0,0,1-.64-1.51A2.17,2.17,0,0,1,463.95,422.56Z" transform="translate(-428.68 -402)" style="fill:#fff704"/><path d="M460.37,426.45a2.22,2.22,0,1,1-2.24,2.21A2.23,2.23,0,0,1,460.37,426.45Z" transform="translate(-428.68 -402)" style="fill:#fff704"/><path d="M458.36,431.56a2.15,2.15,0,1,1-2.12,2.15A2.15,2.15,0,0,1,458.36,431.56Z" transform="translate(-428.68 -402)" style="fill:#fff704"/><path d="M458.53,436.81a1.9,1.9,0,0,1,0,3.8,1.9,1.9,0,0,1,0-3.8Z" transform="translate(-428.68 -402)" style="fill:#fff704"/><path d="M459.75,441.14a1.67,1.67,0,0,1,1.65,1.65,1.65,1.65,0,0,1-1.65,1.65,1.63,1.63,0,0,1-1.65-1.65A1.65,1.65,0,0,1,459.75,441.14Z" transform="translate(-428.68 -402)" style="fill:#fff704"/><path d="M461.46,444.8a1.66,1.66,0,1,1-1.68,1.68A1.68,1.68,0,0,1,461.46,444.8Z" transform="translate(-428.68 -402)" style="fill:#fff704"/><path d="M478.39,429.8a15.21,15.21,0,0,0,1.17,4.53,29.31,29.31,0,0,0,2.35,4.33,18.73,18.73,0,0,0,2.74,3.35c.17.2.28.34.25.5a2,2,0,0,1-.45.81,1.81,1.81,0,0,1-.25.22,1,1,0,0,1-1.09-.11,6.71,6.71,0,0,1-1.48-1.48,27.27,27.27,0,0,1-2.91-5,19.17,19.17,0,0,1-1.79-5.87,36.5,36.5,0,0,1,0-6.54c.08-.92.14-2.1,1.09-2.24.25,0,.36.22.42.56a6,6,0,0,1-.06,1.42A24.18,24.18,0,0,0,478.39,429.8Z" transform="translate(-428.68 -402)" style="fill:#fff704"/><path d="M485.65,423.18A15.05,15.05,0,0,0,485,428a16.5,16.5,0,0,0,.95,4.72,11.51,11.51,0,0,0,1.17,2.43c.45.75.95,1.48,1.45,2.21s.61,1,.53,1.23-.36.31-.78.42c-1.2.28-1.68-.53-2.18-1.4-.14-.22-.28-.47-.45-.73A16.41,16.41,0,0,1,483,430a15.83,15.83,0,0,1,.67-7.32,4.1,4.1,0,0,1,.81-1.48,1.19,1.19,0,0,1,.84-.47c.67,0,.75.42.81.81C486.19,422.09,485.82,422.56,485.65,423.18Z" transform="translate(-428.68 -402)" style="fill:#fff704"/><path d="M465.65,448.13A3.78,3.78,0,0,1,467,448c.36.06.45-.34.28-.59a24.14,24.14,0,0,1-2.6-4.3,16.13,16.13,0,0,1-1.56-5.48,12.55,12.55,0,0,1,3.21-9.19,9.16,9.16,0,0,0-4,2.91c-2,2.68-1.79,6.12-.95,9.19a24.42,24.42,0,0,0,3.63,7.29A.6.6,0,0,0,465.65,448.13Z" transform="translate(-428.68 -402)" style="fill:#fff704"/><path d="M556.73,425.61c-.39-.22-.78-.42-1.2-.61-.59-.28-1.42.39-.78.84s1,.75,1.45,1.17C556.85,427.59,558.08,426.39,556.73,425.61Z" transform="translate(-428.68 -402)" style="fill:#fff704"/><path d="M555.62,448.88a2.26,2.26,0,0,0-.59,1.84.66.66,0,0,0,.53.5,2.38,2.38,0,0,0,1.59-1,25.88,25.88,0,0,0,5.48-9.61,12.88,12.88,0,0,0-3.77-13.47c-.81-.67-1.73.73-1.17,1.4a12.5,12.5,0,0,1,3.19,9.16,16.13,16.13,0,0,1-1.56,5.48A27.86,27.86,0,0,1,555.62,448.88Z" transform="translate(-428.68 -402)" style="fill:#fff704"/><path d="M492.47,429.1c-1.09,1.34-2.79,1.56-3.32,3.19a1.21,1.21,0,0,0,.95,1.48c.67.22,1-.78,1.73-1-.31.36-.53.87-.34,1.15a1.41,1.41,0,0,1,1-.7c-.89,1.29-.5,1.51.17,1.42.39,0,.64-.39,1.12-.61,0,.11-1.26,1.26-.25,1.34a2.45,2.45,0,0,0,1.15-.5c-.06.45-.75.61-.08,1,.36.22.81-.2,1.15-.34-.81,1.12-.42,1.34.08,1.17s.67-.53,1.26-.53c-.34.28-.61.34-.61.7,0,1.17,1.12,1.09,1.73,1-.45.34,0,1.68.2,1.7,1.15.14,1.42-.2,2.49-.5,1.54-.47,1.84-2.54,1.82-5.2a17,17,0,0,0-.7-5.42c-.47-.14-1.59.5-1.59,1.17-.08-.31-.28-.56-.45-.56-.36,0-.73.56-1,.7-1.12.5-.17-1-.17-1.09-1.56-.06-1.56,2.15-1.56-.14-1.09-.17-1.82,2.07-1.73.11-.7-.61-1.23,0-1.65.47s-.59.73-.61.56c-.06-.34.14-.92.08-1.09S492.56,429,492.47,429.1Z" transform="translate(-428.68 -402)" style="fill:#ed1b24"/><path d="M523.26,427.37a4.29,4.29,0,0,1-.14,2c-.73,2.32.34,4.5.25,6.85.89.53.81-.36,1.09-1.09.53-2.32,2.71,3.58,5.2,1.09a4.89,4.89,0,0,1,3.94-2.07c2.1,1.29,1.17-4.67.59-5-.22-.11-.7.17-.7.08-.06-.5-.25-.84-.53-.84-.5-.11-.7.25-.81.78-.06.36-.45.11-.42-.67-.28.25-.47.78-.59.87s.06,0-.17-.67-.45-1-.7.08a1.52,1.52,0,0,1-2.29,1.09c-.59-.36-.7-2.12-1.62-2.32-.47-.08-.11.5-.5.45-.11,0-.2-.34-.42-.5-.39-.28.17.14-.95-1.31C523.51,425,523.15,426.73,523.26,427.37Z" transform="translate(-428.68 -402)" style="fill:#ed1b24"/><path d="M546.31,443.94a1.15,1.15,0,0,0-1.12.87c-.31,1.23,1.76.89,3,.73,2-.25,1.82,1.42,3,1,.67-.22.31-2.88,1.17-3.72.45-.42,1.51-.87,1.68-1.31.34-.89-.31-1.68-1.59-2-.53-.11-.61-.67-1.4-.61-1,.06-1.37.89-1.87,1.68a3.45,3.45,0,0,1-1.51,1.45C546.76,442.37,546.68,443.3,546.31,443.94Z" transform="translate(-428.68 -402)" style="fill:#ed1b24"/><path d="M476.3,442.43c1.23,1.65,2.88,2.93,3.94,2.85.87-.14,1.31-1.17.81-2.29-1.06-2.43-3.07-3.16-3.13-5.92-1.59-.73-3.38-.17-5.28.78a10.85,10.85,0,0,1-8.49,2.4,20,20,0,0,0,2.26,5,1.78,1.78,0,0,0,2-1.37c.11-.47.5-1.37,1.26-1.37-.53.39-.95,1.4-.42,1.62.92.42,1.4-2.18,2.24-2.37-.22.5-1.17,1.76-.17,1.76.78-.14.73-1.56,1.54-1.48.11.45-.11,1.51.53,1.48.89-.22.61-1.51,1.17-1.51C474.45,443.27,475.9,443,476.3,442.43Z" transform="translate(-428.68 -402)" style="fill:#ed1b24"/><path d="M530,460.2a6.66,6.66,0,0,0,2.77.36c1.73-.06.7,1.09,1.79,1.09,1.79,0,3.13,2.1,1.48,2.91a4.72,4.72,0,0,1-1.79.17c-.64.2,1.31,1-.53,1.29-.7.11-2.71-.47-2.71.75,0,.7-2.1,1.12-2.68,1.2A120.14,120.14,0,0,1,512,469.06c-3.6,0-7.24-.17-10.76-.45-1.2-.11-1.23-1.06-2.4-1.37a18.47,18.47,0,0,0-2.35-.17c-1.93-.2-1.7-1.62-3.46-1.34-1.56.25-3.1-.78-2.85-1.56.17-.45,1.15-.7,2.6-.84-1-.42-.75-.25-1.87-.28-1.31,0-1.65-.25-1.29-.64s2.29-.42,1-.67c-2-.39,1.51-1.31,1.87-1.48,1.42-.61,2.65-1.51,4.22-1.76a98.81,98.81,0,0,1,15.31-1.2,97.78,97.78,0,0,1,12.71.84A17.35,17.35,0,0,1,530,460.2Z" transform="translate(-428.68 -402)" style="fill:#ed1b24"/></svg>