<?xml version="1.0" encoding="utf-8"?>
<!-- Generator: Adobe Illustrator 26.5.0, SVG Export Plug-In . SVG Version: 6.00 Build 0)  -->
<svg version="1.0"
	 id="Capa_3" xmlns:svg="http://www.w3.org/2000/svg" xmlns:inkscape="http://www.inkscape.org/namespaces/inkscape" xmlns:sodipodi="http://sodipodi.sourceforge.net/DTD/sodipodi-0.dtd" xmlns:dc="http://purl.org/dc/elements/1.1/" xmlns:cc="http://creativecommons.org/ns#" xmlns:rdf="http://www.w3.org/1999/02/22-rdf-syntax-ns#"
	 xmlns="http://www.w3.org/2000/svg" xmlns:xlink="http://www.w3.org/1999/xlink" x="0px" y="0px" viewBox="0 0 295.65 233.79"
	 style="enable-background:new 0 0 295.65 233.79;" xml:space="preserve">
<style type="text/css">
	.st0{fill:#012971;}
	.st1{fill:#FFD700;}
	.st2{fill:#FF0010;}
	.st3{fill:#FFFFFF;}
</style>
<sodipodi:namedview  bordercolor="#666666" borderopacity="1" fit-margin-bottom="0" fit-margin-left="0" fit-margin-right="0" fit-margin-top="0" gridtolerance="10" guidetolerance="10" id="namedview207" inkscape:current-layer="Capa_3" inkscape:cx="62.826569" inkscape:cy="106.89491" inkscape:pageopacity="0" inkscape:pageshadow="2" inkscape:window-height="962" inkscape:window-maximized="1" inkscape:window-width="1280" inkscape:window-x="-8" inkscape:window-y="-8" inkscape:zoom="3.4753761" objecttolerance="10" pagecolor="#ffffff" showgrid="false">
	</sodipodi:namedview>
<g id="g3" transform="translate(-235.45143,-10.956)">
	<g id="g5">
		<g id="g7">
			<path id="path9" inkscape:connector-curvature="0" class="st0" d="M320.45,75.19H446.1c-1.81,104.86-62.83,159.55-62.83,159.55
				S322.26,180.05,320.45,75.19"/>
			<path id="path11" inkscape:connector-curvature="0" class="st1" d="M325.42,79.71h115.71c-2.71,96.27-57.86,147.35-57.86,147.35
				S328.14,175.99,325.42,79.71"/>
			<path id="path13" inkscape:connector-curvature="0" class="st2" d="M330.4,84.23h105.77c-4.52,88.59-52.88,135.15-52.88,135.15
				S334.91,172.82,330.4,84.23"/>
		</g>
		<g id="g15">
			<path id="path17" inkscape:connector-curvature="0" d="M382.8,104.72c-0.39,0.38-1.17,1.21-1.17,1.21s0.06,0.27-0.96,0.07
				c-1.02-0.2-2.12-0.2-1.8-0.84c0,0,0.51-0.25,0.96-0.57c0.45-0.32,1.6-1.23,1.6-1.23s0.76-0.57,1.16-0.06
				C382.99,103.81,383.19,104.33,382.8,104.72 M379.45,114.99c-2.56,0.08-4.02-0.83-3.66-1.14c0,0,0.46-0.84,0.84-0.71
				c0.35,0.29,2.12,0.24,3.14,0.18c1.21,0.13,2.88,0,2.88,0S382.14,114.9,379.45,114.99 M423.81,114.87
				c-0.62-3.55-2.69-3.77-4.11-3.83c2.37-3.83,0.7-5.9,0.6-5.74c-0.68,1.57-1.34,2.29-2.17,2.51c2.47-5.06-0.6-5.98-0.59-5.63
				c-0.09,3.17-2.19,3.43-3.26,3.1c-6.87-2.22-10.4,2.31-10.4,2.31s-3.36,3-3.4,10.13c-0.05,7.27,2.25,13.25,3.4,16.94
				c1.15,3.68,2.13,7.45,2.21,9.9c0.07,1.93-0.81,2.95-1.54,3c-0.73,0.05-1.31-0.56-1.63-1.3c-0.32-0.73-0.46-1.2-0.97-4.19
				c-0.5-2.99-2.82-4.32-4.56-4.78c-1.75-0.46-3.82-1.2-4.51-1.43c-0.69-0.23-0.41-0.88,0.09-1.84c0.32-0.59,1.01-0.46,1.62-0.37
				c0.6,0.09,1.47,0.6,2.16,0.65c0.69,0.05,0.56-0.74,0.56-1.47c0-0.73,0.14-1.2,0.56-1.2c0.42-0.05,0.55,1.2,0.55,1.2
				s0.63-1.11,0.68-1.89c0.05-0.78-0.6-0.97-1.02-1.35c-0.41-0.37-0.18-0.91-0.18-0.91s0.83,0.78,2.08,0.32
				c1.24-0.46,1.51-1.48,1.32-1.66c-2.67-0.91-2.11-2.67-2.16-5.85c-0.05-3.18,0.55-5.39,0.73-8.75c0.18-3.36-1.62-6.4-1.89-6.81
				c-0.27-0.41-0.18-0.83,0.09-0.69c0.73,0.46,2.26,1.05,2.26,1.05s0.82,0,1.56-0.78c0.74-0.78,1.89-2.63,2.21-3.36
				c0.32-0.73,0.51-0.5,0.92-0.18c0.41,0.32,1.1,0.37,1.34,0c0.23-0.37,0.99-0.71,0.32-2.39c-0.35-0.95-0.86-2.03-1.8-1.95
				c-0.63,0.05-1.42,0.14-2.11,0.37c-0.69,0.23-2.12,1.15-2.58,1.43c-0.46,0.27-0.44,0.32-1.07-0.1c-0.39-0.27-0.17-0.81,0.15-1.04
				c0.32-0.23,1.6-0.77,2.18-1.37c0.6-0.6,0.16-1.44,0.16-1.44s-1.34-1.19-1.48-1.33c-0.22-0.22,0.46-0.97,0.65-1.15
				c0.19-0.18,0.64-0.64,0.69-1.47c0-0.79-0.75-1.33-1.3-1.43c-0.55-0.09-0.79,0-1.24,0.45c-0.5,0.56-1.01,0.79-1.24,0.47
				c-0.23-0.32-1.16-0.88-1.79-0.92c-0.64-0.04-1.3,0.27-1.75,0.87c-0.55,0.74-1.06,1.32-1.06,1.32s-0.23,0.66-0.78,0.06
				c-0.55-0.6-0.04-1.48-0.04-1.48s1.61-2.58,1.79-2.86c0.18-0.28,0.27-0.73,0.18-1.01c-0.42-1.3-1.61-2.16-1.97-2.58
				c-0.36-0.42-0.79-0.22-0.88-0.14c-0.56,0.44-0.98,0.54-1.08,0.99c-0.42,1.16,0.12,2.05-0.15,2.05c-1.57,0.01-3.85,1.82-3.92,3.28
				c-0.07,1.55,0.7,2.34,0.83,2.62c0.13,0.28,0.05,0.63,0.05,0.63s-3.26-0.22-4.43-0.01c-1.17,0.21-1.81,1.24-1.81,1.24
				s-1.13,0.34-2.26,1.22c-1.53,1.23-2.4,1.26-3.58,1.94c-1.43,0.82-1.73,1.49-1.76,2.28c-0.07,1.36,0.99,1.49,1.9,1.74
				c0.62,0.17,0.57,1.06,0.57,1.49c0,0.43-0.1,0.46,0.7,1.29c-3.65-0.26-4.17-2.57-4.57-3.25c-0.25-0.45-0.54-0.98-0.94-0.98
				c-0.51,0-1.06,0.8-1.06,0.8s-0.9,0.88-0.48,3.69c0.43,2.9,2.95,2.75,3.17,2.75c0.22,0,2.15-0.12,2.31-0.08
				c0.16,0.04,0.28,0.06,0.62,0.32c0.63,0.47,0.26,1.64,0.12,1.77c-1.07,1.02-1.27,1.58-1.36,2.02c-0.12,0.53,0.2,1.27,0.2,1.27
				s-0.9,0.16-1.42-0.65c-0.44-0.68,0.01-1.86,0.01-1.86s0.12-0.32-0.19-0.35c-1.33-0.16-2.31,0.96-2.83,1.37
				c-0.02-1.56,0.69-1.94,1-2.25c0.2-0.2,0.11-0.33-0.17-0.38c-2.51-0.15-3.5,1.71-3.84,2.52c-3.74-1.69-5.35,0.84-5.91,1.45
				c-0.56,0.61,0,0.53,0.37,0.53c1.46-0.04,1.71,0.99,1.71,1.79c0,1.04-1.23,1.43-1.23,1.43s-1.79,0.67-2.26-2.27
				c-0.37-2.17,2.79-6.53,2.79-6.53s1.23-2.05,1.18-3.75c-0.07-2.6-1.14-3.49-1.99-3.79c0.44-1.83,0.15-4.04-0.39-6.27
				c-0.55-2.23-3.8-2.86-3.8-2.86s-0.54-3.75-3.06-3.9c-2.12-0.11-2.72,0.78-3.21,1.29c0.74,0.79,0.99,1.7,1.04,2.91
				c-3.16-1.53-3.96-0.04-4.35,0.6c-0.39,0.64-0.14,0.68-0.14,0.68s1.08,0.06,1.53,0.5c0.44,0.44,0.35,1.18,0.15,1.43
				c-1.33,1.33-1.13,2.07-1.18,3.21c-1.34,0.74-1.93,1.99-2.12,2.77c-0.19,0.78,0.04,1.14,0.04,1.14s0.89,0.06,2.12,0.11
				c1.23,0.05,1.39,0.58,1.29,1.36c-0.1,0.78-0.79,1.73-0.79,1.73s-1.19,1.45-1.73,2.27c-0.57,0.89-0.7,1.79-0.6,2.96
				c0.08,1.11,1.34,2.63,1.63,2.97c-2.28,4.59,0.4,7.6,1.43,8.54c0.05-0.78,0.1-1.29,0.74-2.08c0.1,1.68,0.98,1.93,1.62,1.83
				c0.74-1.88,1.33-2.62,2.13-2.96c-0.19,1.59,0.05,3.5,0.44,4.5c-1.08,0.4-2.08,0.18-2.72-0.01c-0.35-0.02-0.39,0.2-0.39,0.2
				s-0.2,1.78,1.53,2.57c1.54,0.71,3.77,0.49,5.65,0.49c-1.12,0.71-2.22,1.14-2.56,1.22c-0.28,0.05-0.28,0.26-0.18,0.51
				c2.55,2.58,7.2,1.42,7.2,1.42s0.51,1.19,2.63,1.02c2.75,1.41,4.17,1.19,7.17,1.21c-0.95,1-2.77,1.17-4.3,1.13
				c-2.65-0.06-5.04-0.92-5.5-1.16c-0.86,1.73,0.54,3.37,1.39,4.21c-1.98,0.05-4.14-0.79-5.24-1.83c-1.09-1.03-3.16-2.32-3.16-2.32
				s-0.93-0.45-3.6-0.2c-2.57-2.27-4.63-2.17-5.28-2.17c-0.64,0-0.59,0.29-0.49,0.44c1.54,3.01,1.19,4.3,1.19,4.3
				s-2.32-0.68-3.55-0.35c-1.07,0.27-2.22,1.38-2.23,2.42c2.68,0.34,3.4,0.59,4.14,1.33c0.6,0.63,0.5,0.69,0.6,1.29
				c-0.19,4.65,3.01,5.03,3.01,5.03s-0.58,1.08-1.59,1.67c-1.23,0.74-1.9,0.59-2.37,0.74c3.26,3.01,7.85,0.11,8.34-0.29
				c0.34,0.19,1.09,0.59,2.67,0.19c-0.59,0.93-1.53,1.09-1.53,1.09s0.78,0.68,3.49,0.04c2.71-0.64,4.25-1.83,4.25-1.83
				s0,1.14,1.43,1.2c1.44,0.05,3.2-1.44,3.2-1.44s0.13,0.69-0.13,1.88c1.88-0.28,2.61-0.94,2.61-0.94l3-2.75
				c0,0,0.01,1.43-0.15,2.84c1.53-0.15,2.68-0.83,3.81-2.02c0.94,0.98,1.87,1.19,3.06,1.88c-9.28,0.34-10.34,4.62-10.55,5.8
				c-0.21,1.17,0,1.88,0.21,1.72c1.02-1.02,3.38-1.92,3.8-1.33c-0.32,2.31-1.23,3.95-3.21,5.67c-1.98,1.51-2.91,1.67-3.42,1.96
				c-0.41,0.21-0.59,0.3-0.32,0.51c1.03,0.8,1.55,0.79,3.2,0.95c-1.12,0.9-2.4,0.8-2.93,0.91c0.8,1.07,2.67,1.65,4.11,1.93
				c-0.65,0.64-1.45,1.07-1.77,1.17c3.75,1.44,6.1,0.43,7.59-0.32c-1.06,2.67-2.2,3.53-3.37,3.43c-1.17-0.1-2.57-0.7-3.37-1.24
				c-0.8-0.53-1.55-0.8-1.92-0.85c-0.37-0.05-2.14,0.27-2.89-0.64c-1.49-2.71-2.79-2.95-3.69-3c-0.91-0.05-1.94,0.59-2.36,0.64
				c-5.14-0.69-5.95,2.2-5.72,2.68c3.53,0,3.47,1.39,3.63,1.76c-2.25,0.32-2.83,1.34-3.15,1.93c-0.32,0.59-0.28,1.7,0.09,1.54
				c2.51-1.01,3.97-0.31,3.97-0.21c-0.32,2.3,0.85,3.26,0.85,3.26s0.49,0.38,0.22,0.96c-0.64,1.87,0.42,3.37,0.58,3.16
				c1.66-2.46,3.75-1.5,4.2-1.25c0.44,0.25,1.93,1.93,1.93,1.93c1.21,0.84,2.05,0.47,2.21-0.21c0.16-0.68-0.32-2.33-0.32-2.33
				s0.2-0.16,1.48,0c1.28,0.16,2.17,2.02,2.81,2.81c0.76,0.92,1.32,0.13,1.32-0.16c0.01-2.67,0.33-2.04,0.33-2.04
				s1.05,0.91,1.75,0.55c1.53-0.76,2.72-2.37,2.65-2.21c0.22-0.55,0.8-0.24,0.8-0.24s0.16,1.29,0.56,2.33
				c0.4,1.04,1.21,0.32,1.21,0.32s1.79-1.14,2.05-4.26c0.28-3.33-1.89-4.13-2.29-4.13c-0.4,0-0.41-0.2-0.37-0.52
				c0.24-0.58,0.61-1.16,0.77-1.36c0.16-0.2,0.31-0.43,0.63-0.27c0.32,0.16,0.61,0.59,0.77,1.63c0.16,1.04,1.24,1.81,1.41,1.73
				c1.44-1.64,1.29-3.2,1.12-4.54c1.12,1.08,1.23,0.96,1.4,0.8c0.34-0.35,0.76-1.89,0.97-2.81c0.6,1.24,0.96,3.69,0.96,3.69
				c1.61-2.85,1.12-6.78,0.68-8.11c-0.44-1.32-2.65-2.85-2.85-3.01c-0.2-0.16-0.52-0.56-0.24-0.92c0.35-0.2,0.5-0.2,1.61,0.08
				c1.11,0.28,1.64,1.28,1.61,2.61c-0.04,1.32,1.16,1,1.48,1c0.32,0,0.12-0.04,0.52,0.16c1.6,3.53-0.96,6.9-1.48,7.34
				c-0.52,0.44-0.48,0.56-0.08,0.6c1.33-0.08,2.89-0.04,5.66-2.05c0.96,4.3-2.05,6.5-1.93,6.66c4.69,1.2,8.07-2.33,8.07-2.29
				c-0.6,4.58-2.81,4.45-3.81,4.29c-0.83-0.12-2.97-0.52-5.02-0.56c-2.05-0.04-3.13,0.2-4.26,0.92c-0.95,0.6-2.44,2.89-2.44,2.89
				s-1.56-0.38-2.77,1.08c-0.92,1.15-0.84,3.25-0.64,3.17c3.73-2.13,4.57-1.24,4.57-1.24s-1.4,2.53-0.44,5.78
				c0.96,3.25,2.81,2.41,2.81,2.41s0.08,0.06,0.04-0.12c-0.63-2.9,0-3.77,0.69-3.77c0.88,0.68,1.2,0.36,1.76,0.36
				c0.56,0,0.56,0.24,0.72,0.48c1.76,3.61,4.93,2.85,5.58,2.81c0.65-0.04,0.88-0.24,0.72-0.36c-0.16-0.12-1.48-1.69-1.69-2.17
				c-0.2-0.48-0.04-0.88,0.6-1.04c3.45-1.01,4.17-2.41,4.7-3.37c0.32,1.88-0.32,3.05-0.2,3.09c3.89-1.41,3.93-6.02,3.93-6.02
				s-0.04,0,0.49-0.2c0.52-0.2,1.96-0.24,2.61-0.24c0.64,0,0.72-0.4,0.72-0.4s-1.52-1.48-1.8-1.88c-0.28-0.4-0.4-0.52-0.2-1.73
				c0.2-1.2-0.28-1.4-0.28-1.4s-1.48-0.04-2,0c-0.27,0.03-0.6,0.16-0.6-1.04c0-1.21,2.16-1.65,2.16-1.65s1.2-0.28,3.17-0.96
				c2.11-0.72,2.69-3.05,2.49-3.17c-0.48-0.08-1-0.08-1.65-0.08c-0.46-0.01-0.92-0.12-1.08-0.36c4.41-1.12,3.18-4.64,3.18-4.64
				s-1.25,1.23-2.44,1.19c-0.85-0.02-1.47-0.04-2.02-0.63c-0.49-0.5-0.28-2.99-0.28-3.75c-1.61,1.23-3.65,1.4-4.22,1.37
				c-0.47-0.02-1.56-0.06-1.53-1.89c0.04-1.85,0.66-2.78,1.78-4.04c1.11-1.27,1.26-1.03,1.93-0.98c0.66,0.05,0.78,0.66,0.78,0.66
				s-0.84,0.93-1.39,1.81c-0.54,0.88-0.17,1.66,0.14,2.38c0.31,0.71,0.7,0.61,0.79,0.5c0.73-0.84,1.33-1.33,2.25-1.27
				c0.91,0.05,1.43,2.25,1.45,2.92c0.03,0.69,0.22,0.76,0.5,0.67c2.2-1.63,1.39-3.99,1.19-4.84c1.06,0.29,2.05,1.33,2.05,1.33
				s0.79-0.58,1.1-2.23c0.37-2.02-0.7-2.9-1.42-3.7c2.56-2.67,1.7-4.7,0.96-5.8c-0.73-1.09-0.66-0.66-0.85-0.53
				c-0.77,2.57-2.09,3.43-3,3.22c0.88-10.41-4.32-21.44-4.32-21.44s-0.88-1.81-1.04-6.97c-0.17-5.58,2.89-7.94,3.73-8.44
				c0.83-0.5,0.92-0.25,1.68,0.42c1.01,0.89,0.63,1.24,0.55,1.34c-2.48,1.94-3.65,2.94-3.69,5.08c-0.04,2.13,0.7,3.58,1.5,4.23
				c0.88,0.76,0.64-0.26,0.67-0.12c0.06-2.74,1.59-3.02,2.27-3.19c0.67-0.17,0.53,0.38,0.53,0.38s-0.21,0.78-0.26,2.73
				c-0.05,1.75,0.44,1.76,0.44,1.76s1.63,1.3,3.23,3.52c1.3,1.8,0.71,4.48,0.97,4.64c3.11-2.15,3.1-4.65,3.23-6.58
				c2.65-0.55,2.04-4.23,1.77-4.2c-1.72,0.24-2.79,0.02-2.81-1.1c-0.02-1.12,0.34-1.52,0.99-2.51c0.64-0.98,0.32-2.45,0.32-2.45
				s0.46-0.17,0.81,0.14c0.74,0.71,0.34,0.74,1.76,0.74C424.09,115.61,423.87,115.31,423.81,114.87"/>
			<path id="path19" inkscape:connector-curvature="0" class="st1" d="M362.88,125c0,0-1.96,0.52-5.31,0.64
				c-3.34,0.12-4.36-0.3-4.9-1.22c0.63,0.01,2.82-0.28,3.42-0.55c-0.37-0.59-1.67-3.69-0.64-6.74c-0.69,0-2.35,0.38-3.74,2.03
				c-0.16,0.21-0.44-0.11-0.33-1.12c0.11-1.01,0.81-2.63,3.17-4.39c-1.06,0.05-2.19,0.22-3.21,1.5c-1.02,1.29-1.78,2.46-1.99,3.58
				c-0.03,0.39-1.29-0.16-1.13-2.41c0.16-2.25,1.54-5.43,4.35-8.15c-0.37,0.05-0.86-0.09-2.26,0.92c-1.51,1.11-2.02,2.06-2.02,2.06
				s-0.82-1.84,0-3.37c0.82-1.53,2.43-3.37,2.43-3.37s1.11-1.95-0.1-2.75c-1.2-0.8-2.13-1.13-2.13-1.13s-0.54-0.78,0.36-1.26
				c0.54-0.22,1.1-0.04,1.1-0.04s-0.29-1.32,0.24-1.91c0.38-0.44,0.78-0.58,1.44-0.62c-0.03-0.63-0.14-2.4-0.73-3.71
				c-0.03-0.04,0.12-0.84,1.44,0.15c0.83,0.62,1.1,1.1,1.1,1.1s1.03-1.22-0.15-4.62c-0.04-0.1,1.89-0.64,2.24,3.16
				c1.25-0.37,4.52,0.07,4.37,5.49c-0.16,5.61-2.05,6.73-2.05,6.73s1.34,0.41,2.35-0.05c0.68-0.31,1.91-1.48,1.91-1.48
				s0.59-0.56,0.43,1.34c-0.13,1.59-1.57,3.91-2.25,4.95c-0.67,1.04-1.8,2.57-1.96,4.74c-0.16,2.16,1.42,3.49,2.31,3.53
				c0.96,0.05,2.04-0.06,3.29-1.42c0.15-0.15,0.85,0.28,1.36,1.45c-0.08-1.63-0.64-3.7-0.96-4.51c-0.14-0.43,0.02-0.69,0.85-0.69
				c0.83,0,1.45,0.13,1.48,0.29c0.02,0.16-0.6,2.02,3.23,5.52c0.03,0.06-3.44-5.22-1.33-6.9c0.05-0.02,0.53-0.26,0.67,1.33
				c0.1,1.01,1.17,0.53,1.17,0.53s0.42-0.96,0.94-0.96c0.44,0-0.14,0.96,0.32,2.01c0.56,1.28,1.38,1.69,2.08,2.07
				c0.17-0.08,0.18-0.3,0.18-0.3s-0.2-1.15,0.06-1.88c0.06-0.16,0.1-0.4,0.4-0.02c0.3,0.38,1.79,1.91,4.39,1.75
				c2.32-0.13,2.07-0.12,2.07-0.12s0.74-0.1-0.02,0.56c-0.57,0.48-1.42,1.09-2.87,1.22c-0.66,0.06-2.74-0.07-4.42,1.39
				c-0.51,0.41-1.39,1.51-2.17,4.15c-0.84,2.81-3.74,5.15-6.7,5.91c-0.12-0.53-0.27-1.07,0.16-2.08c-0.98,0.56-1.87,1.1-4.27,1.31
				c-2.41,0.21-2.79-0.51-2.79-0.51s0.01-0.21,0.22-0.28C358.42,127.69,361.52,126.66,362.88,125"/>
			<path id="path21" inkscape:connector-curvature="0" class="st1" d="M367.03,130.24c0,0-0.59-0.27-0.16-0.47
				c0.43-0.2,3.46-2.28,4.44-3.89c0.98-1.61,1.49-3.14,1.49-3.14s0.76-2.29,2.01-3.03c1.25-0.74,2.25-0.98,2.56-0.98
				c0.31,0,0.43,0.15,0.35,0.31c0,0.39-0.31,0.5-0.39,0.94c-0.08,0.44,0,1.19,0,1.54c0,0.35,0.18,1.58,0.55,1.73
				c0.47,0.19,0.43,0.55,0.31,0.82c-0.12,0.27-1.1,3.11-2.6,4.88c-1.43,1.68-2.04,1.89-2.91,1.93
				C371.83,130.91,367.86,130.79,367.03,130.24"/>
			<path id="path23" inkscape:connector-curvature="0" class="st1" d="M374.76,131.95c0,0-0.03-0.7,0.14-0.83
				c0.27-0.2,1.29-0.74,1.73-1.42c0.36-0.55,0.6-1.23,0.71-2.29c0.03-0.45,0.05-0.56,0.62-0.53c0.31,0.63,0.85,0.57,1.18,0.61
				c0.71,0.09,0.79-0.32,1.06-0.35c0.31,0.04,0.39-0.13,0.39,0.62c0,0.75-0.47,2.52-1.63,3.46c-1.27,1.03-2,1.04-2.47,1.08
				C376.03,132.34,374.78,132.18,374.76,131.95"/>
			<path id="path25" inkscape:connector-curvature="0" class="st1" d="M351.55,143.02c0,0-2.65-0.07-3.05-2.19
				c-0.22-1.12-0.01-2.07-0.31-2.71c-0.52-1-1.2-1.6-3.23-2.21c-0.14-0.11-0.32-0.28,0.04-0.44c0.18-0.08,2.07-0.44,3.99,0.55
				c0.12-0.22,0.02-2.09-0.5-3.13c-0.52-1.05-0.44-0.93-0.44-0.93s0.12-0.24,0.52-0.2c0.4,0.04,2.45,0.24,3.69,1.57
				c0.12,0.2,0.44,0.24,0.64,0.08c0.2-0.16,1.12-0.48,2.17-0.24c1.05,0.24,2.21,0.88,3.13,1.81c0.88,0.88,2.33,1.93,4.46,2.09
				c2.13,0.16,3.33,0.52,3.33,0.52s1.44,0.12,1.76-0.04c0.32-0.16,0.44-0.08-0.08-0.4c-0.52-0.32-1.64-1.73-1.97-2.81
				c0.12-0.16,0.16-0.12,0.6-0.04c0.33,0.06,2.09,0.72,3.89,0.6c1.81-0.12,4.17-1.49,4.17-1.49s0.24-0.2,0.52-0.04
				c0.28,0.16,1.94,1.65,5.02-0.52c0.4-0.28,0.85-0.6,2.01-0.08c0.6,0.28,1.08,0.28,1.08,0.28s1.33,1.08,3.49,1.08
				c2.17,0,2.97,1.28,2.97,1.28s1.33,2.21,2.01,2.49c0.68,0.28,2.29,0.32,2.29,0.32s2.53-0.28,4.53,1.2
				c2.01,1.49,2.45,2.81,2.73,4.82c0.28,2.01,1.2,3.69,1.69,4.33c0.49,0.64,1.46,1.03,2.01,1.05c0.76,0.04,1.93-0.92,2.41-3.01
				c0.48-2.09,0.18-4.3-0.44-7.39c-0.84-4.13-4.09-12.56-4.82-16.98c-0.51-3.16-0.68-7.94,1.57-11.6c2.25-3.65,5.29-4.58,5.29-4.58
				s1.53-0.24,3.05-0.04c1.52,0.2,3.96,0.74,5.38-0.48c0.32-0.28,0.56-0.52,0.56-0.52s0.19,1.21-0.68,2.53
				c-0.75,1.17-1.53,1.97-1.53,1.97s-0.08,0.24,0.48,0.24c0.56,0,2.47,0.02,3.53-1.04c0.08-0.08,0.44-0.46,0.18,0.4
				c-0.16,0.6-0.48,1.2-1.87,2.17c-0.12,0.14,0.1,0.22,0.58,0.2c0.48-0.02,2.65,0.54,3.05,1.81c-0.4,0.04-1.18,0.04-1.32,0
				c-0.14-0.04-0.52-0.24-0.68-0.18c-0.16,0.06-0.18,0.18-0.12,1.19c0.06,1-0.04,2.09-0.66,2.97c-0.62,0.88-1.63,3.31-0.06,4.05
				c1.57,0.74,2.19,0.7,2.19,0.7s0.32-0.02-0.02,0.44c-0.34,0.46-0.86,1.32-2.43,1.82c0.1,0.44,1.07,3.43-0.28,5.12
				c-0.1,0.1-0.26,0.08-0.26-0.3c0-0.38-0.14-1.94-2.27-4.37c-1.85-2.11-2.05-2.31-2.13-3.67c-0.08-1.36,0.04-2.45,0.04-2.45
				s-0.14-1.2-1.18-1.2c-1.04,0-1.75,0.56-2.19,0.94c-0.44,0.38-0.9,1.3-0.9,1.3s-0.1,0.36-0.22-0.16
				c-0.12-0.52-0.52-2.47,0.56-3.95c1.09-1.49,2.01-2.09,2.01-2.09s0.6-0.64,0.68-1.04c0.08-0.4,0-1.09-0.24-1.36
				c-0.24-0.28-1.24-1.24-1.24-1.24s-0.88-0.32-1.44-0.28c-0.56,0.04-1.4,0.04-2.29,1.16c-0.81,1.01-3.21,3.93-3.33,7.95
				c-0.12,4.01,2.53,10.63,2.53,10.63s3.37,8.47,3.37,14.17c0,5.7-0.16,5.58-0.16,5.58s0.28,0.81,1,0.69
				c0.72-0.12,2.39-1.13,2.85-1.85c0.16-0.24,0.32-0.28,0.32-0.28s0.52,1.08-0.12,2.09c-0.64,1-0.96,1.17-0.96,1.17
				s-0.08,0.44,0.12,0.6c0.2,0.16,2.17,1.61,1.52,3.85c-0.24,0.84-0.24,0.68-0.24,0.68s-1.26-0.94-2.37-1.49
				c-0.48-0.24-0.64-0.16-0.52,0.25c0.12,0.4,0.52,3.29,0,4.13c-0.08,0.2-0.16,0.36-0.32-0.44c-0.16-0.8-0.76-2.41-1.57-2.57
				c-0.8-0.16-2.09,0.16-2.77,1.16c-0.32-0.36-0.38-0.57-0.36-1.04c0.04-0.68,0.54-1.31,0.76-1.69c0.32-0.52,1.04-1.2,0.76-1.65
				c-0.28-0.44-0.96-0.88-1.52-0.88c-0.68,0-1.01-0.04-1.61,0.6c-0.6,0.64-1.77,1.17-2.69,4.1c0,0.36-0.08,1.24-0.08,1.24
				s0.32,1.81,1.04,2.09c0.72,0.28,1.45,0.28,1.45,0.28s2.45-0.32,2.97-0.48c0.16-0.04,0.4-0.24,0.28,0.32
				c-0.12,0.56-0.2,2.21,0.85,2.73c1.16,0.56,2.8,0.48,3.49,0.24c0.2-0.08,0.48-0.13,0.24,0.24c-0.28,0.44-0.31,1.74-3.73,2.21
				c-0.89,0.12-0.76,0.12-0.76,0.12s-0.14,0.83,0.4,1.24c0.56,0.44,1.61,0.4,3.25,0.36c0.19,0,0.52,0.68-1.97,1.57
				c-2.71,0.95-3.49,1.12-4.37,1.81c-0.88,0.68-1.12,1.53-1.17,1.85c-0.04,0.32,0.32,1.2,0.77,1.32c0.44,0.12,1.29,0.2,1.69,0.16
				c0.4-0.04,1.08,0,0.76,0.36c-0.32,0.36-0.8,0.97-0.72,1.56c0.08,0.6,0.76,1.37,1.08,1.57c0.32,0.2,0.6,0.44,0.04,0.48
				c-0.56,0.04-1.72,0.18-2.09,0.8c-0.34,1.24-0.52,3.25-1.93,4.66c-0.16,0.12-0.12-0.32-0.12-0.56c0-0.24-0.04-2.17-0.4-2.37
				c-0.36-0.2-0.6-0.28-0.84-0.08c-0.24,0.2-1.68,2.17-1.89,2.41c-0.2,0.24-0.88,1.28-1.48,1.44c-0.6,0.16-1.57,0.08-1.57,0.08
				s-1.12,0.24-1.36,1.48c-0.12,1.29,0.52,2.01,0.52,2.01s0.2,0.36-0.12,0.32c-0.32-0.04-1.45,0.09-3.29-2.37
				c-0.72-0.97-1.08-0.93-1.08-0.93s-0.8,0.16-1.32-0.08c-0.52-0.24-0.96-0.52-1.48-0.16c-0.19,0.13-0.85,0.28-1.12,3.45
				c-0.03,0.3-0.36-0.28-0.56-0.84c-0.2-0.56-0.64-1.52-0.64-2.89c0-1.37,1.36-3.05,1.36-3.05s-0.6-0.93-1.08-1.04
				c-0.48-0.12-0.97-0.16-1.44-0.16c-0.48,0-1.73,0.52-2.09,0.92c-0.2,0.12-0.56,0.2-0.12-0.6c0.44-0.8,0.56-1.4,2.29-1.28
				c0.16,0,0.68-0.28,1.17-0.76c0.48-0.48,1.24-1.72,2.33-2.25c1.08-0.52,1.64-0.52,2.49-0.48c0.84,0.04,4.01,0.76,4.98,0.92
				c0.96,0.16,3.32-0.19,4.41-1.84c0.97-1.45,2.01-3.85,0.76-7.02c-0.12-0.2-0.16-0.14-0.3,0.1c-0.14,0.24-2.65,4.72-6.06,4.28
				c-0.16-0.04,1.2-3.07,0.9-7.29c-0.02-2.17,0.74-3.85,0.74-3.85s-0.34,0.26-0.62,0.76c-0.28,0.5-1.86,4.13-4.59,5.22
				c-0.32,0.1-0.46,0-0.34-0.3c0.12-0.3,1.41-2.64,1.3-5.76c-0.06-1.8-0.09-2.57-0.09-2.57s-0.35,0.29-0.51,0.48
				c-0.22,0.28-1.24,0.69-1.24,0.69s-0.72,0.39-0.77-0.87c-0.05-1.27-0.83-2.51-1.22-3.03c-0.19-0.26-0.34-1.17-0.35-2.08
				c0-0.71,0.2-1.68,1.03-2.17c0.82-0.49,3.18-0.87,3.71-1.99c0.55-1.16,0.28-3.41-0.21-4.16c0,0.84,0.59,3.73-1.95,4.63
				c-2.13,0.44-3.46,1.43-3.64,2.97c-0.12,1.06,0.31,2.36,0.31,2.36s0.25,0.52-0.49,0.3c-0.74-0.24-1.17-0.4-1.17-0.4
				s-0.83-0.09-1.08,0.13c-0.6,0.57-1.66,1.19-0.94,1.8c0.71,0.61,3.7,2.71,4.27,4.52c0.57,1.82,0.29,4.11,0.29,4.11
				s-0.1,0.31-0.23,0c-0.36-0.94-1.34-2.95-2.91-3.95c-0.22-0.16-0.19,0.11-0.02,0.37c0.27,0.43,0.91,1.6,0.72,2.54
				c-0.19,0.94-0.57,2.01-0.57,2.01s0.01,0.51-0.76-0.31c-0.77-0.82-0.98-0.84-0.98-0.84s0.5,3.44-0.26,4.53
				c-0.1,0.21-0.17,0.35-0.66-0.4c-0.49-0.75-0.85-1.68-1.26-2.1c-0.41-0.42-0.83-0.51-1.19,0c-0.35,0.51-1.03,1.38-1.25,1.67
				c-0.07,0.09-0.4,0.88-0.14,1.08c0.49,0.39,0.93,0.61,1.22,0.7c0.29,0.08,1.31,0.45,1.38,2.04c0.06,1.6-0.02,3.52-0.96,4.51
				c-0.16,0.18-0.27,0.03-0.37-0.14c-0.1-0.17-0.45-0.67-0.59-0.97c-0.14-0.29-0.6-0.91-0.79-1.08c-0.19-0.17-0.87-0.71-1.44-0.53
				c0.1,0.35,0.01,0.94-0.28,1.26c-0.34,0.38-1.68,1.49-1.68,1.49s-0.12,0.19-0.55,0.06c-0.43-0.13-0.97-0.74-1.18-0.88
				c-0.21-0.14-0.37-0.29-0.57-0.26c-0.2,0.03-0.36,0.08-0.39,0.6c-0.03,0.52-0.05,1.26-0.05,1.78c0,0.52-0.06,1.02-0.34,0.47
				c-0.15-0.31-1.1-1.78-1.7-2.17c-0.59-0.39-1.64-0.7-2.32-0.73c-0.68-0.03-1.52,0.05-1.52,0.05s-0.25,0.09-0.06,0.83
				c0.21,0.82,0.46,1.65,0.31,2.19c-0.05,0.16-0.61-0.01-0.61-0.01s-0.67-0.75-1.38-1.74c-0.79-1.09-1.63-1.53-2.59-1.58
				c-0.96-0.05-2.07,0.73-2.36,1.16c-0.09,0.02-0.26,0.16-0.13-0.32c0.13-0.48,0.31-1.62-0.03-2.05c-0.34-0.43-1.29-0.64-1.26-1.74
				c0.04-1.1,0.12-0.89,0.11-1.68c-0.01-0.75-0.65-0.95-1.09-0.98c-0.44-0.02-1.76-0.04-2.43,0.16c-0.25,0.1-0.84,0.26,0.32-0.68
				c1.16-0.94,2.94-0.93,2.94-0.93s-0.02-1.42-3.35-3.2c-0.14-0.09-0.31-0.27,0.3-0.34c0.61-0.07,1.37-0.04,1.8,0
				c0.43,0.04,1.4-0.1,1.85-0.14c0.44-0.04,0.6-0.14,0.96-0.18c0.48-0.05,1.05-0.11,1.51-0.09c0.52,0.03,2.09,0.67,2.57,1.22
				c0.43,0.48,0.7,1.1,0.7,1.72c0,0.29,0.08,0.31,0.36,0.29c0.28-0.02,2.47-0.26,3.66,0.19c1.2,0.45,2.9,1.61,4.29,1.57
				c1.36-0.05,2.95-0.78,4.18-3c1.23-2.22,1.05-4.46,1.05-4.46s-2.47,2.57-5.09,3.12c0.83-0.94,2.56-2.57,2.83-3.98
				c-1.11,0.49-2.3,1.14-4.98,1.16c0.53-0.34,2.87-0.69,4.09-3.34c-1.14,0.3-4.91,0.78-5.46,0.78c-0.55,0-0.48,0.06,0.11-0.37
				c0.59-0.43,2.81-2.66,3.61-4.07c0.12-0.21,0.28-0.82,0.28-0.82s0.24-0.87,0.65-2.02c0.19-0.34,0.43-0.62,0.43-0.62
				s0.56-0.5-0.29-0.68c-0.86-0.18-0.9-0.19-1.66-0.22c-0.75-0.03-2.07,0.38-2.07,0.38s-0.27-1.1,1.58-2.36
				c1.86-1.26,6.54-1.83,6.54-1.83l4.68-0.32l3.29-0.11c0,0-0.16-0.45-0.7-0.45c-0.54,0-7.38,0.27-9.3-3.81
				c-0.68,0.55-1.41,1.53-2.39,2.12c0.01-0.56-0.06-3.08-0.56-3.71c-0.43,0.54-1.98,3.21-4.63,4.42c-0.07-1.09,0.08-2.89-0.1-4.02
				c-0.57,1.37-1.43,3.32-4.25,4.27c-0.25-0.2-0.31-0.08-0.17-0.46c0.14-0.38,0.8-1.81,0.63-3.25c-0.03-0.28-0.41-0.28-0.98,0.71
				c-0.63,1.09-2.85,2.89-4.56,3.28c0.66-0.88,1.41-2.72,1.27-3.81c-0.75,1.02-2.16,2.69-4.56,3.43c-2.4,0.74-1.74-2.06-1.74-2.06
				s-0.3-0.28-0.52,0.04c-0.22,0.32-0.63,1.7-2.58,2.37c-1.95,0.67-2.51,0.32-2.51,0.32s2.13-2.14,2.25-2.8
				C351.65,143.21,351.55,143.02,351.55,143.02"/>
			<path id="path27" inkscape:connector-curvature="0" class="st1" d="M392.8,99.42c0,0-0.37-0.38-0.4-0.79
				c-0.04-0.59,0.05-1,0.16-1.14c0.11-0.14,0.48-0.13,0.93-0.17c0.48,0.07,0.77,0.55,0.77,0.55s0.23,0.38,0.48,0.9
				c0.28,0.55,0.28,0.65,0.28,0.65s-0.17,0.25-0.45,0.42C394.23,100.03,393.35,100.1,392.8,99.42"/>
			<path id="path29" inkscape:connector-curvature="0" class="st1" d="M389.02,101.52c0,0-0.34,0.68-0.44,2.63
				c-0.04,0.9,0.1,1.63,0.1,1.63s0.14,0.85,0.1,1.98c-0.04,1.13-0.42,1.81-0.74,2.17c-0.32,0.36-0.74,0.55-0.96,0.3
				c-0.33-0.37-0.6-0.78-0.34-1.14c0.25-0.33,0.59-0.7,0.6-1.28c0-0.85,0-1.64-0.08-1.88c-0.08-0.24-0.38-0.34-0.46-0.58
				c-0.08-0.24-0.16-0.82-0.16-1.35c0-0.53,0.1-1.05,0.1-1.05s0.1-0.64,0.66-1.18c0.57-0.54,0.7-0.51,0.7-0.51l0.88-0.48
				C388.99,100.77,389.55,100.76,389.02,101.52 M383.64,99.89c0,0-0.76-0.05-1.28-0.55c-0.75-0.74-0.87-0.86-0.65-1.32
				c0.39-0.77,0.72-0.97,0.72-0.97s0.25-0.07,0.83-0.06c0.65,0.02,0.97,0,0.97,0s0.48,0.19,0.9,0.61c0.42,0.42,0.54,0.61,1.1,0.81
				c0.48,0.18,0.77,0.25,1.12,0.25c0.87,0.12,1.04-0.02,1.02,0.52c-0.02,0.57-0.22,0.76-1.5,0.77
				C386.87,99.95,383.64,99.89,383.64,99.89z M399.99,127.69c0,0-1.2-1.12-1.63-1.76c-0.42-0.64-1.02-2.99-1.02-4.43
				c0-1.45,0.42-3.79,0.5-4.62c0.08-0.83,0.28-3.78-0.34-6.37c-0.62-2.59-1.95-4.55-2.09-4.87c-0.14-0.32-0.4-0.93-0.21-1.62
				c0.19-0.69-0.03-1.21-0.24-1.44c-0.21-0.24-0.5-0.79-0.67-1.37c-0.18-0.57-0.5-0.54-1.57-0.5c-0.71,0.01-1.14,0.28-1.41,0.32
				c-0.28,0.04-0.36-0.1-0.48-0.31c-0.16-0.29-0.03-0.49,0.37-0.79c0.58-0.42,0.03-0.76,0.03-0.76s-1.95-1.36-2.22-1.6
				c-0.27-0.24-1.13-1.39-1.45-1.84c-0.32-0.45-0.62-0.59-0.91-0.69c-0.26-0.08-3.1-0.22-3.68-0.08c-0.58,0.14-1.6,1.12-1.6,1.12
				s-1.08,0.91-1.8,1.28c-0.67,0.33-2.78,1.2-3.45,1.47c-0.67,0.26-1,0.83-1,0.83s-0.05,0.53-0.29,0.91
				c-0.28,0.47,0.13,0.74,0.37,0.77c0.24,0.03,0.87,0.19,1.14,0.51c0.27,0.32,0.15,1.5,0.15,1.5c-0.13,0.68,1.54,1.08,1.91,1.02
				c0.37-0.05,0.97-0.69,0.97-0.69s1.18-1.29,1.64-1.65c0.46-0.36,1.24-0.18,1.52-0.05c0.27,0.13,0.73,0.5,1.37,1.23
				c0.65,0.73-0.23,1.94-0.23,1.94s-0.97,1.51-1.6,1.93c-0.64,0.41-1.74,0.36-2.06,0.18c-0.32-0.18-1.42-0.57-1.91-0.63
				c-0.65-0.13-0.67-0.12-1.41,1.43c0,0.22,0.01,0.49,0.19,0.9c0.21,0.49,0.28,0.91,0.22,1.07c-0.06,0.16-0.38,0.16-0.67,0.11
				c-0.22-0.04-0.38,0.05-0.41,0.87c-0.04,1.18,1.01,1.1,1.01,1.1s1.29-0.02,2.83-0.01c0.71,0.01,0.36,0.34,1.08,0.33
				c0.76,0,1.27,0.11,2.08-0.14c1.18-0.36,2.53-1.47,2.53-1.47s0.18,0.68,0.09,0.96c-0.59,0.55-0.41,1.93-0.64,2.2
				c-0.8,0.07-0.49,0.96-0.64,1.1c-0.37,0.28-2.25,1.37-3.21,2.11c-0.96,0.73-1.8,1.93-2.3,3.07c-0.27,0.61-0.18,1.52,0.01,2.02
				c0.88-2.16,2.26-3.32,3.8-4.21c1.8-1.05,2.33-2.16,2.56-2.57c0.23-0.41,0.56-0.55,0.56-0.55s-0.05,0.96-0.51,2.39
				c-0.84,2.6-3.25,3.67-3.25,3.67s-1.37,0.73-2.21,2.11c-0.78,1.29-0.41,2.93-0.41,2.93s0.42-0.54,0.88-1.23
				c0.46-0.69,1.55-0.6,1.55-0.6s-0.19,0.15-0.19,3.49c0.13,3.85,1.43,3.99,1.43,3.99s-0.17-3.02,0.51-7.34
				c0.68-4.31,1.88-5,2.97-6.02c1.09-1.01,1.42-2.88,1.46-4.5c0.02-0.63-0.07-1.11,0.19-1.4c0.26-0.26,0.5-0.29,0.73-0.01
				c0.23,0.28,0.71,0.88,0.87,0.86c0.16-0.02,0.34-0.18,0.55-1.73c0.41-3.07-0.09-4.87-0.37-5.65c-0.28-0.78,0.05-1.24,0.05-1.24
				s0.54-0.5,1.27-0.68c0.73-0.18,1.09,0.02,1.38,0.68c0.32,0.72,0.96,0.05,1.47,0.91c0.41,1.97,1.24,2.53,1.56,2.8
				c0.32,0.27,0.09,0.6,0.09,0.6s0.04-0.05-0.5,0.68c-0.54,0.73-0.7,0.1-0.64-0.45c-0.01-0.4-0.18-0.75-0.65-1.12
				c-0.48-0.37-0.53,0.18-0.62,0.34c0,0.26,0.35,0.55,0.72,2.71c0.37,2.16,0.04,4.81-0.23,5.58c-0.27,0.77-0.46,1.12-1.3,1.03
				c-0.39-0.17-0.77-0.33-1.09-0.15c-0.32,0.18-0.64,0.05-2.42,2.71c-1.79,2.66-2.32,5.99-2.32,5.99s-0.66-1.05-0.48-2.75
				c0.3-2.79,2.62-4.69,2.62-4.69s1.27-0.9,1.28-1.63c0.01-0.73,0.5-1.32,0.91-1.46c0.41-0.14,1.14-0.23,1.14-0.23
				s0.48-0.37,0.55-2.7c0.09-3.43-0.93-5.95-1-5.1c0.23,1.69,0.08,3.41,0,4.63c-0.07,1.03-2.53,3.33-3.07,3.99
				c-0.54,0.66-4.28,5.18-4.28,9.4c0,4.23,2.39,5.6,3.21,6.28c0.18-1.1-0.1-2.67-0.12-3.31c1.21,1.17,1.5,2.33,2.11,3.4
				c0.61,1.07,0.8,0.45,1.04,0.16c0.24-0.29,0.06-0.64,0.06-0.64l-0.86-1.92c0,0-1.02-2.66-0.87-4.23c0.14-1.58,0.19-2.4,1.03-4.15
				c0.64-1.31,1.68-2.64,1.96-2.69c0.16,0.24-0.08,0.91-0.08,0.91s-2.01,5.35-1.37,8.48c0.64,3.13,2.47,3.56,3.24,3.88
				c0.77,0.32,0.56-0.14,0.48-0.3c-1.25-1.34-1.39-3.26-1.31-4.79c0.08-1.52,0.37-2.55,0.72-3.64c0.28,5.58,1.06,6.16,2.27,6.99
				c1.18,0.81,0.91-0.06,0.91-0.06s-0.08-0.67-0.18-1.48c-0.09-0.78-0.1-1.44,0.06-2.1c0.94,1.41,2.53,1.34,2.96,1.28
				C400.09,127.78,399.99,127.69,399.99,127.69"/>
			<path id="path31" inkscape:connector-curvature="0" class="st1" d="M402.27,102.3c-0.21,0.17-0.51,0.07-0.69-0.07
				c-0.18-0.14-0.67-0.27-0.94,0.07c-0.27,0.34-0.99,1.18-0.99,1.18s-0.21,0.35-0.63-0.14c0,0-0.38-0.17,0.07-0.69
				c0.45-0.52,1.13-1.14,1.13-1.14s0.35-0.35,0.91-0.35c0.59,0,0.83,0.04,0.83,0.04s0.34,0.33,0.41,0.51
				C402.44,101.89,402.48,102.13,402.27,102.3 M397.38,97.61c0,0-0.36-0.28-0.62-0.54c-0.26-0.26-0.14-0.94-0.14-0.94
				c0-0.38,0.16-0.38,0.46-0.38c0.3,0,0.2,0.38,0.2,0.38s-0.08,0.22,0.04,0.6c0.12,0.38,0.66,0.26,0.66,0.26s0.41-0.28,0.7-0.6
				c0.18-0.2,0.14-0.5,0.1-0.62c-0.04-0.12-0.02-0.48-0.02-0.6c-0.04-0.44,0.24-0.4,0.52-0.4c0.28,0,0.14,0.34,0.18,1
				c0.04,0.66-0.1,0.92-0.1,0.92s-0.54,0.42-0.94,0.78C398.03,97.83,397.38,97.61,397.38,97.61 M396.94,98.84
				c-0.15,0.14-0.3,0.06-0.3,0.06s-0.46-0.5-0.78-0.88c-0.32-0.38-0.2-0.74-0.28-0.98c-0.08-0.24-0.38-0.68-0.84-0.82
				c-0.46-0.14-1.14-0.28-1.14-0.28l-1.02-0.56c0,0-0.3-0.2-0.12-0.42c0.18-0.22,0.32-0.16,0.32-0.16s0.52,0.3,0.84,0.52
				c0.32,0.22,0.7,0.26,1.1,0.34c0.4,0.08,0.66,0.14,1.1,0.58c0.44,0.44,0.36,1.14,0.46,1.37c0.1,0.22,0.64,0.82,0.64,0.82
				S397.16,98.62,396.94,98.84 M394.36,93.01c0.39-0.53,1.24-0.48,1.24-0.48s0.95,0.04,1.26,0.07c0.41,0.04,0.71,0.29,0.65,0.93
				c-0.02,0.23,0.07,0.34-0.27,0.34c-0.34,0-0.24-0.23-0.31-0.44c-0.07-0.21-0.69-0.24-0.69-0.24s-0.63-0.04-1.08,0.03
				c-0.45,0.07-0.47,0.25-0.44,0.83c0.04,0.73,0.93,0.38,0.93,0.38s0.38,0,0.34,0.42c-0.02,0.27-0.41,0.27-0.89,0.27
				c-0.48,0-0.42-0.21-0.76-0.41c-0.34-0.2-0.28-0.63-0.28-0.63S394.02,93.46,394.36,93.01 M390.38,91c-0.28,0.31-0.8,0.87-0.8,0.87
				l-0.75,0.63c0,0-0.42,0.17-0.56-0.21c0,0-0.28-0.34-0.14-0.45c0.29-0.22,1.21-0.86,1.21-0.86s0.32-0.35,0.21-0.66
				c-0.11-0.31-0.38-0.59-0.38-0.59s-0.1-0.34,0.14-0.48c0.24-0.14,0.51-0.24,0.65,0.07c0.14,0.31,0.45,0.79,0.45,0.79
				S390.66,90.69,390.38,91 M406.15,100.43c0,0-0.16-0.72-0.48-1.28c-0.32-0.56-0.42-0.48-0.9-0.59c-0.48-0.11-1.96,0.38-1.96,0.38
				s-1.98,0.9-2.49,1.25c-0.51,0.35-0.96,0.16-0.96,0.16s-0.68-0.57-1.04-0.9c-0.24-0.59-0.11-1.25,0.47-1.59
				c0.4-0.24,1.2-0.72,1.69-1.07c0.48-0.35,0.56-0.45,0.56-0.72c0-0.27-0.32-0.53-0.32-0.53s-1.04-0.91-1.21-1.23
				c-0.09-0.18-0.06-0.42,0-0.69c0.13-0.59,0.86-1.12,1.21-1.56c0.34-0.43-0.05-0.82-0.42-1.14c-0.37-0.32-0.88,0.29-1.34,0.66
				c-0.46,0.37-0.74,0.3-1.39,0.3c-0.64,0-0.72-0.22-0.88-0.38c-0.16-0.16-0.43-0.48-0.86-0.53c-0.43-0.05-0.69,0.35-0.69,0.35
				s-0.88,1.1-0.99,1.26c-0.11,0.16-0.74,0.88-1.23,1.09c-0.48,0.21-1.2-0.5-1.36-0.69c-0.16-0.19-0.48-0.86-0.11-1.84
				c0.66-1.75,1.53-2.82,1.9-3.38c0.37-0.56-0.02-0.88-0.02-0.88s-0.67-1.01-1.12-1.49c-0.45-0.48-0.54-0.19-0.54-0.19
				s-0.13,0.13-0.58,0.61c-0.45,0.48-0.14,0.78,0,1.07c0.14,0.29,0.1,0.56,0,0.79c-0.16,0.39-1.24,0.74-1.99,1.01
				c-0.74,0.27-1.19,0.86-1.68,1.63c-0.42,0.65-0.12,1.44-0.12,1.44l0.62,1.19c0.18,0.42,0.91,0.22,1.93,0.24
				c0.98,0.02,0.77,0.35,1.14,0.67c0.37,0.32,0.14,0.61-0.07,0.61c-0.21,0-0.24,0.16-0.54-0.29c-0.3-0.45-0.42-0.39-1.01-0.37
				c-0.58,0.02-0.75,0.02-0.75,0.02s-0.19,0.95,0.11,1.08c0.38,0.75,0.84,0.52,1.21,0.55c0.37,0.03,0.24,0.13,0.37,0.83
				c0.13,0.71,1.48,0.34,2.76,0.34c1.29,0,1.29,0.32,1.58,0.62c0.3,0.3,0.48,1.2,0.91,1.98c0.43,0.77,0.69,0.96,1.02,0.99
				c0.32,0.03,0.35-0.19,1.02,0.4c0.67,0.59,0.69,0.56,0.69,0.56s0.21,0.34,0,0.34c-0.21,0-0.21,0.14-0.4,0.03
				c-0.19-0.11-0.53-0.45-0.69-0.67c-0.16-0.22-0.24-0.34-0.7-0.37c-0.46-0.03-0.31-0.02-0.5,0.14c-0.19,0.16-0.19,0.02-0.27,0.74
				c-0.08,0.72-0.16,0.83,0.24,1.52c0.4,0.69,1.24,1.07,1.77,0.93c0.53-0.14,0.92,0.08,0.92,0.08s0.24,0.56,1.09,0.96
				c0.85,0.4,1.04,0.22,1.63-0.32c0.6-0.54,1.3-1.63,1.73-2.46c0.43-0.83,0.86-1.04,1.18-1.34c0.32-0.29,0.35-0.38,0.7,0.13
				c0.35,0.51,0.58,0.51,0.58,0.51s0.06-0.03,0.4-0.35C406.27,100.75,406.15,100.43,406.15,100.43"/>
			<path id="path33" inkscape:connector-curvature="0" class="st1" d="M370.4,103.12c0,0,0.21-0.78,0.49-0.87
				c0.28-0.09,0.29,0.29,0.33,0.48c0.04,0.19,0.46,1.93,1.65,2.51c1.23,0.61,2.27,0.71,3.07,0.81c0.23,0.1,0.27,0.53-0.15,0.63
				c-0.42,0.1-1.97,0.35-2.86,0.35C372.05,107.03,369.73,105.87,370.4,103.12"/>
		</g>
	</g>
	<g id="g35">
		<path id="path37" inkscape:connector-curvature="0" d="M411.91,48.25c-1.12-0.24-2.34-0.38-2.57-0.45
			c-0.71-0.26-1.22-1.17-2.08-1.92c-0.85-0.74-2.19-1.75-3.87-1.78c-0.47,0.03-0.5-0.15-0.5-0.15s0.65-0.43,0.77-1.23
			c0.03-0.12,0.76-0.07,0.76-0.07s2.65-0.19,5.19,0.43c2.76,0.87,4.93,3.14,5.17,6.75C414.1,49.34,413.03,48.49,411.91,48.25
			 M392.32,41.59c-1.44-1.43-3.04-1.79-3.83-1.9c-0.05-2.47-0.95-5.41-0.95-5.41c7.66,0.69,9.33,7.75,9.58,9.14
			C395.38,43.38,393.75,43.03,392.32,41.59 M378.71,39.81c-1.04,0-2.19,0.2-3.42,1.29c-1.23,1.08-2.31,2.38-5.83,2.32
			c0,0,0.68-4.4,3.8-6.63c3.12-2.23,6.28-2.38,6.28-2.38S378.86,36.21,378.71,39.81 M363.71,44.13c-0.08,0.26-1,0.24-1,0.24
			s-0.7-0.02-1.74,0.74c-1.04,0.76-2.28,2.33-2.9,2.63c-0.62,0.3-1.79,0.36-3.26,0.92c-1.46,0.56-2.41,1.5-2.41,1.5
			s-0.23-2.95,1.83-4.89c1.91-1.83,2.84-2.27,4.66-2.53c1.83-0.26,4-0.08,4-0.08s0.29,0.35,0.47,0.77
			C363.54,43.86,363.79,43.87,363.71,44.13 M419.78,54.22c0-0.06-0.01-0.13-0.03-0.19c1.12-0.31,1.95-1.33,1.95-2.55
			c0-1.05-0.61-1.95-1.49-2.38c0.64-0.48,1.05-1.24,1.05-2.1c0-1.38-1.05-2.5-2.39-2.63c0.2-0.37,0.32-0.8,0.32-1.26
			c0-1.46-1.18-2.65-2.65-2.65c-0.21,0-0.42,0.03-0.61,0.07c0.11-0.3,0.18-0.62,0.18-0.96c0-1.46-1.18-2.65-2.65-2.65
			c-0.57,0-1.09,0.18-1.52,0.48c-0.37-1.01-1.34-1.74-2.48-1.74c-0.85,0-1.6,0.4-2.08,1.02c-0.41-0.93-1.34-1.57-2.42-1.57
			c-0.95,0-1.78,0.5-2.24,1.25c-0.42-0.9-1.33-1.52-2.39-1.52c-0.27,0-0.53,0.04-0.78,0.12c0.03-0.16,0.05-0.32,0.05-0.49
			c0-1.46-1.19-2.64-2.65-2.64c-0.42,0-0.81,0.1-1.16,0.27c-0.01-1.45-1.19-2.62-2.64-2.62c-0.62,0-1.2,0.22-1.65,0.58
			c-0.19-1.27-1.29-2.24-2.61-2.24c-0.74,0-1.41,0.3-1.89,0.8c-0.09-0.05-0.14-0.09-0.15-0.1c-0.8-2.11-2.23-2.19-2.23-2.19v-0.86
			h1.87V22.8h-1.79v-1.85h-2.59v1.91l-1.73-0.02l0.02,2.61h1.91c0,0,0.04,0.1,0.04,0.84c-1.87,0.2-2.25,2.59-2.25,2.59
			c-0.48-0.5-1.15-0.8-1.89-0.8c-1.27,0-2.33,0.89-2.58,2.08c-0.46-0.38-1.04-0.61-1.68-0.61c-1.44,0-2.61,1.15-2.64,2.59
			c-0.38-0.21-0.82-0.33-1.28-0.33c-1.46,0-2.65,1.18-2.65,2.64c0,0.2,0.02,0.39,0.06,0.58c-0.19-0.04-0.38-0.07-0.58-0.07
			c-1.06,0-1.97,0.62-2.39,1.52c-0.48-0.68-1.27-1.12-2.16-1.12c-1.11,0-2.05,0.68-2.45,1.65c-0.45-0.8-1.31-1.34-2.3-1.34
			c-1.26,0-2.32,0.88-2.58,2.07c-0.47-0.43-1.09-0.7-1.79-0.7c-1.46,0-2.64,1.19-2.64,2.64c0,0.29,0.05,0.57,0.14,0.84
			c-0.15-0.03-0.31-0.04-0.47-0.04c-1.46,0-2.65,1.19-2.65,2.65c0,0.52,0.15,1,0.41,1.4c-1.34,0.13-2.39,1.26-2.39,2.63
			c0,0.99,0.55,1.86,1.36,2.31c-0.81,0.45-1.36,1.32-1.36,2.31c0,1.23,0.84,2.26,1.98,2.55c-0.27,0.27-1.37,1.38-1.6,1.72
			c-0.27,0.38-0.61,1.41,0.03,2.6c0.54,1,1.75,0.46,1.75,0.46s1.19-0.61,2.48-2.19c0.02,0.53,0.07,1.01,0.14,1.45
			c-0.55,0.54-0.9,1.3-0.9,2.14c0,1.66,1.35,3.01,3.01,3.01c0.28,0,0.55-0.04,0.81-0.11c2.38,1.96,5.47,2.57,5.47,2.57
			s-1.36,0.25-2.12,0.79c-0.71,0.5-0.89,1.29-0.52,2.09c0.37,0.8,1.4,1.16,1.99,0.71c0.32,0.43,0.33,1.24,0.22,2.26
			c1.61,0.85,1.44,2.3,1.44,2.3s-1.3,0.49-0.74,1.88c0.52,1.28,1.33,0.79,1.93,0.64c11.67-4.23,22.41-3.79,22.41-3.79
			c9.97-0.48,21.36,3.2,22.15,3.57c0.76,0.36,1.61,0.38,1.61,0.38s0.49,0.01,1.07-1.01c0.48-1.18-0.27-1.66-1.3-2.09
			c0.42-0.96,0.92-1.38,1.41-1.66c0.48-0.27,0.64-0.21,0.58-0.86c-0.12-1.18-0.1-1.87-0.1-1.87s0-0.1,0.42,0.11
			c0.69,0.32,1.34-0.11,1.77-0.8c0.42-0.69,0-1.6-0.32-1.82c-0.32-0.21-1.4-0.74-2.2-1.01c2.86-0.48,3.67-1.09,5.83-2.44
			c0.09,0.01,0.19,0.02,0.28,0.02c1.66,0,3.01-1.35,3.01-3.01c0-0.8-0.31-1.52-0.82-2.06c0.03-0.17,0.06-0.3,0.1-0.37
			c0.09-0.2,0.18-1.06,0.18-1.06s1.41,1.33,1.99,1.91c0.58,0.58,1.87,0.24,2.29-0.42c0.26-0.41,0.24-1.54-0.06-2.12
			C420.96,55.66,420.14,54.52,419.78,54.22"/>
		<path id="path39" inkscape:connector-curvature="0" class="st1" d="M414.37,56.8c0,0,0.02-1.5,0.42-2.32
			c0.4-0.82,0.72-1.35,1.3-1.38c0.57-0.04,1.69,0.31,2.6,1.1c0.91,0.79,1.97,2.22,1.97,2.22s0.61,0.88,0.19,1.36
			c-0.42,0.48-0.76,0.99-1.52,0.39c-0.75-0.59-1.97-1.98-1.97-1.98s-0.45-0.72-0.66-0.36c-0.21,0.36-0.34,1.42-0.34,1.42
			s0.1,0.38-0.68,0.17C414.89,57.22,414.31,57.28,414.37,56.8"/>
		<path id="path41" inkscape:connector-curvature="0" class="st1" d="M382.8,23.44v-1.79l1.26-0.01l0.02,1.79h1.73l0.01,1.35
			l-1.73,0.03v4.06c0,0,0.98,0.8,1.4,1.07c0.42,0.26,0.66,0.24,0.61,0.52c-0.06,0.26-0.41,0.74-0.74,0.68
			c-0.33-0.06-1.08-0.84-1.99-0.81c-1.03,0.03-1.71,0.85-1.71,0.85s-0.22,0.15-0.42-0.04c-0.2-0.19-0.46-0.55-0.46-0.81
			c-0.04-0.42,1.38-0.51,2.03-1.37c0-0.53,0.02-4.07,0.02-4.07h-1.71v-1.43C381.11,23.44,382.8,23.44,382.8,23.44z"/>
		<path id="path43" inkscape:connector-curvature="0" class="st1" d="M355.48,58.16c0,0-1.05,0.1-1.31-0.8
			c-0.13-0.42-0.42-0.77-0.04-1.44c0.38-0.67,0.89-1.2,1.52-1.31c0.63-0.12,0.9-0.26,1.32-0.17c0.42,0.09,1.57,0.77,1.49,1.92
			c-0.04,0.67-0.51,0.93-0.51,0.93s-0.5-0.01-0.46-0.26c0.04-0.25-0.01-1.01-0.3-0.98c-0.29,0.04-0.29,0.55-0.29,0.89
			C356.88,57.27,356.88,57.89,355.48,58.16"/>
		<path id="path45" inkscape:connector-curvature="0" class="st1" d="M355.78,60.49c0,0-0.3-1.24-0.09-1.58
			c0.21-0.33,0.51-0.54,0.89-0.63s0.51-0.2,0.72,0.05c0.21,0.25,0.38,0.55,0.55,0.42c0.17-0.13,0.05-0.55,0-0.72
			c-0.05-0.17,0.3-0.59,0.59-0.59c0.29,0,0.68,0.64,0.76,0.93c0.08,0.29,0.33,1.44-0.26,2.08C358.36,61.09,356.88,61.6,355.78,60.49
			"/>
		<path id="path47" inkscape:connector-curvature="0" class="st1" d="M362.57,55.59c0,0-0.48,0.26-0.66,0.3
			c-0.18,0.04-0.4-0.1-0.62-0.92c-0.22-0.76-0.08-1.55,0.12-1.77c0.2-0.22,0.36-0.56,1.04-0.56c0.68,0,1.16,0,1.26,0.14
			c0.1,0.14,1.43,1.67,1.43,1.67s0.04,0.42,0,0.68c-0.04,0.26-0.02,0.46-0.28,0.46c-0.26,0-1.37-0.04-1.51-0.04
			c-0.14,0-0.3-0.76-0.42-0.94c-0.12-0.18-0.14-0.4-0.4-0.26c-0.26,0.14-0.02,0.92,0.06,1.06
			C362.67,55.55,362.65,55.55,362.57,55.59"/>
		<path id="path49" inkscape:connector-curvature="0" class="st1" d="M362.59,56.19c0,0-0.38,0.08-0.52,0.3
			c-0.14,0.22-0.2,0.7-0.22,0.9c-0.02,0.2-0.28,1.02,0.56,1.61c0.84,0.58,0.88,0.36,1.37,0.38c0.48,0.02,1.38-0.2,1.78-0.5
			c0.4-0.3,0.68-0.84,0.68-0.84s-0.93-1.23-1.03-1.62c-0.06-0.26-0.1-0.24-0.26-0.26c-0.16-0.02-1.18,0-1.18,0s-0.16,0.28-0.14,0.56
			c0.02,0.28-0.08,0.64-0.28,0.64c-0.2,0-0.32-0.54-0.32-0.74C363.03,56.41,363.11,56.09,362.59,56.19"/>
		<path id="path51" inkscape:connector-curvature="0" class="st1" d="M364.15,52.38c0,0-0.18-0.62,0.16-1.5
			c0.32-0.81,0.86-1,1.16-1.12c0.3-0.12,0.68-0.12,0.98-0.04c0.3,0.08,0.56,0.36,0.56,0.36s0.04,0.72,0.06,0.86
			c0.02,0.14-0.28,0.18-0.46,0.16c-0.18-0.02-0.35,0.15-0.26,0.38c0.1,0.26,0.74,0.22,0.74,0.22s0.02,0.42,0.02,0.76
			c0,0.34-0.02,0.64-0.02,0.64s-0.92,0.42-1.28,0.92c-0.14,0.14-0.54-0.16-0.66-0.3C365.04,53.58,364.15,52.86,364.15,52.38"/>
		<path id="path53" inkscape:connector-curvature="0" class="st1" d="M367.63,50.95l0.06-0.8c0,0,0.14-0.28,0.52-0.48
			c0.38-0.2,0.7-0.3,0.86-0.22c0.16,0.08,1.49,0.87,1.65,1.47c0.04,0.26-0.04,0.38-0.16,0.6c-0.12,0.22-1.23,1.62-1.23,1.62
			s-0.2,0.38-0.36,0.3c-0.16-0.08-0.88-0.4-1.14-0.4c-0.16-0.24-0.16-0.14-0.16-0.5c0-0.36,0.02-0.78,0.02-0.78s0.19-0.2,0.4-0.24
			c0.36-0.08,0.44-0.12,0.44-0.32c0-0.28-0.04-0.28-0.24-0.24C368.09,50.99,367.73,51.19,367.63,50.95"/>
		<path id="path55" inkscape:connector-curvature="0" class="st1" d="M353.95,62.86l0.89-0.68c0,0,2.46,1.76,4.84,1.76
			c2.37,0,5.13-2.12,6.31-3.82c0.47-0.68,0.68-1.04,0.68-1.04s0.11-0.58,0.61-0.58c0.68,0,0.87-0.03,1.23-0.03
			c0.36,0,0.79,0.72,0.79,0.72s2.34,2.56,5.91,2.38c3.57-0.18,5.63-2.92,5.63-2.92l1.12-1.16c0,0,0.21-0.41,0.61-0.37
			c0.4,0.04,0.74,0.16,1.25,0.12c0.51-0.04,1.06-0.15,1.3-0.04c0.25,0.11,2.42,3.07,3.83,3.57c1.4,0.5,3.78,1.44,6.31,0.14
			c2.53-1.29,3.25-2.38,3.25-2.38s0.28-0.24,0.64-0.14c0.36,0.1,1.16,0.18,1.16,0.18s0.25,0.14,0.36,0.43
			c0.11,0.29,2.68,4.14,5.56,4.54c3.25,0.47,5.45-0.95,5.45-0.95s0.53-0.63,0.86-0.35c0.33,0.28,0.86,0.71,0.86,0.71
			s0.33,0.14-0.21,0.43c-0.54,0.29-2.39,1.78-5.92,1.78c-3.53,0-6.42-3.42-7.1-4.36c-0.28-0.29-0.25-0.44-0.9-0.4
			c-0.66,0.04-0.58,0.04-1.09,0.54c-0.5,0.5-2.45,1.73-4.25,1.62c-2.73-0.12-5.41-0.25-5.41-0.25s-2.63-1.73-3.64-3.14
			c-0.29-0.39-0.55-0.39-1.09-0.36c-0.75,0.03-0.98,0-1.3,0.39c-0.41,0.51-2.05,2.32-3.81,3.11c-1.11,0.14-5.1,0.31-6.14,0.46
			c-0.76-0.17-2.78-1.08-3.75-2.12c-0.18-0.21-0.24-0.25-0.46-0.25c-0.22,0-0.41-0.04-0.62,0c-0.21,0.04-2.32,2.8-3.75,3.78
			c-0.69,0.21-2.95,0.97-3.67,1.27c-0.76-0.03-3.17-0.02-6.13-1.98C353.8,63.15,353.95,62.86,353.95,62.86"/>
		<path id="path57" inkscape:connector-curvature="0" class="st1" d="M369.65,53.8c0,0,0.5,0.46,0.62,0.84
			c0.12,0.38,0.1,0.34,0.38,0.32c0.28-0.02,1.22-0.02,1.22-0.02s0.42-0.52,0.46-0.84c0.04-0.32-0.1-0.94,0.26-0.94
			c0.36,0,0.44,0.32,0.42,0.66c-0.02,0.34-0.26,0.74,0.06,0.78c0.32,0.04,0.48-0.14,0.7-0.96c0.22-0.82,0.14-1.58-0.72-2.06
			c-0.86-0.48-1.02-0.38-1.53-0.28c-0.5,0.1-1.08,1.16-1.34,1.56C369.93,53.26,369.53,53.7,369.65,53.8"/>
		<path id="path59" inkscape:connector-curvature="0" class="st1" d="M370.11,57.15c0,0,0.43-1.15,0.48-1.52
			c0.04-0.24,0.16-0.14,0.4-0.16c0.24-0.02,1.08-0.12,1.08-0.12s0.26,0.22,0.3,0.44c0.04,0.22,0.28,0.36,0.54,0.26
			c0.26-0.1,0.1-0.66,0.08-0.84c-0.02-0.18,0.26-0.36,0.5-0.26c0.24,0.1,0.38,0.88,0.36,1.45c-0.02,0.56-0.24,1.26-0.96,1.53
			C372.18,58.17,371.16,58.08,370.11,57.15"/>
		<path id="path61" inkscape:connector-curvature="0" class="st1" d="M367.65,53.64c0.65-0.02,2.15,0.05,2.23,2.17
			c0.05,1.64-1.11,2.2-2.05,2.2c-0.95,0-2.13-0.56-2.13-2.25C365.7,54.08,366.88,53.66,367.65,53.64"/>
		<path id="path63" inkscape:connector-curvature="0" class="st1" d="M383.7,52.36c0.65-0.02,2.15,0.05,2.23,2.17
			c0.05,1.64-1.1,2.2-2.05,2.2c-0.94,0-2.13-0.56-2.13-2.24C381.75,52.8,382.93,52.38,383.7,52.36"/>
		<path id="path65" inkscape:connector-curvature="0" class="st1" d="M377.76,54.1c0,0-0.5-0.74-0.38-1.63
			c0.12-0.88,0.44-1.16,0.82-1.34c0.38-0.18,1.22-0.14,1.44,0c0.22,0.14,0.8,1.16,0.92,1.27c0.12,0.1,0.68,0.64,0.68,0.64
			s0.22,0.12,0.04,0.56c-0.18,0.44-0.2,0.56-0.2,0.56s-0.06,0.1-0.52-0.02c-0.46-0.12-1.01-0.18-1.01-0.18s-0.4-0.08-0.44-0.4
			c-0.04-0.32-0.14-0.66-0.32-0.82c-0.18-0.16-0.58-0.08-0.54,0.12c0.04,0.2,0.3,0.74,0.32,0.9c0.02,0.16-0.14,0.28-0.26,0.28
			C378.2,54.04,377.86,54.1,377.76,54.1"/>
		<path id="path67" inkscape:connector-curvature="0" class="st1" d="M377.94,54.7c0,0-0.28,0.8-0.22,1.46
			c0.06,0.66,0.58,1.58,1.53,1.77c1.37,0.29,1.35-0.12,1.79-0.4c0.4-0.26,0.78-0.74,0.78-0.74s0.12-0.18-0.08-0.42
			c-0.2-0.24-0.46-1.06-0.54-1.34c-0.08-0.28-0.21-0.29-0.54-0.32c-0.38-0.04-0.94-0.06-0.94-0.06s-0.16,0.26-0.2,0.58
			c-0.04,0.32-0.08,0.64-0.36,0.66c-0.28,0.02-0.34-0.26-0.26-0.44c0.08-0.18,0.12-0.72,0.08-0.8c-0.04-0.08-0.3-0.2-0.56-0.12
			C378.14,54.6,377.94,54.7,377.94,54.7"/>
		<path id="path69" inkscape:connector-curvature="0" class="st1" d="M381.88,52.68c-0.3,0.22-1.13-0.8-1.22-1.24
			c-0.08-0.44-0.21-1.3,0.06-1.83c0.27-0.53,0.69-0.89,1.13-0.99c0.43-0.1,0.82-0.15,1.12-0.02c0.3,0.13,0.62,0.23,0.62,0.58
			c0,0.35-0.03,0.72-0.03,0.72s-0.1,0.24-0.29,0.08c-0.19-0.16-0.64-0.29-0.64-0.13c0,0.16,0,0.62,0.29,0.67
			c0.29,0.05,0.45-0.14,0.48,0.26c0.03,0.4-0.08,1.1-0.08,1.1S382.62,51.97,381.88,52.68"/>
		<path id="path71" inkscape:connector-curvature="0" class="st1" d="M383.94,51.82l0.03-1.12c0,0,0.22-0.24,0.43-0.21
			c0.21,0.03,0.5-0.05,0.5-0.05s0.12-0.64-0.18-0.64c-0.3,0-0.44-0.09-0.46-0.46c-0.02-0.37,0.1-0.71,0.48-0.82
			c0.38-0.11,1.06-0.11,1.51,0.37c0.45,0.48,0.78,0.93,0.8,1.17c0.02,0.24-0.14,0.29-0.35,0.56c-0.21,0.27-1.25,1.59-1.25,1.59
			s-0.09,0.18-0.17,0.1C385.1,52.14,384.18,51.84,383.94,51.82"/>
		<path id="path73" inkscape:connector-curvature="0" class="st1" d="M385.86,52.76c0,0,0.54,0.69,0.59,0.93
			c0.05,0.24-0.03,0.31,0.29,0.29c0.32-0.02,1.32-0.02,1.32-0.02s0.21-0.17,0.21-0.38c0-0.21-0.06-0.78,0.32-0.96
			c0.38-0.18,0.48-0.06,0.51,0.48c0.03,0.54-0.09,0.86,0.21,0.83c0.31-0.03,0.7-0.56,0.7-0.88c0-0.32,0.04-1.64-0.54-2.09
			c-0.58-0.45-1.14-0.4-1.47-0.4c-0.32,0-1.21,0.8-1.42,1.12C386.38,52.01,385.73,52.52,385.86,52.76"/>
		<path id="path75" inkscape:connector-curvature="0" class="st1" d="M386.16,56.07c0,0,0.3-0.72,0.35-1.28
			c0.02-0.29,0.16-0.21,0.43-0.21c0.27,0,1.23-0.03,1.23-0.03s0.26,0.21,0.26,0.48c0,0.27,0.22,0.46,0.51,0.3
			c0.29-0.16,0.19-0.8,0.19-0.8s0.1-0.25,0.34-0.22c0.24,0.03,0.43,0.58,0.43,1.12c0,0.54-0.54,1.73-1.56,1.76
			C387.34,57.22,386.36,56.45,386.16,56.07"/>
		<path id="path77" inkscape:connector-curvature="0" class="st1" d="M400.07,53.64c0.65-0.02,2.15,0.05,2.23,2.17
			c0.05,1.64-1.1,2.2-2.05,2.2c-0.94,0-2.12-0.56-2.12-2.25C398.13,54.08,399.31,53.66,400.07,53.64"/>
		<path id="path79" inkscape:connector-curvature="0" class="st1" d="M397.77,57.15c0,0-0.77,1.14-2.01,1.01
			c-1.24-0.13-1.73-1.42-1.7-1.69c0.03-0.27,0.06-0.95,0.28-1.15c0.22-0.2,0.33-0.22,0.49-0.15c0.15,0.07,0.18,0.37,0.15,0.52
			c-0.03,0.15-0.08,0.4,0.17,0.43c0.25,0.03,0.4-0.51,0.4-0.68c0-0.17,0.28-0.04,0.66,0.03c0.38,0.07,1.25,0.13,1.25,0.13
			S397.49,56.82,397.77,57.15"/>
		<path id="path81" inkscape:connector-curvature="0" class="st1" d="M397.62,54.96l-1.55-0.17c0,0-0.34-0.09-0.32-0.5
			c0.02-0.41,0.02-0.96-0.33-0.96c-0.35,0-0.51,0.35-0.48,0.6c0.03,0.25,0.23,0.78-0.15,0.73c-0.38-0.05-0.58-0.63-0.63-1.28
			c-0.05-0.65,0.34-1.67,0.76-1.82c0.42-0.15,1.07-0.17,1.46-0.05c0.38,0.12,1.17,1.08,1.29,1.28c0.12,0.2,0.43,0.5,0.43,0.5
			s0.3,0.43-0.03,0.91C397.74,54.68,397.69,54.72,397.62,54.96"/>
		<path id="path83" inkscape:connector-curvature="0" class="st1" d="M398.78,53.37l-1.24-1.82c0,0-0.27-0.58,0.18-1.11
			c0.45-0.53,0.72-0.73,0.95-0.83c0.23-0.1,0.41-0.09,0.71-0.07c0.3,0.02,0.67,0.29,0.75,0.47c0.08,0.18,0.12,0.74,0.05,0.87
			c-0.07,0.12-0.35,0.1-0.65,0.1c-0.3,0-0.3,0.23-0.15,0.38c0.15,0.15,0.67,0.35,0.8,0.4c0.13,0.05,0.13,1.16,0.08,1.49
			C399.92,53.21,399.01,53.42,398.78,53.37"/>
		<path id="path85" inkscape:connector-curvature="0" class="st1" d="M400.88,53.06l0.05-0.97c0,0,0.04-0.33,0.32-0.33
			c0.28,0,0.58,0.02,0.58-0.38c0-0.4-0.13-0.37-0.38-0.4c-0.25-0.03-0.61,0.16-0.58-0.3c0.03-0.46,0.14-0.75,0.46-0.83
			c0.32-0.08,0.98-0.12,1.28,0c0.3,0.12,0.8,0.72,0.98,1.05c0.18,0.33,0.28,0.98,0.25,1.42c-0.03,0.43-0.43,0.92-0.68,1.19
			c-0.25,0.27-0.48,0.54-0.48,0.54s-0.34,0.33-0.55,0.03c-0.29-0.4-0.68-0.66-0.99-0.81C400.98,53.14,400.88,53.06,400.88,53.06"/>
		<path id="path87" inkscape:connector-curvature="0" class="st1" d="M402.61,54.65l1.57-1.71c0,0,0.32-0.33,1.05-0.28
			c0.74,0.05,1.33,0.45,1.42,0.83c0.08,0.38,0.22,0.93,0.02,1.6c-0.2,0.66-0.32,0.6-0.32,0.6s-0.23,0.26-0.58,0.08
			c-0.35-0.18-0.35-0.4-0.35-0.4s0.41-0.36,0.43-0.61c0.02-0.25-0.1-0.37-0.25-0.42c-0.15-0.05-0.59,0.3-0.71,0.7
			c-0.12,0.4-0.08,0.48-0.48,0.48c-0.4,0-1.41,0.09-1.41,0.09s-0.14,0.04-0.16-0.29C402.82,54.99,402.78,54.79,402.61,54.65"/>
		<path id="path89" inkscape:connector-curvature="0" class="st1" d="M402.04,57.97c0,0,0.6-0.76,0.83-1.55
			c0.1-0.25,0.23-0.22,0.38-0.22c0.15,0,0.98,0.05,0.98,0.05s0.24,0.23,0.22,0.53c-0.02,0.3-0.02,0.63,0.23,0.65
			c0.25,0.02,0.45-0.22,0.45-0.65c0-0.43-0.08-0.6,0.15-0.58c0.23,0.02,0.68,0.14,0.73,0.32c0.05,0.18,0.42,0.87,0,1.8
			c-0.42,0.93-0.82,1.27-1.76,1.17C403.33,59.4,403.05,59.36,402.04,57.97"/>
		<path id="path91" inkscape:connector-curvature="0" class="st1" d="M408.88,56.73c0,0-0.3-1.3,0.3-1.82
			c0.6-0.52,1.02-0.7,1.66-0.62c0.64,0.08,1.73,0.74,2.03,1.33c0.3,0.58,0.34,1,0.34,1s-0.04,0.4-0.28,0.62
			c-0.24,0.22-0.68,0.6-0.78,0.78c-0.1,0.18-0.24,0.28-0.34,0.2c-0.1-0.08-0.96-0.68-1.14-0.74c-0.18-0.06-0.5-0.08-0.42-0.32
			c0.08-0.24,0.26-0.98,0.18-1.1c-0.08-0.12-0.06-0.22-0.3-0.18c-0.24,0.04-0.4,0.44-0.46,0.66c-0.06,0.22-0.1,0.6-0.18,0.56
			C409.4,57.05,408.94,56.85,408.88,56.73"/>
		<path id="path93" inkscape:connector-curvature="0" class="st1" d="M408.68,57.41c0,0-0.62,1.1-0.6,1.91
			c0.02,0.8,0.6,1.43,0.99,1.53c0.38,0.1,0.84,0.1,1.04,0.08c0.2-0.02,1.1-0.22,1.3-0.66c0.2-0.44,0.14-0.6,0.14-0.82
			c0-0.22,0.2-0.66-0.14-0.86c-0.34-0.2-1.06-0.4-1.18-0.44c-0.12-0.04-0.32,0.1-0.4,0.32c-0.08,0.22-0.26,0.24-0.44,0.18
			c-0.18-0.06-0.3-0.32-0.2-0.52C409.28,57.92,409.7,57.43,408.68,57.41"/>
		<path id="path95" inkscape:connector-curvature="0" class="st1" d="M357.91,68.98c0,0-0.68,0.35-1.04-0.29
			c-0.36-0.64-0.24-1.06,0.16-1.36c0.4-0.3,2.19-0.96,2.19-0.96s8.5-3.6,24.22-3.57c18.38,0.04,26.56,4.33,26.56,4.33
			s0.84,0.52,0.56,1.08c-0.26,0.52-0.63,0.98-1.47,0.58c-0.91-0.42-8.76-4.33-25.7-4.23C364.72,64.67,357.91,68.98,357.91,68.98"/>
		<path id="path97" inkscape:connector-curvature="0" class="st1" d="M360.52,76.24c0,0-0.64,0.41-0.9-0.35
			c-0.23-0.67-0.12-0.88,0.24-1.18c0.36-0.3,1.93-0.82,1.93-0.82s7.62-3.74,21.62-3.55c16.38,0.24,24.02,4.25,24.02,4.25
			s0.45,0.54,0.2,1.1c-0.18,0.38-0.67,0.56-1.11,0.41c-1.03-0.34-8.73-3.78-23.12-3.84C371.04,72.13,360.52,76.24,360.52,76.24"/>
		<path id="path99" inkscape:connector-curvature="0" class="st1" d="M399.65,44.42l0.13-0.1l-0.12-0.09
			c-0.67-0.48-1.12-1.26-1.12-2.15c0-0.86,0.42-1.63,1.06-2.11c-1-0.38-1.72-1.34-1.72-2.47c0-0.17,0.02-0.33,0.05-0.49
			c-0.24,0.08-0.51,0.12-0.78,0.12c-1.45,0-2.63-1.17-2.64-2.62c-0.35,0.17-0.75,0.27-1.16,0.27c-1.32,0-2.42-0.97-2.61-2.24
			c-0.45,0.36-1.03,0.58-1.65,0.58c-1.23,0-2.26-0.83-2.55-1.96c-0.13,0.14-0.73,0.78-1.49,1.39c0.46,0.41,0.91,0.97,1.05,1.19
			c0.46,0,4.54-0.01,6.74,1.65c2.2,1.66,4.81,4.07,5.22,9.49c0.05,0.51,0.09,2.99,0.09,2.99s-0.18,0.82,0.05,1
			c0.23,0.18,0.78,0.14,0.78,0.14l0.31-0.31c-0.57-0.49-0.93-1.21-0.93-2.01C398.36,45.72,398.88,44.88,399.65,44.42"/>
		<path id="path101" inkscape:connector-curvature="0" class="st1" d="M416.71,52.22c-0.04,0.01-0.08,0.02-0.12,0.04
			c-0.41,0.23-0.64,0.1-0.96,0.42c0-1.01,0.42-4.08-1.14-6.65c-1.57-2.57-3.35-3.45-5.28-3.81c-1.92-0.36-5.14-0.18-5.14-0.18
			s-0.17-1.01-0.36-1.42c-0.09-0.19-0.12-0.48-0.14-0.74c0.03,0.56,0.99,0.54,1.59,0.54c0.84,0,1.6-0.4,2.08-1.02
			c0.41,0.93,1.34,1.57,2.41,1.57c0.57,0,1.09-0.18,1.52-0.48c0.37,1.02,1.34,1.74,2.48,1.74c0.21,0,0.42-0.03,0.62-0.07
			c-0.12,0.3-0.18,0.62-0.18,0.96c0,1.37,1.05,2.5,2.39,2.63c-0.2,0.38-0.32,0.81-0.32,1.26c0,1.04,0.61,1.95,1.49,2.37
			c-0.64,0.48-1.05,1.24-1.05,2.11C416.6,51.74,416.64,51.99,416.71,52.22"/>
		<path id="path103" inkscape:connector-curvature="0" class="st1" d="M349.76,49.46c0.79-0.46,1.33-1.31,1.33-2.29
			c0-0.52-0.15-1-0.41-1.4c1.34-0.13,2.39-1.26,2.39-2.63c0-0.29-0.05-0.57-0.14-0.84c0.15,0.03,0.31,0.04,0.47,0.04
			c1.26,0,2.32-0.88,2.58-2.07c0.47,0.43,1.1,0.7,1.79,0.7c1.11,0,2.06-0.68,2.45-1.65c0.45,0.8,1.31,1.34,2.3,1.34
			c0.35,0,0.68-0.07,0.98-0.2l0.49,0.09c-0.39,0.45-0.64,1.03-0.65,1.67l-1.97-0.1c0,0,0.41-0.04,0.14-0.04
			c-0.27,0-2.53,0.09-3.3,0.27c-0.77,0.18-2.85,1.14-3.9,2.07c-1.05,0.92-1.74,2.11-2.11,3.8c-0.36,1.7-0.18,4.45-0.18,4.45
			c-0.4-0.1-0.79-0.04-1.12,0.07c0.12-0.3,0.18-0.62,0.18-0.96c0-0.98-0.54-1.84-1.33-2.29"/>
		<path id="path105" inkscape:connector-curvature="0" class="st1" d="M380.97,31.36c-0.29,1.15-1.32,2.01-2.56,2.01
			c-0.64,0-1.23-0.22-1.68-0.6c-0.26,1.19-1.32,2.08-2.58,2.08c-0.46,0-0.9-0.12-1.28-0.33c-0.03,1.44-1.2,2.59-2.64,2.59
			c-0.2,0-0.39-0.02-0.58-0.07c0.04,0.19,0.06,0.38,0.06,0.58c0,1.28-0.91,2.34-2.11,2.59c0.63,0.48,1.03,1.24,1.03,2.09
			c0,0.91-0.46,1.71-1.15,2.18c0.79,0.4,1.34,1.19,1.42,2.12l0.05-1.13c0,0-0.08-5.33,2.85-7.99c2.93-2.66,5.41-3.25,5.41-3.25
			l4.04-0.55c0,0,0.41-0.95,0.82-1.32C381.66,32.1,381.31,31.67,380.97,31.36"/>
		<path id="path107" inkscape:connector-curvature="0" class="st1" d="M368.8,47.31c-0.15,0.82-0.68,1.51-1.41,1.87
			c0,0-0.32,0.04,0.11,0.14c0.43,0.1,0.79-0.05,1.08-0.3c0.29-0.25,0.22-0.54,0.22-0.54l0.08-1.88
			C368.89,46.6,368.8,47.31,368.8,47.31z"/>
		<path id="path109" inkscape:connector-curvature="0" class="st1" d="M351.23,60.3c0,0.82,0.67,1.49,1.49,1.49
			c0.82,0,1.49-0.67,1.49-1.49c0-0.82-0.67-1.49-1.49-1.49C351.9,58.81,351.23,59.48,351.23,60.3"/>
		<path id="path111" inkscape:connector-curvature="0" class="st1" d="M412.94,60.12c0,0.82,0.67,1.49,1.49,1.49
			c0.82,0,1.49-0.67,1.49-1.49c0-0.82-0.67-1.49-1.49-1.49C413.6,58.63,412.94,59.3,412.94,60.12"/>
		<path id="path113" inkscape:connector-curvature="0" class="st1" d="M381.04,44.42c0-0.99,0.6-1.84,1.45-2.22
			c-1.07-0.39-1.83-1.41-1.83-2.62c0-1.22,0.79-2.26,1.88-2.64c-0.91-0.36-1.55-1.25-1.55-2.29c0-0.12,0.01-0.23,0.03-0.34
			c-0.34,0.03-0.58,0.06-0.67,0.1c-0.26,0.13-0.85,1.5-0.92,5.74c-0.07,4.23,0.04,5.88,1.46,7.71c0.11,0.08,0.34-0.76,0.96-1.33
			c0.11-0.03,0.21-0.06,0.31-0.09C381.48,46.02,381.04,45.27,381.04,44.42"/>
		<path id="path115" inkscape:connector-curvature="0" class="st1" d="M386.8,34.29c0,0-0.36-0.01-0.92-0.02
			c0.02,0.13,0.03,0.26,0.03,0.39c0,1.04-0.64,1.93-1.55,2.29c1.09,0.38,1.88,1.42,1.88,2.63c0,1.2-0.76,2.22-1.81,2.61
			c0.86,0.37,1.46,1.23,1.46,2.22c0,0.9-0.5,1.69-1.23,2.11c0.51,0.23,0.98,0.62,1.19,1.14c0.14,0.36,0.5,0.51,0.5,0.51
			s1.5-2.39,1.46-6.97C387.77,36.63,386.8,34.29,386.8,34.29"/>
		<path id="path117" inkscape:connector-curvature="0" class="st1" d="M381.54,48.1c0,0,0.39-1.24,1.66-1.3
			c1.61-0.07,1.98,0.8,1.98,0.8l0.28,0.47c0,0-1.28-0.17-2.05-0.21C382.69,47.8,381.91,48.15,381.54,48.1"/>
		<path id="path119" inkscape:connector-curvature="0" class="st1" d="M395.77,70.02l3.65-1.62l-3.33-1.95l-3.65,1.49
			C392.44,67.94,395.77,70.02,395.77,70.02z M383.61,69.41l3.51-1.91l-3.47-1.69l-3.52,1.77L383.61,69.41z M371.48,69.97l3.41-2.09
			l-3.55-1.5l-3.43,1.95C367.91,68.33,371.48,69.97,371.48,69.97z M358.8,69.21c0,0,9.15-4.28,25.38-4.1
			c16.84,0.19,23.98,3.91,24.1,4.03c0.12,0.12,0.08,0.27-0.06,0.42c-1.01,0.05-3.66,0.16-3.77,0.21c-0.14,0.06,2.37,2.53,2.37,2.53
			s0.26,0.18,0.08,0.46c-0.18,0.28-0.26,0.46-0.32,0.58c-0.06,0.12-0.08,0.24-0.3,0.16c-0.28-0.1-7.49-3.65-22.78-3.65
			c-15.3,0-23.07,3.95-23.07,3.95s-0.22,0.1-0.28-0.38c-0.16-0.36-0.22-0.58-0.22-0.58s-0.04-0.12,0.2-0.3
			c0.24-0.18,2.53-2.35,2.53-2.35s0.19-0.32-0.12-0.36c-0.34-0.04-3.67-0.16-3.67-0.16S358.5,69.35,358.8,69.21"/>
		<path id="path121" inkscape:connector-curvature="0" class="st2" d="M365.03,64.02l2.57-2.62c0,0,0.21-0.42,0.48-0.37
			c0.27,0.05,1.39,0.9,1.76,1.17c0.37,0.27,1.4,0.75,1.4,0.75S366.1,63.53,365.03,64.02"/>
		<path id="path123" inkscape:connector-curvature="0" class="st2" d="M379.96,62.31c0,0,2.61-2.24,2.99-2.62
			c0.38-0.38,0.38-0.27,0.7-0.27c0.32,0,0.95-0.06,1.06,0.53c0.1,0.52,2.52,2.3,2.52,2.3S380.22,62.26,379.96,62.31"/>
		<path id="path125" inkscape:connector-curvature="0" class="st2" d="M396.38,62.84c0,0,2.1-1.29,2.47-1.6
			c0.37-0.32,0.21-0.26,0.53-0.21c0.32,0.05,1.22,1.45,1.65,1.77c0.43,0.32,1.29,1.17,1.29,1.17S397.55,63.06,396.38,62.84"/>
		<path id="path127" inkscape:connector-curvature="0" class="st2" d="M352.49,50.88c0,0-0.01,2.21,0.02,2.47
			c0.03,0.26,0.86,1.7,1,2.29c0.14,0.59,0.03,0.61,0.03,0.61s0.22-1.04,0.75-1.48c0.53-0.44,0.93-0.73,1.68-0.88
			c0.75-0.15,1.86,0.03,2.18,0.38c0.32,0.35,1.05,1.34,0.79,2.67c0.56,0.64,0.9,0.97,0.99,1.94c0.09,0.96-0.12,1.47-0.7,2.09
			c-0.58,0.61-2.03,1.16-3.2,0.41c-0.41-0.12-0.44-0.15-0.44-0.15s-0.46,0.49-0.14,0.67c0.32,0.18,2.09,1.5,4.25,1.42
			c2.17-0.09,3.46-0.71,6.1-3.76c-0.06-0.2-0.14-0.22-0.35-0.11c-0.21,0.11-1.35,0.79-2.2,0.52c-0.66-0.21-2.39-0.24-1.76-3.55
			c-0.79-0.99-0.87-1.95-0.76-2.65c0.11-0.7,0.42-1.55,1.33-1.64c0.9-0.09,1.66,0.18,1.66,0.18s-0.49-2.15,1.32-2.88
			c-0.88-0.58-1.56-0.94-1.7-2.32c-0.14-1.37,0.94-2.17,0.94-2.17s-0.05-0.34-0.32-0.29c-0.27,0.05-2.19,0.01-4.11,2.46
			c-1.4,1.79-3.45,1.79-3.45,1.79s-1.42,0.14-3.12,1.38C352.54,50.8,352.49,50.88,352.49,50.88"/>
		<path id="path129" inkscape:connector-curvature="0" class="st2" d="M369.4,44.11c0,0-0.19,1.21-0.24,2.56
			c-0.05,1.36-0.16,1.89,0.16,2.24c0.32,0.35,1.4,0.51,1.89,1.75c0.16,0.14,0.37,0.05,0.67-0.03c0.3-0.08,1.62,0.1,2.21,1.19
			c0.59,1.08-0.03,2.32-0.19,2.65c0.08,0.17-0.01,0.16,0.1,0.46c0.16,0.42,0.33,0.26,0.33,1.58c0.01,0.69-0.53,2.09-2.24,2.01
			c-1.31-0.06-1.66-0.5-1.66-0.5l-0.56-0.32c0,0-0.22,0.03-0.3,0.17c-0.08,0.14-0.23,0.33,0.14,0.63c0.37,0.3,1.49,2.47,5.39,2.49
			c3.26,0.03,4.98-2.48,4.98-2.48s-0.96-0.01-1.53-0.22c-0.57-0.21-1.43-1.26-1.38-2.13c0.05-0.86,0.16-1.14,0.32-1.68
			c-0.38-0.43-0.64-1.16-0.64-2.02c0-0.86,0.32-1.32,0.8-1.69c0.48-0.38,0.99-0.27,1.26-0.3c0.27-0.03,0.77,0.15,1.19,0.4
			c-0.02-0.43-0.24-1.49,0.67-2.32c-0.76-0.61-1.72-2.23-1.88-4.3c-0.16-2.08-0.11-3.77-0.11-3.77s-0.91-0.22-1.86,0.4
			c-0.94,0.62-2.14,1.83-2.73,2.13c-0.59,0.3-1.97,1.05-3.61,1.08C369.46,44.06,369.4,44.11,369.4,44.11"/>
		<path id="path131" inkscape:connector-curvature="0" class="st2" d="M388.46,40.42c0,0,0.17,5.73-1.58,7.9
			c-0.05,0.23,0.39,1.02,0.46,1.14c0.07,0.12,0.16,0.59,0.29,0.59c0.13,0,1.35-0.04,1.9,0.3c0.55,0.34,0.91,1.05,0.96,2.13
			c0.05,1.07-0.44,1.57-0.44,1.57s0.37,0.63,0.37,1.02c0,0.39-0.2,1.5-0.59,1.86c-0.39,0.36-0.76,0.63-1.7,0.68
			c-0.93,0.05-1.78-0.59-1.78-0.59l-0.32-0.06c0,0,2.13,3.87,6.21,3.92c4.07,0.05,5.88-2.79,5.88-2.79s-0.07-0.41-0.32-0.25
			c-0.25,0.16-1.2,0.82-1.74,0.82c-0.53,0-1.56,0.02-2.34-1.3c-0.34-0.55-0.16-1.85-0.16-1.85s0.21-0.52,0.46-0.73
			c-0.18-0.25-0.4-1.21-0.37-1.86c0.03-0.64,0.17-1.27,0.98-1.78c0.57-0.36,1.38-0.28,1.38-0.28l0.95,0.22c0,0-0.11-0.8,1.03-1.65
			c-0.32-0.3-0.6-0.29-0.67-0.77c-0.07-0.48,0-2.44,0-2.9s-0.07-1.62-0.39-1.72c-0.37-0.04-2.02,0.06-2.95-0.54
			c-0.93-0.6-3.35-2.37-3.72-2.65C389.92,40.59,388.62,40.45,388.46,40.42"/>
		<path id="path133" inkscape:connector-curvature="0" class="st2" d="M402.97,44.94c0,0,1.49,2.75-0.4,3.9
			c-0.33,0.09-0.5,0.38-0.5,0.38s1.03-0.17,1.68,0.83c0.66,1,0.56,1.69,0.54,2.13c0.35-0.03,1.59-0.14,2.12,0.18
			c0.53,0.32,1.03,1.17,1.03,1.92c0,0.74-0.8,2.02-0.8,2.02s0.18,0.99,0.12,1.63c-0.02,0.37-0.46,1.36-1.33,1.87
			c-0.86,0.5-2.28,0.17-2.82-0.27c-0.53-0.44-1.03-1.18-1.03-1.18s-0.35-0.02-0.29,0.21c0.06,0.23,0.06,0.56,1.09,1.71
			c1.03,1.15,1.91,2.76,4.8,2.87c2.89,0.11,4.61-1.24,4.61-1.24s0.2-0.47,0.06-0.65c-0.14-0.18-0.26-0.27-0.41-0.18
			c-0.15,0.09-0.84,0.51-1.69,0.45c-1.5-0.11-2.01-0.75-2.17-1.54c-0.14-0.7-0.02-1.59,0.1-2.02c0.2-0.7,0.7-0.86,0.7-0.86
			s-0.5-1.84,0.59-2.75c1.09-0.91,2.25-0.41,2.25-0.41s0.97,0.18,1.3,0.53c0.33,0.35,0.82,0.76,1.01,1.45
			c0.18,0.68,0.12,0.65,0.12,0.65s0.3-0.29,0.33-0.47c0.03-0.18-0.1-1.45,0.11-1.96c0.21-0.5,0.56-0.38,0.65-1.56
			c0.09-1.19,0.07-1.86-0.2-2.04c-0.27-0.18-2.57-1.56-3.93-1.84c-1.37-0.27-1.73,0.01-2.67-0.94c-0.94-0.95-1.51-2.31-3.61-2.84
			C403.21,44.71,402.97,44.94,402.97,44.94"/>
		<polygon id="polygon135" class="st0" points="371.49,69.38 368.84,68.24 371.29,66.84 373.96,67.88 		"/>
		<polygon id="polygon137" class="st0" points="395.52,69.45 393.1,67.97 395.7,66.9 398.21,68.28 		"/>
		<path id="path139" inkscape:connector-curvature="0" class="st2" d="M358.89,70.09c0,0,0.14,0.84,0,1.2
			c-0.02,0.18,0.14,0.34,0.14,0.34c0.1,0.12,0.68,0.5,0.72,0.6c0.24-0.14,2.15-2.07,2.15-2.07S359.41,70.05,358.89,70.09"/>
		<polygon id="polygon141" class="st2" points="383.64,68.82 381.06,67.55 383.58,66.28 386.19,67.46 		"/>
		<path id="path143" inkscape:connector-curvature="0" class="st2" d="M405.13,70.05l2.21,2.09c0,0,0.38-0.34,0.7-0.56
			c0.32-0.22,0.58-0.24,0.42-0.76c-0.16-0.52-0.2-0.86-0.2-0.86S405.13,70.05,405.13,70.05z"/>
		<path id="path145" inkscape:connector-curvature="0" class="st3" d="M420.51,50.83c0-0.59-0.48-1.06-1.06-1.06
			c-0.58,0-1.06,0.47-1.06,1.06c0,0.58,0.47,1.06,1.06,1.06C420.03,51.89,420.51,51.41,420.51,50.83"/>
		<path id="path147" inkscape:connector-curvature="0" class="st3" d="M420.07,46.4c0-0.58-0.48-1.06-1.06-1.06
			c-0.58,0-1.06,0.48-1.06,1.06c0,0.58,0.47,1.06,1.06,1.06C419.6,47.46,420.07,46.98,420.07,46.4"/>
		<path id="path149" inkscape:connector-curvature="0" class="st3" d="M418.1,42.41c0-0.58-0.47-1.06-1.06-1.06
			c-0.58,0-1.06,0.48-1.06,1.06c0,0.59,0.47,1.06,1.06,1.06C417.63,43.47,418.1,42.99,418.1,42.41"/>
		<path id="path151" inkscape:connector-curvature="0" class="st3" d="M414.64,38.95c0-0.58-0.48-1.06-1.06-1.06
			c-0.59,0-1.06,0.47-1.06,1.06c0,0.58,0.47,1.06,1.06,1.06C414.16,40.01,414.64,39.53,414.64,38.95"/>
		<path id="path153" inkscape:connector-curvature="0" class="st3" d="M410.55,37.69c0-0.58-0.47-1.06-1.06-1.06
			c-0.58,0-1.06,0.48-1.06,1.06c0,0.59,0.47,1.06,1.06,1.06C410.07,38.76,410.55,38.28,410.55,37.69"/>
		<path id="path155" inkscape:connector-curvature="0" class="st3" d="M405.98,37.29c0-0.59-0.47-1.06-1.06-1.06
			c-0.59,0-1.06,0.47-1.06,1.06c0,0.58,0.47,1.06,1.06,1.06S405.98,37.87,405.98,37.29"/>
		<path id="path157" inkscape:connector-curvature="0" class="st3" d="M402.27,41.66c0-0.58-0.48-1.06-1.06-1.06
			c-0.58,0-1.06,0.48-1.06,1.06c0,0.58,0.47,1.06,1.06,1.06C401.8,42.72,402.27,42.24,402.27,41.66"/>
		<path id="path159" inkscape:connector-curvature="0" class="st3" d="M401.87,46.46c0-0.58-0.48-1.06-1.06-1.06
			c-0.59,0-1.06,0.48-1.06,1.06s0.47,1.06,1.06,1.06C401.39,47.52,401.87,47.04,401.87,46.46"/>
		<path id="path161" inkscape:connector-curvature="0" class="st3" d="M401.62,36.86c0-0.58-0.47-1.06-1.06-1.06
			s-1.06,0.48-1.06,1.06c0,0.59,0.47,1.06,1.06,1.06S401.62,37.44,401.62,36.86"/>
		<path id="path163" inkscape:connector-curvature="0" class="st3" d="M398.31,34c0-0.59-0.47-1.06-1.06-1.06
			c-0.58,0-1.06,0.47-1.06,1.06c0,0.58,0.47,1.06,1.06,1.06C397.84,35.06,398.31,34.59,398.31,34"/>
		<path id="path165" inkscape:connector-curvature="0" class="st3" d="M394.65,31.61c0-0.58-0.47-1.06-1.06-1.06
			c-0.58,0-1.06,0.48-1.06,1.06c0,0.59,0.48,1.06,1.06,1.06C394.18,32.67,394.65,32.2,394.65,31.61"/>
		<path id="path167" inkscape:connector-curvature="0" class="st3" d="M390.38,30.08c0-0.58-0.48-1.06-1.06-1.06
			c-0.58,0-1.06,0.48-1.06,1.06c0,0.58,0.47,1.06,1.06,1.06C389.91,31.13,390.38,30.66,390.38,30.08"/>
		<path id="path169" inkscape:connector-curvature="0" class="st3" d="M379.26,29.93c0-0.58-0.47-1.06-1.06-1.06
			c-0.58,0-1.06,0.48-1.06,1.06s0.48,1.06,1.06,1.06C378.78,30.99,379.26,30.51,379.26,29.93"/>
		<path id="path171" inkscape:connector-curvature="0" class="st3" d="M374.6,31.53c0-0.58-0.47-1.06-1.06-1.06
			c-0.58,0-1.06,0.47-1.06,1.06c0,0.58,0.47,1.06,1.06,1.06C374.13,32.59,374.6,32.11,374.6,31.53"/>
		<path id="path173" inkscape:connector-curvature="0" class="st3" d="M370.81,33.76c0-0.58-0.47-1.06-1.06-1.06
			c-0.59,0-1.06,0.48-1.06,1.06c0,0.58,0.47,1.06,1.06,1.06C370.34,34.82,370.81,34.34,370.81,33.76"/>
		<path id="path175" inkscape:connector-curvature="0" class="st3" d="M367.68,36.89c0-0.59-0.47-1.06-1.06-1.06
			c-0.59,0-1.06,0.47-1.06,1.06c0,0.58,0.47,1.06,1.06,1.06C367.2,37.95,367.68,37.48,367.68,36.89"/>
		<path id="path177" inkscape:connector-curvature="0" class="st3" d="M363.38,37.19c0-0.58-0.47-1.06-1.06-1.06
			c-0.58,0-1.06,0.48-1.06,1.06s0.47,1.06,1.06,1.06C362.9,38.25,363.38,37.77,363.38,37.19"/>
		<path id="path179" inkscape:connector-curvature="0" class="st3" d="M358.59,37.46c0-0.58-0.47-1.06-1.06-1.06
			c-0.59,0-1.06,0.47-1.06,1.06c0,0.59,0.47,1.06,1.06,1.06C358.12,38.52,358.59,38.05,358.59,37.46"/>
		<path id="path181" inkscape:connector-curvature="0" class="st3" d="M367.39,42.07c0-0.58-0.48-1.06-1.06-1.06
			c-0.58,0-1.06,0.48-1.06,1.06c0,0.59,0.47,1.06,1.06,1.06C366.91,43.13,367.39,42.66,367.39,42.07"/>
		<path id="path183" inkscape:connector-curvature="0" class="st3" d="M367.39,46.48c0-0.59-0.48-1.06-1.06-1.06
			c-0.58,0-1.06,0.47-1.06,1.06c0,0.58,0.47,1.06,1.06,1.06C366.91,47.54,367.39,47.06,367.39,46.48"/>
		<path id="path185" inkscape:connector-curvature="0" class="st3" d="M382.01,31.69c0,0,0.66-0.73,1.37-0.74
			c0.75-0.01,1.47,0.68,1.47,0.68s-0.26,0.52-1.39,0.55C382.31,32.21,382.01,31.69,382.01,31.69"/>
		<path id="path187" inkscape:connector-curvature="0" class="st3" d="M382.31,26.95v1.78c0,0-0.23,0.36-1.63,1.01
			C380.72,29.13,380.69,27.28,382.31,26.95"/>
		<path id="path189" inkscape:connector-curvature="0" class="st3" d="M384.56,26.95v1.73c0,0,0.23,0.41,1.62,1.06
			C386.16,29.13,386.18,27.28,384.56,26.95"/>
		<path id="path191" inkscape:connector-curvature="0" class="st3" d="M385.39,34.64c0-1.08-0.88-1.96-1.96-1.96
			c-1.08,0-1.96,0.88-1.96,1.96c0,1.09,0.88,1.96,1.96,1.96C384.51,36.6,385.39,35.72,385.39,34.64"/>
		<path id="path193" inkscape:connector-curvature="0" class="st3" d="M385.33,44.43c0-1.05-0.85-1.9-1.9-1.9
			c-1.05,0-1.9,0.85-1.9,1.9c0,1.05,0.85,1.9,1.9,1.9C384.48,46.33,385.33,45.48,385.33,44.43"/>
		<path id="path195" inkscape:connector-curvature="0" class="st3" d="M385.66,39.56c0-1.23-1-2.23-2.23-2.23
			c-1.23,0-2.23,1-2.23,2.23c0,1.23,1,2.23,2.23,2.23C384.66,41.79,385.66,40.79,385.66,39.56"/>
		<path id="path197" inkscape:connector-curvature="0" class="st1" d="M346.34,56.73c0,0,1.48-1.88,2.5-2.57
			c1.01-0.68,1.61-1.03,2.25-0.89c0.63,0.14,1.39,1.1,1.6,1.77c0.21,0.67,0.26,1.76,0.26,1.76s0.08,0.22-0.31,0.36
			c-0.39,0.14-0.68,0.13-1.14,0.37c-0.46,0.24-0.53,0.33-0.53,0.33s-0.16-1.75-0.31-1.89c-0.15-0.14-0.2-0.09-0.44,0.1
			c-0.24,0.19-1.52,1.79-1.93,2.06c-0.41,0.27-1.09,0.88-1.53,0.43C346.31,58.12,346.17,57.07,346.34,56.73"/>
		<path id="path199" inkscape:connector-curvature="0" class="st3" d="M354.09,38.77c0-0.58-0.47-1.06-1.06-1.06
			c-0.58,0-1.06,0.48-1.06,1.06c0,0.59,0.47,1.06,1.06,1.06C353.62,39.83,354.09,39.36,354.09,38.77"/>
		<path id="path201" inkscape:connector-curvature="0" class="st3" d="M350.72,42.53c0-0.58-0.48-1.06-1.06-1.06
			c-0.59,0-1.06,0.48-1.06,1.06s0.47,1.06,1.06,1.06C350.25,43.59,350.72,43.11,350.72,42.53"/>
		<path id="path203" inkscape:connector-curvature="0" class="st3" d="M348.83,46.48c0-0.58-0.47-1.06-1.06-1.06
			c-0.58,0-1.06,0.48-1.06,1.06s0.47,1.06,1.06,1.06C348.36,47.54,348.83,47.07,348.83,46.48"/>
		<path id="path205" inkscape:connector-curvature="0" class="st3" d="M348.43,51.38c0-0.58-0.48-1.06-1.06-1.06
			c-0.58,0-1.06,0.48-1.06,1.06c0,0.59,0.47,1.06,1.06,1.06C347.95,52.44,348.43,51.97,348.43,51.38"/>
	</g>
</g>
</svg>
