<svg xmlns="http://www.w3.org/2000/svg" width="180" height="278.47" viewBox="0 0 180 278.47"><title>Cadiz CF logo - Brandlogos.net</title><path d="M486.31,520.7l-.09-1.31c-.26.52-.35,1,.09,1.31" transform="translate(-426 -386.77)" style="fill:#ffdf00"/><path d="M487,524.79c-.17-.52-.78-.61-1.3-.7-.43.52.52.44.43,1,.35,0,.78.61,1,0l-.17-.26Z" transform="translate(-426 -386.77)" style="fill:#ffdf00"/><polygon points="61.09 139.51 60.65 140.12 60.83 140.12 61.09 139.51" style="fill:#ffdf00"/><path d="M490.11,528.89c-.34-.87.09-2.26-1.3-2.53.78,1,.61,1.74,1.3,2.53" transform="translate(-426 -386.77)" style="fill:#ffdf00"/><path d="M488,527.93h-.26v.78c.35-.17.17-.52.26-.78" transform="translate(-426 -386.77)" style="fill:#ffdf00"/><path d="M489.16,531.33c-.43-.35,0-1-.52-1.22.09.43.17,1,.52,1.22" transform="translate(-426 -386.77)" style="fill:#ffdf00"/><path d="M491.41,531.59c-.09-.26-.35-.17-.61-.17-.17.44.26.61.61.52v-.35Z" transform="translate(-426 -386.77)" style="fill:#ffdf00"/><path d="M501.36,517.74c.09-.7-.78-1.13-1.3-1.48-.69.78-1.82,1-2.33,1.57-1,.26-1.21,1.48-1.82,2.18-1.12,1-2.51-.26-3.37,1-.26.09-.78.26-1-.09s.26-.52,0-1c1.13-1,2.08-.87,3.46-.87,0-.52.69-1.39.87-1.92L494,518.35l-1.73-.09c-.52.17-.26.7-.6,1-.43.52-1-.17-1.3-.35a3.74,3.74,0,0,1,1.38-2.09c-.52.09-.78.87-1.12.61-.43,1-1.12,1.66-.69,2.61-.26.78,1.12,1.31,1.3,2a6.77,6.77,0,0,1-3.72-.35l.78.7c-1.47,1,.69,1.48.09,2.61.52-.26,1,.17,1.3.09,1.73.78,1.82,3.22,1.82,5,.69.78,1.47-.35,2-.78a4.64,4.64,0,0,1,.86,1c-.09,0-.17.26-.35.17V531a10.79,10.79,0,0,1,1.38.35c.86-.78.52-1.83.26-2.79.17-.78,0-2.53,1.47-2.79,1.21-.61.35-1.92.78-3a.88.88,0,0,1-.43-1c.26-.26.52-.52,1-.43.86-.26.43-1,.26-1.66-1,.35-1.21,1.57-1.64,2.18-.26-.35-1,.09-1-.61a3.93,3.93,0,0,1,1.56-2.61c.69.09,1.56-.52,2.08,0l.6.61c-.69,2.44,1.82,2.61,2.85,4.35l-.35.26c-1.13.78-1.12,2.35-2.25,3.22-1-.87-.09-1.83-1-2.79-.78,0-.26.78-.43,1-.52.78.43,1,1,1.48a1,1,0,0,1-.26.7c-.43.7-1.21,0-1.73-.18l.43,1.74c.17.17.69.09.6.52-.43.7-1,1.31-1.64.44a10.64,10.64,0,0,0-.43,2.18c1.21,1.13-.87,1.31-1.13,2.44a23.38,23.38,0,0,1,3.37,3.14c.69-.44.35-1.22.43-1.83-.26-1.13-2.25-3.14-.43-3.92.61.17,1,1,1.47,1.13v-.17c.61-1.48-.69-2.88.09-4,.69-.52,1.3.43,1.38,1,.35.44-.26,1.13.52,1.13.17-.7-.52-1.22.17-1.83-.6-.52.26-1,.35-1.74.35-.35,1,0,1.21.35,0,.09-.09.17-.17.09l.17.26c-.69,1.65.09,2.79.17,4.35-.69.7-1.56-.26-2.25-.09a10.32,10.32,0,0,0,.86,3.92c-.69.7-1.21-.78-1.9-.61.34.52.17,1.22.52,1.66,1,1.83,1,5.4,3.29,5.4.26.44,1.38.26.78,1.13-.26.35-1.12.61-1.21.17-1-.09-.09,1.31-1,1.48l.69.7-.78,1.22a4.61,4.61,0,0,0,3.72-2.09,27.68,27.68,0,0,1-.52-3.83,2.77,2.77,0,0,1-1.12-1.31c0-.35-.09-1,.35-1.31-.35-1.31-1.64-2.18-1.73-3.48.69-.26,1.47.7,2.16.78-1.21-2.53.43-4.36.52-7-.78-1.13.26-2.27-.6-3.4,0-.43.6-.7,1-.52a13.25,13.25,0,0,1,1,3.14,2.6,2.6,0,0,1,.69-1.74c.17.09.26.35.43.35.17-.26.43,0,.61.17.17.52-.34.7-.26,1.13a9.59,9.59,0,0,0-2.25,5.84c1.47-.17,1.73-1.92,3-2.44-.69-2,.26-4.35-.78-6.18a4.44,4.44,0,0,1-.17-2.35c-.43-1.39,0-2.87,0-4.53-1.73-1.31-3.63-.26-5.19-.17.87.44.61,1.31.87,1.91-.09.52-.69,1.39.09,1.74.78.87-.43,1.31-1,1.39-.35-.35-.09-1-.61-1.13a2.24,2.24,0,0,1,.09-2.09c-.43-1.48-2.07-1.57-2.59-2.7" transform="translate(-426 -386.77)" style="fill:#ffdf00"/><path d="M533.71,501.28a2.46,2.46,0,0,0-2.08,0,5.6,5.6,0,0,0-4.85,2.44c.26.26-.08.43-.17.7,1-.7,2.34,1.57,2.6-.26.78-.26,1,.78,1.56.78.09.78.69,1.57-.09,2.18-1-.61-1.12.87-2.16.35-.87,1.13-1.82-1-2.6.18-.26.26-.09.61.17.78l.17-.26.69.7c-.61.26-.17,1-1,.78a1.85,1.85,0,0,1-1.64-1.66c-1.47,1.48-.43,3.66,0,4.88l1.3-1.13a3.49,3.49,0,0,1,2.51.09c-.17,2,2,2.61,2.68,4.18a9.5,9.5,0,0,0,1,2.44,4,4,0,0,0,2.42-.43c.69-1.31-1.3-1-1.47-2,.35-1.57,1.64-.09,2.34,0,1.47-.35.26-1.48.43-2.35.43-.87-.35-1.65-.09-2.53a6.86,6.86,0,0,1,2.25-1.13c-1.47-2,.52-3.57,1.38-5.05.09-.52-.86-.44-.43-1-1.21-.7-1.9-1.83-3.55-2.18,0,.35-.78.52-.17.87.52.78,1.21,1.83.61,2.7A3.55,3.55,0,0,1,533.8,507c-.86-.26-1.73.7-2.33-.09a3.21,3.21,0,0,0,1-1.65c-.09-1-1.39-.61-2.08-.87-.26-1,.34-1.74.78-2.61a1.52,1.52,0,0,1,1.21.52c-.83,1.5,1.6,1.17,1.73,2.67a2.34,2.34,0,0,0-1.29-2.23l1-1.48Z" transform="translate(-426 -386.77)" style="fill:#ffdf00"/><path d="M539.76,507.9a1.08,1.08,0,0,0,.17-1.39c-.26.79-1.56,1-1.3,1.83l1.12-.44Z" transform="translate(-426 -386.77)" style="fill:#ffdf00"/><path d="M539.94,509.38c-.52.61-.87-.44-1.21-.52.69.35,0,1,.69,1.22.26-.35.78-.17.69-.7Z" transform="translate(-426 -386.77)" style="fill:#ffdf00"/><path d="M537.17,512.16v-.43H537l-.09.61c.17.17,0,.43.09.52v-.57c.06-.05.11-.13.17-.13" transform="translate(-426 -386.77)" style="fill:#ffdf00"/><path d="M539.25,512.69c-.26,0-.78,0-.6.35.26,0,.69-.09.6-.35" transform="translate(-426 -386.77)" style="fill:#ffdf00"/><path d="M526.79,513.12c-1.12-.61-1.38,2-2.33.52.09,1-.26,2.7.26,3.75.52-.52.87-1.22,1.3-1.74,2.59.09-.26,2,.26,3l.69-1.31c.26,0,.86-.26,1.13.26-.61,1.83,1.73,3.83-.43,5.23-.35.61.26,1.13-.43,1.48-.26.09-.69.26-.78-.09-1.64-1.39,1.64-2.27.34-4.09-.17,1.22-1.38,1-1.82,1.92a2.5,2.5,0,0,0-.43,1.83,15.16,15.16,0,0,0-1.9,7.05c.87,1,.52,2.53,1.47,3.4.52.17,1,.87,1.47.7.52-1-.52-.52-.87-1a3.34,3.34,0,0,1-.78-2.79c1-1.13-1.3-1.65-.43-2.7.86-.87,1.56.61,2.16,1.13-.17,1-.69,1.83-.17,2.79.61-.78-.69-2.18.78-2.44s.52,1.74.69,2.53c.43,1.65,2.42,1.74,3.29,3.14,1.38.87,1,2.61,2.08,3.74l.17-.44c.26.17,1,0,1.3.35-.52,1.57-1.38,3.48-.26,5,.52-.43,0-1,.35-1.39.61,0,1.47-.26,1.56.7,1.3.87.26-1.13,1-1.65.43-.17.35.78.86.26,1-1.22-.69-1.83-1.21-2.79-1.47-2.53-2.77-5.49-5.19-7.49l.17-.35c-1.13-1.92.17-3.92.52-5.66,2.16-1,0,1.83,2.16,1.57a4.57,4.57,0,0,1-1.64,2.18c.09.61-.43,1.48.35,2a6.5,6.5,0,0,0,3.46-1,3.81,3.81,0,0,0,.61-2.53c.35-.44,0-1.66,1-1.57.87.17.43.87.6,1.39,1.38-.61,1.21,1.31,1.47,2l.87-1.65a3.36,3.36,0,0,1-.26-2.87c.52.09,1.64-.09,1.38.52a11.13,11.13,0,0,1,1.47-2.53,5.91,5.91,0,0,1,3.55-.7c.17-.78-1-1-1.47-1.48v.35c-1,.7-2.33-.09-3.2,1a2.84,2.84,0,0,1-.87-1.13c-.43,1.65-2.51,2.18-3.29,3.66l-1-1a1.36,1.36,0,0,0,.69-1.31c-.43-.61,0-1.83-.61-2.61.17-.35.35-1.39,1.13-1a1.2,1.2,0,0,1,.43.7l.52-.44c0-.7-.43-1.48,0-2.09.43-.78,1.13,0,1.38.43l-.35-1.57c-.78-.52-.09-2.53-1.64-1.57l.17,1.83c-.43,1.4-1.12,3-2.51,3.48.87.52-.17,1-.52,1.31-1.39.87-2.86,0-4-.78-2.16-1.13-1.13-3.66-2.86-4.79a1.1,1.1,0,0,1-1.73-.17c.17-.09.17-.26.17-.52-.43-.09-.78.09-1.12-.52a1.79,1.79,0,0,1,.69-1.31" transform="translate(-426 -386.77)" style="fill:#ffdf00"/><polygon points="106.41 93.7 106.41 93.87 106.76 93.87 106.41 93.7" style="fill:#e7e7e8"/><path d="M535.61,480.64c-.17-.26-.52-.09-.61.09.26-.09.61.09.61-.09" transform="translate(-426 -386.77)" style="fill:#e7e7e8"/><polygon points="104.16 93.87 103.82 93.87 104.16 94.05 104.16 93.87" style="fill:#e7e7e8"/><path d="M543.22,479.24l-.86-1c-5-.09-10.9.09-15.57-.09a2.18,2.18,0,0,0-1.64,2.53c.26.26.69,1,1.13,1,1,.26,1.3-.44,1.73-1a.73.73,0,0,0-.86-.7l.43.44a5.17,5.17,0,0,1-1,1c-.43-.44-1-1.13-.78-1.74.52-.44.78-1,1.38-1,.69.26,1.47.09,2,.78l10.47-.09a2.19,2.19,0,0,1,1.47-.87c.52.35,1.38.18,1.64,1-.09.52.26,1.57-.61,1.83-.52-.09-1.3-.61-1-1.31a.51.51,0,0,0-.34.09c-.52.52,0,1.22.52,1.48.61-.09,1.3.26,1.81-.26-.09-.61.52-1.22.09-1.92" transform="translate(-426 -386.77)" style="fill:#e7e7e8"/><path d="M500.15,480.81c-.09-.17-.43-.17-.43.09.17,0,.43.09.43-.09" transform="translate(-426 -386.77)" style="fill:#e7e7e8"/><path d="M502.83,480.81c-.09-.26-.26,0-.43,0l.26.17Z" transform="translate(-426 -386.77)" style="fill:#e7e7e8"/><path d="M494.87,480.81h-.52c-.17.35.52.17.52,0" transform="translate(-426 -386.77)" style="fill:#e7e7e8"/><path d="M497.55,480.9c-.17,0-.43-.17-.52,0Z" transform="translate(-426 -386.77)" style="fill:#e7e7e8"/><path d="M538.12,494.31c.52.61,1,1.73,1.89,2.17a1.08,1.08,0,0,1-.24.1c.09.09.17,0,.24-.1.58-.32,0-1,.19-1.47-.43-1.22.52-2.61-.17-3.4-4.41,2.18-10.38,3-15.48,2.88a2.11,2.11,0,0,0,.35,1.39c.43-.17,1-.09,1.3-.44.86.09.26.87.78,1.13l.17-.18c.17-.26-.09-.52-.35-.78.26-.09.43-.52.86-.35.78.26,1.56-.35,2.25-.17a2.23,2.23,0,0,0,.17,2.09l.86-.26.17.7c-.17.61-.78.52-1.3.61-2.33.44-.26-1.31-1.3-2.35-1,.7-.09,2.7-1.73,2.79l-1.39-2.35h-.34c.09,1.13-.69,1.83-.52,3,3.46.09,7.35-1,10.55-1.31.26-.35.35.17.52.09.78-.7,2.07-.26,2.94-.87V497l.86-.09c0-.09.26-.26,0-.35-.61.17-1.64.35-1.38-.52-.17.09-.35-.09-.43.09.17.26.35.52,0,.87-1.38,0-2.6.35-3.72.43a3.89,3.89,0,0,0-.35-2.61c-.43.17.17.44-.17.61-.26.35-.43,0-.69-.09a2.6,2.6,0,0,0,.52,2.18c-.52.17-1.3.52-1.82.09.43-.61.08-1.48-.09-2.09-.17.09-.35.35-.52.35s-.61-.35-.43-.61c1-1,3.11-.61,4.58-1.22.26-.09.43.52.61,0l.26.26a2,2,0,0,1,.09,1.57c1.73,1,.43-1.57,1.56-2.44.43,0,.61.52.69.87" transform="translate(-426 -386.77)" style="fill:#e7e7e8"/><path d="M508,480.11c-.26-.52-.17-1.31-1-1.57-5.28-.44-10.64-.09-16.61.09l-.35.61c-.17.78-.87,1.92.17,2.52a2.22,2.22,0,0,0,2-.26c.17-.35.52-1,.09-1.31-.17,0-.52-.09-.52.09l.17.44c-.35.17-.35.87-.86.7-.35-.17-.43-.52-.69-.78.17-.78.09-1.57,1-1.83.69.61,1.56-.26,1.9.78,2.08.26,5.1-.17,7.35,0,1.47-.26,3.37.61,4.5-.78a2.7,2.7,0,0,1,1.82.44,1.59,1.59,0,0,1-.61,2.18c-.43-.35-1-1-.69-1.31-.78-.09,0,.61-.52.78a1.24,1.24,0,0,0,1.73.87c1,0,.69-1.13,1-1.65" transform="translate(-426 -386.77)" style="fill:#e7e7e8"/><path d="M501.1,494.57a35,35,0,0,1-7.61-2.09c-.26,1.74.09,3.83-.26,5.66.26-.17.87,0,1.3.09a46.1,46.1,0,0,0,9.08,1.57l.09-.78c.43-1.48,2.59-1.65,2-3.48l-2.25-.26a5.25,5.25,0,0,1-2.34-.7" transform="translate(-426 -386.77)" style="fill:#e7e7e8"/><path d="M539,498.48a57.52,57.52,0,0,1-6.2,1.23l1.73.26a42.91,42.91,0,0,1,3.89,2.09l.58.58v-4.16Z" transform="translate(-426 -386.77)" style="fill:#e7e7e8"/><path d="M494.09,506.33v5.87c.21,1,1.82-.16,2.42.83.69.09,1.38.35,2-.35,1-2.7,1.38-4.79,2.25-7.49.78-1.48,2.77-2.09,2.42-4.09a53.63,53.63,0,0,1-9.08-1.57,22.09,22.09,0,0,1,0,2.7v4.09Z" transform="translate(-426 -386.77)" style="fill:#e7e7e8"/><path d="M504.13,517.3v-7.14c-1.73,1.39-2.25,3.49-2.85,5.23,1.21.44,1,2.79,2.85,1.92" transform="translate(-426 -386.77)" style="fill:#e7e7e8"/><path d="M494.09,482.3v8.94c1.23,1,3.16.76,4.15,1.76l.26-.18c2,.26,3.24,1.18,5.24,1.14V482.08c-.26-.12-.63.36-1,.21-1.3-1.39-2.77.87-3.8-.35-.61-.26-1,.52-1.56.44-1.1-.93-2.11,0-3.29-.08" transform="translate(-426 -386.77)" style="fill:#e7e7e8"/><path d="M539,490.49V482a2.92,2.92,0,0,1-1.87-.19c-.78-.26-1.64.61-2.42.09-.87-.78-1.38.7-2.25.17-1-1.19-2.19.52-3.13,0V493c.49.41.9-.06,1.31-.06,3.13-.68,5.59-1,8.36-2.42" transform="translate(-426 -386.77)" style="fill:#e7e7e8"/><path d="M527.11,476.18a2.84,2.84,0,0,0,.37.62l11.59-.09c.68-.38,2.21.49,2.42-.53Z" transform="translate(-426 -386.77)" style="fill:#e7e7e8"/><path d="M506,476.18H491.57c-.08.31.37.66.44.88,4.15.26,8.22-.17,12.37,0,.71-.08,1.57-.09,1.64-.88" transform="translate(-426 -386.77)" style="fill:#e7e7e8"/><path d="M493.33,524.57a5.92,5.92,0,0,1,.55-.48,3.85,3.85,0,0,1,1.26-.67l.22.84a3.82,3.82,0,0,0-1.43.92l-.61-.62Zm37.14-13a5.52,5.52,0,0,1,.72-.1,3.83,3.83,0,0,1,1.42.13l-.27.83a3.82,3.82,0,0,0-1.69,0l-.18-.85Zm-32.83-16.69c.86.35,2.08.35,3,.7a.74.74,0,0,0-.17,1l.09.17.6-.7c-.17,0-.09-.17-.09-.26.26-.26,1,0,1.3.17-1,.61-1.38,1.92-2.34,2.61-.78-1-.09-3.57-1.64-3.14l-.35,1.92h1c-.17.26,0,.7-.43.7l-2-.5c.35,0,.38-.76.78-1.24-.43-.44.35-1-.34-1.39a.5.5,0,0,0-.17.78c-.43.79-1.56.09-1.56,1.13l.35.44c-.35.43-1,.09-1.38-.17L494,497c.86-.17.43-1.13.86-1.57l-.35-1c.61-.7,1.21.44,2,.17.09.61.78.26,1.13.35m6.58,1.74c-.86.7.09,1.57-.61,2.35-.69.09-1.3.35-1.82-.26-.35-.87,1.21-.87.52-1.66-.18-1.39,1.56-.87,1.9-.44m-14-21h16.47v.4h.71c-.7,1.12.62,1.39,1.38,2.23a5.86,5.86,0,0,1,.35,3.22c-.85,1.54-2.36,1.57-3.73,1.49v11.32l.35-.09c.09-.52.34-1.39.61-1.48.86-2,3.29-2.18,4.84-2.61,1.56-.7,1-2.79,1-3.74-1.21-1.48-.69-2.87-1-4.44.09-1.65,1.82-2.35,3-3.22l.17.17c1.13-.87,2.34,0,3.37-.09,1.82.87,2.16,2.44,2.68,3.92,1.21,2.88-3.46,4.7-2,7.4a6.67,6.67,0,0,1,2.85.78c1.38.09,1.9,1.57,2.77,2.35.78.18,1.82-.35,2.16.18a13.56,13.56,0,0,0,1.51-.25V482.91a3.38,3.38,0,0,1-3.5-1.23c-.69-1.48,0-2.79.69-4,.26-.52,1.21-.17,1-1a1.54,1.54,0,0,0-.28-.58h.52v-.4h16.47v.4h.22a1.33,1.33,0,0,0-.24.93c.69-.09,1.13.87,1.64,1.22.17,1.22.61,2.09,0,3.31-.78,1.39-2.25,1.31-3.55,1.31v5.4c.17.09.26-.09.43-.09a1.84,1.84,0,0,1,1.13,1.57c-.78,1-.43,1.92-.78,3-.43,1.65.86,3.92-.78,5.14v6.88a9.51,9.51,0,0,1,.78,2.87c1,2.61-2.16,5.49-.17,7.84.43.7,0,1.74.78,2.09l.69-.61.26.26c.26.09.26-.26.52-.26.86.18,1.82-.87,2.59-1.22.61.09.52,1.22.35,1.83a4.66,4.66,0,0,0,1.82,1.31c-.35,1-1.64,2.27-.08,2.87.07.14.4,2.86-1.21,2.26-1.3-.09-2.6-.35-3.46.78-.43,1.65-1.73,3.48-2.51,5.22l0,6.18c-.49,5.28-2.15,7.24-5,10.34l-1.18.06c.14-.43.43-1,.12-1.34-.69.17-1.56.61-2.34.87-.52-.17-.35-.7-.43-1a9.24,9.24,0,0,1-3.72-1.13c-.26-3-.09-5.66-.26-8.36-.35-.09-.69-.79-1.21-.52a14.69,14.69,0,0,1-2.94,5.49c.78,1.13,2.33.78,3,2-1,.7-.69,1-.35,1.92-1.64.44-3.37-.35-5-.52,1,1,2.59,2,3.46,3.22a4.18,4.18,0,0,1-3.63,1.22c-1.64,1-2-2-3.72-1.13-2-.26-.52-2.61-.78-3.57-.26,0-.52.09-.69-.09-.52.7.35,1.92-.69,2.61l-5.28,2.18-2.94-1.13c-1.12,1.13-2.59,1.22-3.89,1.66-1,0-1.64-1.48-2.86-.78-.61-.87.61-1.57,1-2.35l-2.51-.09c-.78.35-1.3-.7-2,.09.12.28.24.55.37.81H495a9.12,9.12,0,0,1-.49-1c-3.59-6.3-6.19-11.16-9.7-17.52l-.59-5.39c0-.87.17-1.31.17-2.09,1.21-2,1.47-5.23,3.37-6.18.17-.35,1.13-.52,1.82-.7.5-.93,1.87-.74,2.82-1.08V500.77a1.8,1.8,0,0,0-.66-.54c-.26-1.48.78-3.31.43-5.23-.35-.87.61-2-.17-2.7.33-.74-.28-1.41.4-1.92V483a4.2,4.2,0,0,1-3-.28c-1-.87-1-2.61-.78-3.57a3.56,3.56,0,0,1,1.73-1.65c.51-.51-.22-1-.42-1.45h.29v-.4Zm15.79.53H491.57c-.08.31.37.66.44.88,4.15.26,8.22-.17,12.37,0,.71-.08,1.57-.08,1.64-.88m21.08,0a2.91,2.91,0,0,0,.37.62l11.59-.09c.68-.38,2.21.49,2.42-.53ZM539,490.49V482a2.9,2.9,0,0,1-1.88-.19c-.78-.26-1.64.61-2.42.09-.86-.78-1.38.7-2.25.17-1-1.19-2.19.52-3.13,0V493c.49.41.9-.07,1.31-.06,3.13-.68,5.59-1,8.36-2.42m-45-8.19v8.94c1.23,1,3.16.76,4.15,1.76l.26-.18c2,.26,3.24,1.18,5.24,1.14V482.08c-.26-.13-.63.36-1,.21-1.3-1.39-2.77.87-3.81-.35-.61-.26-1,.52-1.56.44-1.1-.93-2.11,0-3.29-.08m23.18,60.17c1.08-1.33-1.34-1-1.39-2.26l-.08,1.91c.43,0,1,.61,1.47.35m-14.44,1c-1.12-1.48-1.56-3.48-2.16-5.05l-.17.26c-.61.78-.78,1.66.26,2.26a.7.7,0,0,1-.17,1.13c-1-.17-.69,1.31-.78,1.92.26,1.22,1.47.17,2.33.52.43-.17,1-.43.69-1m27.94-3.48c.17-1-.86-1.83-1-2.7,0,2.18-.09,4,.09,6.1l1.82.26c.26-1.22-.6-2.52-.87-3.66m-14.62-1.74c.17-.61,1-1.31.09-1.92.17.7-.26,1.22-.09,1.92m-20-1.48a1.62,1.62,0,0,0-1.21-.87c-2.6,3,2.16,3.75,1.12,6.79.35,0,1.3,1,1.56.17a.83.83,0,0,1,.87.26c.26-.44-.09-1,.26-1.48.61-.61-1-1.22-1.12-1.57-.26.78-.69-.09-1,.26-1.3-.26.26-1-.09-1.66l-.61.17a2.08,2.08,0,0,1-.61-1,1.21,1.21,0,0,0,.86-1M511.22,539l-1.64-1.66c-1-.17-.34-2.35-1.64-1.74,0,.44-.35.87,0,1.22a8.92,8.92,0,0,0-.87,3.22c1.56.87.87,3.22,1.47,4.53.69.09,1.3-.52,1.9-.52,1.3-.87,1.9-1.66,1.56-3.31-.26-.61-.26-1.48-.78-1.74m13.84-2.7a4.09,4.09,0,0,1-2.77-2.18c.26.78-.26,1.31-.26,1.92.26.61-.09,1.74-.09,2.35l.17.26a9.81,9.81,0,0,0-.52,4.18c1-.7,2.25,1.22,3.11-.17l-1.64-1.13c-1.21-2.09,1.9-3.14,2-5.23m-14.19.61a21.49,21.49,0,0,1-.52-3c-.69,1-.17,2.09.52,3M493.06,535a3.22,3.22,0,0,1-1.73-1.22c.26.52.35,1.65,1,2.26l.78-1Zm43.51.09-2.16-2.44c-.26.09-.87-.18-.69.35l2.08,2.53c.69,1.65,1.13,3.31,2.86,4.18a5,5,0,0,0,1.12-3.4l-1.65-1a.86.86,0,0,1-1,.43c-.35.09-.52-.43-.6-.69m-40.92-2.61c-.78.44-1.56-.35-2.42-.26-.26.44-1,.52-.52,1s1,.44,1.56.44,1.47-.61,1.38-1.13m-4.24-.87c-.09-.26-.34-.18-.61-.17-.17.44.26.61.61.52v-.35Zm-2.25-.26c-.43-.35,0-1-.52-1.22.09.43.17,1,.52,1.22m49.74-.26-.35-.26c-.86-4.18-.78,1.57-2.6,1.22,0,.61.78,1,1,1.22.43-.09,1,.44,1.47.52l.52-2.7ZM488,527.93h-.26v.78c.35-.17.17-.52.26-.78m2.08,1c-.35-.87.09-2.26-1.3-2.53.78,1,.6,1.74,1.3,2.53m-3.46-2h.17l.26-.61Zm30.27-.78-.26-.52c-.26,2-1.3,3.92-.35,5.83l-.17.18c.26.35.35,1.13.61,1.13,1-1.92.26-4.44.17-6.62M487,524.79c-.17-.52-.78-.61-1.3-.7-.43.52.52.43.43,1,.35,0,.78.61,1,0l-.17-.26Zm13.32-2c-.09-1.22-.86-.44-1.56-.17.6.44.86,0,1.56.17m38.4-.7a3.35,3.35,0,0,0,1.3-1.57,3.28,3.28,0,0,0-1.3,1.57m-3.2-2.61c-1-.26-1.73.35-2.51.17l.26.26c.43.09,1,.78,1.47.09l.17.17c.17-.18.52-.44.6-.7m-49.22,1.22-.09-1.31c-.26.52-.35,1,.09,1.31m38.84-.52c.43-.12,0-.43-.22-.65a.48.48,0,0,0,0-.22c-.07,0,0,.13,0,.22,0,.27-.2.51.22.65m-36.59-.87c-.43.26-1,.26-.87.87.17.35.52.35.69.44.17-.44-.17-.87.17-1.31m26.21,16.37c1.27-2.8-1.1-6.34-.09-9.06l.35-.7a3.47,3.47,0,0,0-.35.7c-.52.44-1.73,2.7-2.25.78.61-1.22,1.56-2.09,1.82-3.57.43.09,1.12.09,1.12.52.26-1.31,1.12-3,.69-4.35-1,.35-1.56-.87-2.07-1.48-.87-.26-2.25-.44-2.94.26a27.6,27.6,0,0,0,.09,6,40,40,0,0,1,.78,5.49c.26.17.86-.52,1.12.17.17.26.52.7,0,1-1.56-.35-1,1.48-1.38,2.26-.35,3.48,3,6.71,1,10.36-1.21,1.22-3.2,1.13-4.07,2.44.61,0,.87-.7,1.3-1s.69.61.86,1c-.35,0-.43.35-.52.61A24.36,24.36,0,0,0,515,545l-.69-.78c.61-.61.26-1.57.35-2.09-.86-1.91.35-4.44.09-6.45m31.75-16.29c-.43-.35-1.73-.87-1.3-1.65-.52.52-1.3,1.13-2,.61-1.13.52-1.56,2-1.73,2.87l.52-.35c1.3,0,1.3-1.74,2.68-1.39.35.52-.09.87.43,1.39l.6-.78.78-.7Zm-59-2c-.78-.35-.69,1.22-1,1.57a1.84,1.84,0,0,0,1-1.57m48.44.7a1.51,1.51,0,0,0,1-1.74l-1.21.87c0,.26-.43,1,.17.87m-13.84,7.57a13.18,13.18,0,0,0,.87-9.41l-1.47,1.48c-2.68.09-1.47,3.66-3.81,4.44.26,2.53.69,4.7,1.12,7.4l.69-.09c.78.7.35,1.39.86,2.09-.35.17-.61.52-1,.52-.69-.17-.61-.52-.69-1.13l-.86,2.44c-1.3,3.22,2,6,.86,9.23-.17.61-.35,1.48.43,1.92l-1,1c-.35,1.31,1.3.43,1.64.78.78.26.78,1.74,1.73,1-.78-.52.17-1,.26-1.48-3-1.57-1.3-5.14-1.12-7.58.52-2.7-.61-5,.69-7.58-.61-1.92.43-3.4.69-5m-20.76-7.92c.09-.7-.78-1.13-1.3-1.48-.69.79-1.82,1-2.34,1.57-1,.26-1.21,1.48-1.82,2.18-1.13,1-2.51-.26-3.37,1-.26.09-.78.26-1-.09s.26-.52,0-1c1.12-1,2.08-.87,3.46-.87,0-.52.69-1.39.87-1.92L494,518.35l-1.73-.09c-.52.17-.26.7-.6,1-.43.52-1-.17-1.3-.35a3.74,3.74,0,0,1,1.39-2.09c-.52.09-.78.87-1.12.61-.43,1-1.12,1.65-.69,2.61-.26.78,1.12,1.31,1.3,2a6.75,6.75,0,0,1-3.72-.35l.78.7c-1.47,1,.69,1.48.09,2.61.52-.26,1,.17,1.3.09,1.73.78,1.82,3.22,1.82,5,.69.78,1.47-.35,2-.78a4.57,4.57,0,0,1,.86,1c-.09,0-.17.26-.35.17V531a10.47,10.47,0,0,1,1.38.35c.87-.78.52-1.83.26-2.79.17-.78,0-2.53,1.47-2.79,1.21-.61.35-1.92.78-3a.88.88,0,0,1-.43-1c.26-.26.52-.52,1-.43.86-.26.43-1,.26-1.66-1,.35-1.21,1.57-1.64,2.18-.26-.35-1,.09-1-.61a3.94,3.94,0,0,1,1.56-2.61c.69.09,1.56-.52,2.08,0l.61.61c-.69,2.44,1.82,2.61,2.85,4.36l-.35.26c-1.13.78-1.12,2.35-2.25,3.22-1-.87-.09-1.83-1-2.79-.78,0-.26.78-.43,1-.52.78.43,1,1,1.48a1,1,0,0,1-.26.7c-.43.7-1.21,0-1.73-.17l.43,1.74c.17.17.69.09.61.52-.43.7-1,1.31-1.64.44a10.8,10.8,0,0,0-.43,2.18c1.21,1.13-.87,1.31-1.13,2.44a23.25,23.25,0,0,1,3.37,3.14c.69-.44.35-1.22.43-1.83-.26-1.13-2.25-3.14-.43-3.92.61.17,1,1,1.47,1.13v-.17c.61-1.48-.69-2.87.09-4,.69-.52,1.3.44,1.38,1,.35.43-.26,1.13.52,1.13.17-.7-.52-1.22.17-1.83-.6-.52.26-1,.35-1.74.35-.35,1,0,1.21.35,0,.09-.09.17-.17.09l.17.26c-.69,1.65.09,2.79.17,4.35-.69.7-1.56-.26-2.25-.09a10.33,10.33,0,0,0,.86,3.92c-.69.7-1.21-.78-1.9-.61.34.52.17,1.22.52,1.66,1,1.83,1,5.4,3.29,5.4.26.44,1.38.26.78,1.13-.26.35-1.12.61-1.21.18-1-.09-.09,1.31-1,1.48l.69.7-.78,1.22a4.61,4.61,0,0,0,3.72-2.09,27.54,27.54,0,0,1-.52-3.83,2.78,2.78,0,0,1-1.12-1.31c0-.35-.09-1,.35-1.31-.35-1.31-1.64-2.18-1.73-3.49.69-.26,1.47.7,2.16.78-1.21-2.53.43-4.35.52-7-.78-1.13.26-2.26-.6-3.4,0-.43.6-.7,1-.52a13.17,13.17,0,0,1,1,3.14,2.59,2.59,0,0,1,.69-1.74c.17.09.26.35.43.35.17-.26.43,0,.61.17.17.52-.34.7-.26,1.13a9.58,9.58,0,0,0-2.25,5.83c1.47-.17,1.73-1.91,3-2.44-.69-2,.26-4.36-.78-6.18a4.43,4.43,0,0,1-.17-2.35c-.43-1.4,0-2.87,0-4.53-1.73-1.31-3.63-.26-5.19-.18.87.44.61,1.31.87,1.92-.09.52-.69,1.39.09,1.74.78.87-.43,1.31-1,1.39-.35-.35-.09-1-.61-1.13a2.24,2.24,0,0,1,.09-2.09c-.43-1.48-2.07-1.57-2.59-2.7m-6.06-3.83c-1-.61-2.16.26-3.37,0-1.13.87-2.77.87-3.89,1.92.09.52,1,.78.69,1.48a11.37,11.37,0,0,0,1.56-1.39c1.13.26,1.82-1.22,2.77-.78.61.52,0,1-.35,1.39l-.17-.09-.35.43,1.3.09c1.38-.52.78-2.17,1.82-3m31.49-.78c-1.12-.61-1.38,2-2.33.52.09,1-.26,2.7.26,3.75.52-.52.86-1.22,1.3-1.74,2.6.09-.26,2,.26,3l.69-1.31c.26,0,.87-.26,1.13.26-.61,1.83,1.73,3.83-.43,5.23-.35.61.26,1.13-.43,1.48-.26.09-.69.26-.78-.09-1.64-1.39,1.64-2.26.35-4.1-.17,1.22-1.38,1-1.82,1.92a2.5,2.5,0,0,0-.43,1.83,15.16,15.16,0,0,0-1.9,7.05c.86,1,.52,2.53,1.47,3.4.52.18,1,.87,1.47.7.52-1-.52-.52-.86-1a3.34,3.34,0,0,1-.78-2.79c1-1.13-1.3-1.65-.43-2.7.87-.87,1.56.61,2.16,1.13-.17,1-.69,1.83-.17,2.79.61-.78-.69-2.18.78-2.44s.52,1.74.69,2.53c.43,1.65,2.42,1.74,3.29,3.14,1.38.87,1,2.61,2.08,3.74l.17-.44c.26.17,1,0,1.3.35-.52,1.57-1.38,3.48-.26,5,.52-.43,0-1,.35-1.39.6,0,1.47-.26,1.56.7,1.3.87.26-1.13,1-1.65.43-.17.35.78.86.26,1-1.22-.69-1.83-1.21-2.79-1.47-2.53-2.77-5.49-5.19-7.49l.17-.35c-1.12-1.92.17-3.92.52-5.66,2.16-1,0,1.83,2.16,1.57a4.56,4.56,0,0,1-1.64,2.18c.09.61-.43,1.48.35,2a6.49,6.49,0,0,0,3.46-1,3.8,3.8,0,0,0,.61-2.53c.35-.44,0-1.66,1-1.57.87.17.43.87.61,1.39,1.38-.61,1.21,1.31,1.47,2l.87-1.66a3.35,3.35,0,0,1-.26-2.87c.52.09,1.64-.09,1.38.52a11.2,11.2,0,0,1,1.47-2.53,5.92,5.92,0,0,1,3.55-.7c.17-.78-1-1-1.47-1.48v.35c-1,.7-2.33-.09-3.2,1a2.84,2.84,0,0,1-.87-1.13c-.43,1.65-2.51,2.18-3.29,3.66l-1-1a1.37,1.37,0,0,0,.69-1.31c-.43-.61,0-1.83-.61-2.61.17-.35.35-1.39,1.13-1a1.2,1.2,0,0,1,.43.7l.52-.44c0-.7-.43-1.48,0-2.09.43-.78,1.13,0,1.38.43l-.35-1.57c-.78-.52-.09-2.53-1.64-1.57l.17,1.83c-.43,1.4-1.12,3-2.51,3.48.87.52-.17,1-.52,1.31-1.38.87-2.86,0-4-.78-2.16-1.13-1.12-3.66-2.85-4.79a1.1,1.1,0,0,1-1.73-.18c.17-.09.17-.26.17-.52-.43-.09-.78.09-1.12-.52a1.79,1.79,0,0,1,.69-1.31m12.46-.43c-.26,0-.78,0-.6.35.26,0,.69-.09.6-.35m-2.08-.53v-.44H537l-.09.61c.17.17,0,.44.09.52v-.57c.06-.05.11-.13.17-.13m-21.89-1c-1.38.26-2.16-.79-3.55-.87-.17.26-.69.61-.35,1,1.38-.61,2.25.26,3.37.87,1.21.35,2.25-.52,3.46-1.3-1.12.17-2.08.7-2.94.35m-11.16,6.18v-7.14c-1.73,1.39-2.25,3.48-2.85,5.23,1.21.43,1,2.79,2.85,1.92m18.25-6.1c-.61-.52-1-2.61-2.08-1.57l.52,1-3.89,2.7c-2.08,1-2.94-.78-4.84-1-.35.52-.69-.26-1.12-.26v1.48c1,1.13-.34,2.44,0,3.66a6.43,6.43,0,0,1,4.24.26c.43-.44.09-1.74,1-1.83a33.08,33.08,0,0,0,1.64,4.7,9.59,9.59,0,0,0,1.12-3.48c.43-.35-.26-.78.43-1,.61-.44,1.12.26,1.39.61l1.38-1.22c.69-.26.78-1,.87-1.48l-.61-2.52Zm17.56-1.83c-.52.61-.86-.44-1.21-.52.69.35,0,1,.69,1.22.26-.35.78-.18.69-.7h-.17Zm-17.3-1.48c.08-.09,0-.61-.35-.44,0,.35-.17,1,.17,1Zm17.13,0a1.08,1.08,0,0,0,.17-1.39c-.26.78-1.56,1-1.3,1.83l1.12-.44Zm-13.15-2a1,1,0,0,1-.35-.87l-.69,1c.6-.26,1.82.17,2.59.43v-.17a1.46,1.46,0,0,0-1.56-.35m-6.23-1.57c-1.12,0-.43,1.22-1,1.74a10.64,10.64,0,0,0,1.47,1.39l-.17-2.18c.09-.52-.78-.44-.35-1m-11.94-2.61h-.35c-1,1.92-1.73,3.92-2.59,5.84l-.09,8.62.26.18c-.52.17.09.52-.17.87h.35c.86-.09,2.51-.61,3.55-.17-.35-.35.52-.78.17-1.31,1.13-.87-.52-1.83,0-2.61-.34-1.31.61-2.35.86-3.48-.35-2.53-1.81-5.23-2-7.93m25.26-.44a2.47,2.47,0,0,0-2.08,0,5.6,5.6,0,0,0-4.84,2.44c.26.26-.09.44-.17.7,1-.7,2.34,1.57,2.6-.26.78-.26,1,.78,1.56.78.09.78.69,1.57-.09,2.18-1-.61-1.12.87-2.16.35-.87,1.13-1.82-1-2.6.17a.51.51,0,0,0,.17.78l.17-.26.69.7c-.61.26-.17,1-1,.78a1.85,1.85,0,0,1-1.64-1.66c-1.47,1.48-.43,3.66,0,4.88l1.3-1.13a3.51,3.51,0,0,1,2.51.09c-.17,2,2,2.61,2.68,4.18a9.44,9.44,0,0,0,1,2.44,4,4,0,0,0,2.42-.43c.69-1.31-1.3-1-1.47-2,.35-1.57,1.64-.09,2.34,0,1.47-.35.26-1.48.43-2.35.43-.87-.34-1.65-.09-2.53a6.86,6.86,0,0,1,2.25-1.13c-1.47-2,.52-3.57,1.38-5.05.09-.52-.86-.44-.43-1-1.21-.7-1.9-1.83-3.55-2.18,0,.35-.78.52-.17.87.52.78,1.21,1.83.6,2.7A3.55,3.55,0,0,1,533.8,507c-.86-.26-1.73.7-2.34-.09a3.21,3.21,0,0,0,1-1.65c-.09-1-1.38-.61-2.08-.87-.26-1,.35-1.74.78-2.61a1.51,1.51,0,0,1,1.21.52c-.83,1.5,1.6,1.17,1.73,2.67a2.34,2.34,0,0,0-1.3-2.23l1-1.48Zm-5.71-.78c-.69-.17-1.3.09-1.82-.17l-1.13.44.52,2.44,1.47-1.66c.35-.17,1-.7,1-1m-33.91,5.84v5.87c.21,1,1.82-.15,2.42.84.69.09,1.38.35,2-.35,1-2.7,1.38-4.79,2.25-7.49.78-1.48,2.77-2.09,2.42-4.09a53.43,53.43,0,0,1-9.08-1.57,22.12,22.12,0,0,1,0,2.71v4.09Zm45-7.85a58,58,0,0,1-6.2,1.23l1.73.26a42.36,42.36,0,0,1,3.89,2.09l.58.58v-4.16Zm-37.95-3.91a34.85,34.85,0,0,1-7.61-2.09c-.26,1.74.09,3.83-.26,5.66.26-.18.86,0,1.3.09a46.07,46.07,0,0,0,9.08,1.57l.09-.78c.43-1.48,2.6-1.65,2-3.48l-2.25-.26a5.26,5.26,0,0,1-2.33-.7M508,480.11c-.26-.52-.17-1.31-1-1.57-5.28-.44-10.64-.09-16.61.09l-.35.61c-.17.78-.86,1.92.17,2.52a2.22,2.22,0,0,0,2-.26c.17-.35.52-1,.09-1.31-.17,0-.52-.09-.52.09l.17.44c-.35.17-.35.87-.87.7-.35-.17-.43-.52-.69-.78.17-.78.09-1.57,1-1.83.69.61,1.56-.26,1.9.78,2.08.26,5.1-.17,7.35,0,1.47-.26,3.37.61,4.5-.78a2.7,2.7,0,0,1,1.82.44,1.59,1.59,0,0,1-.61,2.18c-.43-.35-1-1-.69-1.31-.78-.09,0,.61-.52.78a1.24,1.24,0,0,0,1.73.87c1,0,.69-1.13,1-1.65m30.1,14.2c.52.61,1,1.73,1.89,2.17a1.1,1.1,0,0,1-.24.1c.09.09.17,0,.24-.1.58-.32,0-1,.19-1.47-.43-1.22.52-2.61-.17-3.4-4.41,2.18-10.38,3-15.49,2.87a2.11,2.11,0,0,0,.35,1.39c.43-.17,1-.09,1.3-.44.87.09.26.87.78,1.13l.17-.17c.17-.26-.09-.52-.35-.78.26-.09.43-.52.86-.35.78.26,1.56-.35,2.25-.17a2.24,2.24,0,0,0,.17,2.09l.87-.26.17.7c-.17.61-.78.52-1.3.61-2.34.43-.26-1.31-1.3-2.35-1,.7-.09,2.7-1.73,2.79l-1.38-2.35h-.35c.09,1.13-.69,1.83-.52,3,3.46.09,7.35-1,10.55-1.31.26-.35.35.17.52.09.78-.7,2.08-.26,2.94-.87V497l.86-.09c0-.09.26-.26,0-.35-.61.17-1.64.35-1.38-.52-.17.09-.35-.09-.43.09.17.26.35.52,0,.87-1.38,0-2.59.35-3.72.44a3.89,3.89,0,0,0-.35-2.61c-.43.17.17.44-.17.61-.26.35-.43,0-.69-.09a2.61,2.61,0,0,0,.52,2.18c-.52.17-1.3.52-1.82.09.43-.61.09-1.48-.09-2.09-.17.09-.35.35-.52.35s-.6-.35-.43-.61c1-1,3.12-.61,4.59-1.22.26-.09.43.52.6,0l.26.26a2,2,0,0,1,.08,1.57c1.73,1,.43-1.57,1.56-2.44.43,0,.6.52.69.87M497.55,480.9c-.17,0-.43-.17-.52,0Zm-2.68-.09h-.52c-.17.35.52.17.52,0m8,0c-.09-.26-.26,0-.43,0l.26.17Zm-2.68,0c-.09-.17-.43-.17-.43.09.17,0,.43.09.43-.09m23.27,15h-.26c.17,1.66-1,2.79-1.73,4a5,5,0,0,1,.52,2.87c-1,1.39.43,2.7,1.21,3.74,3.11-1,.26-3.83.43-5.83-1.3-1.65.78-3-.17-4.79m-12.45-2c-.35-.78.78-2.79-1-2,0,1.31-.43,2.44-.43,3.75-.43,5,.69,8.8,2.08,13.15.61.43,1.56.09,1.9.78.69-.26,1.64.79,2.51.26a10.6,10.6,0,0,1-2.85-2.7c-.52.09-1,.35-1.47-.09.17-.7.26-1,.43-1.66.61-.52,1.3-.87,1.9-.09.78,1.48,1.9,3.83,4.07,3.83a1.37,1.37,0,0,0,1.38-.87,39.26,39.26,0,0,1-5.45-6c-2-2-2.6-5.4-3.11-8.36m5.88-4c-1.21.17-2.42.7-3.55-.09-.17.7-1.3.87-1.13,1.57a9.84,9.84,0,0,0,2.85.61c0-.52-.6-1.13.09-1.57a2.58,2.58,0,0,1,1,.26c-.17.52.69,1,.09,1.57-.35.43-1,.43-1,0l-.43.87a12.43,12.43,0,0,1-2.51-.35c-.09,1.48.69,2.87.78,4.44,1.21.26.61,1.48.78,2l.26-.18c.52.52,1-.35,1.64-.35.09-1,.52-1.92-.09-2.79.17-.35.52-1,1-.78a4.61,4.61,0,0,1,.52,3c.43,1.74-1.64,2-2.68,2.18a9.27,9.27,0,0,0,2.16,2.7c.09-.61.69-1.57.17-2.35a1.2,1.2,0,0,1,1-.61c1.56,1.57-.78,3.48.43,4.88l.09-.52c.61-.7,1.12-1.65,2-.61a9,9,0,0,0,0-3c-.17-1.48-2.16-.44-2.42-1.74.35-1.13,2-.26,2.59-.26-1-.26.17-.87.26-1.31,2,.61-.09-2.61,2.16-2.26l-.09-1c-.35-.78-1.12-2.09-2.33-2.18l-.26,1a5.26,5.26,0,0,1-2.85.17c-.26-1.65,1.73-.7,2.51-1.39-1-.61-3,0-3.11-1.83m.35-6.44c-.78-1-1.9-.87-3.2-.87-.52.17-.43.61-.17.87,1.82-.61.86,1.31,1.3,2.18.86-.09,2.07,2.44,2.77.35l-.61-1.48-1.38.26c-.78-.18-.34-.87-.17-1.31.43.26,1-.09,1.21-.09.26.18-.26.61.26.7v-.61Zm1.3-2.18c-.26-1-1.82-1.22-2.68-1.39-1,.17-2.68.52-2.77,1.57a2.43,2.43,0,0,0,1.47-.35c1.13.52,3.11-.26,3.81,1.48.35.7.09,1.83.61,2.09.52-1.31-.35-2.35-.43-3.4m-10,13.67c-.26-.78.43-1.74-.09-2.53-1.65,1.39-1.21,3-1.3,4.79-2.34,1.31-2.16,4.27-2.94,6.1-3.2,2.27-2.94,6.62-4.32,9.84a3,3,0,0,1-2.42,1.22l.69.35c.17.35.43.78.17,1.22a4.92,4.92,0,0,0,2.08-1.65c.26-3.49,3.89-5.23,4.59-8.62-.61.61-1.13-.09-1.3-.61.35-.87,1.47-.61,2.16-1.13,1.82-3.22,2.85-5.92,2.68-9m34.78-15.59-.87-1c-5-.09-10.9.09-15.57-.09a2.18,2.18,0,0,0-1.64,2.53c.26.26.69,1,1.12,1,1,.26,1.3-.44,1.73-1a.73.73,0,0,0-.87-.7l.43.43a5.24,5.24,0,0,1-1,1c-.43-.44-1-1.13-.78-1.74.52-.44.78-1,1.38-1,.69.26,1.47.09,2,.78l10.47-.09a2.19,2.19,0,0,1,1.47-.87c.52.35,1.38.17,1.64,1-.09.52.26,1.57-.61,1.83-.52-.09-1.3-.61-1-1.31a.52.52,0,0,0-.35.09c-.52.52,0,1.22.52,1.48.6-.09,1.3.26,1.82-.26-.09-.61.52-1.22.09-1.92m-13.06,1.57v-.17h-.35Zm5.45-.18c-.17-.26-.52-.09-.61.09.26-.09.61.09.61-.09m-3.2,0h.35l-.35-.17Z" transform="translate(-426 -386.77)"/><path d="M518.49,481.16c-.26-1-1.82-1.22-2.68-1.39-1,.18-2.68.52-2.77,1.57a2.42,2.42,0,0,0,1.47-.35c1.13.52,3.12-.26,3.81,1.48.34.7.09,1.83.6,2.09.52-1.3-.35-2.35-.43-3.4" transform="translate(-426 -386.77)" style="fill:#d69400"/><path d="M511,493.79c-.35-.78.78-2.79-1-2,0,1.31-.43,2.44-.43,3.74-.43,5,.69,8.8,2.07,13.15.61.44,1.56.09,1.9.78.69-.26,1.64.78,2.51.26a10.56,10.56,0,0,1-2.85-2.7c-.52.09-1,.35-1.47-.09.17-.7.26-1,.43-1.66.61-.52,1.3-.87,1.9-.09.78,1.48,1.9,3.83,4.07,3.83a1.37,1.37,0,0,0,1.38-.87,39.17,39.17,0,0,1-5.45-6c-2-2-2.59-5.4-3.11-8.36" transform="translate(-426 -386.77)" style="fill:#d69400"/><path d="M522.38,511.21c-.61-.52-1-2.61-2.08-1.57l.52,1-3.89,2.7c-2.08,1-2.94-.78-4.84-1-.35.52-.69-.26-1.13-.26v1.48c1,1.13-.35,2.44,0,3.66a6.43,6.43,0,0,1,4.24.26c.43-.43.09-1.74,1-1.83a33.25,33.25,0,0,0,1.64,4.7,9.63,9.63,0,0,0,1.13-3.48c.43-.35-.26-.79.43-1,.61-.44,1.12.26,1.38.61l1.38-1.22c.69-.26.78-1,.86-1.48Z" transform="translate(-426 -386.77)" style="fill:#d69400"/><path d="M515.29,511.12c-1.38.26-2.16-.78-3.55-.87-.17.26-.69.61-.35,1,1.38-.61,2.25.26,3.37.87,1.21.35,2.25-.52,3.46-1.31-1.12.17-2.08.7-2.94.35" transform="translate(-426 -386.77)" style="fill:#d69400"/><path d="M526.62,505.9a1,1,0,0,1-.34-.87l-.69,1c.61-.26,1.82.17,2.6.44v-.17a1.46,1.46,0,0,0-1.56-.35" transform="translate(-426 -386.77)" style="fill:#ffdf00"/><path d="M536,518.09a1.51,1.51,0,0,0,1-1.74l-1.21.87c0,.26-.43,1,.17.87" transform="translate(-426 -386.77)" style="fill:#ffdf00"/><path d="M546.51,519.39c-.43-.35-1.73-.87-1.3-1.65-.52.52-1.3,1.13-2,.61-1.12.52-1.56,2-1.73,2.87l.52-.35c1.3,0,1.3-1.74,2.68-1.39.35.52-.09.87.43,1.4l.61-.78Z" transform="translate(-426 -386.77)" style="fill:#ffdf00"/><path d="M525.15,520.18c.43-.12,0-.43-.22-.65a.46.46,0,0,0,0-.22c-.08.05,0,.13,0,.22,0,.27-.19.51.22.65" transform="translate(-426 -386.77)" style="fill:#ffdf00"/><path d="M535.53,519.48c-1-.26-1.73.35-2.51.17l.26.26c.43.09,1,.78,1.47.09l.17.17c.17-.17.52-.43.6-.7" transform="translate(-426 -386.77)" style="fill:#ffdf00"/><path d="M538.73,522.09a3.35,3.35,0,0,0,1.3-1.57,3.26,3.26,0,0,0-1.3,1.57" transform="translate(-426 -386.77)" style="fill:#ffdf00"/><path d="M538.9,531.06l-.35-.26c-.86-4.18-.78,1.57-2.6,1.22,0,.61.78,1,1,1.22.43-.09,1,.44,1.47.52l.52-2.7Z" transform="translate(-426 -386.77)" style="fill:#ffdf00"/><path d="M536.56,535.07l-2.16-2.44c-.26.09-.87-.17-.69.35l2.07,2.53c.69,1.65,1.13,3.31,2.86,4.18a5,5,0,0,0,1.12-3.4l-1.64-1a.87.87,0,0,1-1,.44c-.35.08-.52-.44-.61-.7" transform="translate(-426 -386.77)" style="fill:#ffdf00"/><path d="M525.06,536.29a4.11,4.11,0,0,1-2.77-2.18c.26.78-.26,1.31-.26,1.92.26.61-.09,1.74-.09,2.35l.17.26a9.81,9.81,0,0,0-.52,4.18c1-.7,2.25,1.22,3.11-.17l-1.64-1.13c-1.21-2.09,1.9-3.13,2-5.23" transform="translate(-426 -386.77)" style="fill:#ffdf00"/><path d="M530.77,539.95c.17-1-.86-1.83-1-2.7,0,2.18-.09,4,.09,6.1l1.82.26c.26-1.22-.6-2.53-.87-3.66" transform="translate(-426 -386.77)" style="fill:#e7e7e8"/><path d="M508.45,494.83c-.26-.78.43-1.74-.09-2.53-1.65,1.39-1.21,3-1.3,4.79-2.34,1.31-2.16,4.27-2.94,6.1-3.2,2.26-2.94,6.62-4.32,9.84a3,3,0,0,1-2.42,1.22l.69.35c.17.35.43.78.17,1.22a4.9,4.9,0,0,0,2.08-1.65c.26-3.48,3.89-5.23,4.58-8.62-.6.61-1.12-.09-1.3-.61.35-.87,1.47-.61,2.16-1.13,1.82-3.22,2.85-5.92,2.68-9" transform="translate(-426 -386.77)" style="fill:#fff8d6"/><path d="M517.19,483.34c-.78-1-1.9-.87-3.2-.87-.52.17-.43.61-.17.87,1.82-.61.86,1.31,1.3,2.18.86-.09,2.08,2.44,2.77.35l-.61-1.48-1.38.26c-.78-.17-.35-.87-.17-1.31.43.26,1-.09,1.21-.09.26.18-.26.61.26.7v-.61Z" transform="translate(-426 -386.77)" style="fill:#fff8d6"/><path d="M516.84,489.78c-1.21.18-2.42.7-3.55-.09-.17.7-1.3.87-1.12,1.57a9.72,9.72,0,0,0,2.85.61c0-.52-.61-1.13.09-1.57a2.56,2.56,0,0,1,1,.26c-.17.52.69,1,.09,1.57-.35.44-1,.44-1,0l-.43.87a12.28,12.28,0,0,1-2.51-.35c-.09,1.48.69,2.87.78,4.44,1.21.26.61,1.48.78,2l.26-.18c.52.52,1-.35,1.64-.35.09-1,.52-1.92-.09-2.79.17-.35.52-1,1-.78a4.62,4.62,0,0,1,.52,3c.43,1.74-1.64,2-2.68,2.18a9.3,9.3,0,0,0,2.16,2.7c.09-.61.69-1.57.17-2.35a1.19,1.19,0,0,1,1-.61c1.56,1.57-.78,3.48.43,4.88l.09-.52c.6-.7,1.12-1.65,2-.61a9,9,0,0,0,0-3c-.17-1.48-2.16-.44-2.42-1.74.34-1.13,2-.26,2.6-.26-1-.26.17-.87.26-1.31,2,.61-.09-2.61,2.16-2.26l-.09-1c-.35-.78-1.12-2.09-2.33-2.18l-.26,1a5.27,5.27,0,0,1-2.85.17c-.26-1.65,1.73-.7,2.51-1.39-1-.61-3,0-3.11-1.83" transform="translate(-426 -386.77)" style="fill:#fff8d6"/><path d="M523.41,495.79h-.26c.17,1.65-1,2.79-1.73,4a5,5,0,0,1,.52,2.87c-1,1.39.43,2.7,1.21,3.75,3.11-1,.26-3.83.43-5.84-1.3-1.65.78-3-.17-4.79" transform="translate(-426 -386.77)" style="fill:#fff8d6"/><path d="M520.39,504.33c-1.12,0-.43,1.22-1,1.74a10.8,10.8,0,0,0,1.47,1.39l-.17-2.18c.09-.52-.78-.44-.35-1" transform="translate(-426 -386.77)" style="fill:#fff8d6"/><path d="M522.12,525.67a13.18,13.18,0,0,0,.87-9.41l-1.47,1.48c-2.68.09-1.47,3.66-3.8,4.44.26,2.53.69,4.7,1.12,7.4l.69-.09c.78.7.35,1.39.87,2.09-.35.17-.61.52-1,.52-.69-.18-.61-.52-.69-1.13l-.86,2.44c-1.3,3.22,2,6,.86,9.23-.17.61-.35,1.48.43,1.92l-1,1c-.35,1.31,1.3.44,1.64.78.78.26.78,1.74,1.73,1-.78-.52.17-1,.26-1.48-3-1.57-1.3-5.14-1.12-7.58.52-2.7-.61-5,.69-7.58-.61-1.92.43-3.4.69-5" transform="translate(-426 -386.77)" style="fill:#fff8d6"/><path d="M514.77,535.68c1.27-2.8-1.1-6.34-.09-9.06l.35-.7a3.47,3.47,0,0,0-.35.7c-.52.44-1.73,2.7-2.25.78.61-1.22,1.56-2.09,1.82-3.57.43.09,1.12.09,1.12.52.26-1.31,1.12-3,.69-4.35-1,.35-1.56-.87-2.07-1.48-.87-.26-2.25-.44-2.94.26a27.6,27.6,0,0,0,.09,6,40,40,0,0,1,.78,5.49c.26.17.87-.52,1.12.17.17.26.52.7,0,1-1.56-.35-1,1.48-1.38,2.26-.35,3.48,3,6.71,1,10.36-1.21,1.22-3.2,1.13-4.07,2.44.61,0,.87-.7,1.3-1s.69.61.86,1c-.35,0-.43.35-.52.61A24.36,24.36,0,0,0,515,545l-.69-.78c.6-.61.26-1.57.35-2.09-.87-1.91.34-4.44.09-6.44" transform="translate(-426 -386.77)" style="fill:#fff8d6"/><path d="M495.3,513.91c-1-.61-2.16.26-3.37,0-1.12.87-2.77.87-3.89,1.92.09.52,1,.78.69,1.48a11.3,11.3,0,0,0,1.56-1.39c1.13.26,1.82-1.22,2.77-.78.61.52,0,1-.35,1.39l-.17-.09-.34.44,1.3.09c1.38-.52.78-2.18,1.82-3" transform="translate(-426 -386.77)" style="fill:#ffdf00"/><path d="M487.52,517.39c-.78-.35-.69,1.22-1,1.57a1.83,1.83,0,0,0,1-1.57" transform="translate(-426 -386.77)" style="fill:#ffdf00"/><path d="M488.56,519.31c-.43.26-1,.26-.87.87.17.35.52.35.69.44.17-.44-.17-.87.17-1.31" transform="translate(-426 -386.77)" style="fill:#ffdf00"/><path d="M495.65,532.46c-.78.43-1.56-.35-2.42-.26-.26.44-1,.52-.52,1s1,.44,1.56.43,1.47-.61,1.38-1.13" transform="translate(-426 -386.77)" style="fill:#ffdf00"/><path d="M510.87,536.9a21.35,21.35,0,0,1-.52-3c-.69,1-.17,2.09.52,3" transform="translate(-426 -386.77)" style="fill:#ffdf00"/><path d="M496.17,536.73a1.62,1.62,0,0,0-1.21-.87c-2.6,3,2.16,3.75,1.12,6.79.35,0,1.3,1,1.56.17a.83.83,0,0,1,.86.26c.26-.44-.09-1,.26-1.48.61-.61-1-1.22-1.13-1.57-.26.78-.69-.09-1,.26-1.3-.26.26-1-.09-1.65l-.61.17a2.1,2.1,0,0,1-.61-1,1.23,1.23,0,0,0,.86-1" transform="translate(-426 -386.77)" style="fill:#ffdf00"/><path d="M516.15,538.21c.17-.61,1-1.31.09-1.92.17.7-.26,1.22-.09,1.92" transform="translate(-426 -386.77)" style="fill:#ffdf00"/><path d="M502.83,543.43c-1.12-1.48-1.56-3.48-2.16-5.05l-.17.26c-.61.78-.78,1.66.26,2.26a.7.7,0,0,1-.17,1.13c-1-.17-.69,1.31-.78,1.92.26,1.22,1.47.17,2.33.52.43-.17,1-.44.69-1" transform="translate(-426 -386.77)" style="fill:#ffdf00"/><path d="M517.28,542.48c1.08-1.34-1.34-1-1.39-2.26l-.08,1.91c.43,0,1,.61,1.47.35" transform="translate(-426 -386.77)" style="fill:#ffdf00"/><path d="M500.32,522.79c-.09-1.22-.86-.44-1.56-.17.61.43.87,0,1.56.17" transform="translate(-426 -386.77)" style="fill:#ffdf00"/><path d="M516.93,526.1l-.26-.52c-.26,2-1.3,3.92-.35,5.84l-.17.17c.26.35.35,1.13.61,1.13,1-1.92.26-4.44.17-6.62" transform="translate(-426 -386.77)" style="fill:#ffdf00"/><path d="M479.73,457.37s11.54-7.95,37.64-7.95,40.37,7.79,40.37,7.79Z" transform="translate(-426 -386.77)" style="fill:#cc1424"/><path d="M525.19,435.43c1.58-.37,3.34.43,4.68.24.42.3,1-.06,1.4.12-.18.43-.73.06-1.09.31-1.52.24-2.37,1.71-2.91,2.93a4.65,4.65,0,0,0,.67,3.67l1.52,1.4c-2.67-.37-6.13-.24-8.92-.67-3.52.24-7.22.06-10.44.31-.18-.43-.3.12-.55.06a30.13,30.13,0,0,0-6.68.61c.3-.67,1.21-1,1.64-1.83a4.85,4.85,0,0,0,.36-3.54,4.15,4.15,0,0,0-3.76-2.81L501,436c1.58-.3,2.67,0,4.37-.55l.12.18c.18-.43.48.18.67-.24,2.13,0,3.95-.24,6.13-.31,4.19.12,8.74-.25,12.87.31m-.94,3.3c-2.67-1.1-5.65-2.2-8.5-3.3-1.15.61-2.43.85-3.52,1.53l-.12-.12a40.13,40.13,0,0,1-4.55,1.89c-.12.37-.61.49-.37,1,1.64,1.16,3.95,1.53,5.65,2.44,1.15.24,2.31,1.16,3.46.92,2.61-1.34,5.65-2,8-3.36.31-.31.06-.73-.06-1" transform="translate(-426 -386.77)" style="fill:#d8b80a"/><path d="M518.15,388.91c.55,1.22.12,2.87.06,4.34.49,1,2,.37,2.85.67,2.43.43,4.86,1.53,5.4,4.34a14.09,14.09,0,0,1-.91,6,26.61,26.61,0,0,1-4.92,9.35.73.73,0,0,0-.73.49c-.24,2.87-.85,5.38,1.34,7.46a6.61,6.61,0,0,0,6.43-1c1.15-.67,1.88-2,2.85-2.69a3,3,0,0,0,1.82.31c1,2.57,2.61,5.93,5.58,6.78a11.9,11.9,0,0,0,2.55.18c.12.18.24.18.36.06s.42,0,.61,0A9.6,9.6,0,0,0,547,422c.91-.61,1.4-1.71,2.61-.86l.18-.12c.18.49,1.21-.12,1,.67.49,1.16.91,2.44,1.58,3.73a7.19,7.19,0,0,0,7,4.1,1.84,1.84,0,0,1,1-.31,17.8,17.8,0,0,0,6.19-4c.48-.06,1,.43,1.58.37.36,2.81.36,5.62,2.61,7.64.24-.18.37.49.73.37.67.55,1.52.12,2.25.43a8.71,8.71,0,0,0,6.19-3.73c.49.18.91.79,1.27,1.1-2.73,2.93-5.46,6.3-9.77,6.78-.73-.55-2.31-.37-2.79-1.34-.3-.12-.61-.67-.91-1a31.27,31.27,0,0,1-2.06-4.83.94.94,0,0,0-1.21-.31,10.68,10.68,0,0,1-6.49,2.87c-.55-.12-1.46-.06-1.88-.37-.24.18-.49-.12-.73-.24-.3.49-.3-.18-.67-.12-.3-.18-.85.12-1-.37a5,5,0,0,1-3-2.81c-.91-1-1.4-2.81-1.82-4.1a1,1,0,0,0-1.21-.06,10.25,10.25,0,0,1-4.73,4c-2.43,1.35-4.74-.12-6.92-.18a6.44,6.44,0,0,1-3.7-4.89c-.12-.12-.36-.31-.18-.43-.18-.55-.06-1.47-.91-1.53-1.15.24-1.22,1.71-1.76,2.57a7.35,7.35,0,0,1-6,3.3c-3.28.18-5.1-2.81-6.37-5.5-.12-.43,0-.61-.18-1-.37-.37-.79-1.1-1.34-.61l-.48.55.12.06c-1,2.87-2.55,6.48-6.31,6.6-.24-.19-.43.24-.55-.06a4.56,4.56,0,0,1-2.37-.31,7.59,7.59,0,0,1-4.19-4.59c-.24-.43-.91-1.1-1.46-.61-.18.31-.73.8-.36,1.22-.43,2.32-1.82,4.83-4.19,5.62-3,.67-6.13,1.16-8.86-.92a21.47,21.47,0,0,1-2.85-2.94,1,1,0,0,0-1.21.67c-.3,2.94-2.55,6.05-4.92,7-2.55.73-4.74,1.1-7.41-.12-.06-.37-.55-.12-.73-.37-1.21-.3-2.07-2.38-3.34-1.28-1.09,2.69-1.76,6.42-5,7.27l-.12-.18a4.57,4.57,0,0,1-1.82,0c-3.52-1-5.89-3.36-8.5-6.36.06-.55.85-.79,1-1.16.67,1,1.94,1.59,2.79,2.57.54,0,1,.61,1.64.73a6.17,6.17,0,0,0,5.28-.74,9.79,9.79,0,0,0,2-6.36c.12-.3.06-.67.18-1.1l1.58-.43c2.19,2.38,6.07,5,9.47,4.1,3.46-.73,5.22-4.77,6.07-7.82.24-.61,1-.37,1.58-.49,1.09-1.34,1.64.49,2.43.92a3.44,3.44,0,0,0,1.46,1.16,7.26,7.26,0,0,0,6.25,1.71,1.15,1.15,0,0,0,1.09-.31,6.44,6.44,0,0,0,3.89-2.69l-.12-.06c.73-.73.73-1.28,1.28-2.08.55-.61.36-2.57,1.76-2a1.58,1.58,0,0,1,.91-.12c2.12,2.57,5.65,4.58,8.68,3.67,2.55-1.83,2.3-5.07,1.76-7.58a23.85,23.85,0,0,1-5.28-8.31,9.16,9.16,0,0,1-.73-1.77,18.08,18.08,0,0,1-.85-4.58c.36-.43,0-1.16.24-1.59a5.05,5.05,0,0,1,3.89-3.79,11.41,11.41,0,0,1,3.46-.43c1.21-.85.36-2.2.36-3.24h-.18a8.31,8.31,0,0,0,.55-1.59,4.14,4.14,0,0,1,3.7-.67c.3.19.61.61,1,.55m-5.46,7.83c-.55-1-2-.92-2.73-1a3.81,3.81,0,0,0-3.16,2.63c.12.43-.3.92-.12,1.22l-.12.18c.12,2.26.36,5.5,1.76,7.33.24,1.22,1.64,2.45,2.37,3.48.48.25.91,1.16,1.46.86s.55-.74.67-1.22c-.06-2-.12-4-.18-5.56.12-2.57,0-5,.06-7.89m11.35,0c-1-1.22-3.22-1.22-4.62-.74-.73.18-.36,1-.55,1.47l.06,3.73c.06,2.26-.12,5.26.12,7.4a4.45,4.45,0,0,0,.12,2.51c.24.31.42.18.85.18a10,10,0,0,0,3.77-5.26,7.1,7.1,0,0,0,1-3.73c.61-.55-.3-1.28.3-1.84a6.37,6.37,0,0,0-1.09-3.73m-6.62,3.06c-.55-.55-1-1.35-1.82-1.22a3.66,3.66,0,0,0-1.76,3.54c-.79,3.24-.36,6.36,0,9.78.49.31.3,1,.36,1.22.3.61.73,1.47,1.52,1.41a1.59,1.59,0,0,0,1.4-.55c1.88-4.71,1.34-9.54.3-14.18" transform="translate(-426 -386.77)" style="fill:#d8b80a"/><path d="M426,453H606L516,665.23Zm42,23.4,48.18,117.88,48.91-117.88Z" transform="translate(-426 -386.77)"/><polygon points="175.3 68.7 89.85 274.35 89.34 212.91 141.95 87.42 89.1 87.42 89.1 68.7 175.3 68.7" style="fill:#0045a7"/><polygon points="3.83 68.7 92.13 68.7 92.13 87.42 39.27 87.42 90.23 210.81 90.21 274.27 3.83 68.7" style="fill:#fde607"/><path d="M533.87,439.41c-.55-1.34-1.46-1.59-2.79-1.77a2.35,2.35,0,0,0-1.94,1.41,2.68,2.68,0,0,0,0,2.26c.12.79,1.09,1.22,1.7,1.34.3-.18.49.67.73.06.55.24,1.15-.43,1.64-.61a3.22,3.22,0,0,0,.67-2.69" transform="translate(-426 -386.77)" style="fill:#cc1424"/><path d="M503.21,439.47c-.55-.25-.73-1.22-1.46-1.41a2.72,2.72,0,0,0-3.16.92,3.71,3.71,0,0,0-.18,2.69c.18.43.73.73,1.15,1.1a2.68,2.68,0,0,0,2.37-.06c.61-.49,1.34-1,1.39-1.83a3.59,3.59,0,0,1-.12-1.41" transform="translate(-426 -386.77)" style="fill:#cc1424"/><path d="M560.52,443.93a3,3,0,0,0-3.4-.49,3.11,3.11,0,0,0-.91,3.3c.67,1.41,1.88,1.47,3.16,1.47a3.58,3.58,0,0,0,1.76-1.89,3.7,3.7,0,0,0-.61-2.38" transform="translate(-426 -386.77)" style="fill:#cc1424"/><path d="M476,445c-.43-.92-1.28-.92-1.94-1.35-.24.31-.55-.12-.91.06-.55.61-1.09.18-1.46,1a3.21,3.21,0,0,0-.37,2.57,2.72,2.72,0,0,0,2.43,1.65c.67-.31,1.46-.18,1.94-.92A3.27,3.27,0,0,0,476,445" transform="translate(-426 -386.77)" style="fill:#cc1424"/><path d="M521.34,439.35c-1.82-.8-3.7-1.53-5.58-2.14a57.07,57.07,0,0,1-5.34,2.14,13.58,13.58,0,0,1,2.55,1.16c.79.12,1.7.61,2.49.73.85.61,1.76-.49,2.55-.49a25.49,25.49,0,0,1,3.34-1.41m2.91-.61c.12.31.36.73.06,1-2.37,1.35-5.4,2-8,3.36-1.15.24-2.31-.67-3.46-.92-1.7-.92-4-1.28-5.65-2.44-.24-.55.24-.67.37-1a40.13,40.13,0,0,0,4.55-1.89l.12.12c1.09-.67,2.37-.92,3.52-1.53,2.85,1.1,5.83,2.2,8.5,3.3m-57.77,9.47a25.24,25.24,0,0,0-4.13-1.89A36.7,36.7,0,0,0,461,451.2c1.34.86,2.61,1,3.7,1.83.3-.12.49.43.61-.06.24-1.65,1-3.18,1.15-4.77m103.81-1.59-.18-1c-1.4.06-2.85,1.47-4.37,1.9.73,1.65.73,3.18,1.4,4.89,1.15-.43,2.31-1.16,3.46-1.53a1.24,1.24,0,0,0,.79-.49.74.74,0,0,0-.18-.61,32.18,32.18,0,0,0-.91-3.12m-56.7-1.35a10.3,10.3,0,0,1-1.94-.06c-5.1.55-9.83.61-14.69,1.59-1.52,0-3.22.55-4.61.61-3.34.73-6.56,1.47-10.08,2.32a9.12,9.12,0,0,1-2.25.55c-2.25.92-4.25,1.16-6.62,2.2-.36.06-1,.37-1.4.24a6.58,6.58,0,0,1-2.67,1l.06.24,3-.18.18.18c2.31-.31,4.67.18,7-.18a4.3,4.3,0,0,1,1.46-.24,126.92,126.92,0,0,1,18.64-4c2.19-.24,4.43-.79,6.62-.55a41.66,41.66,0,0,1,8.86-.49l.12-.12c1,.31,2.31-.12,3.4.06,2.61-.12,4.67.12,7.23.18.3.06.85.31,1.15.12a120.58,120.58,0,0,1,14.45,2,40.92,40.92,0,0,1,6.8,1.53,4.21,4.21,0,0,1,1.7.31c1.76.8,3.94.67,5.64.8,1.94-.12,3.22,0,5.1-.12.3-.12,1,.06,1.4-.06l.12.12c.18-.18.79.06.73-.24a5.18,5.18,0,0,0-1.52-.43c-2.73-1.28-5.53-1.59-8.2-2.57a45.12,45.12,0,0,1-5.71-1.53v.12a86.23,86.23,0,0,0-12-2.08v-.12c-2.91-.43-6.07-.61-9.29-.91-.3.18-.67-.55-1-.06a111.06,111.06,0,0,0-11.78-.24M476,445c-.43-.92-1.27-.92-1.94-1.34-.24.31-.55-.12-.91.06-.55.61-1.09.18-1.46,1a3.21,3.21,0,0,0-.36,2.57,2.72,2.72,0,0,0,2.43,1.65c.67-.31,1.46-.19,1.94-.92A3.27,3.27,0,0,0,476,445m84.57-1.1a3,3,0,0,0-3.4-.49,3.11,3.11,0,0,0-.91,3.3c.67,1.41,1.88,1.47,3.16,1.47a3.56,3.56,0,0,0,1.76-1.89,3.71,3.71,0,0,0-.61-2.38m-89.36-1.22a27,27,0,0,1-3.22,1c-1,.73-2.61.79-3.64,1.59,1.34,1,3.52.86,4.13,2.63-.3,1.65-1.09,3.48-1.34,5.07a41.4,41.4,0,0,1,5-1.89c.36-.31.91,0,1-.55a4.32,4.32,0,0,1-1.88-7.82m92.22,0c-.85-.24-1.82-.43-2.61-.73a5.44,5.44,0,0,1,1.76,1.77c.24,1,.73,2.75-.18,3.85a4.12,4.12,0,0,1-3.46,2.39c1.76.43,3.58,1.1,5.22,1.65.24.06.79.55,1.21.37l-.18-.06c-.24-1.53-1-3.36-1.34-4.89.42-1.16,1.76-1.16,2.61-1.83a10.46,10.46,0,0,0,1.46-.61c.12-.31-.37-.24-.42-.55-1.21.12-2.31-.92-3.4-1-.24-.31-.67-.06-.67-.31m-71.82-.06a2,2,0,0,0-2.25-1.16c-2.61.61-5.59,1.1-8.2,1.53a1.64,1.64,0,0,0-.91,1.47c-.06.49-.06,1.47.73,1.77,1.94.18,3.76-.49,5.52-.67,2-.86,5.28.18,5.1-2.93M548,442.4l-2.12-.37c-2.49.06-4.86-1.71-7.22-.43-.43.24-.37,1.16-.36,1.71.24.49.73,1.16,1.33,1.16,1.52.55,3.4.37,5.1.92,1.46.12,3,.73,4.43.18.61-.31.67-1.41.48-1.9-.06-1-1-1.1-1.64-1.28m-44.8-2.94c-.55-.24-.73-1.22-1.46-1.41a2.73,2.73,0,0,0-3.16.92,3.71,3.71,0,0,0-.18,2.69c.18.43.73.73,1.15,1.1a2.68,2.68,0,0,0,2.37-.06c.61-.49,1.34-1,1.4-1.83a3.63,3.63,0,0,1-.12-1.41m30.66-.06c-.55-1.35-1.46-1.59-2.79-1.77a2.35,2.35,0,0,0-1.94,1.4,2.69,2.69,0,0,0,0,2.26c.12.79,1.09,1.22,1.7,1.34.3-.18.48.67.73.06.55.25,1.15-.43,1.64-.61a3.21,3.21,0,0,0,.67-2.69m-34.24-3.18c-3.88.12-8.07,1.47-12,2-.73.12-1.4.61-2.25.43-3.7,1.16-8.26,2-12,3.36.67.24,1.94-.12,2.73.73,1,.49,1.4,1.65,1.82,2.32.55,1.77-.55,3.42-1.28,4.58.61,0,1.34-.67,2.13-.55,1.15-.49,2.19-.43,3.46-1a3.5,3.5,0,0,1-3.4-1.65c-.79-1.22-.43-2.2-.06-3.42a4,4,0,0,1,3.46-1.83c.18,0,.85-.37,1.15-.18l.24-.18c2.79-.37,5.1-1.34,7.71-.73a3.9,3.9,0,0,1,2.06,2.69,4.23,4.23,0,0,1-1.28,3,38.39,38.39,0,0,0,4.61-.8,7.33,7.33,0,0,0,2.91-.43c-1.21-.06-1.94-1.1-2.55-1.77a4.36,4.36,0,0,1-.3-4,4.78,4.78,0,0,1,2.85-2.51m.25-.06.42.06v-.12Zm35.33.25a14.11,14.11,0,0,0-2.55-.37,5.3,5.3,0,0,0,.85.18l-.06.12,1.46,1.28c.67,1.41,1.15,2.87.42,4.4a4.66,4.66,0,0,1-3,2.38c1.46.31,3.1.18,4.8.61-.24-1-.79-1.77-.67-2.93a4.15,4.15,0,0,1,2.43-2.63c.3.06.91-.12,1.4-.12.37.18,1,.12,1.34.37,1.94.18,4.13.73,6.19.92,1,.31,1.94.31,2.73,1.1a3.8,3.8,0,0,1,.79,3.61,3.12,3.12,0,0,1-1.82,1.89,6.4,6.4,0,0,0,2.25.73c.73-.18,1.21.73,1.82.31.73.61,1.4.37,2.25.73-.06-.24-.55-.18-.43-.55-.73-.06-.3-1-.91-1.28-.3-1.65-.3-3.48,1.09-4.58a3.93,3.93,0,0,1,2.91-1.22v-.12c-2-.49-3.82-1.22-5.77-1.59-2.19-.43-3.76-1-5.77-1.28-.67-.3-1.52-.18-2.19-.43-2.91-.43-6.62-1.59-9.59-1.53m-10-1c-4.13-.55-8.68-.18-12.87-.3-2.19.06-4,.3-6.13.31-.18.43-.48-.18-.67.24l-.12-.18c-1.7.55-2.79.25-4.37.55l.06.18a4.16,4.16,0,0,1,3.76,2.81,4.86,4.86,0,0,1-.36,3.55c-.42.8-1.34,1.16-1.64,1.83a30.19,30.19,0,0,1,6.68-.61c.24.06.36-.49.55-.06,3.22-.24,6.92-.06,10.44-.31,2.79.43,6.25.3,8.92.67l-1.52-1.41a4.66,4.66,0,0,1-.67-3.67c.55-1.22,1.4-2.69,2.91-2.93.36-.24.91.12,1.09-.31-.42-.18-1,.18-1.4-.12-1.34.18-3.1-.61-4.68-.24m-64.79-1a6.83,6.83,0,0,1-4,0l-.19-.05Zm-7.55,0a15.14,15.14,0,0,0,6.6,4.27,4.6,4.6,0,0,0,1.82,0l.12.18c2.22-.58,3.24-2.47,4-4.47l1.84,0a18.49,18.49,0,0,1-1.11,2.49,40.48,40.48,0,0,0,5-1.71,7.18,7.18,0,0,1-1.87-.79H480c-1,.28-2,.55-3,.78-.48.43-1.4.24-2,.73a110.17,110.17,0,0,0-15.48,5.32,4.26,4.26,0,0,0-.67,1.41,2.35,2.35,0,0,0,1.76,2.08c3.76-1.41,8.38-3.12,12.51-4.52,1.28-.49,2.73-.73,3.95-1.16,2.49-.67,5.34-1.47,8-2l.24-.24.12.18a90.9,90.9,0,0,1,14.14-2.62h34.1c.31,0,.62.07.93.11a5.18,5.18,0,0,1,1.4.12c.61.06,1.28.18,1.82.18a187.27,187.27,0,0,1,19.67,4.22c3,.67,5.89,2.08,8.8,2.81.67.55,1.94.61,2.61,1.16,1,.06,1.88.73,2.85.79a2.12,2.12,0,0,0,1.4-.92c.61-.86.06-1.65-.36-2.38-2.25-.92-4.19-1.65-6.37-2.51a30.41,30.41,0,0,1-5.46-1.83l-.06.24c-.3-.43-.91-.12-1.21-.49a32.89,32.89,0,0,1-4.37-1.34,1.61,1.61,0,0,1-1.29-.17h7.55l-.43.17c.67.61,1.7.31,2.43.79a4.83,4.83,0,0,0,2.43.67,11.2,11.2,0,0,1-.76-1.64H567a10.29,10.29,0,0,0,.71,1.33c.3.37.61.92.91,1,.48,1,2.06.79,2.79,1.34a11.75,11.75,0,0,0,6.85-3.71h2.24a16,16,0,0,1-6.85,4.69,4.16,4.16,0,0,1,1.15,3.67,3.66,3.66,0,0,1-3.1,2.57c.18,1.89,1.4,3.85,1.28,5.81-1,.61-2.59,2.18-3.84,3.11,0,0-27.16-.76-24.15-.91.06-.55-.42-.06-.61-.18s.06-.12.06-.18a1,1,0,0,1-.73-.06c-1.34-.25-3.22-.67-4.55-.8a40.29,40.29,0,0,0-5.34-.8,4.82,4.82,0,0,0-1.58-.18,12.75,12.75,0,0,0-4.13-.43,105.76,105.76,0,0,0-24.47.12c-.3.12-.61-.24-.79.12-1.76-.06-3.7.61-5.46.49v.12c-3.58.73-7.22,1.22-10.5,2.14l.27.07.47,0c.17,0,.15,0,0,0s-.29.09-.47,0c-3.55.15-21.76.27-24.22.25l-.15.11a.34.34,0,0,1-.3-.12H463c-1-1.29-4.4-1-3.49-3.37l1.15-4.34c-.79-.37-1.7-.37-2.19-1.22-.61-.18-.73-.92-1-1.41-.06-1.22-.06-2.63,1.09-3.61-3-.95-5.49-3.29-7.68-5.65l2,0Z" transform="translate(-426 -386.77)"/><path d="M512.68,396.74c-.06,2.94.06,5.32-.06,7.89.06,1.59.12,3.61.18,5.56-.12.49-.12,1-.67,1.22s-1-.61-1.46-.86c-.73-1-2.13-2.26-2.37-3.48-1.4-1.83-1.64-5.07-1.76-7.34l.12-.18c-.18-.31.24-.79.12-1.22a3.82,3.82,0,0,1,3.16-2.63c.73.12,2.19,0,2.73,1m-1.64.55c-.85,0-1.88-.12-2.43.79-.91,2.14-.18,4.16.18,6.48a10.71,10.71,0,0,0,2.37,3.91,15.27,15.27,0,0,0-.12-2.38c.48-3.12-.18-5.93,0-8.8m13-.55a6.39,6.39,0,0,1,1.09,3.73c-.61.55.3,1.28-.3,1.83a7.07,7.07,0,0,1-1,3.73,10,10,0,0,1-3.77,5.26c-.42,0-.61.12-.85-.18a4.45,4.45,0,0,1-.12-2.51c-.24-2.14-.06-5.13-.12-7.4l-.06-3.73c.18-.49-.18-1.28.55-1.47,1.4-.49,3.58-.49,4.62.73M523,398c-.61-.92-1.52-.73-2.49-.61,0,3.73,0,7.27.24,11,1.94-2.93,3.64-6.78,2.25-10.39m-6.25,8.19a19.43,19.43,0,0,0-.85-5.63l-.36.73c-.67,3.91-.85,7.76.43,11.43a20,20,0,0,0,.79-5.62c.24-.24-.18-.73,0-.92m.67-6.36c1,4.65,1.58,9.47-.3,14.18a1.59,1.59,0,0,1-1.4.55c-.79.06-1.21-.79-1.52-1.41-.06-.18.12-.92-.36-1.22-.36-3.42-.79-6.54,0-9.78a3.66,3.66,0,0,1,1.76-3.55c.85-.12,1.27.67,1.82,1.22M487.67,431a14,14,0,0,1-3.58-2.51,25.49,25.49,0,0,1-1.94,3.85c1.46-.37,3-.55,4.31-1,.3-.12,1-.06,1.21-.37m62.23.79c-.79-1.22-1.34-2.51-2.06-3.73-1.21.79-2.18,2.08-3.64,2.57l.3.24.18-.19c1.52.49,3.28.55,5.22,1.1m-46.14-3.06a21.94,21.94,0,0,1-2.67-2.63,9.54,9.54,0,0,1-1.7,3.05c1,.06,2-.18,2.91-.06.37-.24,1.09-.18,1.46-.37m28.78.06a13.19,13.19,0,0,1-1.7-2.87,14.42,14.42,0,0,1-2.55,2.57,14,14,0,0,0,4.25.43Zm-81.71-2.2a3.35,3.35,0,0,0-2.61-1.59,3.77,3.77,0,0,0-3.1,2.2,4.61,4.61,0,0,0,.49,2.94,4.42,4.42,0,0,0,1.52,1.16c1.88.18,2.43.12,3.7-1.35a3.32,3.32,0,0,0,0-3.36m67.75,1.4a12.15,12.15,0,0,1-2.61-3.55,14.12,14.12,0,0,1-2.55,3.67c.67-.06,1.46.18,2.25.06,1-.06,2.13.19,2.92-.18m68.24-2.08a3,3,0,0,0-1.76-1.59c-1.09-.73-2.06.06-3.1.43a3,3,0,0,0-1.09,2,3.38,3.38,0,0,0,1.46,3.3,3.42,3.42,0,0,0,2.61.31,4.3,4.3,0,0,0,1.94-2,3.12,3.12,0,0,0-.06-2.45M457.5,425.1c-.55-1.47-1.34-3.3-2.91-4-1.21-.55-2.19.24-3.28.73.55,1,.12,2.51.67,3.42,1-.18,1.82-.73,2.79-1a.88.88,0,0,1,.73,1.1,7.85,7.85,0,0,1-2.55,1.35c-.31.18-.06.55,0,.73.06.55-.18,1.65.42,1.83a7.13,7.13,0,0,0,3.77-.18c1.21-1.16.48-2.45.36-4m123.12-4.16a4.54,4.54,0,0,0-2.85-.92c-2.31.73-3,3.36-3.52,5.38.18.8-.37,2,.54,2.69a5.07,5.07,0,0,0,4.31.06c-.3-.79.24-1.41.06-2.26a17.27,17.27,0,0,0-2.37-1,.84.84,0,0,1-.12-1.34,4.89,4.89,0,0,1,3.28.92,14.75,14.75,0,0,0,.67-3.48m-114.44-.67a3.32,3.32,0,0,0-2-1.83,3.28,3.28,0,0,0-3.52,1.41,3.43,3.43,0,0,0,.43,3.91c.55.43,1.28,1,2,.73l.12.18a3.18,3.18,0,0,0,2.43-.92,3.82,3.82,0,0,0,.55-3.48m105.27-1a3.31,3.31,0,0,0-3.34-1.71,4.18,4.18,0,0,0-2.49,2.38,3.61,3.61,0,0,0,1.52,3.73c.37-.12.73.49,1.09.31,1.15-.06,2.13,0,2.85-1.16a3.44,3.44,0,0,0,.36-3.55m-122.51.37a9.58,9.58,0,0,0-1.4-2.2,8,8,0,0,0-6.31-1.53c-.85.49-2.13.43-2.79.92.55.55,1.27,1,1.94,1.59v.37c.79,0,1.46,1.16,1.82,1.71l.12-.06c.85,1.16,2,2.38,2.67,3.54.24-.06.18.43.49.37.61-.43,1.4-1,2.06-.73a4.75,4.75,0,0,1,2.43.12,20.18,20.18,0,0,0-1-4.1m143.52-4.34a1.42,1.42,0,0,1-1-.31c-1.88-.18-3.76-.37-5.59.55-2.79,1.35-3.46,4.77-3.88,7.27l1.58-.37a7.23,7.23,0,0,1,3.1.79c.91-1,1.52-2.08,2.37-3.24a33.28,33.28,0,0,1,4.49-4.34l-1.09-.37Zm-109-.43a2.46,2.46,0,0,0-1.4-1,3.55,3.55,0,0,0-2.91.74,3.25,3.25,0,0,0-.73,3.79,5.09,5.09,0,0,0,2,1.65,2.67,2.67,0,0,0,2.49-.49c.18.18.31-.24.55-.24a3.71,3.71,0,0,0,.79-3.42c-.3-.37-.43-.92-.79-1m69.39-.49a3,3,0,0,0-3.7-.67,3,3,0,0,0-1.58,2.14,2.88,2.88,0,0,0,.79,2.81,3.2,3.2,0,0,0,3,.92c.73-.43,1.64-.73,1.88-1.65a2.09,2.09,0,0,0,.3-1.16,2.66,2.66,0,0,0-.73-2.38m-77.65-1.22a19.36,19.36,0,0,0-3.22-.37,3.5,3.5,0,0,0-2.85.49,2.36,2.36,0,0,0-.49,1.47c.3,3.24,1.58,7,4.67,8.19,2,.24,4.31.12,5.65-1.59-1.58-.73-1.7-2.2-2.67-3.3a31.27,31.27,0,0,1-4.86.61c-.42-.18-.91-.43-.73-1,.67-1.1,2.06-.73,3.1-.86,1-.37,1.76-.06,2.73-.55.12-.37-.12-.67.24-1-.18-.92-1-1.41-1.58-2.14m87.54-.55c-1.82-1.16-4.25-.24-6.07-.06l-1.76,2a1.74,1.74,0,0,1,.43,1.4l.12-.18.18.18c1.76,0,3,.37,4.8.43a1,1,0,0,1,.67,1.1c-.37.85-1.64.49-2.13.61-1.15-.31-2.55-.37-3.64-.55a7.09,7.09,0,0,1-1.94,3c-.48-.18-.43.31-.48.55a6.91,6.91,0,0,0,4.55,1.47,5.4,5.4,0,0,0,4.37-3.48c.91-2,1.82-4.4.91-6.42m-60-.31a3.8,3.8,0,0,0-2.19-1.83,3.28,3.28,0,0,0-3,1A3.47,3.47,0,0,0,497,415a3.25,3.25,0,0,0,3,1.77,2.64,2.64,0,0,0,2.31-1.16,3.59,3.59,0,0,0,.49-3.3m31.57-.86a3.23,3.23,0,0,0-2.79-1.28,3.74,3.74,0,0,0-2.73,2.57,4,4,0,0,0,1.27,3.3,3.77,3.77,0,0,0,2.43.43,3.63,3.63,0,0,0,2.18-1.59,3.3,3.3,0,0,0-.36-3.42m-43.83-3.48c-.24,0-.55.24-.73-.06l-.06.24c-2.13,1-5.53,1.83-5.65,4.83l1.27,1.28c1.46-.55,3.22-1.16,4.74-1.71.18.12.55-.37.73.12a.88.88,0,0,1,.3,1.1c-1.7,1-3.4,1.22-5,2.14.18,1.34-.42,2.69-.73,4l1.76.31c.24-.31.67.06,1-.24l.18.12a6.32,6.32,0,0,1,1.76-.73c2.13-1.16,2.55-3.73,2.55-5.75-.18-1.84-.43-4.16-2.06-5.69m55.3,1.77a25.34,25.34,0,0,0-3.16-1.83c-.24,0-.73-.37-.85-.12-1.52-.37-1.52,1.53-2.13,2.44.06,1-.79,2-.37,3.12-.49.3.3.55-.12.86.24,1.1.3,2.44,1.09,3.36,1.15,1.77,3.28,2.14,5.16,2.2.36-.3.91.12,1.09-.49a5.67,5.67,0,0,1-.73-3.67c.12-.43-.55-.43-.73-.43-1.52-.79-3.28-.86-4.43-1.83-.3-.43.12-.73.18-1s.49-.06.67-.24c.24.37.67-.12.73.49.36-.18.79-.06.85.18a22.25,22.25,0,0,1,2.85,1c.91.55,1-.8,1.76-1a3.15,3.15,0,0,0-1.88-2.93m-63-9.9c-1.94-1.4-4.43-.43-6.49,0a7.07,7.07,0,0,0-4.31,2.57c-.85,3.73,1.52,6.42,4,9.17.91.55,1.64,2.94,2.91,1.22.61-.67-.24-2-.3-3a16.62,16.62,0,0,0-.55-2.32c-.3-1.28-.37-2.14-.73-3.3.06-.49.61-.49.85-.67.55-.06.67.61.91.86.61,2.63,1.34,5.26,1.88,7.82a13.19,13.19,0,0,1,1.46.06,11.08,11.08,0,0,0,.67-2.26c.06-.37.43-.85.18-1,.73-3.05,1.58-6.66-.49-9.11m70.85-.79a20.56,20.56,0,0,0-2.06-.55c-1.46.18-3.28.61-3.64,2.2-.3.25.24.61-.24.73l.12.18a4.89,4.89,0,0,1-.36,1.77c.18,1.1.24,2.14.36,3.18a4.46,4.46,0,0,0,.36,1.28c.43,1.35.73,2.63,1.22,3.85.55-.06,1.58.37,1.64-.61,0-.67.3-1.28.24-1.77l.12-.18c.49-1.83.79-3.91,1.4-5.87a1,1,0,0,1,.79-.37,1.25,1.25,0,0,1,.73.92c-.55,2.45-1,4.71-1.58,7-.73,1.16.48,1.65,1.27,2.08a52.11,52.11,0,0,0,3.76-4.28c1-1.71,2.43-3.91,2.19-5.93-.91-2.87-3.76-3.24-6.31-3.67m-54.1,35.47c5.61-.64,11.38-.89,17.13-1,.37.24.79-.18,1.09.06a7.6,7.6,0,0,1,1.09-.12l.12.12c.12,0,.18-.12.24-.12a131.64,131.64,0,0,1,14.42,1l-34.1,0Zm-34.17,0c.37-1,.68-2,1-2.83,1.27-1.1,2.12,1,3.34,1.28.18.24.67,0,.73.37,2.67,1.22,4.86.85,7.41.12,2.37-.92,4.61-4,4.92-7a1,1,0,0,1,1.21-.67,21.61,21.61,0,0,0,2.85,2.94c2.73,2.08,5.89,1.59,8.86.92,2.37-.79,3.77-3.3,4.19-5.62-.37-.43.18-.92.36-1.22.55-.49,1.21.18,1.46.61a7.6,7.6,0,0,0,4.19,4.59,4.55,4.55,0,0,0,2.37.3c.12.31.3-.12.55.06,3.76-.12,5.28-3.73,6.31-6.6l-.12-.06.49-.55c.54-.49,1,.24,1.33.61.18.43.06.61.18,1,1.28,2.69,3.1,5.68,6.37,5.5a7.35,7.35,0,0,0,6-3.3c.55-.86.61-2.32,1.76-2.57.85.06.73,1,.91,1.53-.18.12.06.31.18.43a6.45,6.45,0,0,0,3.7,4.89c2.19.06,4.49,1.53,6.92.18a10.26,10.26,0,0,0,4.73-4,1,1,0,0,1,1.21.06c.42,1.28.91,3.12,1.82,4.1a5,5,0,0,0,3,2.81c.18.49.73.18,1,.37.36-.06.36.61.67.12.24.12.49.43.73.24.43.31,1.34.25,1.88.37a10.69,10.69,0,0,0,6.49-2.87.94.94,0,0,1,1.22.31c.52,1.22.85,2.38,1.35,3.5h-1.81c-.21-.54-.41-1.08-.64-1.6-1,.42-2.12,1.16-3,1.59l-7.55,0a3,3,0,0,1-.35-.2c-.43-.12-1,.06-1.34-.37-.85.3-1.58-.49-2.43-.37-.42,0-.49-.49-.85-.12-4.61-1.47-9.65-1.65-14.51-2.69l-.3.18c-2.85-.43-5-.67-8.07-1a28.69,28.69,0,0,1-4.07-.18c-1.34.43-2.79-.37-4.13.06-.91-.25-1.76.12-2.67-.18a14.13,14.13,0,0,1-3.58.12c-1.21.43-2.25,0-3.4.37a145.63,145.63,0,0,0-19,2.26c-.43-.18-.67.55-1,.12-1.4.49-2.79.55-4.07,1.1l-.18-.12c-1.35.25-2.72.63-4.12,1H469.29a15.45,15.45,0,0,0-1.78-.93c-.09.32-.19.62-.29.91l-1.84,0Zm-14.54,0c-.49-.51-1-1-1.42-1.54-.73,0-1.34-.18-2.19-.12-1.46-.37-3.34-1.71-3.58-3.42a7.18,7.18,0,0,1,.61-4c-2.06-2.87-4.55-6.36-7.59-7.89l-.73-.06c.24-.67-.73.06-.18-.49l-.19-.08s.28,0,.19-.23c.43-.73,1.34-.37,1.82-1,.49-.18.73.12,1-.37l.73-.06a5.8,5.8,0,0,1,1.64-.55c1.09-.37,1.94.06,3.22-.18.06.31.61,0,.79.37.3-.18.73-.06,1.22.06a7.92,7.92,0,0,1,4.67,5.26c1.4-.37,3.4-1.16,5-.12,2.49,1.47,3.34,4.64,3.7,7.27-.3.92-.18,2-1.09,2.75-1.15,1.22-2.79.73-4.19,1a5.56,5.56,0,0,0,4.55,2.26,3.24,3.24,0,0,0,2.55-1.71c.36-1.9,1-3.36.85-5.44a4.92,4.92,0,0,1-3.46-3.67,5.63,5.63,0,0,1,.91-3.91,5,5,0,0,1,5.1-1.53,4.84,4.84,0,0,1,3.16,3.18c.06.85.49,2.26-.3,3.06a4.45,4.45,0,0,1-.85,1.59c1.88,1.83,3.82,3.67,6.37,3.85a5.44,5.44,0,0,0,4.68-2.81,19.89,19.89,0,0,1,1-2l-.18-.24c-2.13,1.16-5.34,1.34-7.41-.12-2.91-2.38-3.64-5.62-4.13-9l.24-.31a1.93,1.93,0,0,1,.73-2.08c1.34-1.16,2.55-.86,4-.86.55-.49,1,.37,1.58-.12a19.74,19.74,0,0,1-2.85-4.46l.12-.18c-.67-.61-.43-1.53-.73-2.32-.18-2.26,1.15-3.67,2.91-4.77.85-.61,2.07-.49,3.1-1.1,2.67-.8,6.07-1.35,8.2,1.1a5.13,5.13,0,0,1,1,2.57c.67,2.2-.06,4.46-.18,6.6l.18.12c1.46-.86,3.1-2.2,4.8-2.26.18.43.42-.12.61.06,3.1,1.1,3.16,5.26,3.4,8.19.18,2.26-1.21,4.34-3,5.75a8.57,8.57,0,0,1-4.61,1.22V422a8.44,8.44,0,0,0,3.95,2,7.83,7.83,0,0,0,3.4-.31,11.37,11.37,0,0,0,2.49-2.32,10.7,10.7,0,0,0,1.52-3.42,6,6,0,0,1-2.73-3.79,5,5,0,0,1,2.31-4.77,7.42,7.42,0,0,1,2.91-.55,5.12,5.12,0,0,1,3.89,3,5.29,5.29,0,0,1-1.33,5.44,7,7,0,0,0,6.44,3.24c1.64-1.28,1.4-3.61,1.09-5.5-1-.8-1.58-2-2.37-2.81l.12-.06a19.42,19.42,0,0,1-3.46-6.66c-1.09-3.24-1.76-6.85-.06-9.78.12-.12.3-.3.12-.43,1-.92,2.13-2.14,3.58-2.2.73-.49,1.7-.31,2.55-.73.3.06.73.24.73-.25.06-.12-.12-.12-.12-.18.61-.61.06-1.34.12-1.83-.18-1.16,1.15-2.2,1.4-2.69.73-.18,1.33-.8,2.25-.55.42,0,1.15-.37,1.52.12a2.77,2.77,0,0,1,2.49,1.41c.73,1.34.42,2.26.55,3.73l.37.31.12-.12c2.91.43,5.89,1.16,7.16,4.28a12.63,12.63,0,0,1,.18,5.81c-.43.24.06.55-.18.8a27.23,27.23,0,0,1-6.19,11.86c-.12,1.71-.36,3.55.79,5.26,2.73.86,5.28-1.34,6.68-3.18-.61-1.1-1.82-2.26-1.46-3.73a2.17,2.17,0,0,1,.18-1.59,4.65,4.65,0,0,1,3.4-3.12,4.91,4.91,0,0,1,5,2.2,5.75,5.75,0,0,0,.43.92c.67,1.47,0,2.87-.67,4.34-.36,1-2.73,1.16-1.46,2.57a6.88,6.88,0,0,0,4.55,4.77c.06,0,0,.24.18.18.61-.12,1.27.25,1.88,0a7.32,7.32,0,0,0,4.55-2.32c-2.85-.18-6-1.28-7.16-4.22-.12-.79-.85-1.77-.49-2.81l-.24-.18a12.09,12.09,0,0,1,2.07-7.34c.79-.92,1.88-.61,2.91-.55l.18.18a1.27,1.27,0,0,1,1.09.3c1,.55,1.76.86,2.73,1.41-.18-1.28-.37-2.81-.43-4.1a2.08,2.08,0,0,1,.12-1.59c-.3-.3,0-.79,0-1.16a5.31,5.31,0,0,1,3.4-4l1-.12h.61c2.12-.25,4.74.86,6.68,1.41l.24.36a.36.36,0,0,0,.06-.24,6.23,6.23,0,0,1,3.16,3.42c-.3.24.18.49.12.73.06,2.87-1.58,5.38-3.28,7.64l.12.25a16.52,16.52,0,0,1,4.25.06,3.42,3.42,0,0,1,1.46,1l.3.24c-.18.37.61.73.12,1.22.73,1.59-.43,2.81-.36,4.53-1,2.87-3,6.05-6.5,6.17a10.07,10.07,0,0,1-4.25-.73c-.3.49.24.86.24,1.28a8.1,8.1,0,0,0,3.58,3.42c3.16.86,5.95-1.59,8-3.67-.43-1-1-2-1.34-2.94.18-1.41.36-3,1.52-4a5.66,5.66,0,0,1,1.94-1.1l.12.12c1.15-.61,2.49-.12,3.89.43a5.23,5.23,0,0,1,2,3.67,4.41,4.41,0,0,1-1.4,3.67c-.61.73-1.76.79-2.25,1.59.42,2.39.42,5,2.25,6.42,1.82,1,3.82-.18,5.34-1.16l.61-.79a17.18,17.18,0,0,0-2.55-.25,5.15,5.15,0,0,1-2.31-1.47,9.83,9.83,0,0,1,1.33-7.76,5.28,5.28,0,0,1,4.25-2.2c.12.25.3.24.49.06.12,0,.18.18.3.24.43-.24,1.09.37,1.64.37.67-.92.85-2.14,1.58-2.81a7.42,7.42,0,0,1,2.79-2.32c2.67-1.28,5.28-.61,8.26.06.42.12,1.15.18,1.21.67.49-.24.79.25,1.34.43.91,1.59-1.4,1.1-2.06,1.89a27.94,27.94,0,0,0-6.31,7.34c.18,1.47,1.33,2.57.61,4.1a4.65,4.65,0,0,1-3.89,3.3c-.49.24-1.27-.06-1.7,0-.75.9-1.52,1.8-2.32,2.65H578.3c1-1,2-2.05,2.92-3.07-.36-.3-.79-.92-1.27-1.1a8.71,8.71,0,0,1-6.19,3.73c-.73-.31-1.58.12-2.25-.43-.36.12-.49-.55-.73-.37-2.25-2-2.25-4.83-2.61-7.64-.55.06-1.09-.43-1.58-.37a17.8,17.8,0,0,1-6.19,4,1.82,1.82,0,0,0-1,.31,7.18,7.18,0,0,1-7-4.1c-.67-1.28-1.09-2.57-1.58-3.73.18-.8-.85-.18-1-.67l-.18.12c-1.21-.86-1.7.24-2.61.86a9.6,9.6,0,0,1-5.58,3.18c-.18,0-.49-.24-.61,0s-.24.12-.36-.06a12,12,0,0,1-2.55-.18c-3-.86-4.61-4.22-5.58-6.79a3,3,0,0,1-1.82-.31c-1,.67-1.7,2-2.85,2.69a6.61,6.61,0,0,1-6.44,1c-2.19-2.08-1.58-4.58-1.34-7.46a.73.73,0,0,1,.73-.49,26.58,26.58,0,0,0,4.92-9.35,14.1,14.1,0,0,0,.91-6c-.55-2.81-3-3.91-5.4-4.34-.85-.31-2.37.31-2.85-.67.06-1.47.49-3.12-.06-4.34-.42.06-.73-.37-1-.55a4.14,4.14,0,0,0-3.7.67,8.18,8.18,0,0,1-.55,1.59H513c0,1,.85,2.39-.36,3.24a11.42,11.42,0,0,0-3.46.43,5,5,0,0,0-3.89,3.79c-.24.43.12,1.16-.24,1.59a17.94,17.94,0,0,0,.85,4.58,9,9,0,0,0,.73,1.77,23.84,23.84,0,0,0,5.28,8.31c.55,2.51.79,5.75-1.76,7.58-3,.92-6.56-1.1-8.68-3.67a1.59,1.59,0,0,0-.91.12c-1.4-.61-1.21,1.35-1.76,2-.55.79-.55,1.34-1.28,2.08l.12.06a6.44,6.44,0,0,1-3.89,2.69,1.15,1.15,0,0,1-1.09.31,7.26,7.26,0,0,1-6.25-1.71,3.44,3.44,0,0,1-1.46-1.16c-.79-.43-1.34-2.26-2.43-.92-.61.12-1.34-.12-1.58.49-.85,3.06-2.61,7.09-6.07,7.82-3.4.92-7.28-1.71-9.47-4.09l-1.58.43c-.12.43-.06.8-.18,1.1a9.8,9.8,0,0,1-2,6.36,5.1,5.1,0,0,1-1.29.68h-4.18c-.52-.2-1-.69-1.45-.69-.85-1-2.12-1.59-2.79-2.57-.18.37-1,.61-1,1.16.64.74,1.27,1.44,1.9,2.08Z" transform="translate(-426 -386.77)"/><path d="M448.94,419.6a9.58,9.58,0,0,0-1.4-2.2,8,8,0,0,0-6.31-1.53c-.85.49-2.13.43-2.79.92.55.55,1.27,1,1.94,1.59v.37c.79,0,1.46,1.16,1.82,1.71l.12-.06c.85,1.16,2,2.39,2.67,3.54.24-.06.18.43.49.37.61-.43,1.4-1,2.06-.73a4.77,4.77,0,0,1,2.43.12,20.36,20.36,0,0,0-1-4.1" transform="translate(-426 -386.77)" style="fill:#d8b80a"/><path d="M466.18,420.27a3.32,3.32,0,0,0-2-1.83,3.28,3.28,0,0,0-3.52,1.4,3.43,3.43,0,0,0,.43,3.91c.55.43,1.28,1,2,.73l.12.18a3.18,3.18,0,0,0,2.43-.92,3.82,3.82,0,0,0,.55-3.48" transform="translate(-426 -386.77)" style="fill:#d8b80a"/><path d="M457.5,425.1c-.55-1.47-1.34-3.3-2.91-4-1.21-.55-2.19.24-3.28.73.55,1,.12,2.51.67,3.42,1-.18,1.82-.73,2.79-1a.88.88,0,0,1,.73,1.1,7.86,7.86,0,0,1-2.55,1.34c-.3.18-.06.55,0,.73.06.55-.18,1.65.42,1.83a7.11,7.11,0,0,0,3.77-.18c1.21-1.16.48-2.44.36-4" transform="translate(-426 -386.77)" style="fill:#d8b80a"/><path d="M450.82,426.57a3.35,3.35,0,0,0-2.61-1.59,3.77,3.77,0,0,0-3.1,2.2,4.6,4.6,0,0,0,.49,2.93,4.36,4.36,0,0,0,1.52,1.16c1.88.18,2.43.12,3.7-1.34a3.33,3.33,0,0,0,0-3.36" transform="translate(-426 -386.77)" style="fill:#d8b80a"/><path d="M518,429.81c-.91-.25-1.76.12-2.67-.18a14,14,0,0,1-3.58.12c-1.22.43-2.25,0-3.4.37a145.64,145.64,0,0,0-19,2.26c-.42-.18-.67.55-1,.12-1.4.49-2.79.55-4.07,1.1l-.18-.12c-2.31.43-4.67,1.22-7.1,1.77-.48.43-1.4.24-2,.73a110.17,110.17,0,0,0-15.48,5.32,4.3,4.3,0,0,0-.67,1.41,2.35,2.35,0,0,0,1.76,2.08c3.76-1.41,8.38-3.12,12.51-4.52,1.27-.49,2.73-.73,3.94-1.16,2.49-.67,5.34-1.47,8-2l.24-.24.12.18c9.71-2.69,20.52-3.42,31.27-3.61.37.24.79-.18,1.09.06a7.53,7.53,0,0,1,1.09-.12l.12.12c.12,0,.18-.12.24-.12a130,130,0,0,1,15.36,1.16,5.17,5.17,0,0,1,1.4.12c.61.06,1.28.18,1.82.18a187.3,187.3,0,0,1,19.67,4.22c3,.67,5.89,2.08,8.8,2.81.67.55,1.94.61,2.61,1.16,1,.06,1.88.73,2.85.79a2.11,2.11,0,0,0,1.4-.92c.61-.86.06-1.65-.36-2.38-2.25-.92-4.19-1.65-6.37-2.51a30.41,30.41,0,0,1-5.46-1.83l-.06.24c-.3-.43-.91-.12-1.21-.49a32.87,32.87,0,0,1-4.37-1.34c-.43.24-1.28-.12-1.64-.37s-1,.06-1.34-.37c-.85.31-1.58-.49-2.43-.37-.43,0-.49-.49-.85-.12-4.61-1.47-9.65-1.65-14.51-2.69l-.3.18c-2.85-.43-5-.67-8.07-1a28.47,28.47,0,0,1-4.07-.18c-1.34.43-2.8-.37-4.13.06" transform="translate(-426 -386.77)" style="fill:#d8b80a"/><path d="M535.21,436.41a14.28,14.28,0,0,0-2.55-.37,5.3,5.3,0,0,0,.85.18l-.06.12,1.46,1.28c.67,1.41,1.15,2.87.42,4.4a4.66,4.66,0,0,1-3,2.38c1.46.3,3.1.18,4.8.61-.24-1-.79-1.77-.67-2.93a4.14,4.14,0,0,1,2.43-2.63c.3.06.91-.12,1.4-.12.36.18,1,.12,1.34.37,1.94.18,4.13.73,6.19.92,1,.3,1.94.3,2.73,1.1a3.8,3.8,0,0,1,.79,3.61,3.12,3.12,0,0,1-1.82,1.9,6.48,6.48,0,0,0,2.25.73c.73-.18,1.21.73,1.82.31.73.61,1.4.37,2.25.73-.06-.25-.55-.18-.43-.55-.73-.06-.3-1-.91-1.28-.3-1.65-.3-3.48,1.09-4.58a3.94,3.94,0,0,1,2.91-1.22v-.12c-2-.49-3.82-1.22-5.77-1.59-2.18-.43-3.76-1-5.77-1.28-.67-.31-1.52-.18-2.18-.43-2.91-.43-6.62-1.59-9.59-1.53" transform="translate(-426 -386.77)" style="fill:#d8b80a"/><path d="M499.63,436.23c-3.89.12-8.07,1.47-12,2-.73.12-1.4.61-2.24.43-3.7,1.16-8.26,2-12,3.36.67.24,1.94-.12,2.73.73,1,.49,1.4,1.65,1.82,2.32.55,1.77-.55,3.42-1.28,4.58.61,0,1.34-.67,2.13-.55,1.15-.49,2.19-.43,3.46-1a3.5,3.5,0,0,1-3.4-1.65c-.79-1.22-.42-2.2-.06-3.42a4,4,0,0,1,3.46-1.83c.18,0,.85-.37,1.15-.18l.24-.18c2.79-.37,5.1-1.35,7.71-.73a3.9,3.9,0,0,1,2.06,2.69,4.23,4.23,0,0,1-1.27,3,38,38,0,0,0,4.61-.79,7.32,7.32,0,0,0,2.91-.43c-1.21-.06-1.94-1.1-2.55-1.77a4.36,4.36,0,0,1-.3-4,4.77,4.77,0,0,1,2.85-2.51" transform="translate(-426 -386.77)" style="fill:#d8b80a"/><path d="M548,442.4l-2.12-.37c-2.49.06-4.86-1.71-7.22-.43-.43.24-.36,1.16-.36,1.71.24.49.73,1.16,1.34,1.16,1.52.55,3.4.37,5.1.92,1.46.12,3,.73,4.43.18.61-.31.67-1.41.49-1.9-.06-1-1-1.1-1.64-1.28" transform="translate(-426 -386.77)" style="fill:#d8b80a"/><path d="M491.55,442.65a2,2,0,0,0-2.25-1.16c-2.61.61-5.59,1.1-8.2,1.53a1.64,1.64,0,0,0-.91,1.47c-.06.49-.06,1.47.73,1.77,1.94.18,3.76-.49,5.52-.67,2-.86,5.28.18,5.1-2.93" transform="translate(-426 -386.77)" style="fill:#d8b80a"/><path d="M563.37,442.71c-.85-.24-1.82-.43-2.61-.73a5.45,5.45,0,0,1,1.76,1.77c.24,1,.73,2.75-.18,3.85a4.11,4.11,0,0,1-3.46,2.38c1.76.43,3.58,1.1,5.22,1.65.24.06.79.55,1.21.37l-.18-.06c-.24-1.53-1-3.36-1.34-4.89.42-1.16,1.76-1.16,2.61-1.83a10.26,10.26,0,0,0,1.46-.61c.12-.3-.36-.24-.42-.55-1.21.12-2.31-.92-3.4-1-.24-.31-.66-.06-.67-.3" transform="translate(-426 -386.77)" style="fill:#d8b80a"/><path d="M471.16,442.71a26.66,26.66,0,0,1-3.22,1c-1,.73-2.61.8-3.64,1.59,1.34,1,3.52.86,4.13,2.63-.3,1.65-1.09,3.48-1.33,5.07a41.58,41.58,0,0,1,5-1.89c.37-.31.91,0,1-.55a4.32,4.32,0,0,1-1.88-7.82" transform="translate(-426 -386.77)" style="fill:#d8b80a"/><path d="M513.59,445.27a10.3,10.3,0,0,1-1.94-.06c-5.1.55-9.83.61-14.69,1.59-1.52,0-3.22.55-4.61.61-3.34.73-6.56,1.47-10.08,2.32a9.12,9.12,0,0,1-2.25.55c-2.25.92-4.25,1.16-6.62,2.2-.36.06-1,.37-1.4.25a6.55,6.55,0,0,1-2.67,1l.06.25,3-.18.18.18c2.31-.31,4.67.18,7-.18a4.26,4.26,0,0,1,1.46-.24,126.92,126.92,0,0,1,18.64-4c2.19-.24,4.43-.79,6.62-.55a41.79,41.79,0,0,1,8.86-.49l.12-.12c1,.31,2.31-.12,3.4.06,2.61-.12,4.67.12,7.22.18.3.06.85.31,1.16.12a120.19,120.19,0,0,1,14.45,2,40.92,40.92,0,0,1,6.8,1.53,4.18,4.18,0,0,1,1.7.31c1.76.8,3.94.67,5.64.8,1.94-.12,3.22,0,5.1-.12.3-.12,1,.06,1.4-.06l.12.12c.18-.18.79.06.73-.24a5.18,5.18,0,0,0-1.52-.43c-2.73-1.28-5.53-1.59-8.2-2.57a45.46,45.46,0,0,1-5.71-1.53v.12a85.65,85.65,0,0,0-12-2.08v-.12c-2.91-.43-6.07-.61-9.29-.92-.3.18-.67-.55-1-.06a110.82,110.82,0,0,0-11.78-.24" transform="translate(-426 -386.77)" style="fill:#d8b80a"/><path d="M570.29,446.62l-.18-1c-1.4.06-2.85,1.47-4.37,1.89.73,1.65.73,3.18,1.4,4.89,1.15-.43,2.31-1.16,3.46-1.53a1.24,1.24,0,0,0,.79-.49.74.74,0,0,0-.18-.61,32,32,0,0,0-.91-3.12" transform="translate(-426 -386.77)" style="fill:#d8b80a"/><path d="M466.48,448.21a25.24,25.24,0,0,0-4.13-1.89A36.7,36.7,0,0,0,461,451.2c1.34.86,2.61,1,3.7,1.83.3-.12.49.43.61-.06.24-1.65,1-3.18,1.15-4.77" transform="translate(-426 -386.77)" style="fill:#d8b80a"/><path d="M521.34,439.35c-1.82-.8-3.7-1.53-5.58-2.14a57.07,57.07,0,0,1-5.34,2.14,13.58,13.58,0,0,1,2.55,1.16c.79.12,1.7.61,2.49.73.85.61,1.76-.49,2.55-.49a25.49,25.49,0,0,1,3.34-1.41" transform="translate(-426 -386.77)" style="fill:#d8b80a"/><path d="M553.66,399a20.56,20.56,0,0,0-2.06-.55c-1.46.18-3.28.61-3.64,2.2-.3.25.24.61-.24.73l.12.18a4.89,4.89,0,0,1-.36,1.77c.18,1.1.24,2.14.36,3.18a4.46,4.46,0,0,0,.36,1.28c.43,1.35.73,2.63,1.22,3.85.55-.06,1.58.37,1.64-.61,0-.67.3-1.28.24-1.77l.12-.18c.49-1.83.79-3.91,1.4-5.87a1,1,0,0,1,.79-.37,1.25,1.25,0,0,1,.73.92c-.55,2.44-1,4.71-1.58,7-.73,1.16.48,1.65,1.27,2.08a52.33,52.33,0,0,0,3.76-4.28c1-1.71,2.43-3.91,2.19-5.93-.91-2.87-3.76-3.24-6.31-3.67" transform="translate(-426 -386.77)" style="fill:#d8b80a"/><path d="M482.81,399.8c-1.94-1.41-4.43-.43-6.5,0a7.09,7.09,0,0,0-4.31,2.57c-.85,3.73,1.52,6.42,4,9.17.91.55,1.64,2.93,2.91,1.22.61-.67-.24-2-.3-3a16.37,16.37,0,0,0-.55-2.32c-.3-1.28-.36-2.14-.73-3.3.06-.49.61-.49.85-.67.55-.06.67.61.91.86.61,2.63,1.34,5.26,1.88,7.82a13.09,13.09,0,0,1,1.46.06,10.93,10.93,0,0,0,.67-2.26c.06-.37.43-.86.18-1,.73-3.06,1.58-6.66-.49-9.11" transform="translate(-426 -386.77)" style="fill:#d8b80a"/><path d="M545.83,409.7a25.41,25.41,0,0,0-3.16-1.83c-.24,0-.73-.37-.85-.12-1.52-.37-1.52,1.53-2.13,2.45.06,1-.79,2-.36,3.12-.49.31.3.55-.12.86.24,1.1.3,2.44,1.09,3.36,1.15,1.77,3.28,2.14,5.16,2.2.37-.31.91.12,1.09-.49a5.67,5.67,0,0,1-.73-3.67c.12-.43-.55-.43-.73-.43-1.52-.79-3.28-.86-4.43-1.83-.3-.43.12-.73.18-1s.49-.06.67-.24c.24.37.67-.12.73.49.36-.18.79-.06.85.18a22.27,22.27,0,0,1,2.85,1c.91.55,1-.8,1.76-1a3.15,3.15,0,0,0-1.88-2.93" transform="translate(-426 -386.77)" style="fill:#d8b80a"/><path d="M490.52,407.93c-.24,0-.55.24-.73-.06l-.06.24c-2.12,1-5.52,1.83-5.65,4.83l1.27,1.28c1.46-.55,3.22-1.16,4.74-1.71.18.12.55-.37.73.12a.88.88,0,0,1,.3,1.1c-1.7,1-3.4,1.22-5,2.14.18,1.35-.43,2.69-.73,4l1.76.31c.24-.31.67.06,1-.24l.18.12a6.41,6.41,0,0,1,1.76-.73c2.13-1.16,2.55-3.73,2.55-5.74-.18-1.83-.43-4.16-2.06-5.69" transform="translate(-426 -386.77)" style="fill:#d8b80a"/><path d="M534.35,411.41a3.24,3.24,0,0,0-2.79-1.28,3.75,3.75,0,0,0-2.73,2.57,4,4,0,0,0,1.27,3.3,3.77,3.77,0,0,0,2.43.43,3.63,3.63,0,0,0,2.18-1.59,3.29,3.29,0,0,0-.36-3.42" transform="translate(-426 -386.77)" style="fill:#d8b80a"/><path d="M502.79,412.27a3.8,3.8,0,0,0-2.19-1.83,3.28,3.28,0,0,0-3,1A3.47,3.47,0,0,0,497,415a3.25,3.25,0,0,0,3,1.77,2.63,2.63,0,0,0,2.31-1.16,3.59,3.59,0,0,0,.49-3.3" transform="translate(-426 -386.77)" style="fill:#d8b80a"/><path d="M562.77,412.57c-1.82-1.16-4.25-.24-6.07-.06l-1.76,2a1.73,1.73,0,0,1,.43,1.4l.12-.18.18.18c1.76,0,3,.37,4.8.43a1,1,0,0,1,.67,1.1c-.36.85-1.64.49-2.13.61-1.15-.31-2.55-.37-3.64-.55a7.09,7.09,0,0,1-1.94,3c-.48-.18-.42.31-.48.55a6.92,6.92,0,0,0,4.55,1.47,5.4,5.4,0,0,0,4.37-3.49c.91-2,1.82-4.4.91-6.42" transform="translate(-426 -386.77)" style="fill:#d8b80a"/><path d="M475.22,413.12a19.34,19.34,0,0,0-3.22-.37,3.5,3.5,0,0,0-2.85.49,2.36,2.36,0,0,0-.49,1.47c.3,3.24,1.58,7,4.68,8.19,2,.24,4.31.12,5.64-1.59-1.58-.73-1.7-2.2-2.67-3.3a31,31,0,0,1-4.86.61c-.42-.18-.91-.43-.73-1,.67-1.1,2.07-.73,3.1-.86,1-.37,1.76-.06,2.73-.55.12-.37-.12-.67.24-1-.18-.92-1-1.41-1.58-2.14" transform="translate(-426 -386.77)" style="fill:#d8b80a"/><path d="M552.87,414.34a3,3,0,0,0-3.7-.67,3,3,0,0,0-1.58,2.14,2.88,2.88,0,0,0,.79,2.81,3.19,3.19,0,0,0,3,.92c.73-.43,1.64-.73,1.88-1.65a2.07,2.07,0,0,0,.3-1.16,2.66,2.66,0,0,0-.73-2.38" transform="translate(-426 -386.77)" style="fill:#d8b80a"/><path d="M483.48,414.83a2.46,2.46,0,0,0-1.4-1,3.55,3.55,0,0,0-2.91.73,3.25,3.25,0,0,0-.73,3.79,5.15,5.15,0,0,0,2,1.65,2.67,2.67,0,0,0,2.49-.49c.18.19.31-.24.55-.24a3.72,3.72,0,0,0,.79-3.42c-.3-.37-.43-.92-.79-1" transform="translate(-426 -386.77)" style="fill:#d8b80a"/><path d="M592.45,415.26a1.42,1.42,0,0,1-1-.31c-1.88-.18-3.76-.37-5.59.55-2.79,1.34-3.46,4.77-3.88,7.27l1.58-.37a7.29,7.29,0,0,1,3.1.79c.91-1,1.52-2.08,2.37-3.24a33.36,33.36,0,0,1,4.49-4.34l-1.09-.37Z" transform="translate(-426 -386.77)" style="fill:#d8b80a"/><path d="M571.45,419.23a3.31,3.31,0,0,0-3.34-1.71,4.18,4.18,0,0,0-2.49,2.38,3.61,3.61,0,0,0,1.52,3.73c.36-.12.73.49,1.09.31,1.15-.06,2.13,0,2.85-1.16a3.44,3.44,0,0,0,.36-3.55" transform="translate(-426 -386.77)" style="fill:#d8b80a"/><path d="M580.61,420.95a4.54,4.54,0,0,0-2.85-.92c-2.31.73-3,3.36-3.52,5.38.18.8-.36,2,.55,2.69a5.07,5.07,0,0,0,4.31.06c-.3-.8.24-1.41.06-2.26a17.27,17.27,0,0,0-2.37-1,.84.84,0,0,1-.12-1.34,4.89,4.89,0,0,1,3.28.92,14.65,14.65,0,0,0,.67-3.48" transform="translate(-426 -386.77)" style="fill:#d8b80a"/><path d="M586.81,425.9a3,3,0,0,0-1.76-1.59c-1.09-.73-2.06.06-3.1.43a3,3,0,0,0-1.09,2,3.39,3.39,0,0,0,1.46,3.3,3.42,3.42,0,0,0,2.61.3,4.3,4.3,0,0,0,1.94-2,3.11,3.11,0,0,0-.06-2.45" transform="translate(-426 -386.77)" style="fill:#d8b80a"/><path d="M487,459.23a6.24,6.24,0,0,0-1.06-.4,7.76,7.76,0,0,0-2-.24,4.79,4.79,0,0,0-2.44.68,5.34,5.34,0,0,0-2,2.19,8.48,8.48,0,0,0-.84,3.91,7.91,7.91,0,0,0,1.53,5,4.93,4.93,0,0,0,3.95,1.88,9.62,9.62,0,0,0,1.86-.17,7.13,7.13,0,0,0,1.09-.3l-.1-2.76a7.19,7.19,0,0,1-.8.4,4.3,4.3,0,0,1-1.61.3,2.69,2.69,0,0,1-2.2-1.19,5.29,5.29,0,0,1-.88-3.12,5.57,5.57,0,0,1,.82-3.18,2.61,2.61,0,0,1,2.21-1.18,4,4,0,0,1,1.51.28,5.14,5.14,0,0,1,.88.48l.14-2.57Z" transform="translate(-426 -386.77)"/><path d="M494.24,466.85H491.6l1.4-5.49h0Zm1.26,5.19h2.83l-3.78-13.22h-3L487.62,472h2.66l.81-3h3.69l.72,3Z" transform="translate(-426 -386.77)"/><path d="M502.33,461.12H503a2.61,2.61,0,0,1,2.34,1.18,6,6,0,0,1,.73,3.23,5.65,5.65,0,0,1-.7,3,2.47,2.47,0,0,1-2.2,1.19h-.88ZM499.56,472h3.82a5.76,5.76,0,0,0,2.77-.67,5,5,0,0,0,2-2.11,8,8,0,0,0,.79-3.71,9,9,0,0,0-.77-4,4.79,4.79,0,0,0-1.94-2.13,5.12,5.12,0,0,0-2.54-.63h-4.18V472Z" transform="translate(-426 -386.77)"/><rect x="84.82" y="72.06" width="2.76" height="13.22"/><polygon points="96.85 72.05 89.3 72.05 89.3 74.44 93.75 74.44 89.18 82.73 89.18 85.27 96.91 85.27 96.91 82.89 92.28 82.89 96.84 74.47 96.85 72.05"/><path d="M537,459.23a6.24,6.24,0,0,0-1.06-.4,7.76,7.76,0,0,0-2-.24,4.78,4.78,0,0,0-2.43.68,5.33,5.33,0,0,0-2,2.19,8.48,8.48,0,0,0-.84,3.91,7.9,7.9,0,0,0,1.53,5,4.93,4.93,0,0,0,3.95,1.88,9.48,9.48,0,0,0,1.86-.17,7.13,7.13,0,0,0,1.09-.3l-.1-2.76a6.83,6.83,0,0,1-.8.4,4.3,4.3,0,0,1-1.61.3,2.69,2.69,0,0,1-2.2-1.19,5.29,5.29,0,0,1-.88-3.12,5.57,5.57,0,0,1,.82-3.18,2.61,2.61,0,0,1,2.21-1.18,4,4,0,0,1,1.51.28,5.12,5.12,0,0,1,.88.48l.14-2.57Z" transform="translate(-426 -386.77)"/><rect x="112.47" y="82.42" width="2.42" height="2.84"/><polygon points="119.64 77.43 119.64 74.36 123.5 74.36 123.5 72.05 116.98 72.05 116.98 85.27 119.64 85.27 119.64 79.74 123.35 79.74 123.35 77.43 119.64 77.43"/><rect x="123.65" y="82.44" width="2.43" height="2.84"/></svg>