<?xml version="1.0" encoding="utf-8"?>
<!-- Generator: Adobe Illustrator 22.1.0, SVG Export Plug-In . SVG Version: 6.00 Build 0)  -->
<svg version="1.1" id="Livello_1" xmlns="http://www.w3.org/2000/svg" xmlns:xlink="http://www.w3.org/1999/xlink" x="0px" y="0px"
	 viewBox="0 0 698.7 821.6" style="enable-background:new 0 0 698.7 821.6;" xml:space="preserve">
<style type="text/css">
	.st0{fill:#9D864A;}
	.st1{fill:none;stroke:#9D864A;stroke-width:2.1666;}
	.st2{fill:#012F73;}
	.st3{fill:none;stroke:#012F73;stroke-width:2.1666;}
	.st4{fill:#FFFFFF;}
	.st5{fill:none;stroke:#FFFFFF;stroke-width:2.1666;}
	.st6{fill:#EF0007;}
	.st7{fill:none;stroke:#EF0007;stroke-width:2.1666;}
	.st8{fill:#DB0007;}
	.st9{fill:none;stroke:#DB0007;stroke-width:2.1666;}
	.st10{fill:none;stroke:#EF0007;stroke-width:0.8667;}
	.st11{fill:none;stroke:#DB0007;stroke-width:0.8667;}
	.st12{fill:none;stroke:#FFFFFF;stroke-width:0.8667;}
</style>
<g>
	<path class="st0" d="M349.4,1.1C266.2,1.1,113,22.6,34.8,68C-68,432.2,71.9,679.9,349.4,820.4C626.9,679.9,766.7,430.9,663.9,68
		C585.8,22.6,432.5,1.1,349.4,1.1z"/>
	<path class="st1" d="M349.4,1.1C266.2,1.1,113,22.6,34.8,68C-68,432.2,71.9,679.9,349.4,820.4C626.9,679.9,766.7,430.9,663.9,68
		C585.8,22.6,432.5,1.1,349.4,1.1z"/>
	<path class="st2" d="M349.4,24.5c-81.7,0-173.6,10.4-294.1,59.6C-34.4,402,69.6,656.8,349.4,795.7
		C629.1,656.8,733.1,402,643.4,84.1C523,34.9,431.1,24.5,349.4,24.5z"/>
	<path class="st3" d="M349.4,24.5c-81.7,0-173.6,10.4-294.1,59.6C-34.4,402,69.6,656.8,349.4,795.7
		C629.1,656.8,733.1,402,643.4,84.1C523,34.9,431.1,24.5,349.4,24.5z"/>
	<path class="st4" d="M349.4,795.4C618.7,629.3,678.9,391.6,597.2,66.1c-78.7-29.8-166-41.9-247.3-41.9L349.4,795.4z M349,24.2
		c-81.3,0-168.6,12-247.3,41.9C20,391.6,80.2,629.3,349.4,795.4L349,24.2L349,24.2z"/>
	<path class="st5" d="M349.4,795.4C618.7,629.3,678.9,391.6,597.2,66.1c-78.7-29.8-166-41.9-247.3-41.9L349.4,795.4z M349,24.2
		c-81.3,0-168.6,12-247.3,41.9C20,391.6,80.2,629.3,349.4,795.4L349,24.2L349,24.2z"/>
	<path class="st6" d="M349.4,24.1c-81.7,0-164.5,12.3-231.8,35.8c-84.6,341.1-16.7,571.5,231.9,729L349.4,24.1z"/>
	<path class="st7" d="M349.4,24.1c-81.7,0-164.5,12.3-231.8,35.8c-84.6,341.1-16.7,571.5,231.9,729L349.4,24.1z"/>
	<path class="st8" d="M349.6,24.1c81.7,0,164.5,12.3,231.8,35.8c84.6,341.1,16.7,571.5-231.9,729L349.6,24.1z"/>
	<path class="st9" d="M349.6,24.1c81.7,0,164.5,12.3,231.8,35.8c84.6,341.1,16.7,571.5-231.9,729L349.6,24.1z"/>
	<path class="st4" d="M243.8,539c-36.1,24.7-64.8,33.6-98.1,42.4l-20.1-31.2c30.6-15.5,62.3-37.1,94.3-68.4
		C222.6,512.2,236.7,533.7,243.8,539L243.8,539z"/>
	<path class="st0" d="M238.9,537.6c-34.2,23.5-81.9,39.8-136.5,47.9l-11.1-16.9c46.7-17.5,91.9-43.6,126.9-80.3
		C223.5,511.8,231.5,527.4,238.9,537.6L238.9,537.6z"/>
	<path class="st4" d="M147.7,394.2c0,13.1-10.6,23.7-23.7,23.7c-13.1,0-23.7-10.6-23.7-23.7c0-13.1,10.6-23.7,23.7-23.7
		C137.1,370.4,147.7,381.1,147.7,394.2z"/>
	<path class="st4" d="M145.2,347.4v89.5h70.5c4.6-29.9,21.7-61.8,60.3-89.5H145.2"/>
	<path class="st4" d="M148,436.9c-15.8,0.3-28.7-19.5-28.9-44.2c-0.2-24.7,12.4-45,28.2-45.3c0.2,0,0.4,0,0.5,0"/>
	<path class="st0" d="M137.7,394.2c0,10.1-7.3,18.3-16.4,18.3c-9.1,0-16.4-8.2-16.4-18.3c0-10.1,7.3-18.3,16.4-18.3
		C130.3,375.9,137.7,384.1,137.7,394.2L137.7,394.2z"/>
	<path class="st0" d="M147.1,352.1v80.5h70c5.5-26.7,19.1-55.2,53-80.5L147.1,352.1"/>
	<path class="st0" d="M149.7,432.6c-14.8,0.3-27-17.5-27.2-39.7c-0.2-22.2,11.7-40.4,26.5-40.7c0.2,0,0.3,0,0.5,0"/>
	<path class="st4" d="M483.4,457.9c0,74.7-60.5,135.2-135.2,135.2c-74.7,0-135.2-60.5-135.2-135.2c0-74.7,60.5-135.2,135.2-135.2
		C422.8,322.7,483.4,383.2,483.4,457.9L483.4,457.9z"/>
	<path class="st0" d="M476.3,457.9c0,70.7-57.4,128.1-128.1,128.1c-70.8,0-128.1-57.4-128.1-128.1c0-70.7,57.4-128.1,128.1-128.1
		C418.9,329.8,476.3,387.2,476.3,457.9z"/>
	<path class="st4" d="M455,457.9c0,59-47.8,106.8-106.8,106.8c-59,0-106.8-47.8-106.8-106.8c0-59,47.8-106.8,106.8-106.8
		C407.2,351.1,455,398.9,455,457.9z"/>
	<path class="st0" d="M447.9,457.9c0,55.1-44.7,99.8-99.8,99.8c-55.1,0-99.8-44.7-99.8-99.8c0-55.1,44.7-99.8,99.8-99.8
		C403.3,358.1,447.9,402.8,447.9,457.9z"/>
	<path class="st4" d="M389.8,457.9c0,23-18.6,41.6-41.6,41.6c-23,0-41.6-18.6-41.7-41.6c0,0,0,0,0-0.1c0-23,18.6-41.6,41.6-41.7
		C371.1,416.2,389.8,434.9,389.8,457.9C389.8,457.9,389.8,457.9,389.8,457.9z"/>
	<path class="st0" d="M384.9,457.9c0,20.3-16.4,36.7-36.7,36.7c-20.3,0-36.7-16.4-36.7-36.7c0,0,0,0,0-0.1
		c0-20.3,16.4-36.7,36.7-36.7C368.4,421.2,384.8,437.6,384.9,457.9C384.9,457.9,384.9,457.9,384.9,457.9z"/>
	<path class="st4" d="M367,457.9c0,10.4-8.4,18.8-18.8,18.9c-10.4,0-18.8-8.4-18.8-18.8c0,0,0,0,0,0c0-10.4,8.4-18.8,18.8-18.9
		C358.6,439,367,447.5,367,457.9C367,457.9,367,457.9,367,457.9z"/>
	<path class="st0" d="M361.8,457.9c0,7.5-6.1,13.7-13.6,13.7c-7.5,0-13.7-6.1-13.7-13.7c0,0,0,0,0,0c0-7.5,6.1-13.7,13.6-13.7
		C355.7,444.2,361.8,450.3,361.8,457.9C361.8,457.9,361.8,457.9,361.8,457.9z"/>
	<rect x="333.8" y="355.8" class="st4" width="28.4" height="66.3"/>
	<rect x="338.2" y="346.4" class="st0" width="19.6" height="84.2"/>
	
		<rect x="374.2" y="409" transform="matrix(0.8387 -0.5446 0.5446 0.8387 -164.7968 290.1033)" class="st4" width="66.3" height="28.4"/>
	
		<rect x="365.6" y="413.1" transform="matrix(0.8387 -0.5446 0.5446 0.8387 -164.5776 290.2834)" class="st0" width="84.2" height="19.6"/>
	
		<rect x="254.8" y="478.8" transform="matrix(0.8449 -0.535 0.535 0.8449 -219.0483 230.4796)" class="st4" width="66.2" height="28.4"/>
	
		<rect x="245.4" y="482.9" transform="matrix(0.8448 -0.5352 0.5352 0.8448 -219.0302 230.3663)" class="st0" width="84.2" height="19.6"/>
	<rect x="333.8" y="495.9" class="st4" width="28.4" height="66.3"/>
	<rect x="338.2" y="486.4" class="st0" width="19.6" height="84.2"/>
	<path class="st6" d="M320.5,488.9c3.9,3.2,8,6.1,13.4,8.3l-0.1,59.1c-26.8-3.4-47.1-16.7-62.4-35.5L320.5,488.9"/>
	<path class="st10" d="M320.5,488.9c3.9,3.2,8,6.1,13.4,8.3l-0.1,59.1c-26.8-3.4-47.1-16.7-62.4-35.5L320.5,488.9"/>
	<path class="st8" d="M375.8,489.1c-3.9,3.2-8,6.1-13.4,8.3l0.1,59.1c26.8-3.4,47.1-16.6,62.4-35.5L375.8,489.1"/>
	<path class="st11" d="M375.8,489.1c-3.9,3.2-8,6.1-13.4,8.3l0.1,59.1c26.8-3.4,47.1-16.6,62.4-35.5L375.8,489.1"/>
	<path class="st8" d="M389.2,464.3l58.6-7.1c0.5,14.7-3,27.6-8,40l-50.7-32.8"/>
	<path class="st4" d="M389.3,464.1c0.2-1,0.2-1.8,0.5-4.5l57.9-7.5c0.3,2.7,0.1,3.7,0.1,4.9L389.3,464.1L389.3,464.1z"/>
	<path class="st12" d="M389.3,464.1c0.2-1,0.2-1.8,0.5-4.5l57.9-7.5c0.3,2.7,0.1,3.7,0.1,4.9L389.3,464.1z"/>
	<path class="st4" d="M475,415.3h76c-2.4,9-4.7,18.1-15.6,22.2c-17.4,6.5-53.6,12.9-53.6,12.9C481.1,440.4,478.8,427,475,415.3z"/>
	<path class="st4" d="M422.1,346.1l198.4,0.3l-7,72.4L478,425.9C470.7,393.5,446.1,362.5,422.1,346.1z"/>
	<path class="st0" d="M429.1,351.3l253.3,0.2l-9.7,59l-196.5,9.7C468.4,390.8,450.7,369.5,429.1,351.3z"/>
	<path class="st0" d="M474.9,415.3h70c-2.3,8-4,15.3-14.2,18.9c-16.4,5.8-49.3,10.4-49.3,10.4C480.1,435,478.1,425.3,474.9,415.3z"
		/>
	<path class="st0" d="M517,233.7c-6.5,0-7.9-4.8-8.2-8c0.3-3.2,1.4-8,11.6-11.3c0.3,4,0.7,7.2,0.7,7.2v3.2c0.3,2.4,0.3,4.8,0.7,7.2
		C520.4,232.9,518.7,232.9,517,233.7 M389.7,222.4c-7.2,6.4-12.3,10.4-20.8,10.4c-6.8-0.8-10.9-4.8-13.3-10.4
		c7.2-2.4,34.8-12.9,42.7-16.1c0,6.4,0.3,13.7,0.3,13.7c0,4.8,0,9.6,0,13.7L389.7,222.4z M350.7,199.1c0-11.2,4.1-16.1,8.2-16.1
		c1.4,0,4.4-0.8,5.8,4.8c0.7,2.4,1,4,1,4.8c0,3.2-1.7,4-3.8,4v0.8c0,0-5.8,1.6-11.3,4C350.7,200.7,350.7,199.9,350.7,199.1z
		 M141.8,208c2-5.6,3.8-10.4,6.8-19.3c2,8.8,3.1,14.5,4.1,18.5C148.6,208,146.6,208,141.8,208z M398.2,240.9c0,3.2-0.7,12.1-1,14.5
		h39.3c-2.4-10.4-3.4-24.9-3.8-36.2c0,0.8-0.7-22.5-0.7-22.5c0-1.6,0.7-4,1.7-4.8c1.4-1.6,2.7-1.6,4.4-1.6c1.7-0.8,4.8-0.8,5.1,5.6
		l1,24.1c0.4,11.2,0.4,26.5-1,35.4h37.9c-0.3-3.2-1.4-11.2-1.7-13.7c4.8,10.4,15,16.1,28.7,16.1c8.2,0,14.3-3.2,19.1-6.4
		c0,0.8,2,4,2,4h70.3c-3.1-10.4-5.1-24.9-6.1-36.2l-9.9-78.8l-36.2-6.4c3.1,10.4,5.1,25.7,6.5,36.2l5.5,50.6
		c1,8.8,1.7,18.5,1.7,28.9v0.8l-1.4-3.2c-2.7-6.4-4.1-14.5-5.1-26.5l-1.4-16.1c-2-25.7-16-37-46.8-37c-5.1,0-18.1,0.8-25.9,3.2
		l2,28.9l8.2-4.8c6.8-4,12-5.6,18.1-5.6c4.8,0,7.9,1.6,9.2,4.8c-5.8,0.8-12.3,2.4-19.5,5.6c-10.9,4.8-17.7,12.1-20.8,20.1
		c0,0,0,0,0-0.8l-1-26.5c-0.7-16.9-11.6-28.1-28.3-28.1c-7.5,0-14.3,2.4-20.5,6.4c-0.3-0.8-0.7-1.6-1-2.4l-1.4-3.2l-31.4-1.6
		c1.4,5.6,3.4,21.7,3.8,27.3c-1.7-8-6.1-16.9-14.3-23.3c-6.5-4-14.7-6.4-23.2-6.4c-11.6,0-23.6,4.8-31.4,12.9
		c-8.2,8-12.3,19.3-12.6,32.1c-3.1-3.2-7.2-6.4-11.9-8l-14.3-7.2h-0.7c-3.4-1.6-3.8-2.4-3.8-3.2c0.3-1.6,3.8-3.2,8.2-3.2
		c6.1,0,14.7,3.2,21.5,7.2l0.7-25.7c-5.1-2.4-12.3-4-22.5-4c-5.5,0-15.7,0.8-24.6,5.6c-2.4,1.6-4.4,3.2-6.5,4.8l0.3-7.2
		c-8.2-1.6-17.1-1.6-28,8.8c-0.4-0.8-1-4.8-1.7-6.4l-33.8,1.6c2.4,9.6,2.7,23.3,2,35.4l-0.7,12.9v1.6c-0.3,6.4-0.7,13.7-1.4,20.1
		c-2.7-8.8-5.8-20.9-8.2-30.5l-16.7-75.5l-47.8,7.2c0.3,0.8,1,3.2,1.4,5.6c0.3,3.2,0.3,9.6-4.1,23.3c-7.9,21.7-18.8,54.7-29.4,78
		c-1.4,3.2-4.1,8-4.1,8h37.2c0.7-5.6,3.1-15.3,5.5-22.5c5.1,0,18.4,0,24.6-0.8c1.4,5.6,2.7,12.9,3.1,17.7l0.7,5.6h74.4
		c-1.7-12.1-1-28.1-0.3-37c0.7-10.4,2.7-17.7,7.2-21.7c3.4-4,7.2-4.8,9.9-4.8c-0.3,14.5,8.9,20.9,17.1,24.9l14.7,7.2
		c5.1,3.2,5.1,4,5.1,5.6c-0.3,2.4-4.4,3.2-8.2,3.2c-7.8,0-18.4-4.8-30-17.7l-0.7,33.8c9.2,4.8,20.8,7.2,31.1,7.2
		c17.1,0,35.2-8,39.9-23.3c8.5,16.1,25.3,23.3,41.7,23.3C377.7,256.2,388.6,251.3,398.2,240.9L398.2,240.9z"/>
	<path class="st4" d="M310.1,170.2c-3.4-0.8-8.5-2.4-16.7-2.4c-6.5,0-15,1.6-21.5,4.8c-7.5,4.8-13,11.2-13.3,18.5
		c-0.7,11.2,5.1,16.1,13.7,20.1c5.8,3.2,11.3,6.4,14.7,8c4.4,2.4,8.5,4.8,8.2,10.4c-0.3,5.6-5.5,9.6-14,9.6
		c-7.2,0-17.4-4.8-24.6-11.3l-0.3,16.9c6.1,3.2,16,4.8,25.3,4.8c15.7,0,35.2-7.2,35.5-24.9c0.3-13.7-9.2-18.5-15-21.7
		c-5.8-2.4-11.6-5.6-14.3-6.4c-2.7-1.6-8.2-3.2-7.9-9.6c0.7-5.6,7.2-8,14-8c5.8,0,11.6,1.6,16,4"/>
	<path class="st4" d="M133.6,213.6l16.4-47.4l9.9,46.6 M169.8,140.4l-36.2,4.8c0.7,4.8-0.7,14.5-4.4,25.7
		c-7.5,21.7-19.8,57.9-29.4,78.8h22.5c1.4-7.2,3.1-13.7,6.5-22.5l33.5-0.8c1.4,6.4,3.8,16.9,4.1,23.3h30.4
		c-3.8-8.8-8.5-27.3-11.6-40.2L169.8,140.4z"/>
	<path class="st4" d="M256.5,170.2l-0.7,16.1c-5.5-0.8-12.3,0.8-17.8,6.4c-4.8,4.8-7.9,12.1-8.5,24.9c-0.7,10.4-1,22.5-0.3,32.1
		h-25.6c1.7-9.6,2.4-20.9,2.7-31.4l0.7-12.8c0.7-10.5,0.7-20.9-1-30.5l22.5-0.8c1,3.2,1.7,8.8,1.4,14.5
		C239.8,173.4,249.3,170.2,256.5,170.2"/>
	<path class="st4" d="M578.4,145.3l-23.2-4c2.4,10.5,3.1,17.7,4.4,28.1l5.5,50.6c1,10.4,2,20.1,1.7,29.7h25.3
		c-2.4-9.6-3.4-19.3-4.4-29.7"/>
	<path class="st4" d="M474.3,249.7c-1.4-9.6-2-19.3-2.4-29.7l-1-26.5C470.2,179,462,171,448.4,171c-7.5,0-16.4,2.4-23.9,12.1
		c-0.3-2.4-1.4-8.8-2.7-12.1l-20.5-0.8c1.7,9.6,2.4,19.3,2.7,29.7l0.3,20.1c0.3,10.4,0,20.1-0.7,29.7h25.6
		c-1.4-9.7-2.1-19.3-2.4-29.7l-0.7-22.5c-0.3-8,5.8-13.7,11.9-13.7c7.2,0,10.6,4.8,10.9,12.1l1,24.1c0.3,10.4,0.3,20.1-0.3,29.7"/>
	<path class="st4" d="M517,239.3c-7.5,0-13.7-4-14-12.9c0-8.8,5.5-16.1,22.9-18.5l1,13.7c0.3,4.8,0.3,8,1,12.1
		C525.5,236.9,521.4,238.5,517,239.3 M554.2,249.7c-3.1-8-4.8-17.7-5.5-28.1l-1.4-16.1c-1.4-19.3-9.6-32.2-41-32.2
		c-5.5,0-13.3,0.8-19.8,2.4l1,14.5c6.5-4,13-7.2,21.2-7.2c8.5,0,15.7,4,16.4,16.1c-8.2,0.8-15.7,2.4-24.2,6.4
		c-9.6,4-19.5,12.1-18.4,24.9c1,14.5,11.9,20.9,25.6,20.9c10.6,0,17.7-4.8,21.8-9.6c0.7,3.2,1.7,5.6,2.7,8H554.2z"/>
	<path class="st4" d="M364.1,202.3l-18.4,7.2c-0.3-3.2-0.7-6.4-0.7-10.4c0-18.5,10.2-21.7,13.7-21.7c5.5-0.8,10.2,2.4,12,8.8
		C372.6,193.5,371.9,199.9,364.1,202.3 M380.1,172.6c-5.8-4-12.6-5.6-19.8-5.6c-16.7,0-38.9,12.1-38.2,42.6c0.3,31.3,24.2,41,41,41
		c14.7,0,23.6-5.6,30.7-12.9l-5.1-7.2c-3.8,3.2-9.9,8-19.8,8c-10.6-0.8-17.4-8-21.2-19.3l46.4-16.9
		C392.7,187.1,387.3,178.2,380.1,172.6z"/>
	
		<rect x="276.1" y="384.8" transform="matrix(0.548 -0.8365 0.8365 0.548 -218.3254 431.7052)" class="st4" width="28.4" height="66.2"/>
	
		<rect x="280.4" y="376.2" transform="matrix(0.5478 -0.8366 0.8366 0.5478 -218.7192 431.9483)" class="st0" width="19.6" height="84.2"/>
	
		<rect x="394.4" y="460.3" transform="matrix(0.548 -0.8365 0.8365 0.548 -228.0376 564.7996)" class="st4" width="28.4" height="66.2"/>
	
		<rect x="398.7" y="451.7" transform="matrix(0.5478 -0.8366 0.8366 0.5478 -228.4184 565.0708)" class="st0" width="19.6" height="84.2"/>
</g>
</svg>
