<svg xmlns="http://www.w3.org/2000/svg" viewBox="0 0 158.71 157.5"><title>Brighton Hove Albion logo - Brandlogos.net</title><path d="M590.82,511.94q0,1.93-.09,3.86t-.27,3.85q-.18,1.92-.46,3.83t-.65,3.8q-.37,1.89-.84,3.77t-1,3.72q-.56,1.85-1.2,3.67t-1.38,3.6q-.73,1.78-1.55,3.53T581.64,549q-.91,1.7-1.89,3.36t-2.06,3.27q-1.07,1.61-2.21,3.16t-2.37,3q-1.22,1.49-2.51,2.93t-2.65,2.8q-1.36,1.37-2.79,2.67t-2.91,2.53q-1.49,1.23-3,2.38t-3.15,2.23q-1.6,1.08-3.25,2.07t-3.35,1.91q-1.7.91-3.44,1.74t-3.52,1.57q-1.78.74-3.59,1.4t-3.66,1.22q-1.84.56-3.71,1t-3.76.85q-1.89.38-3.8.67t-3.83.48q-1.92.19-3.84.29t-3.85.1q-1.93,0-3.85-.09t-3.85-.27q-1.92-.18-3.83-.46t-3.8-.65q-1.89-.37-3.76-.84t-3.72-1q-1.85-.56-3.66-1.2t-3.6-1.38q-1.78-.73-3.53-1.56t-3.45-1.73q-1.7-.91-3.36-1.89t-3.26-2.06q-1.61-1.07-3.16-2.21t-3-2.37q-1.49-1.22-2.93-2.51t-2.8-2.65q-1.37-1.36-2.67-2.79t-2.53-2.92q-1.23-1.49-2.38-3T447,556q-1.08-1.6-2.07-3.26t-1.91-3.35q-.91-1.7-1.74-3.44t-1.57-3.52q-.74-1.78-1.4-3.6t-1.22-3.66q-.56-1.85-1-3.72t-.85-3.76q-.38-1.89-.67-3.8T434.1,520q-.19-1.92-.29-3.85t-.1-3.86q0-1.93.09-3.86t.27-3.85q.18-1.92.46-3.83t.65-3.8q.37-1.89.84-3.77t1-3.72q.56-1.85,1.2-3.67t1.38-3.6q.73-1.79,1.55-3.53t1.73-3.45q.91-1.7,1.89-3.36t2.06-3.27q1.07-1.61,2.21-3.16t2.37-3q1.22-1.49,2.51-2.93t2.65-2.8q1.36-1.37,2.79-2.67t2.91-2.53q1.49-1.23,3-2.38t3.15-2.23q1.6-1.08,3.25-2.07t3.35-1.91q1.7-.91,3.44-1.74t3.52-1.57q1.78-.74,3.59-1.4t3.66-1.22q1.84-.56,3.71-1t3.76-.85q1.89-.38,3.8-.67t3.83-.48q1.92-.19,3.84-.29t3.85-.1q1.93,0,3.85.09t3.85.27q1.92.18,3.83.46t3.8.65q1.89.37,3.76.84t3.72,1q1.85.56,3.66,1.2t3.6,1.38q1.78.73,3.53,1.56t3.45,1.73q1.7.91,3.36,1.89t3.26,2.06q1.61,1.07,3.16,2.21t3,2.37q1.49,1.22,2.93,2.51t2.8,2.65q1.37,1.36,2.67,2.79t2.53,2.92q1.23,1.49,2.38,3t2.23,3.15q1.08,1.6,2.07,3.26t1.91,3.35q.91,1.7,1.74,3.44t1.57,3.52q.74,1.78,1.4,3.6t1.22,3.66q.56,1.85,1,3.72t.85,3.76q.38,1.89.67,3.8t.48,3.83q.19,1.92.29,3.85t.1,3.86" transform="translate(-432.65 -433.25)" style="fill:#fff;fill-rule:evenodd"/><path d="M512.08,586.68q-1.83,0-3.66-.09t-3.66-.27q-1.82-.18-3.64-.45t-3.61-.63q-1.8-.36-3.58-.8t-3.53-1q-1.75-.53-3.48-1.15T483.5,581q-1.69-.7-3.35-1.49t-3.27-1.65q-1.62-.86-3.19-1.81t-3.1-2q-1.52-1-3-2.11t-2.89-2.26q-1.42-1.16-2.78-2.4t-2.65-2.53q-1.3-1.3-2.53-2.66t-2.39-2.78q-1.16-1.42-2.26-2.89t-2.11-3q-1-1.53-2-3.1t-1.81-3.19q-.86-1.62-1.65-3.28t-1.49-3.35q-.7-1.7-1.32-3.42t-1.15-3.48q-.53-1.76-1-3.54t-.8-3.58q-.36-1.8-.63-3.61t-.45-3.64q-.18-1.83-.27-3.66t-.09-3.67q0-1.83.09-3.67t.27-3.66q.18-1.83.45-3.64t.63-3.61q.36-1.8.8-3.58t1-3.54q.53-1.76,1.15-3.48t1.32-3.42q.7-1.7,1.49-3.35t1.65-3.28q.86-1.62,1.81-3.19t2-3.1q1-1.53,2.11-3t2.26-2.89q1.16-1.42,2.39-2.78t2.53-2.66q1.3-1.3,2.65-2.53t2.78-2.4q1.42-1.16,2.89-2.26t3-2.11q1.52-1,3.1-2t3.19-1.81q1.62-.86,3.27-1.65t3.35-1.49q1.69-.7,3.42-1.32t3.48-1.15q1.75-.53,3.53-1t3.58-.8q1.8-.36,3.61-.63t3.64-.45q1.82-.18,3.66-.27t3.66-.09q1.83,0,3.66.09t3.66.27q1.82.18,3.64.45t3.61.63q1.8.36,3.58.8t3.53,1q1.75.53,3.48,1.15t3.42,1.32q1.69.7,3.35,1.49t3.27,1.65q1.62.86,3.19,1.81t3.1,2q1.52,1,3,2.11t2.89,2.26q1.42,1.16,2.78,2.4t2.65,2.53q1.3,1.3,2.53,2.66t2.39,2.78q1.16,1.42,2.26,2.89t2.11,3q1,1.53,2,3.1t1.81,3.19q.86,1.62,1.65,3.28t1.49,3.35q.7,1.7,1.32,3.42t1.15,3.48q.53,1.76,1,3.54t.8,3.58q.36,1.8.63,3.61t.45,3.64q.18,1.83.27,3.66t.09,3.67q0,1.83-.09,3.67t-.27,3.66q-.18,1.83-.45,3.64t-.63,3.61q-.36,1.8-.8,3.58t-1,3.54q-.53,1.76-1.15,3.48t-1.32,3.42q-.7,1.7-1.49,3.35t-1.65,3.28q-.86,1.62-1.81,3.19t-2,3.1q-1,1.53-2.11,3t-2.26,2.89q-1.16,1.42-2.39,2.78t-2.53,2.66q-1.3,1.3-2.65,2.53t-2.78,2.4q-1.42,1.16-2.89,2.26t-3,2.11q-1.52,1-3.1,2t-3.19,1.81q-1.62.86-3.27,1.65T540.66,581q-1.69.7-3.42,1.32t-3.48,1.15q-1.75.53-3.53,1t-3.58.8q-1.8.36-3.61.63t-3.64.45q-1.82.18-3.66.27t-3.66.09m0-152.08q-1.91,0-3.81.09t-3.8.28q-1.9.19-3.78.47t-3.75.65q-1.87.37-3.72.84t-3.67,1q-1.82.55-3.62,1.2t-3.56,1.37q-1.76.73-3.48,1.55t-3.4,1.71q-1.68.9-3.32,1.88t-3.22,2q-1.58,1.06-3.12,2.2t-3,2.35q-1.47,1.21-2.89,2.49t-2.76,2.63q-1.35,1.35-2.63,2.76T452.07,463q-1.21,1.47-2.34,3t-2.19,3.12q-1.06,1.59-2,3.22t-1.88,3.32q-.9,1.68-1.71,3.41t-1.54,3.49q-.73,1.76-1.37,3.56t-1.2,3.62q-.55,1.83-1,3.68t-.83,3.72q-.37,1.87-.65,3.76t-.47,3.79q-.19,1.9-.28,3.8t-.09,3.81q0,1.91.09,3.81t.28,3.8q.19,1.9.47,3.79t.65,3.76q.37,1.87.83,3.72t1,3.68q.55,1.83,1.2,3.62t1.37,3.56q.73,1.76,1.54,3.49t1.71,3.41q.9,1.68,1.88,3.32t2,3.22q1.06,1.59,2.19,3.12t2.34,3q1.21,1.47,2.49,2.89t2.63,2.76q1.35,1.35,2.76,2.63t2.89,2.49q1.47,1.21,3,2.35t3.12,2.2q1.58,1.06,3.22,2t3.32,1.88q1.68.9,3.4,1.71t3.48,1.55q1.76.73,3.56,1.37t3.62,1.2q1.82.55,3.67,1t3.72.84q1.87.37,3.75.65t3.78.47q1.9.19,3.8.28t3.81.09q1.91,0,3.81-.09t3.8-.28q1.9-.19,3.78-.47t3.75-.65q1.87-.37,3.72-.84t3.67-1q1.82-.55,3.62-1.2t3.56-1.37q1.76-.73,3.48-1.55t3.4-1.71q1.68-.9,3.32-1.88t3.22-2q1.58-1.06,3.12-2.2t3-2.35q1.47-1.21,2.89-2.49t2.76-2.63q1.35-1.35,2.63-2.76t2.49-2.89q1.21-1.47,2.34-3t2.19-3.12q1.06-1.59,2-3.22t1.88-3.32q.9-1.68,1.71-3.41t1.54-3.49q.73-1.76,1.37-3.56t1.2-3.62q.55-1.83,1-3.68t.83-3.72q.37-1.87.65-3.76t.47-3.79q.19-1.9.28-3.8t.09-3.81q0-1.91-.09-3.81t-.28-3.8q-.19-1.9-.47-3.79t-.65-3.76q-.37-1.87-.83-3.72t-1-3.68q-.55-1.83-1.2-3.62t-1.37-3.56q-.73-1.76-1.54-3.49t-1.71-3.41q-.9-1.68-1.88-3.32t-2-3.22q-1.06-1.59-2.19-3.12t-2.34-3q-1.21-1.47-2.49-2.89T567,457.36q-1.35-1.35-2.76-2.63t-2.89-2.49q-1.47-1.21-3-2.35t-3.12-2.2q-1.58-1.06-3.22-2t-3.32-1.88q-1.68-.9-3.4-1.71t-3.48-1.55q-1.76-.73-3.56-1.37t-3.62-1.2q-1.82-.55-3.67-1t-3.72-.84q-1.87-.37-3.75-.65t-3.78-.47q-1.9-.19-3.8-.28t-3.81-.09" transform="translate(-432.65 -433.25)" style="fill:#0054a6;fill-rule:evenodd"/><path d="M516.15,451.62h-.37l-3.7-5.55v5.55h-1.85V442h1.85l3.7,5.92V442h1.85v9.62h-1.48m44.73,24.79,8.13-5.18,3.33,5.18-1.48,1.11-2.22-3.7-1.85,1.11,2.22,3L567.53,479l-2.22-3.33-1.85,1.48,2.59,3.7-1.48.74-3.7-5.18m-4.07-4.81,5.18-8.88,1.48,1.48-3.33,5.55,5.92-2.59,1.48,1.48-9.24,4.07-1.48-1.11M552,463.83v.74a.37.37,0,0,0,.37.37,1.3,1.3,0,0,0,1.11.37h.74a.37.37,0,0,0,.37-.37l.37-.37.74-.74c.37-.37.37-.74.74-.74,0-.37.37-.37.37-.74v-.74c0-.37-.37-.74-.74-1.11-.37,0-.37-.37-.74-.37h-1.11a.37.37,0,0,0-.37.37l-.37.37-.74.74c-.37.37-.37.74-.74.74,0,.37-.37.37-.37.74a.37.37,0,0,1-.37.37c.74,0,.74.37.74.37m.74,3.33c-.37,0-.74-.37-1.11-.74l-1.11-1.11c-.37-.37-.37-.74-.37-1.48v-.37a2.14,2.14,0,0,1,.37-1.48c.37-.37.74-1.11,1.48-1.85s1.11-1.48,1.85-1.85c.37-.37,1.11-.37,1.48-.74h1.48c.37,0,.74.37,1.11.74l1.11,1.11c.37.37.37.74.37,1.48v.37a2.71,2.71,0,0,1-.37,1.48c-.37.37-.74,1.11-1.48,1.85s-1.11,1.48-1.48,1.85-1.11.37-1.48.74h-1.85m-7.39-5.55,1.85-3.33-2.59-1.85-2.22,3.33-1.48-.74,4.81-8.51,1.85,1.11L545.35,455l3,1.85,1.85-3.33,1.85,1.11-5.18,8.14-1.48-1.11m-14.42-15.17-.37.37v.74a1.11,1.11,0,0,0,.37.74h.74c.37,0,.37,0,.37-.37l.37-.37v-.74l-.37-.37h-1.11m-2.22,3.7c-.37,0-.37.37-.37.74V452c0,.37.37.37.74.74h1.48l-.74-3a1.3,1.3,0,0,1-1.11.37M532,455l-.37-1.11c-.37,0-.74.37-1.11.37h-.37a1.3,1.3,0,0,1-1.11-.37,3.23,3.23,0,0,1-2.22-1.48,1.85,1.85,0,0,1,0-2.22A1.2,1.2,0,0,1,528,449c.37-.37.74-.37,1.48-.74,0-.37-.37-.74-.37-1.11v-1.11a5.06,5.06,0,0,1,1.11-1.48c.37,0,.74-.37,1.11-.37a1.3,1.3,0,0,1,1.11.37,5.07,5.07,0,0,0,1.11,1.48,1.31,1.31,0,0,1,.37,1.11v.74a1.26,1.26,0,0,1-.37.74,1.31,1.31,0,0,1-1.11.37h-.74l.74,2.22a1.76,1.76,0,0,0,.74-1.48l1.85.37c-.37.74-.37,1.11-.74,1.48a3.83,3.83,0,0,1-1.11,1.85l1.11,2.59L532,455m-27-8.88v-.74a1,1,0,0,1-.48-.63.36.36,0,0,0-.26-.11,1.3,1.3,0,0,0-1.11-.37h-.37c-.37,0-.37,0-.74.37a.37.37,0,0,0-.37.37v4.44a1,1,0,0,1,.48.63.36.36,0,0,0,.26.11l.37.37h.74c.37,0,.74-.37,1.11-.74a.37.37,0,0,1,.37-.37v-2.22c.37-.37,0-.74,0-1.11m-2.22,6.29c-.37,0-.74-.37-1.11-.74a5.06,5.06,0,0,1-1.11-1.48c-.37-.37-.37-1.11-.37-2.22V445.7a1.76,1.76,0,0,1,.74-1.48l1.11-1.11c.37-.37.74-.37,1.48-.37h1.48c.37,0,.74.37,1.11.74a5.06,5.06,0,0,1,1.11,1.48c0,.37.37,1.48.37,2.22v2.22a2.75,2.75,0,0,1-.74,1.48L505.79,452c-.37.37-.74.37-1.48.37h-1.48m-9.61-5.92-2.59.74-.37-1.48,7-1.85.37,1.48-2.59.74,2.22,7.4-1.85.74-2.22-7.77m-12.94,3.33,1.85-.74,1.48,3.7,3-1.48-1.48-3.7,1.85-.74,4.07,8.88-1.85.74-1.48-3.7-3,1.48,1.48,3.7-1.85.74-4.07-8.88m-4.07,12.58a1.76,1.76,0,0,1-1.48-.74c-.37-.37-.74-1.11-1.48-1.85a3.1,3.1,0,0,1-1.11-2.22c0-.37-.37-.74-.37-1.11v-.74a3.24,3.24,0,0,1,1.48-2.22,2.75,2.75,0,0,1,1.48-.74h1.85l-.37,1.85h-1.11c-.37,0-.37,0-.74.37s-.74.74-.74,1.11v1.11a1.11,1.11,0,0,0,.37.74c0,.37.37.74.74,1.11s.37.74.74,1.11a.37.37,0,0,0,.37.37l.37.37H477c.37,0,.74,0,.74-.37.37-.37.74-.74.74-1.11v-.74c0-.37,0-.37-.37-.74v-.37l-1.48,1.11-.74-1.48,3-2.22.74,1.11c.37.74.74,1.11.74,1.48V459a5.77,5.77,0,0,1-1.48,2.59,5.11,5.11,0,0,1-2.22.74c0,.37,0,.37-.37,0m-10.35-2.59,1.48-1.11,6.28,7.4-1.48,1.11-6.28-7.4m-2.59,5.55a1.26,1.26,0,0,0-.74.37l-1.11,1.11,1.85,1.48,1.11-1.11a1.31,1.31,0,0,0,.37-1.11c0-.37,0-.74-.37-.74h-1.11m-4.81,2.22,2.59-3c.37-.37.74-.74,1.11-.74a1.3,1.3,0,0,1,1.11-.37h1.11c.37,0,.74.37,1.11.74a2.75,2.75,0,0,1,.74,1.48v.37a1.31,1.31,0,0,1-.37,1.11l4.81,1.11-1.48,1.85L465.13,469l-.74,1.11,3,2.59-1.48,1.48-7.39-6.66m-2.22,6.29c-.37,0-.37.37-.74.74L454.41,476l1.85,1.11,1.11-1.48c0-.37.37-.37.37-.74s-.37-.37-.37-.74c-.74-.37-.74-.37-1.11-.37m3.33,2.22c-.37,0-.37.37-.74.74l-1.11,1.48,1.85,1.11,1.11-1.48c0-.37.37-.37.37-.74v-.37c0-.37-.37-.37-.37-.74-.74,0-.74-.37-1.11,0m3,.37v.37c0,.74-.37,1.11-.74,1.85L459.58,482l-8.13-5.18,2.22-3.33a3.6,3.6,0,0,1,1.85-1.48h.74a2.13,2.13,0,0,1,1.48.37c.37.37.74.74.74,1.11v.74c.37,0,.74-.37,1.11-.37a1.31,1.31,0,0,1,1.11.37c1.48.74,1.85,1.48,1.85,2.22" transform="translate(-432.65 -433.25)" style="fill:#0054a6;fill-rule:evenodd"/><path d="M582.32,504.16c-3.7,0-20.33-4.44-22.92-4.44-3.7,0-12.2,4.44-16.27,7.4-1.11.74-2.59,1.48-3.7,2.22h1.11a22.64,22.64,0,0,1,7,2.59c2.59,1.85,4.81,4.07,6.65,4.44h.37c2.22.37,8.5,1.85,8.13,5.55a20,20,0,0,0-9.61-.37,70.91,70.91,0,0,0-9.61,2.22c-4.07,1.48-15.16,5.55-24,5.55-6.65,0-20-3.7-27.73-4.44h-1.48c-5.92,0-10.72,3-13.31,3a15.83,15.83,0,0,1-10-3.33c-3-2.22-5.18-5.55-5.18-7.77a2.76,2.76,0,0,1,.74-1.85,2.73,2.73,0,0,1,1.85-.37c3,0,8.87,1.48,15.9,1.48a42.37,42.37,0,0,0,13.31-1.85,56.3,56.3,0,0,1,6.28-1.48,8.13,8.13,0,0,0,1.85,1.11h.74v-.37c-4.07-2.59-5.92-4.44-12.2-4.07-4.07,0-10.35.74-20.33,1.85a138.43,138.43,0,0,1-15.16,1.11c-6.28,0-9.61-.74-11.09-1.48a2.47,2.47,0,0,1-1.48-1.11,169.26,169.26,0,0,0,24-3.33c11.46-2.59,29.58-9.62,38.08-9.62,3,0,8.5,3.33,14,6.66,5.55,3.7,10.72,7.77,14.42,8.88a.37.37,0,0,0,0-.74,41.35,41.35,0,0,1-7.76-4.81C529.09,504.9,543.5,496,553.85,496c4.81,0,19.59,4.07,24,5.92a12.09,12.09,0,0,1,4.44,2.22c-.37-.37,0-.37,0,0m-.74-1.11a24.79,24.79,0,0,1-4.44-2.22l-11.09-3.7q-.66-2.32-1.51-4.58t-1.9-4.43q-1-2.18-2.27-4.25t-2.63-4q-1.4-2-3-3.8t-3.29-3.53q-1.72-1.69-3.58-3.23t-3.84-2.91q-2-1.37-4.08-2.57t-4.28-2.21q-2.19-1-4.46-1.83t-4.6-1.44q-2.33-.62-4.71-1t-4.78-.63q-2.4-.21-4.81-.22t-4.82.2q-2.4.2-4.78.61t-4.71,1q-2.33.61-4.6,1.42T489,461.48q-2.19,1-4.29,2.19t-4.09,2.56q-2,1.37-3.85,2.9t-3.59,3.22q-1.73,1.69-3.3,3.52t-3,3.79q-1.41,2-2.65,4t-2.29,4.24q-1.05,2.17-1.92,4.43t-1.53,4.57q-.67,2.32-1.13,4.69t-.72,4.77q-4.44.56-7.76,1.11c-4.44,0-7.76.37-7.76.37a.37.37,0,0,0-.37.37c0,.37,0,1.48,1.85,2.22A29.27,29.27,0,0,0,454,512.31h2.22q0,2.74.27,5.48t.81,5.42q.54,2.69,1.33,5.32t1.85,5.16q1,2.54,2.34,5t2.82,4.7q1.52,2.28,3.26,4.4t3.68,4.06q1.94,1.94,4.06,3.68t4.4,3.26q2.28,1.52,4.7,2.82t5,2.34q2.53,1,5.16,1.85t5.31,1.33q2.69.54,5.42.8t5.47.27q2.74,0,5.47-.27t5.42-.8q2.69-.54,5.31-1.33t5.16-1.85q2.53-1,5-2.34t4.7-2.82q2.28-1.52,4.4-3.26t4.06-3.68q1.94-1.94,3.68-4.06t3.26-4.4q1.52-2.28,2.82-4.7t2.34-5q1-2.54,1.85-5.16t1.33-5.32q.54-2.69.81-5.42t.27-5.48a48.71,48.71,0,0,0-1.11-10.36c5.92,1.11,12.94,3,15.16,3h.74a.37.37,0,0,0,.37-.37c0-.74-.37-1.11-1.48-1.48" transform="translate(-432.65 -433.25)" style="fill:#0054a6;fill-rule:evenodd"/><path d="M552.38,521.56a27.31,27.31,0,0,1,9.61.37c.37-3.7-6.65-5.18-8.5-5.55,0,0,1.11,1.85-4.44,2.59,0,0-2.59,0-3.33.74,0,.37,4.81,0,6.65,1.85" transform="translate(-432.65 -433.25)" style="fill:#f8af00;fill-rule:evenodd"/><path d="M512,433.25h-.3q-1.9,0-3.8.1t-3.79.28q-1.89.19-3.77.47t-3.75.65q-1.87.37-3.71.83t-3.67,1q-1.82.55-3.61,1.18t-3.55,1.36q-1.76.72-3.48,1.53t-3.4,1.69q-1.68.89-3.32,1.86t-3.23,2q-1.59,1-3.12,2.17t-3,2.32q-1.48,1.19-2.9,2.46t-2.78,2.6q-1.36,1.33-2.65,2.73t-2.51,2.85q-1.22,1.46-2.37,3T447,467.39Q446,469,445,470.58T443,473.87q-.92,1.67-1.76,3.37t-1.59,3.45q-.76,1.75-1.43,3.53T437,487.81q-.58,1.81-1.08,3.65t-.9,3.7q-.41,1.86-.72,3.74t-.54,3.77q-.22,1.89-.36,3.79t-.17,3.8v3.4q.07,3.28.41,6.54t1,6.48q.61,3.22,1.49,6.38t2,6.24q1.14,3.08,2.53,6t3,5.81q1.63,2.84,3.49,5.54t3.94,5.23q2.08,2.53,4.36,4.89t4.75,4.51q2.47,2.15,5.11,4.1t5.44,3.66q2.79,1.71,5.72,3.19t6,2.7q3,1.23,6.17,2.2t6.33,1.68q-2.22-.5-4.42-1.12t-4.34-1.38q-2.15-.75-4.26-1.63t-4.15-1.87q-2.05-1-4-2.11t-3.91-2.34q-1.92-1.23-3.77-2.56T462.46,573q-1.77-1.44-3.45-3t-3.27-3.18q-1.59-1.64-3.08-3.36T449.8,560q-1.39-1.81-2.67-3.7t-2.45-3.85q-1.17-2-2.22-4t-2-4.1q-.93-2.08-1.75-4.21t-1.5-4.31q-.69-2.18-1.25-4.39T435,527q-.43-2.24-.73-4.5t-.47-4.54q-.17-2.27-.21-4.56t.06-4.56q.09-2.28.32-4.55t.58-4.52q.36-2.25.85-4.48t1.1-4.42q.62-2.2,1.36-4.35t1.61-4.27q.87-2.11,1.85-4.17T443.4,474q1.1-2,2.32-3.92t2.55-3.78q1.33-1.85,2.76-3.63t3-3.46q1.53-1.69,3.16-3.28t3.35-3.1q1.72-1.5,3.52-2.9t3.68-2.69q1.88-1.29,3.83-2.47t4-2.24q2-1.06,4.09-2t4.2-1.77q2.13-.82,4.3-1.52t4.38-1.27q2.21-.57,4.44-1t4.49-.75q2.26-.31,4.53-.49t4.55-.23q2.28,0,4.56,0t4.55.3q2.27.22,4.52.56t4.48.83q2.23.48,4.43,1.08t4.36,1.34q2.16.73,4.27,1.59t4.17,1.84q2.06,1,4.06,2.07t3.93,2.31q1.93,1.21,3.79,2.53t3.64,2.75q1.78,1.43,3.47,3t3.3,3.15a78.39,78.39,0,0,0-56-23.59" transform="translate(-432.65 -433.25)" style="fill:#fff"/><path d="M512.08,433.49q-1.93,0-3.85,0t-3.85.24q-1.92.17-3.83.43t-3.8.61q-1.89.35-3.77.8t-3.73,1q-1.85.54-3.67,1.17T482,439.12q-1.79.72-3.54,1.52T475,442.33q-1.71.89-3.37,1.86t-3.28,2q-1.62,1.05-3.18,2.18t-3.07,2.34q-1.5,1.21-2.95,2.48t-2.82,2.63q-1.38,1.35-2.69,2.76t-2.55,2.89q-1.24,1.48-2.41,3t-2.26,3.13q-1.09,1.59-2.1,3.23t-1.94,3.33q-.93,1.69-1.77,3.42t-1.6,3.51q-.76,1.77-1.43,3.58t-1.25,3.65q-.58,1.84-1.07,3.7t-.89,3.75q-.4,1.89-.7,3.79t-.52,3.82q-.21,1.92-.33,3.84t-.14,3.85q0,1.93,0,3.86t.24,3.85q.17,1.92.43,3.83t.61,3.81q.35,1.9.8,3.77t1,3.73q.54,1.85,1.17,3.68t1.34,3.61q.72,1.79,1.52,3.54t1.69,3.47q.89,1.71,1.86,3.38t2,3.28q1.05,1.62,2.18,3.18t2.33,3.07q1.21,1.51,2.48,2.95T455,567q1.35,1.38,2.76,2.69t2.89,2.55q1.48,1.24,3,2.41t3.12,2.26Q468.36,578,470,579t3.33,1.94q1.69.93,3.42,1.77t3.5,1.6q1.77.76,3.58,1.43t3.64,1.25q1.84.58,3.7,1.07t3.75.89q1.89.4,3.79.7t3.82.52q1.92.21,3.84.33t3.85.14h3.38q1.93,0,3.85-.13t3.84-.32q1.92-.21,3.82-.51t3.79-.7q1.89-.39,3.75-.88t3.7-1.06q1.84-.58,3.65-1.25t3.58-1.42q1.77-.76,3.51-1.6t3.42-1.77q1.69-.93,3.33-1.93t3.24-2.1q1.59-1.09,3.13-2.25t3-2.4q1.48-1.24,2.89-2.55t2.76-2.69q1.35-1.38,2.63-2.82t2.49-2.94q1.21-1.5,2.34-3.06t2.19-3.17q1.06-1.61,2-3.28t1.87-3.37q.89-1.71,1.7-3.46t1.53-3.54q.72-1.79,1.35-3.61t1.17-3.67q.54-1.85,1-3.73t.81-3.77q.36-1.9.62-3.81T591,519q.17-1.92.25-3.85t.06-3.86q0-1.93-.13-3.85t-.32-3.84q-.21-1.92-.51-3.82t-.7-3.79q-.39-1.89-.88-3.75t-1.06-3.71q-.58-1.84-1.24-3.65t-1.42-3.58q-.75-1.77-1.6-3.51t-1.77-3.43q-.93-1.69-1.93-3.34t-2.09-3.24q-1.09-1.59-2.25-3.13t-2.4-3q-1.24-1.48-2.55-2.9T567.82,456q-1.38-1.35-2.82-2.63t-2.94-2.49q-1.5-1.21-3.06-2.34t-3.17-2.19q-1.61-1.06-3.28-2t-3.37-1.87q-1.71-.89-3.46-1.7t-3.54-1.53q-1.79-.72-3.61-1.35t-3.67-1.17q-1.85-.54-3.72-1t-3.77-.81q-1.89-.36-3.8-.62t-3.83-.43q-1.92-.17-3.85-.25t-3.85-.06m0,156.52q-1.91,0-3.81-.09t-3.8-.28q-1.9-.19-3.78-.47t-3.75-.65q-1.87-.37-3.72-.84t-3.67-1q-1.82-.55-3.62-1.2t-3.56-1.37q-1.76-.73-3.48-1.55t-3.4-1.71q-1.68-.9-3.32-1.88t-3.22-2q-1.58-1.06-3.12-2.2t-3-2.35q-1.47-1.21-2.89-2.49t-2.76-2.63q-1.35-1.35-2.63-2.76t-2.49-2.89q-1.21-1.47-2.34-3t-2.19-3.12q-1.06-1.59-2-3.22t-1.88-3.32q-.9-1.68-1.71-3.41T440.35,542q-.73-1.76-1.37-3.56t-1.2-3.62q-.55-1.83-1-3.68t-.83-3.72q-.37-1.87-.65-3.76t-.47-3.79q-.19-1.9-.28-3.8t-.09-3.81q0-1.91.09-3.81t.28-3.8q.19-1.9.47-3.79t.65-3.76q.37-1.87.83-3.72t1-3.68q.55-1.83,1.2-3.62t1.37-3.56q.73-1.76,1.54-3.49t1.71-3.41q.9-1.68,1.88-3.32t2-3.22q1.06-1.59,2.19-3.12t2.34-3q1.21-1.47,2.49-2.89t2.63-2.76q1.35-1.35,2.76-2.63t2.89-2.49q1.47-1.21,3-2.35t3.12-2.2q1.58-1.06,3.22-2t3.32-1.88q1.68-.9,3.4-1.71t3.48-1.55q1.76-.73,3.56-1.37t3.62-1.2q1.82-.55,3.67-1t3.72-.84q1.87-.37,3.75-.65t3.78-.47q1.9-.19,3.8-.28t3.81-.09q1.91,0,3.81.09t3.8.28q1.9.19,3.78.47t3.75.65q1.87.37,3.72.84t3.67,1q1.82.55,3.62,1.2t3.56,1.37q1.76.73,3.48,1.55t3.4,1.71q1.68.9,3.32,1.88t3.22,2q1.58,1.06,3.12,2.2t3,2.35q1.47,1.21,2.89,2.49t2.76,2.63q1.35,1.35,2.63,2.76t2.49,2.89q1.21,1.47,2.34,3t2.19,3.12q1.06,1.59,2,3.22t1.88,3.32q.9,1.68,1.71,3.41t1.54,3.49q.73,1.76,1.37,3.56t1.2,3.62q.55,1.83,1,3.68t.83,3.72q.37,1.87.65,3.76t.47,3.79q.19,1.9.28,3.8t.09,3.81q0,1.91-.09,3.81t-.28,3.8q-.19,1.9-.47,3.79t-.65,3.76q-.37,1.87-.83,3.72t-1,3.68q-.55,1.83-1.2,3.62T583.81,542q-.73,1.76-1.54,3.49t-1.71,3.41q-.9,1.68-1.88,3.32t-2,3.22q-1.06,1.59-2.19,3.12t-2.34,3q-1.21,1.47-2.49,2.89T567,567.25q-1.35,1.35-2.76,2.63t-2.89,2.49q-1.47,1.21-3,2.35t-3.12,2.2q-1.58,1.06-3.22,2t-3.32,1.88q-1.68.9-3.4,1.71t-3.48,1.55q-1.76.73-3.56,1.37t-3.62,1.2q-1.82.55-3.67,1t-3.72.84q-1.87.37-3.75.65t-3.78.47q-1.9.19-3.8.28t-3.81.09m0-152.82q-1.83,0-3.66.09t-3.66.27q-1.82.18-3.64.45t-3.61.63q-1.8.36-3.58.8t-3.53,1q-1.75.53-3.48,1.15t-3.42,1.32q-1.69.7-3.35,1.49T476.88,446q-1.62.86-3.19,1.81t-3.1,2q-1.52,1-3,2.11t-2.89,2.26q-1.42,1.16-2.78,2.4t-2.65,2.53q-1.3,1.3-2.53,2.66t-2.39,2.78q-1.16,1.42-2.26,2.89t-2.11,3q-1,1.53-2,3.1t-1.81,3.19q-.86,1.62-1.65,3.28t-1.49,3.35q-.7,1.7-1.32,3.42t-1.15,3.48q-.53,1.76-1,3.54t-.8,3.58q-.36,1.8-.63,3.61t-.45,3.64q-.18,1.83-.27,3.66t-.09,3.67q0,1.83.09,3.67t.27,3.66q.18,1.83.45,3.64t.63,3.61q.36,1.8.8,3.58t1,3.54q.53,1.76,1.15,3.48t1.32,3.42q.7,1.7,1.49,3.35t1.65,3.28q.86,1.62,1.81,3.19t2,3.1q1,1.53,2.11,3t2.26,2.89q1.16,1.42,2.39,2.78t2.53,2.66q1.3,1.3,2.65,2.53t2.78,2.4q1.42,1.16,2.89,2.26t3,2.11q1.52,1,3.1,2t3.19,1.81q1.62.86,3.27,1.65T483.5,581q1.69.7,3.42,1.32t3.48,1.15q1.75.53,3.53,1t3.58.8q1.8.36,3.61.63t3.64.45q1.82.18,3.66.27t3.66.09q1.83,0,3.66-.09t3.66-.27q1.82-.18,3.64-.45t3.61-.63q1.8-.36,3.58-.8t3.53-1q1.75-.53,3.48-1.15t3.42-1.32q1.69-.7,3.35-1.49t3.27-1.65q1.62-.86,3.19-1.81t3.1-2q1.52-1,3-2.11t2.89-2.26q1.42-1.16,2.78-2.4t2.65-2.53q1.3-1.3,2.53-2.66t2.39-2.78q1.16-1.42,2.26-2.89t2.11-3q1-1.53,2-3.1t1.81-3.19q.86-1.62,1.65-3.28t1.49-3.35q.7-1.7,1.32-3.42t1.15-3.48q.53-1.76,1-3.54t.8-3.58q.36-1.8.63-3.61t.45-3.64q.18-1.83.27-3.66t.09-3.67q0-1.83-.09-3.67t-.27-3.66q-.18-1.83-.45-3.64t-.63-3.61q-.36-1.8-.8-3.58t-1-3.54q-.53-1.76-1.15-3.48t-1.32-3.42q-.7-1.7-1.49-3.35t-1.65-3.28q-.86-1.62-1.81-3.19t-2-3.1q-1-1.53-2.11-3t-2.26-2.89q-1.16-1.42-2.39-2.78t-2.53-2.66q-1.3-1.3-2.65-2.53t-2.78-2.4Q558,453,556.57,451.9t-3-2.11q-1.52-1-3.1-2T547.28,446q-1.62-.86-3.27-1.65t-3.35-1.49q-1.69-.7-3.42-1.32t-3.48-1.15q-1.75-.53-3.53-1t-3.58-.8q-1.8-.36-3.61-.63t-3.64-.45q-1.82-.18-3.66-.27t-3.66-.09m3.7,10.73V442h1.85v9.62h-1.85l-3.7-5.55v5.55h-1.85V442h1.85l3.7,5.92m-12.94,4.44c-.37,0-.74-.37-1.11-.74a5.06,5.06,0,0,1-1.11-1.48c-.37-.37-.37-1.11-.37-2.22V445.7a1.76,1.76,0,0,1,.74-1.48l1.11-1.11c.37-.37.74-.37,1.48-.37h1.48c.37,0,.74.37,1.11.74a5.06,5.06,0,0,1,1.11,1.48c0,.37.37,1.48.37,2.22v2.22a2.75,2.75,0,0,1-.74,1.48L505.79,452c-.37.37-.74.37-1.48.37h-1.48m-12.2-5.18-.37-1.48,7-1.85.37,1.48-2.59.74,2.22,7.4-1.85.74-2.22-7.77-2.59.74m39.43,7a1.34,1.34,0,0,1-.94-.39,3.23,3.23,0,0,1-2.22-1.48,1.85,1.85,0,0,1,0-2.22A1.2,1.2,0,0,1,528,449c.37-.37.74-.37,1.48-.74,0-.37-.37-.74-.37-1.11v-1.11a5.06,5.06,0,0,1,1.11-1.48c.37,0,.74-.37,1.11-.37h.17a1.34,1.34,0,0,1,.94.39,5.06,5.06,0,0,0,1.11,1.48,1.31,1.31,0,0,1,.37,1.11v.74a1.26,1.26,0,0,1-.37.74,1.34,1.34,0,0,1-.94.39h-.91l.74,2.22a1.76,1.76,0,0,0,.74-1.48l1.85.37c-.37.74-.37,1.11-.74,1.48a3.83,3.83,0,0,1-1.11,1.85l1.11,2.59L532.08,455l-.37-1.11c-.37,0-.74.37-1.11.37h-.54m-46.42-1.52,3-1.48-1.48-3.7,1.85-.74,4.07,8.88-1.85.74-1.48-3.7-3,1.48,1.48,3.7-1.85.74-4.07-8.88,1.85-.74,1.48,3.7m58.78,7L541,459l4.81-8.51,1.85,1.11L545.39,455l3,1.85,1.85-3.33,1.85,1.11-5.18,8.14-1.48-1.11,1.85-3.33-2.59-1.85-2.22,3.33m-65.84-7-.37,1.85h-1.11c-.37,0-.37,0-.74.37s-.74.74-.74,1.11v1.11a1.11,1.11,0,0,0,.37.74c0,.37.37.74.74,1.11s.37.74.74,1.11a.37.37,0,0,0,.37.37l.37.37H477c.37,0,.74,0,.74-.37.37-.37.74-.74.74-1.11v-.74c0-.37,0-.37-.37-.74v-.37l-1.48,1.11-.74-1.48,3-2.22.74,1.11c.37.74.74,1.11.74,1.48V459a5.77,5.77,0,0,1-1.48,2.59,5.11,5.11,0,0,1-2.22.74v.28a2.11,2.11,0,0,1-.33-.28,1.76,1.76,0,0,1-1.48-.74c-.37-.37-.74-1.11-1.48-1.85a3.1,3.1,0,0,1-1.11-2.22c0-.37-.37-.74-.37-1.11v-.74a3.24,3.24,0,0,1,1.48-2.22,2.75,2.75,0,0,1,1.48-.74h1.85M443.83,511l-1.26-.44c-1.85-.74-1.85-1.85-1.85-2.22a.37.37,0,0,1,.37-.37s3.33-.37,7.76-.37q3.33-.55,7.76-1.11.26-2.4.72-4.77t1.13-4.69q.67-2.32,1.53-4.57t1.92-4.43q1.05-2.17,2.29-4.24t2.65-4q1.41-2,3-3.79t3.3-3.52q1.73-1.69,3.59-3.22t3.85-2.9q2-1.37,4.09-2.56t4.29-2.19q2.19-1,4.47-1.82t4.6-1.42q2.33-.61,4.71-1t4.78-.61q2.4-.2,4.82-.2t4.81.22q2.4.21,4.78.63t4.71,1q2.33.62,4.6,1.44t4.46,1.83q2.19,1,4.28,2.21t4.08,2.57q2,1.37,3.84,2.91t3.58,3.23q1.72,1.69,3.29,3.53t3,3.8q1.4,2,2.63,4t2.27,4.25q1,2.18,1.9,4.43t1.51,4.58l11.09,3.7a24.79,24.79,0,0,0,4.44,2.22c1.11.37,1.48.74,1.48,1.48a.37.37,0,0,1-.37.37H582c-2.22,0-9.24-1.85-15.16-3a48.71,48.71,0,0,1,1.11,10.36q0,2.74-.27,5.48t-.81,5.42q-.54,2.69-1.33,5.32t-1.85,5.16q-1,2.54-2.34,5t-2.82,4.7q-1.52,2.28-3.26,4.4t-3.68,4.06q-1.94,1.94-4.06,3.68t-4.4,3.27q-2.28,1.53-4.7,2.82t-5,2.34q-2.53,1.05-5.16,1.85T523,567.16q-2.69.54-5.42.81t-5.47.27q-2.74,0-5.47-.27t-5.42-.8q-2.69-.54-5.31-1.33T490.72,564q-2.53-1.05-5-2.34t-4.7-2.82q-2.28-1.52-4.4-3.27t-4.06-3.68q-1.94-1.94-3.68-4.06t-3.26-4.4q-1.52-2.28-2.82-4.7t-2.34-5q-1-2.54-1.85-5.16t-1.33-5.32q-.54-2.69-.8-5.42t-.27-5.48h-3.38a28.78,28.78,0,0,1-4.73-.39,15.12,15.12,0,0,1-4.31-1m108.91-43.77c-.37,0-.74-.37-1.11-.74l-1.11-1.11c-.37-.37-.37-.74-.37-1.48v-.37a2.14,2.14,0,0,1,.37-1.48c.37-.37.74-1.11,1.48-1.85s1.11-1.48,1.85-1.85c.37-.37,1.11-.37,1.48-.74h1.48c.37,0,.74.37,1.11.74l1.11,1.11c.37.37.37.74.37,1.48v.37a2.71,2.71,0,0,1-.37,1.48c-.37.37-.74,1.11-1.48,1.85s-1.11,1.48-1.48,1.85-1.11.37-1.48.74h-1.85m-80.59,0-6.28-7.4,1.48-1.11,6.28,7.4-1.48,1.11m86.14,5.55-1.48-1.11,5.18-8.88,1.48,1.48-3.33,5.55,5.92-2.59,1.48,1.48-9.24,4.07m-92.42,1.5-7.39-6.66,2.59-3c.37-.37.74-.74,1.11-.74a1.34,1.34,0,0,1,.94-.39h1.28c.37,0,.74.37,1.11.74a2.75,2.75,0,0,1,.74,1.48v.37a1.31,1.31,0,0,1-.37,1.11l4.81,1.11-1.48,1.85L465.13,469l-.74,1.11,3,2.59-1.48,1.48m98.71,7.42-3.7-5.18,8.13-5.18,3.33,5.18-1.48,1.11-2.22-3.7L566.79,475l2.22,3L567.53,479l-2.22-3.33-1.85,1.48,2.59,3.7-1.48.74m-105,.33-8.13-5.18,2.22-3.33a3.6,3.6,0,0,1,1.85-1.48h1a2.09,2.09,0,0,1,1.24.39c.37.37.74.74.74,1.11v.74c.37,0,.74-.37,1.11-.37h.17a1.34,1.34,0,0,1,.94.39c1.48.74,1.85,1.48,1.85,2.22v.37c0,.74-.37,1.11-.74,1.85L459.58,482m43.79-37.8h-.54c-.37,0-.37,0-.74.37a.37.37,0,0,0-.37.37v4.44a1,1,0,0,1,.48.63.36.36,0,0,0,.26.11l.37.37h.74c.37,0,.74-.37,1.11-.74a.37.37,0,0,1,.37-.37v-2.2c.37-.37,0-.74,0-1.11v-.74a1,1,0,0,1-.48-.63.36.36,0,0,0-.26-.11,1.34,1.34,0,0,0-.94-.39m28.6,2.2h-1.11l-.37.37v.74a1.11,1.11,0,0,0,.37.74h.74c.37,0,.37,0,.37-.37l.37-.37v-.74l-.37-.37m-2.22,3.31a1.34,1.34,0,0,1-.94.39h-.17c-.37,0-.37.37-.37.74V452c0,.37.37.37.74.74h1.48l-.74-3m25.51,10.32h-1.11a.37.37,0,0,0-.37.37l-.37.37-.74.74c-.37.37-.37.74-.74.74,0,.37-.37.37-.37.74a.37.37,0,0,1-.37.37c.74,0,.74.37.74.37v.74a.37.37,0,0,0,.37.37,1.34,1.34,0,0,0,.94.39h.91a.37.37,0,0,0,.37-.37l.37-.37.74-.74c.37-.37.37-.74.74-.74,0-.37.37-.37.37-.74v-.74c0-.37-.37-.74-.74-1.11-.37,0-.37-.37-.74-.37m-90.94,5.16h-1.11a1.26,1.26,0,0,0-.74.37l-1.11,1.11,1.85,1.48,1.11-1.11a1.31,1.31,0,0,0,.37-1.11c0-.37,0-.74-.37-.74m-8.13,8.51c-.37,0-.37.37-.74.74L454.33,476l1.85,1.11,1.11-1.48c0-.37.37-.37.37-.74s-.37-.37-.37-.74c-.74-.37-.74-.37-1.11-.37m3.7,2.05c-.09,0-.17,0-.3.17s-.37.37-.74.74l-1.11,1.48,1.85,1.11,1.11-1.48c0-.37.37-.37.37-.74v-.37c0-.37-.37-.37-.37-.74a2.94,2.94,0,0,1-.81-.17m94,20.22c-10.35,0-24.77,8.88-28.84,10.73a41.35,41.35,0,0,0,7.76,4.81.37.37,0,0,1,0,.74c-3.7-1.11-8.87-5.18-14.42-8.88-5.55-3.33-11.09-6.66-14-6.66-8.5,0-26.62,7-38.08,9.62a169.26,169.26,0,0,1-24,3.33,2.47,2.47,0,0,0,1.48,1.11h.15a28.59,28.59,0,0,0,4.31,1,51.81,51.81,0,0,0,6.64.37,138.41,138.41,0,0,0,15.16-1.11c10-1.11,16.27-1.85,20.33-1.85h1.52c5.1,0,7,1.76,10.68,4.13v.37h-.74a8.13,8.13,0,0,1-1.85-1.11,56.3,56.3,0,0,0-6.28,1.48A42.25,42.25,0,0,1,481.12,516h-.83c-7,0-12.94-1.48-15.9-1.48H464a2,2,0,0,0-2.18,2.26c0,2.22,2.22,5.55,5.18,7.77a15.78,15.78,0,0,0,9.7,3.33H477c2.59,0,7.39-3,13.31-3h1.48c7.76.74,21.07,4.44,27.73,4.44,8.87,0,20-4.07,24-5.55a70.91,70.91,0,0,1,9.61-2.22l1-.19a17.36,17.36,0,0,0-1.85.19c-1.85-1.85-6.65-1.48-6.65-1.85.74-.74,3.33-.74,3.33-.74,5.55-.74,4.44-2.59,4.44-2.59,1.85.37,8.63,1.85,8.52,5.37l.72.18c.37-3.7-5.92-5.18-8.13-5.55h-.37c-1.85-.37-4.07-2.59-6.65-4.44a22.64,22.64,0,0,0-7-2.59h-1.11c1.11-.74,2.59-1.48,3.7-2.22,4.07-3,12.57-7.4,16.27-7.4,2.59,0,19.22,4.44,22.92,4.44a12.09,12.09,0,0,0-4.44-2.22c-4.44-1.85-19.22-5.92-24-5.92m28.41,7.84.13.28c0-.18-.09-.28-.13-.28" transform="translate(-432.65 -433.25)" style="fill:#fff"/><path d="M512.08,434.6q-1.91,0-3.81.09t-3.8.28q-1.9.19-3.78.47t-3.75.65q-1.87.37-3.72.84t-3.67,1q-1.82.55-3.62,1.2t-3.56,1.37q-1.76.73-3.48,1.55t-3.4,1.71q-1.68.9-3.32,1.88t-3.22,2q-1.58,1.06-3.12,2.2t-3,2.35q-1.47,1.21-2.89,2.49t-2.76,2.63q-1.35,1.35-2.63,2.76T452.07,463q-1.21,1.47-2.34,3t-2.19,3.12q-1.06,1.59-2,3.22t-1.88,3.32q-.9,1.68-1.71,3.41t-1.54,3.49q-.73,1.76-1.37,3.56t-1.2,3.62q-.55,1.83-1,3.68t-.83,3.72q-.37,1.87-.65,3.76t-.47,3.79q-.19,1.9-.28,3.8t-.09,3.81q0,1.91.09,3.81t.28,3.8q.19,1.9.47,3.79t.65,3.76q.37,1.87.83,3.72t1,3.68q.55,1.83,1.2,3.62t1.37,3.56q.73,1.76,1.54,3.49t1.71,3.41q.9,1.68,1.88,3.32t2,3.22q1.06,1.59,2.19,3.12t2.34,3q1.21,1.47,2.49,2.89t2.63,2.76q1.35,1.35,2.76,2.63t2.89,2.49q1.47,1.21,3,2.35t3.12,2.2q1.58,1.06,3.22,2t3.32,1.88q1.68.9,3.4,1.71t3.48,1.55q1.76.73,3.56,1.37t3.62,1.2q1.82.55,3.67,1t3.72.84q1.87.37,3.75.65t3.78.47q1.9.19,3.8.28t3.81.09q1.91,0,3.81-.09t3.8-.28q1.9-.19,3.78-.47t3.75-.65q1.87-.37,3.72-.84t3.67-1q1.82-.55,3.62-1.2t3.56-1.37q1.76-.73,3.48-1.55t3.4-1.71q1.68-.9,3.32-1.88t3.22-2q1.58-1.06,3.12-2.2t3-2.35q1.47-1.21,2.89-2.49t2.76-2.63q1.35-1.35,2.63-2.76t2.49-2.89q1.21-1.47,2.34-3t2.19-3.12q1.06-1.59,2-3.22t1.88-3.32q.9-1.68,1.71-3.41t1.54-3.49q.73-1.76,1.37-3.56t1.2-3.62q.55-1.83,1-3.68t.83-3.72q.37-1.87.65-3.76t.47-3.79q.19-1.9.28-3.8t.09-3.81q0-1.91-.09-3.81t-.28-3.8q-.19-1.9-.47-3.79t-.65-3.76q-.37-1.87-.83-3.72t-1-3.68q-.55-1.83-1.2-3.62t-1.37-3.56q-.73-1.76-1.54-3.49t-1.71-3.41q-.9-1.68-1.88-3.32t-2-3.22q-1.06-1.59-2.19-3.12t-2.34-3q-1.21-1.47-2.49-2.89T567,457.36q-1.35-1.35-2.76-2.63t-2.89-2.49q-1.47-1.21-3-2.35t-3.12-2.2q-1.58-1.06-3.22-2t-3.32-1.88q-1.68-.9-3.4-1.71t-3.48-1.55q-1.76-.73-3.56-1.37t-3.62-1.2q-1.82-.55-3.67-1t-3.72-.84q-1.87-.37-3.75-.65t-3.78-.47q-1.9-.19-3.8-.28t-3.81-.09m0,152.08q-1.83,0-3.66-.09t-3.66-.27q-1.82-.18-3.64-.45t-3.61-.63q-1.8-.36-3.58-.8t-3.53-1q-1.75-.53-3.48-1.15T483.5,581q-1.69-.7-3.35-1.49t-3.27-1.65q-1.62-.86-3.19-1.81t-3.1-2q-1.52-1-3-2.11t-2.89-2.26q-1.42-1.16-2.78-2.4t-2.65-2.53q-1.3-1.3-2.53-2.66t-2.39-2.78q-1.16-1.42-2.26-2.89t-2.11-3q-1-1.53-2-3.1t-1.81-3.19q-.86-1.62-1.65-3.28t-1.49-3.35q-.7-1.7-1.32-3.42t-1.15-3.48q-.53-1.76-1-3.54t-.8-3.58q-.36-1.8-.63-3.61t-.45-3.64q-.18-1.83-.27-3.66t-.09-3.67q0-1.83.09-3.67t.27-3.66q.18-1.83.45-3.64t.63-3.61q.36-1.8.8-3.58t1-3.54q.53-1.76,1.15-3.48t1.32-3.42q.7-1.7,1.49-3.35t1.65-3.28q.86-1.62,1.81-3.19t2-3.1q1-1.53,2.11-3t2.26-2.89q1.16-1.42,2.39-2.78t2.53-2.66q1.3-1.3,2.65-2.53t2.78-2.4q1.42-1.16,2.89-2.26t3-2.11q1.52-1,3.1-2t3.19-1.81q1.62-.86,3.27-1.65t3.35-1.49q1.69-.7,3.42-1.32t3.48-1.15q1.75-.53,3.53-1t3.58-.8q1.8-.36,3.61-.63t3.64-.45q1.82-.18,3.66-.27t3.66-.09q1.83,0,3.66.09t3.66.27q1.82.18,3.64.45t3.61.63q1.8.36,3.58.8t3.53,1q1.75.53,3.48,1.15t3.42,1.32q1.69.7,3.35,1.49t3.27,1.65q1.62.86,3.19,1.81t3.1,2q1.52,1,3,2.11t2.89,2.26q1.42,1.16,2.78,2.4t2.65,2.53q1.3,1.3,2.53,2.66t2.39,2.78q1.16,1.42,2.26,2.89t2.11,3q1,1.53,2,3.1t1.81,3.19q.86,1.62,1.65,3.28t1.49,3.35q.7,1.7,1.32,3.42t1.15,3.48q.53,1.76,1,3.54t.8,3.58q.36,1.8.63,3.61t.45,3.64q.18,1.83.27,3.66t.09,3.67q0,1.83-.09,3.67t-.27,3.66q-.18,1.83-.45,3.64t-.63,3.61q-.36,1.8-.8,3.58t-1,3.54q-.53,1.76-1.15,3.48t-1.32,3.42q-.7,1.7-1.49,3.35t-1.65,3.28q-.86,1.62-1.81,3.19t-2,3.1q-1,1.53-2.11,3t-2.26,2.89q-1.16,1.42-2.39,2.78t-2.53,2.66q-1.3,1.3-2.65,2.53t-2.78,2.4q-1.42,1.16-2.89,2.26t-3,2.11q-1.52,1-3.1,2t-3.19,1.81q-1.62.86-3.27,1.65T540.66,581q-1.69.7-3.42,1.32t-3.48,1.15q-1.75.53-3.53,1t-3.58.8q-1.8.36-3.61.63t-3.64.45q-1.82.18-3.66.27t-3.66.09" transform="translate(-432.65 -433.25)" style="fill:#fff"/><path d="M517.62,442h-1.85v5.92l-3.7-5.92h-1.85v9.62h1.85v-5.55l3.7,5.55h1.85V442m-12.57.76h-1.48c-.74,0-1.11,0-1.48.37L501,444.24a1.76,1.76,0,0,0-.74,1.48v2.22c0,1.11,0,1.85.37,2.22a5.06,5.06,0,0,0,1.11,1.48c.37.37.74.74,1.11.74h1.48c.74,0,1.11,0,1.48-.37l1.11-1.11a2.75,2.75,0,0,0,.74-1.48v-2.24c0-.74-.37-1.85-.37-2.22a5.06,5.06,0,0,0-1.11-1.48c-.37-.37-.74-.74-1.11-.74m-2.22,7.77-.37-.37a1,1,0,0,0-.63-.48.36.36,0,0,1-.11-.26V445a.37.37,0,0,1,.37-.37c.37-.37.37-.37.74-.37h.54a1.34,1.34,0,0,1,.94.39,1,1,0,0,0,.63.48.36.36,0,0,1,.11.26v.74c0,.37.37.74,0,1.11v2.22a.37.37,0,0,0-.37.37c-.37.37-.74.74-1.11.74h-.74m-5.55-6.68-7,1.85.37,1.48,2.59-.74,2.22,7.77,1.85-.74-2.22-7.4,2.59-.74-.37-1.48m34.18.35h-.17c-.37,0-.74.37-1.11.37a5.06,5.06,0,0,0-1.11,1.48v1.11c0,.37.37.74.37,1.11-.74.37-1.11.37-1.48.74a1.2,1.2,0,0,0-1.11,1.11,1.85,1.85,0,0,0,0,2.22,3.23,3.23,0,0,0,2.22,1.48,1.34,1.34,0,0,0,.94.39h.54c.37,0,.74-.37,1.11-.37L532,455l2.22,1.11-1.11-2.59a3.83,3.83,0,0,0,1.11-1.85c.37-.37.37-.74.74-1.48l-1.85-.37a1.76,1.76,0,0,1-.74,1.48l-.74-2.22h.91a1.34,1.34,0,0,0,.94-.39,1.26,1.26,0,0,0,.37-.74v-.74a1.31,1.31,0,0,0-.37-1.11,5.06,5.06,0,0,1-1.11-1.48,1.34,1.34,0,0,0-.94-.39m-.54,4.11a1.11,1.11,0,0,1-.37-.74v-.74l.37-.37H532l.37.37v.74l-.37.37c0,.37,0,.37-.37.37h-.74m-2.05,1.87a1.34,1.34,0,0,0,.94-.39l.74,3h-1.48c-.37-.37-.74-.37-.74-.74v-1.11c0-.37,0-.74.37-.74h.17M487,446.79l-1.85.74,1.48,3.7-3,1.48-1.48-3.7-1.85.74,4.07,8.88,1.85-.74-1.48-3.7,3-1.48,1.48,3.7,1.85-.74L487,446.79m58.78,3.7L541,459l1.48.74,2.22-3.33,2.59,1.85-1.85,3.33,1.48,1.11,5.18-8.14-1.85-1.11-1.85,3.33-3-1.85,2.22-3.33-1.85-1.11m-69.1,2.22h-1.85a2.75,2.75,0,0,0-1.48.74,3.24,3.24,0,0,0-1.48,2.22v.74c0,.37.37.74.37,1.11a3.1,3.1,0,0,0,1.11,2.22c.74.74,1.11,1.48,1.48,1.85a1.76,1.76,0,0,0,1.48.74c.18.18.28.28.33.28s0-.09,0-.28a5.11,5.11,0,0,0,2.22-.74,5.77,5.77,0,0,0,1.48-2.59v-1.48c0-.37-.37-.74-.74-1.48l-.74-1.11-3,2.22.74,1.48,1.48-1.11v.37c.37.37.37.37.37.74v.74c0,.37-.37.74-.74,1.11,0,.37-.37.37-.74.37h-.74l-.37-.37a.37.37,0,0,1-.37-.37c-.37-.37-.37-.74-.74-1.11s-.74-.74-.74-1.11a1.11,1.11,0,0,1-.37-.74V456c0-.37.37-.74.74-1.11s.37-.37.74-.37h1.11l.37-1.85m80.26,4.81h-1.48c-.37.37-1.11.37-1.48.74-.74.37-1.11,1.11-1.85,1.85S551,461.59,550.6,462a2.14,2.14,0,0,0-.37,1.48v.37c0,.74,0,1.11.37,1.48l1.11,1.11c.37.37.74.74,1.11.74h1.85c.37-.37,1.11-.37,1.48-.74s.74-1.11,1.48-1.85,1.11-1.48,1.48-1.85a2.71,2.71,0,0,0,.37-1.48v-.37c0-.74,0-1.11-.37-1.48L558,458.26c-.37-.37-.74-.74-1.11-.74m-3.49,7.81a1.34,1.34,0,0,1-.94-.39.37.37,0,0,1-.37-.37v-.74s0-.37-.74-.37a.37.37,0,0,0,.37-.37c0-.37.37-.37.37-.74.37,0,.37-.37.74-.74l.74-.74.37-.37a.37.37,0,0,1,.37-.37h1.11c.37,0,.37.37.74.37.37.37.74.74.74,1.11v.74c0,.37-.37.37-.37.74-.37,0-.37.37-.74.74l-.74.74-.37.37a.37.37,0,0,1-.37.37h-.91m-86-6.68-1.48,1.11,6.28,7.4,1.48-1.11-6.28-7.4M562,462.7l-5.18,8.88,1.48,1.11,9.24-4.07-1.48-1.48-5.92,2.59,3.33-5.55L562,462.7m-98.87.7a1.34,1.34,0,0,0-.94.39c-.37,0-.74.37-1.11.74l-2.59,3,7.39,6.66,1.48-1.48-3-2.59.74-1.11,4.07,1.11,1.48-1.85-4.81-1.11a1.31,1.31,0,0,0,.37-1.11v-.37a2.75,2.75,0,0,0-.74-1.48c-.37-.37-.74-.74-1.11-.74h-1.28m.17,4.81-1.85-1.48,1.11-1.11a1.26,1.26,0,0,1,.74-.37h1.11c.37,0,.37.37.37.74a1.31,1.31,0,0,1-.37,1.11l-1.11,1.11m105.73,3-8.13,5.18,3.7,5.18,1.48-.74-2.59-3.7,1.85-1.48,2.22,3.33,1.48-1.11-2.22-3,1.85-1.11,2.22,3.7,1.48-1.11L569,471.2M456.5,472h-1a3.6,3.6,0,0,0-1.85,1.48l-2.22,3.33,8.13,5.18,2.22-3.33c.37-.74.74-1.11.74-1.85v-.37c0-.74-.37-1.48-1.85-2.22a1.34,1.34,0,0,0-.94-.39h-.17c-.37,0-.74.37-1.11.37v-.74c0-.37-.37-.74-.74-1.11a2.09,2.09,0,0,0-1.24-.39m-.24,5.24L454.41,476l1.11-1.48c.37-.37.37-.74.74-.74s.37,0,1.11.37c0,.37.37.37.37.74s-.37.37-.37.74l-1.11,1.48m3.33,2.22-1.85-1.11,1.11-1.48c.37-.37.37-.74.74-.74s.2-.17.3-.17a2.94,2.94,0,0,0,.81.17c0,.37.37.37.37.74v.37c0,.37-.37.37-.37.74l-1.11,1.48" transform="translate(-432.65 -433.25)" style="fill:#fff"/><path d="M512.23,456.45q-2.56,0-5.11.23t-5.07.7q-2.52.47-5,1.16t-4.85,1.61q-2.39.92-4.69,2t-4.48,2.47q-2.18,1.34-4.24,2.86t-4,3.24q-1.91,1.71-3.65,3.59t-3.3,3.91q-1.56,2-2.93,4.19t-2.54,4.44q-1.17,2.28-2.12,4.66t-1.69,4.83q-.74,2.45-1.24,5t-.79,5.06q-4.44.55-7.76,1.11c-4.44,0-7.76.37-7.76.37a.37.37,0,0,0-.37.37c0,.37,0,1.48,1.85,2.22l1.26.44h-.15a2.47,2.47,0,0,1-1.48-1.11,169.26,169.26,0,0,0,24-3.33c11.46-2.59,29.58-9.62,38.08-9.62,3,0,8.5,3.33,14,6.66,5.55,3.7,10.72,7.77,14.42,8.88a.37.37,0,0,0,0-.74,41.35,41.35,0,0,1-7.76-4.81c4.07-1.85,18.48-10.73,28.84-10.73,4.81,0,19.59,4.07,24,5.92a12.09,12.09,0,0,1,4.44,2.22c-.18-.19-.18-.28-.13-.28s.13,0,.13.28c-3.7,0-20.33-4.44-22.92-4.44-3.7,0-12.2,4.44-16.27,7.4-1.11.74-2.59,1.48-3.7,2.22h1.11a22.64,22.64,0,0,1,7,2.59c2.59,1.85,4.81,4.07,6.65,4.44h.37c2.22.37,8.5,1.85,8.13,5.55l-.72-.19V522a28.33,28.33,0,0,0-5.86-.63h-2l-1,.19a70.9,70.9,0,0,0-9.61,2.22c-4.07,1.48-15.16,5.55-24,5.55-6.65,0-20-3.7-27.73-4.44h-1.48c-5.92,0-10.72,3-13.31,3h-.26a15.78,15.78,0,0,1-9.7-3.33c-3-2.22-5.18-5.55-5.18-7.77a2,2,0,0,1,2.18-2.26h.41c3,0,8.87,1.48,15.9,1.48h.83a42.25,42.25,0,0,0,12.48-1.85,56.33,56.33,0,0,1,6.28-1.48,8.13,8.13,0,0,0,1.85,1.11h.74v-.37c-3.7-2.37-5.55-4.13-10.68-4.13h-1.52c-4.07,0-10.35.74-20.33,1.85a138.42,138.42,0,0,1-15.16,1.11h1.48q0,2.74.27,5.48t.8,5.42q.54,2.69,1.33,5.32t1.85,5.16q1,2.54,2.34,5t2.82,4.7q1.52,2.28,3.26,4.4t3.68,4.06q1.94,1.94,4.06,3.68t4.4,3.27q2.28,1.52,4.7,2.82t5,2.34q2.53,1.05,5.16,1.85t5.31,1.33q2.69.54,5.42.8t5.47.27q2.74,0,5.47-.27T523,567q2.69-.54,5.31-1.33t5.16-1.85q2.53-1.05,5-2.34t4.7-2.82q2.28-1.53,4.4-3.27t4.06-3.68q1.94-1.94,3.68-4.06t3.26-4.4q1.52-2.28,2.82-4.7t2.34-5q1-2.54,1.85-5.16t1.33-5.32q.54-2.69.81-5.42t.27-5.48a48.71,48.71,0,0,0-1.11-10.36c5.92,1.11,12.94,3,15.16,3h.74a.37.37,0,0,0,.37-.37c0-.74-.37-1.11-1.48-1.48a24.79,24.79,0,0,1-4.44-2.22l-11.09-3.7q-.62-2.18-1.41-4.3t-1.75-4.17q-1-2.05-2.08-4t-2.4-3.84q-1.28-1.87-2.7-3.63t-3-3.4q-1.56-1.64-3.25-3.15T546,467.69q-1.81-1.37-3.71-2.58t-3.91-2.27q-2-1.06-4.08-1.95T530,459.27q-2.15-.72-4.34-1.27t-4.43-.91q-2.23-.37-4.49-.55t-4.52-.19M443.83,511a15.12,15.12,0,0,0,4.31,1,28.59,28.59,0,0,1-4.31-1m4.31,1a28.78,28.78,0,0,0,4.73.39h1.85a51.81,51.81,0,0,1-6.64-.37" transform="translate(-432.65 -433.25)" style="fill:#fff"/><path d="M553.49,516.38s1.11,1.85-4.44,2.59c0,0-2.59,0-3.33.74,0,.37,4.81,0,6.65,1.85.59,0,1.18-.15,1.85-.19s1.31,0,2,0a28.33,28.33,0,0,1,5.86.63v-.19c.11-3.57-6.71-5-8.52-5.37" transform="translate(-432.65 -433.25)" style="fill:#fff"/><path d="M535.76,567.59l-1.85.67,2,5.55-5.55-4.24-1.68.59,3.33,9.25,1.85-.68-2-5.55,5.55,4.26,1.66-.59ZM527.2,578a15.11,15.11,0,0,0-.26-2.22,13,13,0,0,0-.59-2.37,2.56,2.56,0,0,0-1.07-1.33,3.66,3.66,0,0,0-1.31-.59,4.92,4.92,0,0,0-.74,0,5.17,5.17,0,0,0-.76,0,4.1,4.1,0,0,0-1.4.52,3.83,3.83,0,0,0-1,1,2.83,2.83,0,0,0-.54,1.59v.11a14.25,14.25,0,0,0,.26,2.33,13.62,13.62,0,0,0,.59,2.37,2.77,2.77,0,0,0,1.05,1.31,3.71,3.71,0,0,0,2.07.68,5.17,5.17,0,0,0,.76,0,3.65,3.65,0,0,0,1.44-.52,3.36,3.36,0,0,0,1-1,2.62,2.62,0,0,0,.55-1.61Zm-2,0v.48l-.17.37a1.47,1.47,0,0,1-1.07.7,2.22,2.22,0,0,1-.7,0,1,1,0,0,1-.55-.28l-.28-.28-.22-.44a3.69,3.69,0,0,0-.2-.7l-.22-1.15a7,7,0,0,0-.18-1.17,4.23,4.23,0,0,1,0-.68v-.5l.17-.35a1.11,1.11,0,0,1,.43-.46,1.7,1.7,0,0,1,.65-.24h.35a1.42,1.42,0,0,1,.91.31l.28.31.22.43a4.4,4.4,0,0,1,.2.7c0,.28.15.67.22,1.15s.15.85.18,1.15a4.23,4.23,0,0,1,0,.68Zm-11.37-5.55.46,9.84h2l-.48-9.84Zm-3.38,2.72v-.31a2.42,2.42,0,0,0-.67-1.85,3.14,3.14,0,0,0-2.18-.93h-4l-.78,9.82,4.12.31h.37a2.93,2.93,0,0,0,1.85-.57,2.47,2.47,0,0,0,1-2v-.3a2.11,2.11,0,0,0-.3-1.17,2.87,2.87,0,0,0-.81-.83,2.26,2.26,0,0,0,.81-.65,2,2,0,0,0,.48-1.26m-2.13,3.7a1,1,0,0,1-.37.8,1.07,1.07,0,0,1-.78.26H507l-1.85-.15.18-2.29,1.85.17a1.07,1.07,0,0,1,1.13,1v.2m.18-3.9a1,1,0,0,1-.37.76,1.07,1.07,0,0,1-.76.22h-.15l-1.85-.15.15-2.16,1.85.15a1.21,1.21,0,0,1,.87.35,1,1,0,0,1,.24.7M497,570.55l-1.85-.46-2.29,9.58,6.19,1.48.43-1.85-4.31-1Zm-15.73,4.83,1.94.8,1.18-1.37,3.14,1.28-.13,1.85,1.85.78.44-10.4-1.44-.59Zm6.36-1.07-2.11-.87,2.33-2.65Z" transform="translate(-432.65 -433.25)" style="fill:#0054a5;fill-rule:evenodd"/><path d="M511.88,434.25q-1.91,0-3.81.09t-3.8.28q-1.9.19-3.78.47t-3.75.65q-1.87.37-3.72.84t-3.67,1q-1.82.55-3.62,1.2t-3.56,1.37q-1.76.73-3.48,1.55t-3.4,1.71q-1.68.9-3.32,1.88t-3.22,2q-1.58,1.06-3.12,2.2t-3,2.35q-1.47,1.21-2.89,2.49T457,457q-1.35,1.35-2.63,2.76t-2.49,2.89q-1.21,1.47-2.34,3t-2.19,3.12q-1.06,1.59-2,3.22t-1.88,3.32q-.9,1.68-1.71,3.41t-1.54,3.49q-.73,1.76-1.37,3.56t-1.2,3.62q-.55,1.83-1,3.68t-.83,3.72q-.37,1.87-.65,3.76t-.47,3.79q-.19,1.9-.28,3.8t-.09,3.81q0,1.91.09,3.81t.28,3.8q.19,1.9.47,3.79t.65,3.76q.37,1.87.83,3.72t1,3.68q.55,1.83,1.2,3.62t1.37,3.56q.73,1.76,1.54,3.49t1.71,3.41q.9,1.68,1.88,3.32t2,3.22q1.06,1.59,2.19,3.12t2.34,3q1.21,1.47,2.49,2.89T457,566.9q1.35,1.35,2.76,2.63t2.89,2.49q1.47,1.21,3,2.35t3.12,2.2q1.58,1.06,3.22,2t3.32,1.88q1.68.9,3.4,1.71t3.48,1.55q1.76.73,3.56,1.37t3.62,1.2q1.82.55,3.67,1t3.72.84q1.87.37,3.75.65t3.78.47q1.9.19,3.8.28t3.81.09q1.91,0,3.81-.09t3.8-.28q1.9-.19,3.78-.47t3.75-.65q1.87-.37,3.72-.84t3.67-1q1.82-.55,3.62-1.2t3.56-1.37q1.76-.73,3.48-1.55t3.4-1.71q1.68-.9,3.32-1.88t3.22-2q1.58-1.06,3.12-2.2t3-2.35q1.47-1.21,2.89-2.49t2.76-2.63q1.35-1.35,2.63-2.76t2.49-2.89q1.21-1.47,2.34-3t2.19-3.12q1.06-1.59,2-3.22t1.88-3.32q.9-1.68,1.71-3.41t1.54-3.49q.73-1.76,1.37-3.56t1.2-3.62q.55-1.83,1-3.68t.83-3.72q.37-1.87.65-3.76t.47-3.79q.19-1.9.28-3.8t.09-3.81q0-1.91-.09-3.81t-.28-3.8q-.19-1.9-.47-3.79t-.65-3.76q-.37-1.87-.83-3.72t-1-3.68q-.55-1.83-1.2-3.62t-1.37-3.56q-.73-1.76-1.54-3.49t-1.71-3.41q-.9-1.68-1.88-3.32t-2-3.22q-1.06-1.59-2.19-3.12t-2.34-3q-1.21-1.47-2.49-2.89T566.77,457q-1.35-1.35-2.76-2.63t-2.89-2.49q-1.47-1.21-3-2.35t-3.12-2.2q-1.58-1.06-3.22-2t-3.32-1.88q-1.68-.9-3.4-1.71t-3.48-1.55q-1.76-.73-3.56-1.37t-3.62-1.2q-1.82-.55-3.67-1t-3.72-.84q-1.87-.37-3.75-.65t-3.78-.47q-1.9-.19-3.8-.28t-3.81-.09m0,152.41q-1.83,0-3.66-.09t-3.65-.27q-1.82-.18-3.64-.45t-3.61-.63q-1.8-.36-3.58-.8t-3.53-1q-1.75-.53-3.48-1.15T483.29,581q-1.69-.7-3.35-1.49t-3.27-1.65Q475,577,473.47,576t-3.1-2q-1.52-1-3-2.11t-2.89-2.26q-1.42-1.16-2.78-2.39t-2.65-2.53q-1.3-1.3-2.53-2.66t-2.39-2.78q-1.16-1.42-2.26-2.89t-2.11-3q-1-1.53-2-3.1T446,547.18q-.86-1.62-1.65-3.28t-1.49-3.35q-.7-1.69-1.32-3.42t-1.15-3.48q-.53-1.76-1-3.53t-.8-3.58q-.36-1.8-.63-3.61t-.45-3.64q-.18-1.83-.27-3.66t-.09-3.67q0-1.83.09-3.67t.27-3.66q.18-1.83.45-3.64t.63-3.61q.36-1.8.8-3.58t1-3.54q.53-1.76,1.15-3.48t1.32-3.42q.7-1.69,1.48-3.35t1.65-3.28q.86-1.62,1.81-3.19t2-3.1q1-1.53,2.11-3t2.25-2.89q1.16-1.42,2.39-2.78t2.53-2.66q1.3-1.3,2.65-2.53t2.77-2.4q1.42-1.16,2.89-2.26t3-2.11q1.52-1,3.1-2t3.19-1.81q1.62-.87,3.27-1.65t3.35-1.49q1.69-.7,3.42-1.32t3.48-1.15q1.75-.53,3.53-1t3.58-.8q1.8-.36,3.61-.63t3.64-.45q1.82-.18,3.65-.27t3.66-.09q1.83,0,3.66.09t3.65.27q1.82.18,3.64.45t3.61.63q1.8.36,3.58.8t3.53,1q1.75.53,3.48,1.15t3.42,1.32q1.69.7,3.35,1.49T547,446q1.62.86,3.19,1.81t3.1,2q1.52,1,3,2.11t2.89,2.26q1.42,1.16,2.78,2.39t2.65,2.53q1.3,1.3,2.53,2.66t2.39,2.78q1.16,1.42,2.26,2.89t2.11,3q1,1.52,2,3.1t1.81,3.19q.86,1.62,1.65,3.28t1.49,3.35q.7,1.69,1.32,3.42t1.15,3.48q.53,1.76,1,3.53t.8,3.58q.36,1.8.63,3.61t.45,3.64q.18,1.83.27,3.66t.09,3.67q0,1.83-.09,3.67t-.27,3.66q-.18,1.83-.45,3.64t-.62,3.61q-.36,1.8-.8,3.58t-1,3.53q-.53,1.76-1.15,3.48t-1.32,3.42q-.7,1.69-1.48,3.35t-1.65,3.28q-.86,1.62-1.8,3.19t-2,3.1q-1,1.53-2.11,3t-2.25,2.89q-1.16,1.42-2.39,2.78t-2.53,2.66q-1.3,1.3-2.65,2.53t-2.77,2.4q-1.42,1.16-2.89,2.26t-3,2.11q-1.52,1-3.1,2t-3.19,1.81q-1.62.87-3.27,1.65T540.44,581q-1.69.7-3.42,1.32t-3.48,1.15q-1.75.53-3.53,1t-3.57.8q-1.8.36-3.61.63t-3.64.45q-1.82.18-3.65.27t-3.66.09" transform="translate(-432.65 -433.25)" style="fill:#0054a5;fill-rule:evenodd"/><path d="M542.45,515.89a1.59,1.59,0,0,0,2.16.72,1.47,1.47,0,0,0,.72-.72s-.65-.93-1.44-.93-1.44.93-1.44.93m-26.78-64.31-3.7-5.72v5.72h-2.05V442h1.85l3.7,5.7V442h2v9.62Zm44.86,24.7,8-5.27,3.55,5.4-1.48,1-2.46-3.7-1.85,1.17,2.22,3-1.48,1L565,475.64l-1.85,1.2,2.46,3.7-1.46,1Zm-4-4.74,5.08-8.7,1.37,1.55-3.29,5.44,5.8-2.59,1.37,1.57-9.24,3.9Zm-4.31-4.63a4,4,0,0,1-2.22-1.85,3.49,3.49,0,0,1-.41-1.63,2.47,2.47,0,0,1,.35-1.37,11.42,11.42,0,0,1,1.42-1.85,12.18,12.18,0,0,1,1.66-1.72,2.9,2.9,0,0,1,1.55-.57,3.56,3.56,0,0,1,2.7.92,3.44,3.44,0,0,1,.92,1.15,3.5,3.5,0,0,1,.39,1.37v.31a2.68,2.68,0,0,1-.33,1.31,11.42,11.42,0,0,1-1.42,1.85,14.77,14.77,0,0,1-1.65,1.7,2.61,2.61,0,0,1-1.57.57h-.28a3.86,3.86,0,0,1-1.13-.17m-.72-3.31a1.32,1.32,0,0,0,.15.59,1.83,1.83,0,0,0,.44.54,1.44,1.44,0,0,0,1.59.28l.39-.24a4.37,4.37,0,0,0,.52-.5c.2-.22.46-.5.76-.85l.74-.89a6.7,6.7,0,0,0,.41-.59l.17-.43v-.33a1.51,1.51,0,0,0-.57-1.13,1.68,1.68,0,0,0-.59-.33,1.18,1.18,0,0,0-.63,0l-.37.09-.39.26a4.37,4.37,0,0,0-.52.5c-.2.2-.46.5-.78.85l-.72.89a6.68,6.68,0,0,0-.41.59l-.18.43v.33m-6.67-2.35,2.09-3.4-2.7-1.65-2,3.42-1.85-1.05,5-8.18,1.7,1-2,3.31,2.68,1.67,2.05-3.31,1.68,1.05-5,8.18Zm-13.36-6.51-.3-.91a6.45,6.45,0,0,1-1.18.28h-.3a4,4,0,0,1-1.15-.22,3.32,3.32,0,0,1-2.05-1.5,2.32,2.32,0,0,1-.3-1.28,3.93,3.93,0,0,1,.18-1,2.32,2.32,0,0,1,.92-1.24,4.86,4.86,0,0,1,1.5-.65,5.54,5.54,0,0,1-.33-1.07v-.46a2.79,2.79,0,0,1,0-.56,2,2,0,0,1,1.18-1.35,2.63,2.63,0,0,1,1-.19,3.8,3.8,0,0,1,1,.2,2.4,2.4,0,0,1,1.53,1.17,2.19,2.19,0,0,1,.28,1.09,2.93,2.93,0,0,1-.13.7,1.61,1.61,0,0,1-.55.81,2.5,2.5,0,0,1-.94.48l-.37.13h-.31l.91,2.2a3,3,0,0,0,.92-1.37l1.68.56a6.63,6.63,0,0,1-.81,1.52,4.05,4.05,0,0,1-1.07,1l1.05,2.53Zm-3-4.81a1.23,1.23,0,0,0-.44.67,1.05,1.05,0,0,0,.09,1,1.37,1.37,0,0,0,.85.65,1.59,1.59,0,0,0,.59.11h.15a1.55,1.55,0,0,0,.7-.17l-1.07-2.57a2.57,2.57,0,0,0-.79.37Zm2.11-3.7a.67.67,0,0,0-.39.63v.26a4.34,4.34,0,0,0,.26.68h.41a2,2,0,0,0,.5-.22l.24-.33a1.07,1.07,0,0,0-.41-1.15h-.57ZM502.52,452a3.66,3.66,0,0,1-1.28-.65,2.92,2.92,0,0,1-1-1.42,13.44,13.44,0,0,1-.48-2.2,13.72,13.72,0,0,1-.15-1.85v-.54a2.73,2.73,0,0,1,.61-1.54,3.93,3.93,0,0,1,1.07-.93,4,4,0,0,1,1.46-.35h.55a3.32,3.32,0,0,1,2.2.76,2.81,2.81,0,0,1,1,1.33,12.82,12.82,0,0,1,.44,2.35c0,.61.17,1.22.2,1.85v.41a2.62,2.62,0,0,1-.63,1.55,3.66,3.66,0,0,1-1.22,1,3.49,3.49,0,0,1-1.42.43h-.54a4.08,4.08,0,0,1-.94-.11m2.44-6.14a1.2,1.2,0,0,0-.15-.7l-.2-.43-.26-.3a1.34,1.34,0,0,0-1-.35H503a2,2,0,0,0-.67.2,1.07,1.07,0,0,0-.44.43l-.18.33v1.18a4.7,4.7,0,0,0,.11,1.15,9.79,9.79,0,0,1,.17,1.13,4.4,4.4,0,0,0,.17.7l.18.43.26.3a1.16,1.16,0,0,0,.54.3h.7a1.45,1.45,0,0,0,1.09-.63l.18-.37a2.12,2.12,0,0,0,0-.68v-.46a13.68,13.68,0,0,0-.3-2.28m-11.9.5-2.4.67-.46-1.7,6.77-1.85.48,1.68-2.44.67,2.09,7.59-1.85.52ZM480,449.62l1.85-.81,1.59,3.53,2.88-1.3-1.63-3.55,1.85-.81,4,8.77-1.85.8-1.65-3.7-2.88,1.3,1.65,3.7-1.85.81Zm-4.14,12.67a2.79,2.79,0,0,1-1.48-.76,16.53,16.53,0,0,1-2.62-3.92,2.64,2.64,0,0,1-.15-1.67,3.41,3.41,0,0,1,1.66-2.35,4.21,4.21,0,0,1,1.53-.68,3.55,3.55,0,0,1,.63,0,6.1,6.1,0,0,1,1,.13l-.39,1.85a3.87,3.87,0,0,0-.79,0h-.2a2.08,2.08,0,0,0-.81.33,1.49,1.49,0,0,0-.7,1.05v.39l.15.44a4.27,4.27,0,0,0,.33.65l.61,1c.28.41.48.72.65.94s.33.41.46.56l.37.31.37.15h.35a1.74,1.74,0,0,0,1.63-1.42,1.26,1.26,0,0,0,0-.65,2.77,2.77,0,0,0-.3-.63l-.17-.24-1.42.94-.83-1.39,3.07-2.05.79,1.18a6.26,6.26,0,0,1,.79,1.57,2.52,2.52,0,0,1,.13.83,2.77,2.77,0,0,1,0,.56,3.55,3.55,0,0,1-1.66,2.44,3.43,3.43,0,0,1-2.05.65h-.72m-10.44-3.09,1.52-1.3,6.25,7.31-1.48,1.26Zm-7.54,7.77,2.59-2.83a3.56,3.56,0,0,1,1.07-.81,2.68,2.68,0,0,1,1.15-.31h.15a3,3,0,0,1,1,.18,3.34,3.34,0,0,1,1,.61,2.58,2.58,0,0,1,.87,1.48,3,3,0,0,1-.17,1.52l4.51,1.18-1.53,1.68-4-1.17-.85.92,2.81,2.57-1.35,1.46Zm4.7-2a1.42,1.42,0,0,0-.89.48l-1.16,1.28,1.85,1.63,1.16-1.28a1.27,1.27,0,0,0,.39-.93,1.08,1.08,0,0,0-.39-.85,1.07,1.07,0,0,0-.78-.33Zm-.43,11v.39a3.07,3.07,0,0,1-.59,1.85l-2.26,3.4-8-5.25,2.07-3.29a3.05,3.05,0,0,1,1.85-1.46,1.58,1.58,0,0,1,.59,0,2.83,2.83,0,0,1,1.5.48,2.17,2.17,0,0,1,.87,1,2.42,2.42,0,0,1,.17.89v.11a2.72,2.72,0,0,1,1.09-.31h.13a2.34,2.34,0,0,1,1.26.43,2.51,2.51,0,0,1,1.33,1.76Zm-3.27-.39a1.12,1.12,0,0,0-.76.59l-1,1.59,1.85,1.22,1.05-1.61a1.44,1.44,0,0,0,.24-.72,1.2,1.2,0,0,0-1.35-1.07Zm-3.36-2a1.18,1.18,0,0,0-.72.59l-1,1.5,1.85,1.15,1-1.5a1.23,1.23,0,0,0,.26-.76.89.89,0,0,0-.48-.81.9.9,0,0,0-.57-.19Z" transform="translate(-432.65 -433.25)" style="fill:#0054a5;fill-rule:evenodd"/><path d="M581.47,502.83c-.94-.52-2.42-1.18-4.51-2.07a104.86,104.86,0,0,0-11.28-3.57q-.65-2.32-1.49-4.57t-1.88-4.42q-1-2.17-2.25-4.24t-2.61-4q-1.39-2-2.94-3.8t-3.26-3.53q-1.71-1.69-3.55-3.23t-3.82-2.92q-2-1.38-4.05-2.58t-4.26-2.22q-2.18-1-4.43-1.84t-4.58-1.45q-2.32-.63-4.68-1.06t-4.76-.65q-2.39-.22-4.79-.24t-4.8.18q-2.39.19-4.76.59t-4.7,1q-2.33.6-4.59,1.4T489,461.37q-2.19,1-4.28,2.17t-4.08,2.53q-2,1.35-3.85,2.87t-3.59,3.19q-1.73,1.67-3.3,3.49t-3,3.76q-1.41,1.94-2.65,4T462,487.6q-1.06,2.16-1.93,4.4t-1.54,4.55q-.67,2.31-1.15,4.67t-.74,4.75q-7.84,1.17-15.79,1.67a.33.33,0,0,0-.33.31c0,.26.17,1.31,1.85,2.22s5.08,1.74,11.53,1.74h2.31q0,2.71.36,5.4t.88,5.34q.57,2.65,1.39,5.23t1.89,5.07q1.07,2.49,2.38,4.86t2.84,4.61q1.53,2.24,3.27,4.31t3.67,4q1.93,1.9,4,3.6t4.37,3.19q2.26,1.49,4.66,2.75t4.9,2.29q2.51,1,5.1,1.8t5.25,1.3q2.66.52,5.35.79t5.4.26q2.71,0,5.4-.26t5.35-.79q2.66-.52,5.25-1.3t5.1-1.8q2.51-1,4.9-2.29t4.66-2.75q2.26-1.49,4.37-3.19t4-3.6q1.93-1.9,3.67-4t3.27-4.31q1.53-2.24,2.84-4.61t2.38-4.86q1.07-2.49,1.89-5.07t1.39-5.23q.57-2.65.88-5.34t.36-5.4a57.14,57.14,0,0,0-1-10.19,129.52,129.52,0,0,0,15.25,2.92,1.84,1.84,0,0,0,.63,0,.44.44,0,0,0,.37-.43c0-.5-.54-.7-1.5-1.26m.5,1.13c-3.7,0-20.33-4.33-22.75-4.35-3.7,0-12.07,4.63-16.4,7.4-1.28.83-2.57,1.57-3.83,2.24h1a14.55,14.55,0,0,1,6.88,2.74c2.44,1.85,5,4.05,6.49,4.35h.24c2.14.2,8.32,1.74,8.13,5.38a22.66,22.66,0,0,0-9.45-.41,69.17,69.17,0,0,0-9.46,2.13c-4.25,1.33-15.32,5.55-24,5.55-6.58,0-19.89-3.81-27.56-4.46h-1.37c-5.86,0-10.87,3.07-13.38,3.11a16.83,16.83,0,0,1-10.11-3.29c-3-2.2-5.16-5.44-5.18-7.83a2.36,2.36,0,0,1,.91-2,2.86,2.86,0,0,1,1.85-.41c3,0,9,1.31,16.06,1.3a42.55,42.55,0,0,0,13.33-1.85c1.05-.33,4.21-1.07,6.27-1.59l1.76,1.2h.48l-.09-.44c-3.92-2.74-5.8-4.26-12.38-4.24A189.86,189.86,0,0,0,469,510.42a127.68,127.68,0,0,1-15.27,1.07c-6.4,0-9.63-.83-11.22-1.67a3,3,0,0,1-1.48-1.3,172.08,172.08,0,0,0,24-3.18c11.52-2.57,29.58-9.79,38-9.77,3.12,0,8.56,3.22,13.94,6.85s10.81,7.59,14.25,9a.35.35,0,1,0,.28-.65,50.86,50.86,0,0,1-7.69-4.87c4.18-2,18.67-10.68,29-10.68,5,0,19.52,4.14,23.9,6,2.11.89,3.57,1.55,4.49,2.05a9,9,0,0,1,1,.61l.15.13H582" transform="translate(-432.65 -433.25)" style="fill:#0054a5;fill-rule:evenodd"/><path d="M552.17,521.56a22.36,22.36,0,0,1,9.45.41c.2-3.81-6.51-5.31-8.37-5.4,0,0,1,2-4.27,2.42a6.17,6.17,0,0,0-3.46.83s4.82-.35,6.53,1.52Z" transform="translate(-432.65 -433.25)" style="fill:#fbae17;fill-rule:evenodd"/></svg>