<svg xmlns="http://www.w3.org/2000/svg" viewBox="0 0 284.87 380.53"><title>atltico madrid logo</title><path d="M654.43,359.48c0-15.19-10.45-19-24.69-22.79a474.73,474.73,0,0,0-236.44,0c-13.29,2.85-23.74,7.6-23.74,22.79v208h0c0,17.09,8.55,33.23,21.84,43.68l112,84.51,8.55,6.65,8.55-6.65,112-84.51a53.54,53.54,0,0,0,21.84-43.68Z" transform="translate(-369.57 -321.73)" style="fill:#fff"/><path d="M414.2,559.83,400,571.23l-15.19,11.39a45.87,45.87,0,0,0,13.29,19h0L414.2,614Z" transform="translate(-369.57 -321.73)" style="fill:#cb3524"/><polygon points="83.56 208.66 83.56 208.66 83.56 321.66 122.49 352.05 122.49 178.28 83.56 208.66" style="fill:#cb3524"/><polygon points="201.31 118.46 201.31 118.46 161.43 148.84 161.43 352.05 201.31 322.61 201.31 118.46" style="fill:#cb3524"/><path d="M642.09,545.59V385.12l-8.55,6.65-23.74,18V614l16.14-12.34h0a28.9,28.9,0,0,0,7.6-7.6,41,41,0,0,0,8.55-24.69Z" transform="translate(-369.57 -321.73)" style="fill:#cb3524"/><path d="M654.43,359.48c0-15.19-10.45-19-24.69-22.79a474.73,474.73,0,0,0-236.44,0c-13.29,2.85-23.74,7.6-23.74,22.79v208h0c0,17.09,8.55,33.23,21.84,43.68l112,84.51,8.55,6.65,8.55-6.65,112-84.51a53.54,53.54,0,0,0,21.84-43.68Zm-33.23-1.9,3.8-10.45,3.8,10.45h10.45l-8.55,6.65,3.8,10.45L625.95,368l-8.55,6.65h0l3.8-10.45-8.55-6.65Zm-77.86,31.34c2.85-1.9,4.75-3.8,5.7-7.6,12.34,3.8,26.59-3.8,23.74-17.09h2.85l8.55.95,8.55,1.9-75,57v-38c12.34,6.65,20.89,6.65,25.64,2.85M558.53,443h0L550,436.39l-9.5,6.65,3.8-10.45-9.5-6.65h11.39L550,415.5l3.8,10.45h11.39l-8.55,6.65ZM494.91,342.39H506.3l3.8-10.45,1.9,10.45h11.39L514.85,349l2.85,10.45-8.55-6.65-9.5,6.65,3.8-10.45Zm-85.46,30.39h0l13.29-2.85L436,367.07c0,.95,0,1.9.95,1.9h0c4.75,10.45,17.09,15.19,28.49,11.39,2.85,5.7,9.5,8.55,15.19,9.5a37.93,37.93,0,0,0,18-1.9v50.33l-46.53,36.08v-4.75c5.7-3.8,10.45-10.45,11.39-17.09.95-2.85,1.9-6.65.95-10.45-.95,0-1.9.95-2.85.95h-4.75c2.85,0,6.65-.95,8.55-3.8l1.9-1.9c3.8-3.8,7.6-8.55,8.55-14.24l9.5-25.64A15.25,15.25,0,0,0,475,402.21l-3.8,5.7-3.8,5.7c-.95,1.9-2.85,2.85-3.8,3.8l-5.7-4.75h-.95L455,402.21l3.8-6.65a8.63,8.63,0,0,0,0-9.5H456l-9.5,5.7-.95-.95h-1.9c-.95,0-1.9.95-2.85,1.9l-1.9,1.9-2.85,1.9h-5.7c-1.9,0-2.85,2.85-.95,5.7s2.85,4.75,2.85,7.6h0v.95c.95,2.85.95,6.65.95,9.5a96.92,96.92,0,0,1-9.5,36.08l-.95.95-3.8,6.65a2.89,2.89,0,0,0,0,3.8,3.49,3.49,0,0,0,2.85.95c2.85,4.75,3.8,8.55,4.75,13.29s0,8.55-.95,13.29L418,501l-8.55,6.65ZM487.31,481l-8.55,6.65,3.8,10.45L474,491.47l-8.55,6.65,3.8-10.45L460.72,481h11.39l3.8-10.45,3.8,10.45ZM376.21,357.58h10.45l3.8-10.45,3.8,10.45h11.39l-9.5,6.65,3.8,10.45-9.5-6.65-9.5,6.65h0l3.8-10.45Zm28.49,89.26-8.55,6.65L399,463.93l-8.55-6.65-9.5,6.65,3.8-10.45-8.55-6.65h11.39l3.8-10.45h0l3.8,10.45ZM381,557.93l3.8-10.45-8.55-6.65h11.39l2.85-10.45,3.8,10.45h11.39l-8.55,6.65,3.8,10.45h0l-8.55-6.65L381,557.93ZM633.54,594a28.9,28.9,0,0,1-7.6,7.6h0L512,688,398.05,601.61h0a33.46,33.46,0,0,1-13.29-19L400,571.23l14.24-11.39,38.93-29.44L492.06,501,531,471.53l38.93-29.44,38.93-29.44L642.09,388V572.18c0,6.65-2.85,15.19-8.55,21.84" transform="translate(-369.57 -321.73)" style="fill:#272e61"/></svg>