<svg xmlns="http://www.w3.org/2000/svg" viewBox="0 0 246.58 348.35"><title>aston-villa-logo</title><path d="M388.71,337.83V601.46c0,40.48,47.71,53.73,82.56,63.42,7,1.93,13.56,3.77,19.28,5.64a50.12,50.12,0,0,1,9.89,4.81,54.56,54.56,0,0,1,8.27,7.23l3.3,3.61,3.32-3.6a54.06,54.06,0,0,1,8.27-7.24,49.27,49.27,0,0,1,9.86-4.79c5.71-1.88,12.3-3.72,19.28-5.65,34.84-9.68,82.56-22.93,82.56-63.42V337.83Z" transform="translate(-388.71 -337.83)" style="fill:#603"/><path d="M626.3,601.46c0,33.66-42.14,45.37-76,54.77-7.07,2-13.78,3.82-19.71,5.78a58.71,58.71,0,0,0-12,5.78,52.13,52.13,0,0,0-6.64,5.42,52.75,52.75,0,0,0-6.64-5.37,58.05,58.05,0,0,0-12-5.78c-5.92-1.93-12.61-3.81-19.69-5.78-33.85-9.46-76-21.16-76-54.83V346.82H626.3Z" transform="translate(-388.71 -337.83)" style="fill:#94bee5"/><polygon points="37.32 109.71 44.61 105.83 51.9 109.71 50.5 101.47 56.39 95.64 48.25 94.44 44.61 86.95 40.97 94.44 32.83 95.64 38.72 101.47 37.32 109.71" style="fill:#fff"/><path d="M512.07,359.67c-2.24.15-4.55.23-7.17.23-2.93,0-5.86-.08-9.49-.23-.93.39-.93,2-.31,2.62l2.47.54c1.85.46,2.46.77,2.46,1.29a9.91,9.91,0,0,1-.77,2.78c-.93,2.62-4.24,11.26-6.17,16.12l-2.93,7.25c-.93,2.31-2.16,4.93-2.78,6.25L484.82,390,478,372.7c-1.85-4.63-3.08-7.86-3.08-8.48s.54-1.16,1.93-1.47l2.31-.46c.46-.69.54-2.16-.08-2.62-4.7.15-8,.23-11.57.23-4,0-6.56-.15-10.49-.23a2,2,0,0,0-.31,2.62l3.08.77c2.47.64,2.85.77,5.78,8.18l12.5,31.39c1.08,2.62,2.39,6.71,3.21,8.79a3.21,3.21,0,0,0,2.08.64,5.14,5.14,0,0,0,2.7-.64c1.77-4.32,3.78-10.41,7.71-19.74l5.68-13.36c2.62-6.25,4.55-10.56,6.25-13.11,1-1.63,2.31-2.17,4.5-2.57l2-.39c.54-.46.46-2.31-.15-2.62" transform="translate(-388.71 -337.83)" style="fill:#603"/><path d="M546.13,359.89H528.88c-3.7,0-7.56-.08-10.88-.23-.85.31-.85,2.24-.15,2.7l1.54.23c3.47.55,3.93,1.24,3.93,8.41v28.69c0,7.17-.46,7.71-3.93,8.25l-2.57.39a2.13,2.13,0,0,0,0,2.7c4.63-.15,8.48-.23,12-.23s7.48.08,12.26.23a2.45,2.45,0,0,0,0-2.7l-2.85-.39c-3.47-.46-3.93-1.08-3.93-8.25V389.28c0-2.08.08-2.31,2.16-2.31h7c4.09,0,4.93.64,5.71,4.32l.39,1.85a2.29,2.29,0,0,0,2.93-.08c-.15-2.31-.23-5.14-.23-8s.08-5.78.23-8.26a2.32,2.32,0,0,0-2.93-.08l-.39,1.85c-.77,3.78-1.62,4.32-5.71,4.32h-7c-2.08,0-2.16-.23-2.16-2.32v-14c0-3,0-3.16,2.57-3.16H544c3.93,0,6.25.93,7.56,2.57.77,1,1.39,2.85,2.24,6,.93.64,2.62.54,2.93-.31-.15-5.14-.15-10.72-.15-12-1.08.15-5.47.23-10.41.23" transform="translate(-388.71 -337.83)" style="fill:#603"/><path d="M610.66,396.53c-2.08,5.25-6.4,12-15.7,12s-18.13-8.26-18.13-23.6,9.18-22.66,17.74-22.66c7.45,0,12.41,3.86,14.52,11,.54.69,2.62.39,2.94-.54a102.29,102.29,0,0,1-1-12.05c-2.32-.15-8-2-15.89-2-8,0-15.89,2.31-21.37,6.87-5.32,4.39-9.33,11-9.33,20.44s4.24,16,9.79,20.21c5.48,4.09,13.19,5.86,20.75,5.86,6,0,11.49-1.7,15.65-2.85,1.09-1.77,2.4-6.43,2.94-12.11a2.21,2.21,0,0,0-2.94-.54" transform="translate(-388.71 -337.83)" style="fill:#603"/><path d="M459.39,407.86c-2.85-.46-3.55-2.24-5.14-6.86l-10.51-30.2c-1.93-5.47-2.85-8.35-3.47-10.57-.31-1.16-.77-1.54-1.77-1.54-.14,0-2.57,3.16-5.78,4.35l-1.93,5.14c-.26.73-.56,1.52-.89,2.39l-.94,2.52v.05l-7.07,18.79c-2.08,5.55-3.55,9.25-4.86,12.34s-2.85,3.62-4.7,3.86l-2.09.23c-.54.64-.64,2.24.23,2.7,3.55,0,5.33-.23,7.95-.23,3.21.08,6,.08,8.71.23.77-.39.64-2.16.16-2.7L425,408c-2.16-.39-3.16-.85-3.16-1.29a8.91,8.91,0,0,1,.54-2.78l3-9c.46-1.46.69-1.54,2.57-1.54h9.19c2.7,0,3.32.15,3.7,1.39l2.08,6.62a32.55,32.55,0,0,1,1.46,5.24c0,.54-.31,1-2.08,1.29l-2.47.39A1.75,1.75,0,0,0,440,411c3.55-.15,6.55-.23,10.42-.23s8.17.08,11.87.23c.69-.46.54-2.31.08-2.7Zm-22.66-18.58h-7.25c-1.93,0-2.31-.23-1.62-2.31l1.93-5.78c1.16-3.55,2.71-7.71,3.32-9.49.69,1.62,2.08,5.78,3.16,9.1l2,6.25c.64,2,.23,2.24-1.54,2.24" transform="translate(-388.71 -337.83)" style="fill:#603"/><path d="M487.1,449.39c-1.36,1.36-1.18,3.06-2.4,4.28a2.92,2.92,0,0,1-2.1.87,3,3,0,0,1-3-2.94v-.05c0-1.53,1.74-2.88,6.55-2.88a17.46,17.46,0,0,1,1.88.07,2.57,2.57,0,0,0-1,.64m118.27,36a8.13,8.13,0,0,0-2.12.22,34.46,34.46,0,0,0,9.11-22.92c0-6.35-1.5-8.8-1.76-8.8-.48,0-.48,3.78-3.41,6.71-2.11,2.12-5.44,2.34-7.3,4.19,1.79-3.86.51-9,.25-9s-.11,2.74-3.55,6.18c-2.2,2.19-7.29,3.78-11.45,7.94,1.77-4.06.22-8.35-.15-8.35s0,2.45-2.4,4.82c-2.2,2.2-6.46,3.32-9.64,6.5-4.42,4.42-3.63,11.12-3.63,13.53v.69a22.65,22.65,0,0,0-9.52,18.19c0,12.46,8.08,20.9,15.2,28.34a76.87,76.87,0,0,1,8.28,9.64,16.93,16.93,0,0,1,3.26,9.56,12.72,12.72,0,0,1-2.83,8.16,10.45,10.45,0,0,1-8.35,3.57c-6.12,0-10.63-2.29-15.42-4.72a79,79,0,0,0-7.5-3.6c-1.36-13.49-11-21.59-11-34.19,0-6.86,3.05-10.67,1.93-15.48a12.24,12.24,0,0,0,7.24,3,3.32,3.32,0,0,0,2.13-.69.13.13,0,0,0,0-.2h0a7.56,7.56,0,0,1-3.07-6.07c0-4.16,1.55-7.34,1.55-11.46a10.22,10.22,0,0,0-2.72-7.07,11.57,11.57,0,0,0,6.81,3,4.37,4.37,0,0,0,2.67-.58.15.15,0,0,0,0-.21l0,0c-.8-.48-4-2.63-4-5.94,0-3.78,1.06-4.5,1.06-7.15a9.18,9.18,0,0,0-1.25-4.58,8.46,8.46,0,0,0,3.86,1.06,6.59,6.59,0,0,0,4.5-1.29.15.15,0,0,0-.09-.26c-5.9-.45-5.1-13.88-10.67-18.83a7.61,7.61,0,0,0,1.48.13,6.68,6.68,0,0,0,5.1-3.21.15.15,0,0,0-.05-.21h-.07c-10.66-.55-14.06-24.17-38.09-19.41a15.65,15.65,0,0,1,4.38-3.75.16.16,0,0,0,.06-.22.15.15,0,0,0-.06-.06c-1.08-.41-3.37-1.29-8.75-1.29a17.44,17.44,0,0,0-13.49,6.7c1.29-2.57-.3-5.92-1.75-7.53a.14.14,0,0,0-.21,0,.17.17,0,0,0-.05.08,7.31,7.31,0,0,1-1.66,3c-4.34,4.33-12.11,7.11-12.11,16.11,0,0-2.53,1.63-6,4s-5.31,6-5.31,7.15a71.86,71.86,0,0,0-11.13,9.05.3.3,0,0,0,0,.38,9.12,9.12,0,0,1,1,2.18.3.3,0,0,0,.37.2.29.29,0,0,0,.12-.07,10.79,10.79,0,0,1,2.3-1.77,4.75,4.75,0,0,0-1.29,3.65c0,3.27,7.28,7.88,7.71,7.42s-.86-3.67.24-4.77c1.63-1.63,7.41-1.84,9.21-1.84s2.71.69,2.71,1.93c0,3.08-1.75,8.79-7.31,8.79-2.25,0-3.71-2.17-4.08-1.81s-.08,3.59.64,4.68a3.63,3.63,0,0,0-.64,2.27c0,4,6.57,9.08,7.25,8.4.45-.45-1.36-4.95-.21-4.95.64,0,2.38,2.57,4.41,2.57a.21.21,0,0,0,.16-.05c.33-.33-1.29-2.57-.42-3.45,2.22-2.22,8-6.55,9.45-7,3.06-1,4.67,1.25,4.67,4.24,0,6.67-7.07,8-12.85,13.81s-6.92,14-14.19,14c-1,0,5.38-1.75,7.18-8.06-19,.14-22.21-10.47-37.42-12.5a1.21,1.21,0,0,0-.33-.64c-.4-.4-5.73-5.08-5.73-15.62a3.54,3.54,0,0,0-3.3-3.77H433c-.64-1.48-2.49-4.5-6.3-4.5-3.6,0-4.5,1.68-4.31,1.89s1.75-.36,3.64,1.52a6.3,6.3,0,0,1,1.69,3.21A3,3,0,0,0,427,472a4.5,4.5,0,0,0-3.69,1.36,8,8,0,0,0-4.09-1c-5.21,0-6.29,4.7-6.08,4.92s1.14-.84,2.75-.84c1.82,0,3.75,1.45,4.76,2.35a3.78,3.78,0,0,0,.93,3.15s-2.5.76-2.92,4.27l-.37.1c-6.92,1.93-5.61,7.33-5.32,7.33s.64-2.32,3.86-2.32a11.49,11.49,0,0,1,2.69.3,5.46,5.46,0,0,0,5,2.91c1.44,0,2.77-.31,3.95-.31,1.58,0,2.57,1,2.57,3.17,0,3.26-3.13,2.28-4.5,3.68a3.78,3.78,0,0,0-1.09,3.1v.16a4.5,4.5,0,0,1-1.37.22c-2.16,0-3.39-1.93-3.67-1.66s.91,6.58,5.29,6.58a5.39,5.39,0,0,0,3.32-1,5.7,5.7,0,0,0,1.19.13c4.43,0,5.43-5.34,10.92-5.34s16.06,7.59,17.57,17.08a.15.15,0,0,0,.16.13l.08,0a6.43,6.43,0,0,0,2.27-4.92,118.34,118.34,0,0,1,10.11,9s-21.89,16.82-23,17.46a4.34,4.34,0,0,1-2.66.82c-3.08,0-4-5.14-8.94-5.14a3.64,3.64,0,0,0-2.24.73,9.23,9.23,0,0,0-1.93-.17c-5.78,0-6.84,7.77-6.28,7.77s1-2,3.71-2a5.09,5.09,0,0,1,1.08.12,4.63,4.63,0,0,0,1.54,3.63,5,5,0,0,0-2.47,2.44c-6.91.22-6.76,8.31-6.12,8.31.48,0,.76-3.38,4.72-3.38a2.38,2.38,0,0,1,1,.3c.71,3,2.78,4.67,5.22,4.67a5.7,5.7,0,0,0,.15,4.53c-1.59,3.33,1.25,7.92,2,7.92.55,0-.13-2.92,1.13-4.84a3.73,3.73,0,0,0,.84.1,5.86,5.86,0,0,0,5.09-3,3.79,3.79,0,0,0,3.38,3.51c.64,2.82,2.49,5.23,3.08,5.23.41,0-.39-3.86.79-6.32,4.5-4.5,1-10.37,5.65-15.06,5.4-5.4,18.68-10.22,29.59-10.66,3.95,4.45,9.42,11.15,11.94,12.89,0,0-.12.13-.26.28-6.73,6.73-19.28.84-25.84,7.41-2.61,2.61-3,5-6.64,5a4.67,4.67,0,0,1-3-1.13.15.15,0,0,0-.21,0,.2.2,0,0,0,0,.06,5.87,5.87,0,0,0,1.57,5.38A5.51,5.51,0,0,0,470.1,573c-1.82,2.45-5.78,2.33-8.12,1a.15.15,0,0,0-.21.05.14.14,0,0,0,0,.12c1.84,7,9.1,5.69,9.1,5.69,1.51,7.54,9,10.67,9,15.71a6.08,6.08,0,0,1-1.86,4.2c-2.83,2.83-9.09,4.7-15.9,4.7-10.92,0-11.09-7.79-17.08-7.79a9.22,9.22,0,0,0-2.26.28,6.93,6.93,0,0,0-5.08-2.11c-3.65,0-5.78,4.13-5.28,4.63.31.31,1.37-1,3-1a2.7,2.7,0,0,1,2.24,1.79,9,9,0,0,0-.78,1.17,9,9,0,0,0-2.31-.26c-6.87,0-6.75,7.94-6,7.94.42,0,1.32-2.94,4.65-2.57a8.71,8.71,0,0,0-1,4.12v.64a5.49,5.49,0,0,0-2.79,4.58c0,2.87.55,4.34,1,4.34s1-3.32,3.49-4.41a8.71,8.71,0,0,0,4.69,3.21,20.36,20.36,0,0,0-.45,4.63c0,2.65.83,6.22,1.39,6.22s.84-4.12,2.63-5.72a8.82,8.82,0,0,0,2.65,1.75,8.08,8.08,0,0,0,3.41.69h.24c9.18-.15,15-8.56,21.92-8.56,3.86,0,3.92,3.6,2.52,5.14,10.42,0,13.4-7.94,19.76-7.94,3.21,0,6.12,1.72,9.07,1.69a5.94,5.94,0,0,0,5.68-3.42.15.15,0,0,0-.06-.2h-.08c-4.87.05-6.93-2.25-7.31-3.69,8.72,3.52,11.27-1.93,11.78-3.37a.15.15,0,0,0-.1-.19.14.14,0,0,0-.1,0,4.54,4.54,0,0,1-1.68.34c-4.7,0-9.78-4.75-9.78-11.33a11.13,11.13,0,0,1,8.44-10.92c3.21-9.19,7.82-11,6.05-16.79v-.06h0a10.51,10.51,0,0,1,1.43,4.5c0,6.07-5.82,9.55-5.82,19.16,0,10.85,8.45,10.42,8.45,17.68a8,8,0,0,1-1.53,5.08.15.15,0,0,0,0,.22h.06c1,.15,5,.28,8.82-6,5,2.61,3.69,7,3.3,8a.16.16,0,0,0,.1.2h.05c6.57-.21,8.69-9.12,8.69-9.12,5.78-.64,10.37,1.37,10.37,3.81,0,6.28-11.73,18.05-20.32,18.05-3.21,0-4.31-3.33-7.11-3.33a3.69,3.69,0,0,0-3.64,2.22A8.56,8.56,0,0,0,514,627a5.91,5.91,0,0,0-6,4.9c-3.68,1.21-4.45,6.94-4.08,7.31s2.09-2.75,5.14-2a11.93,11.93,0,0,0,1.63,2,8.11,8.11,0,0,0-2,1.45c-3.62,3.62-2.71,7.67-2.36,8s1-1.41,2-2.41a4.44,4.44,0,0,1,3.44-1.53c1.23,2.35,3.9,2.94,5.6,2.94-.21,2.11-.18,5.65.35,6.18s2-3,4.5-4.83a9.1,9.1,0,0,0,4.63,1.57c4.79,0,9.05-2.24,12.51-5.7,5-5,8.49-13.11,12.75-13.11a2,2,0,0,1,2.08,2.74c6.89,0,4-8.42,17.05-21.51,1.6-1.61,3.47-3,3.71-4.59a.15.15,0,0,0-.12-.17.14.14,0,0,0-.1,0c-1.16.73-4.09,1-5.41-.36,0,0,10.6-5.27,10.92-13.15a.16.16,0,0,0-.15-.16h-.1c-2.86,2.26-8.16,1.73-8.16,1.73,2.47-2,4.29-7.64,1.74-13a.15.15,0,0,0-.21-.07.13.13,0,0,0-.07.07,12.48,12.48,0,0,1-12,7.82,12.15,12.15,0,0,1-12.07-12.44c0-6.15,2-8.91,2.81-14.4,1.39.6,2.83,1.33,4.36,2.11,5.1,2.57,10.88,5.53,18.82,5.53a19.62,19.62,0,0,0,8.16-1.69,17.23,17.23,0,0,0,6-4.54,20.1,20.1,0,0,0,4.63-13.06c0-10.19-6.93-17.44-13.65-24.42a76.17,76.17,0,0,1-9.22-10.92,21.84,21.84,0,0,1-3.86-12.21c0-4.21,2.37-8.73,5.61-11.64a35.9,35.9,0,0,0,15.52,4,18.34,18.34,0,0,0,13.27-6.09c3.82-3.82,7.9-3.21,8.32-3.63s-1.75-2.53-4.73-2.53" transform="translate(-388.71 -337.83)" style="fill:#ffe600"/></svg>