<?xml version="1.0" encoding="UTF-8" standalone="no"?>
<!-- Generator: Adobe Illustrator 19.0.0, SVG Export Plug-In . SVG Version: 6.00 Build 0)  -->

<svg
   xmlns:dc="http://purl.org/dc/elements/1.1/"
   xmlns:cc="http://creativecommons.org/ns#"
   xmlns:rdf="http://www.w3.org/1999/02/22-rdf-syntax-ns#"
   xmlns:svg="http://www.w3.org/2000/svg"
   xmlns="http://www.w3.org/2000/svg"
   xmlns:sodipodi="http://sodipodi.sourceforge.net/DTD/sodipodi-0.dtd"
   xmlns:inkscape="http://www.inkscape.org/namespaces/inkscape"
   version="1.1"
   id="Layer_1"
   x="0px"
   y="0px"
   viewBox="0 0 700 700"
   xml:space="preserve"
   sodipodi:docname="rayo-vallecano-logo.svg"
   width="700"
   height="700"
   inkscape:version="0.92.0 r15299"
   inkscape:export-filename="C:\Users\suitedoalex\sites\rayo-vallecano-logo-0.png"
   inkscape:export-xdpi="561.73712"
   inkscape:export-ydpi="561.73712"><metadata
     id="metadata43"><rdf:RDF><cc:Work
         rdf:about=""><dc:format>image/svg+xml</dc:format><dc:type
           rdf:resource="http://purl.org/dc/dcmitype/StillImage" /><dc:title></dc:title></cc:Work></rdf:RDF></metadata><defs
     id="defs41" /><sodipodi:namedview
     pagecolor="#ffffff"
     bordercolor="#666666"
     borderopacity="1"
     objecttolerance="10"
     gridtolerance="10"
     guidetolerance="10"
     inkscape:pageopacity="0"
     inkscape:pageshadow="2"
     inkscape:window-width="1366"
     inkscape:window-height="705"
     id="namedview39"
     showgrid="false"
     inkscape:zoom="0.2979798"
     inkscape:cx="236.33123"
     inkscape:cy="477.08958"
     inkscape:window-x="-8"
     inkscape:window-y="-8"
     inkscape:window-maximized="1"
     inkscape:current-layer="g34" /><style
     type="text/css"
     id="style2">
	.st0{fill:#FFFFFF;}
	.st1{fill:#D0AD3E;}
	.st2{fill:#EE3E2F;}
	.st3{fill:#199542;}
	.st4{fill:#231F20;}
	.st5{fill:#552623;}
</style><g
     id="g36"
     transform="matrix(0.33259307,0,0,0.33259307,338.44943,97.691914)"><g
       id="g34"><path
         class="st1"
         d="m 34.522809,1446.8584 c -1.08437,-0.5005 -1.41802,-1.6266 -2.00191,-2.5024 -15.84845,-24.5652 -33.03150035,-48.1293 -52.21647,-70.1503 -9.59248,-11.0105 -19.85227,-21.3953 -29.94522,-31.9054 -9.42566,-9.8427 -19.26838,-19.2684 -29.90352,-27.8182 -17.85036,-14.347 -37.786039,-24.857 -59.223149,-32.6561 -32.53103,-11.803 -64.31134,-25.3575 -95.46606,-40.4553 -53.25913,-25.7746 -104.14099,-55.6364 -153.02095,-88.8764 -30.02861,-20.4362 -58.59757,-42.7075 -85.83184,-66.772 -18.22573,-16.0987 -35.82582,-32.8647 -52.59181,-50.5483 -53.09232,-55.97022 -97.25943,-118.11279 -130.08244,-188.09621 -21.72903,-46.33586 -37.74435,-94.59022 -47.79554,-144.80477 -3.96218,-19.72715 -6.92327,-39.62113 -9.17546,-59.64022 -3.04459,-26.85895 -3.54502,-53.7596 -3.25306,-80.74367 0.16676,-15.30627 1.25119,-30.52912 2.79434,-45.71026 3.92039,-38.45335 11.26067,-76.3228 21.97928,-113.48324 13.47115,-46.58609 31.65517,-91.29541 54.30179,-134.16961 21.43707,-40.6638 46.33581,-79.11712 75.0716,-115.02643 6.33934,-7.9242 12.92894,-15.63986 19.76879,-23.14705 2.37733,-2.62749 2.50245,-2.71091 5.46362,-0.66726 13.38774,9.2171 27.23428,17.72522 41.62303,25.39917 18.30906,9.75931 37.28554,17.97547 56.84587,24.85703 27.31769,9.59255 55.38614,16.30727 83.95502,20.72817 16.47411,2.54408 33.03153,4.21235 49.67241,5.42183 23.73096,1.6682 47.46193,1.96016 71.2346,1.25119 17.34989,-0.54222 34.65806,-1.70999 51.92453,-3.75364 27.9016,-3.33647 55.34445,-8.84171 82.286809,-16.84933 35.45047,-10.55178 69.14928,-25.10729 100.5959396,-44.66761 10.6351504,-6.58968 20.8949304,-13.72141 30.4457104,-21.85423 2.6275,-2.25212 2.66921,-2.25212 4.75453,-0.45872 15.47309,13.01236 32.44762,23.85609 50.21456,33.49028 39.662831,21.43706 81.828041,35.7841 125.995171,44.45906 18.1423,3.54502 36.40972,6.04739 54.80227,7.63224 27.73478,2.41896 55.51128,2.91946 83.28777,2.04366 19.26837,-0.58393 38.53674,-2.16878 57.68001,-4.62945 33.99075,-4.33747 67.27249,-11.67783 99.59499,-23.06363 34.11587,-12.0115 66.10471,-28.27699 95.92482,-48.79654 0.33365,-0.25026 0.6673,-0.50051 1.00095,-0.70905 3.54505,-2.41896 3.58676,-2.41896 6.4228,0.66734 9.38394,10.25973 18.22571,20.97835 26.73382,31.98884 29.44476,38.20306 54.76057,78.99199 76.19768,122.15816 23.56414,47.46193 41.66474,96.88406 53.92643,148.43323 5.33842,22.43807 9.42566,45.08466 12.17828,67.98151 2.04361,17.09964 3.46164,34.24099 4.25406,51.46575 0.6256,14.47214 0.75071,28.90256 0.29194,43.33299 -0.54218,16.64087 -1.75167,33.24004 -3.58675,49.8392 -3.2114,28.73574 -8.29958,57.13783 -15.30627,85.16456 -9.55077,38.24481 -22.64659,75.23842 -39.07893,111.02256 -24.48169,53.34253 -55.71981,102.47273 -92.67172,147.97443 -14.38873,17.68362 -29.61157,34.65822 -45.46002,51.00722 -50.88186,52.4667 -108.0197,97.0509 -169.91206,135.7545 -39.37089,24.6484 -79.82614,47.3368 -121.74111,67.3559 -29.98693,14.3053 -60.59946,27.0674 -91.83759,38.4116 -28.52721,10.3432 -53.38425,26.4836 -74.94648,47.8373 -15.68162,15.5565 -31.154711,31.3215 -45.543441,48.0875 -17.60012,20.4779 -33.28174,42.4155 -48.00411,65.0204 -0.6256,0.9175 -1.20949,1.8351 -1.8768,2.7526 -0.16682,0.1668 -0.50047,0.2502 -0.75071,0.4171 z"
         id="path6"
         inkscape:connector-curvature="0"
         style="fill:#d0ad3e;stroke-width:0.41706446"
         inkscape:export-filename="C:\Users\suitedoalex\sites\rayo-vallecano-logo-4.png"
         inkscape:export-xdpi="76.890388"
         inkscape:export-ydpi="76.890388" /><path
         class="st0"
         d="m 352.03397,292.54891 c 1.45973,-1.33461 3.2114,-1.41802 5.04648,-1.45973 20.43615,-0.54218 40.74719,-2.37726 61.01652,-4.92135 36.74338,-4.58771 72.73604,-12.42852 107.93628,-24.02294 19.43521,-6.38106 38.36993,-13.92996 56.88759,-22.60484 1.00096,-0.45879 2.12703,-0.79246 3.00287,-1.41802 2.00191,-1.41802 3.08628,-0.58392 4.29576,1.20948 7.54887,10.96879 14.8892,22.14612 21.77076,33.57367 25.69118,42.45716 46.66952,87.12476 62.05919,134.37816 9.17542,28.15185 16.18211,56.84588 20.72811,86.1238 2.91945,18.68449 4.87965,37.41068 5.88061,56.30371 0.87583,16.55745 1.00095,33.07321 0.29194,49.58896 -2.87775,65.10376 -16.64087,127.87195 -41.53962,188.13777 -17.85035,43.20787 -40.7889,83.62142 -68.31515,121.40746 -16.30722,22.39636 -33.94904,43.62493 -52.84206,63.89427 -47.00317,50.46499 -100.47083,92.96389 -158.60961,129.79069 -39.70454,25.149 -80.66027,48.0875 -123.20084,68.1483 -25.39922,11.9697 -51.29893,22.73 -77.6574,32.3225 -36.49314,13.2209 -69.2744,32.6144 -97.885031,58.9312 -13.72141,12.6371 -26.48358,26.1499 -39.37088,39.6211 -2.21044,2.2939 -4.62941,4.3792 -7.21522,6.7982 -3.67016,-3.0863 -6.79814,-7.0901 -10.30149,-10.7603 -12.929,-13.3878 -25.7328704,-26.9006 -39.70453,-39.2457 -25.44093,-22.5632 -54.05155,-39.9132 -85.706739,-52.1748 -19.81056,-7.674 -39.78795,-14.9309 -59.26486,-23.439 -34.28269,-14.9726 -67.64785,-31.7803 -100.09546,-50.298 -30.19547,-17.2247 -59.64022,-35.6173 -88.08398,-55.5947 -27.4429,-19.2684 -53.59282,-40.1216 -78.36643,-62.7683 -9.13376,-8.3414 -18.14231,-16.80783 -26.81727,-25.60783 -44.50078,-45.20981 -82.87067,-95.04902 -112.64911,-151.2276 -21.68731,-40.91402 -38.32818,-83.78825 -49.33868,-128.83121 -5.00482,-20.51956 -8.92521,-41.20596 -11.55271,-62.1843 -2.1687,-17.39159 -3.67014,-34.78317 -4.21235,-52.29988 -0.25025,-8.04935 -0.41709,-16.09869 -0.29196,-24.14804 0.29196,-15.80674 1.16777,-31.61348 2.79433,-47.37851 2.58579,-24.77363 6.79814,-49.21361 12.67877,-73.36164 10.38494,-42.66569 25.60779,-83.57972 44.91786,-122.9923 14.5138,-29.65329 31.07125,-58.05538 49.83919,-85.20624 0.25025,-0.33367 0.41709,-0.70905 0.66726,-1.04272 1.91853,-2.6275 1.96024,-2.71092 5.04653,-1.25119 14.59722,6.83985 29.40306,13.13757 44.5842,18.60111 27.73478,10.05127 56.09511,17.72523 85.08116,23.23048 15.68156,2.96116 31.48833,5.33843 47.33681,7.17351 11.42753,1.2929 22.93852,2.21044 34.44949,2.91945 17.34988,1.08437 34.69976,1.54314 52.04965,1.50143 20.85322,-0.0417 41.66473,-0.87584 62.43454,-2.71092 56.76247,-5.04647 111.814979,-17.43332 164.657039,-39.07893 19.1849696,-7.84078 37.86945,-16.72429 55.76152,-27.19265 3.08627,-1.79332 5.38013,-2.00186 8.67493,-0.12504 39.16236,22.438 80.827091,38.66185 124.493741,50.00599 23.9395,6.21426 48.21265,10.67685 72.73604,13.92995 6.04744,0.79242 12.13658,1.2929 18.22572,1.9185 0.83413,0.0834 1.66825,0 2.33556,0.6256 0,0.20853 0.0417,0.41706 0.0417,0.62559 0,0.41706 -0.0834,0.83413 -0.20854,1.25119 -6.38109,12.17829 -13.5963,23.89779 -20.47786,35.82584 -29.15281,50.42309 -58.34732,100.76277 -87.58354,151.14416 -20.43615,35.24194 -40.78889,70.48389 -61.308471,105.64242 -9.25883,15.84844 -18.35084,31.78031 -27.56795,47.62876 -0.33366,0.58388 -0.75072,1.16778 -0.5839,2.16873 1.45973,0.58389 2.83604,-0.25024 4.21235,-0.6673 34.2827,-10.00955 68.690511,-19.64374 103.014921,-29.52817 0.54219,-0.16682 -0.12511,0 0.41707,-0.12511 1.58484,-0.29195 3.54504,-1.54314 4.71283,-0.16683 1.37631,1.58485 -0.20854,3.41993 -1.04267,4.92136 -8.25787,14.30531 -16.55746,28.65233 -24.85704,42.95764 -24.23144,41.83156 -48.546301,83.66312 -72.736041,125.53639 -6.33937,10.9688 -12.55364,21.9793 -19.14325,32.78127 -0.79243,1.2929 -1.37632,3.2531 -3.04457,3.08627 -2.04362,-0.20852 -1.91851,-2.46067 -2.29386,-3.9621 -8.67494,-35.24195 -17.26647,-70.48389 -26.02482,-105.68413 -0.33365,-1.33461 -0.6256,-2.71093 -1.2512,-4.546 -4.83794,8.09104 -9.30053,15.89015 -13.7631204,23.64754 -16.89111,29.23622 -33.8656296,58.43073 -50.7984496,87.66695 -26.02482,44.70931 -52.09135,89.54374 -78.032749,134.37817 -17.55842,30.32059 -35.15854,60.55774 -52.67525,90.92024 -3.2531,5.6303 -3.75358,5.6721 -9.34223,2.419 -7.88253,-4.6711 -15.80675,-9.3423 -23.81439,-13.7632 -0.91754,-0.5005 -1.83508,-1.7099 -2.96116,-0.9175 -1.00095,0.709 -0.58389,2.0436 -0.45877,3.128 1.9602,14.7223 3.58676,29.4865 5.38014,44.2505 2.33556,19.4352 4.71283,38.8704 6.96497,58.3056 0.83413,7.0484 1.66826,14.0551 2.50239,21.1035 0.45877,3.9204 0.58389,4.0872 4.33747,2.5024 17.18305,-7.2153 34.3244,-14.4721 51.46575,-21.7708 21.10346,-9.0086 42.248629,-17.8503 63.310379,-26.9424 1.00096,-0.417 2.16874,-0.5838 3.00287,-1.9601 -4.71283,-3.5451 -10.00955,-6.2143 -15.09774,-9.1338 -3.83699,-2.2104 -7.63228,-4.546 -11.510969,-6.7147 -5.1299,-2.9195 -5.63038,-4.0872 -2.62751,-9.1754 7.215219,-12.3452 14.388719,-24.7737 21.520519,-37.1605 24.27315,-41.99858 48.75483,-83.87181 72.9028696,-125.91191 0.83413,-1.45972 1.66826,-2.87774 2.58579,-4.29576 0.79242,-1.20949 1.41803,-3.16969 3.16969,-2.83604 1.66826,0.33365 1.75168,2.33556 2.12703005,3.75358 4.50429995,17.76695 8.84176995,35.61731 13.22095035,53.42596 4.58771,18.76787 9.21712,37.53577 13.97166,57.13797 C 131.03152,839.69575 235.33934,659.69074 340.10592,478.97672 c -8.17446,2.00191 -15.5565,4.29576 -22.93854,6.38108 -28.06844,8.00764 -56.13687,16.01528 -84.20531,24.02292 -2.04361,0.58388 -4.75453,2.41897 -6.21425,0.58388 -1.62656,-2.04361 0.709,-4.37917 1.83507,-6.33937 32.82297,-56.3037 65.3123,-112.81594 98.09356,-169.16134 7.42375,-12.72047 14.8475,-25.44093 22.14613,-38.24481 0.83413,-1.37632 1.45972,-3.00286 3.21139,-3.67017 z"
         id="path8"
         inkscape:connector-curvature="0"
         style="fill:#ffffff;stroke-width:0.41706446"
         inkscape:export-filename="C:\Users\suitedoalex\sites\rayo-vallecano-logo-4.png"
         inkscape:export-xdpi="76.890388"
         inkscape:export-ydpi="76.890388" /><path
         class="st2"
         d="m 352.03397,292.54891 c -8.46641,14.68067 -16.89111,29.36134 -25.39923,44.04201 -32.65614,56.38711 -65.354,112.73251 -98.01014,169.07792 -0.70901,1.25119 -1.79338,2.41898 -1.9602,4.5043 38.41163,-11.0105 76.48962,-21.89589 114.5676,-32.82297 0.20854,0.20853 0.41706,0.41706 0.6256,0.58389 C 236.75736,659.27368 131.65712,840.655 25.972989,1022.954 16.255389,983.41614 6.7880186,944.87941 -2.8044614,906.009 c -1.87679,1.41802 -2.50239,3.2531 -3.41993,4.83795 -28.2352596,48.79654 -56.5539396,97.59315 -84.8308996,146.38975 -4.12894,7.0901 -8.21617,14.1803 -12.303399,21.2704 -1.70996,2.9611 -1.70996,3.0445 1.20949,4.7128 9.258819,5.3801 18.517649,10.7185 27.776489,16.0987 1.08436,0.6255 2.29385,1.0009 3.37822,2.5023 -41.706449,17.6835 -83.287769,35.3254 -125.411279,53.2175 -5.42184,-45.2516 -10.76026,-90.0025 -16.22381,-135.7962 12.01146,6.9233 23.14708,13.3461 34.61635,19.9774 66.39666,-114.52611 132.668199,-228.88519 199.481919,-344.12009 9.71761,39.496 19.22667,78.07447 28.94428,117.69559 40.7472,-70.27536 80.993911,-139.7583 121.741101,-210.07537 -39.03722,11.17733 -77.115211,22.10442 -115.526841,33.11492 -0.0834,-1.9602 0.91753,-2.96116 1.54314,-4.08722 33.61539,-58.05538 67.272491,-116.11074 100.929591,-174.16612 31.98884,-55.17762 63.93598,-110.31354 95.92482,-165.49117 0.41706,-0.70901 0.83413,-1.41802 1.2929,-2.12703 0.12512,-0.20853 0.25024,-0.41706 0.29195,-0.62559 0,0 0.0417,-0.0834 0.0417,-0.0834 4.12894,0.0834 8.25788,-0.0834 12.34511,0.70901 0.6673,0.12512 1.37631,0.20853 2.04361,0.20853 9.00859,-0.0417 17.97548,0.75072 26.94236,1.12608 14.51385,0.62559 29.0694,0.54218 43.58324,0.54218 2.62751,0 5.25501,0.25024 7.84081,-0.54218 1.12607,-0.41707 2.16874,-0.0834 2.62751,1.25119 z"
         id="path10"
         inkscape:connector-curvature="0"
         style="fill:#ee3e2f;stroke-width:0.41706446"
         inkscape:export-filename="C:\Users\suitedoalex\sites\rayo-vallecano-logo-4.png"
         inkscape:export-xdpi="76.890388"
         inkscape:export-ydpi="76.890388" /><path
         class="st3"
         d="m -79.961381,560.3877 c 0,-6.71474 0.0417,-12.80388 -0.0417,-18.89302 -0.0417,-1.75167 -1.20948,-3.04458 -2.25214,-4.37918 -3.12799,-3.92041 -6.67304,-7.46545 -10.17637,-11.0105 -8.800059,-8.88347 -17.766949,-17.64183 -26.233359,-26.85895 -9.21712,-10.05125 -14.97261,-21.64565 -16.34892,-35.28365 -0.79242,-8.04935 -0.0834,-15.84845 5.08818,-22.60489 1.54314,-2.00191 3.25311,-3.837 5.50526,-5.00478 2.29385,-1.16778 3.67016,-0.54218 4.29576,1.96021 0.87584,3.62845 1.54314,7.34033 2.33556,11.01049 4.62941,21.56223 18.100599,35.99267 37.327269,46.29415 1.12607,-3.16968 0.33364,-5.96402 -0.29195,-8.71664 -0.6673,-3.00286 -2.08532,-5.71378 -3.41993,-8.46641 -6.00573,-12.3451 -11.96975,-24.69021 -16.557459,-37.70262 -3.67016,-10.42661 -6.38108,-21.02005 -5.42184,-32.19737 0.95925,-11.38586 3.92041,-22.14613 10.468319,-31.6552 5.58867,-8.13275 13.09583,-13.51289 22.89684,-15.38968 0.54219,-0.12511 1.08437,-0.20853 1.62655,-0.29194 4.546,-0.58389 4.92136,-0.25024 4.08723,4.21235 -1.79338,9.42566 -3.2531,18.85131 -4.37917,28.40209 -1.20949,10.42661 -0.0834,20.47786 3.33651,30.36229 2.83603,8.17446 4.79624,16.51575 5.46355,25.14898 0.58388,7.46546 -0.20854,14.68068 -2.50239,21.77077 -1.9185,5.92231 -1.50144,11.96975 -1.33461,18.55936 3.16969,-2.16873 5.25501,-4.5877 7.54887,-6.79815 3.96211,-3.87869 7.67399,-8.04934 11.0105,-12.51193 4.33747,-5.8389 6.67303,-12.42851 6.92327,-19.72715 0.20853,-5.42183 0.50047,-10.80196 0.79242,-16.2238 0.20854,-3.41993 0.91755,-3.8787 3.67017,-2.21044 9.0503,5.50525 14.84749,12.9707 15.59821,24.10632 0.58389,8.59153 0.33365,16.89111 -3.67017,24.77363 -2.33556,4.62942 -5.63036,8.54982 -9.30054,12.21999 -8.25787,8.25787 -16.1821,16.80769 -23.39731,26.02482 -9.21713,11.84463 -9.25883,11.84463 -9.21713,26.81724 0,1.50143 -0.29194,3.04457 0.41707,4.83795 1.37632,-0.0834 2.46068,-1.00095 3.58676,-1.66825 12.55363,-7.38205 20.31104,-18.64278 25.73287,-31.82203 1.83508,-4.50429 3.2114,-9.17541 4.08723,-13.97165 0.50048,-2.66922 1.25119,-3.04457 3.58675,-1.58485 7.25692,4.54601 11.88634,10.63515 11.84463,19.68545 -0.0417,12.63705 -4.96306,23.23049 -13.17923,32.4059 -7.42375,8.29958 -15.80674,15.63992 -24.02291,23.10537 -3.29482,3.04457 -6.54791,6.08914 -9.80102,9.13371 -1.45972,1.37632 -2.37727,2.91945 -2.33556,5.08819 0.0834,10.30149 0.0417,20.56127 0.0417,30.86276 0,0.37537 0.16683,0.75072 0.33365,1.62656 2.46068,-1.41802 4.21235,-3.33651 6.08914,-5.04648 5.71378,-5.38013 10.55173,-11.42757 15.01432,-17.85036 3.46164,-5.00477 5.54696,-10.55173 6.54792,-16.51575 0.75071,-4.5043 1.70996,-9.00859 3.00286,-13.38777 1.12607,-3.8787 1.79337,-4.04553 4.79623,-1.20949 4.04553,3.79529 7.0484,8.29958 8.54983,13.5963 2.21044,7.67399 3.08628,15.5565 1.91849,23.48073 -1.04265,7.09009 -4.17064,13.17924 -9.25882,18.22572 -9.13372,9.13371 -18.43426,18.1423 -26.98407,27.8599 -2.58581,2.91945 -4.96308,5.96402 -7.46546,8.96688 -1.83508,2.21045 -2.75263,4.71284 -2.5858,7.67399 0.16683,3.29482 0.0417,6.58962 0.0417,9.59248 0.79242,0.58389 1.16778,0.41707 1.50143,0.16683 7.54887,-5.67207 15.09773,-11.38586 22.6466,-17.01623 8.46641,-6.33938 14.47214,-14.47213 18.05889,-24.43998 1.70996,-4.71282 3.75358,-9.25882 6.33938,-13.55459 1.66826,-2.79433 2.41897,-2.83604 3.9204,-0.0834 5.1298996,9.21712 7.8408196,18.97643 5.8806096,29.61157 -1.12607,6.25597 -4.5877096,11.26074 -8.9251796,15.72333 -3.37821,3.50334 -7.29862,6.4228 -11.26074,9.25884 -7.34033,5.25501 -14.76408,10.42661 -22.021,15.76503 -4.50429,3.29481 -8.63323,7.00668 -12.01145,11.51098 -2.83605,3.79528 -4.29577,8.00764 -4.21236,12.80387 0.12512,5.25502 0.0417,10.55174 0.0417,15.80675 1.20949,0.62559 1.8768,-0.37536 2.62751,-0.87584 8.4247,-5.67207 16.80769,-11.34415 25.19069,-17.05793 4.92136,-3.37822 9.55077,-7.21521 13.26265,-11.96975 2.75263,-3.50334 4.92136,-7.38204 6.50621,-11.55269 0.95924,-2.58579 1.87678,-2.71092 3.79528,-0.83412 3.00287,2.91945 4.62941,6.58962 5.04648,10.71855 1.7099696,17.30817 -3.79528,31.48836 -18.39254,41.49791 -10.84367,7.42375 -22.60489,13.09582 -35.03342,17.18306 -6.29766,2.08532 -10.67684,5.63036 -13.88824,11.59439 -9.75931,18.22571 -23.897789,32.61444 -40.997429,44.12542 -15.76504,10.59343 -32.44762,19.26838 -51.17381,23.52243 -12.76217,2.91945 -25.69117,4.5043 -38.74528,5.38013 -15.26457,1.00096 -30.52912,1.2929 -45.79368,1.2929 -0.83413,0 -1.62655,0.0834 -2.46068,0.16683 -0.29194,1.45972 0.91754,1.62655 1.62655,2.16873 8.96689,6.79815 18.1006,13.38777 26.5253,20.85322 3.12798,2.75263 6.00573,5.7555 8.29958,9.30054 4.58771,7.1318 3.75358,14.43043 -0.16682,21.31199 -4.25407,7.46546 -17.14135,8.80007 -23.56415,2.87775 -1.45972,-1.33461 -2.54409,-2.96116 -3.62846,-4.546 -4.42088,-6.58962 -8.67493,-13.26265 -13.42947,-19.60203 -5.79719,-7.71569 -12.55364,-14.47214 -20.14421,-20.43616 -5.50526,-4.33747 -11.42757,-7.1318 -18.7262,-6.75644 -5.08818,0.25024 -9.46736,1.91849 -13.51288,4.79624 -7.63229,5.42183 -14.38873,11.80292 -20.26931,19.10155 -5.08824,6.29768 -9.50913,13.01241 -13.92995,19.72715 -1.08443,1.62655 -2.16878,3.2531 -3.25313,4.83794 -3.79527,5.63038 -9.2171,7.17352 -15.63994,6.21427 -6.79814,-1.00096 -10.96878,-4.71284 -12.63706,-11.46928 -1.7099,-6.96497 -0.62555,-13.17923 4.00381,-18.72619 4.0456,-4.83795 8.80009,-8.88347 13.72149,-12.72047 6.96498,-5.46354 14.055,-10.80196 21.31194,-16.39063 -1.00093,-0.95925 -2.1687,-0.6673 -3.12792,-0.6673 -15.26464,0 -30.5709,-0.25024 -45.79375,-1.33461 -19.85221,-1.41801 -39.62108,-3.79528 -58.13877,-11.6778 -24.35653,-10.38491 -45.96051,-24.73192 -62.47625,-45.87709 -3.9621,-5.04648 -7.67395,-10.25979 -10.42657,-16.05698 -2.6275,-5.54695 -6.88156,-8.84177 -12.59535,-10.67685 -9.67589,-3.12798 -18.89306,-7.34034 -27.73478,-12.38681 -4.58773,-2.62751 -9.09205,-5.33843 -13.09586,-8.88348 -9.05026,-8.00763 -13.42944,-18.18401 -13.97166,-30.11205 -0.16683,-3.46163 -0.20854,-6.96498 0.79247,-10.3432 0.91751,-2.96115 2.12699,-5.71378 4.37911,-7.96593 2.12707,-2.08532 3.00287,-1.9602 4.04552,0.87583 3.16971,8.50812 8.80008,15.01432 15.84848,20.51958 1.20947,0.95925 2.41895,1.87678 3.67013,2.71091 8.383,5.71379 16.766,11.42757 25.19071,17.09965 0.75075,0.50048 1.41802,1.41802 2.91945,1.08437 -0.0834,-6.54791 0.4588,-13.22094 -0.29196,-19.81057 -0.58384,-5.00477 -3.58672,-8.96688 -6.96497,-12.55364 -3.83698,-4.04552 -8.21617,-7.50716 -12.7204,-10.76025 -6.63139,-4.79625 -13.34611,-9.50908 -20.06084,-14.2219 -3.16971,-2.25215 -6.21421,-4.71283 -9.00855,-7.42375 -8.92521,-8.67494 -11.80296,-19.14326 -9.13375,-31.23813 1.16777,-5.33843 3.08629,-10.3849 5.92233,-15.05603 1.20948,-2.0019 1.96016,-2.04361 3.25305,0 2.711,4.21236 4.62944,8.84177 6.46455,13.51289 2.58579,6.63132 5.71379,12.97071 10.67683,18.18401 2.96117,3.12799 6.29771,5.88061 9.7176,8.46641 6.83985,5.21331 13.76312,10.38491 20.64468,15.5565 0.29196,0.25025 0.62563,0.58389 1.45973,0.0834 0,-4.00382 0.0834,-8.25788 -0.0416,-12.51194 -0.0416,-2.21044 -1.58485,-3.83699 -2.83604,-5.46354 -4.25406,-5.67208 -9.09197,-10.88539 -13.97166,-16.01528 -6.33934,-6.63132 -12.59535,-13.34606 -19.31007,-19.60203 -9.09197,-8.50811 -11.63605,-19.26837 -10.38487,-31.19641 0.45872,-4.54601 1.20948,-9.09201 2.87775,-13.38777 1.75162,-4.5043 4.37919,-8.383 7.88249,-11.6361 3.0863,-2.87775 3.67014,-2.71092 4.83799,1.2512 1.41802,4.79623 2.33554,9.7176 3.21134,14.63895 1.04264,5.8389 3.33655,11.13562 6.75643,15.97357 5.79721,8.21617 12.26176,15.76504 20.14425,22.02101 1.41803,-0.54219 0.8341,-1.70997 0.87581,-2.5441 0.0416,-9.30054 -0.12513,-18.64278 0.12513,-27.94332 0.0834,-3.41992 -1.04264,-5.79719 -3.4616,-8.00763 -6.38113,-5.75549 -12.72047,-11.5944 -19.0599,-17.475 -4.67107,-4.33747 -9.34222,-8.71665 -13.59628,-13.51289 -8.50812,-9.59248 -13.63799,-20.51957 -13.30432,-33.6154 0.20854,-8.84176 5.17157,-14.63895 12.3451,-18.97643 1.50143,-0.91754 2.62749,-0.6256 3.00287,1.29291 0.3753,1.91849 0.70897,3.83699 1.25119,5.67207 4.58765,15.72333 12.01142,29.56987 26.0665,38.99552 1.91853,1.2929 3.96211,2.41898 6.46448,3.92041 0.33367,-6.29768 0.45879,-12.05316 -0.0416,-17.76694 -0.20846,-2.21044 -1.79332,-4.04553 -3.00279,-5.88061 -4.58774,-7.00668 -9.88444,-13.42948 -15.4731,-19.64373 -4.67115,-5.1299 -9.3006,-10.34321 -14.34705,-15.09774 -11.01049,-10.46832 -14.30533,-23.23049 -12.63706,-37.95286 1.08435,-9.6759 5.96405,-16.51575 13.72141,-21.72906 1.33461,-0.87583 2.75263,-2.62751 4.37919,-1.87679 1.70998,0.75071 0.95923,2.96115 1.12606,4.50429 0.62563,5.92232 0.33367,11.92805 1.08435,17.89207 0.75076,5.79719 2.7527,11.0105 6.13088,15.72333 5.2967,7.34033 11.63613,13.76313 18.39256,19.72715 1.37631,-0.6256 0.79239,-1.75168 0.8341,-2.58581 0.25025,-6.13084 -0.29196,-12.17828 -2.1687,-18.10059 -3.25313,-10.38491 -2.33562,-20.85323 -0.12513,-31.32154 0.95922,-4.62942 2.29383,-9.17542 3.87868,-13.5963 3.9204,-10.84368 4.33748,-21.97929 2.87775,-33.28174 -1.12606,-8.80006 -2.54408,-17.60013 -4.25406,-26.31677 -0.58384,-2.96116 -0.25025,-3.37822 3.00288,-3.04457 9.80102,0.91754 17.68351,5.46355 23.81439,13.05412 7.17352,8.92518 10.46828,19.4352 12.13655,30.57082 1.96024,12.929 -1.16777,25.10728 -5.42183,37.11873 -4.17064,11.80293 -9.59247,23.06367 -15.05601,34.32441 -1.20948,2.50239 -2.46066,4.96307 -3.50338,7.54886 -1.50144,3.62846 -2.29383,7.38204 -1.58486,11.34416 1.62657,0.41707 2.66929,-0.75072 3.79534,-1.41802 13.67971,-7.79911 24.2314,-18.51766 30.4457,-33.15663 2.75262,-6.54791 3.87868,-13.5963 5.2967,-20.51956 0.95923,-4.62942 2.75263,-5.38013 6.42277,-2.37727 5.63037,4.546 8.34129,10.59344 8.80008,17.72523 1.04264,15.4731 -4.00381,28.94428 -13.6797,40.83062 -4.21235,5.1716 -8.96692,9.88442 -13.63799,14.63896 -8.0077,8.13275 -16.18215,16.01527 -23.89781,24.43998 -2.6275,2.87774 -4.21235,5.92231 -3.87868,10.09295 0.3753,4.79625 0.0834,9.63419 0.0834,14.63897 3.08621,-0.29195 5.42183,-1.50144 7.75736,-2.66922 11.38588,-5.75548 19.97742,-14.38872 26.14993,-25.48264 3.9621,-7.1735 6.92327,-14.84749 10.13469,-22.39635 0.8758,-2.04362 1.70998,-4.08724 2.75262,-6.04744 1.7934,-3.41992 3.37826,-3.46163 5.7555,-0.29195 2.83604,3.79529 3.9621,8.21618 4.83791,12.72047 2.79433,14.38872 -2.00187,26.5253 -11.30238,37.24386 -5.21337,6.00573 -11.26075,11.13562 -16.93283,16.68257 -8.50813,8.383 -17.09967,16.72429 -24.94045,25.73288 -2.96117,3.37823 -4.62944,6.92327 -4.33748,11.6361 0.41701,6.33938 0.0834,12.72047 0.0834,19.22667 2.1687,0.20853 3.41988,-1.08437 4.71278,-1.9602 9.59247,-6.58963 16.59916,-15.5148 22.27124,-25.52434 4.04552,-7.17352 6.54797,-14.97262 8.80009,-22.89685 1.50143,-5.29672 2.71091,-5.67207 6.92326,-2.21044 3.67014,3.04457 5.83892,7.04839 7.17352,11.51098 3.9204,13.01241 1.33461,24.98216 -6.29771,35.99266 -4.29577,6.17255 -9.59247,11.51098 -14.76405,16.97452 -8.21616,8.67494 -16.39062,17.34989 -24.73191,25.94141 -3.00287,3.08628 -4.67114,6.38109 -4.08722,10.76026 0.29188,2.16874 0.0416,4.37918 0.0416,6.50621 1.45973,0.45877 2.04357,-0.54218 2.71092,-1.12607 8.21616,-6.63133 16.3489,-13.38777 24.64848,-19.89398 12.05314,-9.46736 21.10348,-21.22857 27.19257,-35.28365 0.37538,-0.87583 0.79247,-1.79338 1.20955,-2.66921 0.12505,-0.25024 0.3336,-0.45877 0.50043,-0.6673 1.29289,-0.29195 1.62657,0.79242 2.12707,1.54313 2.66921,4.00383 4.17065,8.54983 4.67107,13.26265 1.91853,18.7679 -4.33748,33.82393 -20.68638,44.08371 -6.96498,4.33748 -14.09679,8.383 -20.68639,13.26266 -5.04645,3.75358 -9.80102,7.7991 -13.72141,12.67876 -5.33841,6.63132 -8.17445,14.01336 -8.00762,22.64659 0.12513,7.67399 0.0834,15.26456 2.58579,22.60489 0.50043,0.12512 0.87581,-0.0417 1.08435,-0.41706 5.17158,-9.84272 12.67877,-17.85035 20.18596,-25.858 6.67301,-7.09009 13.51287,-14.01336 20.18588,-21.06175 6.88156,-7.34034 12.88731,-15.30626 16.8077,-24.64851 0.95923,-2.33556 1.54315,-2.37726 3.00288,-0.41706 4.00381,5.46355 5.67208,11.71951 6.04738,18.35083 0.95931,16.93282 -4.75449,30.69595 -19.14324,40.45525 -8.04932,5.46355 -16.26548,10.67685 -24.43994,15.93186 -3.9621,2.5441 -7.88257,5.21331 -10.6769,9.17542 -2.96109,4.17064 -3.25305,8.42471 -0.91752,12.929 2.37725,4.62942 5.7555,8.54982 9.34223,12.21999 21.85423,22.43806 47.83732,37.16044 78.99206,42.37375 16.05695,2.66921 32.28073,3.62846 48.5463,4.00381 17.22471,0.37536 34.4912,0.33366 51.71596,-0.16682 23.23049,-0.6673 46.41927,0.6256 69.60805,0.37536 17.39159,-0.20854 34.69977,-0.87584 52.00794,-2.71092 32.69785,-3.50334 60.59946,-17.22476 84.45555,-39.53771 4.17065,-3.8787 7.84082,-8.25787 11.219029,-12.88729 5.67208,-7.84082 5.00478,-14.05507 -2.16873,-20.51957 -2.377269,-2.12703 -5.088189,-3.87871 -7.757399,-5.58866 -8.4247,-5.38014 -16.93282,-10.63515 -25.10728,-16.47405 -13.34606,-9.46737 -18.60107,-22.60489 -17.93377,-38.57846 0.25024,-5.46355 1.25119,-10.76026 3.79529,-15.63992 0.75071,-1.45972 1.70997,-2.83603 2.66921,-4.21235 0.70901,-1.00095 1.50143,-1.2512 2.16873,0.0834 0.12512,0.25024 0.25024,0.50048 0.37536,0.75072 4.75454,11.55268 12.72047,20.81152 21.31199,29.52816 9.75931,9.88443 19.476909,19.85227 28.276979,30.61253 3.08628,3.79529 5.58866,7.92423 8.09105,12.47023 2.0019,-2.83604 2.12702,-5.96402 2.50238,-8.88348 0.66731,-5.38012 0.79242,-10.76025 0.66731,-16.2238 -0.25024,-9.80102 -4.71283,-17.55841 -11.26074,-24.35656 -5.71379,-5.96402 -12.428529,-10.67685 -19.393499,-15.01432 -4.83795,-3.04457 -9.80101,-5.83891 -14.51384,-9.0503 -15.93187,-10.84368 -22.68831,-32.28079 -15.97358,-50.21456 0.95926,-2.5858 2.00192,-5.1716 4.12895,-7.04839 1.66826,0.70901 1.79337,2.21044 2.33556,3.41993 6.25596,14.47213 15.63992,26.44188 28.11014,36.07607 8.049339,6.21426 15.806739,12.72047 23.689259,19.10155 0.75072,0.58389 1.37632,1.37632 2.66921,1.62656 0.54218,-4.04553 0.41706,-8.00764 0.0417,-11.96975 -0.16683,-1.58485 -1.41802,-2.66922 -2.37727,-3.837 -4.96306,-5.75548 -10.30149,-11.0522 -15.51479,-16.43233 -7.423749,-7.7157 -14.889199,-15.34798 -21.895889,-23.48074 -5.33842,-6.21425 -9.38395,-13.09581 -11.0105,-21.22857 -1.75167,-8.84177 -0.95925,-17.4333 3.46163,-25.48264 1.50144,-2.71092 3.46164,-5.04648 6.04744,-6.75644 2.96116,-1.96021 4.00382,-1.58485 5.04648,1.75166 1.41801,4.5043 2.66921,9.0503 4.29577,13.47118 5.04647,13.47119 12.845569,24.94046 23.939499,34.07417 1.50143,1.25119 3.12797,2.33557 4.75452,3.41993 0.79243,0.54218 1.70997,0.91754 2.50239,1.2929 1.2929,-0.66731 0.87584,-1.75167 0.87584,-2.62751 0.0417,-6.25597 -0.0834,-12.51193 0.0834,-18.7679 0.0834,-3.00286 -0.91755,-5.38013 -2.71093,-7.63228 -3.75358,-4.67112 -7.75739,-9.092 -12.01146,-13.30435 -9.383939,-9.30054 -18.934719,-18.39254 -28.276959,-27.73479 -7.04839,-6.96498 -12.59535,-14.8892 -14.51385,-24.81533 -1.66825,-8.67494 -0.79242,-17.14135 2.71093,-25.31581 0.12512,-0.25024 0.20853,-0.54218 0.33364,-0.75072 1.2512,-1.9602 2.12703,-4.75454 4.71283,-4.79624 2.66922,-0.0417 3.04457,2.96115 3.8787,4.87966 3.87871,8.59152 7.04839,17.5167 11.6361,25.81628 6.67303,12.05316 16.056979,21.18688 28.694029,26.81725 1.50144,0.70901 3.08628,1.16778 5.33843,2.00191 z"
         id="path12"
         inkscape:connector-curvature="0"
         style="fill:#199542;stroke-width:0.41706446"
         inkscape:export-filename="C:\Users\suitedoalex\sites\rayo-vallecano-logo-4.png"
         inkscape:export-xdpi="76.890388"
         inkscape:export-ydpi="76.890388" /><path
         class="st4"
         d="m 585.84029,680.29373 c 3.8787,-1.00096 7.75741,-1.96021 11.5944,-2.96116 3.37822,-0.87584 6.63132,-2.08532 9.67589,-3.71188 9.09201,-4.79624 12.21999,-12.34511 8.46641,-22.81342 -1.9185,-5.33843 -5.75549,-9.09201 -10.42661,-12.05317 -7.84081,-5.00477 -16.68258,-6.58961 -25.73287,-7.42374 -16.64088,-1.50144 -33.28175,-1.41802 -49.96433,-0.83413 -3.46164,0.12512 -3.54505,0.0834 -4.37918,-3.2531 -4.71282,-18.55937 -9.30053,-37.16045 -14.05507,-55.67811 -1.9602,-7.67398 -4.08723,-15.26456 -7.50716,-22.43806 -1.25119,-2.62751 -2.66921,-5.1716 -4.25405,-7.63228 -5.92232,-9.09201 -14.47214,-12.59535 -24.98217,-11.76122 -6.21425,0.50048 -9.21712,3.12799 -10.84367,9.13371 -1.00096,3.79529 -1.3346,7.67398 -1.3346,11.55268 -0.0417,18.0589 -0.29195,36.15949 0.0834,54.21839 0.20854,10.96879 3.8787,20.64468 13.17924,27.52625 3.33651,2.46068 6.67303,5.00477 9.55078,7.96592 -0.29195,1.33462 -1.45973,1.66826 -2.29386,2.37727 -6.42279,5.25501 -9.59248,11.80293 -7.67398,20.18592 0.50048,2.08533 -0.66731,2.37727 -2.00191,2.83604 -5.79719,1.9185 -11.80292,3.2531 -17.85036,3.96211 -7.17351,0.83413 -14.38872,1.20949 -21.56223,1.79338 -0.6256,0.0417 -1.33461,0.25024 -1.87679,-0.29195 -0.29194,-0.70901 0.20853,-1.08436 0.50048,-1.50143 5.33842,-8.29958 4.17064,-17.26647 -3.12798,-23.9812 -3.8787,-3.50334 -8.46641,-5.75549 -13.34607,-7.50716 -9.092,-3.29481 -18.51766,-4.79624 -28.06844,-5.75549 -13.26264,-1.37631 -26.60871,-1.66826 -39.95477,-1.66826 -0.79242,0 -1.62655,0 -2.71091,0 0.37535,-1.45973 1.3346,-2.04361 2.16873,-2.66921 2.37727,-1.9185 4.71283,-3.92041 7.17351,-5.71379 7.67398,-5.71378 11.71951,-13.51288 13.42947,-22.73 1.08437,-5.88061 1.50144,-11.84463 1.54314,-17.80866 0.0417,-54.09325 0,-108.14481 0.0417,-162.23807 0,-12.55363 -4.96306,-22.27123 -15.89015,-28.73574 -2.87775,-1.70996 -5.54695,-3.71187 -8.25788,-5.63036 -9.05029,-6.33939 -8.25787,-21.43711 -2.37726,-27.65138 5.71378,-6.00572 12.67876,-9.88443 20.56127,-12.05316 7.29863,-2.00191 14.80579,-2.29385 22.31295,-1.9602 16.64087,0.6673 33.24004,2.71092 49.92262,2.6275 15.97356,-0.0834 31.90542,-1.3346 47.83729,-2.66921 15.51479,-1.2929 31.07129,-2.16873 46.5861,-0.45877 23.02195,2.54409 43.66664,10.55173 60.26581,27.1926 11.96974,12.01146 18.85131,26.65042 21.10346,43.41641 2.08532,15.76504 1.37631,31.32154 -4.04553,46.46098 -4.75453,13.17923 -12.72047,23.9395 -23.9395,32.32249 -2.66921,2.00191 -5.29672,4.04553 -7.63227,6.42279 -0.95925,1.00096 -1.9185,2.04362 -2.66922,3.16969 -2.87774,4.21235 -2.33556,7.0901 2.00191,9.6759 2.87775,1.70997 5.88061,3.12798 8.84177,4.67112 6.67303,3.46163 12.88729,7.63228 18.43425,12.80388 10.46831,9.7176 16.01527,22.14612 19.85226,35.53389 3.2531,11.30244 4.17065,22.89684 5.00478,34.53293 0.37535,5.1716 1.37631,10.13468 3.21139,15.01432 2.25215,6.08915 6.38109,10.3015 12.2617,12.8873 1.37631,0.62559 2.83603,1.16777 4.25405,1.70996 10.34321,3.837 14.72238,12.72047 11.5944,23.31391 -1.58485,5.38012 -4.96307,9.59248 -8.92518,13.34606 -7.88252,7.50716 -17.39159,11.6778 -27.94332,13.88824 -11.76122,2.46068 -23.60585,2.37727 -35.49218,1.9185 -0.25024,-0.33365 -0.29195,-0.58389 -0.33366,-0.87583 z"
         id="path14"
         inkscape:connector-curvature="0"
         style="fill:#231f20;stroke-width:0.41706446"
         inkscape:export-filename="C:\Users\suitedoalex\sites\rayo-vallecano-logo-4.png"
         inkscape:export-xdpi="76.890388"
         inkscape:export-ydpi="76.890388" /><path
         class="st4"
         d="m 348.9894,826.51652 c 4.67112,9.67589 9.13371,18.93472 13.638,28.19355 6.13085,12.59535 11.84464,25.39923 19.01814,37.4941 2.71092,4.546 5.38014,9.13371 8.84177,13.09582 1.58484,1.79338 2.12702,3.62846 2.12702,6.00572 -0.0834,29.61158 -0.0834,59.22315 -0.0417,88.83469 0,10.9689 0.54219,21.9377 2.5858,32.7815 0.41706,2.1687 1.00096,4.3375 1.62655,6.4645 1.2929,4.4209 3.837,7.9242 7.67399,10.5517 2.04361,1.418 4.08723,2.8777 5.96402,4.546 4.546,4.0455 4.67111,9.9262 0.37535,14.3054 -2.79433,2.836 -6.29767,4.4626 -9.96784,5.8806 -7.25692,2.7943 -14.8892,3.3364 -22.52148,3.5867 -11.51097,0.4171 -23.06365,0.5422 -34.57463,0.5839 -5.83891,0.042 -11.6361,-0.3336 -17.30817,-1.9602 -3.79529,-1.0844 -7.21522,-2.8778 -10.13467,-5.547 -3.54505,-3.2531 -4.00382,-6.7147 -1.37631,-10.7602 1.29289,-1.9602 2.75262,-3.8787 4.37917,-5.547 7.25692,-7.4654 10.30149,-16.5991 10.84368,-26.7755 0.0417,-1.2512 0.12512,-2.5024 0.12512,-3.7536 0,-18.7681 0,-37.53597 0,-56.3039 0,-3.21139 -0.25024,-6.42279 -1.2512,-9.46736 -1.25119,-3.8787 -3.41992,-4.46259 -6.42279,-1.79338 -2.83604,2.5441 -4.79624,5.7555 -6.71473,8.96689 -5.21331,8.71668 -9.34225,17.97548 -13.30437,27.276 -7.21521,16.97455 -13.34606,34.40805 -19.93567,51.63275 -2.16874,5.7138 -4.37918,11.3859 -7.25692,16.8077 -1.16779,2.2104 -2.41898,4.3792 -4.37918,6.0475 -2.00191,1.7099 -4.04553,1.6266 -5.96403,-0.1251 -1.87678,-1.71 -2.96115,-4.0038 -4.00381,-6.256 -6.4228,-13.7214 -12.05316,-27.7348 -17.55842,-41.8316 -5.33842,-13.5548 -10.42661,-27.19277 -15.59821,-40.78905 -1.58484,-4.17065 -3.33651,-8.2579 -6.04743,-11.84466 -1.87679,-2.50238 -3.79529,-5.88061 -7.50716,-4.83794 -3.41993,0.95924 -3.37822,4.75453 -4.00382,7.67398 -0.37536,1.75167 -0.29194,3.58679 -0.29194,5.38011 0,19.0599 0.0834,38.07816 -0.0417,57.13806 -0.0417,6.1726 2.6275,10.5935 7.79911,13.7631 1.66825,1.001 3.21139,2.1688 4.83794,3.2531 10.05126,6.7565 11.09391,26.9424 -2.79433,34.1576 -5.63037,2.9194 -11.67781,4.4209 -17.93377,5.1299 -12.34511,1.3763 -24.69021,0.5839 -36.99362,-0.7508 -8.21617,-0.9175 -14.55554,-5.2967 -18.51766,-12.637 -4.17064,-7.7574 -3.00286,-16.7243 2.87775,-23.2305 2.04361,-2.2521 4.29576,-4.3375 6.88156,-6.0057 1.50143,-1.001 2.96116,-2.0853 4.46259,-3.0445 5.92232,-3.8371 8.383,-9.4258 8.34129,-16.2656 0,-0.5421 0,-1.1261 0,-1.6683 0,-41.9985 0,-83.95521 0,-125.9536 0,-4.46259 -0.41707,-8.88347 -1.41802,-13.22094 -0.95925,-4.17065 -3.33652,-7.25692 -7.00668,-9.38395 -2.04362,-1.16778 -4.12894,-2.29386 -6.13085,-3.50334 -5.54695,-3.33652 -8.34129,-8.34129 -8.75835,-14.76408 -0.25024,-4.17065 -0.29195,-8.29958 0.75071,-12.38682 1.20949,-4.79624 3.92041,-8.50811 7.92422,-11.38586 2.50239,-1.79337 5.21331,-3.21139 8.09106,-4.25405 14.72237,-5.1716 29.73669,-7.79911 45.41832,-6.00573 10.13466,1.16778 17.76694,5.67207 23.06366,14.43043 5.79719,9.55078 9.88443,19.85227 14.09677,30.11205 7.63229,18.47596 15.01432,37.03532 23.60586,55.05251 2.46067,5.12989 5.08818,10.21807 8.50811,14.80578 5.1716,6.96498 9.67589,6.92328 14.68067,-0.16682 3.46163,-4.87965 5.92231,-10.3432 8.38299,-15.76504 10.84368,-23.56414 21.18687,-47.37851 33.03151,-70.48388 3.62846,-7.0484 7.29863,-14.05508 11.71951,-20.60299 1.16778,-1.70997 2.25215,-3.33651 4.08723,-4.87965 z"
         id="path16"
         inkscape:connector-curvature="0"
         style="fill:#231f20;stroke-width:0.41706446"
         inkscape:export-filename="C:\Users\suitedoalex\sites\rayo-vallecano-logo-4.png"
         inkscape:export-xdpi="76.890388"
         inkscape:export-ydpi="76.890388" /><path
         class="st2"
         d="m 357.16387,640.83943 c 14.18019,0.41706 29.48644,0.6256 44.50076,3.79528 4.62942,0.95925 9.17542,2.16874 13.51289,4.08724 2.41898,1.08436 4.75454,2.33556 6.71474,4.12893 4.29577,4.00382 4.33747,8.63324 0.0834,12.59535 -1.62655,1.50143 -3.41992,2.83604 -5.1716,4.21235 -1.62655,1.2929 -3.33651,2.50239 -4.96306,3.83699 -7.54887,6.33938 -9.34225,13.22094 -5.46355,22.27124 2.46069,5.75549 5.29672,11.30245 8.00764,16.93282 6.38109,13.26265 12.80388,26.5253 19.22668,39.74624 2.41896,5.00478 5.00477,9.92613 8.54981,14.2636 3.25311,4.00382 7.25692,6.4228 12.72047,5.54696 3.58675,-0.58389 6.33938,-2.71091 8.75835,-5.25501 3.00287,-3.16969 5.25501,-6.83986 7.25693,-10.63515 8.63322,-16.47404 17.30817,-32.94809 25.85799,-49.46384 2.25214,-4.29576 4.83795,-8.4247 6.29767,-13.13752 1.20949,-3.75358 1.79338,-7.59058 1.41802,-11.51099 -0.62559,-6.13085 -3.50334,-10.76025 -9.30054,-13.26264 -2.71092,-1.16779 -5.29672,-2.46069 -7.46545,-4.5043 -4.12894,-3.92041 -4.21235,-8.71664 -0.20853,-12.76217 2.08532,-2.08532 4.67112,-3.46163 7.38204,-4.58771 8.4247,-3.46163 17.30818,-5.04648 26.35847,-5.75549 18.60108,-1.45972 37.20215,-1.37631 55.80323,0.0417 7.63228,0.58389 15.22285,1.54314 22.021,5.54695 3.71188,2.16874 6.67303,5.00478 7.54887,9.42566 0.70901,3.46163 -0.0834,5.50525 -3.04457,7.46546 -3.04457,2.0019 -6.54792,3.00286 -10.05126,3.9621 -2.96116,0.79243 -5.92231,1.45973 -8.92518,2.00192 -11.42756,1.9602 -19.4352,8.29958 -24.56509,18.60107 -3.25311,6.4645 -6.67303,12.80388 -10.00955,19.22667 -23.56414,45.04296 -47.12829,90.08592 -70.69242,135.12888 -7.34034,14.01336 -14.63897,28.06843 -22.02101,42.0818 -3.12798,5.92232 -6.83985,11.46927 -11.76121,16.09869 -5.63038,5.25501 -12.21999,8.04934 -19.97739,8.04934 -3.21139,0 -6.38109,-0.16682 -9.55078,-0.45877 -7.88251,-0.70901 -13.88824,-4.50429 -18.51766,-10.67685 -5.8806,-7.7991 -10.55173,-16.34893 -14.84749,-25.06557 -15.09773,-30.94618 -29.98693,-62.01748 -44.91784,-93.00537 -12.55364,-26.02482 -25.06557,-52.04965 -37.61921,-78.03276 -2.12703,-4.37917 -4.5043,-8.63323 -7.38205,-12.55364 -4.08723,-5.58866 -9.42565,-9.34224 -16.09868,-11.17732 -2.66921,-0.75072 -5.38013,-1.41802 -7.96593,-2.37727 -10.09296,-3.8787 -11.46927,-11.6361 -3.33652,-18.68449 7.25692,-6.29768 16.05699,-9.25883 25.19069,-11.30245 12.63706,-2.83603 25.52435,-3.83699 38.45334,-4.37917 9.0503,-0.50048 18.1006,-0.37536 28.19357,-0.45877 z"
         id="path18"
         inkscape:connector-curvature="0"
         style="fill:#ee3e2f;stroke-width:0.41706446"
         inkscape:export-filename="C:\Users\suitedoalex\sites\rayo-vallecano-logo-4.png"
         inkscape:export-xdpi="76.890388"
         inkscape:export-ydpi="76.890388" /><path
         class="st1"
         d="m -443.14112,608.18328 c 0,-53.25913 0,-106.47655 0.0416,-159.73568 0,-2.96116 -0.50043,-5.67208 -1.83503,-8.38299 -10.13469,-20.6864 -20.18596,-41.45621 -30.23723,-62.18431 -0.50043,-1.00096 -1.00093,-2.00191 -1.41802,-3.00286 -0.87581,-2.12704 -0.25017,-3.04457 2.12707,-2.79434 1.54315,0.16683 3.00288,0.75071 4.29577,1.54314 2.58579,1.58484 5.46354,1.96021 8.42471,1.9185 3.87868,-0.0417 7.75736,-0.16683 11.63605,-0.70901 5.00482,-0.70901 8.29958,1.41802 9.67589,6.38108 1.04272,3.67017 1.45973,7.42375 -1.2929,10.67685 -1.04264,1.20949 -1.87674,1.54314 -3.33647,0.16683 -2.75262,-2.5858 -6.38113,-2.50239 -9.05033,-0.33365 -2.25212,1.83508 -3.00288,4.08723 -1.58486,6.63132 4.21235,7.67399 9.88444,13.76313 18.85136,15.80674 2.33553,0.54218 4.67107,0.54218 6.96497,-0.29194 3.79527,-1.41802 5.21329,-4.75454 3.41989,-8.34129 -0.62555,-1.2512 -1.50144,-2.33556 -2.1687,-3.54505 -1.62657,-3.04457 -2.29383,-6.17255 -1.41802,-9.63419 1.3346,-5.29672 4.92132,-8.54981 9.84273,-8.54981 5.38012,-0.0417 10.17639,3.62845 11.21903,8.80005 0.50043,2.41898 0.8341,4.92136 0.8341,7.42375 0,2.37727 0.9176,3.12798 3.128,2.46068 11.34417,-3.54505 17.14138,-11.21903 15.05602,-23.27219 -0.54214,-3.25311 -2.58579,-5.54697 -5.92234,-6.33939 -3.21134,-0.75072 -5.71379,0.45878 -7.63224,3.00287 -0.5005,0.6673 -1.04264,1.2929 -1.54314,1.9602 -2.04366,2.66921 -2.41896,2.75263 -5.21329,0.75072 -5.54696,-4.00382 -6.25601,-12.42853 -1.41802,-18.1006 1.79332,-2.12703 4.00381,-3.92041 6.42276,-5.25501 4.12894,-2.33556 7.00669,-5.58867 9.05034,-9.92614 2.6275,-5.58866 5.96397,-6.75644 10.46828,-2.75262 5.42183,4.79624 11.67784,5.33843 18.14231,5.96402 1.83511,0.16683 3.58672,0.37536 5.2967,1.08436 5.88063,2.41898 7.75744,10.55174 3.67022,15.43139 -0.9593,1.12607 -1.66828,1.41802 -3.12801,0.54219 -4.12893,-2.62751 -8.00761,-1.08437 -11.59441,1.41801 -3.33647,2.33557 -4.33748,5.63038 -3.16971,9.55078 2.33561,7.84081 6.17258,14.34702 15.0978,15.97357 1.08435,0.20853 2.2104,0.33365 3.29475,0.33365 7.13182,0.0417 8.46642,-1.58484 6.54797,-8.29958 -1.25126,-4.33747 -1.25126,-8.50812 1.2929,-12.38682 2.83604,-4.42088 7.67394,-6.33937 12.59535,-5.08818 4.3374,1.12607 7.59054,5.1716 8.0076,10.09296 0.25024,2.91945 0.0834,5.7972 -0.54218,8.71665 -1.00096,4.62941 1.3346,6.71473 6.08914,5.8806 5.04648,-0.87583 8.50811,-3.96211 11.09391,-8.09105 4.00382,-6.38109 5.58866,-13.55459 6.5062,-20.89492 0.12512,-0.91755 -0.20853,-1.91851 -0.37535,-2.87775 -0.41707,-2.29385 -1.79338,-3.79528 -4.04553,-4.21235 -2.21044,-0.41706 -4.08723,0.54218 -5.50525,2.25214 -0.91754,1.08438 -1.50143,2.37727 -1.83508,3.71188 -0.50048,2.16873 -1.70997,2.04362 -3.37823,1.37631 -4.33747,-1.79337 -7.13179,-4.87965 -7.7991,-9.50907 -0.75071,-5.00477 0.66731,-9.38394 4.79624,-12.59534 2.12703,-1.66826 4.58771,-2.50239 7.21522,-3.04457 5.25501,-1.04267 10.21807,-2.71092 13.72141,-7.1318 0.66731,-0.83413 1.75168,-1.33461 2.62751,-2.00192 1.66826,-1.25119 3.33651,-1.20948 5.00477,0 1.00096,0.75072 2.21045,1.33461 2.96116,2.29386 3.00287,3.92041 7.29863,5.33843 11.80293,6.54791 1.20949,0.33365 2.46068,0.50048 3.62846,0.83413 7.75739,2.33556 11.21903,8.00764 9.80101,15.93186 -0.75071,4.17064 -4.79624,8.34129 -8.80006,9.13372 -1.04266,0.20853 -1.62655,-0.12513 -1.87679,-1.08438 -0.41707,-1.50143 -0.95925,-2.91945 -1.87679,-4.12893 -1.66826,-2.12703 -4.04552,-3.12798 -6.17255,-2.50239 -2.29385,0.6673 -3.83699,2.41898 -3.79528,5.38013 0.16681,9.55078 2.6275,18.39254 8.84176,25.8997 2.37727,2.87775 5.67207,4.42089 9.38395,4.87966 4.00382,0.50047 5.8806,-1.54314 5.29671,-5.58867 -0.50047,-3.54504 -1.25119,-7.09009 -0.33364,-10.71855 1.08436,-4.29577 3.50334,-7.25693 7.75739,-8.4247 4.21236,-1.12608 8.04935,-0.20854 11.05221,3.04457 3.2114,3.46163 4.62941,7.54887 3.37822,12.26169 -0.54218,2.00191 -1.04266,4.04553 -1.50143,6.04743 -0.45877,1.83509 0.41706,2.87775 2.04361,3.54506 5.1716,2.08532 13.5546,0.37535 17.47501,-3.75358 3.08628,-3.29481 5.29672,-7.17352 6.38108,-11.55269 1.12608,-4.42088 0.0834,-7.54887 -3.41993,-9.84272 -3.58675,-2.37727 -7.46545,-4.00382 -11.51098,-1.00096 -1.37631,1.00096 -1.9602,0.33365 -2.71091,-0.50048 -4.37918,-4.83794 -2.50239,-13.22093 3.58675,-15.72332 3.25311,-1.33461 6.79815,-1.2929 10.25979,-1.62656 4.37918,-0.41706 8.54982,-1.16777 11.6361,-4.67111 0.37535,-0.41707 0.83413,-0.75072 1.3346,-1.00096 5.96402,-3.04457 7.46545,-2.83604 10.3432,2.71092 2.33556,4.546 5.33842,7.92423 9.67589,10.46831 4.79624,2.83605 8.46641,6.71474 9.21713,12.67876 0.58388,4.79625 -2.04362,9.59249 -6.50621,11.51098 -1.08437,0.45877 -1.79338,0.45877 -2.46068,-0.54218 -0.87584,-1.2512 -1.79337,-2.46068 -2.75262,-3.67016 -1.96021,-2.37727 -4.46259,-3.29482 -7.42375,-2.58581 -2.91945,0.75072 -4.75453,2.71092 -5.63037,5.58867 -2.12703,7.29863 0.41707,15.09773 6.4645,19.72714 2.33556,1.79338 4.87965,3.2114 7.71569,4.04553 3.2114,0.91754 4.00382,0.29194 4.08723,-2.96116 0.0417,-2.50239 0,-5.00477 0.79243,-7.42374 1.75166,-5.29672 6.96497,-8.75836 12.21998,-8.00764 5.25501,0.75071 8.67495,4.96307 8.88348,10.92709 0.12511,3.00286 -0.50048,5.79719 -2.25215,8.25787 -0.54219,0.79243 -1.12608,1.58485 -1.54314,2.46068 -1.70996,3.62847 -0.33365,7.00668 3.46163,8.4247 2.41898,0.91754 4.92136,0.79242 7.38204,0.20854 8.63324,-2.08532 14.05507,-8.09105 18.30914,-15.34797 1.54314,-2.5858 0.70901,-5.25502 -1.50144,-7.0901 -2.04361,-1.66826 -5.58866,-2.00191 -7.84081,-0.6673 -0.58389,0.37535 -1.16778,0.79242 -1.58485,1.3346 -1.04265,1.37631 -1.91849,0.6256 -2.75262,-0.12512 -4.42088,-4.08723 -2.00191,-15.13944 3.71187,-16.97452 1.45973,-0.45877 2.91945,-0.6673 4.5043,-0.37536 3.54504,0.66731 7.17351,0.6256 10.80197,0.70901 3.37822,0.0834 6.63133,-0.29194 9.63419,-2.12703 1.2929,-0.79242 2.75262,-1.2929 4.33747,-1.37631 2.0019,-0.0834 2.54409,0.6673 1.87679,2.41898 -0.20853,0.50047 -0.50048,1.00095 -0.75072,1.50143 -10.42661,21.47881 -20.85322,42.99934 -31.36325,64.43645 -1.16777,2.37727 -1.3346,4.75454 -1.3346,7.25692 0,103.97417 0.0417,207.94834 -0.0417,311.96421 0,5.96402 -0.41706,11.88633 -1.20948,17.85036 -2.33556,17.5167 -17.97548,26.6087 -30.3623,28.23525 -10.71855,1.41802 -21.35369,0.58389 -31.98884,-0.41706 -11.17732,-1.08437 -22.31294,-3.2531 -33.53198,-3.54505 -13.51289,-0.33365 -26.27506,2.25215 -36.57655,12.09487 -3.12798,2.96116 -6.4645,5.71379 -9.38395,8.88347 -1.20948,1.29291 -2.08532,1.37632 -3.37822,0.0417 -3.83699,-4.00381 -7.92423,-7.7991 -12.2617,-11.30245 -6.67303,-5.46354 -14.47214,-8.04934 -22.89683,-9.1337 -9.88443,-1.2512 -19.64374,0.0834 -29.44476,1.29289 -13.38774,1.66826 -26.73385,3.33652 -40.24671,2.83604 -9.84273,-0.37535 -18.85128,-3.08628 -26.4836,-9.59248 -6.13088,-5.2133 -9.34222,-11.96975 -10.59341,-19.76886 -0.66734,-4.25405 -0.91759,-8.54981 -0.91759,-12.88728 -0.0416,-52.21648 -0.0416,-104.1827 -0.0416,-156.19064 z"
         id="path20"
         inkscape:connector-curvature="0"
         style="fill:#d0ad3e;stroke-width:0.41706446"
         inkscape:export-filename="C:\Users\suitedoalex\sites\rayo-vallecano-logo-4.png"
         inkscape:export-xdpi="76.890388"
         inkscape:export-ydpi="76.890388" /><path
         class="st1"
         d="m 256.52621,289.29581 c 0.0834,0.33365 0,0.54218 -0.29195,0.6256 -0.0834,-0.29195 0,-0.50048 0.29195,-0.6256 z"
         id="path22"
         inkscape:connector-curvature="0"
         style="fill:#d0ad3e;stroke-width:0.41706446"
         inkscape:export-filename="C:\Users\suitedoalex\sites\rayo-vallecano-logo-4.png"
         inkscape:export-xdpi="76.890388"
         inkscape:export-ydpi="76.890388" /><path
         class="st0"
         d="m 459.80342,442.40016 c 0.16682,-8.21617 -0.25024,-18.05888 0.29194,-27.94331 0.25024,-4.17065 0.6673,-8.29958 1.79338,-12.34511 0.83413,-2.96116 2.29386,-5.63037 4.12894,-8.13276 2.83604,-3.83699 6.50621,-5.92231 11.38586,-5.79719 0.70901,0 1.37631,0.0417 2.08532,0 12.13657,-0.83413 19.93568,5.12989 24.94045,15.72333 3.837,8.17446 5.96403,16.64087 5.92232,25.73287 -0.0417,9.17542 0.20853,18.35084 -0.83413,27.48455 -0.41706,3.75358 -1.08436,7.42375 -2.12703,11.0105 -4.17064,14.55555 -19.18496,25.35752 -36.82679,21.64564 -7.09009,-1.50143 -10.55173,-5.50524 -10.71855,-12.76217 -0.12512,-5.71378 -0.0417,-11.38586 -0.0417,-17.09964 0,-5.29672 0,-10.59344 0,-17.51671 z"
         id="path24"
         inkscape:connector-curvature="0"
         style="fill:#ffffff;stroke-width:0.41706446"
         inkscape:export-filename="C:\Users\suitedoalex\sites\rayo-vallecano-logo-4.png"
         inkscape:export-xdpi="76.890388"
         inkscape:export-ydpi="76.890388" /><path
         class="st2"
         d="m -429.08604,619.02696 c 0,-50.58992 0,-101.17983 0,-151.76976 0,-5.38013 -0.41701,-5.17159 5.25499,-5.17159 83.37126,0 166.78411,0 250.15529,0 0.54219,0 1.12608,0 1.66826,0 3.8787,0.0834 4.04553,0.25024 4.12894,3.96211 0,0.70901 0,1.37631 0,2.08532 0,99.09452 0,198.18902 0.0417,297.28353 0,3.92041 -0.37536,7.75741 -1.20949,11.55269 -1.50144,6.83986 -6.21426,10.96879 -12.38681,13.5546 -2.79434,1.16777 -5.7972,1.83508 -8.92518,1.79337 -6.38109,-0.0417 -12.80388,0.25024 -19.18497,-0.16683 -6.33938,-0.41706 -12.67876,-1.16777 -18.97643,-2.04361 -10.59344,-1.50143 -21.22858,-2.75262 -31.90543,-1.87679 -12.84559,1.08437 -24.69022,4.96307 -34.49123,13.84654 -0.6256,0.54218 -1.41802,0.91754 -2.00191,1.50143 -1.41802,1.45972 -2.46068,1.08437 -3.83699,-0.20853 -6.50621,-6.04743 -14.05507,-10.3432 -22.6466,-12.72047 -5.21331,-1.45972 -10.55172,-2.25214 -15.97355,-2.50238 -10.30152,-0.45878 -20.43621,0.87584 -30.61253,2.25215 -12.8039,1.70996 -25.69121,2.79433 -38.57852,1.79337 -11.09391,-0.87583 -20.35272,-7.88251 -20.39442,-20.97834 -0.0416,-12.09487 -0.0834,-24.18973 -0.0834,-36.2846 -0.0415,-38.62018 -0.0415,-77.24034 -0.0415,-115.90221 z"
         id="path26"
         inkscape:connector-curvature="0"
         style="fill:#ee3e2f;stroke-width:0.41706446"
         inkscape:export-filename="C:\Users\suitedoalex\sites\rayo-vallecano-logo-4.png"
         inkscape:export-xdpi="76.890388"
         inkscape:export-ydpi="76.890388" /><path
         class="st4"
         d="m -421.07842,448.4893 c 0.62563,-2.58579 2.08536,-4.37917 3.71192,-6.08914 5.255,-5.58866 11.92801,-9.00859 18.80957,-12.05316 10.59349,-4.71282 21.89594,-7.04838 33.24003,-9.17541 19.68545,-3.71187 39.53774,-5.67208 59.55684,-6.08914 31.40495,-0.66731 62.35113,2.6275 92.79683,10.30149 9.34224,2.33556 18.1006,6.17255 26.27506,11.38586 2.5858,1.66826 5.00477,3.54504 7.00668,5.8389 1.45973,1.62655 2.87775,3.33652 3.50335,5.92231 -81.74463,-0.0417 -163.15559,-0.0417 -244.90028,-0.0417 z"
         id="path28"
         inkscape:connector-curvature="0"
         style="fill:#231f20;stroke-width:0.41706446"
         inkscape:export-filename="C:\Users\suitedoalex\sites\rayo-vallecano-logo-4.png"
         inkscape:export-xdpi="76.890388"
         inkscape:export-ydpi="76.890388" /><path
         class="st4"
         d="m -206.03996,499.74653 c -3.87869,8.92518 -7.7574,17.80865 -11.59439,26.73383 -0.87584,2.04361 -1.75167,4.08723 -2.33556,6.21426 -0.79243,2.87774 0.95925,4.62942 3.83699,3.96211 3.00287,-0.70901 5.67208,-2.25214 8.21617,-3.96211 5.71378,-3.79529 10.46832,-8.67494 15.18115,-13.5963 1.00095,-1.08437 1.75167,-2.50239 3.71187,-3.25311 0.54218,2.96116 0.54218,5.88061 0.20854,8.63324 -1.04267,9.38394 -3.8787,18.1423 -9.46737,25.8997 -5.08819,7.0901 -12.09487,11.42757 -20.26933,13.88825 -7.88252,2.37726 -15.93186,4.00381 -24.18974,3.46163 -2.75263,-0.16683 -4.29577,0.87584 -5.75549,3.00286 -10.3849,14.97262 -20.81151,29.86182 -31.23812,44.75102 -2.71092,3.8787 -5.42184,7.7574 -8.13276,11.6361 -2.41898,3.46163 -2.46068,3.46163 -0.0417,6.75644 10.3432,14.09678 20.7281,28.23526 31.0713,42.33204 21.06175,28.65233 42.12351,57.30466 63.18527,85.99869 2.37726,3.21139 2.29385,3.50334 -0.95926,5.92232 -1.66825,1.25119 -3.33651,2.50238 -5.04647,3.71187 -2.33556,1.62655 -2.71092,1.62655 -4.37918,-0.5839 -2.50239,-3.33651 -4.92136,-6.71473 -7.38204,-10.09295 -28.27697,-38.45335 -56.55394,-76.99009 -84.83091,-115.52685 -0.6673,-0.87584 -1.16777,-1.91849 -2.33556,-2.5441 -2.75262,2.5441 -4.546,5.83891 -6.67303,8.88348 -27.52625,39.24576 -54.96907,78.53323 -82.4536,117.77899 -0.41709,0.5839 -0.83418,1.12608 -1.20955,1.70997 -1.00094,1.62655 -2.16871,1.9602 -3.79527,0.75072 -2.00187,-1.50144 -4.12894,-2.83604 -6.1308,-4.33747 -2.37732,-1.75168 -2.54416,-2.33557 -0.91759,-4.75454 3.16971,-4.71283 6.46455,-9.38395 9.75931,-14.05507 25.02386,-35.74242 50.04773,-71.44314 75.07161,-107.18556 1.91849,-2.71092 3.83699,-5.46355 5.71378,-8.21617 2.04362,-2.96116 2.04362,-2.96116 0.0417,-5.67207 -6.75644,-9.17542 -13.47118,-18.35084 -20.22762,-27.56797 -9.96783,-13.55459 -19.89397,-27.10918 -29.86183,-40.66378 -0.33367,-0.45877 -0.66726,-0.87583 -1.00093,-1.33461 -2.16878,-2.79433 -2.16878,-2.79433 -5.17166,-0.70901 -7.75736,5.38013 -15.05601,11.38586 -23.18875,16.30723 -2.75263,1.66825 -5.46354,3.2948 -8.63325,4.00381 -6.0891,1.37632 -11.30246,0.0417 -15.26456,-5.00477 -7.04839,-9.0503 -10.80195,-19.01814 -8.09104,-30.65424 0.0834,-0.25024 0.12513,-0.54218 0.20855,-0.79242 1.41802,-5.00477 1.54315,-5.08818 5.96404,-2.62751 2.1687,1.20949 4.33748,2.50239 6.46447,3.79529 3.75356,2.25215 5.58867,1.33461 5.7555,-3.16969 0.16684,-4.46259 -0.12512,-8.88347 -0.54221,-13.30436 -0.0416,-0.37535 0,-0.79242 0,-1.20948 1.16777,-0.95925 2.16878,-0.0834 3.128,0.29195 3.75356,1.45972 7.42378,3.08627 11.17733,4.546 1.58486,0.62559 3.41997,2.25215 4.96304,0.75072 1.29297,-1.2095 0.20854,-3.12799 -0.12505,-4.71284 -0.95931,-4.58771 -1.87682,-9.21712 -2.87775,-13.92995 1.45973,-0.41706 2.33553,0.33365 3.21134,0.83413 4.00381,2.21044 7.96599,4.546 12.01151,6.71473 2.46066,1.33462 3.08621,0.91755 3.25305,-1.91849 0.25025,-4.75454 -1.08435,-9.38395 -0.95923,-14.13848 0.0416,-1.08437 -0.29196,-2.21044 0.29196,-3.54505 2.1687,0.0834 4.08723,1.20949 6.1308,1.91849 2.62758,0.91755 5.08824,2.25215 7.84087,2.83604 4.50431,0.95925 5.7972,-0.25023 4.79619,-4.62941 -0.70897,-3.12798 -1.50143,-6.21426 -2.12699,-9.34224 -0.45879,-2.33557 -0.12512,-2.71092 2.21041,-2.83604 5.71379,-0.37536 11.0105,0.95924 16.01532,3.67017 5.75547,3.12798 10.13465,7.63228 13.92993,12.92899 3.79529,5.29672 3.41994,10.63514 0.5839,16.05698 -1.16778,2.21044 -2.83604,4.04553 -4.71283,5.75549 -7.92426,7.25693 -16.97452,13.01241 -25.35752,19.64373 -0.54222,0.41707 -1.08435,0.83413 -1.91853,1.50144 17.43334,23.81437 34.7415,47.37852 52.00797,70.90095 1.50143,-0.37535 1.87679,-1.54313 2.46068,-2.41897 12.3034,-17.51671 24.52339,-35.03341 36.95191,-52.50841 1.79338,-2.5441 2.29385,-4.62942 0.95925,-7.54887 -3.08628,-6.92327 -4.12894,-14.38872 -4.75454,-21.85418 -1.2929,-15.30626 4.83795,-27.27601 16.8077,-36.49313 4.62942,-3.58676 9.55078,-6.71474 15.26456,-8.34129 0.66731,-0.20854 1.33461,-0.37536 2.00191,-0.45877 0.37535,-0.0417 0.79242,0.12511 1.20948,0.16682 0.0417,1.54314 -0.95924,2.5858 -1.58484,3.79528 -3.71188,7.0484 -6.88156,14.26361 -8.4247,22.10443 -0.41707,2.08532 -0.58389,4.17064 -0.25024,6.21425 0.50048,2.79434 2.50239,3.71188 4.87965,2.21045 1.62655,-1.04267 3.08628,-2.37727 4.5043,-3.71188 7.38204,-6.96497 14.72238,-13.92995 22.06271,-20.89493 0.91754,-0.16682 1.37631,0.12512 1.16778,1.12608 z"
         id="path30"
         inkscape:connector-curvature="0"
         style="fill:#231f20;stroke-width:0.41706446"
         inkscape:export-filename="C:\Users\suitedoalex\sites\rayo-vallecano-logo-4.png"
         inkscape:export-xdpi="76.890388"
         inkscape:export-ydpi="76.890388" /><path
         class="st5"
         d="m -206.03996,499.74653 c -0.37536,-0.37537 -0.75071,-0.75072 -1.12607,-1.12608 0.54218,-0.91754 1.12607,-1.70996 2.33556,-2.04361 0.25024,1.3346 -0.50047,2.25214 -1.20949,3.16969 z"
         id="path32"
         inkscape:connector-curvature="0"
         style="fill:#552623;stroke-width:0.41706446"
         inkscape:export-filename="C:\Users\suitedoalex\sites\rayo-vallecano-logo-4.png"
         inkscape:export-xdpi="76.890388"
         inkscape:export-ydpi="76.890388" /></g></g></svg>