<svg xmlns="http://www.w3.org/2000/svg" width="208.2" height="278.53" viewBox="0 0 208.2 278.53"><title>CA Osasuna logo - Brandlogos.net</title><path d="M560.31,457.14l-.83-.15a9.11,9.11,0,0,0-17.42-3c-7.5-1.14-14.6-2-21.33-2.32a9.12,9.12,0,0,0-17.46,0c-6.72.37-13.82,1.18-21.33,2.32a9.11,9.11,0,0,0-17.42,3l-.83.15c-22.08,5.64-42.49,11.51-55.79,15.19C417.53,555,473.41,619.21,512,651.27c38.59-32.05,94.47-96.26,104.1-178.93C602.79,468.65,582.39,462.78,560.31,457.14Z" transform="translate(-407.9 -372.73)" style="fill:#ad8f1f"/><path d="M604.5,475c-12.69-3.56-28.48-8-45.43-12.31l-1-.18a9.13,9.13,0,0,1-4.84,3.79v23.71a9.11,9.11,0,0,1,0,17.31v6.51a77.28,77.28,0,0,1-3,21.32,9.11,9.11,0,0,1-6.3,15.54,78.74,78.74,0,0,1-23.13,26.71A9.09,9.09,0,0,1,512,588.79v55c24.15-20.85,85.77-81.68,97.74-167.24Z" transform="translate(-407.9 -372.73)" style="fill:#0a346f"/><path d="M502.88,579.68a9.13,9.13,0,0,1,.28-2.22A78.72,78.72,0,0,1,480,550.74a9.11,9.11,0,0,1-6.3-15.54,77.28,77.28,0,0,1-3-21.32v-6.51a9.11,9.11,0,0,1,0-17.31V466.35a9.13,9.13,0,0,1-4.84-3.79l-1,.18c-17,4.33-32.74,8.75-45.43,12.31l-5.24,1.46c12,85.55,73.59,146.38,97.74,167.24v-55A9.12,9.12,0,0,1,502.88,579.68Z" transform="translate(-407.9 -372.73)" style="fill:#d91a21"/><path d="M476.48,466.35v23.71a9.11,9.11,0,0,1,0,17.31v6.51A70.59,70.59,0,0,0,479,532.6a9.23,9.23,0,0,1,1.18-.08,9.11,9.11,0,0,1,5.47,16.4c6,10.91,14,19.07,20.55,23.71a9.12,9.12,0,0,1,11.57,0c6.59-4.64,14.53-12.8,20.55-23.71a9.11,9.11,0,0,1,5.47-16.4,9.25,9.25,0,0,1,1.18.08,70.61,70.61,0,0,0,2.54-18.72v-6.51a9.11,9.11,0,0,1,0-17.31V466.35a9.13,9.13,0,0,1-6-6.63c-7.11-1.08-14.17-1.93-20.93-2.32a9.11,9.11,0,0,1-17.15,0c-6.74.38-13.8,1.23-20.93,2.32A9.13,9.13,0,0,1,476.48,466.35Z" transform="translate(-407.9 -372.73)" style="fill:#fff"/><path d="M491.85,515.74a2.74,2.74,0,0,0-2.49,1.49l-1.76,5.06s-1,4,3,4.85c0,0,.7-2.27,1.33-4.18,0,0,.3-1.82,1.82-1.82l4,0s.95.14,1.22-.52v-5.09Z" transform="translate(-407.9 -372.73)" style="fill:#ad8f1f"/><path d="M534.82,497.68c-2-2-4.43-4.14-7.57-4.09-2.5,0-3.6,1-4.32,2.39s-1,3.14,1.13,5.28c1.84,1.84,5,3.41,5,6.14,0,1.88-1.39,1.76-1.39,1.76l-14.53-.31,2.15,4.13-6.09.09-.08,6.27L504,515.52l-4.27,4.75-.86,10.24s.07.73-1.12.73h-2.31a6.92,6.92,0,0,0-1.19,3.67l7.38-.1a7.23,7.23,0,0,0,1.32-2c1.33-2.46,5-8.8,5-8.8s0-2.89,0-3a8.11,8.11,0,0,0,1.26.83v1.4s5.23-3.51,10.11-1.75c0,0,6.66,1.78,7.77,6.46l.55,3.23s-2.87-.24-3.37.89a8.68,8.68,0,0,0-.72,2.78h8l1.61-3.67-1.46-8.25s-4.6-4.34-4.4-8.67a5.47,5.47,0,0,0,4.84-5.88c0-5.48-4.78-7.78-6.3-8.91-1.18-1.18-1.1-2.28-.34-3,1.17-1.17,3.4,0,3.4.64,0,0,.34,2.59,3.58,4.46l.75-.88s.57,1,3.3,1a4.61,4.61,0,0,0-1.65-3.86Z" transform="translate(-407.9 -372.73)" style="fill:#ad8f1f"/><path d="M514.64,522l1,3.08a15.81,15.81,0,0,1-1.78,6h-3.68a4.54,4.54,0,0,0-1.58,3.67h7.56l5.14-5.71a4.13,4.13,0,0,0,1.27-1.76c.24-1.23.64-3,.64-3A12.66,12.66,0,0,0,514.64,522Z" transform="translate(-407.9 -372.73)" style="fill:#ad8f1f"/><path d="M515.14,508.37l-2.45-3.67v-4.6a2.93,2.93,0,0,0-.75-2.33s-3.69-4-4.44-4.78a2.41,2.41,0,0,0-2-.65,2.44,2.44,0,0,0,.05-.73.66.66,0,0,0-.83-.73s-3.83.09-3.83-.37a1,1,0,0,0-1.5-.73c-1.33.64-4.86,5.05-6.53,6.8s-.92,2.3-.92,2.3l1.33,2.24,2.15-1.63a1.45,1.45,0,0,1,1.83.28L494,502.3c.42.83,1,.75,1,.75h2.83l1,2.16H501v-3.86h1.17V497.5h.66v4.72h-1.17v3.86h-2.83l-5.13,4.8,3.69-.08L495.52,515l4.11.12,0,4.38,4.4-4.94,4.37,3.27v-5.6l5.67,0-2.26-3.77Z" transform="translate(-407.9 -372.73)" style="fill:#ad8f1f"/><path d="M497.62,494.77a2.09,2.09,0,0,0-.86.47c-.38.38.4,1,.89,1a.93.93,0,0,0,.89-1C498.53,494.7,498.62,494.48,497.62,494.77Z" transform="translate(-407.9 -372.73)" style="fill:#fff"/><polygon points="94.66 111.38 94.02 110.8 93.37 111.38 94.02 111.96 94.66 111.38" style="fill:#d91a21"/><circle cx="98.08" cy="111.71" r="0.48" style="fill:#ad8f1f"/><circle cx="89.96" cy="111.71" r="0.48" style="fill:#ad8f1f"/><polygon points="101.55 113.17 101.91 112.06 102.05 112.68 101.55 113.17" style="fill:#d91a21"/><polygon points="86.48 113.17 86.12 112.06 85.98 112.68 86.48 113.17" style="fill:#d91a21"/><path d="M501.92,484.86a25.76,25.76,0,0,0-7.55,1.2h0v0c.2.88.21.88.23.89h0a22.14,22.14,0,0,1,14.63,0h0s0,0,.23-.89v0h0A25.72,25.72,0,0,0,501.92,484.86Z" transform="translate(-407.9 -372.73)" style="fill:#ad8f1f"/><path d="M510,483.74a26.89,26.89,0,0,0-16.18,0s0,0,.17.87v0l0,0a26,26,0,0,1,7.88-1.25h0a26,26,0,0,1,7.87,1.25l0,0v0C510,483.75,510,483.75,510,483.74Z" transform="translate(-407.9 -372.73)" style="fill:#ad8f1f"/><path d="M510.86,480.33a1,1,0,0,0-.82-.44,1,1,0,0,0-1,1,.94.94,0,0,0,.39.77,1.23,1.23,0,0,1,.33.28c.08.17,0,.29-.17.32s-1.82-.53-2.65-.62c-.19,0-.17-.34.23-.25a.75.75,0,1,0,.31-1.46.81.81,0,0,0,.1-.21.8.8,0,1,0-1.56-.33.83.83,0,0,0,0,.23.73.73,0,0,0-.87.58.77.77,0,0,0,.57.88c.34.1.21.35,0,.34s-2.28-.19-2.89-.21c-.32,0-.45-.6.16-.6a1.1,1.1,0,0,0,0-2.2,1.23,1.23,0,0,0,.08-.34,1.18,1.18,0,1,0-2.28.34,1.1,1.1,0,1,0,0,2.2c.61,0,.47.57.15.6-.61,0-2.76.2-2.89.21s-.32-.24,0-.34a.77.77,0,0,0,.57-.88.73.73,0,0,0-.87-.58.81.81,0,1,0-1.47.31.75.75,0,0,0,.31,1.46c.4-.08.42.24.23.25-.83.09-2.48.65-2.65.62s-.25-.14-.17-.32a1.24,1.24,0,0,1,.33-.28.94.94,0,0,0,.39-.77,1,1,0,0,0-1-1,1,1,0,0,0-.82.44c-.44-1.73-2.21-.85-2.21-.85l.91,1.47a.57.57,0,0,1,.72.88l-.12.09.77,1.24s.22.58,1.2.21a27.18,27.18,0,0,1,15.33,0c1,.37,1.2-.21,1.2-.21l.77-1.24-.12-.09a.57.57,0,0,1,.72-.88l.91-1.47S511.3,478.6,510.86,480.33Zm-13.68.43a.48.48,0,1,1,.48-.48A.48.48,0,0,1,497.18,480.76Zm4.74-.79a.65.65,0,1,1,.65-.65A.65.65,0,0,1,501.92,480Zm4.26.31a.48.48,0,1,1,.48.48A.48.48,0,0,1,506.18,480.28Z" transform="translate(-407.9 -372.73)" style="fill:#ad8f1f"/><polygon points="108.43 48.9 104.1 44.98 99.77 48.9 104.1 52.82 108.43 48.9" style="fill:#d91a21"/><circle cx="131.48" cy="51.1" r="3.22" style="fill:#ad8f1f"/><circle cx="76.72" cy="51.1" r="3.22" style="fill:#ad8f1f"/><polygon points="157.35 53.5 154.93 60.95 158.26 57.69 157.35 53.5" style="fill:#d91a21"/><polygon points="53.27 60.95 50.84 53.5 49.93 57.69 53.27 60.95" style="fill:#d91a21"/><path d="M512,426.6c-7.75.2-34.29,1.37-50.94,8.08l-.24.09.06.25c1.36,5.93,1.38,5.94,1.55,6l.12.06.12,0c19.05-7.27,44.42-8.26,49.32-8.39,4.91.13,30.26,1.12,49.32,8.39l.12,0,.12-.06c.18-.08.19-.09,1.56-6l.06-.25-.24-.09C546.28,428,519.75,426.8,512,426.6Z" transform="translate(-407.9 -372.73)" style="fill:#ad8f1f"/><path d="M566.6,419.05c-17.73-7.14-48-8.47-54.59-8.41s-36.87,1.27-54.59,8.41c-.27.12-.27.12,1.1,5.9l.08.33.32-.12c18.61-7.1,45.24-8.51,53.1-8.44h0c7.86-.07,34.48,1.35,53.09,8.44l.32.12.08-.33C566.86,419.17,566.86,419.17,566.6,419.05Z" transform="translate(-407.9 -372.73)" style="fill:#ad8f1f"/><path d="M572.28,396.09a6.73,6.73,0,0,0-5.55-2.95,6.56,6.56,0,0,0-6.56,6.56,6.38,6.38,0,0,0,2.64,5.17,8.22,8.22,0,0,1,2.22,1.91c.56,1.15,0,1.93-1.13,2.12s-12.28-3.56-17.9-4.16c-1.28-.12-1.16-2.28,1.55-1.71a5,5,0,0,0,2.09-9.83,5.45,5.45,0,0,0,.67-1.43,5.38,5.38,0,1,0-10.53-2.24,5.45,5.45,0,0,0-.09,1.55,4.93,4.93,0,0,0-5.85,3.9,5.18,5.18,0,0,0,3.87,6c2.29.68,1.41,2.35.15,2.27-.92-.06-15.4-1.28-19.49-1.4-2.14-.18-3.05-4,1-4a7.41,7.41,0,0,0,0-14.83,8,8,0,0,0,.53-2.28,8,8,0,1,0-15.35,2.28,7.41,7.41,0,1,0,0,14.83c4.09,0,3.18,3.85,1,4-4.09.12-18.58,1.34-19.49,1.4-1.26.09-2.14-1.59.15-2.27a5.18,5.18,0,0,0,3.87-6,4.93,4.93,0,0,0-5.85-3.9,5.46,5.46,0,1,0-9.95,2.12,5,5,0,0,0,2.09,9.83c2.71-.58,2.84,1.59,1.55,1.71-5.62.6-16.73,4.35-17.9,4.16s-1.69-1-1.13-2.12a8.22,8.22,0,0,1,2.22-1.91,6.37,6.37,0,0,0,2.64-5.17,6.56,6.56,0,0,0-6.56-6.56,6.73,6.73,0,0,0-5.55,2.95c-3-11.64-14.89-5.71-14.89-5.71l6.14,9.94a3.85,3.85,0,1,1,4,6.55l5.19,8.4s1.5,3.93,8.11,1.42c16.72-6.37,44.31-7.5,51.7-7.44s35,1.08,51.7,7.44c6.6,2.51,8.11-1.42,8.11-1.42l5.19-8.4a3.85,3.85,0,0,1-.82-6.07,3.86,3.86,0,0,1,4.86-.48l6.14-9.94S575.24,384.46,572.28,396.09ZM480,399a3.24,3.24,0,1,1,3.24-3.24A3.24,3.24,0,0,1,480,399Zm32-5.34a4.35,4.35,0,1,1,4.36-4.35A4.35,4.35,0,0,1,512,393.68Zm28.72,2.1A3.24,3.24,0,1,1,544,399,3.24,3.24,0,0,1,540.72,395.78Z" transform="translate(-407.9 -372.73)" style="fill:#ad8f1f"/><path d="M434.76,499a9.58,9.58,0,0,1,9.58-9.58h6.8v-3.9h-6.8a13.48,13.48,0,0,0,0,27h6.92l0-3.91h-7A9.55,9.55,0,0,1,434.76,499Z" transform="translate(-407.9 -372.73)" style="fill:#ad8f1f"/><path d="M582.44,484.18c-4.72,0-10,4.21-10.48,11.3l-.07,16.22,3.64,0V506l13.65,0v5.51H593v-16C592.55,488.49,587.44,484.18,582.44,484.18Zm6.71,18H575.53v-6.66c0-5.24,3.73-7.46,6.84-7.4a7,7,0,0,1,6.79,7.35Z" transform="translate(-407.9 -372.73)" style="fill:#ad8f1f"/><path d="M512,600a13.48,13.48,0,1,0,13.48,13.48A13.48,13.48,0,0,0,512,600ZM512,623a9.58,9.58,0,1,1,9.58-9.58A9.58,9.58,0,0,1,512,623Z" transform="translate(-407.9 -372.73)" style="fill:#ad8f1f"/><circle cx="104.1" cy="206.94" r="5.21" style="fill:#fff"/><circle cx="142.49" cy="125.98" r="5.21" style="fill:#fff"/><circle cx="65.71" cy="125.98" r="5.21" style="fill:#fff"/><circle cx="72.29" cy="168.9" r="5.21" style="fill:#fff"/><circle cx="142.49" cy="84.96" r="5.21" style="fill:#fff"/><circle cx="65.71" cy="84.96" r="5.21" style="fill:#fff"/><circle cx="104.1" cy="81.58" r="5.21" style="fill:#fff"/><circle cx="135.9" cy="168.9" r="5.21" style="fill:#fff"/></svg>