<svg xmlns="http://www.w3.org/2000/svg" xmlns:xlink="http://www.w3.org/1999/xlink" width="159.49" height="166.67" viewBox="0 0 159.49 166.67"><defs><linearGradient id="a" x1="465.83" y1="453.11" x2="547.84" y2="535.11" gradientUnits="userSpaceOnUse"><stop offset="0" stop-color="#0063ac"/><stop offset="0.42" stop-color="#0061aa"/><stop offset="0.61" stop-color="#005ba2"/><stop offset="0.76" stop-color="#015196"/><stop offset="0.89" stop-color="#014383"/><stop offset="0.9" stop-color="#014080"/></linearGradient><linearGradient id="b" x1="435.14" y1="544.47" x2="588.86" y2="544.47" gradientUnits="userSpaceOnUse"><stop offset="0" stop-color="#007dbd"/><stop offset="0.46" stop-color="#007bbc"/><stop offset="0.67" stop-color="#0073b7"/><stop offset="0.83" stop-color="#0067af"/><stop offset="0.9" stop-color="#005eaa"/></linearGradient><linearGradient id="c" x1="485.62" y1="494.55" x2="500.73" y2="509.67" gradientUnits="userSpaceOnUse"><stop offset="0" stop-color="#c5152b"/><stop offset="0.57" stop-color="#a00c17"/><stop offset="1" stop-color="#820406"/></linearGradient></defs><title>Getafe CF logo - Brandlogos.net</title><path d="M494,437.89a22.16,22.16,0,0,1,35.93-.06l0,0a79.75,79.75,0,1,1-36.06,0Zm56.36,45.38V527.7a39.43,39.43,0,0,1-20.67,34.84l.46-.16a50.16,50.16,0,0,0,20.25-79.06Zm-76.74,0a50.16,50.16,0,0,0,20.8,79.35l-.43-.23a39.44,39.44,0,0,1-20.38-34.68V483.26Zm11.5-10.05h53.73l-.06,0a50,50,0,0,0-12.28-5.63l0,0a22.15,22.15,0,0,1-29,0h0a50,50,0,0,0-12.25,5.62Z" transform="translate(-432.25 -428.67)" style="fill:#dfe0e2"/><path d="M562.89,504.07a52.11,52.11,0,0,0-12.47-23.74l0,0v-7.07h-8l0,0A52.06,52.06,0,0,0,528.15,466l0,0a22.17,22.17,0,0,0,3.88-24.5v-.05a77.16,77.16,0,0,1,54.4,55.11h0A130.37,130.37,0,0,0,562.94,504Zm-127.7,10.69c8.18,1.87,20.08,4.43,24.78,5.44H460q-.2-2.29-.2-4.62a52,52,0,0,1,13.78-35.3l0,0v-7.06h8l0,0A52.06,52.06,0,0,1,495.85,466l0,0a22.17,22.17,0,0,1-3.89-24.53l0,0a77,77,0,0,0-56.81,73.37Z" transform="translate(-432.25 -428.67)" style="fill:url(#a)"/><path d="M562.89,504.07A52.18,52.18,0,1,1,460,520.21H460c-4.7-1-16.6-3.57-24.78-5.44l-.05,0q0,.42,0,.84a76.86,76.86,0,1,0,151.32-19.1h0A130.37,130.37,0,0,0,562.94,504Z" transform="translate(-432.25 -428.67)" style="fill:url(#b)"/><path d="M513.26,475.19V565h0c19.5-.7,35.1-17.11,35.1-37.27V475.19H513.26Z" transform="translate(-432.25 -428.67)" style="fill:#6bb340"/><path d="M510.74,475.19V565h0c-19.5-.7-35.1-17.12-35.1-37.27V475.19h35.13Z" transform="translate(-432.25 -428.67)" style="fill:#ce3c40"/><path d="M539.51,536.84c1.06,0,2.1,0,2-.45s-1.42-.68-1.42-.68.13-.92.29-3c0,0,.45,0,2.52-.09,2.64-.11,3.22-.68,3.24-1.17s-1.33-.34-2.41-.34h-1.46s0-1.8-.56-1.8-.5,1.79-.5,1.79h-.83c0-.76,0-1.6,0-2.5s-.63-1.82-1-1.8h0c-.34,0-1,.77-1,1.8s0,1.74,0,2.5h-.83s0-1.79-.5-1.79-.56,1.8-.56,1.8h-1.46c-1.08,0-2.43,0-2.41.34s.61,1.06,3.24,1.17c2.07.09,2.52.09,2.52.09.16,2,.29,3,.29,3s-1.35.11-1.42.68,1,.45,2,.45Z" transform="translate(-432.25 -428.67)" style="fill:#fff"/><path d="M539.51,515.69c1.06,0,2.1,0,2-.45s-1.42-.68-1.42-.68.13-.92.29-3c0,0,.45,0,2.52-.09,2.64-.11,3.22-.68,3.24-1.17s-1.33-.34-2.41-.34h-1.46s0-1.8-.56-1.8-.5,1.79-.5,1.79h-.83c0-.76,0-1.6,0-2.5s-.63-1.82-1-1.8h0c-.34,0-1,.77-1,1.8s0,1.74,0,2.5h-.83s0-1.79-.5-1.79-.56,1.8-.56,1.8h-1.46c-1.08,0-2.43,0-2.41.34s.61,1.06,3.24,1.17c2.07.09,2.52.09,2.52.09.16,2,.29,3,.29,3s-1.35.11-1.42.68,1,.45,2,.45Z" transform="translate(-432.25 -428.67)" style="fill:#fff"/><path d="M539.51,494.54c1.06,0,2.1,0,2-.45s-1.42-.68-1.42-.68.13-.92.29-3c0,0,.45,0,2.52-.09,2.64-.11,3.22-.68,3.24-1.17s-1.33-.34-2.41-.34h-1.46s0-1.8-.56-1.8-.5,1.79-.5,1.79h-.83c0-.76,0-1.6,0-2.5s-.63-1.82-1-1.8h0c-.34,0-1,.77-1,1.8s0,1.74,0,2.5h-.83s0-1.79-.5-1.79-.56,1.8-.56,1.8h-1.46c-1.08,0-2.43,0-2.41.34s.61,1.06,3.24,1.17c2.07.09,2.52.09,2.52.09.16,2,.29,3,.29,3s-1.35.11-1.42.68,1,.45,2,.45Z" transform="translate(-432.25 -428.67)" style="fill:#fff"/><circle cx="79.75" cy="22.15" r="19.57" style="fill:#fff"/><polygon points="93.29 155.98 90.37 156.5 90.97 159.9 94.19 159.33 93.59 155.93 93.29 155.98" style="fill:#fff"/><polygon points="112.78 149.04 110.14 150.39 111.71 153.47 114.62 151.98 113.05 148.91 112.78 149.04" style="fill:#fff"/><polygon points="139.34 124.31 137.71 126.78 140.6 128.68 142.39 125.94 139.51 124.05 139.34 124.31" style="fill:#fff"/><polygon points="148.58 101.56 147.91 104.45 151.27 105.23 152.01 102.05 148.65 101.27 148.58 101.56" style="fill:#fff"/><polygon points="153.15 81.7 150.01 81.8 150.12 85.07 153.57 84.96 153.46 81.69 153.15 81.7" style="fill:#fff"/><path d="M530.83,505.11c1.06,0,2.1,0,2-.45s-1.42-.68-1.42-.68.13-.92.29-3c0,0,.45,0,2.52-.09,2.64-.11,3.22-.68,3.24-1.17s-1.33-.34-2.41-.34h-1.46s0-1.8-.56-1.8-.5,1.79-.5,1.79h-.83c0-.76,0-1.6,0-2.5s-.63-1.82-1-1.8h0c-.34,0-1,.77-1,1.8s0,1.74,0,2.5h-.83s0-1.79-.5-1.79-.56,1.8-.56,1.8h-1.46c-1.08,0-2.43,0-2.41.34s.61,1.06,3.24,1.17c2.07.09,2.52.09,2.52.09.16,2,.29,3,.29,3s-1.35.11-1.42.68,1,.45,2,.45Z" transform="translate(-432.25 -428.67)" style="fill:#fff"/><path d="M530.83,526.26c1.06,0,2.1,0,2-.45s-1.42-.68-1.42-.68.13-.92.29-3c0,0,.45,0,2.52-.09,2.64-.11,3.22-.68,3.24-1.17s-1.33-.34-2.41-.34h-1.46s0-1.8-.56-1.8-.5,1.79-.5,1.79h-.83c0-.76,0-1.6,0-2.5s-.63-1.82-1-1.8h0c-.34,0-1,.77-1,1.8s0,1.74,0,2.5h-.83s0-1.79-.5-1.79-.56,1.8-.56,1.8h-1.46c-1.08,0-2.43,0-2.41.34s.61,1.06,3.24,1.17c2.07.09,2.52.09,2.52.09.16,2,.29,3,.29,3s-1.35.11-1.42.68,1,.45,2,.45Z" transform="translate(-432.25 -428.67)" style="fill:#fff"/><path d="M530.83,547.41c1.06,0,2.1,0,2-.45s-1.42-.68-1.42-.68.13-.92.29-3c0,0,.45,0,2.52-.09,2.64-.11,3.22-.68,3.24-1.17s-1.33-.34-2.41-.34h-1.46s0-1.8-.56-1.8-.5,1.79-.5,1.79h-.83c0-.76,0-1.6,0-2.5s-.63-1.82-1-1.8h0c-.34,0-1,.77-1,1.8s0,1.74,0,2.5h-.83s0-1.79-.5-1.79-.56,1.8-.56,1.8h-1.46c-1.08,0-2.43,0-2.41.34s.61,1.06,3.24,1.17c2.07.09,2.52.09,2.52.09.16,2,.29,3,.29,3s-1.35.11-1.42.68,1,.45,2,.45Z" transform="translate(-432.25 -428.67)" style="fill:#fff"/><path d="M522.14,536.84c1.06,0,2.1,0,2-.45s-1.42-.68-1.42-.68.13-.92.29-3c0,0,.45,0,2.52-.09,2.64-.11,3.22-.68,3.24-1.17s-1.33-.34-2.41-.34H525s0-1.8-.56-1.8-.5,1.79-.5,1.79h-.83c0-.76,0-1.6,0-2.5s-.63-1.82-1-1.8h0c-.34,0-1,.77-1,1.8s0,1.74,0,2.5h-.83s0-1.79-.5-1.79-.56,1.8-.56,1.8h-1.46c-1.08,0-2.43,0-2.41.34s.61,1.06,3.24,1.17c2.07.09,2.52.09,2.52.09.16,2,.29,3,.29,3s-1.35.11-1.42.68,1,.45,2,.45Z" transform="translate(-432.25 -428.67)" style="fill:#fff"/><path d="M522.14,515.69c1.06,0,2.1,0,2-.45s-1.42-.68-1.42-.68.13-.92.29-3c0,0,.45,0,2.52-.09,2.64-.11,3.22-.68,3.24-1.17s-1.33-.34-2.41-.34H525s0-1.8-.56-1.8-.5,1.79-.5,1.79h-.83c0-.76,0-1.6,0-2.5s-.63-1.82-1-1.8h0c-.34,0-1,.77-1,1.8s0,1.74,0,2.5h-.83s0-1.79-.5-1.79-.56,1.8-.56,1.8h-1.46c-1.08,0-2.43,0-2.41.34s.61,1.06,3.24,1.17c2.07.09,2.52.09,2.52.09.16,2,.29,3,.29,3s-1.35.11-1.42.68,1,.45,2,.45Z" transform="translate(-432.25 -428.67)" style="fill:#fff"/><path d="M522.14,558c1.06,0,2.1,0,2-.45s-1.42-.68-1.42-.68.13-.92.29-3c0,0,.45,0,2.52-.09,2.64-.11,3.22-.68,3.24-1.17s-1.33-.34-2.41-.34H525s0-1.8-.56-1.8-.5,1.79-.5,1.79h-.83c0-.76,0-1.6,0-2.5s-.63-1.82-1-1.8h0c-.34,0-1,.77-1,1.8s0,1.74,0,2.5h-.83s0-1.79-.5-1.79-.56,1.8-.56,1.8h-1.46c-1.08,0-2.43,0-2.41.34s.61,1.06,3.24,1.17c2.07.09,2.52.09,2.52.09.16,2,.29,3,.29,3s-1.35.11-1.42.68,1,.45,2,.45Z" transform="translate(-432.25 -428.67)" style="fill:#fff"/><path d="M522.14,494.54c1.06,0,2.1,0,2-.45s-1.42-.68-1.42-.68.13-.92.29-3c0,0,.45,0,2.52-.09,2.64-.11,3.22-.68,3.24-1.17s-1.33-.34-2.41-.34H525s0-1.8-.56-1.8-.5,1.79-.5,1.79h-.83c0-.76,0-1.6,0-2.5s-.63-1.82-1-1.8h0c-.34,0-1,.77-1,1.8s0,1.74,0,2.5h-.83s0-1.79-.5-1.79-.56,1.8-.56,1.8h-1.46c-1.08,0-2.43,0-2.41.34s.61,1.06,3.24,1.17c2.07.09,2.52.09,2.52.09.16,2,.29,3,.29,3s-1.35.11-1.42.68,1,.45,2,.45Z" transform="translate(-432.25 -428.67)" style="fill:#fff"/><path d="M493.17,517.63c5.65-3.9,8.78-10,8.78-13.94a7.94,7.94,0,0,0-2.1-5.83,12.46,12.46,0,0,0,.54-5.89,6.18,6.18,0,0,1-2.28,2.4,13.19,13.19,0,0,0-1.92-5.23,10.71,10.71,0,0,1-1.14,3.06,6,6,0,0,1-1.87,2h0a6,6,0,0,1-1.87-2,10.71,10.71,0,0,1-1.14-3.06,13.18,13.18,0,0,0-1.92,5.23A6.18,6.18,0,0,1,486,492a12.46,12.46,0,0,0,.54,5.89,7.94,7.94,0,0,0-2.1,5.83c0,4,3.12,10,8.78,13.94Z" transform="translate(-432.25 -428.67)" style="fill:#dfe0e2"/><path d="M500.07,508.55a21.69,21.69,0,0,1-6.9,8.29,22.12,22.12,0,0,1-5.11-5.19v0l12-3.11Zm.44-8.63a5.38,5.38,0,0,0-1.09-1.57l-.34-.3.18-.41a9.55,9.55,0,0,0,.62-3.64c0-.1,0-.18,0-.27a5.12,5.12,0,0,1-1.52,1.25l-.77.34-.11-.83a12.72,12.72,0,0,0-1.11-3.66,8.68,8.68,0,0,1-.8,1.74,6.58,6.58,0,0,1-2.09,2.2l-.31.17-.31-.17a6.58,6.58,0,0,1-2.09-2.2,8.67,8.67,0,0,1-.8-1.74,12.72,12.72,0,0,0-1.11,3.66l-.11.83L488,495a5.11,5.11,0,0,1-1.52-1.25c0,.09,0,.18,0,.27a9.55,9.55,0,0,0,.62,3.64l.18.42-.33.3A7.31,7.31,0,0,0,485,503.7q0,.11,0,.21v0l15.49-4Zm-14,9.06.32.62v0L501,506v0c.06-.26.12-.51.16-.76v0L486.47,509Zm-.87-2.12,15.67-4v0c0-.24-.05-.47-.09-.69v0l-15.8,4.08h0q.09.32.2.65Z" transform="translate(-432.25 -428.67)" style="fill:url(#c)"/><path d="M499.66,475.26V493a4.92,4.92,0,0,1-1.55,1.38,13.19,13.19,0,0,0-1.92-5.23,10.71,10.71,0,0,1-1.14,3.06,6,6,0,0,1-1.87,2h0a6,6,0,0,1-1.87-2,10.71,10.71,0,0,1-1.14-3.06,13.18,13.18,0,0,0-1.92,5.23,4.92,4.92,0,0,1-1.56-1.38V475.19h13Z" transform="translate(-432.25 -428.67)" style="fill:#ffe81b"/><path d="M510.7,510.9h-11v51.89a36.29,36.29,0,0,1-13-8.3V510.9H475.61v-13h10.83a8.12,8.12,0,0,0-2,5.76c0,4,3.12,10,8.78,13.94h0c5.65-3.9,8.78-10,8.78-13.94a8.12,8.12,0,0,0-2-5.76h10.83v13Z" transform="translate(-432.25 -428.67)" style="fill:#ffe81b"/><path d="M485,503.93l15.49-4v0a8,8,0,0,1,.65,2.11v0l-15.8,4.08h0A10,10,0,0,1,485,504Z" transform="translate(-432.25 -428.67)" style="fill:#fff"/><path d="M485.6,506.85l15.67-4v0c0,.27,0,.56,0,.86a8.36,8.36,0,0,1-.13,1.44v0L486.47,509v0a16.55,16.55,0,0,1-.85-2.07Z" transform="translate(-432.25 -428.67)" style="fill:#fff"/><path d="M524,454.23a52.79,52.79,0,0,1,.21,8.29v0a25.68,25.68,0,0,0,3.41-.05h0a19.58,19.58,0,0,1-11,7.33v0c.08-1,.06-1.89.05-2.21v0a25.9,25.9,0,0,1-8.43-2.56h0a25.7,25.7,0,0,1-7.35.46h0c-.09.34-.2.8-.29,1.27v0l-.16-.12v0c.09-.48.2-.94.29-1.28l0,0a46.46,46.46,0,0,1-4.43-5.72,8.08,8.08,0,0,1-.55-1.06l0,0a13.84,13.84,0,0,1-2.33-1.66l0,0-.1-.33,0,0a14.19,14.19,0,0,0,2.44,1.78h0c.17-.58.83-2.25,3.39-5.46v0a23.24,23.24,0,0,1-.33-9.83v0c-.43-.3-1.94-1.35-3.45-2.36h0a19.67,19.67,0,0,1,6.5-6.47l.06,0a18.9,18.9,0,0,1,4.82-1.24h0a14,14,0,0,1,3-1.45h0l.79-.07-.09,0a15,15,0,0,0-3.59,1.61v0a40.11,40.11,0,0,0-.17,4.36h0a48.72,48.72,0,0,1,8.3,3.51h0c.63-.16,4.15-1,7.55-1.64v0c-.06-1.68-.27-3.3-.38-4.12v0a16.15,16.15,0,0,0-5.71-3.23l-.22-.08a19.47,19.47,0,0,1,7.17,3.23h0c-.21,0-.55.09-1,.12v0c.12.86.32,2.48.37,4.13v0a45.9,45.9,0,0,1,5.15,7.32v0a26,26,0,0,1,3.34,1.12h0l0,.21h0a26.13,26.13,0,0,0-3.27-1.11v0a26.9,26.9,0,0,1-4,7.33Zm-8.58-3.73a71.07,71.07,0,0,0-.47-9.44v0a48.51,48.51,0,0,0-8.34-3.53h0C506,437.71,503,439,499,443v0a23,23,0,0,0,.31,9.75l0,0c.66.35,4.45,2.36,7.86,3.73h0a48,48,0,0,0,8.23-5.95Zm8.4,3.72a40,40,0,0,1-4.5-1.65c-2.38-1-3.64-1.72-3.87-1.84l0,0a48.62,48.62,0,0,1-8.08,5.83h0c0,.49.33,4.49,1,8.22h0a25.81,25.81,0,0,0,8.55,2.57h0a26.72,26.72,0,0,0,7.14-4.74v0a52.6,52.6,0,0,0-.2-8.36Z" transform="translate(-432.25 -428.67)" style="fill:#231f20"/><path d="M486.81,509.61,501,506v0a15.16,15.16,0,0,1-.9,2.51v0l-12,3.11v0a20.69,20.69,0,0,1-1.22-2Z" transform="translate(-432.25 -428.67)" style="fill:#fff"/><path d="M537.93,553.87a37.32,37.32,0,0,0,2.54-2.93v0q0-.55,0-1.15c0-1-.63-1.82-1-1.8h0c-.34,0-1,.77-1,1.8s0,1.74,0,2.5h-.83s0-1.79-.5-1.79-.56,1.8-.56,1.8h-1.46c-1.08,0-2.43,0-2.41.34s.61,1.06,3.24,1.17l1.84.07Z" transform="translate(-432.25 -428.67)" style="fill:#fff"/><path d="M513.26,526.27v-10h0a.35.35,0,0,1,.19-.05h0c.34,0,1,.77,1,1.8s0,1.74,0,2.5h.83s0-1.79.5-1.79.56,1.8.56,1.8h1.46c1.08,0,2.43,0,2.41.34s-.61,1.06-3.24,1.17c-2.07.09-2.52.09-2.52.09-.16,2-.29,3-.29,3s1.35.11,1.42.68-1,.45-2,.45h-.2Z" transform="translate(-432.25 -428.67)" style="fill:#fff"/><path d="M529.86,560.2q.84-.49,1.66-1h0c-.21-.4-.49-.65-.68-.63h0c-.32,0-.9.68-1,1.63Z" transform="translate(-432.25 -428.67)" style="fill:#fff"/><path d="M529.91,475.21a2.57,2.57,0,0,0-.06.53c0,.9,0,1.74,0,2.5h-.83s0-1.79-.5-1.79-.56,1.8-.56,1.8h-1.46c-1.08,0-2.43,0-2.41.34s.61,1.06,3.24,1.17c2.07.09,2.52.09,2.52.09.16,2,.29,3,.29,3s-1.35.11-1.42.68,1,.45,2,.45h0c1.06,0,2.1,0,2-.45s-1.42-.68-1.42-.68.13-.92.29-3c0,0,.45,0,2.52-.09,2.64-.11,3.22-.68,3.24-1.17s-1.33-.34-2.41-.34h-1.46s0-1.8-.56-1.8-.5,1.79-.5,1.79h-.83c0-.76,0-1.6,0-2.5a2.55,2.55,0,0,0-.06-.53v0h-1.81Z" transform="translate(-432.25 -428.67)" style="fill:#fff"/><path d="M548.34,505.11h-.14c-1.06,0-2.1,0-2-.45s1.42-.68,1.42-.68-.14-.92-.29-3c0,0-.45,0-2.52-.09-2.64-.11-3.22-.68-3.24-1.17s1.33-.34,2.41-.34h1.46s0-1.8.56-1.8.5,1.79.5,1.79h.83c0-.76,0-1.6,0-2.5s.63-1.82,1-1.8h0a.33.33,0,0,1,.17,0h0v10Z" transform="translate(-432.25 -428.67)" style="fill:#fff"/><path d="M548.39,526.26v-10h0a.35.35,0,0,0-.18,0h0c-.34,0-1,.77-1,1.8s0,1.74,0,2.5h-.83s0-1.79-.5-1.79-.56,1.8-.56,1.8h-1.46c-1.08,0-2.43,0-2.41.34s.61,1.06,3.24,1.17c2.07.09,2.52.09,2.52.09.16,2,.29,3,.29,3s-1.35.11-1.42.68,1,.45,2,.45h.2Z" transform="translate(-432.25 -428.67)" style="fill:#fff"/><path d="M545.1,543.23q.64-1.44,1.17-2.94v0c-.07-.21-.17-.36-.32-.36-.52,0-.56,1.8-.56,1.8h-1.46c-1.08,0-2.43,0-2.41.34s.61,1.06,3.24,1.17h.35Z" transform="translate(-432.25 -428.67)" style="fill:#fff"/><path d="M548.35,484h-.16c-1.06,0-2.1,0-2-.45s1.42-.68,1.42-.68-.14-.92-.29-3c0,0-.45,0-2.52-.09-2.64-.11-3.22-.68-3.24-1.17s1.33-.34,2.41-.34h1.46s0-1.8.56-1.8.5,1.79.5,1.79h.83c0-.76,0-1.6,0-2.5a2.57,2.57,0,0,1,.06-.55h1.11V484Z" transform="translate(-432.25 -428.67)" style="fill:#fff"/><path d="M513.26,505.12v-10h0a.35.35,0,0,1,.19-.05h0c.34,0,1,.77,1,1.8s0,1.74,0,2.5h.83s0-1.79.5-1.79.56,1.8.56,1.8h1.46c1.08,0,2.43,0,2.41.34s-.61,1.06-3.24,1.17c-2.07.09-2.52.09-2.52.09-.16,2-.29,3-.29,3s1.35.11,1.42.68-1,.45-2,.45h-.2Z" transform="translate(-432.25 -428.67)" style="fill:#fff"/><path d="M513.26,547.41v-10h0a.35.35,0,0,1,.19-.05h0c.34,0,1,.77,1,1.8s0,1.74,0,2.5h.83s0-1.79.5-1.79.56,1.8.56,1.8h1.46c1.08,0,2.43,0,2.41.34s-.61,1.06-3.24,1.17c-2.07.09-2.52.09-2.52.09-.16,2-.29,3-.29,3s1.35.11,1.42.68-1,.45-2,.45h-.2Z" transform="translate(-432.25 -428.67)" style="fill:#fff"/><path d="M514.34,564.92l-1.05.05h0v-6.38h0a.34.34,0,0,1,.18,0h0c.34,0,1,.77,1,1.8s0,1.74,0,2.5h.83s0-1.79.5-1.79.56,1.8.56,1.8h1.46c1.08,0,2.43,0,2.41.34s-.61,1.06-3.24,1.17c-2.07.09-2.52.09-2.52.09l0,.43Z" transform="translate(-432.25 -428.67)" style="fill:#fff"/><path d="M513.26,484v-8.78h1.11v0a2.58,2.58,0,0,1,.06.53c0,.9,0,1.74,0,2.5h.83s0-1.79.5-1.79.56,1.8.56,1.8h1.46c1.08,0,2.43,0,2.41.34s-.61,1.06-3.24,1.17c-2.07.09-2.52.09-2.52.09-.16,2-.29,3-.29,3s1.35.11,1.42.68-1,.45-2,.45h-.2Z" transform="translate(-432.25 -428.67)" style="fill:#fff"/><path d="M461,537.58,458.43,539l1.36,2.54-13.7,7.35,1.61,3,13.7-7.35,1.38,2.58,2.84-1.52-4.36-8.12Z" transform="translate(-432.25 -428.67)" style="fill:#fff"/><path d="M468.15,549.29,452,558.82l2.15,2.58,3.39-2,1.47,1.76-2.65,2.94,2.24,2.69L471,552.36l-2.67-3.2ZM465,554.65l-3.83,4.1-.92-1.1Z" transform="translate(-432.25 -428.67)" style="fill:#fff"/><path d="M508.28,571.55a5,5,0,0,0-1.28,3.56s-.08,9.38-.08,9.41a5.9,5.9,0,0,0,1.13,3.87,4.93,4.93,0,0,0,6.86,0,5.72,5.72,0,0,0,1.23-3.86l0-2.2-3.5,0,0,2.78a2,2,0,0,1-.31,1.23,1.15,1.15,0,0,1-1.67,0,2.05,2.05,0,0,1-.29-1.24l.08-10.14a2,2,0,0,1,.31-1.22,1.17,1.17,0,0,1,1.67,0,2,2,0,0,1,.29,1.23l0,2.3,3.5,0,0-2a5.19,5.19,0,0,0-1.19-3.62,4.27,4.27,0,0,0-3.29-1.38A4.57,4.57,0,0,0,508.28,571.55Z" transform="translate(-432.25 -428.67)" style="fill:#fff"/><path d="M552.2,552.74h0a4.42,4.42,0,0,0-1.22,3.37,4.8,4.8,0,0,0,1.6,3.33,5.66,5.66,0,0,0,2.39,1.33,16.89,16.89,0,0,0,4.48.27l.38,0c2-.1,3.4.15,4,.73a1.43,1.43,0,0,1,.51,1,1.35,1.35,0,0,1-.41,1,1.2,1.2,0,0,1-1.12.43,3.8,3.8,0,0,1-1.7-.94l-.26-.22L559,565.8l.21.18a5.89,5.89,0,0,0,3.79,1.61,4.59,4.59,0,0,0,3.45-1.61,4.46,4.46,0,0,0,1.27-3.37,4.8,4.8,0,0,0-1.64-3.32,6.13,6.13,0,0,0-2.49-1.44,13.33,13.33,0,0,0-4.08-.24h-.22c-2.33.11-3.86-.17-4.56-.83a1.47,1.47,0,0,1-.52-.93,1.06,1.06,0,0,1,.32-.86.91.91,0,0,1,.85-.34,3.41,3.41,0,0,1,1.42.81l.26.21,1.93-2.77-.23-.18a5.58,5.58,0,0,0-3.47-1.36A4.09,4.09,0,0,0,552.2,552.74Z" transform="translate(-432.25 -428.67)" style="fill:#fff"/><path d="M563.29,535.64l-1.55,3.59,16,10.25,1.33-3.09-3.36-2.1.91-2.11,3.82,1,1.39-3.21-18.45-4.61Zm4.87,4.11,5.39,1.56-.57,1.32Z" transform="translate(-432.25 -428.67)" style="fill:#fff"/><path d="M568.37,515.87a4.69,4.69,0,0,0-1.53,3.55l-.25,4.3,18.74,1.11.26-4.43a4.51,4.51,0,0,0-1.1-3.64,6.08,6.08,0,0,0-4-1.36l-8.12-.48A5.75,5.75,0,0,0,568.37,515.87Zm1.7,4.31a2.11,2.11,0,0,1,.52-1.46,1.92,1.92,0,0,1,1.45-.36l8.75.52a2.1,2.1,0,0,1,1.24.37,1,1,0,0,1,.3.76s0,.07,0,.11l-.07,1.11-12.21-.72Z" transform="translate(-432.25 -428.67)" style="fill:#fff"/><path d="M457.26,525.47l-17.77,5,2.5,8.9,3.19-.9-1.58-5.62,4.66-1.31,1.24,4.4,3.11-.87-1.24-4.4,4-1.12,1.58,5.62,3.11-.87-2.5-8.9Z" transform="translate(-432.25 -428.67)" style="fill:#fff"/><path d="M475,556.92l-11.2,14.68,2.71,2.07,4.95-6.48,3.64,2.77,2-2.56-3.64-2.77,2.52-3.31,4.64,3.54,2-2.56-7.35-5.6Z" transform="translate(-432.25 -428.67)" style="fill:#fff"/><path d="M452.31,512.69,443,513a6.41,6.41,0,0,0-3.91,1.17,3.66,3.66,0,0,0-1.32,3.14v.17a4.29,4.29,0,0,0,1.32,3.51c.81.73,2,1.06,3.87,1.05l5.1-.15-.15-5-2.91.09,0,1.69-2.56.08a2.09,2.09,0,0,1-1.26-.26,1.15,1.15,0,0,1,0-1.67,2.09,2.09,0,0,1,1.24-.34l10.13-.3a2,2,0,0,1,1.23.26,1.17,1.17,0,0,1,0,1.67,2,2,0,0,1-1.21.34l-2.22.07.1,3.31,2-.06a5.44,5.44,0,0,0,3.64-1.21,4.09,4.09,0,0,0,1.19-3.28,4.57,4.57,0,0,0-1.41-3.4A5,5,0,0,0,452.31,512.69Z" transform="translate(-432.25 -428.67)" style="fill:#fff"/><path d="M485.58,564.36l-7.73,16.77,8.39,3.87,1.39-3-5.3-2.44,2-4.39,4.15,1.91,1.35-2.93-4.15-1.91,1.74-3.78,5.3,2.44,1.35-2.93-8.39-3.87Z" transform="translate(-432.25 -428.67)" style="fill:#fff"/><path d="M535.23,565.68l-8.38,3.09,6.49,17.61,3.2-1.18-2.82-7.65L538,576l-1.12-3-4.29,1.58-1.44-3.91,5.47-2-1.12-3Z" transform="translate(-432.25 -428.67)" style="fill:#fff"/><path d="M526.55,448l-3,3.24c-.68.72-2.84,1.53-4,1a37.52,37.52,0,0,1-3.68-1.74c0-.47,0-1,0-1.44a76.48,76.48,0,0,0-.48-7.93c1-.24,4.14-1,7.22-1.56a49.65,49.65,0,0,1,3.69,4.92C527.2,445.92,527.22,447.25,526.55,448Z" transform="translate(-432.25 -428.67)" style="fill:#4d5e5a"/><path d="M521.77,442.43a4.56,4.56,0,0,1-1.62,3.69c-.81.77-2,1.67-3,2.61s-1.22.27-1.13-1.08c-.07-2.81-.33-5.4-.44-6.38.82-.2,2.86-.7,5.12-1.15C521.48,440,521.73,440.53,521.77,442.43Z" transform="translate(-432.25 -428.67)" style="fill:#80898d"/><path d="M506.08,433.69s0,1.77.06,3.42A25.65,25.65,0,0,0,499,442.4s-1.56-1.08-2.49-1.74C496.47,440.65,500.37,435,506.08,433.69Z" transform="translate(-432.25 -428.67)" style="fill:#404f4c"/><path d="M506.83,456.81s0,1.92.27,4.45a15,15,0,0,1-4.08-2c-1.35-1.14-3-2-3.81-2.73s-1-1.2-.57-2a11.72,11.72,0,0,1,.81-1.26A60.58,60.58,0,0,0,506.83,456.81Z" transform="translate(-432.25 -428.67)" style="fill:#253334"/><path d="M506.65,456.93v1.77s-.93-.81-1.59-1.32a16.54,16.54,0,0,0-2.22-1.53,11.26,11.26,0,0,1-1.83-1.26c-.27-.24-.84-.66-.84-.66A57.49,57.49,0,0,0,506.65,456.93Z" transform="translate(-432.25 -428.67)" style="fill:#535e60"/><path d="M505.89,437a20.16,20.16,0,0,0-6.85,5s-.81-.41-.18-1a32.44,32.44,0,0,1,5-4C505.44,436.12,505.89,437,505.89,437Z" transform="translate(-432.25 -428.67)" style="fill:#4f5f5c"/><path d="M510.07,431.35a19.45,19.45,0,0,0-8.18,2.72l-.06,0,.06,0a18.9,18.9,0,0,1,4.82-1.24h0a14,14,0,0,1,3-1.45h0" transform="translate(-432.25 -428.67)" style="fill:#dadbd9"/><path d="M510.59,431.3l-.09,0a15,15,0,0,0-3.59,1.61v0a40.11,40.11,0,0,0-.17,4.36h0a48.72,48.72,0,0,1,8.3,3.51h0c.63-.16,4.15-1,7.55-1.64v0c-.06-1.68-.27-3.3-.38-4.12v0a16.15,16.15,0,0,0-5.71-3.23l-.22-.08-.08,0a19.63,19.63,0,0,0-4.21-.45q-.68,0-1.35,0Z" transform="translate(-432.25 -428.67)" style="fill:#d4dbda"/><path d="M515.46,450.5a71.07,71.07,0,0,0-.47-9.44v0a48.51,48.51,0,0,0-8.34-3.53h0C506,437.71,503,439,499,443v0a23,23,0,0,0,.31,9.75l0,0c.66.35,4.45,2.36,7.86,3.73h0a48,48,0,0,0,8.23-5.95Z" transform="translate(-432.25 -428.67)" style="fill:#c7ced3"/><path d="M506.68,438a29.16,29.16,0,0,0-4.55,3c-1.94,1.62-2.43,3-2.34,4a9.62,9.62,0,0,0,3.38,4.82c1.49.86,3.29,2.7,4.42,2.79a11,11,0,0,0,4.51-.59,21.08,21.08,0,0,0,3-1.58s0-2.75-.18-5.32-.36-3.78-.36-3.78A60.42,60.42,0,0,0,506.68,438Z" transform="translate(-432.25 -428.67)" style="fill:#dfe3e0"/><path d="M506.73,438.15a31.72,31.72,0,0,0-4.46,3c-1.17,1.13-1.67,2.52-1.26,3a6.91,6.91,0,0,1,1.44,2.88c.14,1,2.34,1.58,3.11,2.52a2.82,2.82,0,0,0,3.2,1c1.49-.36,3,.41,3.42-.5a1.55,1.55,0,0,1,2.16-.59c.41.41.68-.86.5-3.15s-.5-4.87-.5-4.87A60.77,60.77,0,0,0,506.73,438.15Z" transform="translate(-432.25 -428.67)" style="fill:#fff"/><path d="M509.43,437.7a57.81,57.81,0,0,1,5.68,2.75s5.14-1.35,7-1.58a3.37,3.37,0,0,0-1-1.35c-.59-.36-.23-1.53-1.22-1.94s-2.61.14-3.38-.41-3.42-1.22-4.33-.63S507.13,436.75,509.43,437.7Z" transform="translate(-432.25 -428.67)" style="fill:#e4e7e4"/><path d="M515.15,440.26s-2.57-1.4-3.78-2-1.26-1.44-.27-1.58a24,24,0,0,0,3.2-.77c.54-.18,1.35,1.13,2.88.72s2.16-.18,2.7.59,1.49,1.53-.18,1.94Z" transform="translate(-432.25 -428.67)" style="fill:#fff"/><path d="M527.71,462.48a19.61,19.61,0,0,0,3.65-14.5v0h0a26.13,26.13,0,0,0-3.27-1.11v0a26.9,26.9,0,0,1-4,7.33v0a52.79,52.79,0,0,1,.21,8.29v0a25.68,25.68,0,0,0,3.41-.05h0Z" transform="translate(-432.25 -428.67)" style="fill:#d5dcde"/><path d="M531.32,447.72A19.56,19.56,0,0,0,523.49,435l0,0h0c-.21,0-.55.09-1,.12v0c.12.86.32,2.48.37,4.13v0a45.9,45.9,0,0,1,5.15,7.32v0a26,26,0,0,1,3.34,1.12h0Z" transform="translate(-432.25 -428.67)" style="fill:#e7e8e4"/><path d="M523.86,454.22a40,40,0,0,1-4.5-1.65c-2.38-1-3.64-1.72-3.87-1.84l0,0a48.62,48.62,0,0,1-8.08,5.83h0c0,.49.33,4.49,1,8.22h0a25.81,25.81,0,0,0,8.55,2.57h0a26.72,26.72,0,0,0,7.14-4.74v0a52.6,52.6,0,0,0-.2-8.36Z" transform="translate(-432.25 -428.67)" style="fill:#dddfde"/><path d="M515.78,452.55c-1,.11-2.73,1.68-4.66,3.06a9.5,9.5,0,0,1-2.7,1.56s.12,2.94.42,5,.36,2.91.36,2.91a25.29,25.29,0,0,0,7,1.92,24.1,24.1,0,0,0,7.48-4.78,48.16,48.16,0,0,0-.06-6.91l-4.26-1.74C516.89,452.58,516.32,452.49,515.78,452.55Z" transform="translate(-432.25 -428.67)" style="fill:#a9b2bb"/><path d="M516,452.64a15.63,15.63,0,0,0-3.66,2.22c-1.62,1.17-2.88,2.22-3.27,2.37s-.39.57-.33,1.32.06,2,1.41,1.77,3.12.06,4.05-.42,1.32.63,3-.09,3.66.9,5,.21,1.45-.93,1.42-2.52-.06-2-.06-2-1.41-.63-3.93-1.62S516.29,452.61,516,452.64Z" transform="translate(-432.25 -428.67)" style="fill:#c7ced3"/><path d="M531.19,448.13s-1.38-.51-1.92-.75-.9,1.2-1.56,2.73a20,20,0,0,1-2.31,3.93c-.69.9-.87,1.86-.9,4.35s-.06,3.3-.06,3.3,2,.15,2.7.09,1.92-1.26,2.79-3.33S532.06,452,531.19,448.13Z" transform="translate(-432.25 -428.67)" style="fill:#a1aeb7"/><path d="M529.6,447.83c-.45-.24-.63-.09-1.62,2.25a14.78,14.78,0,0,1-2.31,4.05,4,4,0,0,0-1,2.82c-.09,1.5.24,2.25.69,1.74s1.09.3,1.51-1.11c.15-.49.87-.69,1-1.71s1-1.14,1.08-2.13c.06-1.59.93-1.65.84-2.79s.48-1.5.36-2.22S530,448,529.6,447.83Z" transform="translate(-432.25 -428.67)" style="fill:#c9d0d2"/><path d="M523.95,438.58c-.4-.79-.6-2.43-.9-2.85a2,2,0,0,0-.45-.51s.69-.06.84-.09a13.12,13.12,0,0,1,3.78,3.54,19.72,19.72,0,0,1,4,8.95l-1.32-.69a9.8,9.8,0,0,1-1.41-2.07c-.33-.57-.93-1.08-1-1.71s-.51-.42-.84-1.2-1.32-.9-1.44-1.59S524.34,439.36,523.95,438.58Z" transform="translate(-432.25 -428.67)" style="fill:#c6c9c7"/><path d="M524,436.42c-.49-.27-.51.21-.27,1.17a2.87,2.87,0,0,0,.9,1.71,2.12,2.12,0,0,1,.69,1,1.75,1.75,0,0,0,.78.84c.3.12.3.39.51.66s.21.54.69.78.27.9.42,1.08a5.23,5.23,0,0,1,1,1.29c.39.75.63,1.38,1,1.53s.27,0,.15-1a2.54,2.54,0,0,0-.87-2c-.6-.45-.15-1.17-.93-2s-.81-1.14-1.74-2.16S525.12,437,524,436.42Z" transform="translate(-432.25 -428.67)" style="fill:#d8dbdd"/><path d="M493.27,456.48l0,0a14.19,14.19,0,0,0,2.44,1.78h0c.17-.58.83-2.25,3.39-5.46v0a23.24,23.24,0,0,1-.33-9.83v0c-.43-.3-1.94-1.35-3.45-2.36h0l0,0a19.62,19.62,0,0,0-2.06,15.85Z" transform="translate(-432.25 -428.67)" style="fill:#d8dde0"/><path d="M500.45,466.61v0c.09-.48.2-.94.29-1.28l0,0a46.46,46.46,0,0,1-4.43-5.72,8.08,8.08,0,0,1-.55-1.06l0,0a13.84,13.84,0,0,1-2.33-1.66l0,0,0,.06a19.6,19.6,0,0,0,7,9.7Z" transform="translate(-432.25 -428.67)" style="fill:#ced3d2"/><path d="M516.66,469.82v0c.08-1,.06-1.89.05-2.21v0a25.9,25.9,0,0,1-8.43-2.56h0a25.7,25.7,0,0,1-7.35.46h0c-.09.34-.2.8-.29,1.27v0l0,0a19.61,19.61,0,0,0,16,3.09Z" transform="translate(-432.25 -428.67)" style="fill:#ced3d2"/><path d="M492.74,447.8a18,18,0,0,1,2.55-7s.36.66.72,1.23a8.94,8.94,0,0,0,2.22,1.53,21.72,21.72,0,0,0-.15,4.2c.09,3,.21,4.63.21,4.63a33.34,33.34,0,0,0-2.91,5.11,7,7,0,0,1-2.1-1.44S492.05,453.57,492.74,447.8Z" transform="translate(-432.25 -428.67)" style="fill:#919d9d"/><path d="M495.69,441.8a6.05,6.05,0,0,0,2.31,1.89,81,81,0,0,0,.15,8.5,28.92,28.92,0,0,0-1.83,2.88c-.42.9-1.11-1.47-1.05-2.64s-.81-2.28-.66-3.21-.3-1.89-.06-2.94-.27-1.35.24-2.28A14.08,14.08,0,0,0,495.69,441.8Z" transform="translate(-432.25 -428.67)" style="fill:#c5cbd0"/><path d="M516.62,468.56a9.09,9.09,0,0,1-.09,1.17,18.26,18.26,0,0,1-9.13,0,16.25,16.25,0,0,1-6.67-3.06,7.51,7.51,0,0,1,.27-1.05s4.87.36,6.7.3,2.91,1,3.87,1.2,1.35.66,2.64.66S516.62,468,516.62,468.56Z" transform="translate(-432.25 -428.67)" style="fill:#8b9796"/><path d="M501.09,465.91s-.45.39.06.6a32,32,0,0,1,3.39,1.26,7.4,7.4,0,0,0,3.54.93c1.5,0,3.81.21,4.81.27s-.15-.6,1.14-.6,1.8-.06.51-.21a11.75,11.75,0,0,1-3.6-1,7.33,7.33,0,0,0-3.12-.84c-1.17,0-2.13-.15-3.69-.21S501.3,465.88,501.09,465.91Z" transform="translate(-432.25 -428.67)" style="fill:#969d9f"/><path d="M500.55,465.38a22.21,22.21,0,0,1-3-3.38,26.93,26.93,0,0,1-2.25-3.49,7.1,7.1,0,0,1-1.76-1.35,19.19,19.19,0,0,0,2.73,5.16,25.31,25.31,0,0,0,4.1,4.14S500.37,466.26,500.55,465.38Z" transform="translate(-432.25 -428.67)" style="fill:#889997"/><path d="M495.17,458.62s-.5-.27-.74-.43.41,1,1.26,2.39a28.33,28.33,0,0,0,3.76,4.57c.83.68.9.38.38-.16s-1.67-1.94-2.79-3.4A20,20,0,0,1,495.17,458.62Z" transform="translate(-432.25 -428.67)" style="fill:#979c9f"/></svg>