<svg xmlns="http://www.w3.org/2000/svg" width="178.66" height="146.67" viewBox="0 0 178.66 146.67"><title>Real Betis logo - Brandlogos.net</title><path d="M535.16,496.65a33.23,33.23,0,0,0-46.32,0H422.67L512,585.34l89.33-88.69Z" transform="translate(-422.67 -438.66)" style="fill:#de9500"/><path d="M512,490.35a30.18,30.18,0,1,1-30.18,30.19A30.22,30.22,0,0,1,512,490.35" transform="translate(-422.67 -438.66)" style="fill:#fff"/><path d="M498.06,514.68h2.5V510.9h-2.5v-4.56h7.31v12.47h-7.31v-4.13m0,16.43h2.5v-3.78h-2.5v-4h7.31v12.13h-7.31Zm20.47,4.31h-8.86V523.28h1.72v1.29h2.49v-1.29h3.53c1,0,1.11,1.74,1.11,1.74v10.39Zm0-19.15v.57s-.22,1.95-1.49,2h-3.14v-1.63H511.4v1.63h-1.72V506.34h8.86v9.92Zm10.9,15.19c-.22.65-1.39,3.93-2.64,3.93a.51.51,0,0,0-.15,0H522.4V524.83h0a5.67,5.67,0,0,0-.4-1.55h4.4a4.75,4.75,0,0,1,3.24,4.73h-2.83v3.44Zm.2-16.86h0s-1.55,4.2-2.9,4.2h-4.9a4.9,4.9,0,0,0,.58-2V506.34h4.1a5,5,0,0,1,3.12,4.81h-2.83v3.44h2.83Zm6.63-3.44h-2.56s-.53-6.8-5.62-9h-5.47V502c0-5.48-4-6.61-6.95-6.61a6.64,6.64,0,0,0-4.29,1.23v4s.07-1.39,3.86-1.39c4.22,0,3.39,3,3.39,3h-8.95v-2.41c0-4.09-2.07-5.16-4.49-5.16h-1.7v4.39h1a.82.82,0,0,1,.86.87v2.32H491.61v4.21h3v4.56h-3v3.79h3v4.13h-3v4.47h3v4h-3v3.78h3v4.31h-3v3.79h13.55v1.07a.57.57,0,0,1-.65.64h-1.37v4.39h2.74a4,4,0,0,0,3.7-4V539.2h9c0,2-1,3-3.8,3s-3.52-1.33-3.52-1.33v4c.82.91,4.18,1.17,4.18,1.17,6.83,0,7-5.71,7-6.78h6.09s4.32-1.82,4.89-7.75h2.86V528h-2.67c0-.25-.14-5.76-3-7.34,0,0,2.8-1.58,2.82-6.07h2.9Z" transform="translate(-422.67 -438.66)" style="fill:#00954c"/><polygon points="20.12 61.09 20.12 73.58 32.7 86.08 32.7 61.09 20.12 61.09" style="fill:#00954c"/><polygon points="20.12 73.58 20.12 61.09 7.54 61.09 7.54 61.09 20.12 73.58" style="fill:#fff"/><path d="M478.71,520.54a33.13,33.13,0,0,1,1.83-10.87v-9.91H468v37.48l12.58,12.49V531.42A33.14,33.14,0,0,1,478.71,520.54Z" transform="translate(-422.67 -438.66)" style="fill:#00954c"/><polygon points="45.29 61.09 32.7 61.09 32.7 86.08 45.29 98.57 45.29 61.09" style="fill:#fff"/><path d="M493.12,547.94v14.28l12.58,12.49V553.23A33.11,33.11,0,0,1,493.12,547.94Z" transform="translate(-422.67 -438.66)" style="fill:#00954c"/><path d="M480.54,531.42v18.31l12.58,12.49V547.94A33.44,33.44,0,0,1,480.54,531.42Z" transform="translate(-422.67 -438.66)" style="fill:#fff"/><path d="M486,499.76h-5.47v9.91A33.29,33.29,0,0,1,486,499.76Z" transform="translate(-422.67 -438.66)" style="fill:#fff"/><path d="M518.29,553.22v21.49l12.58-12.49V547.94A33.12,33.12,0,0,1,518.29,553.22Z" transform="translate(-422.67 -438.66)" style="fill:#00954c"/><path d="M512,553.82a33.34,33.34,0,0,1-6.29-.6v21.49L512,581l6.29-6.25V553.22A33.36,33.36,0,0,1,512,553.82Z" transform="translate(-422.67 -438.66)" style="fill:#fff"/><path d="M543.46,499.76v9.91a33.25,33.25,0,0,1,0,21.75v18.31L556,537.23V499.76Z" transform="translate(-422.67 -438.66)" style="fill:#00954c"/><path d="M530.88,547.94v14.28l12.58-12.49V531.42A33.45,33.45,0,0,1,530.88,547.94Z" transform="translate(-422.67 -438.66)" style="fill:#fff"/><path d="M538,499.76a33.29,33.29,0,0,1,5.47,9.91v-9.91Z" transform="translate(-422.67 -438.66)" style="fill:#fff"/><polygon points="145.96 86.08 158.54 73.58 158.54 61.09 145.96 61.09 145.96 86.08" style="fill:#00954c"/><polygon points="145.96 61.09 133.38 61.09 133.38 98.57 145.96 86.08 145.96 61.09" style="fill:#fff"/><polygon points="171.13 61.09 158.54 61.09 158.54 73.58 171.13 61.09" style="fill:#fff"/><path d="M508,471.12a3.92,3.92,0,0,1,1.92-3.37v-8.82a39,39,0,0,0-18.52,5.28,11.14,11.14,0,0,0,3.69,5.62,3.87,3.87,0,0,1,1.58-.34,3.93,3.93,0,0,1,1.71,7.46l0,.05a3.1,3.1,0,0,0,5.72-.39,2.64,2.64,0,0,0,.09-.35,1.31,1.31,0,1,1,1.35-.16,3.1,3.1,0,0,0,5.67-.46,3,3,0,0,0,.13-.62,3.93,3.93,0,0,1-3.38-3.89" transform="translate(-422.67 -438.66)" style="fill:#d7013e"/><path d="M496.7,477.34a3.93,3.93,0,0,1-3.93-3.93c0-.07,0-.13,0-.2a16.08,16.08,0,0,1-4.85-6.47,17.42,17.42,0,0,0-6.21,10.2,3.88,3.88,0,0,1,1.1-.16,3.92,3.92,0,0,1,2.9,6.56A3.1,3.1,0,0,0,491,481.1a2.89,2.89,0,0,0,0-.36,1.31,1.31,0,1,1,1.23-.59,3.09,3.09,0,0,0,5.16-2.87,4,4,0,0,1-.64.06" transform="translate(-422.67 -438.66)" style="fill:#d7013e"/><path d="M516,471.12a3.92,3.92,0,0,0-1.92-3.37v-8.82a39,39,0,0,1,18.52,5.28,11.14,11.14,0,0,1-3.69,5.62,3.87,3.87,0,0,0-1.58-.34,3.93,3.93,0,0,0-1.71,7.46l0,.05a3.1,3.1,0,0,1-5.72-.39,2.64,2.64,0,0,1-.09-.35,1.31,1.31,0,1,0-1.35-.16,3.1,3.1,0,0,1-5.67-.46,3,3,0,0,1-.13-.62,3.93,3.93,0,0,0,3.38-3.89" transform="translate(-422.67 -438.66)" style="fill:#d7013e"/><path d="M527.3,477.34a3.93,3.93,0,0,0,3.93-3.93c0-.07,0-.13,0-.2a16.08,16.08,0,0,0,4.85-6.47,17.42,17.42,0,0,1,6.21,10.2,3.88,3.88,0,0,0-1.1-.16,3.92,3.92,0,0,0-2.9,6.56A3.1,3.1,0,0,1,533,481.1a2.89,2.89,0,0,1,0-.36,1.31,1.31,0,1,0-1.23-.59,3.09,3.09,0,0,1-5.16-2.87,4,4,0,0,0,.64.06" transform="translate(-422.67 -438.66)" style="fill:#d7013e"/><path d="M550.94,469.54a13.8,13.8,0,0,0-4.56-10.06,18.1,18.1,0,0,0-12.08-4.75c-3.62-5-10.73-8.67-19.15-9.42a3.2,3.2,0,0,0-2.27-3v-.6h1.57v-1.79h-1.57v-1.21h-1.76v1.21h-1.57v1.79h1.57v.6a3.2,3.2,0,0,0-2.27,3c-8.42.75-15.53,4.39-19.15,9.42a18.1,18.1,0,0,0-12.08,4.75,13.8,13.8,0,0,0-4.56,10.06c0,4.05,2.11,7.89,5.9,10.89,0,.09,0,.18,0,.27a3.93,3.93,0,0,0,5.17,3.73,4.24,4.24,0,0,0,3.86,2.29l-.47.33a1.61,1.61,0,0,0-.35,2.21,1.5,1.5,0,0,0,1.31.73,2.07,2.07,0,0,0,.52-.07l2,2.75.4-.29a34.83,34.83,0,0,1,41.18,0l.4.29,2-2.75a2.07,2.07,0,0,0,.52.07,1.5,1.5,0,0,0,1.31-.73,1.61,1.61,0,0,0-.35-2.21l-.47-.33a4.24,4.24,0,0,0,3.86-2.29,3.93,3.93,0,0,0,5.17-3.73c0-.09,0-.18,0-.27C548.82,477.44,550.94,473.6,550.94,469.54ZM494.36,481a3.09,3.09,0,0,1-2.13-.86,1.3,1.3,0,0,0,.21-.72,1.32,1.32,0,1,0-1.44,1.3,3,3,0,0,1,0,.36,3.1,3.1,0,0,1-5.25,2.24,3.92,3.92,0,0,0-2.9-6.56,3.85,3.85,0,0,0-1.1.16,4,4,0,0,0-.48.17c-2.69-2.19-4.18-4.85-4.18-7.56a9.79,9.79,0,0,1,3.28-7.11,13.57,13.57,0,0,1,7.21-3.44,11.9,11.9,0,0,0-.47,3.28,12.28,12.28,0,0,0,.85,4.46,16.07,16.07,0,0,0,4.85,6.47c0,.07,0,.13,0,.2a3.93,3.93,0,0,0,3.93,3.93,4,4,0,0,0,.64-.06,3.19,3.19,0,0,1,.07.63A3.11,3.11,0,0,1,494.36,481Zm17-5.39a3.09,3.09,0,0,1-5.67.46,1.32,1.32,0,1,0-1.35.16,2.8,2.8,0,0,1-.09.35,3.11,3.11,0,0,1-5.72.39l0-.05a3.93,3.93,0,0,0-1.71-7.46,3.88,3.88,0,0,0-1.59.34,11.14,11.14,0,0,1-3.69-5.62,8,8,0,0,1-.24-1.93c0-6.62,8.4-12.27,18.76-12.94v18.41a3.92,3.92,0,0,0,1.46,7.26A3,3,0,0,1,511.32,475.62ZM525.51,477a3.1,3.1,0,0,1-5.72-.39,2.8,2.8,0,0,1-.09-.35,1.31,1.31,0,1,0-1.35-.16,3.08,3.08,0,0,1-5.8-1.08,3.92,3.92,0,0,0,1.46-7.26V449.34c10.36.67,18.76,6.32,18.76,12.94a8,8,0,0,1-.24,1.93,11.14,11.14,0,0,1-3.69,5.62,3.88,3.88,0,0,0-1.59-.34,3.93,3.93,0,0,0-1.71,7.46Zm17.19.11a3.9,3.9,0,0,0-.48-.17,3.85,3.85,0,0,0-1.1-.16,3.92,3.92,0,0,0-2.9,6.56A3.1,3.1,0,0,1,533,481.1a3,3,0,0,1,0-.36,1.32,1.32,0,1,0-1.23-.59,3.09,3.09,0,0,1-5.23-2.24,3.19,3.19,0,0,1,.07-.63,4,4,0,0,0,.64.06,3.93,3.93,0,0,0,3.93-3.93c0-.07,0-.13,0-.2a16.06,16.06,0,0,0,4.85-6.47,12.28,12.28,0,0,0,.85-4.46,11.9,11.9,0,0,0-.47-3.28,13.57,13.57,0,0,1,7.21,3.44,9.79,9.79,0,0,1,3.28,7.11C546.88,472.26,545.39,474.92,542.7,477.11Z" transform="translate(-422.67 -438.66)" style="fill:#de9500"/></svg>