<?xml version="1.0" encoding="UTF-8" standalone="no"?>
<!-- Created with Inkscape (http://www.inkscape.org/) -->

<svg
   xmlns:dc="http://purl.org/dc/elements/1.1/"
   xmlns:cc="http://creativecommons.org/ns#"
   xmlns:rdf="http://www.w3.org/1999/02/22-rdf-syntax-ns#"
   xmlns:svg="http://www.w3.org/2000/svg"
   xmlns="http://www.w3.org/2000/svg"
   xmlns:sodipodi="http://sodipodi.sourceforge.net/DTD/sodipodi-0.dtd"
   xmlns:inkscape="http://www.inkscape.org/namespaces/inkscape"
   width="700"
   height="700"
   viewBox="0 0 185.20834 185.20834"
   version="1.1"
   id="svg4304"
   inkscape:version="0.92.4 (5da689c313, 2019-01-14)"
   sodipodi:docname="real-sociedad-logo.svg"
   inkscape:export-filename="C:\Users\suitedoalex\sites\real-sociedad-logo-0.png"
   inkscape:export-xdpi="561.73712"
   inkscape:export-ydpi="561.73712">
  <defs
     id="defs4298">
    <clipPath
       clipPathUnits="userSpaceOnUse"
       id="clipPath400">
      <path
         d="m 138.608,404.77 c -0.622,-0.807 -1.52,-1.567 -1.267,-2.651 v 0 c 0.23,-0.437 0.669,-0.967 1.175,-1.106 v 0 c 0.277,-0.092 0.654,-0.078 0.884,-0.193 v 0 c -1.116,-4.683 -2.19,-10.752 -0.86,-15.571 v 0 c 1.072,-3.53 -0.57,-6.498 -0.614,-9.693 v 0 c 0,0 1.898,-7.061 8.103,-8.906 v 0 l 3.96,-0.833 c 0,0 -6.67,11.462 5.626,22.194 v 0 l -13.826,14.938 c 0.46,0.553 0.691,1.336 0.438,2.074 v 0 c -0.185,0.415 -0.599,0.761 -0.991,0.945 v 0 c -0.16,0.047 -0.315,0.068 -0.465,0.068 v 0 c -0.885,0 -1.591,-0.735 -2.163,-1.266"
         id="path398"
         inkscape:connector-curvature="0" />
    </clipPath>
    <clipPath
       clipPathUnits="userSpaceOnUse"
       id="clipPath388">
      <path
         d="M 0,0 H 841.89 V 595.276 H 0 Z"
         id="path386"
         inkscape:connector-curvature="0" />
    </clipPath>
    <clipPath
       clipPathUnits="userSpaceOnUse"
       id="clipPath308">
      <path
         d="M 0,0 H 841.89 V 595.276 H 0 Z"
         id="path306"
         inkscape:connector-curvature="0" />
    </clipPath>
    <clipPath
       clipPathUnits="userSpaceOnUse"
       id="clipPath184">
      <path
         d="M 0,0 H 841.89 V 595.276 H 0 Z"
         id="path182"
         inkscape:connector-curvature="0" />
    </clipPath>
    <clipPath
       clipPathUnits="userSpaceOnUse"
       id="clipPath156">
      <path
         d="m 136.063,345.491 h 61.303 v 68.65 h -61.303 z"
         id="path154"
         inkscape:connector-curvature="0" />
    </clipPath>
    <clipPath
       clipPathUnits="userSpaceOnUse"
       id="clipPath140">
      <path
         d="M 0,0 H 841.89 V 595.276 H 0 Z"
         id="path138"
         inkscape:connector-curvature="0" />
    </clipPath>
    <clipPath
       clipPathUnits="userSpaceOnUse"
       id="clipPath124">
      <path
         d="M 0,0 H 841.89 V 595.276 H 0 Z"
         id="path122"
         inkscape:connector-curvature="0" />
    </clipPath>
    <clipPath
       clipPathUnits="userSpaceOnUse"
       id="clipPath100">
      <path
         d="M 0,0 H 841.89 V 595.276 H 0 Z"
         id="path98"
         inkscape:connector-curvature="0" />
    </clipPath>
    <clipPath
       clipPathUnits="userSpaceOnUse"
       id="clipPath84">
      <path
         d="M 0,0 H 841.89 V 595.276 H 0 Z"
         id="path82"
         inkscape:connector-curvature="0" />
    </clipPath>
    <clipPath
       clipPathUnits="userSpaceOnUse"
       id="clipPath58">
      <path
         d="M 0,0 H 841.89 V 595.276 H 0 Z"
         id="path56"
         inkscape:connector-curvature="0" />
    </clipPath>
    <clipPath
       clipPathUnits="userSpaceOnUse"
       id="clipPath34">
      <path
         d="M 0,0 H 841.89 V 595.276 H 0 Z"
         id="path32"
         inkscape:connector-curvature="0" />
    </clipPath>
  </defs>
  <sodipodi:namedview
     id="base"
     pagecolor="#ffffff"
     bordercolor="#666666"
     borderopacity="1.0"
     inkscape:pageopacity="0.0"
     inkscape:pageshadow="2"
     inkscape:zoom="0.7"
     inkscape:cx="247.45058"
     inkscape:cy="388.9927"
     inkscape:document-units="mm"
     inkscape:current-layer="layer1"
     showgrid="false"
     units="px"
     inkscape:window-width="1920"
     inkscape:window-height="1017"
     inkscape:window-x="-8"
     inkscape:window-y="-8"
     inkscape:window-maximized="1" />
  <metadata
     id="metadata4301">
    <rdf:RDF>
      <cc:Work
         rdf:about="">
        <dc:format>image/svg+xml</dc:format>
        <dc:type
           rdf:resource="http://purl.org/dc/dcmitype/StillImage" />
        <dc:title></dc:title>
      </cc:Work>
    </rdf:RDF>
  </metadata>
  <g
     inkscape:label="Layer 1"
     inkscape:groupmode="layer"
     id="layer1"
     transform="translate(0,-111.79161)">
    <g
       id="g150"
       transform="matrix(1.7548512,0,0,-1.7548512,-199.95497,870.91634)"
       inkscape:export-filename="C:\Users\suitedoalex\sites\real-sociedad-logo-4.png"
       inkscape:export-xdpi="94.44342"
       inkscape:export-ydpi="94.44342">
      <g
         id="g152"
         clip-path="url(#clipPath156)">
        <g
           id="g158"
           transform="translate(137.934,375.848)">
          <path
             d="m 0,0 c 0.133,3.084 1.645,5.978 0.605,9.402 -1.33,4.819 -0.254,10.887 0.861,15.571 -0.231,0.114 -0.607,0.101 -0.884,0.192 -0.507,0.139 -0.945,0.669 -1.176,1.107 -0.253,1.083 0.646,1.844 1.268,2.65 0.669,0.622 1.521,1.521 2.627,1.199 C 3.693,29.936 4.108,29.59 4.292,29.176 4.545,28.438 4.316,27.655 3.855,27.102 L 17.511,12.347 c 0.628,0.465 1.287,0.891 1.973,1.274 -0.466,0.368 -0.765,0.828 -0.719,1.381 0.023,0.416 0.253,0.784 0.53,1.037 -0.231,0.208 -0.783,0.116 -1.107,0.323 l 0.6,1.429 c -0.507,0.069 -1.06,0.115 -1.429,0.53 -0.161,0.576 -0.645,0.922 -1.175,1.06 -0.761,0.276 -1.913,-0.369 -2.166,0.784 -0.093,0.415 -0.139,0.968 0.161,1.313 -0.254,0.392 -0.507,0.83 -0.484,1.36 0.046,0.323 0.115,0.623 0.323,0.876 -0.254,0.461 -0.369,1.014 -0.208,1.544 0.069,0.253 0.254,0.483 0.484,0.645 -0.115,0.438 -0.115,1.014 0.115,1.383 0.208,0.345 0.599,0.53 0.945,0.668 0.046,0.623 0.3,1.337 0.945,1.521 0.208,0.093 0.438,0.115 0.669,0.115 0.161,0.439 0.299,0.968 0.806,1.222 0.507,0.276 1.244,0.184 1.729,-0.115 0.069,0.414 0.23,0.829 0.483,1.175 0.369,0.369 0.853,0.392 1.36,0.369 0.484,-0.069 0.83,-0.507 1.106,-0.876 0.415,0.415 0.991,0.622 1.545,0.461 0.253,0.346 0.276,0.899 0.783,1.106 0.461,0.299 1.152,0.299 1.613,-0.023 0.391,0.222 0.727,0.49 1.126,0.623 v 0.675 H 26.22 v 1.156 h 1.288 v 1.697 h 1.156 v -1.697 h 1.288 v -1.156 h -1.288 v -0.644 c 0.561,-0.194 0.994,-0.7 1.163,-1.263 0.461,0.347 1.152,0.793 1.821,0.54 0.392,-0.115 0.76,-0.484 0.898,-0.876 0.53,-0.046 1.245,0.046 1.613,-0.461 0.3,0.231 0.623,0.507 0.969,0.669 0.553,0.069 1.175,0.069 1.566,-0.392 l 0.323,-0.484 c 0.484,0.138 1.06,0.092 1.429,-0.23 0.392,-0.277 0.461,-0.738 0.6,-1.153 0.483,0.092 1.013,0.023 1.359,-0.323 0.346,-0.368 0.415,-0.829 0.461,-1.313 0.414,-0.069 0.829,-0.346 1.037,-0.76 0.161,-0.346 0.138,-0.807 0.092,-1.199 0.392,-0.277 0.737,-0.714 0.737,-1.222 0.139,-0.668 -0.737,-1.106 0,-1.659 0.162,-0.645 -0.092,-1.245 -0.529,-1.659 0.229,-0.669 0.023,-1.452 -0.485,-1.89 -0.322,-0.323 -0.898,-0.046 -1.29,-0.231 -0.553,-0.022 -1.245,-0.253 -1.452,-0.829 -0.207,-0.507 -0.76,-0.783 -1.291,-0.807 l 0.554,-1.474 -1.083,-0.277 c 0.414,-0.415 0.553,-1.106 0.391,-1.729 -0.092,-0.253 -0.254,-0.484 -0.507,-0.691 5.875,-3.086 9.877,-9.249 9.877,-16.345 0,-1.121 -0.1,-2.219 -0.291,-3.284 0.737,-0.482 2.845,-1.969 4.221,-3.518 1.877,-2.219 6.142,-6.306 6.142,-6.306 -1.942,-0.512 -4.631,-1.429 -8.531,-3.685 l 7.411,-7.653 -2.651,-1.752 -7.33,7.56 c -15.863,-11.874 -22.867,-6.999 -22.867,-6.999 -3.571,4.01 -7.398,6.032 -7.398,6.032 -2.528,0.54 -4.381,3.87 -4.381,3.87 -2.542,4.813 -7.682,7.966 -7.682,7.966 -1.123,0.594 -1.821,3.528 -1.821,3.528 -2.275,4.445 -1.762,6.802 -1.762,6.802 z M 15.306,10.47 2.243,24.339 C 3.717,17.84 8.047,11.784 12.356,6.529 l 0.554,0.892 c 0.498,0.758 1.056,1.499 1.647,2.2 z"
             style="fill:#ffffff;fill-opacity:1;fill-rule:nonzero;stroke:none"
             id="path160"
             inkscape:connector-curvature="0" />
        </g>
        <g
           id="g162"
           transform="translate(165.397,345.491)">
          <path
             d="m 0,0 c -3.31,-0.001 -4.969,1.088 -5.147,1.212 l -0.12,0.083 -0.096,0.109 c -3.01,3.38 -6.248,5.307 -6.925,5.692 -2.884,0.739 -4.798,4.047 -5.011,4.43 -2.278,4.314 -6.869,7.275 -7.228,7.502 -1.39,0.781 -2.124,3.216 -2.362,4.161 -2.331,4.62 -1.864,7.213 -1.803,7.496 l 0.017,0.078 c 0.076,1.042 0.279,2.044 0.477,3.017 0.384,1.895 0.747,3.685 0.16,5.62 -1.329,4.813 -0.41,10.663 0.565,15.023 -0.957,0.389 -1.516,1.33 -1.674,1.63 l -0.074,0.14 -0.037,0.154 c -0.348,1.489 0.565,2.573 1.168,3.29 0.112,0.132 0.222,0.263 0.324,0.395 l 0.136,0.15 0.131,0.122 c 0.624,0.587 1.568,1.475 2.872,1.475 0.271,0 0.544,-0.04 0.811,-0.117 l 0.179,-0.068 c 0.713,-0.335 1.308,-0.918 1.593,-1.56 l 0.04,-0.101 c 0.255,-0.741 0.217,-1.561 -0.082,-2.304 l 12.31,-13.3 c 0.004,0.003 0.008,0.005 0.012,0.008 -0.14,0.358 -0.196,0.737 -0.163,1.125 0.003,0.065 0.01,0.131 0.019,0.197 -0.011,0.007 -0.021,0.014 -0.032,0.021 l -0.873,0.56 0.457,1.089 c -0.234,0.127 -0.462,0.296 -0.669,0.529 l -0.19,0.213 -0.077,0.274 c -0.034,0.124 -0.254,0.187 -0.297,0.198 l -0.11,0.035 c 0.007,-0.002 -0.028,0.004 -0.136,0.003 -0.084,0 -0.169,-0.003 -0.254,-0.007 -0.117,-0.005 -0.233,-0.009 -0.346,-0.009 -1.603,0 -2.076,1.059 -2.215,1.691 -0.138,0.62 -0.117,1.115 -0.018,1.506 -0.191,0.391 -0.358,0.894 -0.332,1.487 l 0.011,0.12 c 0.035,0.239 0.084,0.5 0.181,0.764 -0.194,0.615 -0.205,1.25 -0.025,1.841 0.067,0.249 0.19,0.494 0.359,0.72 -0.022,0.47 0.041,1.068 0.374,1.601 0.236,0.395 0.574,0.665 0.886,0.851 0.249,0.921 0.828,1.586 1.629,1.847 0.069,0.027 0.136,0.05 0.202,0.07 0.205,0.43 0.536,0.905 1.143,1.209 0.399,0.219 0.953,0.328 1.513,0.286 0.077,0.139 0.162,0.272 0.255,0.399 l 0.124,0.144 c 0.736,0.736 1.675,0.736 1.984,0.736 0.1,0 0.202,-0.003 0.304,-0.007 l 0.117,-0.011 c 0.469,-0.067 0.849,-0.274 1.151,-0.518 0.187,0.069 0.379,0.117 0.574,0.144 0.175,0.324 0.458,0.699 0.958,0.937 0.241,0.141 0.505,0.243 0.784,0.302 v 2.269 h 1.288 v 1.698 h 3.623 v -1.698 h 1.288 v -2.449 c 0.293,0.005 0.582,-0.04 0.856,-0.138 0.468,-0.148 0.898,-0.453 1.22,-0.846 0.252,-0.02 0.545,-0.061 0.839,-0.163 0.156,0.105 0.325,0.205 0.506,0.289 l 0.175,0.082 0.193,0.024 c 0.23,0.029 0.434,0.043 0.626,0.043 0.852,0 1.529,-0.281 2.013,-0.836 0.608,-0.015 1.169,-0.214 1.596,-0.566 0.355,-0.266 0.57,-0.587 0.713,-0.893 0.528,-0.09 0.998,-0.324 1.354,-0.681 0.398,-0.422 0.594,-0.891 0.697,-1.301 0.439,-0.258 0.805,-0.639 1.033,-1.092 0.193,-0.416 0.253,-0.842 0.255,-1.234 0.426,-0.471 0.672,-1.034 0.702,-1.621 0.058,-0.428 -0.036,-0.793 -0.141,-1.065 l 0.106,-0.412 c 0.2,-0.795 0.047,-1.616 -0.409,-2.3 0.066,-0.917 -0.287,-1.854 -0.966,-2.458 -0.523,-0.493 -1.161,-0.493 -1.374,-0.493 -0.071,0 -0.142,0.002 -0.214,0.004 l -0.114,0.003 -0.124,-0.059 -0.249,-0.01 c -0.173,-0.007 -0.312,-0.053 -0.373,-0.086 -0.185,-0.418 -0.475,-0.767 -0.835,-1.028 l 0.607,-1.619 -1.053,-0.269 c 0.042,-0.37 0.021,-0.754 -0.068,-1.129 5.826,-3.569 9.394,-9.887 9.394,-16.789 0,-0.906 -0.062,-1.813 -0.184,-2.705 0.924,-0.654 2.587,-1.909 3.802,-3.277 1.834,-2.166 6.032,-6.195 6.074,-6.235 L 31.97,14.121 29.841,13.56 C 28.404,13.181 26.196,12.489 22.998,10.774 L 30.327,3.206 25.582,0.07 18.29,7.592 C 9.663,1.338 3.603,0 0,0 M -3.648,3.187 C -3.325,3.016 -2.127,2.467 0,2.467 c 3.349,0 9.136,1.344 17.686,7.744 l 0.869,0.651 7.374,-7.605 0.556,0.368 -7.476,7.72 1.368,0.792 c 2.865,1.657 5.098,2.606 6.792,3.19 -1.429,1.407 -3.529,3.52 -4.727,4.936 -1.164,1.31 -3.035,2.681 -3.953,3.282 l -0.684,0.446 0.144,0.804 c 0.18,1.004 0.271,2.035 0.271,3.066 0,6.422 -3.531,12.267 -9.216,15.253 l -1.65,0.867 1.442,1.18 c 0.061,0.05 0.092,0.089 0.109,0.117 0.037,0.219 -0.022,0.413 -0.085,0.477 l -1.528,1.532 1.846,0.471 -0.668,1.777 1.698,0.075 c 0.099,0.005 0.179,0.04 0.211,0.063 0.406,1.021 1.429,1.469 2.331,1.559 0.342,0.1 0.605,0.09 0.835,0.083 0.054,0.12 0.076,0.28 0.028,0.418 l -0.258,0.751 0.576,0.546 c 0.066,0.062 0.136,0.146 0.171,0.245 -0.326,0.452 -0.479,1.097 -0.064,1.984 0.012,0.026 0.025,0.052 0.038,0.079 v 0.115 c -0.007,0.011 -0.075,0.114 -0.215,0.213 l -0.601,0.424 0.087,0.729 c 0.047,0.4 0.016,0.527 0.009,0.548 -0.005,0 -0.073,0.042 -0.116,0.05 l -0.934,0.156 -0.091,0.943 c -0.024,0.256 -0.053,0.45 -0.104,0.547 -0.045,0.01 -0.16,0.013 -0.257,-0.005 l -1.059,-0.202 -0.342,1.022 c -0.03,0.088 -0.057,0.178 -0.084,0.268 -0.028,0.095 -0.069,0.232 -0.098,0.297 l -0.06,0.051 c 0.016,-0.014 -0.027,-0.002 -0.094,-0.002 -0.061,0 -0.124,-0.009 -0.184,-0.026 L 9.028,60.219 8.292,61.321 c -0.031,0 -0.14,0.01 -0.256,0.004 C 7.907,61.241 7.76,61.126 7.617,61.013 L 6.443,60.109 5.764,61.044 c -0.103,0.017 -0.278,0.023 -0.402,0.027 -0.134,0.005 -0.264,0.01 -0.386,0.021 L 4.183,61.161 3.919,61.912 C 3.906,61.944 3.85,62.004 3.816,62.02 L 3.748,62.043 C 3.743,62.037 3.57,62.02 3.105,61.67 L 1.689,60.607 1.182,62.304 C 1.12,62.509 0.959,62.698 0.798,62.754 L 0.678,62.795 0.445,62.718 C 0.316,62.675 0.137,62.561 -0.053,62.441 -0.185,62.357 -0.32,62.273 -0.46,62.193 l -0.677,-0.384 -0.638,0.445 c -0.018,0.011 -0.215,0.012 -0.236,0 L -2.078,62.213 C -2.096,62.175 -2.11,62.136 -2.126,62.098 -2.204,61.913 -2.302,61.684 -2.472,61.453 l -0.511,-0.697 -0.829,0.242 c -0.101,0.005 -0.212,-0.035 -0.326,-0.149 l -1.006,-1.005 -0.853,1.137 c -0.06,0.079 -0.225,0.3 -0.33,0.389 -0.118,0.001 -0.201,-0.006 -0.244,-0.013 -0.082,-0.15 -0.142,-0.325 -0.172,-0.507 l -0.303,-1.812 -1.563,0.966 C -8.686,60.052 -8.83,60.1 -8.978,60.1 -9.048,60.1 -9.09,60.089 -9.1,60.084 -9.156,60.031 -9.232,59.818 -9.281,59.676 l -0.353,-0.963 h -0.861 c -0.13,0 -0.174,-0.012 -0.178,-0.013 l -0.097,-0.04 c -0.037,-0.065 -0.091,-0.216 -0.108,-0.441 l -0.057,-0.768 -0.715,-0.286 c -0.271,-0.108 -0.345,-0.165 -0.365,-0.184 0.004,-0.016 -0.013,-0.208 0.04,-0.407 l 0.219,-0.832 -0.705,-0.493 c -0.008,-0.007 -0.013,-0.008 -0.013,-0.007 -0.052,-0.248 0.058,-0.482 0.11,-0.577 l 0.402,-0.731 -0.528,-0.646 c -0.002,-0.004 -0.02,-0.046 -0.044,-0.189 0.013,-0.145 0.12,-0.337 0.286,-0.594 l 0.504,-0.779 -0.537,-0.618 c 0,-0.018 0,-0.042 0.002,-0.072 0.03,10e-4 0.06,0.002 0.09,0.004 0.118,0.004 0.237,0.009 0.354,0.009 0.228,0 0.565,-0.014 0.917,-0.131 0.827,-0.229 1.482,-0.756 1.829,-1.455 0.125,-0.033 0.333,-0.06 0.471,-0.079 l 1.703,-0.232 -0.691,-1.646 c 0.09,-0.053 0.178,-0.116 0.263,-0.193 l 1.013,-0.91 -1.006,-0.918 c -0.096,-0.088 -0.129,-0.173 -0.13,-0.194 -0.006,-0.085 0.071,-0.203 0.252,-0.345 L -5.765,43.801 -7.377,42.9 c -0.635,-0.354 -1.255,-0.755 -1.842,-1.189 l -0.888,-0.656 -15.143,16.361 0.694,0.833 c 0.167,0.199 0.31,0.513 0.237,0.818 -0.046,0.067 -0.147,0.165 -0.274,0.243 -0.334,0.032 -0.841,-0.452 -1.215,-0.803 l -0.068,-0.064 c -0.104,-0.132 -0.215,-0.263 -0.326,-0.395 -0.083,-0.099 -0.158,-0.189 -0.225,-0.272 l 1.519,-1.612 0.338,-0.169 -0.037,-0.151 14.12,-14.99 -1.493,-1.692 c -0.558,-0.664 -1.083,-1.365 -1.542,-2.062 l -1.445,-2.33 -1.093,1.333 c -3.628,4.425 -7.48,9.615 -9.502,15.353 -0.672,-3.661 -1.064,-7.899 -0.107,-11.369 0.761,-2.502 0.297,-4.784 -0.111,-6.797 -0.21,-1.035 -0.408,-2.011 -0.45,-2.987 l -0.42,-0.062 0.369,-0.08 c 10e-4,0 -0.337,-2.085 1.655,-5.978 l 0.068,-0.132 0.034,-0.144 c 0.284,-1.186 0.87,-2.511 1.204,-2.727 l 0.063,-0.036 c 0.221,-0.135 5.458,-3.388 8.127,-8.442 0.43,-0.765 1.937,-2.894 3.548,-3.239 l 0.168,-0.036 0.151,-0.079 C -11.1,9.262 -7.287,7.222 -3.648,3.187 m -18.481,46.428 c 1.824,-3.891 4.444,-7.534 6.908,-10.626 0.425,0.608 0.882,1.202 1.372,1.784 l 0.024,0.026 z"
             style="fill:#ffffff;fill-opacity:1;fill-rule:nonzero;stroke:none"
             id="path164"
             inkscape:connector-curvature="0" />
        </g>
        <g
           id="g166"
           transform="translate(137.934,375.848)">
          <path
             d="m 0,0 c 0.133,3.084 1.645,5.978 0.605,9.402 -1.33,4.819 -0.254,10.887 0.861,15.571 -0.231,0.114 -0.607,0.101 -0.884,0.192 -0.507,0.139 -0.945,0.669 -1.176,1.107 -0.253,1.083 0.646,1.844 1.268,2.65 0.669,0.622 1.521,1.521 2.627,1.199 C 3.693,29.936 4.108,29.59 4.292,29.176 4.545,28.438 4.316,27.655 3.855,27.102 L 17.511,12.347 c 0.628,0.465 1.287,0.891 1.973,1.274 -0.466,0.368 -0.765,0.828 -0.719,1.381 0.023,0.416 0.253,0.784 0.53,1.037 -0.231,0.208 -0.783,0.116 -1.107,0.323 l 0.6,1.429 c -0.507,0.069 -1.06,0.115 -1.429,0.53 -0.161,0.576 -0.645,0.922 -1.175,1.06 -0.761,0.276 -1.913,-0.369 -2.166,0.784 -0.093,0.415 -0.139,0.968 0.161,1.313 -0.254,0.392 -0.507,0.83 -0.484,1.36 0.046,0.323 0.115,0.623 0.323,0.876 -0.254,0.461 -0.369,1.014 -0.208,1.544 0.069,0.253 0.254,0.483 0.484,0.645 -0.115,0.438 -0.115,1.014 0.115,1.383 0.208,0.345 0.599,0.53 0.945,0.668 0.046,0.623 0.3,1.337 0.945,1.521 0.208,0.093 0.438,0.115 0.669,0.115 0.161,0.439 0.299,0.968 0.806,1.222 0.507,0.276 1.244,0.184 1.729,-0.115 0.069,0.414 0.23,0.829 0.483,1.175 0.369,0.369 0.853,0.392 1.36,0.369 0.484,-0.069 0.83,-0.507 1.106,-0.876 0.415,0.415 0.991,0.622 1.545,0.461 0.253,0.346 0.276,0.899 0.783,1.106 0.461,0.299 1.152,0.299 1.613,-0.023 0.391,0.222 0.727,0.49 1.126,0.623 v 0.675 H 26.22 v 1.156 h 1.288 v 1.697 h 1.156 v -1.697 h 1.288 v -1.156 h -1.288 v -0.644 c 0.561,-0.194 0.994,-0.7 1.163,-1.263 0.461,0.347 1.152,0.793 1.821,0.54 0.392,-0.115 0.76,-0.484 0.898,-0.876 0.53,-0.046 1.245,0.046 1.613,-0.461 0.3,0.231 0.623,0.507 0.969,0.669 0.553,0.069 1.175,0.069 1.566,-0.392 l 0.323,-0.484 c 0.484,0.138 1.06,0.092 1.429,-0.23 0.392,-0.277 0.461,-0.738 0.6,-1.153 0.483,0.092 1.013,0.023 1.359,-0.323 0.346,-0.368 0.415,-0.829 0.461,-1.313 0.414,-0.069 0.829,-0.346 1.037,-0.76 0.161,-0.346 0.138,-0.807 0.092,-1.199 0.392,-0.277 0.737,-0.714 0.737,-1.222 0.139,-0.668 -0.737,-1.106 0,-1.659 0.162,-0.645 -0.092,-1.245 -0.529,-1.659 0.229,-0.669 0.023,-1.452 -0.485,-1.89 -0.322,-0.323 -0.898,-0.046 -1.29,-0.231 -0.553,-0.022 -1.245,-0.253 -1.452,-0.829 -0.207,-0.507 -0.76,-0.783 -1.291,-0.807 l 0.554,-1.474 -1.083,-0.277 c 0.414,-0.415 0.553,-1.106 0.391,-1.729 -0.092,-0.253 -0.254,-0.484 -0.507,-0.691 5.875,-3.086 9.877,-9.249 9.877,-16.345 0,-1.121 -0.1,-2.219 -0.291,-3.284 0.737,-0.482 2.845,-1.969 4.221,-3.518 1.877,-2.219 6.142,-6.306 6.142,-6.306 -1.942,-0.512 -4.631,-1.429 -8.531,-3.685 l 7.411,-7.653 -2.651,-1.752 -7.33,7.56 c -15.863,-11.874 -22.867,-6.999 -22.867,-6.999 -3.571,4.01 -7.398,6.032 -7.398,6.032 -2.528,0.54 -4.381,3.87 -4.381,3.87 -2.542,4.813 -7.682,7.966 -7.682,7.966 -1.123,0.594 -1.821,3.528 -1.821,3.528 -2.275,4.445 -1.762,6.802 -1.762,6.802 z M 15.306,10.47 2.243,24.339 C 3.717,17.84 8.047,11.784 12.356,6.529 l 0.554,0.892 c 0.498,0.758 1.056,1.499 1.647,2.2 z"
             style="fill:#ffffff;fill-opacity:1;fill-rule:nonzero;stroke:none"
             id="path168"
             inkscape:connector-curvature="0" />
        </g>
        <g
           id="g170"
           transform="translate(165.396,345.906)">
          <path
             d="m 0,0 c -3.238,0 -4.842,1.091 -4.909,1.137 l -0.143,0.128 c -3.137,3.523 -6.496,5.478 -7.08,5.804 -2.793,0.683 -4.721,4.097 -4.803,4.244 -2.411,4.565 -7.345,7.637 -7.395,7.667 -1.269,0.669 -1.985,3.217 -2.165,3.939 -2.331,4.597 -1.813,7.155 -1.79,7.262 l 0.024,0.107 c 0.071,1.027 0.274,2.026 0.471,2.995 0.395,1.947 0.768,3.787 0.15,5.822 -1.339,4.854 -0.337,10.831 0.657,15.181 -0.051,0.012 -0.103,0.027 -0.155,0.044 -0.917,0.249 -1.489,1.212 -1.641,1.501 l -0.073,0.196 c -0.301,1.286 0.498,2.235 1.082,2.927 0.114,0.137 0.229,0.272 0.334,0.409 l 0.091,0.099 0.132,0.124 c 0.61,0.575 1.447,1.362 2.587,1.362 0.232,0 0.466,-0.034 0.694,-0.1 l 0.12,-0.045 c 0.624,-0.294 1.144,-0.8 1.39,-1.354 l 0.027,-0.067 c 0.249,-0.725 0.175,-1.538 -0.18,-2.249 L -9.839,43.371 c 0.199,0.136 0.4,0.268 0.604,0.396 -0.262,0.462 -0.306,0.904 -0.277,1.245 0.008,0.153 0.036,0.307 0.081,0.46 -0.095,0.037 -0.191,0.083 -0.284,0.142 l -0.579,0.372 0.48,1.143 c -0.316,0.111 -0.631,0.288 -0.9,0.589 l -0.126,0.142 -0.051,0.182 c -0.087,0.313 -0.409,0.44 -0.593,0.488 l -0.074,0.023 c -0.035,0.013 -0.112,0.028 -0.276,0.028 -0.089,0 -0.18,-0.004 -0.27,-0.007 -0.112,-0.005 -0.222,-0.009 -0.33,-0.009 -1.247,0 -1.672,0.742 -1.809,1.365 -0.141,0.632 -0.097,1.108 0.022,1.46 -0.196,0.364 -0.388,0.852 -0.363,1.425 l 0.007,0.08 c 0.037,0.254 0.092,0.533 0.213,0.809 -0.213,0.578 -0.239,1.18 -0.07,1.734 0.067,0.248 0.2,0.491 0.387,0.707 -0.046,0.496 0.018,1.063 0.301,1.515 0.223,0.373 0.552,0.617 0.894,0.796 0.189,0.874 0.695,1.503 1.41,1.731 0.122,0.049 0.243,0.084 0.359,0.108 0.173,0.419 0.452,0.901 1.03,1.19 0.409,0.224 1.001,0.309 1.566,0.208 0.097,0.214 0.215,0.417 0.352,0.603 l 0.081,0.096 c 0.551,0.551 1.229,0.615 1.691,0.615 0.094,0 0.189,-0.003 0.284,-0.008 l 0.078,-0.007 c 0.478,-0.068 0.848,-0.316 1.133,-0.59 0.292,0.141 0.603,0.222 0.921,0.236 0.142,0.313 0.378,0.727 0.883,0.961 0.295,0.176 0.644,0.283 1.004,0.308 v 2.215 h 1.289 v 1.698 h 2.792 v -1.698 h 1.288 v -2.498 c 0.366,0.078 0.775,0.065 1.139,-0.067 0.441,-0.138 0.854,-0.456 1.135,-0.856 0.333,-0.014 0.737,-0.05 1.112,-0.226 0.191,0.139 0.399,0.274 0.625,0.38 l 0.117,0.054 0.127,0.016 c 0.188,0.023 0.382,0.039 0.575,0.039 0.737,0 1.315,-0.24 1.717,-0.713 l 0.09,-0.125 c 0.578,0.029 1.145,-0.142 1.545,-0.476 0.37,-0.273 0.559,-0.624 0.681,-0.948 0.533,-0.042 1.007,-0.248 1.35,-0.592 0.388,-0.413 0.549,-0.882 0.627,-1.282 0.438,-0.215 0.807,-0.569 1.024,-1.004 0.186,-0.398 0.224,-0.825 0.209,-1.211 0.433,-0.427 0.683,-0.952 0.706,-1.496 0.073,-0.496 -0.115,-0.898 -0.231,-1.144 0,-0.002 -10e-4,-0.004 -0.003,-0.006 l 0.103,-0.077 0.108,-0.313 c 0.181,-0.723 0.019,-1.474 -0.435,-2.085 0.109,-0.838 -0.196,-1.714 -0.819,-2.265 -0.361,-0.344 -0.795,-0.384 -1.093,-0.384 -0.066,0 -0.133,0.002 -0.2,0.004 l -0.145,0.004 c -0.067,0 -0.09,-0.005 -0.092,-0.005 L 13.131,48.775 13,48.781 c -0.342,-0.014 -0.664,-0.144 -0.716,-0.289 -0.189,-0.465 -0.541,-0.835 -0.983,-1.069 l 0.564,-1.502 -0.978,-0.25 c 0.111,-0.443 0.112,-0.927 -0.009,-1.394 l -0.023,-0.074 c -0.019,-0.051 -0.039,-0.102 -0.062,-0.152 5.873,-3.46 9.481,-9.737 9.481,-16.605 0,-0.972 -0.073,-1.945 -0.217,-2.9 0.845,-0.586 2.653,-1.91 3.94,-3.358 1.842,-2.176 6.055,-6.219 6.097,-6.26 l 1.054,-1.01 -1.412,-0.372 C 28.207,13.143 25.819,12.39 22.321,10.462 L 29.681,2.86 25.642,0.192 18.338,7.724 C 9.646,1.355 3.582,0 0.001,0 Z m -3.909,2.443 c 0.289,-0.164 1.57,-0.806 3.91,-0.806 3.412,0 9.294,1.358 17.935,7.826 l 0.576,0.432 7.36,-7.59 1.262,0.834 -7.455,7.698 0.907,0.525 c 3.217,1.861 5.624,2.817 7.36,3.369 -1.389,1.358 -3.853,3.809 -5.186,5.385 -1.199,1.35 -3.107,2.749 -4.043,3.361 l -0.453,0.296 0.095,0.533 c 0.184,1.029 0.278,2.085 0.278,3.14 0,6.577 -3.617,12.563 -9.439,15.621 l -1.095,0.575 0.958,0.783 c 0.118,0.096 0.196,0.193 0.242,0.303 0.078,0.347 0.003,0.714 -0.188,0.905 l -1.014,1.016 1.589,0.406 -0.628,1.675 1.126,0.05 c 0.259,0.012 0.504,0.14 0.568,0.298 0.315,0.875 1.234,1.26 2.037,1.329 0.319,0.102 0.564,0.084 0.781,0.076 l 0.144,-0.003 c 0.012,0 0.025,0 0.037,0 0.235,0.23 0.327,0.64 0.212,0.973 l -0.171,0.498 0.382,0.362 c 0.129,0.122 0.319,0.354 0.324,0.662 -0.606,0.67 -0.265,1.398 -0.127,1.693 0.035,0.074 0.088,0.187 0.093,0.227 l -0.017,0.082 0.002,0.061 c 0,0.168 -0.154,0.385 -0.392,0.552 l -0.398,0.281 0.057,0.484 c 0.056,0.47 0.02,0.671 -0.02,0.757 -0.07,0.137 -0.25,0.269 -0.431,0.299 l -0.619,0.103 -0.06,0.626 c -0.041,0.423 -0.089,0.667 -0.243,0.831 -0.087,0.086 -0.276,0.102 -0.379,0.102 -0.077,0 -0.155,-0.008 -0.231,-0.022 l -0.702,-0.134 -0.227,0.677 c -0.028,0.084 -0.054,0.17 -0.079,0.255 -0.079,0.265 -0.133,0.43 -0.216,0.489 l -0.067,0.053 c -0.118,0.103 -0.415,0.13 -0.666,0.059 L 9.206,60.286 8.585,61.216 C 8.538,61.261 8.43,61.328 8.139,61.328 8.061,61.328 7.984,61.323 7.907,61.316 7.734,61.216 7.545,61.068 7.361,60.924 L 6.53,60.283 6.036,60.963 C 5.972,61.05 5.6,61.063 5.378,61.071 5.252,61.075 5.129,61.08 5.013,61.09 l -0.526,0.046 -0.175,0.498 c -0.057,0.164 -0.236,0.327 -0.357,0.362 l -0.059,0.02 C 3.587,62.133 3.025,61.714 2.857,61.587 l -0.94,-0.705 -0.336,1.125 c -0.1,0.334 -0.359,0.625 -0.646,0.724 L 0.682,62.818 0.315,62.696 c -0.178,-0.059 -0.368,-0.18 -0.589,-0.319 -0.127,-0.081 -0.255,-0.162 -0.39,-0.238 l -0.449,-0.255 -0.423,0.295 c -0.175,0.122 -0.521,0.124 -0.699,0.008 L -2.372,62.116 C -2.405,62.085 -2.467,61.94 -2.508,61.845 -2.577,61.68 -2.664,61.476 -2.805,61.283 l -0.34,-0.462 -0.549,0.16 C -3.93,61.049 -4.208,60.95 -4.431,60.727 l -0.667,-0.667 -0.566,0.755 c -0.115,0.153 -0.375,0.501 -0.545,0.552 -0.052,0.002 -0.103,0.003 -0.154,0.003 -0.302,0 -0.423,-0.047 -0.494,-0.1 -0.144,-0.219 -0.248,-0.488 -0.295,-0.767 l -0.2,-1.202 -1.037,0.641 c -0.258,0.159 -0.707,0.202 -0.905,0.093 -0.175,-0.088 -0.258,-0.298 -0.378,-0.635 l -0.251,-0.687 h -0.571 c -0.158,0 -0.268,-0.014 -0.336,-0.045 l -0.108,-0.039 c -0.207,-0.059 -0.328,-0.453 -0.354,-0.794 l -0.037,-0.51 -0.475,-0.189 c -0.125,-0.051 -0.459,-0.184 -0.546,-0.33 -0.071,-0.113 -0.112,-0.426 -0.025,-0.753 l 0.144,-0.552 -0.467,-0.327 c -0.102,-0.072 -0.153,-0.152 -0.163,-0.189 -0.119,-0.39 0.034,-0.752 0.134,-0.936 l 0.267,-0.485 -0.35,-0.428 c -0.064,-0.078 -0.104,-0.199 -0.14,-0.428 10e-4,-0.249 0.132,-0.5 0.355,-0.844 l 0.334,-0.517 -0.404,-0.464 c -0.021,-0.032 -0.066,-0.214 0.02,-0.599 0.007,-0.031 0.014,-0.055 0.02,-0.071 0.061,-0.011 0.262,-0.012 0.454,-0.004 0.112,0.005 0.226,0.009 0.337,0.009 0.201,0 0.497,-0.012 0.796,-0.113 0.78,-0.212 1.364,-0.705 1.638,-1.374 0.149,-0.09 0.388,-0.128 0.729,-0.174 l 1.164,-0.158 -0.641,-1.529 c 0.18,-0.051 0.365,-0.134 0.529,-0.281 l 0.671,-0.604 -0.666,-0.609 C -7.772,45.232 -7.871,45.054 -7.88,44.899 -7.888,44.795 -7.908,44.55 -7.47,44.204 l 0.961,-0.759 -1.069,-0.598 C -8.229,42.484 -8.863,42.074 -9.464,41.63 l -0.59,-0.436 -14.643,15.821 0.462,0.552 c 0.244,0.293 0.448,0.771 0.304,1.246 -0.089,0.171 -0.292,0.358 -0.519,0.478 -0.56,0.127 -1.13,-0.416 -1.641,-0.897 l -0.09,-0.084 c -0.108,-0.137 -0.222,-0.273 -0.337,-0.41 -0.493,-0.585 -0.804,-0.98 -0.756,-1.406 0.195,-0.325 0.454,-0.555 0.61,-0.598 0.077,-0.024 0.169,-0.04 0.251,-0.052 l -0.268,1.182 1.522,-1.616 0.109,-0.055 -0.011,-0.048 14.013,-14.877 -1.242,-1.409 c -0.575,-0.683 -1.11,-1.397 -1.578,-2.108 l -1.145,-1.846 -0.725,0.885 c -3.923,4.784 -8.109,10.466 -9.918,16.747 -0.848,-4.017 -1.533,-9.076 -0.412,-13.138 0.733,-2.411 0.3,-4.543 -0.118,-6.604 -0.214,-1.051 -0.414,-2.043 -0.458,-3.051 l -0.222,-0.033 0.181,-0.039 c -0.003,-0.012 -0.387,-2.196 1.691,-6.256 l 0.067,-0.183 c 0.297,-1.244 0.934,-2.744 1.408,-2.994 0.264,-0.16 5.406,-3.354 8.023,-8.308 0.459,-0.82 2.062,-3.074 3.829,-3.451 l 0.111,-0.024 0.1,-0.053 C -11.295,8.48 -7.514,6.458 -3.909,2.443 M -23.43,51.188 c 1.829,-4.868 5.064,-9.377 8.237,-13.312 0.5,0.754 1.056,1.493 1.663,2.214 l 0.268,0.303 z"
             style="fill:#ffffff;fill-opacity:1;fill-rule:nonzero;stroke:none"
             id="path172"
             inkscape:connector-curvature="0" />
        </g>
        <g
           id="g174"
           transform="translate(193.803,348.906)">
          <path
             d="m 0,0 -2.65,-1.752 -7.33,7.561 c -15.863,-11.875 -22.867,-7 -22.867,-7 -3.572,4.01 -7.398,6.032 -7.398,6.032 -2.528,0.541 -4.382,3.87 -4.382,3.87 -2.541,4.813 -7.682,7.967 -7.682,7.967 -1.123,0.593 -1.82,3.527 -1.82,3.527 -2.275,4.445 -1.763,6.803 -1.763,6.803 2.986,-8.608 9.497,-9.798 11.585,-9.955 l 0.032,-0.073 c -1.011,2.282 -1.573,4.808 -1.573,7.466 0,10.189 8.26,18.448 18.448,18.448 10.189,0 18.449,-8.259 18.449,-18.448 0,-1.121 -0.1,-2.218 -0.292,-3.284 0.738,-0.482 2.846,-1.969 4.222,-3.517 1.877,-2.22 6.142,-6.307 6.142,-6.307 C -0.822,10.827 -3.511,9.91 -7.411,7.653 Z"
             style="fill:#140e0c;fill-opacity:1;fill-rule:nonzero;stroke:none"
             id="path176"
             inkscape:connector-curvature="0" />
        </g>
      </g>
    </g>
    <g
       id="g178"
       transform="matrix(1.7548512,0,0,-1.7548512,-199.95497,870.91634)"
       inkscape:export-filename="C:\Users\suitedoalex\sites\real-sociedad-logo-4.png"
       inkscape:export-xdpi="94.44342"
       inkscape:export-ydpi="94.44342">
      <g
         id="g180"
         clip-path="url(#clipPath184)">
        <g
           id="g186"
           transform="translate(157.322,389.467)">
          <path
             d="m 0,0 c -0.368,0.368 -0.668,0.83 -0.622,1.383 0.023,0.414 0.254,0.783 0.53,1.036 -0.231,0.208 -0.784,0.116 -1.106,0.323 l 0.599,1.429 C -1.106,4.24 -1.66,4.287 -2.028,4.701 -2.19,5.277 -2.673,5.623 -3.203,5.761 -3.964,6.038 -5.116,5.393 -5.37,6.545 c -0.092,0.415 -0.138,0.968 0.162,1.313 -0.254,0.392 -0.508,0.83 -0.484,1.36 0.046,0.323 0.115,0.622 0.322,0.876 -0.253,0.461 -0.368,1.014 -0.207,1.544 0.069,0.253 0.253,0.484 0.484,0.645 -0.115,0.438 -0.115,1.014 0.115,1.383 0.207,0.346 0.599,0.53 0.945,0.668 0.046,0.623 0.299,1.337 0.945,1.521 0.207,0.093 0.438,0.116 0.668,0.116 0.162,0.437 0.3,0.967 0.807,1.221 0.507,0.277 1.245,0.185 1.728,-0.115 0.07,0.415 0.231,0.829 0.484,1.175 0.369,0.369 0.853,0.392 1.36,0.369 0.484,-0.069 0.83,-0.507 1.106,-0.876 0.415,0.415 0.991,0.622 1.544,0.461 0.253,0.346 0.276,0.899 0.784,1.106 0.461,0.3 1.152,0.3 1.613,-0.023 l 0.172,-0.126 c 0.219,0.348 0.556,0.616 0.953,0.749 v 0.675 H 6.834 v 1.156 h 1.287 v 1.698 h 1.156 v -1.698 h 1.288 V 20.587 H 9.277 v -0.644 c 0.561,-0.194 0.994,-0.699 1.163,-1.262 0.46,0.345 1.152,0.792 1.82,0.539 0.392,-0.115 0.761,-0.484 0.899,-0.875 0.53,-0.047 1.245,0.046 1.613,-0.462 l 0.092,-0.092 c 0.208,0.323 0.53,0.6 0.876,0.761 0.553,0.069 1.175,0.069 1.568,-0.392 l 0.322,-0.484 c 0.484,0.138 1.06,0.092 1.429,-0.23 0.392,-0.277 0.46,-0.738 0.599,-1.153 0.484,0.092 1.013,0.023 1.36,-0.322 0.345,-0.369 0.414,-0.83 0.46,-1.314 0.416,-0.069 0.83,-0.346 1.038,-0.76 0.161,-0.346 0.138,-0.807 0.092,-1.199 0.392,-0.276 0.737,-0.715 0.737,-1.221 0.138,-0.669 -0.737,-1.106 0,-1.659 C 23.507,9.172 23.253,8.573 22.815,8.158 23.046,7.489 22.838,6.706 22.331,6.268 22.008,5.946 21.432,6.222 21.041,6.038 20.487,6.015 19.797,5.784 19.589,5.208 19.381,4.701 18.828,4.425 18.298,4.401 L 18.851,2.927 17.768,2.65 C 18.183,2.235 18.321,1.544 18.16,0.921 18.067,0.668 17.906,0.438 17.653,0.23 Z"
             style="fill:#140e0c;fill-opacity:1;fill-rule:nonzero;stroke:none"
             id="path188"
             inkscape:connector-curvature="0" />
        </g>
        <g
           id="g190"
           transform="translate(168.936,405.761)"
           style="fill:#ff011a;fill-opacity:1">
          <path
             d="M 0,0 C 0.622,0.253 0.392,-0.392 0.645,-0.622 0.738,-0.899 1.037,-0.991 1.244,-1.152 1.13,-1.613 1.13,-2.167 1.406,-2.536 1.66,-2.766 1.867,-3.042 2.236,-3.111 2.143,-3.595 2.351,-4.079 2.696,-4.379 L 3.019,-4.587 C 2.696,-4.701 2.466,-5.093 2.328,-5.416 2.236,-5.785 2.305,-6.177 2.536,-6.476 1.314,-6.937 -0.391,-6.96 -1.36,-6.085 c 0.323,0.347 0.484,0.876 0.3,1.337 -0.115,0.3 0.461,0.508 0.53,0.83 0.208,0.392 0.093,0.921 -0.161,1.268 l -0.392,0.322 c 0.253,0.231 0.438,0.576 0.461,0.968 0.023,0.461 -0.3,0.853 -0.622,1.083 l -0.484,0.138 c 0,0.231 -0.092,0.415 -0.231,0.6 0.254,0.092 0.53,0.277 0.715,0.53 C -1.083,0.553 -0.553,0.023 0,0"
             style="fill:#ff011a;fill-opacity:1;fill-rule:nonzero;stroke:none"
             id="path192"
             inkscape:connector-curvature="0" />
        </g>
        <g
           id="g194"
           transform="translate(165.203,406.268)"
           style="fill:#ff011a;fill-opacity:1">
          <path
             d="m 0,0 c -0.139,-0.207 -0.3,-0.392 -0.277,-0.646 -0.414,0.024 -0.737,-0.299 -0.967,-0.598 -0.139,-0.392 -0.162,-0.853 0.045,-1.222 l 0.392,-0.392 c -0.323,-0.23 -0.599,-0.599 -0.599,-1.037 0.023,-0.414 0.254,-0.853 0.599,-1.06 -0.276,-0.323 -0.323,-0.899 -0.161,-1.267 0.161,-0.185 0.277,-0.415 0.483,-0.553 -1.013,-0.761 -2.672,-0.969 -3.917,-0.461 0.253,0.368 0.253,0.806 0.138,1.244 -0.207,0.415 -0.553,0.668 -0.991,0.738 0.277,0.161 0.623,0.437 0.761,0.76 0.161,0.254 -0.024,0.53 0.046,0.83 0.369,0.069 0.714,0.368 0.922,0.691 0.184,0.345 0.207,0.83 0.092,1.198 0.253,0.162 0.645,0.392 0.806,0.692 l 0.092,0.714 c 0.346,-0.161 0.992,-0.253 1.429,-0.069 0.277,0.115 0.577,0.415 0.692,0.691 C -0.208,0.23 -0.139,0.069 0,0"
             style="fill:#ff011a;fill-opacity:1;fill-rule:nonzero;stroke:none"
             id="path196"
             inkscape:connector-curvature="0" />
        </g>
        <g
           id="g198"
           transform="translate(172.901,405.185)"
           style="fill:#ff011a;fill-opacity:1">
          <path
             d="m 0,0 c 0.322,-0.162 0.783,-0.207 1.152,-0.093 0.323,-0.575 0.922,-0.99 1.637,-0.898 h 0.114 c 0.07,-0.484 0.346,-0.945 0.761,-1.222 L 4.148,-2.374 C 4.102,-2.996 4.402,-3.526 4.862,-3.872 4.724,-4.379 4.816,-4.955 5.162,-5.324 4.885,-5.785 4.747,-6.476 5,-6.983 4.77,-7.214 4.378,-6.937 4.171,-7.283 4.032,-7.49 4.24,-7.928 3.802,-7.813 3.71,-7.859 3.548,-7.697 3.571,-7.882 l -0.023,0.069 c -0.875,0.116 -1.682,0.392 -2.327,0.991 0.299,0.162 0.737,0.415 0.899,0.83 0.115,0.322 0.046,0.714 -0.07,1.014 -0.622,0.415 -0.622,1.567 -1.589,1.498 0.138,0.414 0.161,0.899 -0.047,1.291 -0.852,0.414 0.185,1.382 -0.483,1.935 -0.093,0.277 -0.553,0.439 -0.53,0.669 C -0.323,0.415 -0.277,0.046 0,0"
             style="fill:#ff011a;fill-opacity:1;fill-rule:nonzero;stroke:none"
             id="path200"
             inkscape:connector-curvature="0" />
        </g>
        <g
           id="g202"
           transform="translate(159.28,405.161)"
           style="fill:#ff011a;fill-opacity:1">
          <path
             d="m 0,0 c -0.3,-0.484 -0.553,-1.152 -0.254,-1.729 l 0.092,-0.091 c -0.414,-0.254 -0.645,-0.738 -0.668,-1.222 0.023,-0.253 0.208,-0.507 0.231,-0.714 -0.346,-0.162 -0.876,-0.392 -0.853,-0.923 -0.322,-0.183 -0.553,-0.506 -0.622,-0.829 -0.092,-0.391 0.069,-0.783 0.322,-1.06 -0.368,-0.461 -0.991,-0.853 -1.428,-1.129 l -0.392,-0.07 c -0.092,0.231 -0.231,0.507 -0.461,0.6 -0.276,0.046 -0.599,-0.093 -0.829,-0.138 0.207,0.506 0.207,1.175 -0.116,1.636 0.3,0.415 0.553,0.968 0.3,1.498 -0.184,0.276 0.277,0.437 0.345,0.714 l 0.161,0.738 c 0.416,0.046 0.761,0.369 0.992,0.737 l 0.207,0.622 c 0.484,0.069 0.991,0.093 1.36,0.507 0.23,0.3 0.438,0.623 0.392,1.06 C -0.83,0.092 -0.438,-0.138 0,0"
             style="fill:#ff011a;fill-opacity:1;fill-rule:nonzero;stroke:none"
             id="path204"
             inkscape:connector-curvature="0" />
        </g>
        <g
           id="g206"
           transform="translate(165.295,404.539)">
          <path
             d="m 0,0 c -0.207,-0.207 -0.323,-0.438 -0.369,-0.714 -0.207,0.023 -0.415,0.253 -0.461,0.437 -0.138,0.254 0.092,0.439 0.208,0.623 C -0.231,0.807 -0.254,0.138 0,0"
             style="fill:#dcae2b;fill-opacity:1;fill-rule:nonzero;stroke:none"
             id="path208"
             inkscape:connector-curvature="0" />
        </g>
        <g
           id="g210"
           transform="translate(167.784,404.539)">
          <path
             d="m 0,0 c 0.023,-0.323 -0.115,-0.622 -0.391,-0.738 -0.185,0.047 -0.185,0.346 -0.3,0.508 C -1.175,0 -0.645,0.23 -0.599,0.484 -0.277,0.507 -0.115,0.185 0,0"
             style="fill:#dcae2b;fill-opacity:1;fill-rule:nonzero;stroke:none"
             id="path212"
             inkscape:connector-curvature="0" />
        </g>
        <g
           id="g214"
           transform="translate(167.715,402.696)">
          <path
             d="m 0,0 c 0.115,-0.185 0.185,-0.507 0.069,-0.714 -0.115,-0.208 -0.323,-0.346 -0.576,-0.346 -0.231,0.161 -0.438,0.438 -0.714,0.599 -0.116,0.438 0.414,0.368 0.552,0.715 C -0.392,0.323 -0.208,0.138 0,0"
             style="fill:#dcae2b;fill-opacity:1;fill-rule:nonzero;stroke:none"
             id="path216"
             inkscape:connector-curvature="0" />
        </g>
        <g
           id="g218"
           transform="translate(165.756,402.304)">
          <path
             d="m 0,0 c -0.277,-0.138 -0.599,-0.323 -0.761,-0.622 -0.277,0.069 -0.46,0.253 -0.529,0.529 -0.047,0.3 0.183,0.553 0.437,0.692 C -0.484,0.623 -0.139,0.254 0,0"
             style="fill:#dcae2b;fill-opacity:1;fill-rule:nonzero;stroke:none"
             id="path220"
             inkscape:connector-curvature="0" />
        </g>
        <g
           id="g222"
           transform="translate(166.724,401.451)">
          <path
             d="M 0,0 C 0.138,-0.323 0.76,-0.277 0.783,-0.738 0.875,-1.083 0.668,-1.36 0.391,-1.498 0.346,-1.544 0.276,-1.521 0.23,-1.59 c 0.184,-0.415 0.6,-0.646 0.968,-0.876 1.268,-0.737 3.088,-0.645 4.263,0.208 0.208,0.391 -0.484,0.276 -0.484,0.691 -0.092,0.3 0.093,0.645 0.392,0.76 0.277,0.139 0.738,-0.138 0.761,0.3 0.207,0.208 0.484,0.277 0.76,0.208 C 7.674,-0.484 6.822,-1.406 7.651,-1.406 7.928,-1.59 7.997,-1.958 7.858,-2.236 7.697,-2.489 7.375,-2.627 7.075,-2.535 6.89,-2.466 6.753,-2.373 6.568,-2.373 6.637,-3.18 7.512,-3.872 8.25,-4.217 c 0.737,-0.3 1.66,-0.438 2.466,-0.277 0.069,0.184 -0.161,0.438 0.069,0.599 0.369,0.161 0.576,-0.276 0.922,-0.322 0.254,-0.139 0.553,0.138 0.761,-0.093 0.046,-0.322 -0.3,-0.345 -0.485,-0.414 -0.414,0.115 -0.622,-0.231 -0.944,-0.3 -1.568,-0.553 -3.227,0.023 -4.379,1.176 -0.323,0.299 -0.553,0.645 -0.714,1.014 -1.728,-0.9 -4.056,-0.761 -5.693,0.276 -0.345,0.161 -0.737,0.83 -1.083,0.185 -1.406,-1.107 -3.319,-1.567 -5.139,-1.061 -0.553,0.184 -1.06,0.415 -1.544,0.737 L -7.674,-2.72 c -0.576,-1.428 -2.074,-2.373 -3.503,-2.465 -0.784,-0.139 -1.475,0.092 -2.144,0.3 -0.161,0.138 -0.115,0.322 -0.023,0.506 0.208,0.277 0.553,-0.023 0.83,0.115 0.323,0.138 0.576,0.484 0.968,0.369 0.276,-0.161 -0.092,-0.53 0.23,-0.668 1.107,0.161 2.167,0.737 2.674,1.774 -0.093,0.208 -0.415,0.346 -0.461,0.622 0.069,0.277 0.092,0.646 0.438,0.761 0.437,-0.046 0.138,0.507 0.323,0.692 0.206,0.23 0.506,0.391 0.759,0.276 0.254,-0.046 0.416,-0.3 0.508,-0.507 0.368,-0.046 0.852,-0.023 0.968,-0.484 0.069,-0.323 -0.092,-0.668 -0.392,-0.807 l -0.438,-0.092 c 1.222,-0.875 3.25,-1.083 4.609,-0.299 0.461,0.184 0.807,0.53 1.153,0.899 0,0.276 -0.438,0.115 -0.622,0.253 -0.277,0.161 -0.439,0.53 -0.3,0.83 0.069,0.53 0.737,0.184 0.829,0.599 0.024,0.277 0.323,0.392 0.53,0.461 C -0.415,0.484 -0.116,0.231 0,0"
             style="fill:#dcae2b;fill-opacity:1;fill-rule:nonzero;stroke:none"
             id="path224"
             inkscape:connector-curvature="0" />
        </g>
        <g
           id="g226"
           transform="translate(175.643,395.874)">
          <path
             d="M 0,0 C 0.207,-0.23 0.323,-0.553 0.162,-0.83 0,-1.083 -0.323,-1.268 -0.668,-1.129 c -1.037,0.691 -2.351,0.899 -3.572,1.267 -4.886,1.061 -10.117,0.461 -14.45,-1.406 -0.323,0 -0.507,0.323 -0.645,0.577 -0.116,0.76 0.76,0.853 1.221,1.129 C -12.583,2.512 -5.347,2.719 0,0"
             style="fill:#dcae2b;fill-opacity:1;fill-rule:nonzero;stroke:none"
             id="path228"
             inkscape:connector-curvature="0" />
        </g>
        <g
           id="g230"
           transform="translate(174.122,391.61)">
          <path
             d="m 0,0 c 0.254,-0.185 0.323,-0.553 0.207,-0.853 -0.184,-0.253 -0.506,-0.346 -0.806,-0.299 -4.378,1.843 -10.325,1.89 -14.634,-0.161 -0.23,0 -0.599,-0.07 -0.738,0.207 -0.161,0.207 -0.299,0.553 -0.092,0.783 0.968,0.669 2.12,0.876 3.18,1.268 C -8.781,2.074 -3.733,1.659 0,0"
             style="fill:#dcae2b;fill-opacity:1;fill-rule:nonzero;stroke:none"
             id="path232"
             inkscape:connector-curvature="0" />
        </g>
        <g
           id="g234"
           transform="translate(192.074,349.275)">
          <path
             d="m 0,0 c -0.185,-0.254 -0.53,-0.392 -0.807,-0.553 -0.599,0.53 -4.933,4.854 -6.454,6.421 l 0.83,0.576 z"
             style="fill:#dcae2b;fill-opacity:1;fill-rule:nonzero;stroke:none"
             id="path236"
             inkscape:connector-curvature="0" />
        </g>
        <g
           id="g238"
           transform="translate(191.242,348.458)">
          <path
             d="M 0,0 -0.117,0.103 C -0.751,0.663 -5.12,5.028 -6.583,6.535 L -6.76,6.717 -5.573,7.542 1.116,0.839 1.007,0.69 C 0.836,0.454 0.564,0.309 0.324,0.182 0.259,0.147 0.195,0.113 0.134,0.078 Z M -6.096,6.653 C -4.496,5.015 -0.791,1.32 0.057,0.529 0.078,0.54 0.1,0.551 0.121,0.562 0.267,0.64 0.417,0.72 0.531,0.814 l -6.154,6.167 z"
             style="fill:#dcae2b;fill-opacity:1;fill-rule:nonzero;stroke:none"
             id="path240"
             inkscape:connector-curvature="0" />
        </g>
        <g
           id="g242"
           transform="translate(149.474,378.609)"
           style="fill:#f57a0d;fill-opacity:1">
          <path
             d="m 0,0 c 2.24,7.221 8.972,12.465 16.929,12.465 0.289,0 0.634,-0.003 0.92,-0.017 C 15.683,11.158 14.07,9.038 13.171,6.802 10.29,6.526 7.709,5.396 5.52,3.483 3.399,2.746 1.579,1.501 -0.104,-0.135 Z"
             style="fill:#f57a0d;fill-opacity:1;fill-rule:nonzero;stroke:none"
             id="path244"
             inkscape:connector-curvature="0" />
        </g>
        <g
           id="g246"
           transform="translate(168.491,375.017)"
           style="fill:#f57a0d;fill-opacity:1">
          <path
             d="m 0,0 c -2.422,-1.031 -5.192,-2.655 -8.012,-5.208 -2.742,2.212 -5.185,5.093 -5.83,8.572 -0.138,1.199 0.092,2.329 0.899,3.181 1.866,1.821 4.286,2.697 6.913,2.996 -0.046,-2.074 0.968,-3.826 2.097,-5.277 1.014,-1.683 2.351,-2.904 3.849,-4.218 z"
             style="fill:#f57a0d;fill-opacity:1;fill-rule:nonzero;stroke:none"
             id="path248"
             inkscape:connector-curvature="0" />
        </g>
        <g
           id="g250"
           transform="translate(180.898,383.498)"
           style="fill:#f57a0d;fill-opacity:1">
          <path
             d="m 0,0 c -1.002,-2.379 -2.743,-4.839 -5.048,-6.706 -1.077,0.01 -3.567,-0.09 -6.773,-1.383 -2.467,2.074 -4.749,4.679 -5.671,7.859 -0.507,1.843 0.853,3.226 1.659,4.701 0.946,1.199 2.236,2.351 3.572,2.927 1.112,-0.139 2.259,-0.403 3.296,-0.738 -2.166,-0.852 -3.803,-2.604 -4.978,-4.609 0.622,-0.415 1.314,-0.83 1.982,-1.221 2.12,-1.406 4.241,-3.135 6.176,-4.978 h 0.092 c 1.914,1.82 3.241,4.187 3.526,6.66 C -1.542,2.201 0,0 0,0"
             style="fill:#f57a0d;fill-opacity:1;fill-rule:nonzero;stroke:none"
             id="path252"
             inkscape:connector-curvature="0" />
        </g>
        <g
           id="g254"
           transform="translate(181.473,382.672)"
           style="fill:#f57a0d;fill-opacity:1">
          <path
             d="m 0,0 c 1.681,-2.704 2.653,-5.896 2.653,-9.32 0,-0.946 -0.075,-1.876 -0.218,-2.782 l -0.041,-0.132 c -3.479,1.872 -6.269,5.019 -7.113,6.032 C -2.737,-4.474 -1.083,-2.282 0,0"
             style="fill:#f57a0d;fill-opacity:1;fill-rule:nonzero;stroke:none"
             id="path256"
             inkscape:connector-curvature="0" />
        </g>
        <g
           id="g258"
           transform="translate(157.759,392.187)">
          <path
             d="m 0,0 c 4.84,2.374 11.776,2.535 16.685,0.23 -0.23,0.369 -0.599,0.738 -0.783,1.153 0.391,0.253 0.99,0.23 1.428,0.414 C 12.075,4.171 4.517,4.24 -0.599,1.591 l 0.011,0.012 1.649,-0.176 z"
             style="fill:#dcae2b;fill-opacity:1;fill-rule:nonzero;stroke:none"
             id="path260"
             inkscape:connector-curvature="0" />
        </g>
        <g
           id="g262"
           transform="translate(175.251,388.66)"
           style="fill:#f57a0d;fill-opacity:1">
          <path
             d="m 0,0 c -0.139,-0.23 -0.254,-0.461 -0.438,-0.691 -0.507,0 -0.484,0.853 -1.014,0.53 -0.185,-0.138 -0.3,-0.415 -0.116,-0.599 l 0.738,-0.438 c -0.069,-0.3 -0.345,-0.53 -0.507,-0.784 -0.668,-0.069 -1.175,1.567 -1.729,0.369 0.116,-0.669 0.876,-0.576 1.199,-1.106 L -2.628,-3.71 c -0.506,0.253 -0.806,0.645 -1.198,0.968 -0.184,0.069 -0.415,0.161 -0.599,0 -0.207,-0.185 -0.277,-0.438 -0.184,-0.692 0.414,-0.322 0.945,-0.645 1.359,-1.037 -0.138,-0.276 -0.392,-0.691 -0.668,-0.668 -0.53,0.438 -1.175,0.853 -1.752,1.199 -0.437,0.414 -1.037,0.691 -1.544,1.036 0.231,0.576 0.807,1.06 1.199,1.544 1.152,1.13 2.42,2.006 3.964,2.374 C -1.314,0.715 -0.691,0.392 0,0"
             style="fill:#f57a0d;fill-opacity:1;fill-rule:nonzero;stroke:none"
             id="path264"
             inkscape:connector-curvature="0" />
        </g>
        <g
           id="g266"
           transform="translate(178.109,386.609)"
           style="fill:#f57a0d;fill-opacity:1">
          <path
             d="m 0,0 c -0.208,-2.42 -1.314,-4.517 -3.019,-6.177 -1.083,0.807 -1.913,1.614 -2.996,2.49 0.115,0.276 0.345,0.438 0.507,0.691 0.783,-0.069 1.152,-1.728 1.959,-0.715 0.092,0.277 0,0.623 -0.277,0.715 -0.415,0.162 -0.669,0.53 -1.037,0.807 0.138,0.392 0.507,0.714 0.738,1.037 0.529,-0.092 0.645,-0.945 1.267,-0.6 0.185,0.161 0.208,0.461 0.092,0.669 -0.323,0.138 -0.553,0.323 -0.83,0.576 0.047,0.3 0.346,0.53 0.507,0.806 0.461,0.047 0.461,-0.806 0.992,-0.53 0.161,0.139 0.207,0.346 0.161,0.53 -0.207,0.3 -0.553,0.231 -0.761,0.531 L -2.19,1.636 C -1.383,1.198 -0.691,0.599 0,0"
             style="fill:#f57a0d;fill-opacity:1;fill-rule:nonzero;stroke:none"
             id="path268"
             inkscape:connector-curvature="0" />
        </g>
        <g
           id="g270"
           transform="translate(162.734,347.506)">
          <path
             d="m 0,0 c 0.661,1.5 1.029,3.159 1.029,4.904 0,6.721 -5.448,12.169 -12.168,12.169 -2.152,0 -4.172,-0.558 -5.925,-1.538 -1.28,1.251 -2.241,1.917 -2.241,1.917 -2.219,0.796 -2.846,3.187 -2.846,3.187 -1.706,3.641 -2.105,5.064 -2.105,5.064 4.61,-8.934 13.259,-7.568 13.259,-7.568 0,0 3.941,0.049 9.332,3.983 7.971,7.219 15.121,6.724 15.121,6.724 0,0 3.33,-4.284 7.619,-6.405 -0.48,0.354 2.541,-1.546 4.307,-3.534 1.822,-2.154 5.787,-6.004 5.787,-6.004 C 29.147,12.367 26.468,11.267 22.227,8.714 9.932,-1.042 2.885,-0.788 0,0"
             style="fill:#0069b7;fill-opacity:1;fill-rule:nonzero;stroke:none"
             id="path272"
             inkscape:connector-curvature="0" />
        </g>
        <g
           id="g274"
           transform="translate(159.756,369.302)"
           style="fill:#f57a0d;fill-opacity:1">
          <path
             d="m 0,0 c -4.667,-3.146 -8.638,-3.357 -9.45,-3.366 l -0.055,0.112 c -1.009,2.227 -1.57,4.7 -1.57,7.304 0,1.196 0.118,2.364 0.345,3.493 l 0.114,0.347 c 1.497,1.59 2.812,2.665 4.84,3.403 -0.687,-3.915 2.742,-8.528 3.272,-8.851 0.692,-0.921 1.521,-1.613 2.443,-2.419 z"
             style="fill:#f57a0d;fill-opacity:1;fill-rule:nonzero;stroke:none"
             id="path276"
             inkscape:connector-curvature="0" />
        </g>
        <g
           id="g278"
           transform="translate(162.262,347.624)">
          <path
             d="m 0,0 c -0.771,0.249 -1.107,0.448 -1.107,0.448 -3.178,4.007 -6.857,6.074 -6.857,6.074 -2.453,0.525 -4.61,3.594 -4.61,3.594 -1.105,2.092 -2.475,3.76 -3.651,4.962 1.653,0.894 3.546,1.403 5.558,1.403 6.458,0 11.693,-5.236 11.693,-11.694 C 1.026,3.083 0.654,1.46 0,0"
             style="fill:#ffffff;fill-opacity:1;fill-rule:nonzero;stroke:none"
             id="path280"
             inkscape:connector-curvature="0" />
        </g>
        <g
           id="g282"
           transform="translate(162.279,347.584)">
          <path
             d="m 0,0 -0.027,0.009 c -0.766,0.247 -1.1,0.442 -1.114,0.451 L -1.15,0.467 c -3.09,3.896 -6.7,5.982 -6.843,6.064 -2.436,0.525 -4.603,3.576 -4.625,3.606 -0.939,1.777 -2.166,3.443 -3.648,4.957 l -0.03,0.031 0.038,0.02 c 1.7,0.921 3.627,1.407 5.574,1.407 6.465,0 11.725,-5.26 11.725,-11.726 0,-1.661 -0.346,-3.275 -1.029,-4.8 z m -1.104,0.512 c 0.045,-0.025 0.379,-0.208 1.069,-0.434 0.671,1.509 1.012,3.106 1.012,4.748 0,6.431 -5.231,11.662 -11.661,11.662 -1.922,0 -3.825,-0.477 -5.506,-1.379 1.473,-1.511 2.693,-3.172 3.626,-4.938 0.02,-0.027 2.176,-3.062 4.589,-3.578 l 0.009,-0.004 c 0.036,-0.02 3.718,-2.114 6.862,-6.077"
             style="fill:#140e0c;fill-opacity:1;fill-rule:nonzero;stroke:none"
             id="path284"
             inkscape:connector-curvature="0" />
        </g>
        <g
           id="g286"
           transform="translate(169.63,394.789)">
          <path
             d="M 0,0 1.934,-0.4 C 2.282,-0.472 2.521,-0.745 2.468,-1.01 2.415,-1.274 2.089,-1.431 1.742,-1.359 l -1.935,0.401 C -0.541,-0.886 -0.78,-0.613 -0.727,-0.349 -0.674,-0.084 -0.348,0.072 0,0"
             style="fill:#eb1d28;fill-opacity:1;fill-rule:nonzero;stroke:none"
             id="path288"
             inkscape:connector-curvature="0" />
        </g>
        <g
           id="g290"
           transform="translate(171.541,393.381)">
          <path
             d="m 0,0 c -0.058,0 -0.118,0.006 -0.176,0.018 l -1.934,0.4 c -0.365,0.076 -0.616,0.366 -0.559,0.647 0.046,0.232 0.289,0.393 0.589,0.393 0.058,0 0.117,-0.006 0.176,-0.018 L 0.029,1.039 C 0.394,0.964 0.645,0.674 0.589,0.392 0.542,0.161 0.3,0 0,0 m -2.08,1.394 c -0.269,0 -0.486,-0.14 -0.526,-0.341 -0.05,-0.247 0.178,-0.504 0.509,-0.572 l 1.934,-0.4 C -0.109,0.07 -0.054,0.064 0,0.064 c 0.269,0 0.486,0.14 0.525,0.341 0.05,0.247 -0.179,0.503 -0.509,0.571 L -1.918,1.377 C -1.971,1.388 -2.026,1.394 -2.08,1.394"
             style="fill:#140e0c;fill-opacity:1;fill-rule:nonzero;stroke:none"
             id="path292"
             inkscape:connector-curvature="0" />
        </g>
      </g>
    </g>
    <g
       id="g294"
       transform="matrix(1.7548512,0,0,-1.7548512,91.634618,179.02582)"
       inkscape:export-filename="C:\Users\suitedoalex\sites\real-sociedad-logo-4.png"
       inkscape:export-xdpi="94.44342"
       inkscape:export-ydpi="94.44342">
      <path
         d="M 0,0 1.437,0.512 0.014,1.152 -1.422,0.512 Z"
         style="fill:#186dbf;fill-opacity:1;fill-rule:nonzero;stroke:none"
         id="path296"
         inkscape:connector-curvature="0" />
    </g>
    <g
       id="g298"
       transform="matrix(1.7548512,0,0,-1.7548512,91.634618,179.02582)"
       inkscape:export-filename="C:\Users\suitedoalex\sites\real-sociedad-logo-4.png"
       inkscape:export-xdpi="94.44342"
       inkscape:export-ydpi="94.44342">
      <path
         d="M 0,0 1.437,0.512 0.014,1.152 -1.422,0.512 Z"
         style="fill:#2159b0;fill-opacity:1;fill-rule:nonzero;stroke:none"
         id="path300"
         inkscape:connector-curvature="0" />
    </g>
    <g
       id="g302"
       transform="matrix(1.7548512,0,0,-1.7548512,-199.95497,870.91634)"
       inkscape:export-filename="C:\Users\suitedoalex\sites\real-sociedad-logo-4.png"
       inkscape:export-xdpi="94.44342"
       inkscape:export-ydpi="94.44342">
      <g
         id="g304"
         clip-path="url(#clipPath308)">
        <g
           id="g310"
           transform="translate(162.165,394.783)">
          <path
             d="m 0,0 -1.942,-0.418 c -0.349,-0.075 -0.586,-0.35 -0.529,-0.614 0.057,-0.264 0.386,-0.417 0.736,-0.342 l 1.942,0.418 c 0.349,0.075 0.586,0.349 0.529,0.614 C 0.679,-0.078 0.349,0.075 0,0"
             style="fill:#eb1d28;fill-opacity:1;fill-rule:nonzero;stroke:none"
             id="path312"
             inkscape:connector-curvature="0" />
        </g>
        <g
           id="g314"
           transform="translate(160.253,393.357)">
          <path
             d="m 0,0 v 0 c -0.298,0 -0.541,0.159 -0.591,0.387 -0.024,0.113 0,0.231 0.07,0.34 0.1,0.153 0.276,0.267 0.485,0.312 L 1.906,1.457 C 1.967,1.47 2.029,1.477 2.09,1.477 2.388,1.477 2.63,1.318 2.679,1.09 2.704,0.977 2.68,0.859 2.609,0.751 2.51,0.596 2.334,0.483 2.125,0.438 L 0.183,0.02 C 0.123,0.007 0.061,0 0,0 M 2.09,1.413 C 2.033,1.413 1.976,1.406 1.919,1.394 L -0.023,0.976 C -0.215,0.935 -0.377,0.831 -0.467,0.692 -0.528,0.598 -0.549,0.497 -0.528,0.4 -0.485,0.202 -0.268,0.064 0,0.064 c 0.056,0 0.114,0.006 0.17,0.018 L 2.112,0.501 C 2.301,0.541 2.467,0.648 2.556,0.785 2.617,0.879 2.637,0.98 2.616,1.076 2.574,1.274 2.357,1.413 2.09,1.413"
             style="fill:#140e0c;fill-opacity:1;fill-rule:nonzero;stroke:none"
             id="path316"
             inkscape:connector-curvature="0" />
        </g>
        <g
           id="g318"
           transform="translate(181.545,371.385)">
          <path
             d="m 0,0 c -7.328,0.714 -12.899,-3.788 -18.499,-7.429 -1.314,-0.738 -2.684,-1.48 -4.09,-1.941 l -2.292,1.437 c 1.13,0.783 2.672,1.472 3.893,2.278 3.503,1.959 6.545,5.024 10.417,6.038 2.581,0.853 5.616,1.369 8.497,1.276 C -1.383,1.152 -0.76,0.484 0,0"
             style="fill:#ffffff;fill-opacity:1;fill-rule:nonzero;stroke:none"
             id="path320"
             inkscape:connector-curvature="0" />
        </g>
        <g
           id="g322"
           transform="translate(158.949,361.963)">
          <path
             d="m 0,0 -0.018,0.011 -2.351,1.475 0.058,0.041 c 0.591,0.41 1.31,0.802 2.006,1.182 0.641,0.35 1.305,0.712 1.887,1.097 1.234,0.689 2.428,1.529 3.582,2.34 2.13,1.497 4.331,3.045 6.849,3.703 2.736,0.905 5.797,1.363 8.51,1.278 h 0.015 l 0.012,-0.009 c 0.292,-0.214 0.577,-0.462 0.853,-0.701 0.384,-0.334 0.78,-0.678 1.218,-0.956 L 22.592,9.375 C 22.08,9.425 21.562,9.45 21.052,9.45 15.344,9.45 10.675,6.325 6.16,3.304 5.492,2.856 4.801,2.394 4.122,1.953 2.819,1.221 1.431,0.469 0.021,0.007 Z M -2.199,1.49 0.012,0.102 c 1.396,0.461 2.772,1.206 4.062,1.931 0.676,0.439 1.366,0.901 2.033,1.348 4.527,3.03 9.208,6.163 14.945,6.163 0.451,0 0.909,-0.02 1.363,-0.059 -0.382,0.261 -0.733,0.565 -1.073,0.861 -0.283,0.246 -0.551,0.478 -0.836,0.688 C 17.805,11.12 14.763,10.66 12.04,9.759 9.536,9.105 7.341,7.562 5.218,6.069 4.061,5.257 2.865,4.416 1.631,3.726 1.049,3.341 0.383,2.978 -0.26,2.626 -0.961,2.244 -1.625,1.882 -2.199,1.49"
             style="fill:#140e0c;fill-opacity:1;fill-rule:nonzero;stroke:none"
             id="path324"
             inkscape:connector-curvature="0" />
        </g>
        <g
           id="g326"
           transform="translate(186.307,368.147)">
          <path
             d="m 0,0 c 0.599,-0.484 1.06,-0.876 1.637,-1.452 -6.477,-0.23 -11.891,-3.569 -17.168,-6.795 -2.512,-1.291 -5.001,-2.581 -7.766,-3.25 l -0.937,1.912 c 5.116,1.452 9.187,5.555 14.003,7.698 C -7.234,-0.342 -3.641,0.645 0,0"
             style="fill:#ffffff;fill-opacity:1;fill-rule:nonzero;stroke:none"
             id="path328"
             inkscape:connector-curvature="0" />
        </g>
        <g
           id="g330"
           transform="translate(162.984,356.595)">
          <path
             d="m 0,0 -0.016,0.034 -0.962,1.962 0.054,0.016 c 2.943,0.835 5.585,2.58 8.139,4.267 1.876,1.238 3.816,2.52 5.858,3.429 2.692,1.386 5.364,2.09 7.941,2.09 0.784,0 1.564,-0.067 2.317,-0.201 l 0.021,-0.009 c 0.608,-0.491 1.071,-0.887 1.641,-1.456 l 0.076,-0.076 -0.108,-0.004 C 18.546,9.824 13.152,6.527 7.936,3.337 L 7.816,3.264 7.704,3.207 C 5.277,1.959 2.767,0.669 0.036,0.009 Z M -0.845,1.937 0.051,0.109 C 2.757,0.769 5.25,2.05 7.661,3.29 l 0.11,0.055 0.116,0.072 c 5.197,3.178 10.57,6.463 16.963,6.725 -0.529,0.523 -0.974,0.902 -1.548,1.365 -0.744,0.131 -1.514,0.198 -2.288,0.198 -2.562,0 -5.22,-0.7 -7.901,-2.082 C 11.076,8.716 9.139,7.437 7.267,6.2 4.722,4.52 2.091,2.782 -0.845,1.937"
             style="fill:#140e0c;fill-opacity:1;fill-rule:nonzero;stroke:none"
             id="path332"
             inkscape:connector-curvature="0" />
        </g>
        <g
           id="g334"
           transform="translate(190.432,364.089)">
          <path
             d="m 0,0 c 0.599,-0.715 1.296,-1.378 1.965,-2.069 -6.43,-0.116 -11.362,-4.034 -16.409,-7.537 -3.825,-2.304 -7.831,-4.508 -12.509,-4.508 0.068,0.876 0.236,1.768 0.213,2.689 6.453,1.36 12.158,4.884 17.689,8.387 C -6.216,-1.494 -3.364,-0.23 0,0"
             style="fill:#ffffff;fill-opacity:1;fill-rule:nonzero;stroke:none"
             id="path336"
             inkscape:connector-curvature="0" />
        </g>
        <g
           id="g338"
           transform="translate(163.479,349.928)">
          <path
             d="m 0,0 h -0.051 l 0.004,0.051 c 0.023,0.293 0.058,0.593 0.092,0.884 0.067,0.585 0.137,1.189 0.122,1.8 L 0.165,2.773 0.204,2.781 c 6.655,1.403 12.508,5.111 17.674,8.382 2.644,1.44 5.571,2.805 9.072,3.044 l 0.024,0.002 0.015,-0.018 c 0.435,-0.519 0.932,-1.021 1.412,-1.506 0.184,-0.186 0.369,-0.373 0.551,-0.561 L 29.027,12.047 28.92,12.044 C 23.099,11.94 18.442,8.665 13.938,5.498 13.471,5.17 13.004,4.842 12.537,4.517 8.584,2.136 4.653,0 0,0 M 0.261,2.698 C 0.273,2.094 0.204,1.5 0.138,0.924 0.106,0.651 0.073,0.369 0.051,0.094 c 4.607,0.015 8.511,2.138 12.435,4.502 0.465,0.322 0.932,0.651 1.399,0.979 4.487,3.155 9.127,6.418 14.925,6.561 -0.158,0.162 -0.317,0.322 -0.475,0.483 -0.476,0.481 -0.969,0.979 -1.403,1.493 C 23.46,13.869 20.551,12.513 17.925,11.082 13.021,7.976 6.918,4.11 0.261,2.698"
             style="fill:#140e0c;fill-opacity:1;fill-rule:nonzero;stroke:none"
             id="path340"
             inkscape:connector-curvature="0" />
        </g>
        <g
           id="g342"
           transform="translate(172.798,399.895)">
          <path
             d="M 0,0 C 0,0.205 0.166,0.371 0.37,0.371 0.575,0.371 0.741,0.205 0.741,0 0.741,-0.205 0.575,-0.371 0.37,-0.371 0.166,-0.371 0,-0.205 0,0"
             style="fill:#140e0c;fill-opacity:1;fill-rule:nonzero;stroke:none"
             id="path344"
             inkscape:connector-curvature="0" />
        </g>
        <g
           id="g346"
           transform="translate(165.756,405.469)">
          <path
             d="m 0,0 c 0,0.205 0.166,0.371 0.371,0.371 0.204,0 0.37,-0.166 0.37,-0.371 0,-0.205 -0.166,-0.371 -0.37,-0.371 C 0.166,-0.371 0,-0.205 0,0"
             style="fill:#dcae2b;fill-opacity:1;fill-rule:nonzero;stroke:none"
             id="path348"
             inkscape:connector-curvature="0" />
        </g>
        <g
           id="g350"
           transform="translate(165.756,403.624)">
          <path
             d="m 0,0 c 0,0.205 0.166,0.371 0.371,0.371 0.204,0 0.37,-0.166 0.37,-0.371 0,-0.205 -0.166,-0.371 -0.37,-0.371 C 0.166,-0.371 0,-0.205 0,0"
             style="fill:#dcae2b;fill-opacity:1;fill-rule:nonzero;stroke:none"
             id="path352"
             inkscape:connector-curvature="0" />
        </g>
        <g
           id="g354"
           transform="translate(165.756,400.649)">
          <path
             d="m 0,0 c 0,0.205 0.166,0.371 0.371,0.371 0.204,0 0.37,-0.166 0.37,-0.371 0,-0.205 -0.166,-0.371 -0.37,-0.371 C 0.166,-0.371 0,-0.205 0,0"
             style="fill:#140e0c;fill-opacity:1;fill-rule:nonzero;stroke:none"
             id="path356"
             inkscape:connector-curvature="0" />
        </g>
        <g
           id="g358"
           transform="translate(152.943,402.192)">
          <path
             d="M 0,0 C 0,0.46 0.373,0.833 0.833,0.833 1.294,0.833 1.667,0.46 1.667,0 1.667,-0.461 1.294,-0.834 0.833,-0.834 0.373,-0.834 0,-0.461 0,0"
             style="fill:#dcae2b;fill-opacity:1;fill-rule:nonzero;stroke:none"
             id="path360"
             inkscape:connector-curvature="0" />
        </g>
        <g
           id="g362"
           transform="translate(158.715,399.707)">
          <path
             d="m 0,0 c 0,0.205 0.166,0.371 0.371,0.371 0.204,0 0.37,-0.166 0.37,-0.371 0,-0.205 -0.166,-0.371 -0.37,-0.371 C 0.166,-0.371 0,-0.205 0,0"
             style="fill:#140e0c;fill-opacity:1;fill-rule:nonzero;stroke:none"
             id="path364"
             inkscape:connector-curvature="0" />
        </g>
      </g>
    </g>
    <g
       id="g366"
       transform="matrix(1.7548512,0,0,-1.7548512,78.650486,180.15948)"
       inkscape:export-filename="C:\Users\suitedoalex\sites\real-sociedad-logo-4.png"
       inkscape:export-xdpi="94.44342"
       inkscape:export-ydpi="94.44342">
      <path
         d="m 0,0 -1.862,0.159 -0.612,-1.462 1.383,-0.213 z"
         style="fill:#186dbf;fill-opacity:1;fill-rule:nonzero;stroke:none"
         id="path368"
         inkscape:connector-curvature="0" />
    </g>
    <g
       id="g370"
       transform="matrix(1.7548512,0,0,-1.7548512,78.650486,180.15948)"
       inkscape:export-filename="C:\Users\suitedoalex\sites\real-sociedad-logo-4.png"
       inkscape:export-xdpi="94.44342"
       inkscape:export-ydpi="94.44342">
      <path
         d="m 0,0 -1.862,0.159 -0.612,-1.462 1.383,-0.213 z"
         style="fill:#2159b0;fill-opacity:1;fill-rule:nonzero;stroke:none"
         id="path372"
         inkscape:connector-curvature="0" />
    </g>
    <g
       id="g374"
       transform="matrix(1.7548512,0,0,-1.7548512,104.83284,180.25245)"
       inkscape:export-filename="C:\Users\suitedoalex\sites\real-sociedad-logo-4.png"
       inkscape:export-xdpi="94.44342"
       inkscape:export-ydpi="94.44342">
      <path
         d="M 0,0 1.675,0.453 2.42,-1.144 0.904,-1.25 Z"
         style="fill:#186dbf;fill-opacity:1;fill-rule:nonzero;stroke:none"
         id="path376"
         inkscape:connector-curvature="0" />
    </g>
    <g
       id="g378"
       transform="matrix(1.7548512,0,0,-1.7548512,104.83284,180.25245)"
       inkscape:export-filename="C:\Users\suitedoalex\sites\real-sociedad-logo-4.png"
       inkscape:export-xdpi="94.44342"
       inkscape:export-ydpi="94.44342">
      <path
         d="M 0,0 1.675,0.453 2.42,-1.144 0.904,-1.25 Z"
         style="fill:#2159b0;fill-opacity:1;fill-rule:nonzero;stroke:none"
         id="path380"
         inkscape:connector-curvature="0" />
    </g>
    <g
       id="g382"
       transform="matrix(1.7548512,0,0,-1.7548512,-199.95497,870.91634)"
       inkscape:export-filename="C:\Users\suitedoalex\sites\real-sociedad-logo-4.png"
       inkscape:export-xdpi="94.44342"
       inkscape:export-ydpi="94.44342">
      <g
         id="g384"
         clip-path="url(#clipPath388)">
        <g
           id="g390"
           transform="translate(149.988,365.816)">
          <path
             d="m 0,0 -3.959,0.833 c -6.204,1.845 -8.103,8.907 -8.103,8.907 0.044,3.195 1.686,6.162 0.614,9.693 -1.331,4.819 -0.255,10.887 0.86,15.571 -0.23,0.115 -0.607,0.101 -0.884,0.193 -0.507,0.138 -0.945,0.668 -1.175,1.106 -0.253,1.083 0.646,1.844 1.267,2.65 0.669,0.622 1.521,1.521 2.628,1.199 0.392,-0.185 0.806,-0.531 0.991,-0.945 0.254,-0.738 0.023,-1.521 -0.438,-2.074 L 5.626,22.195 C -6.669,11.462 0,0 0,0 M 3.252,20.502 C 2.146,19.303 1.109,17.944 0.303,16.561 -4.006,21.816 -8.336,27.871 -9.811,34.37 Z"
             style="fill:#140e0c;fill-opacity:1;fill-rule:nonzero;stroke:none"
             id="path392"
             inkscape:connector-curvature="0" />
        </g>
      </g>
    </g>
    <g
       id="g394"
       transform="matrix(1.7548512,0,0,-1.7548512,-199.95497,870.91634)"
       inkscape:export-filename="C:\Users\suitedoalex\sites\real-sociedad-logo-4.png"
       inkscape:export-xdpi="94.44342"
       inkscape:export-ydpi="94.44342">
      <g
         id="g396"
         clip-path="url(#clipPath400)">
        <g
           id="g402"
           transform="translate(141.259,404.309)">
          <path
             d="m 0,0 c 0.079,-0.898 -0.575,-1.154 -0.76,-1.498 l 13.964,-14.94 -0.796,-0.656 c 0,0 -12.112,13.03 -13.794,14.874 -0.023,0.138 -0.2,-0.285 -0.641,-0.271 -0.368,0.115 -0.693,0.279 -0.831,0.694 -0.138,0.737 1.614,2.35 2.098,2.419 C -0.369,0.599 -0.139,0.323 0,0"
             style="fill:#dcae2b;fill-opacity:1;fill-rule:nonzero;stroke:none"
             id="path404"
             inkscape:connector-curvature="0" />
        </g>
        <g
           id="g406"
           transform="translate(153.647,386.919)">
          <path
             d="m 0,0 -0.138,0.149 c -0.119,0.128 -11.65,12.533 -13.682,14.751 -0.134,-0.109 -0.319,-0.217 -0.573,-0.217 l -0.086,0.01 c -0.383,0.119 -0.798,0.312 -0.971,0.831 -0.06,0.308 0.07,0.669 0.38,1.1 0.478,0.668 1.445,1.538 1.891,1.602 0.334,-0.015 0.735,-0.16 0.989,-0.751 l 0.017,-0.066 c 0.064,-0.74 -0.305,-1.109 -0.575,-1.377 -0.045,-0.044 -0.085,-0.085 -0.121,-0.123 L 1.13,0.932 Z M -13.578,15.274 C -11.889,13.426 -1.301,2.033 0.039,0.592 l 0.462,0.38 -13.913,14.886 0.073,0.136 c 0.069,0.128 0.175,0.232 0.286,0.343 0.239,0.238 0.486,0.484 0.453,1 -0.135,0.295 -0.319,0.446 -0.561,0.46 -0.175,-0.03 -1.036,-0.694 -1.559,-1.424 -0.324,-0.452 -0.327,-0.669 -0.314,-0.741 0.095,-0.279 0.321,-0.41 0.652,-0.517 0.176,0.009 0.283,0.108 0.362,0.181 0.062,0.058 0.126,0.117 0.227,0.117 h 0.182 z"
             style="fill:#dcae2b;fill-opacity:1;fill-rule:nonzero;stroke:none"
             id="path408"
             inkscape:connector-curvature="0" />
        </g>
        <g
           id="g410"
           transform="translate(138.437,374.559)">
          <path
             d="M 0,0 C 0.035,-0.027 -0.009,1.583 -0.009,1.583 0.114,4.677 1.644,7.444 0.644,10.735 -0.595,15.226 0.23,20.194 1.27,24.56 3.337,18.082 7.116,12.669 11.518,7.226 c 0,0 -4.18,-7.753 -0.487,-15.83 C 2.752,-7.833 0,0 0,0"
             style="fill:#0069b7;fill-opacity:1;fill-rule:nonzero;stroke:none"
             id="path412"
             inkscape:connector-curvature="0" />
        </g>
        <g
           id="g414"
           transform="translate(145.407,387.965)">
          <path
             d="m 0,0 c -0.691,-2.374 -0.115,-5.024 0.139,-7.467 0.068,-2.996 -0.738,-5.969 -0.07,-8.896 0.392,-1.774 0.973,-3.773 1.964,-5.317 -0.968,0.161 -1.85,0.676 -2.726,1.022 -3.387,2.719 -2.027,8.075 -1.519,11.762 0.23,2.766 0.092,5.854 -0.761,8.412 -0.23,1.636 -0.161,3.503 0.069,5.139 C -1.936,3.111 -1.014,1.498 0,0"
             style="fill:#ffffff;fill-opacity:1;fill-rule:nonzero;stroke:none"
             id="path416"
             inkscape:connector-curvature="0" />
        </g>
        <g
           id="g418"
           transform="translate(147.537,366.221)">
          <path
             d="M 0,0 -0.104,0.017 C -0.791,0.132 -1.435,0.422 -2.057,0.704 -2.314,0.82 -2.58,0.94 -2.84,1.043 L -2.852,1.05 c -3.002,2.409 -2.305,6.846 -1.746,10.412 0.076,0.489 0.149,0.95 0.21,1.392 0.262,3.156 -0.007,6.136 -0.76,8.391 -0.213,1.514 -0.188,3.344 0.068,5.16 l 0.018,0.127 0.068,-0.108 c 0.343,-0.547 0.685,-1.111 1.016,-1.657 0.606,-0.998 1.232,-2.03 1.887,-2.997 l 0.012,-0.018 -0.006,-0.021 c -0.554,-1.905 -0.289,-3.991 -0.032,-6.008 0.061,-0.476 0.123,-0.967 0.173,-1.441 0.025,-1.126 -0.073,-2.26 -0.167,-3.356 -0.158,-1.823 -0.321,-3.708 0.096,-5.534 0.518,-2.343 1.14,-4.028 1.958,-5.303 z m -2.798,1.127 c 0.259,-0.103 0.523,-0.222 0.78,-0.338 0.584,-0.264 1.189,-0.537 1.825,-0.661 -0.796,1.274 -1.406,2.944 -1.914,5.243 -0.419,1.84 -0.256,3.733 -0.097,5.563 0.094,1.094 0.192,2.225 0.166,3.342 -0.049,0.469 -0.111,0.96 -0.172,1.435 -0.257,2.02 -0.523,4.107 0.029,6.025 -0.652,0.964 -1.275,1.99 -1.877,2.983 -0.308,0.509 -0.627,1.034 -0.947,1.546 -0.238,-1.767 -0.257,-3.537 -0.052,-4.999 0.755,-2.258 1.026,-5.252 0.762,-8.422 -0.062,-0.446 -0.134,-0.908 -0.211,-1.396 -0.555,-3.54 -1.246,-7.945 1.708,-10.321"
             style="fill:#140e0c;fill-opacity:1;fill-rule:nonzero;stroke:none"
             id="path420"
             inkscape:connector-curvature="0" />
        </g>
      </g>
    </g>
    <g
       id="g430"
       transform="matrix(1.7548512,0,0,-1.7548512,76.388485,252.55057)"
       inkscape:export-filename="C:\Users\suitedoalex\sites\real-sociedad-logo-4.png"
       inkscape:export-xdpi="94.44342"
       inkscape:export-ydpi="94.44342">
      <path
         d="M 0,0 C -0.381,0.352 -0.776,0.721 -1.183,1.1 -1.604,1.491 -2.04,1.898 -2.493,2.319 -2.451,2.33 -2.41,2.34 -2.367,2.352 -1.479,1.608 -0.796,1.117 -0.272,0.817 0.246,0.52 0.629,0.4 0.889,0.426 1.417,0.478 1.077,1.074 0.549,1.614 0.226,1.943 -0.093,2.203 -0.42,2.38 -0.644,2.496 -1.006,2.664 -1.431,2.812 -1.68,2.906 -1.925,2.999 -2.17,3.092 -2.527,3.231 -2.851,3.371 -3.151,3.517 -3.45,3.663 -3.73,3.816 -3.998,3.988 c -0.503,0.309 -1.069,0.765 -1.689,1.344 -0.711,0.665 -1.41,1.43 -1.89,2.123 -0.515,0.744 -0.783,1.413 -0.527,1.757 0.135,0.181 0.443,0.224 0.726,0.229 0.289,0.006 0.549,-0.032 0.569,-0.008 0.097,0.115 -0.107,0.389 -0.492,0.859 0.045,0.06 0.09,0.121 0.136,0.183 C -6.456,9.724 -5.777,9.005 -5.13,8.321 -4.512,7.667 -3.919,7.038 -3.351,6.44 -3.404,6.407 -3.455,6.375 -3.506,6.343 -4.361,7.108 -5.25,7.792 -5.985,8.236 -6.73,8.686 -7.288,8.869 -7.48,8.644 -7.73,8.349 -7.173,7.49 -6.355,6.703 -5.848,6.217 -5.453,5.899 -5.154,5.739 -4.856,5.579 -4.318,5.358 -3.598,5.098 -3.283,4.987 -2.964,4.873 -2.643,4.758 -2.253,4.635 -1.852,4.452 -1.466,4.206 -0.719,3.765 -0.046,3.21 0.588,2.533 1.141,1.942 1.573,1.327 1.71,0.863 1.839,0.432 1.712,0.133 1.192,0.092 0.973,0.075 0.66,0.137 0.298,0.25 0.247,0.264 0.198,0.279 0.148,0.294 0.074,0.317 -0.001,0.338 -0.031,0.335 -0.137,0.324 -0.055,0.217 0.134,0.01 0.089,0.007 0.045,0.003 0,0"
         style="fill:#2159b0;fill-opacity:1;fill-rule:nonzero;stroke:none"
         id="path432"
         inkscape:connector-curvature="0" />
    </g>
    <g
       id="g434"
       transform="matrix(1.7548512,0,0,-1.7548512,69.714755,233.93514)"
       inkscape:export-filename="C:\Users\suitedoalex\sites\real-sociedad-logo-4.png"
       inkscape:export-xdpi="94.44342"
       inkscape:export-ydpi="94.44342">
      <path
         d="m 0,0 c 0.014,0.014 0.029,0.028 0.044,0.042 0.403,-0.383 0.812,-0.77 1.227,-1.163 0.424,-0.402 0.855,-0.811 1.294,-1.228 -0.02,-0.024 -0.041,-0.05 -0.061,-0.074 -0.689,0.587 -1.31,0.994 -1.798,1.21 -0.487,0.217 -0.853,0.25 -1.026,0.08 -0.267,-0.261 0.049,-0.905 0.572,-1.439 0.177,-0.18 0.33,-0.311 0.498,-0.431 C 0.967,-3.147 1.206,-3.26 1.472,-3.35 1.676,-3.429 2.033,-3.484 2.564,-3.567 2.945,-3.627 3.295,-3.706 3.611,-3.803 3.926,-3.9 4.212,-4.019 4.466,-4.158 4.968,-4.456 5.527,-4.875 6.132,-5.455 6.897,-6.188 7.548,-7.008 7.973,-7.757 8.414,-8.533 8.615,-9.235 8.442,-9.67 8.328,-9.955 8.143,-10.087 7.605,-10.073 7.456,-10.1 7.373,-10.136 7.346,-10.199 7.291,-10.326 7.42,-10.675 7.825,-11.22 7.807,-11.265 7.789,-11.309 7.771,-11.355 7.094,-10.65 6.43,-9.959 5.786,-9.288 c -0.629,0.655 -1.244,1.295 -1.842,1.917 0.022,0.037 0.044,0.072 0.066,0.11 1.075,-0.968 1.986,-1.608 2.663,-1.927 0.68,-0.32 1.109,-0.306 1.243,0.011 0.197,0.462 -0.396,1.465 -1.14,2.192 -0.47,0.459 -0.903,0.732 -1.38,0.92 -0.264,0.108 -0.566,0.15 -0.993,0.209 -0.613,0.086 -1.082,0.193 -1.495,0.35 -0.414,0.156 -0.77,0.355 -1.16,0.619 -0.355,0.258 -0.771,0.607 -1.145,0.996 -0.638,0.665 -1.114,1.353 -1.36,1.928 -0.238,0.556 -0.263,1.007 -0.016,1.239 0.084,0.079 0.202,0.124 0.338,0.127 0.227,0.026 0.752,-0.106 0.82,-0.039 C 0.453,-0.57 0.42,-0.473 0,0"
         style="fill:#2159b0;fill-opacity:1;fill-rule:nonzero;stroke:none"
         id="path436"
         inkscape:connector-curvature="0" />
    </g>
    <g
       id="g438"
       transform="matrix(1.7548512,0,0,-1.7548512,77.441364,157.21654)"
       inkscape:export-filename="C:\Users\suitedoalex\sites\real-sociedad-logo-4.png"
       inkscape:export-xdpi="94.44342"
       inkscape:export-ydpi="94.44342">
      <path
         d="M 0,0 C 0,0.461 0.373,0.833 0.833,0.833 1.294,0.833 1.667,0.461 1.667,0 1.667,-0.461 1.294,-0.834 0.833,-0.834 0.373,-0.834 0,-0.461 0,0"
         style="fill:#dcae2b;fill-opacity:1;fill-rule:nonzero;stroke:none"
         id="path440"
         inkscape:connector-curvature="0" />
    </g>
    <g
       id="g442"
       transform="matrix(1.7548512,0,0,-1.7548512,73.226222,159.75228)"
       inkscape:export-filename="C:\Users\suitedoalex\sites\real-sociedad-logo-4.png"
       inkscape:export-xdpi="94.44342"
       inkscape:export-ydpi="94.44342">
      <path
         d="M 0,0 C 0,0.46 0.374,0.834 0.833,0.834 1.295,0.834 1.667,0.46 1.667,0 1.667,-0.46 1.295,-0.833 0.833,-0.833 0.374,-0.833 0,-0.46 0,0"
         style="fill:#dcae2b;fill-opacity:1;fill-rule:nonzero;stroke:none"
         id="path444"
         inkscape:connector-curvature="0" />
    </g>
    <g
       id="g446"
       transform="matrix(1.7548512,0,0,-1.7548512,70.135937,161.98448)"
       inkscape:export-filename="C:\Users\suitedoalex\sites\real-sociedad-logo-4.png"
       inkscape:export-xdpi="94.44342"
       inkscape:export-ydpi="94.44342">
      <path
         d="M 0,0 C 0,0.46 0.374,0.833 0.833,0.833 1.294,0.833 1.667,0.46 1.667,0 1.667,-0.461 1.294,-0.834 0.833,-0.834 0.374,-0.834 0,-0.461 0,0"
         style="fill:#dcae2b;fill-opacity:1;fill-rule:nonzero;stroke:none"
         id="path448"
         inkscape:connector-curvature="0" />
    </g>
    <g
       id="g450"
       transform="matrix(1.7548512,0,0,-1.7548512,67.654566,168.26155)"
       inkscape:export-filename="C:\Users\suitedoalex\sites\real-sociedad-logo-4.png"
       inkscape:export-xdpi="94.44342"
       inkscape:export-ydpi="94.44342">
      <path
         d="M 0,0 C 0,0.46 0.373,0.834 0.833,0.834 1.294,0.834 1.667,0.46 1.667,0 1.667,-0.461 1.294,-0.834 0.833,-0.834 0.373,-0.834 0,-0.461 0,0"
         style="fill:#dcae2b;fill-opacity:1;fill-rule:nonzero;stroke:none"
         id="path452"
         inkscape:connector-curvature="0" />
    </g>
    <g
       id="g454"
       transform="matrix(1.7548512,0,0,-1.7548512,67.356252,171.61334)"
       inkscape:export-filename="C:\Users\suitedoalex\sites\real-sociedad-logo-4.png"
       inkscape:export-xdpi="94.44342"
       inkscape:export-ydpi="94.44342">
      <path
         d="M 0,0 C 0,0.46 0.373,0.834 0.833,0.834 1.294,0.834 1.667,0.46 1.667,0 1.667,-0.461 1.294,-0.834 0.833,-0.834 0.373,-0.834 0,-0.461 0,0"
         style="fill:#dcae2b;fill-opacity:1;fill-rule:nonzero;stroke:none"
         id="path456"
         inkscape:connector-curvature="0" />
    </g>
    <g
       id="g458"
       transform="matrix(1.7548512,0,0,-1.7548512,85.6769,156.13202)"
       inkscape:export-filename="C:\Users\suitedoalex\sites\real-sociedad-logo-4.png"
       inkscape:export-xdpi="94.44342"
       inkscape:export-ydpi="94.44342">
      <path
         d="M 0,0 C 0,0.46 0.374,0.834 0.833,0.834 1.294,0.834 1.668,0.46 1.668,0 1.668,-0.46 1.294,-0.834 0.833,-0.834 0.374,-0.834 0,-0.46 0,0"
         style="fill:#dcae2b;fill-opacity:1;fill-rule:nonzero;stroke:none"
         id="path460"
         inkscape:connector-curvature="0" />
    </g>
    <g
       id="g462"
       transform="matrix(1.7548512,0,0,-1.7548512,81.847819,158.44318)"
       inkscape:export-filename="C:\Users\suitedoalex\sites\real-sociedad-logo-4.png"
       inkscape:export-xdpi="94.44342"
       inkscape:export-ydpi="94.44342">
      <path
         d="M 0,0 C 0,0.46 0.374,0.834 0.834,0.834 1.295,0.834 1.667,0.46 1.667,0 1.667,-0.461 1.295,-0.834 0.834,-0.834 0.374,-0.834 0,-0.461 0,0"
         style="fill:#dcae2b;fill-opacity:1;fill-rule:nonzero;stroke:none"
         id="path464"
         inkscape:connector-curvature="0" />
    </g>
    <g
       id="g466"
       transform="matrix(1.7548512,0,0,-1.7548512,80.329887,161.83884)"
       inkscape:export-filename="C:\Users\suitedoalex\sites\real-sociedad-logo-4.png"
       inkscape:export-xdpi="94.44342"
       inkscape:export-ydpi="94.44342">
      <path
         d="M 0,0 C 0,0.46 0.373,0.834 0.833,0.834 1.294,0.834 1.667,0.46 1.667,0 1.667,-0.46 1.294,-0.834 0.833,-0.834 0.373,-0.834 0,-0.46 0,0"
         style="fill:#dcae2b;fill-opacity:1;fill-rule:nonzero;stroke:none"
         id="path468"
         inkscape:connector-curvature="0" />
    </g>
    <g
       id="g470"
       transform="matrix(1.7548512,0,0,-1.7548512,79.180456,165.09053)"
       inkscape:export-filename="C:\Users\suitedoalex\sites\real-sociedad-logo-4.png"
       inkscape:export-xdpi="94.44342"
       inkscape:export-ydpi="94.44342">
      <path
         d="M 0,0 C 0,0.368 0.298,0.667 0.667,0.667 1.035,0.667 1.333,0.368 1.333,0 1.333,-0.369 1.035,-0.667 0.667,-0.667 0.298,-0.667 0,-0.369 0,0"
         style="fill:#dcae2b;fill-opacity:1;fill-rule:nonzero;stroke:none"
         id="path472"
         inkscape:connector-curvature="0" />
    </g>
    <g
       id="g474"
       transform="matrix(1.7548512,0,0,-1.7548512,90.009635,155.6986)"
       inkscape:export-filename="C:\Users\suitedoalex\sites\real-sociedad-logo-4.png"
       inkscape:export-xdpi="94.44342"
       inkscape:export-ydpi="94.44342">
      <path
         d="M 0,0 C 0,0.46 0.373,0.833 0.833,0.833 1.294,0.833 1.667,0.46 1.667,0 1.667,-0.461 1.294,-0.834 0.833,-0.834 0.373,-0.834 0,-0.461 0,0"
         style="fill:#dcae2b;fill-opacity:1;fill-rule:nonzero;stroke:none"
         id="path476"
         inkscape:connector-curvature="0" />
    </g>
    <g
       id="g478"
       transform="matrix(1.7548512,0,0,-1.7548512,111.9663,164.33423)"
       inkscape:export-filename="C:\Users\suitedoalex\sites\real-sociedad-logo-4.png"
       inkscape:export-xdpi="94.44342"
       inkscape:export-ydpi="94.44342">
      <path
         d="M 0,0 C 0,0.46 0.374,0.834 0.833,0.834 1.295,0.834 1.668,0.46 1.668,0 1.668,-0.461 1.295,-0.834 0.833,-0.834 0.374,-0.834 0,-0.461 0,0"
         style="fill:#dcae2b;fill-opacity:1;fill-rule:nonzero;stroke:none"
         id="path480"
         inkscape:connector-curvature="0" />
    </g>
    <g
       id="g482"
       transform="matrix(1.7548512,0,0,-1.7548512,103.17976,157.21654)"
       inkscape:export-filename="C:\Users\suitedoalex\sites\real-sociedad-logo-4.png"
       inkscape:export-xdpi="94.44342"
       inkscape:export-ydpi="94.44342">
      <path
         d="M 0,0 C 0,0.461 0.373,0.833 0.833,0.833 1.295,0.833 1.667,0.461 1.667,0 1.667,-0.461 1.295,-0.834 0.833,-0.834 0.373,-0.834 0,-0.461 0,0"
         style="fill:#dcae2b;fill-opacity:1;fill-rule:nonzero;stroke:none"
         id="path484"
         inkscape:connector-curvature="0" />
    </g>
    <g
       id="g486"
       transform="matrix(1.7548512,0,0,-1.7548512,106.7439,159.0293)"
       inkscape:export-filename="C:\Users\suitedoalex\sites\real-sociedad-logo-4.png"
       inkscape:export-xdpi="94.44342"
       inkscape:export-ydpi="94.44342">
      <path
         d="M 0,0 C 0,0.461 0.373,0.834 0.833,0.834 1.294,0.834 1.667,0.461 1.667,0 1.667,-0.46 1.294,-0.833 0.833,-0.833 0.373,-0.833 0,-0.46 0,0"
         style="fill:#dcae2b;fill-opacity:1;fill-rule:nonzero;stroke:none"
         id="path488"
         inkscape:connector-curvature="0" />
    </g>
    <g
       id="g490"
       transform="matrix(1.7548512,0,0,-1.7548512,109.83418,161.26146)"
       inkscape:export-filename="C:\Users\suitedoalex\sites\real-sociedad-logo-4.png"
       inkscape:export-xdpi="94.44342"
       inkscape:export-ydpi="94.44342">
      <path
         d="M 0,0 C 0,0.46 0.373,0.833 0.833,0.833 1.294,0.833 1.667,0.46 1.667,0 1.667,-0.461 1.294,-0.834 0.833,-0.834 0.373,-0.834 0,-0.461 0,0"
         style="fill:#dcae2b;fill-opacity:1;fill-rule:nonzero;stroke:none"
         id="path492"
         inkscape:connector-curvature="0" />
    </g>
    <g
       id="g494"
       transform="matrix(1.7548512,0,0,-1.7548512,112.8227,167.54031)"
       inkscape:export-filename="C:\Users\suitedoalex\sites\real-sociedad-logo-4.png"
       inkscape:export-xdpi="94.44342"
       inkscape:export-ydpi="94.44342">
      <path
         d="M 0,0 C 0,0.46 0.373,0.834 0.833,0.834 1.294,0.834 1.667,0.46 1.667,0 1.667,-0.46 1.294,-0.833 0.833,-0.833 0.373,-0.833 0,-0.46 0,0"
         style="fill:#dcae2b;fill-opacity:1;fill-rule:nonzero;stroke:none"
         id="path496"
         inkscape:connector-curvature="0" />
    </g>
    <g
       id="g498"
       transform="matrix(1.7548512,0,0,-1.7548512,113.04729,171.10794)"
       inkscape:export-filename="C:\Users\suitedoalex\sites\real-sociedad-logo-4.png"
       inkscape:export-xdpi="94.44342"
       inkscape:export-ydpi="94.44342">
      <path
         d="M 0,0 C 0,0.46 0.373,0.833 0.833,0.833 1.294,0.833 1.667,0.46 1.667,0 1.667,-0.461 1.294,-0.834 0.833,-0.834 0.373,-0.834 0,-0.461 0,0"
         style="fill:#dcae2b;fill-opacity:1;fill-rule:nonzero;stroke:none"
         id="path500"
         inkscape:connector-curvature="0" />
    </g>
    <g
       id="g502"
       transform="matrix(1.7548512,0,0,-1.7548512,94.944272,156.13202)"
       inkscape:export-filename="C:\Users\suitedoalex\sites\real-sociedad-logo-4.png"
       inkscape:export-xdpi="94.44342"
       inkscape:export-ydpi="94.44342">
      <path
         d="M 0,0 C 0,0.46 0.374,0.834 0.833,0.834 1.294,0.834 1.667,0.46 1.667,0 1.667,-0.46 1.294,-0.834 0.833,-0.834 0.374,-0.834 0,-0.46 0,0"
         style="fill:#dcae2b;fill-opacity:1;fill-rule:nonzero;stroke:none"
         id="path504"
         inkscape:connector-curvature="0" />
    </g>
    <g
       id="g506"
       transform="matrix(1.7548512,0,0,-1.7548512,98.411866,158.44318)"
       inkscape:export-filename="C:\Users\suitedoalex\sites\real-sociedad-logo-4.png"
       inkscape:export-xdpi="94.44342"
       inkscape:export-ydpi="94.44342">
      <path
         d="M 0,0 C 0,0.46 0.374,0.834 0.833,0.834 1.294,0.834 1.667,0.46 1.667,0 1.667,-0.461 1.294,-0.834 0.833,-0.834 0.374,-0.834 0,-0.461 0,0"
         style="fill:#dcae2b;fill-opacity:1;fill-rule:nonzero;stroke:none"
         id="path508"
         inkscape:connector-curvature="0" />
    </g>
    <g
       id="g510"
       transform="matrix(1.7548512,0,0,-1.7548512,99.784156,161.91076)"
       inkscape:export-filename="C:\Users\suitedoalex\sites\real-sociedad-logo-4.png"
       inkscape:export-xdpi="94.44342"
       inkscape:export-ydpi="94.44342">
      <path
         d="M 0,0 C 0,0.46 0.373,0.834 0.833,0.834 1.294,0.834 1.667,0.46 1.667,0 1.667,-0.461 1.294,-0.833 0.833,-0.833 0.373,-0.833 0,-0.461 0,0"
         style="fill:#dcae2b;fill-opacity:1;fill-rule:nonzero;stroke:none"
         id="path512"
         inkscape:connector-curvature="0" />
    </g>
    <g
       id="g514"
       transform="matrix(1.7548512,0,0,-1.7548512,101.3758,165.09053)"
       inkscape:export-filename="C:\Users\suitedoalex\sites\real-sociedad-logo-4.png"
       inkscape:export-xdpi="94.44342"
       inkscape:export-ydpi="94.44342">
      <path
         d="M 0,0 C 0,0.368 0.299,0.667 0.667,0.667 1.036,0.667 1.333,0.368 1.333,0 1.333,-0.369 1.036,-0.667 0.667,-0.667 0.299,-0.667 0,-0.369 0,0"
         style="fill:#dcae2b;fill-opacity:1;fill-rule:nonzero;stroke:none"
         id="path516"
         inkscape:connector-curvature="0" />
    </g>
    <g
       id="g518"
       transform="matrix(1.7548512,0,0,-1.7548512,68.7935,192.70665)"
       inkscape:export-filename="C:\Users\suitedoalex\sites\real-sociedad-logo-4.png"
       inkscape:export-xdpi="94.44342"
       inkscape:export-ydpi="94.44342">
      <path
         d="m 0,0 c -1.077,-1.167 -2.087,-2.491 -2.872,-3.838 -4.197,5.118 -8.414,11.015 -9.85,17.343 z"
         style="fill:#ffffff;fill-opacity:1;fill-rule:nonzero;stroke:none"
         id="path520"
         inkscape:connector-curvature="0" />
    </g>
  </g>
</svg>
