<svg id="Layer_1" data-name="Layer 1" xmlns="http://www.w3.org/2000/svg" xmlns:xlink="http://www.w3.org/1999/xlink" width="160.54" height="201.79" viewBox="0 0 160.54 201.79"><defs><clipPath id="clip-path" transform="translate(-303.73 -283.16)"><path d="M382.54,472.45c-23.1-19.45-43.63-46.68-55.78-75.76l111.71.84c-12.15,29.1-32.82,55.47-55.93,74.92" style="fill:none"/></clipPath></defs><title>UD Almeria logo - Brandlogos.net</title><path d="M304.77,316.63h44.7c1-18.2,16.85-33,35.31-33a34.67,34.67,0,0,1,34.62,32.93l43.77,0c5.79,64.14-30.76,133.81-82.62,167.71-51.85-33.91-81.39-103.58-75.61-167.71l43.77,0S304.77,316.63,304.77,316.63Z" transform="translate(-303.73 -283.16)" style="fill:#f3c914;fill-rule:evenodd"/><path d="M304.77,316.63h44.7c1-18.2,16.85-33,35.31-33a34.67,34.67,0,0,1,34.62,32.93l43.77,0c5.79,64.14-30.76,133.81-82.62,167.71-51.85-33.91-81.39-103.58-75.61-167.71l43.77,0S304.77,316.63,304.77,316.63Z" transform="translate(-303.73 -283.16)" style="fill:none;stroke:#231f20;stroke-miterlimit:3.864"/><path d="M360.33,316.29a23.84,23.84,0,1,1,47.69,0Z" transform="translate(-303.73 -283.16)" style="fill:#fff"/><path d="M360.33,316.29a23.84,23.84,0,1,1,47.69,0Z" transform="translate(-303.73 -283.16)" style="fill:none;stroke:#231f20;stroke-miterlimit:3.864"/><path d="M375.58,306.71a8.57,8.57,0,1,1,8.57,8.58A8.57,8.57,0,0,1,375.58,306.71Z" transform="translate(-303.73 -283.16)" style="fill:#f3c914"/><path d="M375.58,306.71a8.57,8.57,0,1,1,8.57,8.58A8.57,8.57,0,0,1,375.58,306.71Z" transform="translate(-303.73 -283.16)" style="fill:none;stroke:#231f20;stroke-miterlimit:3.864"/><path d="M450.22,356.3a157.34,157.34,0,0,0,2-33H390.51v10.76l22.21,22.22Z" transform="translate(-303.73 -283.16)" style="fill:#fff"/><path d="M450.22,356.3a157.34,157.34,0,0,0,2-33H390.51v10.76l22.21,22.22Z" transform="translate(-303.73 -283.16)" style="fill:none;stroke:#231f20;stroke-miterlimit:3.864"/><path d="M317.47,356.3a156.87,156.87,0,0,1-2-33h61.72v10.76L355,356.32Z" transform="translate(-303.73 -283.16)" style="fill:#fff"/><path d="M317.47,356.3a156.87,156.87,0,0,1-2-33h61.72v10.76L355,356.32Z" transform="translate(-303.73 -283.16)" style="fill:none;stroke:#231f20;stroke-miterlimit:3.864"/><path d="M382.54,472.45a205.76,205.76,0,0,1-55.79-75.76l111.72.84c-12.16,29.1-32.82,55.49-55.93,74.92" transform="translate(-303.73 -283.16)" style="fill:#fff"/><g style="clip-path:url(#clip-path)"><rect x="38.68" y="113.54" width="14.13" height="75.76" style="fill:#ec2227"/><rect x="70.81" y="113.54" width="14.13" height="75.76" style="fill:#ec2227"/><rect x="102.92" y="113.54" width="14.13" height="75.76" style="fill:#ec2227"/></g><path d="M382.54,472.45a205.76,205.76,0,0,1-55.79-75.76l111.72.84C426.3,426.63,405.64,453,382.54,472.45Z" transform="translate(-303.73 -283.16)" style="fill:none;stroke:#231f20;stroke-miterlimit:3.864"/><path d="M345.33,329.86v15c0,2.38-1.62,3.7-5.15,3.7-3,0-5-1-5-3.7v-15h-8.11v15.32c0,4.06,4.3,6.65,13.21,6.65,9.88,0,13.15-3.43,13.15-6.65V329.86h-8.11" transform="translate(-303.73 -283.16)" style="fill:#ec2227"/><path d="M414.17,350.7h13.21c13.85,0,12.93-7.6,12.93-10.94,0-6.74-2-10.69-12.61-10.69H414.17V350.7m8.11-18.29h4.18c5.63,0,5.63,3.49,5.63,7.47,0,5.42-1,7.49-5.9,7.49h-3.91Z" transform="translate(-303.73 -283.16)" style="fill:#ec2227;fill-rule:evenodd"/><path d="M384.58,343l-25.31,23-41.38.14a177.38,177.38,0,0,0,6.34,21.13H442.09a183,183,0,0,0,6.34-21.54l-41.44.14Z" transform="translate(-303.73 -283.16)" style="fill:#00579e"/><path d="M384.58,343l-25.31,23-41.38.14a177.38,177.38,0,0,0,6.34,21.13H442.09a183,183,0,0,0,6.34-21.54l-41.44.14Z" transform="translate(-303.73 -283.16)" style="fill:none;stroke:#231f20;stroke-miterlimit:3.864"/><path d="M432.55,378.41l-2.13-5.86-2.07,5.86h4.19m-6.25,5.06H422l5.82-13.53h5.8l5.7,13.53h-4.62l-1.16-3h-6Zm-6.42,0h-4.4V370h4.4Zm-16.27-5.58v5.58h-4.39V369.94h8.11c3,0,4.92,1.25,4.92,3.56,0,1.7-1,3-3.9,3.34,1,.09,3.81.23,3.81,2.66,0,.86.09,3.4.5,4h-4.31a4.13,4.13,0,0,1-.47-2.61c0-1.61.23-3-3.14-3Zm0-5.86v3.77h2a2,2,0,0,0,2.25-2c0-1.27-.85-1.77-2.25-1.77Zm-7.15,11.44H384.75V369.94h11.47V372h-7.08v3.34h6.52v2.09h-6.52v3.95h7.31Zm-31.74,0h-4.28V369.94h7.07l3.29,9.19,3.54-9.19h6.85v13.53h-4.29V373l-4.1,10.42h-4.18L364.76,373Zm-6.1,0h-11V369.94H352v11.28h6.58Zm-26,0h-4.35L334,369.94h5.8l5.69,13.53h-4.62l-1.16-3h-6Zm6.25-5.06-2.13-5.86-2.07,5.86Z" transform="translate(-303.73 -283.16)" style="fill:#fff"/><path d="M338.82,378.41h-4.19l2-5.83h.06l2.12,5.83m-6.25,5.06,1.2-3h6l1.16,3h4.63L339.84,370h-5.79l-5.82,13.5Z" transform="translate(-303.73 -283.16)" style="fill:#fff;fill-rule:evenodd"/><polyline points="54.87 100.31 54.87 98.09 48.3 98.09 48.3 86.81 43.91 86.81 43.91 100.31 54.87 100.31" style="fill:#fff"/><polyline points="60.99 100.31 60.99 89.89 61.05 89.89 64.89 100.31 69.08 100.31 73.12 89.89 73.18 89.89 73.18 100.31 77.46 100.31 77.46 86.81 70.63 86.81 67.12 96 67.07 96 63.78 86.81 56.71 86.81 56.71 100.31 60.99 100.31" style="fill:#fff"/><polyline points="92.72 100.31 92.72 98.25 85.42 98.25 85.42 94.3 91.93 94.3 91.93 92.21 85.42 92.21 85.42 88.9 92.49 88.9 92.49 86.81 81.02 86.81 81.02 100.31 92.72 100.31" style="fill:#fff"/><path d="M403.61,377.88h1.14c3.37,0,3.14,1.36,3.14,3a4.13,4.13,0,0,0,.47,2.61h4.31c-.41-.57-.5-3.11-.5-4,0-2.43-2.85-2.59-3.81-2.66v0c2.86-.32,3.9-1.61,3.9-3.31,0-2.31-1.93-3.56-4.91-3.56h-8.12v13.53h4.39v-5.58m0-5.86h2c1.4,0,2.25.5,2.25,1.77a2,2,0,0,1-2.25,2h-2Z" transform="translate(-303.73 -283.16)" style="fill:#fff;fill-rule:evenodd"/><rect x="111.75" y="86.81" width="4.4" height="13.5" style="fill:#fff"/><path d="M432.55,378.41h-4.18l2-5.83h.06l2.12,5.83m-6.25,5.06,1.2-3h6l1.16,3h4.62L433.58,370h-5.79L422,383.47Z" transform="translate(-303.73 -283.16)" style="fill:#fff;fill-rule:evenodd"/><path d="M363.57,429.2a19,19,0,1,1,19,19,19,19,0,0,1-19-19" transform="translate(-303.73 -283.16)" style="fill:#ba6b28"/><path d="M373.72,426a19.06,19.06,0,0,1,18.2-13.48" transform="translate(-303.73 -283.16)" style="fill:none;stroke:#231f20;stroke-miterlimit:3.864"/><path d="M382.43,427.93a19,19,0,0,1,15.7-9.17" transform="translate(-303.73 -283.16)" style="fill:none;stroke:#231f20;stroke-miterlimit:3.864"/><path d="M381.93,427.65a19.05,19.05,0,0,1-15.71-8.26" transform="translate(-303.73 -283.16)" style="fill:none;stroke:#231f20;stroke-miterlimit:3.864"/><path d="M382,427.83a18.7,18.7,0,0,1,.59,4.88,18.93,18.93,0,0,1-6.68,14.48" transform="translate(-303.73 -283.16)" style="fill:none;stroke:#231f20;stroke-miterlimit:3.864"/><path d="M381.94,436.73a12.21,12.21,0,0,1-1.58.07,19,19,0,0,1-16.65-9.8" transform="translate(-303.73 -283.16)" style="fill:none;stroke:#231f20;stroke-miterlimit:3.864"/><path d="M389.08,421.07a19.11,19.11,0,0,1-4.32,27.12" transform="translate(-303.73 -283.16)" style="fill:none;stroke:#231f20;stroke-miterlimit:3.864"/><path d="M363.57,429.2a19,19,0,1,1,19,19,19,19,0,0,1-19-19" transform="translate(-303.73 -283.16)" style="fill:none"/><path d="M363.57,429.2a19,19,0,1,1,19,19A19,19,0,0,1,363.57,429.2Z" transform="translate(-303.73 -283.16)" style="fill:none;stroke:#231f20;stroke-miterlimit:3.864"/></svg>