<?xml version="1.0" encoding="UTF-8"?>
<!DOCTYPE svg PUBLIC "-//W3C//DTD SVG 1.1//EN" "http://www.w3.org/Graphics/SVG/1.1/DTD/svg11.dtd">
<!-- Creator: CorelDRAW 2019 (64-Bit) -->
<svg xmlns="http://www.w3.org/2000/svg" xml:space="preserve" width="175.092mm" height="255.331mm" version="1.1" style="shape-rendering:geometricPrecision; text-rendering:geometricPrecision; image-rendering:optimizeQuality; fill-rule:evenodd; clip-rule:evenodd"
viewBox="0 0 174.9116 255.0678"
 xmlns:xlink="http://www.w3.org/1999/xlink"
 xmlns:xodm="http://www.corel.com/coreldraw/odm/2003">
 <defs>
  <style type="text/css">
   <![CDATA[
    .fil1 {fill:#E42D24}
    .fil0 {fill:#F7C33F}
    .fil4 {fill:#3068B0}
    .fil2 {fill:black}
    .fil3 {fill:white}
   ]]>
  </style>
 </defs>
 <g id="Layer_x0020_1">
  <metadata id="CorelCorpID_0Corel-Layer"/>
  <g id="_913299104">
   <path class="fil0" d="M36.0344 40.6881c1.4354,-7.6778 6.8095,-13.3831 13.6764,-15.0229 0.3778,-0.0924 0.7106,-0.1013 1.1203,-0.1813 0.9267,-0.1815 2.1064,-0.3967 3.2395,-0.2668 0.0349,0.0018 0.0855,0 0.0794,0 0.8975,0.1103 1.804,0.1405 2.7586,0.313 0.9129,0.1618 1.8419,0.4927 2.6775,0.8039 0.2036,0.0783 0.6475,0.4144 0.8809,0.3593l0.0397 -0.0908c1.0977,-1.0866 2.0035,-2.4062 3.1593,-3.4413 2.6375,-2.3708 6.5646,-4.0763 11.2344,-4.0692 1.9114,0.0018 3.5258,0.4375 5.1986,0.715 -0.8837,-3.7296 1.2143,-7.1352 3.159,-8.4496 0.7489,-0.5087 1.611,-0.8039 2.48,-1.2076l0 -3.2635 -3.1999 0 0 -3.4431 3.1999 0c0,-1.1311 0,-2.3885 0.0382,-3.4431l3.3595 0c0.0375,1.0546 0.0375,2.312 0.0375,3.4431l3.2001 0 0 3.4431 -3.2001 0 0 3.2635c0.8692,0.4037 1.7314,0.6989 2.4804,1.2076 1.9443,1.3143 4.0423,4.72 3.1594,8.4496 1.6723,-0.2774 3.2874,-0.7132 5.1986,-0.715 4.67,-0.0071 8.5971,1.7002 11.2336,4.0692 1.156,1.035 2.062,2.3547 3.1595,3.4413l0.0404 0.0908c0.2328,0.055 0.6774,-0.281 0.8809,-0.3593 0.8344,-0.3112 1.7638,-0.642 2.6766,-0.8039 0.9545,-0.1707 1.8612,-0.2027 2.7589,-0.313 -0.0064,0 0.0446,0.0018 0.0798,0 1.1332,-0.1299 2.312,0.0853 3.2388,0.2668 0.4094,0.08 0.7432,0.0889 1.1206,0.1813 6.8666,1.638 12.2411,7.3451 13.6763,15.0229 0.2751,1.4726 0.3986,3.3169 0.2792,5.0953 -0.5356,8.0049 -3.0276,13.3938 -5.8391,18.8235 -1.2414,2.4045 -2.6705,5.3603 -4.7971,6.7511 0.3169,0.4997 0.717,0.9817 0.96,1.5668 0.5543,1.3321 0.5296,3.171 0.0806,4.5593 -1.6619,5.1186 -9.3279,6.4227 -13.9972,3.5305 -2.0752,-1.2851 -3.2034,-2.7941 -3.518,-5.9467 -3.8732,4.123 -12.2898,3.9446 -15.3929,-0.8946 -0.3897,-0.6118 -0.6254,-1.3303 -0.8809,-2.1004 -0.5441,0.8075 -1.047,1.6647 -1.7607,2.28 -1.6645,1.4405 -4.105,2.1663 -6.5551,2.184 -2.4503,-0.0178 -4.8909,-0.7435 -6.5553,-2.184 -0.7136,-0.6154 -1.2163,-1.4726 -1.7605,-2.28 -0.2555,0.7701 -0.4911,1.4887 -0.8809,2.1004 -3.1033,4.8392 -11.5197,5.0176 -15.3928,0.8946 -0.3141,3.1525 -1.4429,4.6616 -3.5181,5.9467 -4.67,2.8922 -12.3354,1.5882 -13.9972,-3.5305 -0.4488,-1.3883 -0.4738,-3.2272 0.0804,-4.5593 0.243,-0.5851 0.6433,-1.0671 0.9603,-1.5668 -2.1265,-1.3909 -3.5557,-4.3466 -4.7972,-6.7511 -2.8117,-5.428 -5.3034,-10.8185 -5.8391,-18.8235 -0.1196,-1.7785 0.0034,-3.6228 0.2785,-5.0953z"/>
   <path class="fil1" d="M53.4302 36.3504c-2.8574,0.217 -4.7873,1.6006 -5.9982,3.6654 -2.1585,3.6797 -0.6079,10.4272 0.5989,13.9949 0.6453,1.9065 1.6215,3.6726 2.521,5.3657 0.5921,1.1151 1.3492,2.1752 2.0371,3.2174 0.9474,1.4369 2.1438,2.7957 1.88,5.4564 1.1594,0.192 2.0194,0.3005 2.92,0.5798 1.5872,0.489 2.6661,1.5348 3.8389,2.4614 0,-1.9029 0.619,-3.0519 1.3971,-4.0709 0.4194,-0.5496 0.8559,-1.0208 1.3991,-1.4317 0.243,-0.1814 0.4474,-0.3308 0.7198,-0.4909 -0.2827,-0.256 -0.5849,-0.594 -0.8363,-0.8946 -1.0643,-1.252 -1.6709,-3.1888 -2.3628,-4.8268 -2.0642,-4.889 -3.8814,-9.9541 -4.636,-16.3638 -0.2306,-1.9545 -0.3499,-4.1776 -0.0798,-6.2157 -0.9476,-0.3095 -2.3898,-0.5247 -3.3986,-0.4464z"/>
   <path class="fil1" d="M76.6985 30.0457c2.1779,0.1813 3.9919,0.8661 5.5993,1.6983l0 25.5746c0,0.9925 -0.0458,2.0382 0.0799,2.9078 0.1514,1.028 0.5495,1.9226 1.0012,2.6376 -2.5217,1.3249 -3.5125,2.2302 -4.7206,5.0526 -1.0343,-2.2319 -3.1047,-3.5 -5.5152,-4.2044 0.1346,-0.7415 0.3819,-1.4369 0.3189,-2.3671 -0.1218,-1.839 -0.9234,-3.0217 -1.4793,-4.3377 -0.5515,-1.3089 -1.1116,-2.6144 -1.6408,-3.934 -1.5631,-3.9002 -4.4074,-12.8371 -2.4399,-18.0641 0.4676,-1.2413 1.2442,-2.1199 2.1211,-2.906 1.5274,-1.3713 3.736,-2.3049 6.6754,-2.0577z"/>
   <path class="fil1" d="M121.4808 36.3504c2.8574,0.217 4.7878,1.6006 5.9982,3.6654 2.1592,3.6797 0.6086,10.4272 -0.5983,13.9949 -0.646,1.9065 -1.6213,3.6726 -2.5211,5.3657 -0.5918,1.1151 -1.3492,2.1752 -2.0369,3.2174 -0.9483,1.4369 -2.144,2.7957 -1.8799,5.4564 -1.1595,0.192 -2.0203,0.3005 -2.9199,0.5798 -1.5883,0.489 -2.6665,1.5348 -3.8391,2.4614 0,-1.9029 -0.619,-3.0519 -1.3978,-4.0709 -0.4197,-0.5496 -0.8552,-1.0208 -1.3984,-1.4317 -0.2432,-0.1814 -0.4476,-0.3308 -0.7207,-0.4909 0.2835,-0.256 0.5858,-0.594 0.8372,-0.8946 1.0638,-1.252 1.6701,-3.1888 2.3622,-4.8268 2.0639,-4.889 3.8814,-9.9541 4.6364,-16.3638 0.2308,-1.9545 0.3502,-4.1776 0.08,-6.2157 0.9474,-0.3095 2.389,-0.5247 3.3979,-0.4464z"/>
   <path class="fil1" d="M98.2125 30.0457c-2.1774,0.1813 -3.9919,0.8661 -5.5987,1.6983l0 25.5746c0,0.9925 0.0459,2.0382 -0.0805,2.9078 -0.1509,1.028 -0.549,1.9226 -1.0005,2.6376 2.5218,1.3249 3.5118,2.2302 4.7205,5.0526 1.0336,-2.2319 3.1048,-3.5 5.5148,-4.2044 -0.1341,-0.7415 -0.3816,-1.4369 -0.3183,-2.3671 0.1215,-1.839 0.9231,-3.0217 1.479,-4.3377 0.551,-1.3089 1.1116,-2.6144 1.641,-3.934 1.5625,-3.9002 4.4074,-12.8371 2.4399,-18.0641 -0.4682,-1.2413 -1.2451,-2.1199 -2.1217,-2.906 -1.527,-1.3713 -3.7361,-2.3049 -6.6755,-2.0577z"/>
   <path class="fil1" d="M-0 167.4482c0,-48.3893 39.153,-87.6151 87.4568,-87.6151 48.2991,0 87.4548,39.2253 87.4548,87.6151 0,48.3914 -39.1551,87.6196 -87.4548,87.6196 -48.3038,0 -87.4568,-39.2282 -87.4568,-87.6196z"/>
   <path class="fil2" d="M11.7045 166.6576c0,1.6771 1.6216,3.0367 3.6251,3.0367 2.0014,0 3.623,-1.3596 3.623,-3.0367 0,-1.6757 -1.6215,-3.0366 -3.623,-3.0366 -2.0034,0 -3.6251,1.3609 -3.6251,3.0366z"/>
   <path class="fil2" d="M19.0054 194.1497c3.9579,-1.1761 6.5533,-5.3618 5.5593,-9.544l-1.2805 -5.3821 -15.2534 3.9844 1.2819 5.3818c1.0324,4.342 5.5806,6.7742 9.6927,5.5599zm-6.2878 -6.4503l0 0 -0.3668 -1.5444 8.4388 -2.2057 0.3674 1.5457c0.5142,2.1578 -1.0379,4.1474 -3.0769,4.7651 -2.1689,0.6495 -4.8164,-0.2701 -5.3625,-2.5607z"/>
   <polygon class="fil2" points="27.9652,201.6153 30.5684,206.5402 33.6378,204.7576 29.2069,196.3757 15.4575,204.3586 20.0163,212.9816 23.0876,211.1969 20.3582,206.0358 22.9701,204.517 25.1913,208.7202 28.2611,206.9355 26.0415,202.7338 "/>
   <path class="fil2" d="M46.3509 217.4833l-3.3443 -2.7385 -9.6753 12.9781 3.6521 2.9907c2.5594,2.098 5.8954,2.667 7.733,0.2008 1.1286,-1.5138 0.9648,-3.3903 -0.0273,-5.0034 1.5333,0.3501 2.9478,-0.0256 3.9149,-1.3233 1.691,-2.2719 0.1242,-5.1612 -2.2532,-7.1044zm-4.3863 10.6551l0 0c-0.6774,0.9093 -1.7647,0.5404 -3.0227,-0.4905l-0.4787 -0.3891 1.8395 -2.4677 0.476 0.3891c1.3407,1.0997 1.8487,2.0709 1.1859,2.9581zm3.1463 -5.3314l0 0c-0.484,0.6468 -1.1977,0.6232 -2.3536,-0.3244l-0.4537 -0.371 1.5152 -2.0349 0.4342 0.3557c1.1559,0.9469 1.3407,1.7236 0.8579,2.3746z"/>
   <path class="fil2" d="M49.1118 238.0262l3.1068 2.4107 2.1732 -2.6226 4.5481 2.1223 -0.4027 3.4493 3.7869 0.8052 1.1184 -17.1463 -2.918 -1.3645 -11.4127 12.3459zm10.2756 -1.9063l0 0 -2.587 -1.2067 3.1906 -3.8626 -0.6036 5.0693z"/>
   <polygon class="fil2" points="116.4184,239.1983 111.0309,240.9253 110.1561,237.9318 114.5404,236.5271 113.5145,233.009 109.13,234.413 108.4881,232.21 113.6241,230.5642 112.5973,227.0469 103.8524,229.8473 108.4506,245.5979 117.4458,242.7169 "/>
   <polygon class="fil2" points="132.3892,230.5983 127.577,233.3938 121.6571,222.206 118.3543,224.1215 125.9785,238.5258 134.0905,233.8175 "/>
   <path class="fil2" d="M132.7025 213.224c-3.0366,3.0714 -2.1174,8.2109 0.8115,11.392 2.9325,3.1777 7.8046,4.315 10.8376,1.245 3.036,-3.0707 2.1195,-8.2109 -0.8121,-11.3893 -2.9312,-3.1804 -7.804,-4.317 -10.837,-1.2478zm9.2495 10.0298l0 0c-1.6241,1.6409 -3.8667,0.5522 -5.6856,-1.4215 -1.8194,-1.9764 -2.7814,-4.3621 -1.1622,-6.0002 1.6214,-1.6408 3.864,-0.5522 5.6849,1.422 1.8207,1.976 2.7825,4.3595 1.1629,5.9997z"/>
   <polygon class="fil2" points="153.8379,200.2042 143.4284,200.6253 141.601,204.0837 155.3525,212.068 157.1817,208.6111 149.3884,204.0864 159.7988,203.6653 161.6257,200.2085 147.8753,192.2219 146.0448,195.6796 "/>
   <path class="fil2" d="M164.0544 181.7136l3.3022 -0.3036 -0.0353 -4.0487 -16.244 2.4162 -0.6629 3.2783 13.9008 9.1266 1.6048 -3.6848 -2.8999 -1.6841 1.0343 -5.0999zm-4.2459 3.2368l0 0 -4.2692 -2.4671 4.8583 -0.4342 -0.5891 2.9012z"/>
   <path class="fil2" d="M156.8421 168.4187c0,1.6737 1.6234,3.0347 3.6229,3.0347 2.0035,0 3.627,-1.361 3.627,-3.0347 0,-1.677 -1.6234,-3.0366 -3.627,-3.0366 -1.9987,0 -3.6229,1.3596 -3.6229,3.0366z"/>
   <polygon class="fil2" points="149.1027,149.093 151.3452,158.5266 154.7524,157.6354 153.4226,152.0394 165.2695,148.9472 164.3547,145.1095 "/>
   <path class="fil2" d="M144.3322 138.2951c2.1084,3.8293 7.0909,4.1446 10.7438,1.9341 3.6521,-2.2079 5.8841,-6.8875 3.7759,-10.716 -2.1078,-3.8287 -7.0912,-4.1432 -10.7433,-1.9333 -3.6529,2.2104 -5.8842,6.888 -3.7764,10.7152zm5.6897 -7.2424l0 0c2.2682,-1.3729 4.7081,-1.7738 5.8362,0.2729 1.1248,2.0453 -0.425,4.0592 -2.6933,5.4335 -2.2698,1.3728 -4.7115,1.7701 -5.8369,-0.2751 -1.1262,-2.0432 0.4243,-4.0607 2.694,-5.4313z"/>
   <polygon class="fil2" points="137.2626,119.0278 132.9158,123.2766 135.5239,126.2097 139.872,121.9602 150.0769,119.4591 148.4402,115.7661 141.135,117.9842 141.6263,116.585 142.0334,116.4906 144.0404,110.6592 143.6721,110.45 143.6701,110.4543 140.3569,108.5367 "/>
   <polygon class="fil2" points="124.3611,96.0603 116.03,110.0298 119.2291,112.1235 123.9498,104.208 123.8066,115.1214 127.0059,117.2173 135.337,103.2493 132.1357,101.1534 127.4158,109.0676 127.4359,107.5267 127.7131,107.0348 127.8116,98.3243 127.554,98.1438 127.5533,98.1508 "/>
   <path class="fil2" d="M109.0231 104.4017l0.1735 3.4688 3.8641 0.1056 -1.7439 -17.0916 -3.0976 -0.8121 -9.1906 14.2348 3.4571 1.8062 1.7081 -2.9747 4.8292 1.2629zm-0.4384 -8.9424l0 0 0.243 5.1007 -2.7442 -0.7184 2.5011 -4.3824z"/>
   <path class="fil2" d="M89.4958 99.504l0.6036 0c3.3549,0 6.5771,-2.3883 6.5771,-5.9015 0,-3.5168 -3.2222,-5.9046 -6.5771,-5.9046l-4.3757 0 0 16.4727 3.7721 0 0 -4.6666zm0 -8.1253l0 0 0.6036 0c1.3368,0 2.7512,0.8233 2.7512,2.2238 0,1.3977 -1.4143,2.2216 -2.7512,2.2216l-0.6036 0 0 -4.4454z"/>
   <path class="fil2" d="M74.1663 99.1552c0.7746,0.2495 1.5027,0.5349 1.647,1.375 0.1364,0.8094 -0.3418,1.6185 -1.0948,1.8701 -1.0802,0.3529 -2.3091,0.0946 -2.7898,-0.9495l-1.8085 3.2367c1.5332,1.4818 3.6112,1.6922 5.3306,1.3122 2.7399,-0.6128 4.5838,-3.4083 4.0514,-6.2906 -0.4639,-2.4253 -2.3223,-3.5259 -4.6281,-4.1921l-1.083 -0.3202c-1.1645,-0.3308 -2.1377,-0.5065 -2.0724,-1.5035 0.0403,-0.5959 0.4064,-1.1559 0.9732,-1.2825 0.865,-0.2208 1.7634,-0.2784 2.3524,0.376l1.7007 -3.1013c-1.4616,-1.1337 -2.9642,-1.2768 -4.7825,-0.8711 -2.2829,0.5064 -4.4225,3.0325 -3.9319,5.7014 0.4806,2.6422 2.7273,3.5467 5.2199,4.3393l0.9158 0.3001z"/>
   <polygon class="fil2" points="64.3275,104.194 59.1839,106.595 57.9676,103.7369 62.1566,101.782 60.7284,98.4216 56.5383,100.3772 55.6422,98.2702 60.5497,95.9811 59.1228,92.6207 50.7694,96.5166 57.1636,111.563 65.7567,107.5552 "/>
   <path class="fil2" d="M42.1953 122.4005c2.9664,-3.2178 2.526,-8.5485 -0.6378,-11.5573 -3.0526,-2.8949 -7.8147,-2.9824 -10.6723,0.1166l-3.675 3.9885 11.3092 11.4406 3.6759 -3.9884zm-8.7841 -8.8853l0 0c1.473,-1.598 3.9065,-1.2743 5.4883,0.2112 1.6763,1.5805 2.335,4.421 0.7697,6.1197l-1.0552 1.1457 -6.2601 -6.3318 1.0573 -1.1448z"/>
   <path class="fil2" d="M21.9906 137.1035c3.6439,2.1134 8.6313,1.8076 10.6486,-2.0104 1.1184,-2.1106 1.3568,-3.9815 0.6039,-6.2393l-0.0029 0.0007 -0.0784 -0.2667 -3.4195 0.8162 0.0646 0.1842 -0.0042 0.0006c0.6301,1.2415 0.5419,2.5407 -0.1881,3.7493 -1.2165,1.9599 -3.8204,1.3903 -5.7691,0.2593 -1.9486,-1.1304 -3.7235,-3.102 -2.8489,-5.2606 0.5329,-1.292 1.408,-2.0395 2.7065,-2.2889l-1.0032 -3.3104c-2.2281,0.526 -3.6127,1.7312 -4.7304,3.8412 -1.9158,3.6262 0.3765,8.408 4.0211,10.5247z"/>
   <path class="fil2" d="M25.1371 151.5016l-5.0555 -1.2199 0.13 -0.5898 6.5685 -3.2005 -0.8607 -3.7864 -0.0133 0.0071 -0.1334 -0.4996 -5.8737 3.1095c-0.6107,-1.6611 -1.8918,-2.8406 -3.4218,-3.2103 -3.0671,-0.7411 -5.8173,1.864 -6.524,5.0737l-0.9843 4.4649 15.3212 3.7042 0.8469 -3.8528zm-8.3428 -2.6636l0 0 -0.1328 0.6142 -3.4236 -0.8273 0.136 -0.6143c0.3948,-1.7925 1.1436,-2.2605 2.2406,-1.9944 1.0978,0.266 1.4331,1.6729 1.1798,2.8219z"/>
   <path class="fil2" d="M78.9132 241.0616c1.5437,-0.7518 2.5821,-2.1739 2.829,-3.8051 0.4883,-3.2555 -2.178,-5.9489 -5.2848,-6.4644l-4.3238 -0.7177 -2.4566 16.269 3.7278 0.619 0.8101 -5.3688 0.5684 0.0938 3.5077 6.6429 3.5451 -1.1644 -0.0091 -0.016 0.435 -0.1147 -3.3486 -5.9737zm-0.949 -4.433l0 0c-0.1764,1.1656 -1.4916,1.6158 -2.6038,1.4318l-0.5959 -0.0994 0.5474 -3.635 0.5958 0.098c1.7348,0.2898 2.233,1.0394 2.0565,2.2045z"/>
   <path class="fil2" d="M97.9318 242.5912l-0.1175 0.2369c-0.6563,1.2068 -1.7333,1.8273 -3.0838,1.8445 -2.2341,-0.0019 -3.195,-2.601 -3.3505,-4.929 -0.1549,-2.3272 0.4578,-4.9609 2.6608,-5.3688 1.3235,-0.2341 2.3996,0.1265 3.306,1.1338l2.1065 -2.6865c-1.6367,-1.6667 -3.3521,-2.2294 -5.6516,-2.0611 -3.9487,0.2875 -6.5289,4.9065 -6.2373,9.2618 0.2898,4.3531 3.252,8.5659 7.408,8.2623 2.2995,-0.1667 3.9272,-0.9747 5.3223,-2.865l-0.0022 -0.0019 0.1341 -0.214 -2.4947 -2.613z"/>
   <path class="fil0" d="M10.6807 167.5225c0,1.6764 1.6214,3.0361 3.6237,3.0361 2.0027,0 3.6249,-1.3597 3.6249,-3.0361 0,-1.6743 -1.6221,-3.0338 -3.6249,-3.0338 -2.0022,0 -3.6237,1.3595 -3.6237,3.0338z"/>
   <path class="fil0" d="M155.8749 167.5225c0,1.6764 1.6221,3.0361 3.6251,3.0361 2.0014,0 3.6229,-1.3597 3.6229,-3.0361 0,-1.6743 -1.6214,-3.0338 -3.6229,-3.0338 -2.0029,0 -3.6251,1.3595 -3.6251,3.0338z"/>
   <path class="fil0" d="M20.9165 137.4426c3.6459,2.116 8.6326,1.8076 10.6509,-2.0077 1.1176,-2.1133 1.3545,-3.9822 0.6037,-6.2393l-3.4424 0.7322c0.6295,1.2442 0.5434,2.5427 -0.1887,3.7501 -1.2145,1.9625 -3.8205,1.3908 -5.7691,0.261 -1.9493,-1.133 -3.7218,-3.1026 -2.8489,-5.2631 0.5328,-1.2915 1.4094,-2.0389 2.7078,-2.287l-1.0025 -3.3124c-2.2279,0.5266 -3.6125,1.7306 -4.7309,3.8445 -1.9174,3.6231 0.3785,8.406 4.0202,10.5215z"/>
   <path class="fil0" d="M40.8287 122.4603c2.9671,-3.2193 2.5239,-8.5499 -0.639,-11.5587 -3.0528,-2.8949 -7.815,-2.9816 -10.6723,0.1173l-3.6752 3.9914 11.3113 11.4377 3.6752 -3.9877zm-8.7833 -8.8847l0 0c1.4729,-1.5999 3.9045,-1.2761 5.4883,0.2098 1.6763,1.5799 2.335,4.4218 0.7698,6.1191l-1.0553 1.1464 -6.2602 -6.3318 1.0574 -1.1435z"/>
   <polygon class="fil0" points="126.6348,115.9056 134.9639,101.937 131.7662,99.8417 127.0462,107.7553 127.1906,96.8432 123.9893,94.748 115.659,108.7146 118.8581,110.8112 123.5782,102.895 123.4376,113.8076 "/>
   <path class="fil0" d="M108.0289 103.4472l0.1694 3.4687 3.8669 0.1057 -1.7411 -17.0902 -3.1004 -0.8121 -9.191 14.2334 3.4547 1.8076 1.7074 -2.9761 4.834 1.2629zm-0.4404 -8.9431l0 0 0.2424 5.1007 -2.7435 -0.7177 2.501 -4.3831z"/>
   <path class="fil0" d="M88.4995 98.5495l0.6038 0c3.3547,0 6.5769,-2.3878 6.5769,-5.9036 0,-3.514 -3.2222,-5.9017 -6.5769,-5.9017l-4.376 0 0 16.471 3.7722 0 0 -4.6657zm0 -8.1246l0 0 0.6038 0c1.3366,0 2.7512,0.8211 2.7512,2.221 0,1.3999 -1.4145,2.2231 -2.7512,2.2231l-0.6038 0 0 -4.4441z"/>
   <path class="fil0" d="M73.3701 98.2618c0.774,0.2474 1.502,0.5356 1.6464,1.3729 0.1361,0.812 -0.3418,1.6192 -1.0954,1.8729 -1.0798,0.3502 -2.3095,0.0918 -2.7916,-0.9525l-1.8062 3.2368c1.5332,1.4833 3.6106,1.6945 5.3307,1.3124 2.7399,-0.6101 4.5836,-3.4057 4.053,-6.2914 -0.4655,-2.4212 -2.3246,-3.5252 -4.6276,-4.1907l-1.0851 -0.3203c-1.1643,-0.3286 -2.1378,-0.5037 -2.0726,-1.5006 0.0398,-0.5995 0.4071,-1.1567 0.9734,-1.2824 0.8642,-0.2238 1.7626,-0.2814 2.3517,0.3736l1.702 -3.1011c-1.4624,-1.1331 -2.9651,-1.2777 -4.7832,-0.8719 -2.2829,0.5085 -4.4226,3.0345 -3.9321,5.7036 0.4807,2.642 2.7275,3.5445 5.2173,4.3365l0.9193 0.3021z"/>
   <polygon class="fil0" points="57.9313,106.1769 56.7142,103.3181 60.9039,101.3651 59.4751,98.0049 55.2858,99.9584 54.3895,97.852 59.2963,95.5628 57.868,92.2019 49.5169,96.0972 55.9131,111.1469 64.504,107.139 63.0756,103.7781 "/>
   <polygon class="fil0" points="148.4671,114.3633 141.1648,116.5824 143.7867,109.1038 140.3848,107.1342 137.2926,117.6252 132.943,121.8768 135.551,124.8072 139.902,120.5575 150.1054,118.0578 "/>
   <path class="fil0" d="M144.2488 136.9701c2.1078,3.8287 7.0902,4.1433 10.743,1.9355 3.6529,-2.2106 5.8842,-6.8902 3.7767,-10.7175 -2.1087,-3.8291 -7.0911,-4.1424 -10.7438,-1.9332 -3.6524,2.2098 -5.8843,6.8867 -3.7759,10.7152zm5.689 -7.2423l0 0c2.2682,-1.3743 4.7074,-1.7716 5.837,0.2729 1.1263,2.0453 -0.4266,4.0592 -2.694,5.4321 -2.2684,1.3741 -4.7123,1.7716 -5.8365,-0.2737 -1.1288,-2.0438 0.424,-4.0613 2.6935,-5.4313z"/>
   <polygon class="fil0" points="151.9998,157.3019 155.4073,156.4127 154.077,150.8166 165.9219,147.7251 165.0091,143.8875 149.7592,147.8717 "/>
   <path class="fil0" d="M19.6308 192.8979c3.96,-1.1769 6.5552,-5.364 5.5612,-9.5456l-1.2796 -5.3818 -15.2562 3.9842 1.2825 5.3813c1.0318,4.3426 5.5799,6.7755 9.6921,5.5619zm-6.2859 -6.4511l0 0 -0.3673 -1.5458 8.44 -2.2043 0.3667 1.5443c0.5143,2.1586 -1.0398,4.1488 -3.0775,4.7679 -2.1691,0.6502 -4.8163,-0.2729 -5.3619,-2.5621z"/>
   <polygon class="fil0" points="30.9379,205.1381 34.0113,203.3555 29.577,194.973 15.8272,202.9569 20.3873,211.5797 23.4586,209.7964 20.7277,204.6317 23.3397,203.1165 25.5609,207.3183 28.6321,205.5363 26.4105,201.3325 28.3341,200.2155 "/>
   <path class="fil0" d="M46.1829 216.0495l-3.3458 -2.7373 -9.6773 12.9782 3.6549 2.9921c2.5588,2.098 5.8925,2.6669 7.7309,0.2001 1.1302,-1.5151 0.9642,-3.3895 -0.0259,-5.0047 1.5332,0.3521 2.9457,-0.0265 3.9148,-1.3227 1.693,-2.2705 0.121,-5.1605 -2.2516,-7.1057zm-4.3886 10.6578l0 0c-0.6773,0.9093 -1.7667,0.5397 -3.0255,-0.4906l-0.476 -0.3891 1.8397 -2.4677 0.4746 0.3906c1.34,1.097 1.848,2.0702 1.1872,2.9568zm3.1445 -5.3321l0 0c-0.4844,0.6482 -1.1979,0.6232 -2.3538,-0.3244l-0.453 -0.3717 1.5166 -2.0341 0.432 0.3564c1.159,0.9468 1.3429,1.7228 0.8582,2.3738z"/>
   <path class="fil0" d="M48.258 236.8917l3.1047 2.4108 2.1759 -2.6199 4.5475 2.1203 -0.4042 3.4471 3.7869 0.8059 1.1221 -17.1456 -2.9221 -1.3616 -11.4108 12.343zm10.2749 -1.9068l0 0 -2.5836 -1.2055 3.186 -3.8606 -0.6024 5.0661z"/>
   <path class="fil0" d="M80.9154 236.1533c0.491,-3.2548 -2.1793,-5.9489 -5.282,-6.4644l-4.324 -0.7184 -2.4564 16.2669 3.7257 0.6203 0.8101 -5.3694 0.5704 0.0944 3.5055 6.6415 3.5452 -1.1608 -3.3799 -5.8969c1.8008,-0.6758 3.0172,-2.2244 3.2854,-4.0133zm-3.7778 -0.6274l0 0c-0.1765,1.1656 -1.4895,1.6131 -2.6038,1.4283l-0.5941 -0.0987 0.5475 -3.632 0.5939 0.0987c1.7355,0.2875 2.2329,1.0372 2.0565,2.2036z"/>
   <path class="fil0" d="M93.7336 243.9557c-2.2343,0 -3.1951,-2.6003 -3.3527,-4.9276 -0.1521,-2.3274 0.4579,-4.9583 2.663,-5.3683 1.3254,-0.2369 2.4002,0.1266 3.3061,1.1318l2.1076 -2.6851c-1.636,-1.6687 -3.354,-2.2314 -5.6555,-2.0639 -3.9461,0.2895 -6.5241,4.9087 -6.2345,9.2639 0.2918,4.3525 3.2519,8.5666 7.405,8.263 2.3016,-0.1674 3.9279,-0.9753 5.3272,-2.8649l-2.4614 -2.6268c-0.6546,1.231 -1.7411,1.8611 -3.1048,1.8779z"/>
   <polygon class="fil0" points="109.8059,240.3284 108.9327,237.3349 113.3199,235.9316 112.2918,232.413 107.9065,233.8175 107.2625,231.6133 112.3987,229.9682 111.3726,226.45 102.6289,229.2504 107.2265,245.0012 116.221,242.1217 115.1949,238.6035 "/>
   <path class="fil0" d="M131.4834 212.9281c-3.034,3.0693 -2.1169,8.2109 0.8141,11.3893 2.9291,3.1783 7.8046,4.3142 10.8368,1.2442 3.0347,-3.0679 2.1177,-8.2109 -0.8113,-11.39 -2.9331,-3.1769 -7.8066,-4.3143 -10.8396,-1.2435zm9.2474 10.0291l0 0c-1.6194,1.6389 -3.8626,0.5495 -5.6855,-1.4242 -1.8194,-1.9752 -2.7796,-4.3608 -1.1603,-6.001 1.6222,-1.6381 3.8647,-0.5487 5.6855,1.4247 1.8189,1.9739 2.7818,4.3595 1.1603,6.0005z"/>
   <polygon class="fil0" points="126.2944,233.0361 120.3719,221.8475 117.0747,223.763 124.6979,238.1679 132.8089,233.4598 131.1054,230.2405 "/>
   <path class="fil0" d="M163.2008 182.8473l3.3048 -0.3035 -0.0383 -4.0487 -16.2417 2.4169 -0.6669 3.2749 13.9026 9.1293 1.6049 -3.6848 -2.902 -1.6834 1.0366 -5.1007zm-4.2482 3.2362l0 0 -4.267 -2.465 4.8567 -0.4342 -0.5897 2.8991z"/>
   <polygon class="fil0" points="142.1759,201.0442 140.3485,204.5004 154.1,212.4841 155.9299,209.0271 148.1359,204.5025 158.5454,204.0816 160.3733,200.6253 146.6234,192.6416 144.7914,196.0963 152.5854,200.6226 "/>
   <path class="fil0" d="M24.0441 152.2727l-5.056 -1.222 0.1278 -0.587 6.5714 -3.2026 -0.8628 -3.7842 -5.849 3.1192c-0.5183,-1.9264 -1.9091,-3.3054 -3.5958,-3.7133 -3.0623,-0.7405 -5.8127,1.8619 -6.5201,5.0716l-0.9836 4.4663 15.3192 3.7043 0.8488 -3.8522zm-8.3434 -2.6635l0 0 -0.1343 0.6134 -3.4235 -0.826 0.1385 -0.6161c0.3944,-1.7919 1.1425,-2.258 2.2402,-1.9919 1.0971,0.2648 1.4334,1.6695 1.1791,2.8207z"/>
   <path class="fil3" d="M107.6462 113.2477l-73.3548 76.7956c1.5938,3.7577 3.5736,7.3114 5.8877,10.6119l78.3152 -81.9844c-3.3911,-2.1703 -7.024,-3.9926 -10.8481,-5.423z"/>
   <path class="fil3" d="M29.9814 161.9647l49.4828 -51.8016c-26.3242,3.6528 -46.9728,25.082 -49.4828,51.8016z"/>
   <path class="fil3" d="M134.7367 134.2531l-78.3096 81.9832c3.3882,2.1668 7.0174,3.9878 10.8377,5.416l73.3555 -76.7922c-1.5924,-3.7558 -3.5709,-7.3071 -5.8836,-10.6071z"/>
   <path class="fil3" d="M144.9303 172.9351l-49.4808 51.8019c26.3236,-3.6522 46.9729,-25.0815 49.4808,-51.8019z"/>
   <path class="fil4" d="M118.4943 118.6707l-78.3152 81.9844c4.3435,6.1955 9.8677,11.4996 16.248,15.5812l78.3096 -81.9832c-4.3413,-6.1955 -9.8644,-11.5003 -16.2424,-15.5824z"/>
   <path class="fil4" d="M145.1907 167.4517c0,-8.0163 -1.6282,-15.6507 -4.5711,-22.5915l-73.3548 76.7922c6.2853,2.3516 13.0886,3.6389 20.192,3.6389 2.713,0 5.3793,-0.1917 7.9928,-0.5543l49.4808 -51.8019c0.1702,-1.8055 0.2604,-3.6335 0.2604,-5.4834z"/>
   <path class="fil4" d="M87.4568 109.6087c-2.712,0 -5.3798,0.1917 -7.9921,0.5544l-49.4834 51.8016c-0.1695,1.8063 -0.2598,3.6362 -0.2598,5.4876 0,8.0156 1.6283,15.6507 4.5698,22.5909l73.3548 -76.7956c-6.2845,-2.3509 -13.0865,-3.6389 -20.1894,-3.6389z"/>
  </g>
 </g>
</svg>
