<?xml version="1.0" encoding="utf-8"?>
<!-- Generator: Adobe Illustrator 23.0.6, SVG Export Plug-In . SVG Version: 6.00 Build 0)  -->
<!DOCTYPE svg PUBLIC "-//W3C//DTD SVG 1.1//EN" "http://www.w3.org/Graphics/SVG/1.1/DTD/svg11.dtd" [
	<!ENTITY ns_extend "http://ns.adobe.com/Extensibility/1.0/">
	<!ENTITY ns_ai "http://ns.adobe.com/AdobeIllustrator/10.0/">
	<!ENTITY ns_graphs "http://ns.adobe.com/Graphs/1.0/">
	<!ENTITY ns_vars "http://ns.adobe.com/Variables/1.0/">
	<!ENTITY ns_imrep "http://ns.adobe.com/ImageReplacement/1.0/">
	<!ENTITY ns_sfw "http://ns.adobe.com/SaveForWeb/1.0/">
	<!ENTITY ns_custom "http://ns.adobe.com/GenericCustomNamespace/1.0/">
	<!ENTITY ns_adobe_xpath "http://ns.adobe.com/XPath/1.0/">
]>
<svg version="1.1"
	 id="Ebene_1" xmlns:x="&ns_extend;" xmlns:i="&ns_ai;" xmlns:graph="&ns_graphs;" xmlns:cc="http://creativecommons.org/ns#" xmlns:dc="http://purl.org/dc/elements/1.1/" xmlns:rdf="http://www.w3.org/1999/02/22-rdf-syntax-ns#" xmlns:svg="http://www.w3.org/2000/svg"
	 xmlns="http://www.w3.org/2000/svg" xmlns:xlink="http://www.w3.org/1999/xlink" x="0px" y="0px" viewBox="0 0 737.5 736.4"
	 style="enable-background:new 0 0 737.5 736.4;" xml:space="preserve">
<style type="text/css">
	.st0{fill:#D20515;}
	.st1{fill:#FFFFFF;}
</style>
<metadata  id="metadata19">
	<rdf:RDF>
		<cc:Work  rdf:about="">
			<dc:format>image/svg+xml</dc:format>
			<dc:type  rdf:resource="http://purl.org/dc/dcmitype/StillImage"></dc:type>
			<dc:title></dc:title>
		</cc:Work>
	</rdf:RDF>
	<sfw  xmlns="&ns_sfw;">
		<slices></slices>
		<sliceSourceBounds  bottomLeftOrigin="true" height="736.4" width="737.5" x="-218.7" y="-218.2"></sliceSourceBounds>
	</sfw>
</metadata>
<g id="g7" transform="translate(-43.5,-12)">
	<path id="path9" d="M108.8,725.6c0,14.1-6.6,21.6-24.4,21.6H43.5v-79.2h39.3c18.4,0,24.7,7.3,24.7,20.6c0,10.2-3.9,14.9-14.8,17.6
		l-2,0.6l1.8,0.3C105,709.9,108.8,714.4,108.8,725.6L108.8,725.6z M62.3,701.1h16.6c6.6,0,9.5-2.9,9.5-9.7c0-6.8-2.7-10-9.5-10H62.3
		L62.3,701.1L62.3,701.1z M89.6,723.6c0-7.3-2.9-10.3-9.7-10.3H62.3v20.4h17.6C87,733.7,89.7,730.8,89.6,723.6L89.6,723.6
		L89.6,723.6z M121.6,721.4v-53.4h19.7v52.7c0,8.6,4,12,14.6,12c10.7,0,14.6-3.3,14.6-12v-52.7h19.7v53.3
		c0,18.6-10.8,27.1-34.4,27.1S121.7,740,121.6,721.4L121.6,721.4L121.6,721.4z M283,668.1v79.1h-24l-33.6-57.2v57.2H207v-79.2h24
		l33.6,57.2v-57.2L283,668.1L283,668.1z M299.2,668.1h35.3c27.7,0,34.9,11.4,34.9,39.5c0,27.3-8,39.6-34.9,39.6h-35.3L299.2,668.1
		L299.2,668.1z M333.8,732c11.5,0,15.3-6,15.3-24.5c0-18.5-3.7-24.4-15.3-24.4h-15v49L333.8,732L333.8,732z M383.8,667.9h55.4V683
		h-35.6v16.6h29.6v14.9h-29.6v17.3h36.4v15.1h-56.2V667.9z M451.6,744v-15.6c8.5,2.9,17.4,4.4,26.4,4.3c9.1,0,13.1-2.4,13.1-8.6
		c0-5.3-1.7-6.9-9-8.4L469,713c-13.7-2.9-18.3-8.4-18.3-21.9c0-17.3,10.2-24.8,30.7-24.8c8.6-0.1,17.1,1.4,25.2,4.3V686
		c-7.7-2.8-15.8-4.2-24-4.2c-9.8,0-13.1,2.6-13.1,8.6c0,5.1,2.3,6.6,8.6,8l12.8,2.7c14.9,3.2,18.9,8.2,18.9,22.3
		c0,16.9-10.4,24.6-31.7,24.6C469.2,748.3,460.2,746.9,451.6,744L451.6,744z M523.7,667.9h19.7v64h33.9V747h-53.7V667.9z
		 M589.7,667.9h19.7V747h-19.7V667.9z M691.1,701.3v43c-8.8,2.8-18.1,4.2-27.3,4.1c-27.5,0-40.3-12.1-40.3-40.9s12.9-40.9,40.3-40.9
		c8.9-0.1,17.7,1.4,26.1,4.4v15.3c-7.9-2.7-16.2-4.1-24.5-4.2c-16.6,0-21.8,6.7-21.8,25.4c0,19.5,5.4,25.9,21.1,25.9
		c3.5,0,6.9-0.2,10.3-0.7V715h-14.6v-13.6L691.1,701.3L691.1,701.3z M755.6,730.4h-30.9l-5.6,16.6h-19.7l28.2-79.1h25.2L781,747
		h-19.9L755.6,730.4z M740.3,680.4l-11.5,35.7h22.8L740.3,680.4z"/>
	<rect id="rect11" x="44.7" y="12" class="st0" width="735.1" height="588.1"/>
	<path id="path13" class="st1" d="M650.7,321.6c0.4,1.5-0.9,2.5-3.5,4.4l-1.6,0.9l0.5,1.1c0.4,0.7-0.3,1.7-1.4,2.3l-2.4,1.2
		c-1.1,0.6-2.3,0.5-2.7-0.2l-0.5-1l-3.1,1.5l0.5,1c0.3,0.7-0.3,1.7-1.5,2.2l-2.4,1.2c-1.1,0.5-2.3,0.4-2.7-0.3l-0.4-0.9
		c-9.4,4.4-20,9.1-30.8,14.2l0.6,1.4c0.4,0.7-0.3,1.7-1.4,2.2l-2.5,1.2c-1.1,0.5-2.3,0.3-2.6-0.3l-0.7-1.4l-3.5,1.7l0.7,1.4
		c0.3,0.7-0.3,1.7-1.5,2.2l-2.4,1.1c-1.2,0.5-2.3,0.4-2.7-0.3l-0.6-1.4c-4.9,2-10.3,2.9-14.2-4.5c-1.7-3.4-1.8-11.2-3.1-15.4
		c-0.5-1.3-1.7-2.3-3.2-2.5c-47.9-9.2-64.1,1-94.8-6.5c-9.7-2.4-14.9-11.2-26.8-11.4c-25.9-0.8-33.6-0.4-61.7-1.5
		c-1.2,4.1-1.4,5-1.4,5l-98.8-0.5l15.1,7.4l4.8,43.6c0,0-4,1.2-5.2,1.3c1,8.6,1.9,20.5,2.4,31.1c0.4,9.5,0.9,19.4,0.8,25.7
		c0,4.1-1,8.2-2.9,11.8c-1.9,3.2-4.4,5.9-7.4,8c-0.9,0.7-4.7,3.3-9.1,5.8c-4.4,2.5-9.7,5.4-12.4,6.7c0.4,1.2,0.9,2.3,1.4,3.4
		c-60,29-134.5,39-158.6,85.1c-2.9,5.4-12.6,2.6-12.9-3.2c0-2.7,0-6.9,0-9.3h-0.9c-0.8,0-1.4-1.1-1.3-2.3v-2.7
		c0-1.2,0.7-2.2,1.5-2.2h1c0.3-2.7,0.8-5.3,1.5-7.9l-0.9-0.3c-0.7-0.3-1-1.4-0.5-2.6l0.9-2.5c0.4-1.2,1.3-1.9,2.1-1.7l0.9,0.3
		c4.3-10,12.6-14.4,16.4-23.9l-0.6-0.2c-0.8-0.3-1-1.4-0.6-2.6l0.9-2.6c0.4-1.2,1.4-1.9,2.1-1.6l0.7,0.2c0.6-1.4,1.2-2.9,2-4.4
		l-0.8-0.5c-0.7-0.4-0.7-1.6,0-2.7l1.5-2.3c0.6-1,1.7-1.6,2.4-1.1l0.3,0.2h0.3c0.2,0,0.3,0,0.5-0.2c0.4-0.4,0.8-0.8,1.2-1.2
		c3.8-2.8,8.9-2.9,12.7-0.2c3.8,2.3,18.5,10.7,32.7-2.1c23.4-21,50.8-49.6,71.4-50.6c-5.6-12-15.3-37.3-16.4-46.6l-6.7-1.4
		c-3.6-7.8-12.4-43.6-14.8-70.5c0,0-2.9-29,0-39.2c-1.6-0.2-4.5,2.2-5.3,2.2c-3.8-9.2,8.5-87.4,20.6-110.2l18.6-7.4
		c-1.9-0.2-15.4-0.8-50.7-3.7c-19.9,17.5-42.6,36.4-54.2,46.6c-2,1.4-5.2,12.6-5.2,12.6s-5.8,5.1-11.3,8.9c-7.1,5-24.6,8.9-28.4,2.9
		c-0.9-1.5-0.7-2.1,0-2.9c2.7-2.9,12.9-7.7,16.4-14.2c-5.6,2.9-11.8,5.8-16.7,5.3c-2.1,0-3.2-5.3-0.5-6.3
		c7.4-3.1,13.3-4.5,17.7-10.7c4.4-6.2,9.3-9.9,16.1-10c0,0,32.8-42.9,52.2-63.4c5.4-5.6,15.3-3.7,15.3-3.7l1.7-6.5
		c0,0,66.3-7.9,97.3,2.3c-0.7-18.8,7.7-43.7,37.1-43.7c15.1,0,37.3,13.3,40.3,29.5c0.9,5-2,8.3-3.5,14.6c-2.6,9.5,1,20.2,0,23.5
		c-0.9,2.7-3.9,2.5-6.6,6.2c-2.3,3.7-4.4,7.5-6.1,11.5l-4,9l-20.7-1.5c-7.5,16.3-23.1,49.6-28.5,82.6l0,0c16.3,1.4,89.9,12,89.9,12
		l1.8,6c0,0,31,3.7,56.4,15.8c5.8,1.4,19.9-0.7,29.3,3.5c0.6-0.4,2.2-2,2.9-2.4c33.1,10.2,60.5,27.5,92.4,35.3
		c0,0,14.9,3.6,19.9,4.6c8.5,1.6,17,2.7,25.6,3.3c10.2,0.8,15.9,0.7,23.4,1.1c5.3,0.3,11.8-0.6,13.9,7.1 M698.2,220.8
		c-22.5,0-40.9,18.2-40.9,40.7c0,22.5,18.2,40.9,40.7,40.9c22.5,0,40.9-18.2,40.9-40.7c0,0,0-0.1,0-0.1c0-22.5-18.3-40.8-40.9-40.8
		L698.2,220.8L698.2,220.8z"/>
</g>
</svg>
