<?xml version="1.0" encoding="utf-8"?>
<!-- Generator: Adobe Illustrator 23.0.1, SVG Export Plug-In . SVG Version: 6.00 Build 0)  -->
<svg version="1.1" id="Livello_1" xmlns="http://www.w3.org/2000/svg" xmlns:xlink="http://www.w3.org/1999/xlink" x="0px" y="0px"
	 viewBox="0 0 1110.4 950.66" enable-background="new 0 0 1110.4 950.66" xml:space="preserve">
<g>
	<g>
		<path fill="#FFFFFF" d="M550.14,192.36c-51.119-0.006-92.564,41.431-92.57,92.55s41.431,92.564,92.55,92.57
			c51.119,0.006,92.564-41.431,92.57-92.55c0-0.003,0-0.007,0-0.01C642.64,233.825,601.235,192.415,550.14,192.36"/>
		<path fill="#901480" d="M354.48,121.56c-0.816,1.561-0.212,3.489,1.35,4.305c0.003,0.002,0.007,0.004,0.01,0.005l98.05,57
			l0.23,0.13c1.063,0.569,2.357,0.488,3.34-0.21c0.31-0.224,0.577-0.502,0.79-0.82c0.1-0.149,0.187-0.306,0.26-0.47
			c18.909-33.479,51.818-56.73,89.69-63.37c0.129-0.008,0.257-0.031,0.38-0.07c0.401-0.092,0.78-0.258,1.12-0.49
			c0.994-0.701,1.499-1.91,1.3-3.11v-0.22L530.21,2.74V2.55c-0.081-0.459-0.274-0.892-0.56-1.26c-0.683-0.936-1.819-1.43-2.97-1.29
			l-0.26,0.05l0,0c-72.443,13.118-135.379,57.594-171.93,121.5"/>
		<path fill="#004AD0" d="M298.49,337c0.468,1.071,1.485,1.8,2.65,1.9c0.53,0.048,1.064-0.042,1.55-0.26l105.83-40.79l0.24-0.09
			c1.11-0.469,1.858-1.527,1.93-2.73c0.021-0.382-0.027-0.765-0.14-1.13c-0.049-0.175-0.12-0.343-0.21-0.5
			c-14.254-35.709-11.785-75.923,6.73-109.62c0.074-0.103,0.138-0.214,0.19-0.33c0.176-0.371,0.284-0.771,0.32-1.18
			c0.084-1.226-0.542-2.392-1.61-3l-0.2-0.11l-99.93-53.62l-0.17-0.09c-0.414-0.217-0.872-0.337-1.34-0.35
			c-1.139-0.043-2.214,0.525-2.82,1.49c-0.05,0.08-0.08,0.16-0.13,0.24l0,0c-35.15,64.707-39.872,141.65-12.9,210.17"/>
		<path fill="#0090FF" d="M433,514c1.132,0.295,2.336-0.05,3.14-0.9c0.363-0.391,0.624-0.865,0.76-1.38l33.74-108.28l0.07-0.24
			c0.325-1.162-0.04-2.407-0.94-3.21c-0.289-0.264-0.629-0.465-1-0.59c-0.169-0.067-0.343-0.12-0.52-0.16
			c-36.85-10.981-66.843-37.892-81.74-73.34c-0.04-0.121-0.09-0.238-0.15-0.35c-0.182-0.374-0.429-0.713-0.73-1
			c-0.906-0.81-2.193-1.035-3.32-0.58l-0.21,0.09l-104.07,45l-0.18,0.08c-0.433,0.19-0.816,0.477-1.12,0.84
			c-0.732,0.868-0.949,2.059-0.57,3.13c0.031,0.086,0.067,0.169,0.11,0.25l0,0C305.163,441.097,362.541,492.584,433,514"/>
		<path fill="#00AA00" d="M654.14,519.25c0.933-0.697,1.416-1.845,1.26-3c-0.071-0.53-0.278-1.033-0.6-1.46l-63.21-94.17l-0.15-0.2
			c-0.697-0.987-1.899-1.486-3.09-1.28c-0.374,0.059-0.734,0.188-1.06,0.38c-0.158,0.087-0.305,0.191-0.44,0.31
			c-31.667,21.817-71.435,28.317-108.4,17.72c-0.118-0.053-0.242-0.09-0.37-0.11c-0.397-0.092-0.807-0.109-1.21-0.05
			c-1.201,0.198-2.183,1.064-2.53,2.23l-0.06,0.22l-30.16,109.32l-0.05,0.19c-0.423,1.594,0.446,3.247,2,3.8l0.26,0.07l0,0
			c70.875,19.919,146.931,7.472,207.76-34"/>
		<path fill="#FFE500" d="M798.12,350.34c0.045-1.758-1.333-3.225-3.09-3.29L682,338.23h-0.25c-1.209-0.056-2.345,0.58-2.93,1.64
			c-0.183,0.331-0.302,0.694-0.35,1.07c-0.015,0.18-0.015,0.36,0,0.54c-2.519,38.365-22.082,73.586-53.32,96
			c-0.114,0.062-0.222,0.135-0.32,0.22c-0.315,0.262-0.582,0.577-0.79,0.93c-0.588,1.062-0.518,2.367,0.18,3.36l0.13,0.18
			l67.05,91.46l0.12,0.16c0.281,0.374,0.643,0.678,1.06,0.89c1.011,0.526,2.225,0.477,3.19-0.13l0.21-0.16l0,0
			c59.58-43.223,96.999-110.578,102.22-184"/>
		<path fill="#FF7D00" d="M755.37,132.14c-0.884-0.765-2.114-0.987-3.21-0.58c-0.498,0.193-0.941,0.505-1.29,0.91l-78,82.3
			l-0.18,0.19c-0.801,0.903-1.022,2.181-0.57,3.3c0.142,0.367,0.349,0.706,0.61,1c0.118,0.136,0.253,0.256,0.4,0.36
			c28.223,26.114,43.267,63.496,41,101.88c-0.015,0.13-0.015,0.26,0,0.39c-0.001,0.41,0.074,0.817,0.22,1.2
			c0.453,1.13,1.507,1.905,2.72,2h0.22l113.28,5.49h0.2c0.467,0.021,0.933-0.068,1.36-0.26c1.045-0.448,1.77-1.421,1.9-2.55
			c0-0.09,0-0.18,0-0.28l0,0c3.921-73.512-24.863-144.996-78.63-195.28"/>
		<path fill="#FF0000" d="M557.09,30.71c-1.719,0.33-2.846,1.991-2.516,3.711c0.002,0.01,0.004,0.02,0.006,0.029l16.57,112.21
			l0.05,0.24c0.296,1.599,1.748,2.719,3.37,2.6c0.178-0.019,0.355-0.049,0.53-0.09c37.963-6.102,76.663,5.123,105.47,30.59
			c0.089,0.095,0.186,0.182,0.29,0.26c0.324,0.249,0.69,0.438,1.08,0.56c1.167,0.34,2.426-0.018,3.24-0.92l0.15-0.17L759.56,94
			l0.13-0.16c0.306-0.353,0.523-0.775,0.63-1.23c0.291-1.101-0.025-2.274-0.83-3.08l-0.21-0.18l0,0
			c-55.411-48.465-129.425-69.933-202.17-58.64"/>
		<path d="M550.14,191.09c-51.821,0.017-93.817,42.039-93.8,93.86c0.017,51.821,42.039,93.817,93.86,93.8
			c51.809-0.017,93.8-42.021,93.8-93.83c-0.055-51.794-42.026-93.769-93.82-93.83 M618.3,337.8c1.43-3.81,1.88-8.26,2.35-11.71
			c-1.917,1.841-3.959,3.549-6.11,5.11c-5.994,4.423-12.848,7.544-20.12,9.16l-18.14-19.78l-0.25,0.18L589.18,344
			c-3.799,6.516-8.935,12.153-15.07,16.54c-2.143,1.558-4.391,2.965-6.73,4.21c3.41,0.62,7.74,1.57,11.8,1.39
			c-18.786,6.707-39.314,6.707-58.1,0c4.07,0.18,8.42-0.77,11.84-1.39c-2.339-1.245-4.587-2.652-6.73-4.21
			c-6.132-4.39-11.268-10.027-15.07-16.54l13.16-23.29l-0.25-0.18l-18.16,19.78c-7.273-1.608-14.128-4.726-20.12-9.15
			c-2.147-1.559-4.182-3.266-6.09-5.11c0.46,3.47,0.91,7.94,2.35,11.77c-11.794-15.125-18.191-33.76-18.17-52.94
			c0-0.95,0-1.88,0.07-2.82c1,4,3.39,8.06,5.1,11.23c0.461-2.612,1.106-5.189,1.93-7.71c2.287-7.228,6.088-13.886,11.15-19.53
			l26,5.26l0.09-0.3L483.88,260c-0.695-7.395,0.16-14.854,2.51-21.9c0.826-2.524,1.828-4.987,3-7.37c-3.32,1.59-7.75,3.51-11,6.31
			c11.452-17.135,28.649-29.615,48.49-35.19c-3.75,2.21-7,5.9-9.61,8.62c2.628-0.359,5.277-0.54,7.93-0.54
			c7.516-0.056,14.959,1.477,21.84,4.5l3,26.24h0.3l3-26.26c6.875-3.008,14.306-4.535,21.81-4.48c2.653,0.001,5.302,0.181,7.93,0.54
			c-2.6-2.72-5.85-6.39-9.59-8.6c19.802,5.573,36.964,18.03,48.4,35.13c-3.25-2.77-7.64-4.68-10.94-6.27
			c1.163,2.387,2.165,4.849,3,7.37c2.347,7.057,3.199,14.526,2.5,21.93l-24.22,11.07l0.09,0.29l26-5.26
			c5.054,5.637,8.846,12.289,11.12,19.51c0.83,2.52,1.479,5.097,1.94,7.71c1.69-3.15,4-7.12,5.07-11.15c0,0.91,0.07,1.82,0.07,2.74
			C636.513,304.099,630.1,322.706,618.3,337.8"/>
		<polygon points="512.24,272.56 526.72,317.15 573.61,317.15 588.1,272.56 550.16,245 		"/>
	</g>
	<g>
		<polygon points="277.86,625.32 277.86,751.19 350.11,751.19 350.11,722.6 310.55,722.6 310.55,625.32 		"/>
		<path d="M410.27,676.59c-14.55,0-23.87,10.84-23.87,24.15c0,14,8.83,25.47,22.89,25.47c13.58,0,24.85-10,24.85-24.65
			s-10.46-25-23.87-25 M355.51,701.21c0-28.1,20.76-52.92,48.72-52.92c12.25,0,19.94,4.11,28.93,12.33v-10.31h30.08v100.88h-30.57
			v-9.86c-7.988,7.946-18.813,12.383-30.08,12.33c-28,0-47.08-20.06-47.08-52.42"/>
		<polygon points="553.49,751.19 481.23,751.19 481.23,625.32 513.93,625.32 513.93,722.6 553.49,722.6 		"/>
		<path d="M597.47,751.19h-30.42V650.31h30.42V751.19z M564.12,624.67c-0.094-10.156,8.063-18.466,18.22-18.56
			c10.156-0.094,18.466,8.063,18.56,18.22c0.011,10.333-8.357,18.719-18.69,18.73c-0.037,0-0.073,0-0.11,0
			c-9.941,0.002-18.002-8.055-18.004-17.996c0-0.131,0.001-0.263,0.004-0.394"/>
		<path d="M661.38,674.44c-14.22,0-21.26,11.68-21.26,24.16c0,13,7.69,23.67,21.1,23.67c15.21,0,23.37-12.16,23.37-23.49
			C684.59,685.3,677.07,674.44,661.38,674.44 M610.54,698.78c0-27.29,17.33-50.46,43.82-50.46c12.75,0,21.41,4.11,30.07,13.31
			v-11.32h29.11v88.89c0,31.21-23.39,47.47-51.51,47.47c-24.68,0-46.26-12.47-49.52-35.16h34.17c4.23,6.91,8.48,8.21,16,8.21
			c10.62,0,20.43-4.92,20.43-15.92c0.107-2.521,0.053-5.046-0.16-7.56c-5.89,5.26-16.84,11.66-28.77,11.66
			c-26,0-43.65-21.69-43.65-49.12"/>
		<path d="M781.38,676.59c-14.55,0-23.87,10.84-23.87,24.15c0,14,8.82,25.47,22.89,25.47c13.56,0,24.85-10,24.85-24.65
			s-10.46-25-23.87-25 M726.61,701.21c0-28.1,20.76-52.92,48.72-52.92c12.26,0,19.95,4.11,28.93,12.33v-10.31h30.09v100.88h-30.58
			v-9.86c-7.987,7.949-18.812,12.386-30.08,12.33c-28,0-47.08-20.06-47.08-52.42"/>
	</g>
	<path fill="#EC0000" d="M146.55,845.23c-0.31-7.126-2.334-14.073-5.9-20.25l-32-55.45c-2.406-4.165-4.115-8.694-5.06-13.41
		l-1.34,2.32c-7.93,13.723-7.93,30.637,0,44.36l25.61,44.36c7.92,13.726,7.92,30.634,0,44.36l-1.34,2.31
		c-0.95-4.711-2.659-9.237-5.06-13.4L98,839.82l-15-25.93c-2.38-4.171-4.069-8.699-5-13.41l-1.33,2.32
		c-7.904,13.662-7.95,30.495-0.12,44.2l0,0l25.69,44.5c7.92,13.722,7.92,30.628,0,44.35l-1.34,2.32
		c-0.949-4.716-2.661-9.246-5.07-13.41l-32-55.44c-4.217-7.313-6.26-15.677-5.89-24.11c-34.28,9-57.93,28-57.93,50
		c0,30.62,45.77,55.45,102.24,55.45s102.23-24.83,102.23-55.45c0-22-23.65-41-57.92-50 M243.08,939.89
		c0.218-6.615,1.449-13.158,3.65-19.4c10.76,5,24.58,7.49,35.14,7.49c17.86,0,27.85-5.76,27.85-17.09c0-11.14-7.3-16.33-25.35-24.2
		l-9.79-4.22c-18.05-7.88-30.35-18.06-30.35-38.41c0-21.89,15.18-35.91,46.29-35.91c11.944-0.149,23.827,1.735,35.14,5.57
		c-0.423,6.542-1.715,12.999-3.84,19.2c-10.121-3.579-20.765-5.461-31.5-5.57c-16.7,0-24.39,6.53-24.39,16.71
		c0,10,7.49,15.74,20.94,21.51l10.36,4.43c24.39,10.37,34.56,21.32,34.56,40c0,22.08-16.7,37.25-49.35,37.25
		c-15.75,0-28.61-2.3-39.37-7.29 M434.92,848.16v96h-19.39l-1.15-11.52c-5.38,8.45-13.64,13.82-27.08,13.82
		c-25.35,0-42.25-18.43-42.25-50.69c0-33.8,18.05-53,53.58-53c13.83,0,25.16,1.54,36.29,5.38 M413.8,922.24v-60.3
		c-5.013-0.826-10.089-1.21-15.17-1.15c-21.9,0-32.07,13.44-32.07,35c0,19.58,7.87,33.41,26.69,33.41
		c7.431,0.067,14.669-2.366,20.55-6.91 M543,879.61v64.52h-21.08v-60.88c0-15.17-5-22.46-26.12-22.46
		c-5.598,0.068-11.183,0.579-16.7,1.53v81.81H458v-96c13.44-3.26,28.23-5.38,38.41-5.38c35.34,0,46.66,13.64,46.66,36.88
		 M601.65,928.4c5.633,0.02,11.226-0.955,16.52-2.88c-0.58,5.76-1.35,12.29-2.5,17.86c-5.703,2.152-11.765,3.194-17.86,3.07
		c-20.55,0-33.61-9.41-33.61-32.83V812.78c6.854-2.059,13.974-3.096,21.13-3.08V846h33.41c-0.304,6.031-0.945,12.041-1.92,18H585.3
		v47.1c0,12.48,6.14,17.28,16.32,17.28 M714.93,848.11v96h-19.4l-1.15-11.52c-5.38,8.45-13.63,13.82-27.08,13.82
		c-25.34,0-42.24-18.43-42.24-50.69c0-33.8,18.05-53,53.57-53c13.83,0,25.16,1.54,36.3,5.38 M693.8,922.24v-60.3
		c-5.013-0.826-10.089-1.211-15.17-1.15c-21.89,0-32.07,13.44-32.07,35c0,19.58,7.88,33.41,26.7,33.41
		c7.428,0.068,14.663-2.366,20.54-6.91 M823.05,879.66v64.52h-21.12v-60.93c0-15.17-5-22.46-26.12-22.46
		c-5.602,0.068-11.189,0.579-16.71,1.53v81.81H738v-96c13.44-3.26,28.23-5.38,38.41-5.38c35.33,0,46.66,13.64,46.66,36.88
		 M930.21,809.7v134.43h-19.39l-1.15-12.29c-5.38,9-13.64,14.59-27.47,14.59c-25.34,0-42.2-18.43-42.2-50.69c0-33.8,18-53,53.57-53
		c5.287,0.008,10.561,0.524,15.75,1.54v-31.7c6.53-2.3,14-2.88,20.93-2.88 M909.28,921.85v-59.14
		c-5.554-1.211-11.216-1.854-16.9-1.92c-20.93,0-30.92,13.05-30.92,35c0,19.58,7.88,33.41,26.7,33.41
		c7.664,0.03,15.11-2.544,21.12-7.3 M1036.41,903H969c2.69,17.1,12.67,25.35,31.49,25.35c11.656-0.009,23.177-2.494,33.8-7.29
		c-0.77,5.56-1.92,12.86-3.26,19.2c-9.6,4.42-19.78,6.14-31.11,6.14c-35.34,0-52.43-19.58-52.43-52.42
		c0-28.62,13.25-51.28,46.86-51.28c30.15,0,43.21,19.78,43.21,44c0.011,5.461-0.377,10.915-1.16,16.32 M968.62,885.36h47.62
		c0-15.75-8.45-25-23-25c-15,0-22.86,8.64-24.58,25 M1110.38,843.49c0,6.34-0.76,14-1.92,18c-5.294-0.561-10.616-0.815-15.94-0.76
		c-5.205,0-10.402,0.385-15.55,1.15v82.19h-21.13v-96c9-3.07,24.2-5.38,36.11-5.38c6.153-0.07,12.305,0.187,18.43,0.77"/>
</g>
</svg>
