<?xml version="1.0" encoding="utf-8"?>
<!-- Generator: Adobe Illustrator 23.1.0, SVG Export Plug-In . SVG Version: 6.00 Build 0)  -->
<svg version="1.1"
	 id="svg2985" inkscape:version="0.91 r13725" sodipodi:docname="Premier League Vertical 2016.svg" xmlns:cc="http://creativecommons.org/ns#" xmlns:dc="http://purl.org/dc/elements/1.1/" xmlns:inkscape="http://www.inkscape.org/namespaces/inkscape" xmlns:rdf="http://www.w3.org/1999/02/22-rdf-syntax-ns#" xmlns:sodipodi="http://sodipodi.sourceforge.net/DTD/sodipodi-0.dtd" xmlns:svg="http://www.w3.org/2000/svg"
	 xmlns="http://www.w3.org/2000/svg" xmlns:xlink="http://www.w3.org/1999/xlink" x="0px" y="0px" viewBox="0 0 598.4 1000"
	 style="enable-background:new 0 0 598.4 1000;" xml:space="preserve">
<style type="text/css">
	.st0{fill:#360C3A;}
</style>
<g>
	<path class="st0" d="M26.7,761.3h16.9c28.8,0,49.8-17.3,49.8-46.7c0-29.1-21.3-46.1-49.8-46.1H0v137.8h26.7V761.3z M26.7,693.9
		h15.6c13.6,0,23.4,7.1,23.4,20.7c0,13.6-9.8,21-23.4,21H26.7V693.9z"/>
	<path class="st0" d="M127,760.6c0-14.6,8.5-22,20.7-22c3.1,0,5.8,0.3,8.8,1v-24c-2.4-0.7-4.7-1-7.1-1c-10.8,0-19,5.8-23,14.2
		l-2.7-13.2h-21.7v90.8H127V760.6z"/>
	<path class="st0" d="M206.9,808.7L206.9,808.7c15.2,0,29.5-6.1,39.3-17.3L231,775.8c-6.4,6.8-14.2,10.5-24.4,10.5
		c-11.2,0-20.3-6.8-22.7-16.9h66.4c0.7-3.4,0.7-6.4,0.7-8.8c0-30.8-22.7-47.4-44.7-47.4c-29.5,0-48.1,22.7-48.1,48.1
		C158.1,789.4,178.8,808.7,206.9,808.7z M205.6,735.2c10.2,0,18.6,6.4,20.7,15.9h-42C186.2,741.3,195.1,735.2,205.6,735.2z"/>
	<path class="st0" d="M568.6,760.6c0-14.6,8.5-22,20.7-22c3.1,0,5.8,0.3,8.8,1v-24c-2.4-0.7-4.7-1-7.1-1c-10.8,0-19,5.8-23,14.2
		l-2.7-13.2h-21.7v90.8h25.1V760.6z"/>
	<polygon class="st0" points="543.5,806.3 543.5,806.3 543.5,806.3 	"/>
	<path class="st0" d="M489.7,808.7L489.7,808.7c15.2,0,29.5-6.1,39.3-17.3l-15.2-15.6c-6.4,6.8-14.2,10.5-24.4,10.5
		c-11.2,0-20.3-6.8-22.7-16.9H533c0.7-3.4,0.7-6.4,0.7-8.8c0-30.8-22.7-47.4-44.7-47.4c-29.5,0-48.1,22.7-48.1,48.1
		C440.9,789.4,461.6,808.7,489.7,808.7z M488.3,735.2c10.2,0,18.6,6.4,20.7,15.9h-42C469,741.3,477.8,735.2,488.3,735.2z"/>
	<path class="st0" d="M418.9,703.3c8.8,0,15.6-6.8,15.6-15.2c0-8.8-6.8-15.6-15.6-15.6s-15.6,6.8-15.6,15.6
		C403.3,696.6,410.1,703.3,418.9,703.3z"/>
	<rect x="406" y="715.5" class="st0" width="25.1" height="90.8"/>
	<path class="st0" d="M471.7,911.3c0,14.6-8.1,22.3-19.3,22.3c-12.2,0-19.3-6.8-19.3-22.3v-46.7h-25.1V913
		c0,33.9,24.4,44.7,44.4,44.7c19.6,0,44.4-10.8,44.4-44.7v-48.4h-25.1V911.3z"/>
	<path class="st0" d="M371.2,876.1c-5.4-7.8-14.9-12.9-25.4-12.9c-25.7,0-46.7,20.3-46.7,46.7c0,26.7,20.3,47.7,46.1,47.7
		c9.8,0,18.6-3,26.1-10.8v6.4c0,13.5-8.1,22.7-26.7,22.7c-11.9,0-21-5.8-27.8-12.2l-13.9,19.3c10.8,10.5,24.4,16.9,43.3,16.9
		c13.9,0,25.4-4.7,33.9-11.2c11.2-8.8,15.9-20.7,15.9-37.6v-86.7h-22L371.2,876.1z M348.8,933.6c-13.2,0-23.7-10.5-23.7-23.7
		c0-13.9,10.5-24,23.7-24c13.2,0,23.7,10.2,23.7,24C372.5,923.1,362,933.6,348.8,933.6z"/>
	<path class="st0" d="M598.4,909.6c0-30.8-22.7-47.4-44.7-47.4c-29.5,0-48.1,22.7-48.1,48.1c0,28.1,20.7,47.4,48.8,47.4v0
		c15.2,0,29.5-6.1,39.3-17.3l-15.2-15.6c-6.4,6.8-14.2,10.5-24.4,10.5c-11.2,0-20.3-6.8-22.7-16.9h66.4
		C598.4,915,598.4,911.9,598.4,909.6z M531.7,900.1c2-9.8,10.8-15.9,21.3-15.9c10.2,0,18.6,6.4,20.7,15.9H531.7z"/>
	<path class="st0" d="M264.8,876.4c-5.4-8.5-14.6-13.2-28.1-13.2c-24,0-45,21.3-45,46.7c0,25.7,21,47.7,45,47.7l0,0
		c12.5,0,22.7-5.8,28.1-13.9l2.7,11.5h22v-90.8h-22L264.8,876.4z M241.8,933.6c-13.6,0-23.7-10.5-23.7-23.7c0-13.9,10.1-24,23.7-24
		c13.2,0,23.4,10.2,23.4,24C265.2,923.1,255,933.6,241.8,933.6z"/>
	<path class="st0" d="M314.6,752.8v53.5h25.1v-53.2c0-10.2,5.1-16.3,14.9-16.3c8.5,0,13.9,6.1,13.9,15.9l0,0v53.5h25.1v-57.9
		c0-20.7-13.2-35.2-32.5-35.2c-6.8,0-17.6,1-26.4,13.6l-0.7,1l-0.7-1c-6.1-9.2-14.9-13.6-25.4-13.6c-16.9,0-22.3,14.2-22.3,14.2
		l-2.7-11.9h-22v90.8h25.1v-53.2c0-10.2,5.1-16.3,14.9-16.3C309.2,736.9,314.6,743,314.6,752.8z"/>
	<path class="st0" d="M138.5,862.2c-29.5,0-48.1,22.7-48.1,48.1c0,28.1,20.7,47.4,48.8,47.4v0c15.2,0,29.5-6.1,39.3-17.3l-15.2-15.6
		c-6.4,6.8-14.2,10.5-24.4,10.5c-11.2,0-20.3-6.8-22.7-16.9h66.4c0.7-3.4,0.7-6.4,0.7-8.8C183.2,878.8,160.5,862.2,138.5,862.2z
		 M116.5,900.1c2-9.8,10.8-15.9,21.3-15.9c10.2,0,18.6,6.4,20.7,15.9H116.5z"/>
	<polygon class="st0" points="26.7,820.9 0,820.9 0,955.3 0,955.3 85,955.3 85,929.9 26.7,929.9 	"/>
</g>
<g>
	<path class="st0" d="M195.4,113.9c39.2-21.7,84.5-34.1,132.7-34.1c25.1,0,49.5,3.4,72.6,9.7c2.2-21.7,7-48.7,17.2-68.2
		c-23.5,17.6-37.5,36.8-39.3,39.2c-0.6-4.9-2.7-37.6-4.3-60.5c-9.5,10-46.1,49.8-52.4,56.3C316.6,48.4,286,0.1,286,0.1
		s-16.9,48-21.8,62.7c-12-8-48.5-32.7-64.2-43.3c3.1,20.3,8.4,53,9.8,59.8c-3.2-2.3-20.5-17.5-47.4-29.6
		C177.1,66.9,188.3,92.9,195.4,113.9z"/>
	<path class="st0" d="M492.1,226.6l-2,15.4l-20.3-21.4c0,0,3.8-1.8,7.5-6.2c0.2-1.8-1.3-12.3-9.7-19.2c-8.2,2-14.2,6.6-17.4,11
		c-11.2-9.8-23.7-13.6-23.7-13.6c2.2,1.7,15.4,19.6,16.9,24.7c12.1,9.8,27.7,21.2,38.5,34.9c-8.5-9.7-50.2-12-69.3-1.8
		c0,0-18.8-21.6-36.1-36.6c-3.6-13.2,8.3-24,8.3-24s-12-0.3-23.6,10.6c-17.3-12.5-39.2-18.5-39.2-18.5
		c-24.3,3.7-40.9,20.3-40.9,20.3c5.9,3.6,13.5,8,19.9,10.4c13.5,5.1,25.8,3.5,34.1,3.5c6.6,0,16,1.9,16,1.9s16.4,11.9,40,38.5
		c-36-14.1-74.2,2-100.8-11c-31-15.2-28.9-39.3-28.9-39.3s-21.1-2.9-21.3-3.3c0,0,15.5-19.9,39.3-27.1l-12-10
		c13.8-11.7,39.2-26.5,78.7-32.1c0,0,17.7,6.4,53.6,31.7c6.2-8.2,7.7-25.2,7.7-25.2c18.1,6.4,55.9,32.9,71,49.4
		c-7.9-18.6-14-30.4-15.9-50c-9.3-8.9-31.5-27.4-78-38.4c7.2,15.2,6.6,27.8,6.6,27.8c-8.5-10.7-26.9-27.8-39.3-32.7
		c-7.8-0.7-15.8-1-23.8-1c-42.9,0-83.5,10.1-119.2,28h0c18.9,1.1,31.5,16.5,35.9,28.9c-14.5-11-37.2-15.9-50.6-1.7
		c-13.5,14.1-11.9,41.4,1,63.5c-30.4-15-30.2-54.5-19.9-70.4l0,0c-34.6,24.4-62.8,56.9-81.7,94.6h0l27.8,4.4
		c-31.6,35.2-53.4,98-53.4,127.6l44.6-13.5c-8,25.9-10.4,113.9,16.4,157.8c0,0,35.1-23.5,74.7-83.4c16.9,53.7,9,98.5,0.2,142.8
		c71.6,39.5,154.9,17.3,203.5-16.9l8.7,33.5c57.2-36.7,88.4-89.4,94.4-151.5l21.2,22.9C564.4,367.2,538.9,291.8,492.1,226.6z
		 M366.9,360.1c-14.8-27-28.3-52-28.3-52s40-32.4,73-37.3c16.4,12.4,31.8,17.3,31.8,17.3l0,33.7l0,0
		C431.2,331.7,392.9,363.7,366.9,360.1z M476.7,382.8c-5.6,28-21.6,45.8-33.2,52.4c1-20.3-4.4-37.5-4.4-37.5
		c-8.3,9.4-28.8,18.4-40.4,20.9c-5.9-11.1-17.6-32.3-17.6-32.3c21.2-0.7,56-29.8,56-29.8l25.8-0.6
		C474.1,368.9,476.7,382.8,476.7,382.8L476.7,382.8z M488.8,356.4c-6.9-15.3-16-23.7-25.3-33.8l-0.2-33.8c0,0,11-5.9,24-16.6h0
		C499.3,299.9,501.8,333.5,488.8,356.4z"/>
	<polygon class="st0" points="531.6,461.9 531.6,462 531.6,461.9 	"/>
</g>
</svg>
