<svg id="Livello_1" data-name="Livello 1" xmlns="http://www.w3.org/2000/svg" xmlns:xlink="http://www.w3.org/1999/xlink" viewBox="0 0 500 857.513"><defs><linearGradient id="Sfumatura_senza_nome_5" x1="180.977" y1="1438.688" x2="318.9" y2="1438.688" gradientTransform="translate(0 -1010.61)" gradientUnits="userSpaceOnUse"><stop offset="0" stop-color="#31ecff"/><stop offset="0.05" stop-color="#2de2ff"/><stop offset="0.3" stop-color="#1bb2ff"/><stop offset="0.51" stop-color="#0e90ff"/><stop offset="0.69" stop-color="#067bff"/><stop offset="0.81" stop-color="#0373ff"/></linearGradient><linearGradient id="Sfumatura_senza_nome_3" x1="352.243" y1="1101.541" x2="229.122" y2="1439.568" gradientTransform="translate(0 -1010.61)" gradientUnits="userSpaceOnUse"><stop offset="0" stop-color="#31ecff"/><stop offset="0.05" stop-color="#2de2ff"/><stop offset="0.29" stop-color="#1bb2ff"/><stop offset="0.51" stop-color="#0e90ff"/><stop offset="0.69" stop-color="#067bff"/><stop offset="0.8" stop-color="#0373ff"/></linearGradient></defs><title>Serie A TIM 2022</title><g id="c"><rect x="0.37" width="499.26" height="691.587" fill="#fff"/><path d="M69.208,584.505s-.617-1.233,0-1.85l8.142-9.376s1.11-.493,1.6,0C83.765,577.1,90.3,580.8,98.076,580.8s11.966-3.577,11.966-8.635c0-4.318-2.591-7.032-11.226-8.142l-3.825-.494c-14.8-2.1-23.069-9-23.069-21.959s10.116-22.329,25.907-22.329c9.622,0,18.751,2.961,24.8,7.649.617.37.74.863.247,1.6l-6.538,9.746s-.987.617-1.481.37c-5.551-3.7-10.979-5.551-17.024-5.551-6.415,0-9.746,3.331-9.746,7.895,0,4.2,2.961,6.909,11.35,8.019l3.824.494c15.05,2.1,22.946,8.882,22.946,22.2s-9.746,22.946-28.744,22.946c-11.35,0-22.453-4.564-28.128-9.992" fill="#24195d"/><path d="M134.468,521.342a1.035,1.035,0,0,1,1.111-1.11h46.878a1.036,1.036,0,0,1,1.111,1.11v11.473a1.035,1.035,0,0,1-1.111,1.11H151s-.617.247-.617.617V549.1s.247.617.617.617h26.154a1.035,1.035,0,0,1,1.11,1.111v11.349a1.035,1.035,0,0,1-1.11,1.11H151s-.617.247-.617.617v15.174s.247.617.617.617h31.458a1.036,1.036,0,0,1,1.111,1.11v11.473a1.036,1.036,0,0,1-1.111,1.111H135.579a1.037,1.037,0,0,1-1.111-1.111Z" fill="#24195d"/><path d="M233.407,593.264c-.987,0-1.233-.37-1.6-1.11l-12.584-26.77h-9.746s-.616.246-.616.617v26.153a1.035,1.035,0,0,1-1.111,1.11H194.054a1.035,1.035,0,0,1-1.11-1.11V521.219a1.035,1.035,0,0,1,1.11-1.11h29.114c14.927,0,24.8,9.375,24.8,22.7,0,9.376-4.934,16.778-12.953,20.355l14.434,28.744a.782.782,0,0,1-.74,1.234h-15.3Zm-1.233-50.333c0-5.428-3.825-9-9.87-9h-12.83s-.616.246-.616.616v16.9s.246.617.616.617H222.3c6.045,0,9.87-3.577,9.87-9.129" fill="#24195d"/><path d="M257.957,521.342a1.035,1.035,0,0,1,1.11-1.11h13.694a1.035,1.035,0,0,1,1.11,1.11v70.935a1.036,1.036,0,0,1-1.11,1.111H259.067a1.036,1.036,0,0,1-1.11-1.111Z" fill="#24195d"/><path d="M285.468,521.342a1.035,1.035,0,0,1,1.11-1.11h46.879a1.035,1.035,0,0,1,1.11,1.11v11.473a1.035,1.035,0,0,1-1.11,1.11H302s-.617.247-.617.617V549.1s.246.617.617.617h26.153a1.035,1.035,0,0,1,1.11,1.111v11.349a1.035,1.035,0,0,1-1.11,1.11H302s-.617.247-.617.617v15.174s.246.617.617.617h31.458a1.035,1.035,0,0,1,1.11,1.11v11.473a1.036,1.036,0,0,1-1.11,1.111H286.578a1.036,1.036,0,0,1-1.11-1.111Z" fill="#24195d"/><path d="M386.874,521.342a1.445,1.445,0,0,1,1.357-1.11H401.8a1.244,1.244,0,0,1,1.357,1.11l24.673,70.935c.247.617,0,1.111-.74,1.111h-13.94c-.74,0-1.111-.37-1.357-1.111l-4.195-12.83H382.063l-4.071,12.83c-.247.741-.617,1.111-1.357,1.111H362.571q-1.11,0-.74-1.111L387,521.342ZM403.282,566l-8.266-25.536h-.37L386.381,566Z" fill="#24195d"/><rect x="71.922" y="629.164" width="118.678" height="26.647" fill="#00a445"/><rect x="190.6" y="629.164" width="118.678" height="26.647" fill="#e3e3e2"/><rect x="309.277" y="629.164" width="118.678" height="26.647" fill="#db052c"/><polygon points="249.938 484.456 71.922 371.7 180.977 371.7 249.938 484.456" fill="#1a1659"/><polygon points="249.938 484.456 428.078 371.7 318.9 371.7 249.938 484.456" fill="#1a1659"/><polygon points="249.938 189.489 180.977 371.7 249.938 371.7 318.9 371.7 249.938 189.489" fill="#1a1659"/><polygon points="180.977 371.7 249.938 484.456 318.9 371.7 180.977 371.7" fill="url(#Sfumatura_senza_nome_5)"/><path d="M249.938,189.489l29.731,78.584H242.043L216.383,335.8h88.946L318.9,371.577H428.078L299.038,71.552H200.716L71.922,371.7H180.977l68.961-182.087Z" fill="url(#Sfumatura_senza_nome_3)"/><rect y="691.587" width="500" height="165.926" fill="#0032a0"/><path d="M276.462,727.362c1.85,0,2.22.247,2.22,6.909v6.168c0,6.415-.493,7.155-2.22,7.155H255.12V819.64c0,1.6-1.974,1.974-9.129,1.974h-3.825c-7.278,0-8.512-.37-8.512-1.974V747.594H212.312c-1.727,0-2.221-.493-2.221-7.155v-6.168c0-6.909.37-6.909,2.221-6.909h64.15Zm38.367,1.974c0-1.357-1.974-1.974-8.883-1.974h-4.071c-7.278,0-8.512.617-8.512,1.974v90.3c0,1.6,1.234,1.974,8.512,1.974h4.071c6.909,0,8.883-.37,8.883-1.974ZM419.2,727.362H412.9c-8.019,0-8.512.864-9.129,2.221l-12.46,29.978c-4.194,9.992-8.389,20.6-10.116,26.153-1.48-5.551-4.318-12.953-10.116-26.647l-12.46-29.361c-.74-1.727-3.947-2.22-10.733-2.22h-7.031c-6.909,0-8.266.617-8.266,1.974v90.3c0,1.6,1.357,1.974,8.512,1.974h3.948c7.032,0,9.006-.37,9.006-1.974v-53.54h.493a37.837,37.837,0,0,0,1.6,4.811l14.31,33.555c.617,1.481,1.357,2.1,8.019,2.1H382.8c6.785,0,7.278-.493,7.895-2.1l13.077-32.322a59.952,59.952,0,0,0,2.1-6.045h.494v53.541c0,1.6,1.357,1.974,8.759,1.974h3.824c6.908,0,8.882-.37,8.882-1.974v-90.3c0-1.357-1.974-1.974-8.882-1.974" fill="#fff"/><path d="M179.25,747.471H77.35a5.477,5.477,0,0,1-5.428-5.428v-9.376a5.477,5.477,0,0,1,5.428-5.428h101.9a5.477,5.477,0,0,1,5.428,5.428v9.376a5.477,5.477,0,0,1-5.428,5.428m-62.3,16.9H77.227A5.475,5.475,0,0,0,71.8,769.8v9.376a5.475,5.475,0,0,0,5.428,5.428H116.95V764.5h0Zm66.124,1.6a5.412,5.412,0,0,0-3.824-1.6H139.526v20.109H179.25a5.477,5.477,0,0,0,5.428-5.428v-9.376a5.413,5.413,0,0,0-1.6-3.825m0,37.01a5.412,5.412,0,0,0-3.824-1.6H139.526v20.109H179.25a5.477,5.477,0,0,0,5.428-5.428v-9.376a5.412,5.412,0,0,0-1.6-3.824m-66.124-1.6H77.227a5.475,5.475,0,0,0-5.428,5.428v9.376a5.475,5.475,0,0,0,5.428,5.428H116.95V801.258h0Z" fill="#ea0029"/></g></svg>