<svg xmlns="http://www.w3.org/2000/svg" viewBox="0 0 769.73 770"><title>Brentford FC logo vector</title><circle cx="385.27" cy="385.27" r="382.6" style="fill:#fff"/><path d="M578.93,441.73l137.86-55.84L693,424.1,579.19,450.55Zm0,15v6.15H745.11l-53.7-29.39Zm182.21-57.44c-.8-1.07-2.4-1.87-8-3.47l-28.59-7.48c0-.27-24.85,40.61-24.85,40.61l46.76,24.85,13.09-46C761.68,401.92,762.21,400.59,761.14,399.25ZM263.93,407.8l13.09,46,46.76-24.85S298.93,388,298.93,388.3l-28.59,7.48c-5.61,1.6-7.21,2.4-8,3.47C261.79,400.59,262.32,401.92,263.93,407.8Zm68.66,25.38-53.7,29.12H445.07v-5.88ZM578.93,469l-.27,5.88,69.2,11.22,43.28-17.37H578.93Zm0,11.49v6.15c0,.27,52.1,28.32,52.1,28.32s7.75,4.27,10.42,5.08a53.35,53.35,0,0,0,10.15.53l20.57-1.07s-28.32-25.92-27.79-25.65C644.92,493.83,578.93,480.47,578.93,480.47ZM711.18,477l-9.08-4.54-47,19.77,25.11,24,31-30.73c2.14-2.4,3.74-3.74,3.47-5.08C714.39,479.4,713.58,478.34,711.18,477Zm-401.3,3.21c0,1.34,1.34,2.67,3.47,5.08l31,30.73,25.11-24-47-19.77-9.08,4.54C311,478.34,309.88,479.4,309.88,480.21Zm135.73-38.47L307.74,385.89l23.78,38.21,113.82,26.45ZM333.39,469l43.28,17.37,69.2-11.22-.27-5.88H333.39Zm47,24.58c.8-.27-27.79,25.65-27.79,25.65l20.57,1.07s6.15.53,10.15-.53c2.4-.53,10.42-5.08,10.42-5.08s52.1-28.05,52.1-28.32v-6.15C445.61,480.47,379.61,493.83,380.42,493.56Zm196.91-61.45,44.08-47.56,28.32-34.47,1.6-9.35-2.94-2.67-3.47,10.69-74,67.06c.27.53,6.41,16.3,6.41,16.3M634,590.55c-.8-1.07-24.85-64.66-24.85-64.66-4-10.15-7.48-12-14.69-16l-16.56-10.42-.8,1.07,19,25.65v37.4l61.45,78c8.28,10.42,8.82,13.89,20.84,13.89L685.8,652l-14.16-2.4c.27.27-36.6-58-37.67-59m-243.13,0c-.8,1.07-37.67,59.31-37.67,59.31L339,652.27l7.48,3.47c12.29,0,12.56-3.47,20.84-13.89l61.45-78,.27-37.4,19-25.65-.8-1.07-16.56,10.42c-7.21,4-10.69,5.88-14.69,16-.27-.27-24,63.32-25.11,64.39m12.56-206.26,44.08,47.56s6.15-15.76,6.41-16.3l-73.74-66.79-3.47-10.69-2.94,2.67,1.6,9.35ZM586.68,529.63v77.75L561,650.93l-35,26.72-13.36,17.1L499,677.65l-35.27-26.72-25.65-43.55V529.63l23-32.33-7.75-5.08v-51l11-32.06,9.08-5.34s.53-15,3.74-19c2.4-3.21,14.16-6.95,14.16-6.95l5.88-8-20.84-29.92-20.57-11.22L449.08,321l10.15,3.21,21.64,12.29,20.84,29.66,10.69-2.67,10.42,2.67,21.11-29.66,21.64-12.29L575.72,321,569,328.72l-20.57,11.22L527.9,370.13l5.61,7.75s11.76,4,14.16,6.95c2.94,4,3.74,19,3.74,19l9.08,5.34,11,32.06v51L564.23,497Zm-46-66v24.85l14.16-31.79L512.13,438l-40.61,14.16.27,1.34,40.34-4.54ZM530.3,395l13.89,5.61-11-20Zm-50,5.88,14.16-5.34-3.21-14.69Zm-19.5,39.27L490,424.63h44.89L564,440.13,560.76,431l-20.84-17.37,18.7,6.41-2.14-6.41s-20-9.89-20.31-10.69H488.89c-.27.8-20.31,10.69-20.31,10.69l-2.14,6.41,18.7-6.41L464.31,431ZM571.18,618.6l-34.73,12.29H488.09l-34.2-12.29,12,21.11,28.59,10.42-20-.53,27.25,20.84h21.11l27.25-20.84-20,.53,28.59-10.42Zm-85.5-16h53.17l24.85-19-.27-.8-27.25,9.89H488.62l-27.25-9.89-.27.8Zm92.44-70.8h0l-40.88,4.81,31-17.1L556,502.38l-17.63,11.76H486.48l-17.1-11.49L457.1,519.48l30.46,17.1-40.88-5.08h0v21.91l26.45,9.89h78.55l26.45-9.89V531.77ZM896.87,512c0-212.14-172.6-385-385-385S127.13,299.86,127.13,512s172.6,385,385,385S896.87,724.14,896.87,512Zm-9.08,0c0,207.06-168.59,375.65-375.65,375.65S136.22,719.06,136.22,512,304.81,136.35,512.13,136.35,887.78,304.94,887.78,512ZM321.64,383.22a229.4,229.4,0,0,1,380.73,1.34l8.82-3.74C668.43,316.43,594.42,273.15,511.6,273.15s-155.76,42.21-198.78,106.6ZM276.75,469A230,230,0,0,0,273,512c0,131.72,107.14,238.85,238.85,238.85S750.72,643.72,750.72,512a230.83,230.83,0,0,0-4-43.28h-9.35a230.83,230.83,0,0,1,4,43.28c0,126.64-103.13,229.5-229.5,229.5s-230-102.86-230-229.5a228,228,0,0,1,4-43Z" transform="translate(-127.13 -127)" style="fill:#0f0f0f"/><path d="M464,431.31l20.84-17.37-18.7,6.41,2.14-6.41s20-9.89,20.31-10.69h47.29c.27.8,20.31,10.69,20.31,10.69l2.14,6.41-18.7-6.41,20.84,17.37,3.21,9.08-29.12-15.5H489.69l-29.12,15.5ZM571.18,618.6l-34.73,12.29H488.09l-34.2-12.29,12,21.11,28.59,10.42-20-.53,27.25,20.84h21.11l27.25-20.84-20,.53,28.59-10.42Zm6.95-86.83h0l-40.88,4.81,31-17.1L556,502.38l-17.63,11.76H486.48l-17.1-11.49L457.1,519.48l30.46,17.1-40.88-5.08h0v21.91l26.45,9.89h78.55l26.45-9.89V531.77Z" transform="translate(-127.13 -127)" style="fill:#ffb400"/><path d="M612.86,370.13V310.82l4.27,2.4v52.9Zm0,224.69v116l4.27-2.4V601.77Zm4.27-175.53V397.92L612.86,403v18.17Zm0,109.27V513.87l-4.27-2.67V520Zm-67.6-202V292.11l-4.27-.8V329Zm-4.27,346.26v59.85l4.27-.8V669.1Zm0-318.47V376l4.27,2.14V348Zm140,37.4V369.33L681,365.59v28.05Zm-4.54,132V644l4.27.8V523.49ZM413.28,370.13V310.82l-4.27,2.4v52.9ZM409,601.77v106.6l4.27,2.4v-116Zm4.27-180.61V403L409,397.92v21.37Zm0,98.85V511.2L409,513.87v14.69Zm67.6-191V291.31l-4.27.8v34.47Zm-4,340.38v62.79l4.27.8V673.11Zm0-321.41v30.19l4.27-2.14V354.37ZM345.15,393.37V365.32l-4.27,3.74V391.5Zm-3.74,130.11v121.3l4.27-.8V523.76Z" transform="translate(-127.13 -127)" style="fill:#e5e5e5"/><path d="M293,317.23c-3.74-3.21-8-1.6-11.22,2.14L276.22,326l11.49,9.62,5.34-6.41C296.26,325.24,296.79,320.44,293,317.23Z" transform="translate(-127.13 -127)" style="fill:#d20000"/><polygon points="351.07 697.06 360.95 698.13 357.48 684.24 351.07 697.06" style="fill:#d20000"/><path d="M439.73,799.75l-6.15-1.6-2.67,9.35,5.88,1.6c2.94.8,5.88-.53,6.68-3.47C444.27,802.15,442.13,800.28,439.73,799.75Z" transform="translate(-127.13 -127)" style="fill:#d20000"/><path d="M264.19,305.21l-5.34,6.41,9.89,8.28,5.08-6.15c2.67-3.21,2.67-7.21-.53-9.89C270.07,300.93,266.33,302.8,264.19,305.21Z" transform="translate(-127.13 -127)" style="fill:#d20000"/><path d="M214.77,506.39a4.81,4.81,0,0,0,0-9.62,4.82,4.82,0,0,0,0,9.62Z" transform="translate(-127.13 -127)" style="fill:#d20000"/><path d="M347.82,757.8c-6.15-4-14.43-2.4-19,5.08-4.81,7.48-2.67,15.23,3.47,19.24s14.43,2.4,19-4.81C356.1,769.82,354.23,761.81,347.82,757.8Z" transform="translate(-127.13 -127)" style="fill:#d20000"/><path d="M435.45,816,429,814.18l-2.94,10.69,6.15,1.6c3.74,1.07,7.21-.27,8.28-3.74C441.33,819.52,438.93,817.11,435.45,816Z" transform="translate(-127.13 -127)" style="fill:#d20000"/><path d="M214.77,512a7.22,7.22,0,1,0,7.48,7.21A7.24,7.24,0,0,0,214.77,512Z" transform="translate(-127.13 -127)" style="fill:#d20000"/><path d="M325.11,257.65c-2.67-3.21-6.95-3.74-10.69-.8L308,262.19l9.35,11.49,6.15-4.81C327.25,265.66,327.78,261.12,325.11,257.65Z" transform="translate(-127.13 -127)" style="fill:#d20000"/><path d="M755,326.31c7.21-6.95,9.35-17.37,1.07-25.38l-6.15-6.15L723.2,321l5.88,5.88C737.36,335.13,747.78,333.26,755,326.31Z" transform="translate(-127.13 -127)" style="fill:#d20000"/><path d="M800.68,506.12a4.81,4.81,0,0,0,0-9.62,4.57,4.57,0,0,0-4.54,4.81C796.14,504.25,798,506.12,800.68,506.12Z" transform="translate(-127.13 -127)" style="fill:#d20000"/><path d="M800.68,512a7.22,7.22,0,1,0,7.48,7.21A7.09,7.09,0,0,0,800.68,512Z" transform="translate(-127.13 -127)" style="fill:#d20000"/><path d="M837.82,496.77c-4.54,0-7.21,3.47-7.21,7.48a7.24,7.24,0,0,0,7.21,7.48c4.54,0,7.21-3.47,7.21-7.48C845,500,842.1,496.77,837.82,496.77Z" transform="translate(-127.13 -127)" style="fill:#d20000"/><path d="M705.57,264.33c2.4-3.21,2.14-7.48-1.87-10.42L697,248.83l-8.82,12,6.41,4.81A7.47,7.47,0,0,0,705.57,264.33Z" transform="translate(-127.13 -127)" style="fill:#d20000"/><path d="M624.08,251.24c9.08,3.74,19.24,0,23.78-10.69s0-20.84-9.08-24.58-19.24,0-23.78,11C610.45,237.34,615,247.5,624.08,251.24Z" transform="translate(-127.13 -127)" style="fill:#d20000"/><path d="M512.4,145.7c-202,0-366,164.31-366,366,0,202,164.31,366,366,366,202,0,366-164.31,366-366S714.12,145.7,512.4,145.7ZM763,294c13.09,13.36,10.42,30.19.27,40.08-9.89,9.89-27.52,13.36-41.95-1.07L708,319.63l40.61-40.08Zm-52.37-47c9.08,6.95,9.89,16.83,4.54,24a16.08,16.08,0,0,1-17.63,5.88l-3.47,28.85-11-8.28,3.74-25.38-4.27-3.21L669,286.77l-9.08-6.95,34.2-45.42ZM604.58,222.38c6.68-15.76,23.24-22.71,38.47-16.3s22.18,23,15.5,38.74-23.24,22.44-38.47,16C604.84,254.71,597.9,238.15,604.58,222.38Zm-42.21-39.27,33.93,6.41-1.87,9.62-22.71-4.27L569,208.49,587.21,212l-1.87,9.62-18.17-3.47-4.54,23-11.22-2.14Zm-73.47-3.47,47,.27v9.89H518l-.27,47H506.26l.27-47h-17.9Zm-61.45,11.22L461.64,220l-8-35.27L464.84,182l12.82,55.57L467.25,240l-33.93-28.85,8,35-11.22,2.67-12.82-55.57ZM385,204.48l4.27,8.82-20.84,9.89,5.88,12.56,16.56-8,4.27,8.82-16.56,8,5.88,12.29,21.37-10.15,4.27,8.82-31.79,15.23-24.58-51.3Zm-75.61,44.08c8.82-7.21,18.7-5.61,24.31,1.6a16.25,16.25,0,0,1,1.34,18.7l27,10.42-10.69,8.82-23.78-9.89-4,3.21,14.16,17.63-8.82,7.21-36.07-44.62Zm-51.83,49.69c7.48-8.82,16-9.62,21.91-4.81a13.23,13.23,0,0,1,3.74,15c5.08-4,11.76-4.54,17.37,0,6.41,5.34,9.35,16.3,1.07,25.92L288,350.63,244.16,314ZM187.52,532H181.1V494.9l6.41-4Zm27.25.53c-7.75,0-13.89-5.61-13.89-13.09A11.92,11.92,0,0,1,207,508.79a9.44,9.44,0,0,1-2.94-7.21,10.69,10.69,0,0,1,21.37,0,9.87,9.87,0,0,1-2.94,7.21,12.24,12.24,0,0,1,6.15,10.69C228.66,527,222.78,532.57,214.77,532.57Zm58.51,171.79-5.88,4.27-8.28-11.22L245,707.84l-5.08-6.95,34.47-25.38,15.5,20.84L284,700.63l-10.42-13.89-8.28,6.15ZM280,750.59c-8.55-8.82-8.55-22.44.8-31.53s22.71-8.82,31.53.27c8.55,8.82,8.55,22.44-.8,31.53S288.51,759.67,280,750.59Zm78.82,31.26c-6.95,10.69-20,13.63-30.73,6.95-10.42-6.68-13.36-20-6.68-30.73,6.95-11,20.31-13.89,30.73-7.21C362.52,757.8,365.72,771.16,358.77,781.85Zm49.43,8.55-12.29-5.61-14.69,32.33-7.75-3.47,14.69-32.33-12.29-5.61,2.94-6.68,32.33,14.69Zm44.08,15.76a10,10,0,0,1-9.08,7.21c4.27,2.4,6.95,6.68,5.34,11.76-1.6,6.15-8.28,11.49-17.37,8.82l-15.5-4.27,11.49-41.15,15,4.27C450.68,795.21,453.89,800.82,452.29,806.16ZM492.9,843.3l-2.67-9.89-15.76-1.6-4.54,9.35-9.35-1.07,20.84-40.88,8.28.8L502,844.37Zm19-83.09c-136.79,0-248.21-111.41-248.21-248.21a249.45,249.45,0,0,1,4-43.82c.8-4,2.14-8.55,2.14-8.55l-14.43-49.16c-2.94-10.42-4.27-13.36-2.67-16,.53-1.07,1.87-2.94,6.68-4l42.48-10.69.8-1.6a247.94,247.94,0,0,1,417.06-1.07l1.34,2.4,42.48,10.69c4.81,1.34,6.15,2.94,6.68,4,1.6,2.67.53,5.61-2.67,16l-14.16,49.16s1.34,4.81,2.14,9.08A233.72,233.72,0,0,1,759.27,512C760.07,648.79,648.66,760.21,511.87,760.21ZM522,843.83l-2.4-42.75,8.55-.53,2.14,35.53L547.4,835l.53,7.21ZM567.44,839l-8.28-41.95,8.55-1.6,6.95,34.73,16.83-3.47,1.34,7.21Zm83.36-26.18c-10.42,4.54-22.71,1.07-28.32-11.76-6.15-13.63,1.07-25.38,11.22-29.92a21,21,0,0,1,18.7.53l-3.21,7.75a12.74,12.74,0,0,0-12.29-.8c-6.68,2.94-10.42,9.62-6.41,18.44,3.74,8.28,11,11,17.63,8,5.08-2.14,8-6.95,7.75-13.36l8,.53C663.62,802.15,658.55,809.63,650.8,812.84Zm36.34-19.77-23.78-35.53,7.21-4.81,19.77,29.39,14.16-9.62,4,6.15Zm50-36.07c-6.41,5.61-16.56,7.21-23.78-.8l-18.17-20.84,6.41-5.61,17.63,20c4.27,4.81,8.82,4.27,12.56,1.07,3.47-3.21,4.81-7.75.53-12.56l-17.63-20,6.41-5.61,18.17,20.84C746.71,741.5,743.77,751.39,737.1,757Zm39.27-42.75-11,11.76-31.26-29.39,10.69-11.22c5.88-6.41,12.56-6.41,16.56-2.67a9.75,9.75,0,0,1,2.14,11.49c4-2.67,9.08-2.94,13.09.8C781.18,699,782.78,707.31,776.37,714.25Zm24.31-181.68c-7.75,0-13.89-5.61-13.89-13.09a11.92,11.92,0,0,1,6.15-10.69,9.44,9.44,0,0,1-2.94-7.21,10.69,10.69,0,0,1,21.37,0,9.87,9.87,0,0,1-2.94,7.21,12.24,12.24,0,0,1,6.15,10.69C814.58,526.69,808.7,532.57,800.68,532.57Zm36.6-.53h-6.95l8.55-14.69c-.53,0-1.07.27-1.6.27a13.37,13.37,0,1,1,14.16-13.36A15.56,15.56,0,0,1,849,512Z" transform="translate(-127.13 -127)" style="fill:#d20000"/><path d="M756.6,690.21c-2.4-2.4-5.34-1.07-6.95.8l-4.27,4.54,7.21,6.68,4-4.54C758.47,695.28,758.74,692.34,756.6,690.21Z" transform="translate(-127.13 -127)" style="fill:#d20000"/><path d="M286.64,725.47c-6.15,6.15-6.15,14.43-1.07,19.77s13.36,5.61,19.77-.27c6.41-6.15,6.15-14.43,1.07-19.77C301.33,719.6,293,719.33,286.64,725.47Z" transform="translate(-127.13 -127)" style="fill:#d20000"/><path d="M762.21,702.23,757.67,707l8.28,7.75,4.27-4.54c2.67-2.67,3.21-6.68.53-9.08C767.82,698.49,764.61,699.56,762.21,702.23Z" transform="translate(-127.13 -127)" style="fill:#d20000"/></svg>