<svg id="Layer_1" data-name="Layer 1" xmlns="http://www.w3.org/2000/svg" viewBox="0 0 153.6 153.6"><title>Chelsea FC logo - Brandlogos.net</title><path d="M460.44,370.31a76.8,76.8,0,1,1-76.8-76.8,76.8,76.8,0,0,1,76.8,76.8" transform="translate(-306.84 -293.51)" style="fill:#fbb700"/><path d="M457.88,370.31a74.24,74.24,0,1,1-74.24-74.24,74.24,74.24,0,0,1,74.24,74.24" transform="translate(-306.84 -293.51)" style="fill:#001489"/><path d="M436.54,370.31a52.91,52.91,0,1,1-52.91-52.91,52.9,52.9,0,0,1,52.91,52.91" transform="translate(-306.84 -293.51)" style="fill:#fbb700"/><path d="M434.94,370.31a51.3,51.3,0,1,1-51.3-51.3,51.3,51.3,0,0,1,51.3,51.3" transform="translate(-306.84 -293.51)" style="fill:#fff"/><path d="M420.33,368.3c-1.06-2.81-4.71-4-8.17-2.73a7.66,7.66,0,0,0-3.42,2.52c2.28-6.51,11.57-7.89,11.57-13.94,0-10.15-14.41-7.3-12.31,0,0-3.32,5.28-3.92,5.28,0s-9.2,6.49-9.2,13.12c0,7.3,7.3,8,6.57,14.66a3.25,3.25,0,0,1-3.16,2.67c-11.19,0-7.2-13.78-11.11-18l.2-2.83c2.26,1.39,8.26-1.86,4.32-6.81,0,2.44-5.07,2.3-5.07-2.3,0-6.22,5.82-3,6.1-1.6a12.61,12.61,0,0,1,0-5c-3.14,1-3.43-.8-3-1.5s1.07-1.76,2.28-1.76a2.36,2.36,0,0,1,1.29.25c.39.27.68-.34.62.23.33-.51.2.13.53-.39a10.51,10.51,0,0,1,1.55-1.85l0-1.15.91.34.88-1.42c-.95-2-2.23-1-3.18-3.45-.79-.21-13.12,1.14-12.76-3.78-1,0-3.39.55-1.91,2.55-1.15.14-2-1.16-3.7,2.35,2.16-.4,1,2,1,2.7,0,4.46-5.93,4.38-5.93,2.29-1.43,1.39-.62,4.43,1.54,5.18a13.29,13.29,0,0,1-2.85,5.31c-3-.12-7.85-.64-10.63-3.27a9.55,9.55,0,0,0-3-2.07v-1.47a11.4,11.4,0,0,0,3.84-3.33,6.49,6.49,0,0,0,1.47-4.7c0-.21,0-.42-.09-.62s0-.13,0-.19-.06-.28-.11-.42l-.06-.21c0-.14-.1-.27-.15-.41l-.07-.17c-.08-.18-.16-.35-.25-.52l-.12-.2-.19-.3-.16-.24-.18-.23-.2-.25-.14-.15a6.93,6.93,0,0,0-.57-.55l-.06-.05-.35-.27-.09-.07-.39-.26h0a7.33,7.33,0,0,0-4.41-1.06,6.68,6.68,0,0,0-1.31,13.19,7.48,7.48,0,0,1-2,.85l.12.07,0,0,.13.07,0,0,.2.1,0,0,.2.09.06,0a5.68,5.68,0,0,0,.57.19l.09,0,.26.06.09,0,.35.06h0v.84l-.12,0c-1.27.21-2.09.6-2.46,1.72s0,1.54.6,2.33c-.5.89-1.81,1.23-.1,3.21a2,2,0,0,0,1.12,2.3,6.6,6.6,0,0,0,1,.24v14.83a4,4,0,0,0-1.91,2s-.87-1.93-.81,1.9c1-.77.6.89.6.89-1.35,1.74.37,1.65.37,1.65,1.16-1.16.92.52.92.52a4,4,0,0,0,.84,2.86v11.3h-1v3.12h1.72a2.4,2.4,0,0,0-1.51,2.41,2.51,2.51,0,0,0,2.74,2.21,2.45,2.45,0,0,0,2.32-2.61,2.43,2.43,0,0,0-1.52-2h1.59v-3.12h-.95v-10a2.4,2.4,0,0,0,.63.23l.28,0h.13a2.67,2.67,0,0,1,.53-2.19,4.27,4.27,0,0,1,1.65-1.42c2-1,4.7-.75,5.52.88,5.14-1.35,9.56-6.52,9.56-6.52l2.53,4.31c-5.37,1.79-17.05,12-8.94,15.47,0,1-.14,8.63-5,8-7-.86-8.77,2-7.42,5.3a3.1,3.1,0,0,0,1.48,3.71c-.32-1.59.45-2.91,3.35-2.89,0,2.9,1.86,3.42,1.86,3.42a3.13,3.13,0,0,1,3.27-3.4c0,2,2.37,2.83,2.37,2.83a2.27,2.27,0,0,1,2.08-2.83c6.81-1.18.42-8.19,10.77-10.11,0,0-5.15-.78-5.15-3.6,0-2.56,4.66-4.32,6.27-4.32,3.3,6.29,6.88,6.34,7.81,6.39,1.46,1.63,1,7.12-1.13,7-7.71-.41-7.43,4.28-6.57,5.24a3.56,3.56,0,0,0,1.32,2.87c0-2,1.86-2.5,4.24-2.37-.12,2.38,1.39,2.74,1.39,2.74,0-2.4,1.82-2.8,3.08-2.74A2.22,2.22,0,0,0,403,412.6a2,2,0,0,1,2.08-2.14c4.26,0-1.93-9.14,6.39-18.17-7.31,3.38-11.2-5.07-11.2-6.69,3.76,4.4,15.93,5.27,15.93-2.23,0-7.17-7.88-9.84-4.2-12.58,2.15-1.6,6.36,1.63,3.95,5,3.46-1.28,5.39-4.63,4.33-7.44m-46.7.23c-2.75,1.62-4.6,3.67-7.11,4.57a2.29,2.29,0,0,1-.95.15v-14a15.83,15.83,0,0,1,4.41,1.13c2,1.09,2,3.35-.52,3.88,1.59,3.05,7.12,1.56,8.32-.93.59-.05,1.11,1,1.6,2-.77.4-2.36,1.2-5.75,3.2m30.83-23.2-.86,1.17a3.62,3.62,0,0,0,6.72-2.19c0-.07,0-.14,0-.21a3.16,3.16,0,0,1-3,2,3.69,3.69,0,0,1-2.85-.82" transform="translate(-306.84 -293.51)" style="fill:#ccc"/><path d="M360,336.9h0a1.91,1.91,0,0,1,.1-.22,1.58,1.58,0,0,0-.1.21m.13,58.71h0M360,330.92h0Zm-1.05,64.34h1.72a2.52,2.52,0,0,0-.57.34,1.56,1.56,0,1,1-.94,1.93v.14a2.51,2.51,0,0,0,2.74,2.21,2.45,2.45,0,0,0,2.32-2.61,2.43,2.43,0,0,0-1.52-2h1.59v-3.12h-.95v-10a2.42,2.42,0,0,1-1.26-2.6,2.68,2.68,0,0,1,1.48.4c-.55,1.21.82,2.48.82,2.48a2.67,2.67,0,0,1,.53-2.19,4.27,4.27,0,0,1,1.65-1.42c2-1,4.7-.75,5.52.87,5.14-1.35,9.56-6.52,9.56-6.52l2.53,4.3c5.93,0,3.87-4.44,3.48-4.83a3.24,3.24,0,0,1,3.29,3.23c0,5.46-15.89,6.24-15.89,12.88a4.39,4.39,0,0,0,2.76,3.85c0,6-4.15,9.64-7,9.64-4.54,0-8-.92-8,4h1.58c-1.5,1.5-.1,3.71-.1,3.71-.32-1.59.45-2.9,3.35-2.89h1.81a2.6,2.6,0,0,0,0,3.42,3.13,3.13,0,0,1,3.27-3.4h1.31c-.36.36.22,2,1.05,2.82a2.27,2.27,0,0,1,2.09-2.82c6.81-1.18.41-8.19,10.76-10.11,0,0-5.15-.78-5.15-3.6,0-2.56,4.66-4.32,6.27-4.32a10,10,0,0,1,3.5.09c.42,4.06,5.09,3.86,6.1,3.86,4,4-1,10.31-1,10.31-6.08,0-8.48.84-8.48,4.38h1.15c-.65.65-.28,2.43.17,2.87,0-2,1.86-2.49,4.24-2.37H396a2.23,2.23,0,0,0,.14,2.74c0-2.4,1.81-2.8,3.08-2.74h1c-.39.39,0,1.65.54,2.18a2,2,0,0,1,2.08-2.14c4.26,0-1.93-9.14,6.39-18.16-7.31,3.38-11.2-5.07-11.2-6.7,3.76,4.4,15.93,5.27,15.93-2.23,0-6.05-5.62-8.9-5.15-11.29a3.59,3.59,0,1,1,4.91,3.65h0c3.46-1.28,5.39-4.63,4.33-7.44s-4.71-4-8.17-2.73a7.67,7.67,0,0,0-3.43,2.52c2.28-6.51,11.57-7.89,11.57-13.94,0-10.15-14.41-7.3-12.31,0a3.07,3.07,0,0,1,0-.32c.37-4.13,7.75-5,7.75.41,0,4.6-9.45,7.15-9.45,13.34,0,6.36,7,7.94,7,14.64,0,.79-.42,4.22-5.06,4.22-4.48,0-6.63-2.5-7.85-5.77h0c-2.28-4.4-1.44-11.28-4-14l.2-2.83c2.26,1.39,8.26-1.86,4.32-6.81,0,2.44-5.08,2.3-5.08-2.3,0-6.22,5.82-3,6.1-1.6a12.57,12.57,0,0,1,0-5c-3.14,1-3.43-.8-3-1.51s1.07-1.76,2.29-1.76c1.76,0,1.65.65,1.56,1.56a13.2,13.2,0,0,1,2.43-3.32l0-1.15.91.34.88-1.42c-.95-2-2.23-1-3.18-3.45-.79-.2-11.15-1.16-10.79-6.08-.92,0-3.41,3.16-1.73,4.85h-2.15c-1.15.14-3.83-.67-5.56,2.85,4.24-4.24,7,5.88-.82,5.88h0c-1.15,0-2.14-.48-2.21-1.29-.78,3.42,4.14,4.48,4.14,4.48,0,1-2.46,6.51-3.66,7.71.81.81,1.06,5.69-2.68,5.69,1.35-3.64-2.61-6.73-6.46-8.77h0a11.32,11.32,0,0,1-2-1,42.2,42.2,0,0,0-4.28-1.69v-2.85a11.46,11.46,0,0,0,3.84-3.33,6.47,6.47,0,0,0,1.47-4.7,5.78,5.78,0,0,0-.09-.62c0-.06,0-.13,0-.19s-.07-.28-.11-.42,0-.14-.06-.2-.1-.28-.15-.41l-.07-.17c-.07-.18-.16-.35-.25-.52l-.12-.2-.19-.3-.16-.24-.17-.23-.2-.25-.15-.16a7.05,7.05,0,0,0-.56-.54l-.06-.05-.35-.27-.09-.07-.39-.26h0a7.2,7.2,0,0,0-5.43-.89c-2.24.86-3.87,3.48-3.87,6.59a7,7,0,0,0,3.49,6.42l.09,0a7.49,7.49,0,0,1-2,.85l.12.07,0,0,.13.07,0,0,.2.1,0,0,.2.09.06,0a5.77,5.77,0,0,0,.57.19l.09,0,.26.06.09,0,.35.06h0a6.6,6.6,0,0,0,1.62-.12v1.66a4.69,4.69,0,0,1-1.62-.7l-.12,0c-1.26.21-2.09.59-2.46,1.72s0,1.54.6,2.33c-.5.89-1.81,1.23-.1,3.21A2,2,0,0,0,359,356a6.26,6.26,0,0,0,1,.24,1.72,1.72,0,0,1,1.62,1.87v12.75c.59,0,1.22.11,1.8.16V357a15.84,15.84,0,0,1,4.41,1.13l.06,0h0a3.5,3.5,0,0,1,.55.12,2,2,0,1,1-1.14,3.73c1.59,3.06,7.12,1.56,8.33-.93.59-.05,1.11,1,1.6,2a15.17,15.17,0,0,0,4.81.53s-13.88,8.86-17.9,8.86c-1.71,0-5.52,0-5.52,1.3-1,0-2.55,1.78-2.55,2.79a3.22,3.22,0,0,1,1.79-.77,3,3,0,0,1,1.32.25c-.31.31-1.69,1.87-1.69,3.08,1.16-1.16,1.67-1.15,1.67-1.15s1.21-.16,1.64.28a4.24,4.24,0,0,0-.8,2.58s.72-1.39,1.62-1.39v13.32c0,.41-1.84.8-2.59.8m.56-38.62c-.34,0-.5-.43-.51-.59s.12-.62.46-.63a5.7,5.7,0,0,1,2.45.52,5.63,5.63,0,0,1-2.4.7m-.52-2.2c-.47,0-.63-.67-.61-.89s.26-.83.73-.79c1.13.08,3.31.87,3.29,1.09s-2.29.68-3.41.6m-.19-2.82c-.5-.13-.54-.85-.48-1.08s.45-.84.95-.71c1.19.31,3.38,1.59,3.32,1.83s-2.59.28-3.79,0m3.68-7.94a3.24,3.24,0,0,0,0-1.8h-.06a2.59,2.59,0,0,1-2.59-2.59,1.56,1.56,0,0,1,.1-.7h0a2.59,2.59,0,0,1,5.08.71c0,1.65-1.16,3.17-2.56,4.39" transform="translate(-306.84 -293.51)" style="fill:#001489"/><path d="M401.37,344.26a3.62,3.62,0,0,0,6.72-2.2c0-.07,0-.14,0-.21a3.17,3.17,0,0,1-3,2,3.69,3.69,0,0,1-2.85-.82l-.86,1.17" transform="translate(-306.84 -293.51)" style="fill:red"/><path d="M396.53,337.54l1.25.07-.63.86s-.84.27-.63-.92m-3,0h1.81s-.07,1.46,1.25,1.59l-.28.46s-3.54-.92-2.78-2" transform="translate(-306.84 -293.51)" style="fill:#fff"/><path d="M362.58,350c.06-.24-2.13-1.51-3.32-1.83-.5-.13-.88.47-.95.71s0,1,.48,1.08c1.19.31,3.72.27,3.79,0m-.18,2.18c0-.22-2.16-1-3.29-1.09-.47,0-.72.57-.73.8s.14.86.61.89c1.12.08,3.4-.37,3.41-.6m-2.48-6.59v.84a4.67,4.67,0,0,0,1.62.7v-1.66a6.62,6.62,0,0,1-1.62.12m-.46,8.16c-.34,0-.47.47-.46.63s.17.61.51.59a5.62,5.62,0,0,0,2.4-.7,5.7,5.7,0,0,0-2.45-.52m-1.67,22.08a3,3,0,0,0-.38,3.33c0-1.21,1.39-2.77,1.69-3.08a3,3,0,0,0-1.32-.25m4.29,3.7a2.42,2.42,0,0,0,1.26,2.6,2.49,2.49,0,0,0,.64.23l.28,0h.12s-1.36-1.28-.82-2.48a2.68,2.68,0,0,0-1.48-.4m-2.46-35.58a7,7,0,0,1-3.49-6.42c0-3.1,1.63-5.73,3.87-6.59a6.65,6.65,0,0,0-.38,13m21.66-7.16a2.37,2.37,0,0,1,2.9,2.2,3.55,3.55,0,0,1-3.72,3.67h0c7.82,0,5.06-10.12.82-5.88m-5.22,22.46c3.74,0,3.49-4.88,2.68-5.69,1.2-1.2,3.66-6.69,3.66-7.71,0,0-4.93-1.06-4.14-4.48h-.07c-1.34,1.42-.53,4.38,1.6,5.11a13.32,13.32,0,0,1-2.85,5.31,23.83,23.83,0,0,1-7.34-1.3c3.85,2,7.81,5.13,6.46,8.77M361.46,335.8a1.73,1.73,0,0,1,1.9,1.53,1.7,1.7,0,0,1-1.61,1.81,1.73,1.73,0,0,1-1.9-1.53,2.59,2.59,0,0,0,2.59,2.59h.07a3.25,3.25,0,0,1,0,1.8c1.4-1.22,2.56-2.74,2.56-4.39a2.59,2.59,0,0,0-5.09-.7,1.75,1.75,0,0,1,1.51-1.11M389,333.91c-1.69-1.69.81-4.85,1.72-4.85-1,0-5.35,2.85-3.88,4.85ZM367.22,362a2,2,0,1,0,1.14-3.73,3.43,3.43,0,0,0-.56-.12c1.94,1.1,1.91,3.32-.58,3.85m-3.89-14.24a42,42,0,0,1,4.28,1.69,8.59,8.59,0,0,1-1.32-1,9.44,9.44,0,0,0-3-2.07Zm.73,24.7c4,0,17.89-8.86,17.89-8.86a15.17,15.17,0,0,1-4.81-.53c-.77.4-2.36,1.2-5.75,3.19-2.75,1.62-4.6,3.67-7.11,4.57a2.36,2.36,0,0,1-1,.16c-.58,0-1.21-.13-1.8-.16V358.11a1.72,1.72,0,0,0-1.62-1.87v14.83a4,4,0,0,0-1.92,2s-2.07-.28-2,3.55c0-1,1.51-2.79,2.55-2.79,0-1.3,3.8-1.3,5.52-1.3M398.69,393c-1,0-5.68.2-6.1-3.86a10,10,0,0,0-3.5-.09c3.3,6.29,6.88,6.34,7.81,6.39,1.46,1.63,1,7.12-1.14,7-7.71-.41-7.43,4.28-6.57,5.24,0-3.54,2.4-4.38,8.48-4.38,0,0,5-6.35,1-10.31m1.59,15.19h-1a2.23,2.23,0,0,0,1.58,2.18c-.53-.53-.93-1.79-.54-2.18m-9.75,2.37c-.44-.44-.81-2.22-.17-2.87H389.2a3.55,3.55,0,0,0,1.32,2.87m23-58.56c0-5.38-7.38-4.54-7.75-.41.33-3,5.26-3.47,5.26.32s-9.2,6.49-9.2,13.12c0,7.31,7.31,8,6.57,14.66a3.25,3.25,0,0,1-3.16,2.67c-3.85,0-5.9-1.63-7.1-3.94,1.22,3.27,3.37,5.77,7.85,5.77,4.64,0,5.06-3.43,5.06-4.23,0-6.69-7-8.28-7-14.64,0-6.19,9.45-8.74,9.45-13.34m-54.45,26a4,4,0,0,0,.84,2.86,4.25,4.25,0,0,1,.8-2.58c-.43-.43-1.64-.28-1.64-.28m53.36-11.39a3.59,3.59,0,0,0-3.57,3.26,2.2,2.2,0,0,1,1-1.29c2.15-1.6,6.35,1.62,4,4.94a3.58,3.58,0,0,0-1.34-6.91M396,408.2h-1.25c-.12,2.38,1.39,2.74,1.39,2.74a2.24,2.24,0,0,1-.14-2.74m-35.37-12.7a1.57,1.57,0,0,0-.55.1,2.35,2.35,0,0,0-.94,1.93,1.56,1.56,0,1,0,1.48-2m8.8,11.57h-1.81c0,2.9,1.86,3.42,1.86,3.42a2.6,2.6,0,0,1,0-3.42M375,388.71c0-6.63,15.89-7.41,15.89-12.88a3.24,3.24,0,0,0-3.29-3.23c.39.39,2.45,4.83-3.48,4.83-5.37,1.79-17.05,12-8.94,15.48,0,1-.14,8.62-5,8-7-.87-8.77,2-7.42,5.3,0-5,3.48-4,8-4,2.84,0,7-3.59,7-9.64a4.4,4.4,0,0,1-2.76-3.85m-13.51,4.07V379.46c-.9,0-1.62,1.39-1.62,1.39v11.3h-1v1.43c.75,0,2.59-.39,2.59-.8m2.74,17.17s-1.4-2.21.1-3.71h-1.58a3.1,3.1,0,0,0,1.49,3.71m9.79-2.86h-1.31c0,2,2.37,2.82,2.37,2.82-.84-.84-1.41-2.47-1.06-2.82" transform="translate(-306.84 -293.51)" style="fill:#6672b8"/><path d="M452.31,383.73l-.13-.25-.09-.27c-.29-.92-.83-2.64-2.24-2.71a1.88,1.88,0,0,0-1.11.32,1.86,1.86,0,0,0-.24-1.13c-.73-1.21-2.5-.88-3.45-.71l-.28,0h-.28c-1,0-2.76,0-3.27,1.29a.79.79,0,1,1-1.19,1c-1.38.32-1.61,2.1-1.74,3.06l0,.28-.09.27c-.31.92-.88,2.62.22,3.51a.79.79,0,1,1,.62,1.45c-.12,1.41,1.5,2.18,2.38,2.6l.25.13.23.16c.78.58,2.22,1.64,3.41.88a.79.79,0,1,1,1.57-.14c1.3.55,2.54-.75,3.2-1.45l.2-.2.23-.17c.79-.56,2.25-1.6,1.89-3a.79.79,0,1,1,.36-1.54c.93-1.07.07-2.65-.39-3.5" transform="translate(-306.84 -293.51)" style="fill:#fff"/><path d="M444,384.08c-4.82-4.78.09-4.16.81-4.22s5.44-1.52,1.54,4a2.64,2.64,0,0,0-.68-.16l-.55-1.68-.19,0-.25,1.74a2.71,2.71,0,0,0-.68.29m.56,5-1.4,1.44-.16-.1.61-1.89a2.75,2.75,0,0,1-.56-.68c-6.29,2.16-1.65,3.75-1,4.12s4.17,3.7,3.16-2.78a2.73,2.73,0,0,1-.62-.12m-1.89-2.37c0-.07,0-.15,0-.22l-1.7-.83,0-.18h1.84a2.74,2.74,0,0,1,.44-.77h0c-4.05-5.42-4.12-.48-4.29.23s-2.25,5.15,3.71,2.1a2.79,2.79,0,0,1-.06-.32m5.3.73a2.79,2.79,0,0,1-.42.76l.93,1.75-.14.12-1.63-1.18a2.8,2.8,0,0,1-.64.23c.14,6.55,3.06,2.65,3.6,2.18s4.82-2.83-1.69-3.87m3.42-3.6c-.28-.66-1.21-5.52-4.26.52a2.79,2.79,0,0,1,.62.69l1.82-.32.07.17L448.14,386c0,.07,0,.14,0,.21a2.77,2.77,0,0,1,0,.34c6.34,1.93,3.52-2.07,3.24-2.73m-6.11,1a1.62,1.62,0,1,0,1.76,1.48,1.62,1.62,0,0,0-1.76-1.48" transform="translate(-306.84 -293.51)" style="fill:red"/><path d="M437.78,355.26a7.1,7.1,0,1,0,5.76-8.22,7.11,7.11,0,0,0-5.76,8.22" transform="translate(-306.84 -293.51)" style="fill:#fff"/><path d="M441.93,352.41l.3-.2,1.75-1.16.46-.31c.51-.34,1-.64,1.39-.88l.48-.26a5.57,5.57,0,0,1,2.1-.62,6.28,6.28,0,0,1,1.52,1.57c-1.76.64-3.49,1.66-7.08,3.89-.2-.47-.89-1.93-.93-2m8.9.2a6.21,6.21,0,0,0-.61-1.6c-1.77.62-3.48,1.64-7.15,3.92l.51,1.29c3.53-.86,6.24-2.22,7.25-3.6m-5.4-3.13a4.79,4.79,0,0,0-4-.74,6.25,6.25,0,0,0-1.63,1.49,4.93,4.93,0,0,1,4.15.18c.52-.35,1-.66,1.45-.93m5.42,5.91a6.15,6.15,0,0,0,.1-2.09c-1.43,1.55-4.43,2.74-7.17,3.42l.84,2.09c.12,0,1.7-.44,2.39-.67l.58-.2a9.32,9.32,0,0,0,1.3-.59,6.07,6.07,0,0,0,.57-.36,4,4,0,0,0,1.38-1.6m-7.15,4.78a6.19,6.19,0,0,0,1.88,0,4,4,0,0,0,1.21-1.45c-.58.18-1.16.33-1.69.46l-.57.15a6.81,6.81,0,0,1-.83.8M439.83,352l.53,0a10,10,0,0,1,1.14,0l2-1.31a5,5,0,0,0-4.16.25,6.22,6.22,0,0,0-.52,1.22,6.59,6.59,0,0,1,1-.17m-1.17.77a6.21,6.21,0,0,0,4.08,7.11,11.77,11.77,0,0,1-2.92-7.34,6,6,0,0,0-1.17.23m9.08-4.27a6.2,6.2,0,0,0-4-.66,6.06,6.06,0,0,0-.79.2,4.63,4.63,0,0,1,3,1.12,6.69,6.69,0,0,1,1.8-.66m-7.38,4a11.34,11.34,0,0,0,3,7.24,3.81,3.81,0,0,0,.82-.79l-.88-2.17-.2-.5-.45-1.12-.21-.5c-.23-.55-.51-1.15-1-2.13a9,9,0,0,0-1.08,0m6.26,7.43a6.23,6.23,0,0,0,1.53-.7,5.86,5.86,0,0,0,.6-1.26,12.42,12.42,0,0,1-1.28.52,4,4,0,0,1-.84,1.44m2.52-1.5a6.3,6.3,0,0,0,1.07-1.4,6.07,6.07,0,0,1-.82.59,5.16,5.16,0,0,1-.25.81" transform="translate(-306.84 -293.51)" style="fill:red"/><path d="M329.89,385l-.09-.27,0-.28c-.12-1-.36-2.74-1.74-3.06a.79.79,0,1,1-1.19-1c-.51-1.32-2.31-1.3-3.27-1.29h-.29l-.28,0c-.95-.18-2.72-.51-3.45.71a.79.79,0,1,1-1.35.81c-1.41.07-2,1.79-2.24,2.71l-.09.27-.13.25c-.46.85-1.32,2.43-.39,3.5a.79.79,0,1,1,.36,1.54c-.37,1.36,1.1,2.41,1.89,3l.23.17.2.2c.66.7,1.9,2,3.2,1.46a1.88,1.88,0,0,0,.86-.78,1.86,1.86,0,0,0,.71.91c1.19.77,2.63-.3,3.41-.87l.23-.16.26-.13c.87-.42,2.5-1.19,2.37-2.6a.79.79,0,1,1,.62-1.45c1.1-.89.53-2.6.22-3.51" transform="translate(-306.84 -293.51)" style="fill:#fff"/><path d="M325.28,387a2.62,2.62,0,0,0,.06-.32c0-.07,0-.15,0-.22l1.7-.83,0-.18h-1.84a2.74,2.74,0,0,0-.44-.77h0c4.05-5.42,4.12-.48,4.29.23s2.25,5.15-3.71,2.11m-2.94-3.29.55-1.68.19,0,.25,1.75a2.72,2.72,0,0,1,.68.29c4.82-4.78-.09-4.16-.81-4.22s-5.44-1.52-1.54,4a2.76,2.76,0,0,1,.68-.16m-2.48,2.84a2.8,2.8,0,0,1,0-.34c0-.07,0-.14,0-.21l-1.53-1.11.07-.17,1.82.32a2.77,2.77,0,0,1,.62-.69c-3-6-4-1.18-4.26-.52s-3.1,4.66,3.24,2.73m5.09,1.29a2.77,2.77,0,0,1-.56.68l.61,1.89-.16.1-1.4-1.44a2.73,2.73,0,0,1-.62.12c-1,6.48,2.55,3.15,3.16,2.78s5.26-2-1-4.12m-3.65,1L319.68,390l-.14-.12.93-1.75a2.78,2.78,0,0,1-.43-.76c-6.51,1-2.23,3.4-1.69,3.87s3.46,4.37,3.6-2.19a2.76,2.76,0,0,1-.64-.23m2.53-3.47a1.62,1.62,0,1,0,.37,1.19,1.61,1.61,0,0,0-.37-1.19" transform="translate(-306.84 -293.51)" style="fill:red"/><path d="M323.74,347a7.1,7.1,0,1,0,5.76,8.22,7.11,7.11,0,0,0-5.76-8.22" transform="translate(-306.84 -293.51)" style="fill:#fff"/><path d="M324.41,354.44c-3.59-2.23-5.31-3.25-7.07-3.89a6.26,6.26,0,0,1,1.52-1.57,5.56,5.56,0,0,1,2.1.62l.48.26c.43.24.88.54,1.39.88l.46.31,1.75,1.16.3.2c0,.09-.73,1.55-.93,2m-.72,1.78.51-1.29c-3.67-2.28-5.38-3.29-7.15-3.92a6.17,6.17,0,0,0-.62,1.6c1,1.39,3.71,2.75,7.25,3.6m-.4-5.8a4.93,4.93,0,0,1,4.15-.18,6.25,6.25,0,0,0-1.63-1.49,4.8,4.8,0,0,0-4,.74c.45.27.93.58,1.45.93M317.8,357a6.3,6.3,0,0,0,.57.36,9.47,9.47,0,0,0,1.3.59l.59.2c.69.22,2.27.64,2.39.67l.84-2.09c-2.74-.68-5.74-1.87-7.17-3.42a6.2,6.2,0,0,0,.1,2.09,4,4,0,0,0,1.38,1.6m4.94,2.39-.57-.15c-.53-.14-1.11-.28-1.69-.46a4,4,0,0,0,1.21,1.45,6.22,6.22,0,0,0,1.88,0,6.86,6.86,0,0,1-.83-.8m5.73-7.15A6.23,6.23,0,0,0,328,351a5,5,0,0,0-4.16-.25l2,1.31a10.24,10.24,0,0,1,1.14,0l.53,0a6.49,6.49,0,0,1,1,.17m-1,.36a11.76,11.76,0,0,1-2.92,7.34,6.24,6.24,0,0,0,4.11-4.81,6.17,6.17,0,0,0,0-2.3,6.07,6.07,0,0,0-1.17-.23m-6.11-3.38a4.63,4.63,0,0,1,3-1.12,6.53,6.53,0,0,0-.79-.2,6.2,6.2,0,0,0-4,.66,6.65,6.65,0,0,1,1.8.66m4.5,3.38c-.47,1-.75,1.58-1,2.13l-.21.5-.45,1.12-.2.5-.88,2.17a3.83,3.83,0,0,0,.82.78,11.33,11.33,0,0,0,3-7.24,9.18,9.18,0,0,0-1.07,0m-6,6a11.91,11.91,0,0,1-1.28-.52,5.75,5.75,0,0,0,.6,1.26,6.2,6.2,0,0,0,1.53.7,4,4,0,0,1-.84-1.44m-1.93-.87a6.07,6.07,0,0,1-.83-.59,6.24,6.24,0,0,0,1.07,1.4,5.06,5.06,0,0,1-.25-.81" transform="translate(-306.84 -293.51)" style="fill:red"/><path d="M338.84,415.46l1.79,1.71-1.34,1.41-1.79-1.71-2.35,2.46-2-1.94,5.36-5.62.51-.54,4,3.81-1.34,1.41-2-1.87-.84.88m10.53,6.24a4.65,4.65,0,0,1-.89,2.69,4.55,4.55,0,0,1-2.94,1.9,4.2,4.2,0,0,1-4.79-3.4,4.75,4.75,0,0,1,3.77-5.31,4.17,4.17,0,0,1,4.84,4.11m-3.26,1c.44-.61,1.35-2.12.37-2.81s-2,.52-2.53,1.28-1.31,2.14-.38,2.8,2.1-.66,2.53-1.27m11.25,6.3a4.55,4.55,0,0,1-2.62,2.32,4.2,4.2,0,0,1-5.24-2.65,4.56,4.56,0,0,1,.32-3.49,4.23,4.23,0,1,1,7.55,3.82m-2.6-1.31a3.36,3.36,0,0,0,.46-2.27.94.94,0,0,0-.51-.57c-1-.52-1.88.81-2.3,1.65a4.39,4.39,0,0,0-.54,1.79,1.07,1.07,0,0,0,.58,1,1,1,0,0,0,.76.08,3.34,3.34,0,0,0,1.55-1.72m5.26-1.46-.4,1.13,1.32.46-2.17,6.2,2.65.93,2.17-6.2,1.32.46.64-1.83-5.29-1.86Zm13.25,5a2.39,2.39,0,0,1-.87,1.85,2.27,2.27,0,0,1,.45,1.37,2.71,2.71,0,0,1-.06.57,2.59,2.59,0,0,1-1.09,1.66,3,3,0,0,1-2.37.33l-3.64-.77,1.6-7.6.15-.73,3.58.75a2.59,2.59,0,0,1,2.25,2.56m-3.21,3a.66.66,0,0,0-.56-.7l-.35-.08-.31,1.46.3.06a1,1,0,0,0,.66,0,.82.82,0,0,0,.24-.49,1.16,1.16,0,0,0,0-.24m-.51-2.68.18,0c.62.13.68-.18.73-.4a1.15,1.15,0,0,0,0-.22.45.45,0,0,0-.06-.25,1.08,1.08,0,0,0-.64-.32l-.24,1.15m8.09-1.65-3.89,8,2.22.17.84-1.77,1.4.11.6,1.88,3,.23-3.3-10.24Zm8.77,6.36c-.05-1.16-.27-6.46-.27-6.46l-.74,0-2.07.09.36,8.5,5.62-.23-.08-2-2.82.12m7.7-.81-1-6.39-.73.12-2,.32,1.32,8.41,5.56-.87-.32-2-2.79.44m16.11-5.66a1.78,1.78,0,0,1-1.12,1.63,1.36,1.36,0,0,1-1.08,0,2.82,2.82,0,0,1-1.36-1.58,3,3,0,0,1-.2-2.19,1.62,1.62,0,0,1,1-.85c.52-.21,1,0,1.7.39l.62.37,1-1.64-.61-.4a4.07,4.07,0,0,0-3.74-.41,4.41,4.41,0,0,0-2.46,2.35,4.56,4.56,0,0,0,0,3.51,4.35,4.35,0,0,0,5.63,2.45,3.89,3.89,0,0,0,2.61-3.51l.05-.74-2-.15Zm6.55-2.32-3.15-5.65-.65.36-1.8,1,4.15,7.43,4.91-2.74-1-1.78-2.46,1.38M422.21,416l-.6.44-1.05.77,3.44,4.7a.55.55,0,0,1,.15.44,1.23,1.23,0,0,1-.51.67.9.9,0,0,1-.6.14.67.67,0,0,1-.45-.29l-3.41-4.65-2.27,1.66,3.39,4.62a2.8,2.8,0,0,0,1.86,1.2,3.58,3.58,0,0,0,2.61-.79c1.77-1.3,1.75-3,1-4.08Zm11.11.13a3,3,0,0,1-1.05,2.15l-2.67,2.59-5.92-6.11,2.63-2.54a2.57,2.57,0,0,1,3.76-.12,2.29,2.29,0,0,1,.65,1.45,2.34,2.34,0,0,1,1.84.75,2.58,2.58,0,0,1,.77,1.84M427,414.24l.82.85L428,415a.7.7,0,0,0,.27-.47.53.53,0,0,0-.19-.36c-.19-.2-.44-.43-1,.11m2.18,2.24,1,1.07.22-.21a1,1,0,0,0,.35-.56h0a.82.82,0,0,0-.27-.47.72.72,0,0,0-1.08-.08l-.26.25" transform="translate(-306.84 -293.51)" style="fill:#fbb700"/><path d="M338,415.48l1.79,1.71-.57.6-1.79-1.71-2.35,2.46-1.22-1.17,5-5.22L339,412l3.19,3-.57.6-2-1.87L338,415.48m10.71,5.61a3.72,3.72,0,0,1,.05.61,4.1,4.1,0,0,1-.79,2.37,4,4,0,0,1-2.58,1.67,3.64,3.64,0,0,1-4.14-2.94,4.18,4.18,0,0,1,3.32-4.66,3.64,3.64,0,0,1,4.14,2.95m-2-1.65c-1.38-1-2.77.66-3.3,1.41s-1.63,2.6-.25,3.58,2.78-.66,3.31-1.4,1.63-2.6.24-3.59m10.05,9.32a4,4,0,0,1-2.29,2,3.65,3.65,0,0,1-4.54-2.29,4,4,0,0,1,.28-3.06,3.68,3.68,0,1,1,6.55,3.31m-3.48,1.19a4.85,4.85,0,0,0,2.37-4.69,1.52,1.52,0,0,0-.79-.89c-1.51-.76-2.64,1.07-3.05,1.89s-1.22,2.82.29,3.58a1.49,1.49,0,0,0,1.19.11m7.17-3.52-.21.6,1.32.46-2.17,6.2,1.6.56,2.17-6.2,1.32.46.27-.78-4.24-1.49Zm12.17,4.83a1.83,1.83,0,0,1,0,.38,1.7,1.7,0,0,1-1.24,1.34,1.79,1.79,0,0,1,.86,1.51,2.15,2.15,0,0,1-.05.45,2,2,0,0,1-.85,1.31,2.52,2.52,0,0,1-1.95.25l-3.1-.65,1.48-7.05,0-.18,3,.64a2,2,0,0,1,1.81,2m-3.35-1.49-.48,2.26.73.15a1,1,0,0,0,1.39-.83,1.57,1.57,0,0,0,0-.34,1,1,0,0,0-.15-.55,1.56,1.56,0,0,0-1-.58l-.48-.1m-.65,3.06-.54,2.55.85.18a1.42,1.42,0,0,0,1.08-.1,1.25,1.25,0,0,0,.48-.84,1.72,1.72,0,0,0,0-.33,1.2,1.2,0,0,0-1-1.27l-.9-.19m9.64-3.06,2.62,8.13-1.75-.14-.61-1.88-2.16-.17-.84,1.77-1-.08,3.53-7.22Zm-1.5,5.14,1.49.12-.61-1.94-.89,1.83m9,2-.27-6.47h-.18l-1.51.06.31,7.39,4.51-.19,0-.92-2.82.12m7.77-.76-1-6.39-.18,0L391,430l1.15,7.3,4.46-.7-.15-.91-2.78.44m17.13-6.29a2.33,2.33,0,0,1-1.48,2.13,1.9,1.9,0,0,1-1.5,0,3.34,3.34,0,0,1-1.65-1.89,3.47,3.47,0,0,1-.19-2.62,2.16,2.16,0,0,1,1.26-1.15,2.43,2.43,0,0,1,2.19.42l.16.09.45-.71-.15-.1a3.52,3.52,0,0,0-3.23-.36,3.86,3.86,0,0,0-2.15,2.06,4,4,0,0,0,0,3.08,3.79,3.79,0,0,0,4.91,2.14,3.32,3.32,0,0,0,2.26-3v-.18l-.9-.07Zm5.77-1.58-3.16-5.65-.16.09-1.32.73,3.61,6.46,3.94-2.2-.45-.81-2.46,1.38m5.56-11.44-.15.11-.6.44,3.12,4.25a1.12,1.12,0,0,1,.25.85,1.77,1.77,0,0,1-.73,1,1.44,1.44,0,0,1-1,.24,1.21,1.21,0,0,1-.81-.51l-3.08-4.2-1.37,1,3.06,4.17a2.27,2.27,0,0,0,1.49,1,3.13,3.13,0,0,0,2.2-.68c1.48-1.08,1.49-2.44.86-3.3Zm10.67-.66a2.51,2.51,0,0,1-.88,1.75l-2.27,2.2-5.15-5.31,2.23-2.16a2,2,0,0,1,3-.13,1.66,1.66,0,0,1,.43,1.77,1.8,1.8,0,0,1,2.06.43,2,2,0,0,1,.61,1.44m-4.29-2.42c-.56-.58-1.17-.53-1.87.14l-.36.34,1.6,1.66.54-.52a1.27,1.27,0,0,0,.44-.87,1.06,1.06,0,0,0-.35-.75m2.39,4a1.43,1.43,0,0,0,.52-1h0a1.26,1.26,0,0,0-.43-.85,1.3,1.3,0,0,0-1.87-.09l-.66.64,1.82,1.87.62-.6" transform="translate(-306.84 -293.51)" style="fill:#fff"/><path d="M349.81,320.79a6.8,6.8,0,0,1-2.28,7.3,7.62,7.62,0,0,1-10.74-.77,7.72,7.72,0,0,1,.63-11.14,7.13,7.13,0,0,1,6.41-1.49l1.07.26-.69,3-1.06-.21c-1.43-.28-2.49-.31-3.32.42a3.13,3.13,0,0,0-1.2,2.18,5.55,5.55,0,0,0,1.7,3.78,5.35,5.35,0,0,0,3.41,2,2.69,2.69,0,0,0,2-.7,3.44,3.44,0,0,0,1-3.68l-.35-1.11,3.1-.84Zm8.14-16.64-3.17,1.5,2.38,5L354.47,312l-2.38-5-4.18,2,6.36,13.49,4.18-2-2.6-5.52,2.69-1.27,2.6,5.52,4.18-2L359,303.67Zm14.14,8.36-.61-3,4.72-1-.6-3-4.72,1-.53-2.6,5-1-.6-3-1.1.22-8.44,1.7,3,14.62,9.61-1.94-.61-3-5.08,1m13.63-13-4.62-.1,0,1.12-.29,13.79,9.7.2.07-3.23-5.09-.11c0-1.83.25-11.68.25-11.68m15,7.52c-1.2-.88-1.55-1.23-1.43-1.72a1,1,0,0,1,1.19-.83c.52.13,1,.4,1.27,1.52l.25,1.24,3.05-1-.19-1a5.49,5.49,0,0,0-8-3.45,4.67,4.67,0,0,0-2.15,2.89c-.76,3.05,1.29,4.53,2.66,5.5s1.75,1.39,1.54,2.22a1,1,0,0,1-.46.61,1.26,1.26,0,0,1-.92.15c-.73-.18-1-.53-1.36-1.48l-.37-1.14-3.06,1.25.3,1a5.28,5.28,0,0,0,4.19,3.64,5.1,5.1,0,0,0,6.34-3.56c.79-3.19-1.38-4.78-2.81-5.84m11,8,4.3,2.17,1.38-2.73-4.3-2.17,1.2-2.37,4.56,2.3,1.38-2.73-8.68-4.39-.5,1-6.22,12.31,8.75,4.42,1.38-2.73-4.63-2.34,1.39-2.76m19.78.14-5.95,17.54-3.67-3.19,1.15-3.38-2.15-1.87-3.13,1.66-2.66-2.31,13.91-7.2Z" transform="translate(-306.84 -293.51)" style="fill:#fbb700"/><path d="M349.09,321a6,6,0,0,1-2.05,6.54,6.87,6.87,0,0,1-9.69-.7,7,7,0,0,1,.56-10.08,6.39,6.39,0,0,1,5.74-1.33l.36.09-.36,1.55-.35-.07c-1.3-.26-2.78-.45-4,.58a3.89,3.89,0,0,0-1.45,2.69,6.25,6.25,0,0,0,1.89,4.32,6,6,0,0,0,3.92,2.21,3.4,3.4,0,0,0,2.54-.88,4.17,4.17,0,0,0,1.23-4.47l-.12-.37,1.64-.44Zm9.17-16.17-2.5,1.18,2.38,5-4,1.9-2.38-5-2.83,1.34,5.72,12.14,2.83-1.34-2.6-5.52,4-1.9,2.6,5.52,2.83-1.34-5.72-12.14Zm13.24,8.56-.9-4.49,4.72-1-.31-1.53-4.72,1-.82-4.07,5-1-.31-1.54-.36.07-7.71,1.56,2.66,13.16,8.15-1.65-.31-1.53-5.08,1M385,300.25l-3.13-.07v.37l-.27,13,8.22.17,0-1.74-5.09-.11c0-.7.24-11.68.24-11.68m15.69,3.52a2.38,2.38,0,0,1,1.81,2.09l.09.41,1.63-.55-.06-.32a4.74,4.74,0,0,0-6.91-3,3.94,3.94,0,0,0-1.81,2.43c-.64,2.56,1,3.76,2.37,4.72s2.17,1.64,1.83,3a1.72,1.72,0,0,1-.8,1.07,2,2,0,0,1-1.48.23,2.48,2.48,0,0,1-1.89-2l-.12-.38-1.69.69.1.32a4.59,4.59,0,0,0,3.66,3.14,4.36,4.36,0,0,0,5.43-3c.68-2.7-1.1-4-2.53-5.06-1.22-.9-2-1.5-1.71-2.5a1.69,1.69,0,0,1,2.1-1.37M414,308.9l4.56,2.3.71-1.4-7.35-3.71-.17.33-5.88,11.65,7.42,3.75.71-1.4-4.63-2.34L411.4,314l4.3,2.17.71-1.4-4.3-2.17,1.87-3.7m16.23,7.75-5,14.74-2.45-2.13,1.15-3.38L421,323.34,417.87,325l-1.45-1.26L429.36,317Zm-5.75,7.63,1.16-3.33-3.12,1.62,2,1.71" transform="translate(-306.84 -293.51)" style="fill:#fff"/></svg>