<svg xmlns="http://www.w3.org/2000/svg" viewBox="0 0 209.39 278.66"><title>fulham-fc-logo</title><path d="M612.08,385.79c-.33-.08-46.09-13.1-99.62-13.12h-.94c-53.52,0-99.29,13-99.61,13.12a6.34,6.34,0,0,0-4.61,6.1V538l.12,1.18c.13,1,14.23,73.06,102,111.59a6.4,6.4,0,0,0,2.55.53h0a6.4,6.4,0,0,0,2.55-.53c87.79-38.53,101.89-110.63,102-111.59l.12-1.18V391.89A6.34,6.34,0,0,0,612.08,385.79Z" transform="translate(-407.31 -372.67)" style="fill:#fff"/><path d="M611.07,389.32c-.14,0-46.32-12.89-99.07-13-52.75.09-98.93,12.94-99.07,13a2.65,2.65,0,0,0-1.95,2.56V538l0,.5c.05.4,13.64,71.07,99.9,108.91a2.67,2.67,0,0,0,2.14,0c86.26-37.84,99.85-108.51,99.9-108.91l0-.5V391.89A2.65,2.65,0,0,0,611.07,389.32Z" transform="translate(-407.31 -372.67)"/><path d="M512,381.68a391.43,391.43,0,0,0-59,4.86v214.9c14,14.55,33,29.09,59,40.64,25.94-11.55,45-26.09,59-40.64V386.54A391.44,391.44,0,0,0,512,381.68Z" transform="translate(-407.31 -372.67)" style="fill:#fff"/><path d="M483.16,580.61c-8.13-8.12-11.86-17.78-11.86-27.46h0c0-11.54,5.27-23.07,14.45-32.25h0a48.61,48.61,0,0,1,24.79-13.73h0L498,494.66l-21.11,21.08H477l-2,1.94-.69.67a3,3,0,0,1-2,.74h0a3.2,3.2,0,0,1-2.48-1.14h0L463,511a3.18,3.18,0,0,1-1.15-2.46h0a3.1,3.1,0,0,1,.82-2.06h0L510.22,459,499.75,448.5l-21.11,21.08h0l-2,1.94-.7.68a3.06,3.06,0,0,1-2,.75h0a3.2,3.2,0,0,1-2.47-1.14h0l-6.87-6.94a3.22,3.22,0,0,1-1.14-2.46h0a3.09,3.09,0,0,1,.83-2.06h0l53.14-53.11a6,6,0,0,1,4.31-1.83h0a5.78,5.78,0,0,1,4.22,1.78h0l35.36,35.36a3.06,3.06,0,0,1,.74,2h0A3.21,3.21,0,0,1,561,447h0l-.33.33h0l-.8.78h0l-2.46,2.45h0l-3.57,3.55h0l-.81.8L523.19,425l-13.57,13.58,50.06,50.06a3.05,3.05,0,0,1,.75,2h0a3.22,3.22,0,0,1-1.13,2.48h0l-8,7.92-29.86-29.86-13.57,13.57,24.65,24.65a41.1,41.1,0,0,1,12.92,8.89h0c7.69,7.78,12.06,17.15,12.06,26.49h0a30.24,30.24,0,0,1-7.19,19.42h0l-.8,1-11.65-11.66.45-.76a22.16,22.16,0,0,0,3.44-11.2h0c0-4.47-1.76-8.95-6.19-13.38h0c-4.76-4.75-9.94-6.66-15.22-6.67h0c-8,0-16.31,4.56-22.87,11.13h0c-6.57,6.55-11.14,14.87-11.13,22.87h0c0,5.28,1.92,10.46,6.66,15.21h0a18.1,18.1,0,0,0,13.06,5.73h0c5.2,0,10.59-2.27,15.36-6.21h0l.79-.65,11.48,11.48-.9.8c-7.33,6.5-15.86,9.84-24.37,9.84h0c-9,0-17.92-3.71-25.3-11.1Z" transform="translate(-407.31 -372.67)"/><path d="M515.33,508.75l-2.27.31c-9.18,1.26-18.22,6-25.7,13.45h0c-8.83,8.81-13.8,19.8-13.8,30.64h0c0,9.09,3.47,18.11,11.19,25.85h0c7,7,15.34,10.43,23.71,10.44h0c7.57,0,15.21-2.83,22-8.48h0l-8.32-8.32c-4.89,3.81-10.43,6.08-16,6.08h0a20.39,20.39,0,0,1-14.66-6.39h0a23.27,23.27,0,0,1-7.33-16.81h0c0-8.88,4.95-17.63,11.79-24.47h0c6.84-6.84,15.59-11.78,24.47-11.8h0a23.33,23.33,0,0,1,16.82,7.33h0c4.77,4.75,6.86,9.9,6.85,15h0a24,24,0,0,1-3.31,11.59h0l8.63,8.64a27.7,27.7,0,0,0,5.89-17h0c0-8.62-4-17.45-11.4-24.89h0a38.89,38.89,0,0,0-12.4-8.49h0l-.22-.09-26.55-26.55L521.47,468l29.86,29.86,6.37-6.32c.54-.63.4-.38.46-.87h0a.63.63,0,0,0-.15-.45h0l-51.59-51.59,16.78-16.78,29.86,29.87c1.73-1.73,5.71-5.7,6.38-6.33h0c.53-.61.4-.37.45-.86h0a.64.64,0,0,0-.15-.46h0l-35.29-35.29a3.56,3.56,0,0,0-2.6-1.1h0a3.71,3.71,0,0,0-2.69,1.15h0l-53.08,53c-.21.28-.22.32-.24.54h0c.05.46-.08.22.49.86h0l6.88,6.95c.62.55.38.41.86.47h0a.69.69,0,0,0,.47-.17h0L475,470l0,0,0,0,.06-.06.21-.22h0l.76-.76h0l2.7-2.71h0L487,458h0l11.91-11.88h0l.79-.8L513.43,459l-49.08,49a.8.8,0,0,0-.24.54h0c.06.47-.08.22.49.87h0l6.87,6.94c.61.54.38.41.87.46h0a.66.66,0,0,0,.46-.16h0l.56-.56,0,0,.06-.07.21-.21h0l.76-.76h0l2.7-2.71h0l8.19-8.19h0l11.91-11.89h0l.8-.8,15.69,15.68-.8.8.8-.8,1.62,1.62Z" transform="translate(-407.31 -372.67)" style="fill:#c00"/></svg>