<svg id="Layer_1" data-name="Layer 1" xmlns="http://www.w3.org/2000/svg" viewBox="0 0 182.67 225.06"><defs><style>.cls-1{fill:#fff;}.cls-2{fill:#0060a9;}.cls-3{fill:#ffe003;}</style></defs><title>leeds-united-fc</title><path class="cls-1" d="M255.19,143.51c.48,0,1.24,0,1.69,0s.06,0-.87,0S254.71,143.5,255.19,143.51Z" transform="translate(-164.66 -143.47)"/><path class="cls-2" d="M253.07,143.6c-.21,0-.94.1-1.63.16s-1.92.22-2.73.33-2.35.39-3.43.6-2.77.59-3.75.81-2.73.7-3.87,1-3,.88-4.19,1.25-3.22,1.07-4.57,1.54-3.49,1.27-4.74,1.77-3.25,1.31-4.41,1.79-3.11,1.34-4.3,1.88-2.74,1.24-3.43,1.57l-2.56,1.23c-.72.33-2.46,1.22-3.87,2s-3.42,1.8-4.46,2.38-2.79,1.55-3.87,2.17-3,1.74-4.19,2.49-3.17,2-4.3,2.72-2.87,1.92-3.87,2.62-2.33,1.65-3,2.13-1.94,1.47-2.83,2.18-2.17,1.77-2.83,2.33-2,1.78-2.93,2.71-2.1,2.12-2.57,2.66a11.63,11.63,0,0,0-1.5,2.23,11.07,11.07,0,0,0-1.09,2.94c-.24.92-.61,2.49-.83,3.48s-.57,2.94-.83,4.34-.57,3.71-.76,5.11-.41,3.63-.54,4.95-.24,2.85-.28,3.42-.11,2-.17,3.2-.1,4.3-.1,6.9,0,5.7.1,6.9.14,2.64.17,3.2.14,1.92.22,3,.29,3.08.44,4.45.42,3.5.6,4.73.47,3.1.65,4.18.6,3.27.92,4.89.84,4,1.15,5.27.85,3.43,1.2,4.77,1,3.72,1.51,5.27,1.2,3.83,1.64,5.06,1.07,3,1.42,4,1.1,2.83,1.64,4.18,1.39,3.35,1.88,4.46,1.27,2.81,1.74,3.8,1.43,2.94,2.15,4.34,1.92,3.64,2.64,4.95,2,3.47,2.78,4.79,1.9,3.12,2.48,4,1.61,2.46,2.3,3.48,1.87,2.7,2.62,3.74,2,2.71,2.72,3.7,2.23,2.87,3.29,4.18,2.54,3.1,3.28,4,1.84,2.11,2.42,2.77,1.92,2.1,2.95,3.21,3.41,3.52,5.29,5.37,4.22,4.11,5.21,5,2.58,2.32,3.53,3.14,2.75,2.36,4,3.37,2.94,2.42,3.81,3.11,2.78,2.16,4.25,3.25,3.59,2.67,4.74,3.48,3.34,2.33,4.89,3.37,3.72,2.47,4.8,3.16l4,2.47c1.54.94,2.05,1.2,2.18,1.12s1.58-1,3.32-2.1,4.68-3,6.54-4.23,4.28-2.9,5.38-3.7,3.14-2.27,4.52-3.3,3.36-2.55,4.41-3.37,3-2.43,4.42-3.58,3.13-2.64,3.91-3.33,2.24-2,3.26-2.91,3.7-3.51,6-5.75,4.89-5,5.86-6,2.64-3,3.7-4.19,2.82-3.35,3.92-4.72,2.62-3.34,3.39-4.35,2-2.65,2.66-3.64,1.85-2.65,2.56-3.7,1.94-2.95,2.74-4.23,2-3.21,2.62-4.29,1.66-2.9,2.31-4.07,2-3.71,2.94-5.65,2.3-4.73,2.95-6.2,1.72-4,2.4-5.7,1.64-4.21,2.16-5.65,1.27-3.71,1.69-5,1-3.29,1.32-4.34.85-3,1.2-4.41.84-3.35,1.08-4.4.63-2.88.87-4.07.61-3.2.81-4.45.53-3.33.71-4.61.45-3.44.6-4.79.38-3.79.49-5.43.28-4.34.34-6c.07-1.84.1-4.85.06-7.87,0-2.69-.11-5.69-.18-6.68s-.21-3-.33-4.4-.37-3.76-.54-5.16-.47-3.45-.65-4.57-.53-3-.77-4.18-.65-3-.92-4.07a11.8,11.8,0,0,0-1.11-3.13,10.53,10.53,0,0,0-1.33-2.07c-.38-.46-1.24-1.39-1.9-2.07s-1.88-1.85-2.72-2.59-2.17-1.88-2.94-2.51-1.94-1.55-2.56-2-1.93-1.45-2.89-2.12-2.5-1.77-3.43-2.39-2.49-1.66-3.48-2.3-2.78-1.72-4-2.43-3.05-1.81-4.13-2.42-3-1.66-4.25-2.34-3.81-2-5.67-2.9-4.62-2.25-6.15-2.94-3.65-1.63-4.73-2.09-2.91-1.22-4.09-1.68-3.08-1.19-4.25-1.62-3.18-1.1-4.46-1.53-3.16-1-4.14-1.31-2.75-.78-3.91-1.08-3.09-.73-4.25-1-2.77-.54-3.55-.65-2.08-.31-2.88-.4-2.57-.2-4.58-.22C254.85,143.58,253.28,143.58,253.07,143.6Z" transform="translate(-164.66 -143.47)"/><path class="cls-3" d="M254.21,149.9l-1.9.16c-.75.07-2,.21-2.78.32s-2.19.36-3.16.55-2.52.53-3.48.76-2.6.67-3.65,1-2.66.78-3.59,1.08-2.65.87-3.81,1.27-3,1-4,1.43-2.82,1.11-4,1.61-3.25,1.37-4.57,2-3.33,1.49-4.46,2-3.44,1.66-5.12,2.52-3.94,2-5,2.6-2.95,1.63-4.14,2.32-3.26,1.9-4.58,2.71-3.29,2.07-4.41,2.8-2.89,2-4,2.73-2.57,1.87-3.33,2.44-1.85,1.45-2.44,1.94-1.7,1.46-2.44,2.12-1.8,1.68-2.34,2.24-1.26,1.33-1.61,1.72l-.62.7c-.76,2.95-1.15,4.64-1.35,5.66s-.53,2.7-.71,3.74-.44,2.64-.55,3.53-.32,2.54-.44,3.64-.29,3-.38,4.13-.22,3.36-.29,4.89c-.08,1.72-.1,4.68-.07,7.87,0,2.8.14,6.2.23,7.55s.22,3,.29,3.68.21,2.16.32,3.26.32,2.78.44,3.7.4,2.73.61,4,.57,3.36.81,4.62.65,3.26.93,4.45.76,3.22,1.08,4.51.92,3.45,1.31,4.83,1.17,3.87,1.73,5.53,1.47,4.25,2,5.7,1.43,3.7,2,4.95,1.25,3,1.63,3.8,1.31,2.8,2.07,4.35,1.88,3.78,2.5,4.95,1.62,3,2.21,4,1.65,2.82,2.34,4,2.1,3.34,3.13,4.89,2.57,3.81,3.42,5,2.1,2.88,2.75,3.74,2,2.5,2.86,3.64,2.46,3,3.43,4.13,2.21,2.55,2.75,3.14,1.93,2.09,3.08,3.32,3.19,3.3,4.53,4.61,3.32,3.2,4.4,4.19,2.73,2.48,3.7,3.32,2.63,2.25,3.71,3.16,2.57,2.11,3.32,2.72,2.3,1.79,3.43,2.66,2.8,2.11,3.7,2.78l3.65,2.6c1.11.77,3.14,2.16,4.52,3.08s3.32,2.18,4.3,2.8c1.65,1,1.81,1.11,2.07,1s1.45-.88,2.88-1.81,3.94-2.59,5.55-3.7,3.88-2.7,5-3.52,3.1-2.28,4.35-3.25,3.25-2.51,4.41-3.47,3.18-2.62,4.46-3.72,3.2-2.78,4.26-3.73,2.9-2.71,4.13-3.91,3.19-3.14,4.36-4.34,2.86-3,3.75-4,2.23-2.47,2.95-3.3,1.89-2.23,2.62-3.1,2-2.51,2.94-3.65,2.31-3,3.16-4.19,2-2.81,2.63-3.67,1.74-2.6,2.56-3.86,2-3.21,2.72-4.35,1.71-2.89,2.28-3.91,1.63-3,2.35-4.34,1.84-3.58,2.46-4.89,1.41-3,1.76-3.8,1.06-2.44,1.58-3.7,1.35-3.36,1.85-4.67,1.26-3.47,1.71-4.79,1.09-3.34,1.45-4.51.84-2.82,1.08-3.68.59-2.17.77-2.88.61-2.46.93-3.86.8-3.68,1.08-5,.65-3.6.87-4.95.5-3.4.65-4.57.37-3.11.49-4.34.3-3.26.39-4.51.21-3.45.26-4.89.11-4,.11-5.7,0-4.19-.11-5.54-.15-3.2-.22-4.12-.21-2.69-.32-3.91-.34-3.18-.49-4.35-.4-2.87-.55-3.8-.45-2.54-.65-3.58-.6-2.77-.87-3.83-.54-2.08-.61-2.25a15,15,0,0,0-1.4-1.71c-.7-.77-2-2-2.83-2.81S330.79,182.6,330,182s-2.12-1.7-3.05-2.4-2.35-1.72-3.16-2.3-2.13-1.48-2.94-2-2.33-1.53-3.37-2.18-2.81-1.73-3.92-2.39l-3.37-2c-.75-.42-2.25-1.24-3.32-1.82s-3.49-1.82-5.34-2.77-4.45-2.19-5.77-2.8-3.37-1.51-4.58-2-3.08-1.31-4.19-1.77-3-1.19-4.3-1.65-3.49-1.24-4.95-1.72-3.45-1.1-4.42-1.38-2.59-.72-3.65-1-2.75-.65-3.81-.86-2.41-.46-3-.55-1.78-.24-2.56-.32-2.35-.17-3.49-.21S254.51,149.88,254.21,149.9Z" transform="translate(-164.66 -143.47)"/><path class="cls-2" d="M254.54,171.84l-2,.16c-.75.07-2.15.23-3.1.38s-2.5.4-3.43.6-2.64.59-3.81.87-3.1.81-4.3,1.18-3.05,1-4.13,1.32-2.74,1-3.71,1.32-2.72,1-3.91,1.51-3.06,1.27-4.14,1.74-3.28,1.51-4.9,2.31-3.87,1.94-5,2.55-2.93,1.64-4,2.27-2.62,1.61-3.48,2.17-2.21,1.49-3,2.07-1.93,1.45-2.56,2-1.85,1.61-2.71,2.46a30.07,30.07,0,0,0-2.18,2.33,7.76,7.76,0,0,0-.87,1.47c-.14.37-.37,1.09-.5,1.63s-.32,1.51-.42,2.18-.22,1.65-.28,2.23-.14,1.58-.18,2.27-.08,3.43-.07,6.08,0,5,.07,5.27.06.77.07,1.17v.73H320c.13-1.56.2-3.79.23-6,0-2.51,0-4.85-.06-6.36-.07-1.32-.2-3-.28-3.8s-.26-2-.38-2.62a18.25,18.25,0,0,0-.49-2,10.36,10.36,0,0,0-.54-1.35,12.39,12.39,0,0,0-1.29-1.71c-.57-.67-1.47-1.6-2-2.08s-1.34-1.18-1.79-1.56-1.5-1.22-2.34-1.84-2.35-1.69-3.37-2.35-2.71-1.73-3.75-2.36-2.64-1.54-3.55-2-3-1.58-4.73-2.43-4.06-2-5.23-2.49-2.73-1.18-3.48-1.49-2.42-1-3.71-1.46-3.52-1.31-5-1.79-3.34-1.1-4.25-1.37-2.36-.68-3.26-.91-2.42-.61-3.39-.81-2.59-.53-3.64-.71-2.67-.4-3.59-.49-2.43-.18-3.33-.21S254.89,171.83,254.54,171.84Z" transform="translate(-164.66 -143.47)"/><path class="cls-1" d="M255.58,175.94c-.2.55-.55,1.57-.8,2.27l-.46,1.27a26.06,26.06,0,0,0-4.36.15c-.54.09-1.39.31-1.9.46a15.66,15.66,0,0,0-1.85.76,18.2,18.2,0,0,0-1.69,1,14.47,14.47,0,0,0-1.48,1.23,16.61,16.61,0,0,0-1.37,1.56,17.75,17.75,0,0,0-1,1.63c-.22.42-.55,1.15-.73,1.61a16.72,16.72,0,0,0-.56,1.77l-.22.92c-3.88,0-5,0-5,.08a17,17,0,0,0,2,1.55,24.75,24.75,0,0,1,2,1.55s-.16.46-.34.93a18.81,18.81,0,0,0-.62,1.87,10,10,0,0,0-.29,3.26,9.41,9.41,0,0,0,.3,3.3,15.48,15.48,0,0,0,.88,2.28,16.37,16.37,0,0,0,1.24,2.07,15.23,15.23,0,0,0,1.56,1.72,18,18,0,0,0,2,1.57l1.11.72s-.34,1.1-.79,2.44-.81,2.46-.8,2.48,0,0,.1,0,1-.67,2.12-1.47,2.05-1.46,2.1-1.46a3.1,3.1,0,0,1,.62.47,16.56,16.56,0,0,0,1.42,1,14.78,14.78,0,0,0,1.73,1,16.52,16.52,0,0,0,1.56.63c.37.13,1,.3,1.47.4a14.51,14.51,0,0,0,4.11.17c.5-.07,1.32-.23,1.79-.34a15,15,0,0,0,1.74-.61c.48-.21,1.24-.59,1.68-.84a16.25,16.25,0,0,0,1.72-1.19,10.18,10.18,0,0,1,1-.73s.94.64,2,1.43,2,1.46,2.12,1.49-.06-.54-.36-1.46-.63-2-.81-2.5c-.31-.9-.32-1-.15-1.08l1.11-.72a18.69,18.69,0,0,0,1.8-1.41,16.79,16.79,0,0,0,1.55-1.72,15,15,0,0,0,1.11-1.74,14.51,14.51,0,0,0,.81-2,16.42,16.42,0,0,0,.52-2.07,16.8,16.8,0,0,0,.07-2.55,13.23,13.23,0,0,0-.29-2.52c-.13-.49-.4-1.34-.61-1.88a9.41,9.41,0,0,1-.39-1.08,17.55,17.55,0,0,1,2-1.55,14.53,14.53,0,0,0,1.9-1.53,20,20,0,0,0-2.5-.08h-2.44c-.1-.46-.28-1.08-.46-1.69a16.08,16.08,0,0,0-.71-1.89,16.26,16.26,0,0,0-1.06-1.85,14.64,14.64,0,0,0-1.55-1.89,14.83,14.83,0,0,0-1.62-1.39,16.53,16.53,0,0,0-1.63-1,15.37,15.37,0,0,0-1.8-.76,17.16,17.16,0,0,0-1.9-.49,16.92,16.92,0,0,0-2.77-.18H257.6a40.25,40.25,0,0,0-1.58-4.51A3.4,3.4,0,0,0,255.58,175.94Z" transform="translate(-164.66 -143.47)"/><path class="cls-2" d="M255.85,176.64c0,.1-.17.92-.33,1.79s-.26,1.78-.26,2a.78.78,0,0,1-.06.38,3,3,0,0,1-.52-.24,3,3,0,0,0-1.23-.28,3.07,3.07,0,0,0-1.37.17,3.63,3.63,0,0,0-1.11.72,4.65,4.65,0,0,0-.8,1.07,6,6,0,0,1-.85,1.15,14.22,14.22,0,0,1-1.58,1.37c-.57.44-1.45,1.07-2,1.4a13.78,13.78,0,0,1-1.53.87,7.87,7.87,0,0,1-1.41.45,5.26,5.26,0,0,0-1.25.42,3.64,3.64,0,0,0-.76.62,5.09,5.09,0,0,0-.59,1,3.1,3.1,0,0,0-.28,1.14,3.24,3.24,0,0,0,.06.81l.08.28c-1.14-.22-2.15-.37-3-.48s-1.55-.18-1.58-.16,0,.1.07.17a20.64,20.64,0,0,0,2,1.11l1.9,1a4.25,4.25,0,0,0-1,1.19,4.28,4.28,0,0,0,0,2.77,6.33,6.33,0,0,0,.85,1.17,7.35,7.35,0,0,1,1,1.57c.23.49.64,1.58.92,2.42s.57,1.88.67,2.33a10.07,10.07,0,0,1,.14,2.23,3.75,3.75,0,0,0,.2,1.9,4.42,4.42,0,0,0,.65,1,3.52,3.52,0,0,0,1,.73,2.51,2.51,0,0,0,.87.26,1,1,0,0,1,.4.06,2.12,2.12,0,0,1-.37.84c-.24.44-.71,1.34-1,2a3.89,3.89,0,0,0-.48,1.29,11.73,11.73,0,0,0,1.74-1.53l1.64-1.57a3.54,3.54,0,0,0,1,1.45,4.12,4.12,0,0,0,1.14.59,3.59,3.59,0,0,0,1.2.11,4.73,4.73,0,0,0,1.35-.39,7.23,7.23,0,0,1,1.31-.46c.3-.06,1.5-.14,2.67-.17a16.11,16.11,0,0,1,3.24.11,6.74,6.74,0,0,1,1.85.52,2.8,2.8,0,0,0,1.61.36,3.11,3.11,0,0,0,1.37-.22,4.58,4.58,0,0,0,.91-.6,3.52,3.52,0,0,0,.64-.81c.11-.23.23-.46.25-.48a3.63,3.63,0,0,1,.73.7c.38.42,1.12,1.15,1.64,1.61a3.47,3.47,0,0,0,1,.73,13,13,0,0,0-.92-2c-.54-1.06-1-2-1-2s.18-.09.41-.13a3.48,3.48,0,0,0,.79-.24,4.37,4.37,0,0,0,.85-.59,3.74,3.74,0,0,0,.77-1c.26-.56.29-.69.29-2.27a8.71,8.71,0,0,1,.24-2.56c.13-.48.46-1.53.73-2.33a16.84,16.84,0,0,1,.9-2.18,8,8,0,0,1,.92-1.3,5.85,5.85,0,0,0,.77-1.09,2.72,2.72,0,0,0,.24-1.35,2.6,2.6,0,0,0-.28-1.47,3.39,3.39,0,0,0-.63-.9l-.33-.3c1.89-.92,2.8-1.39,3.24-1.63a2.86,2.86,0,0,0,.79-.54c0-.07-.17-.09-.41-.06l-1.88.26c-.8.11-1.64.25-1.87.3l-.4.09a3.43,3.43,0,0,0,.09-1.55,4.67,4.67,0,0,0-.41-1.06,3.58,3.58,0,0,0-.83-1,3.9,3.9,0,0,0-1.09-.59,4.6,4.6,0,0,0-.77-.16,3.28,3.28,0,0,1-.81-.24,12.73,12.73,0,0,1-1.47-.78c-.48-.3-1.43-1-2.12-1.48a18.28,18.28,0,0,1-1.89-1.63,6.57,6.57,0,0,1-.9-1.2,4.11,4.11,0,0,0-.67-.91,4.56,4.56,0,0,0-.85-.62,3.25,3.25,0,0,0-1.35-.28,2.27,2.27,0,0,0-1.45.22,1.52,1.52,0,0,1-.57.2.76.76,0,0,1-.06-.36c0-.16-.09-.85-.21-1.51s-.25-1.48-.31-1.8-.15-.56-.22-.56S255.88,176.53,255.85,176.64Z" transform="translate(-164.66 -143.47)"/><path class="cls-1" d="M252.36,180.81a5.84,5.84,0,0,0-.79.44,3.57,3.57,0,0,0-1,1.19,6.81,6.81,0,0,1-1.33,1.63c-.45.41-1.43,1.18-2.18,1.72a25.67,25.67,0,0,1-2.28,1.45,9.16,9.16,0,0,1-1.74.65,5,5,0,0,0-1.33.5,3.11,3.11,0,0,0-.85.84,4,4,0,0,0-.42,1,2.06,2.06,0,0,0,0,.92,2.38,2.38,0,0,0,.26.68c.09.14.2.25.24.24a2.42,2.42,0,0,1,.55.44,3.07,3.07,0,0,0,1.53.76,15.7,15.7,0,0,0,1.82.46,3.74,3.74,0,0,0,1.51,0,1.77,1.77,0,0,1,1.15,0,1.82,1.82,0,0,1,.63.47,1.17,1.17,0,0,1,.24.72,1.1,1.1,0,0,1-.28.73,1.14,1.14,0,0,1-.62.39,2,2,0,0,1-.69,0,3.55,3.55,0,0,1-1-.73,5.85,5.85,0,0,0-1.47-1,17.4,17.4,0,0,0-1.66-.63,3.18,3.18,0,0,0-1.73-.2,2.53,2.53,0,0,0-1.2.33,2.71,2.71,0,0,0-.65.81,2.37,2.37,0,0,0-.29,1.32,2.29,2.29,0,0,0,.24,1.22,6.5,6.5,0,0,0,.8,1.09,7,7,0,0,1,1.08,1.71,24.38,24.38,0,0,1,1,2.5c.24.77.53,1.8.62,2.27a7,7,0,0,1,.11,2,4.72,4.72,0,0,0,.08,1.68,3.23,3.23,0,0,0,.57,1,3.12,3.12,0,0,0,1,.73,3.19,3.19,0,0,0,1,.26,1.27,1.27,0,0,0,.71-.21,5.64,5.64,0,0,1,.73-.44,3.45,3.45,0,0,0,1.07-1.08,14.72,14.72,0,0,0,1-1.71,5.69,5.69,0,0,0,.54-1.57,1.31,1.31,0,0,1,.48-1.06,1,1,0,0,1,.83-.36,2,2,0,0,1,.65.1,1.31,1.31,0,0,1,.38.44,1.66,1.66,0,0,1,.16.63,1.51,1.51,0,0,1-.24.68,2.41,2.41,0,0,1-.91.7,5.66,5.66,0,0,0-1.35,1,14,14,0,0,0-1.29,1.55,3.84,3.84,0,0,0-.57,1.11,1.78,1.78,0,0,1-.15.63,1.27,1.27,0,0,0,0,.84,2.32,2.32,0,0,0,.4.87,3.62,3.62,0,0,0,.9.7,2.19,2.19,0,0,0,1.35.32,3,3,0,0,0,1.47-.34,7.8,7.8,0,0,1,1.37-.48,19.51,19.51,0,0,1,3.37-.14,15,15,0,0,1,3.45.18,9.16,9.16,0,0,1,1.31.47,3.89,3.89,0,0,0,1.06.34,3.1,3.1,0,0,0,1.09-.11,2.73,2.73,0,0,0,1.12-.64,2.84,2.84,0,0,0,.69-.9,1.75,1.75,0,0,0,.09-1,4.85,4.85,0,0,0-.26-1,8.2,8.2,0,0,0-.68-1.08,16.45,16.45,0,0,0-1.14-1.34,4.14,4.14,0,0,0-1.32-1,3,3,0,0,1-.91-.61,2.07,2.07,0,0,1-.29-.63,1.21,1.21,0,0,1,.15-.76,1,1,0,0,1,.64-.59.87.87,0,0,1,.85.06,1.63,1.63,0,0,1,.61.53,3.25,3.25,0,0,1,.26.92,5,5,0,0,0,.44,1.37,13.14,13.14,0,0,0,1,1.63,9.94,9.94,0,0,0,.91,1.12,4.46,4.46,0,0,0,.84.5,2.62,2.62,0,0,0,.93.26,2.54,2.54,0,0,0,.81-.2,4.56,4.56,0,0,0,.8-.52,3.46,3.46,0,0,0,.65-.86c.26-.52.29-.61.25-2a9.89,9.89,0,0,1,.15-2.28c.1-.48.4-1.53.65-2.34a23,23,0,0,1,1-2.55,6.83,6.83,0,0,1,1-1.61,4.6,4.6,0,0,0,.71-.94,3.21,3.21,0,0,0,.29-.91,3.33,3.33,0,0,0-.06-1,3.44,3.44,0,0,0-.45-1,2.47,2.47,0,0,0-.79-.68,2.79,2.79,0,0,0-1.14-.21,4.63,4.63,0,0,0-1.53.28,17.85,17.85,0,0,0-1.74.7,4.37,4.37,0,0,0-1.41,1,2.36,2.36,0,0,1-1,.65,1.33,1.33,0,0,1-.79,0,1.3,1.3,0,0,1-.57-.41,1.23,1.23,0,0,1-.22-.76A.92.92,0,0,1,264,194a1.47,1.47,0,0,1,.68-.39,2.89,2.89,0,0,1,1,.07,4.35,4.35,0,0,0,1.15.07,16.13,16.13,0,0,0,1.6-.34,10.66,10.66,0,0,0,1.7-.59,3.88,3.88,0,0,0,1-.7,2.9,2.9,0,0,0,.46-.67,2.45,2.45,0,0,0,.1-.79,3,3,0,0,0-.14-.9A3.34,3.34,0,0,0,271,189a3.29,3.29,0,0,0-.87-.72,4.47,4.47,0,0,0-1.23-.44,6.54,6.54,0,0,1-1.63-.6,22.23,22.23,0,0,1-2.34-1.47,27,27,0,0,1-2.18-1.72,7.19,7.19,0,0,1-1.25-1.49,7.55,7.55,0,0,0-.76-1.08A3.31,3.31,0,0,0,260,181a2.58,2.58,0,0,0-1.31-.22c-.76,0-.94,0-1.27.26a2.86,2.86,0,0,0-.68.71,3.8,3.8,0,0,0-.4,1,10,10,0,0,0-.06,1.89,11.37,11.37,0,0,0,.24,1.9,7.23,7.23,0,0,0,.46,1.09,1.28,1.28,0,0,1,.22,1,1.09,1.09,0,0,1-.4.78,1,1,0,0,1-.77.3,1,1,0,0,1-.81-.38.94.94,0,0,1-.38-.81,3.28,3.28,0,0,1,.38-1.22,4.89,4.89,0,0,0,.49-2.09,11.73,11.73,0,0,0,0-2,4.54,4.54,0,0,0-.29-1.15,3.11,3.11,0,0,0-.45-.75,2.34,2.34,0,0,0-.68-.46,2.59,2.59,0,0,0-1-.2A3.85,3.85,0,0,0,252.36,180.81Z" transform="translate(-164.66 -143.47)"/><path class="cls-2" d="M247.24,182.42l-1.74.85a21.18,21.18,0,0,0-2.72,2.88,12.67,12.67,0,0,0,1.88-.78l1.77-.83c2.11-2.24,2.72-2.9,2.72-2.94s0,0-.08,0S248.2,181.95,247.24,182.42Zm15.73-.68a17,17,0,0,0,1.39,1.51l1.39,1.45a33.41,33.41,0,0,0,3.35,1.46,9.43,9.43,0,0,0-1.19-1.4l-1.29-1.37c-2.74-1.34-3.56-1.73-3.59-1.73S263,181.7,263,181.74ZM254,190.34a8.42,8.42,0,0,0-1.19.41,6.94,6.94,0,0,0-1,.59,10.27,10.27,0,0,0-.93.7,11.71,11.71,0,0,0-.91,1,7.92,7.92,0,0,0-.9,1.41,11,11,0,0,0-.54,1.47,8.13,8.13,0,0,0-.18,1.85,6.6,6.6,0,0,0,.24,2,9.75,9.75,0,0,0,.62,1.57,9.09,9.09,0,0,0,1,1.47,10.21,10.21,0,0,0,1.17,1.12,9.68,9.68,0,0,0,1.27.72,8.94,8.94,0,0,0,1.51.55,8.93,8.93,0,0,0,3.6,0,10.42,10.42,0,0,0,1.69-.63,6,6,0,0,0,1.9-1.43,6,6,0,0,0,1.45-1.9,10.55,10.55,0,0,0,.64-1.63,8.14,8.14,0,0,0,.17-1.85,8.06,8.06,0,0,0-.18-1.85,10.55,10.55,0,0,0-.64-1.63,6,6,0,0,0-1.43-1.9,5.92,5.92,0,0,0-1.9-1.43,12.13,12.13,0,0,0-1.64-.62,9.34,9.34,0,0,0-1.9-.16A7.64,7.64,0,0,0,254,190.34Z" transform="translate(-164.66 -143.47)"/><path class="cls-3" d="M255.08,190.56c-.3,0-.68.13-.84.16s-.3.11-.28.41.06.36,1,.61a2.61,2.61,0,0,0,1.47.15c.3-.06.83-.18,1.17-.28.59-.16.63-.2.63-.49s0-.33-.52-.44c-.29,0-.86-.13-1.29-.15A6.92,6.92,0,0,0,255.08,190.56Z" transform="translate(-164.66 -143.47)"/><path class="cls-1" d="M253,191.18a12.3,12.3,0,0,0-1.09.62c-.26.2-.67.52-.9.72a2,2,0,0,0-.41.47s.14.13.31.17l.3.09c-.17,2.13-.16,2.39,0,2.44l1.17.53,1,.45L255.9,195l-.06-2.77c-.68-.21-1.16-.34-1.5-.44-.61-.16-.62-.17-.62-.54,0-.21,0-.38-.08-.38A5.13,5.13,0,0,0,253,191.18Zm5.43.08c0,.32-.08.36-.63.53l-1.09.32-.49.15a17,17,0,0,0,0,2.73,14.35,14.35,0,0,0,1.33,1l1.25.86,2.28-.67a17.65,17.65,0,0,1,.11-2,.71.71,0,0,1,.44-.41l.38-.16a9.3,9.3,0,0,0-1.58-1.61,10.29,10.29,0,0,0-1.09-.7l-.68-.31C258.43,190.91,258.41,190.95,258.38,191.26Z" transform="translate(-164.66 -143.47)"/><path class="cls-3" d="M250.07,193.54a7.38,7.38,0,0,0-.64,1.16,8.44,8.44,0,0,0-.53,1.57,2.15,2.15,0,0,0-.09.83.71.71,0,0,0,.31.14c.21.06.36-.07.93-.77l.69-.85a15.87,15.87,0,0,0,.13-2.17.63.63,0,0,0-.3-.18C250.38,193.21,250.27,193.28,250.07,193.54Zm11.68.41c-.29.1-.3.14-.37,1.16l-.08,1.06c1,1.69,1.23,1.89,1.42,1.89a1.84,1.84,0,0,0,.4,0c.1,0,.17-.2.17-.44a9,9,0,0,0-.17-1.23,9.09,9.09,0,0,0-.56-1.69,4,4,0,0,0-.47-.83Zm-6.94,2c-.63.42-1.18.78-1.24.79a5.07,5.07,0,0,0,.24,1.33c.17.72.34,1.43.38,1.61l.07.3h3.21c.72-2.49.93-3.21.91-3.21l-1.07-.72a13.39,13.39,0,0,0-1.2-.78A3.84,3.84,0,0,0,254.81,196Z" transform="translate(-164.66 -143.47)"/><path class="cls-1" d="M250.11,196.72c-.67.8-.7.83-1.07.75l-.38-.07a17.27,17.27,0,0,0,.33,2.25,10.74,10.74,0,0,0,.55,1.41l.38.76.59-.61a14.84,14.84,0,0,0,1.93.87c.08,0,.26-.18.41-.4l.73-1.06L254,200l-.77-3c-1.72-.79-2.28-1-2.34-1A4.11,4.11,0,0,0,250.11,196.72Zm9.65.06a7,7,0,0,0-1.15.39,16.34,16.34,0,0,0-.53,1.57l-.45,1.5a14.3,14.3,0,0,0,1.69,1.84,10,10,0,0,0,1.11-.4l1-.4c.38.37.53.48.57.48a2.84,2.84,0,0,0,.46-.73,9.66,9.66,0,0,0,.53-1.33,9.37,9.37,0,0,0,.23-1.06c.06-.42,0-.46-.15-.4l-.44.1c-.18,0-.33-.13-.85-.92a3.27,3.27,0,0,0-.79-1C260.93,196.45,260.37,196.6,259.76,196.77Z" transform="translate(-164.66 -143.47)"/><path class="cls-2" d="M238.4,199.51c0,.13.16,1,.3,1.93l.24,1.68a35.42,35.42,0,0,0,1.82,3.37c.06,0,.1-.08.1-.24s-.09-1-.22-2l-.22-1.65a24.35,24.35,0,0,0-2-3.37C238.39,199.25,238.36,199.36,238.4,199.51Zm34,1.57-.93,1.71c-.34,2.6-.45,3.48-.45,3.61s0,.24.08.24a12.11,12.11,0,0,0,1-1.65l.87-1.66a37.84,37.84,0,0,0,.48-3.91A10.74,10.74,0,0,0,272.4,201.08Z" transform="translate(-164.66 -143.47)"/><path class="cls-1" d="M253.44,201.2a7.84,7.84,0,0,0-.71,1.07,8.16,8.16,0,0,0,.71.9c.65.76.7.84.55,1a.87.87,0,0,0-.15.36c0,.07.24.2.56.26a10.29,10.29,0,0,0,3.21,0l.57-.13a2.83,2.83,0,0,1-.33-.63,7.56,7.56,0,0,1,.6-.9,3.61,3.61,0,0,0,.57-.92,12.5,12.5,0,0,0-.85-1.06l-.8-.94h-3.2Z" transform="translate(-164.66 -143.47)"/><path class="cls-3" d="M250.28,201.76c-.21.22-.21.23.13.63a9,9,0,0,0,1,.92,8.42,8.42,0,0,0,1.24.84,2.74,2.74,0,0,0,.79.32.36.36,0,0,0,.3-.21c.09-.18,0-.36-.57-1A3.65,3.65,0,0,0,251.6,202a5.84,5.84,0,0,0-1-.42A.78.78,0,0,0,250.28,201.76Zm10,.21a2.6,2.6,0,0,0-1.61,1.24c-.62.8-.63.85-.48,1.11s.17.26.57.1a10.63,10.63,0,0,0,1-.52A12.09,12.09,0,0,0,261,203a3.24,3.24,0,0,0,.71-.81.48.48,0,0,0-.14-.45c-.11-.1-.22-.18-.25-.17S260.85,201.74,260.32,202Z" transform="translate(-164.66 -143.47)"/><path class="cls-2" d="M253.88,214.31c-1,.21-1.87.39-1.9.42s0,.08.1.1,1,.18,2,.34l1.8.29a20.26,20.26,0,0,0,3.82-.73,10.08,10.08,0,0,0-1.87-.46c-1-.2-1.88-.34-1.94-.34Zm-62.71,18c0,.68.11,2.12.17,3.24s.18,2.79.28,3.74.17,1.76.18,1.77,2-2.19,4.5-4.89,4.46-4.95,4.44-5-2.2-.08-4.83-.08h-4.8Zm18.57,3L204.56,241c-.72.78-3.39,3.71-5.93,6.51s-4.69,5.2-4.79,5.32-.13.32,0,.81c.07.33.4,1.68.72,3s.85,3.32,1.17,4.45.87,2.9,1.2,3.94a11.78,11.78,0,0,0,.72,1.93c.06,0,3.16-3.3,6.89-7.41l12.18-13.39,9.49-10.42c2.25-2.48,4.07-4.54,4.05-4.59s-3.79-.08-8.35-.08h-8.31Z" transform="translate(-164.66 -143.47)"/><path class="cls-1" d="M242.4,278.85v47.76a65.51,65.51,0,0,0,6.1,5.38l3.33,2.25c1.08.71,2.44,1.61,3,2,1,.6,1.12.67,1.34.56s1.16-.71,2.28-1.43,3-2,4.27-2.85a32.52,32.52,0,0,0,4.54-3.68l2.32-2.15V231.09H242.4Z" transform="translate(-164.66 -143.47)"/><path class="cls-2" d="M281.77,231.17s1.55,1.84,3.51,4l9.52,10.49c3.29,3.6,9,9.89,12.71,14s6.77,7.41,6.82,7.41a18.25,18.25,0,0,0,.81-2.25c.4-1.25,1-3.24,1.34-4.43s.88-3.28,1.2-4.62.59-2.52.59-2.63-2.46-2.89-5.46-6.2L302.88,236l-4.48-4.91C285.56,231.09,281.8,231.12,281.77,231.17Zm29.5,0a11.28,11.28,0,0,0,1.26,1.49c.71.78,2.71,3,4.42,4.85s3.17,3.41,3.21,3.36a3.64,3.64,0,0,0,.18-.94c0-.47.13-1.2.16-1.63s.1-1.58.16-2.6.14-2.47.16-3.24l.07-1.38C313.48,231.09,311.31,231.12,311.27,231.17Zm-48.74,3.08a7.92,7.92,0,0,0-1.25.46,8,8,0,0,0-1.33.85,11.3,11.3,0,0,0-1.14,1.18,15.84,15.84,0,0,0-1.47,2.58l-.91,1.87a6.09,6.09,0,0,1-1.25-.36,6.29,6.29,0,0,1-.87-.41l-.33-.2c-.11.62-.16.86-.16.94s.26.25.57.4a6.2,6.2,0,0,0,1.15.4c.45.11.56.18.5.31s-.46,1.2-.94,2.49-1.08,2.93-1.35,3.64-.67,1.65-.87,2.07l-.36.77a10.18,10.18,0,0,0-2.35-.38,8,8,0,0,0-1.55.16,7.45,7.45,0,0,0-1.4.52,5.41,5.41,0,0,0-1.25.84,4,4,0,0,0-.75,1,2.83,2.83,0,0,0-.22.84,2.23,2.23,0,0,0,.14.71,2.1,2.1,0,0,0,.47.65,2.91,2.91,0,0,0,1,.52,8.44,8.44,0,0,0,1.69.29,3.85,3.85,0,0,0,1.74-.16,7.09,7.09,0,0,0,1.47-.69,8.07,8.07,0,0,0,1.29-1.06,4.33,4.33,0,0,0,.57-.69s.06-.09.13-.09a3.06,3.06,0,0,1,.73.4,17.29,17.29,0,0,0,1.64.92,15.59,15.59,0,0,0,1.71.75,11.76,11.76,0,0,0,1.37.32,9.26,9.26,0,0,0,1.39,0,15.8,15.8,0,0,0,1.63-.26,10.23,10.23,0,0,0,1.74-.64,8.68,8.68,0,0,0,1.56-1.11,9,9,0,0,0,1.25-1.43,2,2,0,0,0,.5-1.31c0-.42,0-.54-.2-.56a2.43,2.43,0,0,0-.92.59c-.4.33-1.06.83-1.45,1.08a10.87,10.87,0,0,1-1.27.68,4.46,4.46,0,0,1-1.86.23,16.6,16.6,0,0,1-2.26-.16,15.16,15.16,0,0,1-1.69-.37c-.39-.13-1.14-.39-1.65-.61a3.59,3.59,0,0,1-1-.47,9.51,9.51,0,0,1,.47-.9c.26-.45.86-1.57,1.32-2.49s1.06-2.2,1.31-2.82.6-1.56.76-2.07l.29-.93a12.76,12.76,0,0,0,2-.5c.5-.18,1.22-.48,1.58-.65s.94-.53,1.3-.77a10.24,10.24,0,0,0,1.22-1,6.59,6.59,0,0,0,1-1.37,2.75,2.75,0,0,0,.42-1.81c0-1,0-1-.38-1.38a3.29,3.29,0,0,0-.93-.62,4.26,4.26,0,0,0-1.31-.26A5.94,5.94,0,0,0,262.54,234.24Z" transform="translate(-164.66 -143.47)"/><path class="cls-1" d="M262.49,235.85a3.12,3.12,0,0,0-.73.33,3.38,3.38,0,0,0-.7.64,10.3,10.3,0,0,0-1,2.3,13.67,13.67,0,0,0-.56,2,5.64,5.64,0,0,0,1.12-.31,12.49,12.49,0,0,0,1.77-.77,5.36,5.36,0,0,0,1.06-.81,4.66,4.66,0,0,0,.59-.85,3.32,3.32,0,0,0,.28-1,1.11,1.11,0,0,0-.17-.85,2,2,0,0,0-.47-.5,2,2,0,0,0-.57-.21A2,2,0,0,0,262.49,235.85Z" transform="translate(-164.66 -143.47)"/><path class="cls-2" d="M229.64,245.94l-12.73,14c-5,5.5-10.48,11.52-12.19,13.39s-3.11,3.47-3.13,3.53.8,1.79,1.82,3.82,2.36,4.59,3,5.7,1.19,2,1.23,2.09,1.68-1.68,3.61-3.81,6.87-7.54,10.95-12l9.33-10.26,1.93-2.12c0-15.1,0-18.2-.08-18.23S231.63,243.74,229.64,245.94Zm48.91,5.16v9.15L291.11,274l9.75,10.73c2.62,2.88,3.45,3.74,3.55,3.64s.67-1.09,1.32-2.25,1.72-3.12,2.35-4.35,1.42-2.85,1.78-3.61l.64-1.39c-.61-.62-2.44-2.64-4.48-4.88l-8.59-9.46-11.79-13c-3.79-4.17-6.93-7.57-7-7.57S278.54,245.06,278.54,251.1Z" transform="translate(-164.66 -143.47)"/><path class="cls-1" d="M248.75,251.8a3,3,0,0,0-.91.52,2.64,2.64,0,0,0-.5.63,1.71,1.71,0,0,0-.16.64.79.79,0,0,0,.2.54,2.43,2.43,0,0,0,.44.3,3.65,3.65,0,0,0,.93.13,2.47,2.47,0,0,0,1.22-.26,4.18,4.18,0,0,0,1-.8,5.91,5.91,0,0,0,.64-.83c.16-.26.15-.3,0-.45a3.83,3.83,0,0,0-.71-.33,5.88,5.88,0,0,0-1-.22A2.61,2.61,0,0,0,248.75,251.8Z" transform="translate(-164.66 -143.47)"/><path class="cls-2" d="M252.3,261a6.78,6.78,0,0,0-1.23.5,6.68,6.68,0,0,0-1.29,1,3.66,3.66,0,0,0-.64.81.88.88,0,0,0,.29.41l.28.26a12.45,12.45,0,0,1,1.07-1.23,4.72,4.72,0,0,1,.91-.63,2.41,2.41,0,0,1,1.17-.25c.55,0,.69,0,.93.28s.26.37.26.86a3.93,3.93,0,0,1-.23,1.23c-.14.34-.59,1.23-1,2s-1.29,2.24-1.9,3.32-1.61,2.72-2.18,3.64a14,14,0,0,0-1.4,2.72,8.43,8.43,0,0,0-.42,1.85,3.4,3.4,0,0,0,.11,1.47,2.19,2.19,0,0,0,.69,1.14,2.43,2.43,0,0,0,1.17.68,6.74,6.74,0,0,0,1.69.2,8.92,8.92,0,0,0,1.65-.16,6.68,6.68,0,0,0,2.54-1.33,6.51,6.51,0,0,0,1-1,1.78,1.78,0,0,1,.41-.45s.11.18.16.41a3.3,3.3,0,0,0,.47,1,4.5,4.5,0,0,0,.81.94,6,6,0,0,0,1.08.64,2.7,2.7,0,0,0,1.7.24,3.28,3.28,0,0,0,1.51-.3,4.64,4.64,0,0,0,.8-.53,3.94,3.94,0,0,0,.6-.84,2.38,2.38,0,0,0,.29-1.41,3.43,3.43,0,0,0-.2-1.27c-.15-.32-.24-.4-.48-.4a1,1,0,0,0-.54.16c-.23.15-.24.2-.13.56a2.09,2.09,0,0,1,.06.79,1.5,1.5,0,0,1-.4.71c-.32.3-.39.32-1.19.32s-.87,0-1.25-.38a2,2,0,0,1-.5-.81,2.51,2.51,0,0,1,0-.93,7.74,7.74,0,0,1,.34-1.24c.15-.42.73-1.74,1.29-2.94s1.62-3.42,2.36-4.95,1.77-3.52,2.25-4.45a14.37,14.37,0,0,0,.88-1.87c0-.11-.1-.21-.24-.24l-1.23-.16-1-.11A16.53,16.53,0,0,0,262,264c-.56,1.14-2.12,4.37-3.47,7.21s-2.59,5.4-2.79,5.69a7.81,7.81,0,0,1-1,1.15,7.28,7.28,0,0,1-1.41,1,3.77,3.77,0,0,1-1.71.44c-.93,0-.94,0-1.25-.28a1.52,1.52,0,0,1-.4-.81,3.38,3.38,0,0,1,.1-1.3,9.73,9.73,0,0,1,.8-2c.34-.65,1.12-2.07,1.74-3.14s1.58-2.79,2.16-3.8,1.27-2.34,1.56-2.94a3.66,3.66,0,0,0,.53-1.57,2.78,2.78,0,0,0-.28-1.06,2.14,2.14,0,0,0-.68-.85,5.43,5.43,0,0,0-1-.48,5.51,5.51,0,0,0-1.31-.26A5.83,5.83,0,0,0,252.3,261Zm-20.59,15.1-8.48,9.32c-3.8,4.18-6.93,7.63-7,7.65l-1.69,1.84L213,296.7c.57.79,1.33,1.8,2.05,2.75s1.92,2.5,2.66,3.42,1.76,2.15,2.24,2.7a6.1,6.1,0,0,0,.94,1s.55-.56,1.15-1.22,3.42-3.75,6.28-6.9l5.2-5.71c0-14.29,0-18.3-.09-18.3A20,20,0,0,0,231.71,276.13Zm46.83,7.45v9.15l7.61,8.37c1.41,1.54,3.1,3.41,3.75,4.13a9.19,9.19,0,0,0,1.31,1.31,19.7,19.7,0,0,0,1.57-1.76c.79-1,2-2.46,2.73-3.36s1.73-2.26,2.3-3,1.07-1.47,1.11-1.54a59.42,59.42,0,0,0-4.36-5l-10.1-11.12c-3.11-3.44-5.73-6.25-5.8-6.27S278.54,276.32,278.54,283.57Zm-11.77,2c-.14.16-.4.45-.59.62a2,2,0,0,1-.71.41c-.21.06-.79.16-1.3.23a24.42,24.42,0,0,1-3.27,0l-4.36-.13c-1.1,0-2.38,0-2.82.07a15.72,15.72,0,0,0-1.69.34,6,6,0,0,0-1.37.56,3.49,3.49,0,0,0-.81.87,1.9,1.9,0,0,0-.33,1.26,1.6,1.6,0,0,0,.33,1.2,2.73,2.73,0,0,0,1.08.85,2.56,2.56,0,0,0,1.47.38,2,2,0,0,0,1-.18c.25-.16.28-.22.16-.38a3.32,3.32,0,0,0-.79-.47,4,4,0,0,1-.84-.47.64.64,0,0,1-.2-.45,1.64,1.64,0,0,1,.15-.57,1.45,1.45,0,0,1,.44-.48,4,4,0,0,1,.91-.36,11,11,0,0,1,3.06-.18l.37.07c-.11.93-.28,1.79-.42,2.5s-.34,1.57-.44,1.9-.28,1-.42,1.43c-.22.69-.31.85-.5.9l-1,.1a7.73,7.73,0,0,0-1.47.28,5.21,5.21,0,0,0-1.25.57,2.88,2.88,0,0,0-.79.79,2.11,2.11,0,0,0-.24,1.11c0,.56,0,.73.26,1a.93.93,0,0,0,.44.33c.13,0,.18-.17.24-.63a1.25,1.25,0,0,1,.4-1,2.33,2.33,0,0,1,.88-.47,6.6,6.6,0,0,1,1.37-.14,6,6,0,0,1,.85,0,11.13,11.13,0,0,1-.37,1.27c-.23.69-.63,1.79-.92,2.44a20.58,20.58,0,0,1-1,2,8,8,0,0,1-1,1.32,2.57,2.57,0,0,1-1.26.73,2.66,2.66,0,0,1-1.31.16,1.86,1.86,0,0,1-.84-.33,1.7,1.7,0,0,1-.47-.85c-.1-.38-.23-.62-.36-.65a.37.37,0,0,0-.34.11,1.06,1.06,0,0,0-.16.68,2.71,2.71,0,0,0,.2.87,5,5,0,0,0,.53.75,4,4,0,0,0,.91.68,2.92,2.92,0,0,0,1.73.28,3.22,3.22,0,0,0,1.86-.3,9,9,0,0,0,1.25-.78,9.21,9.21,0,0,0,1.16-1.16c.3-.38.78-1,1-1.45s.75-1.27,1.06-1.9a21.56,21.56,0,0,0,1-2.33l.39-1.19a12.32,12.32,0,0,0,2.52-.06,4.39,4.39,0,0,0,1.2-.38,4.69,4.69,0,0,0,.9-.76,2.71,2.71,0,0,0,.59-1,3.44,3.44,0,0,0,.07-.9,2,2,0,0,0-.23-.73c-.09-.17-.25-.3-.34-.3s-.18.14-.22.4a2.53,2.53,0,0,1-.25.73,2,2,0,0,1-.73.59,3.47,3.47,0,0,1-1.35.31,6.53,6.53,0,0,1-1.19,0l-.39-.07c.3-1.14.64-2.69,1-4.18.56-2.71.57-2.72.84-2.69s1.06,0,2-.08a15.9,15.9,0,0,0,2.34-.3,8.59,8.59,0,0,0,1.11-.42,6,6,0,0,0,1-.67,4,4,0,0,0,.65-.81,2.39,2.39,0,0,0,.23-.78.6.6,0,0,0-.15-.5C267.06,285.28,267,285.31,266.77,285.56ZM230.62,309.8c-1.46,1.6-2.82,3.09-3,3.33l-.39.44c2.28,2.17,3.66,3.45,4.52,4.26a10.19,10.19,0,0,0,1.66,1.38s.08-2.82.08-6.19c0-3.75,0-6.12-.1-6.12S232.07,308.2,230.62,309.8ZM278.54,313c0,3.36,0,6.14.08,6.19a3.14,3.14,0,0,0,.94-.7c.48-.44,1.84-1.71,3-2.82a24.12,24.12,0,0,0,2.12-2.15c0-.06-1.35-1.57-3-3.36s-3-3.27-3.08-3.27S278.54,309,278.54,313Zm-19.49-5.35a12.08,12.08,0,0,0-1.9.76,18.23,18.23,0,0,0-2.12,1.27,23.49,23.49,0,0,0-2.27,1.93,21.38,21.38,0,0,0-1.94,2.12,17.11,17.11,0,0,0-1.29,2.07,21.49,21.49,0,0,0-1,2.27,17.35,17.35,0,0,0-.55,2.18,15.1,15.1,0,0,0-.16,2A9.79,9.79,0,0,0,248,324a8.69,8.69,0,0,0,.57,1.63,6.38,6.38,0,0,0,1.08,1.57,7.7,7.7,0,0,0,1.18,1.06,5.63,5.63,0,0,0,1.41.57,7.3,7.3,0,0,0,2,.22,5,5,0,0,0,1.8-.24,7,7,0,0,0,1.41-.75,6.92,6.92,0,0,0,1.49-1.51A14.9,14.9,0,0,0,260,324.9a3.07,3.07,0,0,0,.34-.86.58.58,0,0,0-.16-.39.46.46,0,0,0-.37-.07,2.78,2.78,0,0,0-.68.78,12.89,12.89,0,0,1-1.35,1.6,4,4,0,0,1-1.42,1.07,5.59,5.59,0,0,1-1.25.26,4.87,4.87,0,0,1-1.25-.06,2.52,2.52,0,0,1-1-.54,3.31,3.31,0,0,1-.72-.9,6.92,6.92,0,0,1-.41-1,8.76,8.76,0,0,1-.24-1.3,8.32,8.32,0,0,1,.06-1.74,15,15,0,0,1,.4-1.89c.15-.5.44-1.39.65-2s.64-1.56,1-2.23a23.92,23.92,0,0,1,1.22-2.17,15.42,15.42,0,0,1,1.4-1.78,16.45,16.45,0,0,1,1.51-1.38,15.37,15.37,0,0,1,1.58-1,8.25,8.25,0,0,1,1.57-.62,3.35,3.35,0,0,1,1.2-.09,1.71,1.71,0,0,1,.73.37,2.08,2.08,0,0,1,.48.81,2.74,2.74,0,0,1,.1,1.15c0,.32-.09.76-.13.94s0,.38.16.47a.61.61,0,0,0,.36.06,1.25,1.25,0,0,0,.34-.47,3.56,3.56,0,0,0,.25-1.17,2.87,2.87,0,0,0-.17-1.35,4.34,4.34,0,0,0-.6-1,2.64,2.64,0,0,0-.84-.64,5,5,0,0,0-1.69-.24A5.8,5.8,0,0,0,259.06,307.66Z" transform="translate(-164.66 -143.47)"/><path class="cls-1" d="M213.93,336.22c1,1,1.77,1.74,1.8,1.74s-.72-.79-1.66-1.74-1.74-1.73-1.79-1.73A18.93,18.93,0,0,0,213.93,336.22Z" transform="translate(-164.66 -143.47)"/></svg>