<svg xmlns="http://www.w3.org/2000/svg" viewBox="0 0 394.39 394.39"><title>leicester-city-logo</title><path d="M255.08,457.19C364,457.19,452.28,368.91,452.28,260S364,62.81,255.08,62.81,57.89,151.09,57.89,260s88.29,197.19,197.19,197.19" transform="translate(-57.89 -62.81)" style="fill:#fff"/><path d="M255.08,450.14c105,0,190.14-85.13,190.14-190.14S360.09,69.86,255.08,69.86,64.95,155,64.95,260h0c0,105,85.13,190.14,190.14,190.14" transform="translate(-57.89 -62.81)" style="fill:#003090"/><path d="M255.08,452.62Z" transform="translate(-57.89 -62.81)" style="fill:#003090"/><path d="M255.08,437.91A177.91,177.91,0,1,0,77.18,260,177.91,177.91,0,0,0,255.08,437.91h0" transform="translate(-57.89 -62.81)" style="fill:#fff"/><path d="M255.08,433.73ZM81.36,260A173.73,173.73,0,0,1,255.08,86.27h0A173.73,173.73,0,0,1,428.81,260h0A173.73,173.73,0,0,1,255.08,433.73h0v-2.09a171.09,171.09,0,0,0,121.39-50.25h0A171.13,171.13,0,0,0,426.72,260h0a171.13,171.13,0,0,0-50.25-121.39h0A171.09,171.09,0,0,0,255.08,88.32h0a171.09,171.09,0,0,0-121.39,50.28h0A171.13,171.13,0,0,0,83.45,260h0a171.13,171.13,0,0,0,50.25,121.39h0a171.09,171.09,0,0,0,121.39,50.28h0v2.09A173.73,173.73,0,0,1,81.36,260Z" transform="translate(-57.89 -62.81)" style="fill:#003090"/><path d="M255.08,383.4A123.4,123.4,0,1,0,131.72,260v0A123.4,123.4,0,0,0,255.08,383.4" transform="translate(-57.89 -62.81)" style="fill:#fff"/><path d="M251.85,145.63c-2.56,14-19.33,14-28.67,21.38a26.66,26.66,0,0,0-9.47,15.38c-8.83-4.5-17.35-11.12-26.5-14.71a105.66,105.66,0,0,1,64.64-22" transform="translate(-57.89 -62.81)" style="fill:#003090"/><path d="M320.87,166.06l-22.4,14.63c-2.56-15.78-20.19-20.55-32.3-25.56-2.41-2.6-6.07-5.84-4.65-9.47a110.71,110.71,0,0,1,59.16,20.39" transform="translate(-57.89 -62.81)" style="fill:#003090"/><path d="M263,158.76c11.4,6,29.34,8.28,31.79,24.53-.51,1.74-2.6,2.41-3.63,3.27-1-21.42-26.27-17.27-34.35-33.52-8.44,16.41-35.5,13.29-35.22,35.93-1.89-.87-5.36-2.92-3.47-6.19,4.65-18.14,26.27-16.92,36.6-29.38l1.58-6.59A20.39,20.39,0,0,0,263,158.64" transform="translate(-57.89 -62.81)" style="fill:#003090"/><path d="M257.21,165.82c0,.51.32,1.38-.35,1.74s-.87-.67-1.38-.87c0-1.22,1.38-2.56,1.74-.87" transform="translate(-57.89 -62.81)" style="fill:#003090"/><path d="M261.67,170c.35.67-.35,1.22-.67,1.74h-.51v-2.41c.71,0,.87.51,1.22.87" transform="translate(-57.89 -62.81)" style="fill:#003090"/><path d="M253,170c0,.51.35,1.38-.32,1.74h-.87v-2.09c.35,0,1,0,1.18.35" transform="translate(-57.89 -62.81)" style="fill:#003090"/><path d="M175.18,197.77c-10.89,6.23-13.92,23.39-27.61,22a107.12,107.12,0,0,1,30.57-44.37c-3.94,6.23-3.35,14.75-2.84,22.36" transform="translate(-57.89 -62.81)" style="fill:#003090"/><path d="M258.4,188.62h-5l3.43-12.42a41.57,41.57,0,0,0,1.58,12.42" transform="translate(-57.89 -62.81)" style="fill:#003090"/><path d="M361.18,217.29c-11.83-.87-15.78-15.38-26.42-20.74a42.59,42.59,0,0,0,1.62-17.43,97.85,97.85,0,0,1,24.81,38.18" transform="translate(-57.89 -62.81)" style="fill:#003090"/><path d="M362.91,220.92l.35.51c-16.56,11.24.67,36.44-17.27,46.81-5,3.47-11.4,3.47-18,3.27,1.06-3.94,7.41-2.45,10.89-4.5,20.39-6.23,9.86-30.92,20.23-44.05-10-2.76-18-11.6-26.07-18.14l.51-2.92c9.5,6.74,16.56,20.23,29.34,19" transform="translate(-57.89 -62.81)" style="fill:#003090"/><path d="M178.45,204.35c-7.89,8.79-15.78,18.46-26.94,20.74,1.18,3.27,3.94,5.88,5.36,9.15,3.63,14,3.94,33.33,21.93,37.31,2.6,1,6.07-.51,7.89,2.05a25.24,25.24,0,0,1-23.15-6.23c-12.42-12.07-.35-35.22-18.3-43.86,15,3.27,20.9-14.67,31.55-21.26Z" transform="translate(-57.89 -62.81)" style="fill:#003090"/><path d="M337.91,221.78c0,.51.35,1.38-.35,1.74H337V221a.67.67,0,0,1,.87.87" transform="translate(-57.89 -62.81)" style="fill:#003090"/><path d="M176.21,223.52c0,.35,0,.51-.35.71-.87.35-1.22-.35-1.74-.71-.51-1.89,2.56-1.89,2.09,0" transform="translate(-57.89 -62.81)" style="fill:#003090"/><path d="M334.24,227.15c-.35.35-.51,1-1.22.87a1.34,1.34,0,0,1,0-2.41c1,0,.87,1,1.22,1.54" transform="translate(-57.89 -62.81)" style="fill:#003090"/><path d="M342.52,225.61c0,.67.35,1.54-.35,2.05s-.87-.67-1.22-.87c.35-.87.35-1.54,1.58-1.18" transform="translate(-57.89 -62.81)" style="fill:#003090"/><path d="M180.86,227.66c-.35,0-.51.87-1.22.71l-.87-.71,1.38-1.74a3.19,3.19,0,0,1,.67,1.74" transform="translate(-57.89 -62.81)" style="fill:#003090"/><path d="M336.37,340.93l-7.89,7.3c-2.25-16.92,17.43-27.61,12.78-45.95-2.41-9.66-13-17.43-21.57-20.74,0-11.83,12.94-3.27,19.17-5.88a24.93,24.93,0,0,0,18.77-13.61c6.59-11.24-2.68-26.31,7-36.32a113.82,113.82,0,0,1-28.16,115.2" transform="translate(-57.89 -62.81)" style="fill:#003090"/><path d="M172.26,227.66c.35.71-.35,1.06-.87,1.58H171v-2.41c.51,0,.87.51,1.22.87" transform="translate(-57.89 -62.81)" style="fill:#003090"/><path d="M156.49,265.32a28.24,28.24,0,0,0,19.72,13.29,105.93,105.93,0,0,0,15.18-.87l1.38,3.27c-9,3.27-18.65,10.73-21.26,20.39-4.3,17.94,11.83,29.54,15,45.59l-1.3,3.94C149.47,322.51,134,281,142.72,235.31l1.93-7.3c14.87,6.23,4.22,26.07,11.83,37.31" transform="translate(-57.89 -62.81)" style="fill:#003090"/><path d="M340.94,247.85c-2.41-.87-2.92,2.09-3.94,3.27-.51-1-.51-2.45-1.54-3.27l-2.56.51,5-16a62.39,62.39,0,0,0,2.92,15.38" transform="translate(-57.89 -62.81)" style="fill:#003090"/><path d="M180.15,248.72c-2.25-.51-3.12,1.38-3.94,3v.87c-.55-1.74-1.93-5.36-4.5-3.47a156.42,156.42,0,0,0,4.5-15.78,35.5,35.5,0,0,0,3.94,15.38" transform="translate(-57.89 -62.81)" style="fill:#003090"/><path d="M194.66,287.61v1.54c-6.9,3.27-15,9.31-15,17.79-1,15.78,14,24.49,12.42,40.23,2.41,1.89,4.65-1.54,7.41-1.22,9.07-.67,35.06,2.09,41.1-5.36a5.17,5.17,0,0,1,3.94,1.22,17.23,17.23,0,0,1-13.8,9.15c-14.16,1.38-30.41-10.53-41.81,2.45,8.64-20.23-21.06-33.33-11.24-54.74A26.62,26.62,0,0,1,193.91,285Z" transform="translate(-57.89 -62.81)" style="fill:#003090"/><path d="M336.8,304.68c2.09,17.79-18.65,27.61-12.94,45.24-17.43-10-40.23,14-55.21-6.74,0-1.38,1.58-2.45,2.6-2.92,3.12.87,4.14,3.94,6.9,5.52,13.45,9.66,27.61-2.92,42.32.71.87-1.74,0-5.17.87-7.45,5.52-12.58,19.17-28.67,6.23-42.32A35.26,35.26,0,0,0,316,290.17c-1.22-1.89.71-3.27,1.18-5,7.89,2.92,18.65,10,19.52,19.48" transform="translate(-57.89 -62.81)" style="fill:#003090"/><path d="M304,308c-1,.51-1-.67-1.54-1.22.51-.51.51-1.74,1.54-1.22Z" transform="translate(-57.89 -62.81)" style="fill:#003090"/><path d="M211.7,306.77c0,.51.35,1.38-.35,1.74s-.87-.67-1.38-.83c-.87-1.58,1.74-2.45,1.74-.87" transform="translate(-57.89 -62.81)" style="fill:#003090"/><path d="M308.68,311.78c-.51,0-.67,0-.87.35-.51-.51-1-2.41.35-2.41s.35,1.38.51,2.05" transform="translate(-57.89 -62.81)" style="fill:#003090"/><path d="M216.08,311.27c0,.51,0,.71-.35.87h-.87V310c1.22-.51.87.87,1.22,1.18" transform="translate(-57.89 -62.81)" style="fill:#003090"/><path d="M207.44,311.27c0,.71.35,1.38-.35,1.74s-.87-.51-1.38-.87,1.74-2.6,1.74-.87" transform="translate(-57.89 -62.81)" style="fill:#003090"/><rect x="240.74" y="247.76" width="1.22" height="2.09" style="fill:#003090"/><path d="M214.54,332.49c-1.74-1.22-3.63,1.74-3.94,3a3.39,3.39,0,0,0-3.75-3l-.19,0a59.16,59.16,0,0,0,4.65-15.34,88.26,88.26,0,0,0,3.27,15.34" transform="translate(-57.89 -62.81)" style="fill:#003090"/><path d="M307.3,332.84c0-.67-1,0-1.58-.35l-2.05,3.27a5.17,5.17,0,0,0-1.74-3.27l-2.09.35,3.94-15.78a153.1,153.1,0,0,0,3.27,15.78" transform="translate(-57.89 -62.81)" style="fill:#003090"/><path d="M287.94,356.51c11.4.67,21.57-7.38,32.66-2.21-31.83,23.15-80.38,27-114.77,9.86l-13.29-7.89a15.11,15.11,0,0,1,11.83-4.77c14.16,2.25,34.86,9.5,44.72-6.23a18.34,18.34,0,0,0,15.38-.87,27.13,27.13,0,0,0,23.66,12.07" transform="translate(-57.89 -62.81)" style="fill:#003090"/><path d="M354.27,289.86c-7.26,0-15.54-.87-20.71-5.88-.35-2.25,1.89-3.12,3.63-3.27a28.36,28.36,0,0,1,17.12,9.15" transform="translate(-57.89 -62.81)" style="fill:#fff"/><path d="M175.5,284.85c.35,4.3-4.65,4.81-7.41,6.23a35.5,35.5,0,0,1-11.2,1.22c4.81-4.69,10.85-9.54,17.75-8.64Z" transform="translate(-57.89 -62.81)" style="fill:#fff"/><path d="M260.49,349.92a43.38,43.38,0,0,1-3,15.18c-1.38-5.17-6-13.29-.67-18.1a3.94,3.94,0,0,1,3.63,2.92" transform="translate(-57.89 -62.81)" style="fill:#fff"/><path d="M116.77,300.07a9.82,9.82,0,0,0,1.81,3.94l-4.85-1.58a3.59,3.59,0,0,1-2.48-2.68l-2.72-11.83-7.1,1.66a5.28,5.28,0,0,0-4.54,3.94l-3-12.62c1.18,1.58,3,2,5.76,1.34l19.72-4.61c2.72-.63,4.18-1.77,4.57-3.75l6.74,28.79a2.09,2.09,0,0,0-1.34-.24c-.59,0-2.48,1.42-6.07,3.39a20.55,20.55,0,0,0,0-11.83l-2.17-9.23-7.53,1.77Z" transform="translate(-57.89 -62.81)" style="fill:#003090"/><path d="M110.07,332.84c-5.25-10.33-2.72-19,5.92-23.35s17.91-1.38,23,8.68,2.88,19-6.23,23.66C124.42,345.94,115.16,342.82,110.07,332.84Zm19.48,1.46a9,9,0,0,0,4.57-13.25,9.82,9.82,0,0,0-14.63-4.38,9,9,0,0,0-4.5,13.17,9.82,9.82,0,0,0,14.51,4.46Z" transform="translate(-57.89 -62.81)" style="fill:#003090"/><path d="M134.56,368.42c-7.89-8.6-7.57-17.59-.43-24.1s16.88-6,24.45,2.33,7.89,17.55,0,24.37C151.87,377.29,142.13,376.78,134.56,368.42Zm19.17-3.67a9,9,0,0,0,.95-14,9.82,9.82,0,0,0-15.3-.39,9,9,0,0,0-.87,13.92,9.82,9.82,0,0,0,15.22.47Z" transform="translate(-57.89 -62.81)" style="fill:#003090"/><path d="M164.38,388.89l.95-1.42,11.24-16.8-1.26-.83a20.43,20.43,0,0,0-10.89-3.94c3-2.68,4.93-3.94,5.32-4.5a2.48,2.48,0,0,0,.28-1.34l25.44,17a2.09,2.09,0,0,0-1.14.75c-.35.51-.83,2.76-2.13,6.63a20.47,20.47,0,0,0-7.89-8.48L183,375l-11.24,16.8a5.52,5.52,0,0,0-.67,6.07l-10.73-7.14A4.22,4.22,0,0,0,164.38,388.89Z" transform="translate(-57.89 -62.81)" style="fill:#003090"/><path d="M190.52,402.65l6.47-19c.91-2.64.83-4.54-.71-6l16.33,5.56c9.19,3.12,13.65,6.27,11.83,12a6.7,6.7,0,0,1-7.22,4.46c4.89,2.37,6.55,5.4,5.17,9.54-2.13,6.27-7.89,7.18-18,3.94l-17.91-6.07C188.35,406.75,189.62,405.37,190.52,402.65ZM207,408.49c3.94,1.38,6.59.75,7.49-1.85s-.87-4.42-5-5.84l-9.27-3.16-2.6,7.61Zm2.13-13.21c3.94,1.34,6.23.91,7.1-1.66s-.67-3.94-4.14-5.09l-7.89-2.68-2.37,6.94Z" transform="translate(-57.89 -62.81)" style="fill:#003090"/><path d="M261,421.7l-11.56-.32a3.39,3.39,0,0,0,1.14-2.48,5.13,5.13,0,0,0,0-1.89l-.71-2.09-17.75-1.58-.79,1.46a5.4,5.4,0,0,0-.55,2,4.57,4.57,0,0,0,1.1,3.35L220,417.44A14.08,14.08,0,0,0,224,413.5l13-21.77a3.94,3.94,0,0,0,.59-1.42,3.12,3.12,0,0,0-.28-1.1L250,390.35a4.46,4.46,0,0,0-.51,1.1,4.18,4.18,0,0,0,.35,1.46L258,416.57A16.13,16.13,0,0,0,261,421.7Zm-13.13-12.58-5.36-15L235,407.94Z" transform="translate(-57.89 -62.81)" style="fill:#003090"/><path d="M259,391.1l12.82-1.81a5.17,5.17,0,0,0-2,5.64L272.71,415l8.76-1.22a18,18,0,0,0,11.48-5.36,68.35,68.35,0,0,0-1.85,7.89,2.6,2.6,0,0,0,.79,1.26l-28.47,3.94a5.09,5.09,0,0,0,1.85-5.6l-2.84-20.11C262,393.22,261,391.69,259,391.1Z" transform="translate(-57.89 -62.81)" style="fill:#003090"/><path d="M285.49,387.7l12.19-4.38a5.17,5.17,0,0,0-.83,5.92l6.86,19.13,8.28-3A18,18,0,0,0,322.13,398a68.23,68.23,0,0,0,0,7.89,2.6,2.6,0,0,0,1,1.06l-27.06,9.66a5.09,5.09,0,0,0,.67-5.88l-6.86-19.13C288.81,389.2,287.5,387.9,285.49,387.7Z" transform="translate(-57.89 -62.81)" style="fill:#003090"/><path d="M359.44,383.64c-1.85,1.34-4.3,4.34-8.24,7.18-9,6.39-17.47,5.4-23.27-2.72s-3.94-17.75,5.64-24.49a106,106,0,0,1,9.7-5.4,7.89,7.89,0,0,0,1.22-1.26l2.25,7.89a16.72,16.72,0,0,0-9.58,3.19,10.21,10.21,0,0,0-2.8,15A9.39,9.39,0,0,0,349,385.42a26.54,26.54,0,0,0,7.89-9.54l4.65,6.82A6.86,6.86,0,0,0,359.44,383.64Z" transform="translate(-57.89 -62.81)" style="fill:#003090"/><path d="M344.26,356.74l8.52-9.74a5.17,5.17,0,0,0,2.17,5.56L370.25,366l5.8-6.63a18,18,0,0,0,5.25-11.52,68,68,0,0,0,3.94,7.26,2.6,2.6,0,0,0,1.42.43l-18.93,21.61c.59-1.93-.2-3.63-2.29-5.44l-15.3-13.41C347.85,356.43,346.07,355.92,344.26,356.74Z" transform="translate(-57.89 -62.81)" style="fill:#003090"/><path d="M397.93,337.85c-4.81,8.91-10.92,11.4-18.18,7.38l-12.19-6.74c-2.48-1.38-4.46-1.5-6-.32L367.76,327c0,2.13.91,3.47,3.47,4.89l11.83,6.63a7.89,7.89,0,0,0,7.41-13.41l-11.83-6.63c-2.37-1.3-3.94-1.74-6-.35l6.23-11.28c-.24,1.89,1,3.63,3.43,5l12.19,6.74C401.76,322.55,402.94,328.82,397.93,337.85Z" transform="translate(-57.89 -62.81)" style="fill:#003090"/><path d="M404.64,309.26l-19.72-4.5c-2.72-.63-4.61-.35-5.84,1.34L383,289.26c2.17-9.47,4.85-14.2,10.81-12.82a6.7,6.7,0,0,1,5.17,6.74c1.85-5.13,4.73-7.06,9-6.11,6.43,1.46,7.89,7.18,5.6,17.51L409.37,313C408.9,311,407.44,309.93,404.64,309.26Zm-9.23-17.71c.95-3.94.28-6.27-2.37-6.9s-3.94,1-4.65,4.65l-1.85,8.12,7.14,1.66Zm13.37.79c.95-4.22,0-6.67-2.6-7.26s-4.3,1.3-5.28,5.6l-2.17,9.54,7.89,1.81Z" transform="translate(-57.89 -62.81)" style="fill:#003090"/><path d="M95.59,238.86l2.8-12.62c.35,1.93,1.93,3.23,4.57,3.94l19.72,4.38,1.89-8.56a18,18,0,0,0-1-12.62,68.39,68.39,0,0,0,6.82,4.54,2.6,2.6,0,0,0,1.46-.32l-6.19,28.08c-.43-2-1.93-3.08-4.61-3.67l-19.72-4.38C98.59,236.85,96.82,237.24,95.59,238.86Z" transform="translate(-57.89 -62.81)" style="fill:#003090"/><path d="M128.88,210.54l-18.1-9.27a5,5,0,0,0-5.92,0l14.79-28.87a2.09,2.09,0,0,0,.87,1c.55.28,2.84.51,6.86,1.34a20.55,20.55,0,0,0-7.53,8.87l-5.72,10.89,6.43,3.31,6.23-12.11a10.61,10.61,0,0,0,1.14-3.94l2.68,4.3a3.59,3.59,0,0,1,0,3.67l-5.44,10.65,6.94,3.55L138,192.4A18.26,18.26,0,0,0,140.24,180a63.1,63.1,0,0,0,5.48,6.07,2.45,2.45,0,0,0,1.46,0l-15,29.3C132.43,213.3,131.29,211.84,128.88,210.54Z" transform="translate(-57.89 -62.81)" style="fill:#003090"/><path d="M135.7,160.42l15.78,12.42c2.25,1.77,3.94,2.21,5.88,1.26l-7.89,10.1c.51-2-.39-3.63-2.64-5.36L131,166.41c-2.25-1.77-3.94-2.25-5.88-1.3l7.89-10.1C132.59,157,133.45,158.64,135.7,160.42Z" transform="translate(-57.89 -62.81)" style="fill:#003090"/><path d="M177.31,154.46c-1.7,1.54-3.94,4.85-7.34,8.08-8.12,7.41-16.72,7.45-23.43,0s-5.84-16.92,2.68-24.81a105.89,105.89,0,0,1,9-6.51,8.12,8.12,0,0,0,1.06-1.38l3.16,7.53a16.68,16.68,0,0,0-9.15,4.3,10.21,10.21,0,0,0-1,15.26,9.39,9.39,0,0,0,14.83.51A26.54,26.54,0,0,0,173.68,147l5.64,6.19A6.9,6.9,0,0,0,177.31,154.46Z" transform="translate(-57.89 -62.81)" style="fill:#003090"/><path d="M179.6,146.46l-9.5-17.94c-1.3-2.48-2.8-3.59-4.77-3.47L194,109.86a2.09,2.09,0,0,0,0,1.34c.28.55,2,2.05,4.85,5a20.55,20.55,0,0,0-11.24,3l-10.89,5.76,3.43,6.39,12-6.39a10.65,10.65,0,0,0,3.27-2.68l-.24,5.09a3.59,3.59,0,0,1-2,3.08L182.64,136l3.67,6.9,11.48-6.07a18.26,18.26,0,0,0,8.91-8.91,62.83,62.83,0,0,0,1.06,8.08,2.45,2.45,0,0,0,1.14.91L179.8,152.33C181,150.79,180.9,148.94,179.6,146.46Z" transform="translate(-57.89 -62.81)" style="fill:#003090"/><path d="M222.63,128.39q7.57-1.85,6.63-5.8c-.79-3.19-4.38-2.52-10.53-1.89-7.61.79-11.83-1-13.05-5.72-1.3-5.4,2.76-10.69,11.32-12.78,5.52-1.34,9.82-1.38,12.15-1.93a3,3,0,0,0,1.18-.55v7.89a22,22,0,0,0-12.27,0c-3.71.91-5.36,2.45-4.85,4.38.71,2.92,3.94,1.77,10.77,1.38,7.49-.43,11.83,1.18,12.94,6.39,1.58,6.47-2.92,11.56-12.9,14-4.54,1.1-8.08,1.22-10,1.7a4.18,4.18,0,0,0-1.46.67l-3.94-7.89A29.86,29.86,0,0,0,222.63,128.39Z" transform="translate(-57.89 -62.81)" style="fill:#003090"/><path d="M246.45,125.91v-1.7L245.62,104h-1.5a20.47,20.47,0,0,0-11.2,3.12c.87-3.94,1.66-6.11,1.66-6.78a2.48,2.48,0,0,0-.55-1.22l30.53-1.26a2.09,2.09,0,0,0-.47,1.26c0,.63.95,2.72,2.21,6.63a20.47,20.47,0,0,0-11.44-2.17h-1.62l.83,20.19a5.52,5.52,0,0,0,3,5.28l-12.9.55A4.22,4.22,0,0,0,246.45,125.91Z" transform="translate(-57.89 -62.81)" style="fill:#003090"/><path d="M266,123.46l3.67-20c.51-2.76,0-4.54-1.62-5.68l31.91,5.84a2.09,2.09,0,0,0-.75,1.14c0,.63.32,2.88.67,6.94a20.59,20.59,0,0,0-10.69-4.65l-12.11-2.21-1.3,7.1,13.41,2.45a10.65,10.65,0,0,0,4.26,0l-3.35,3.94a3.59,3.59,0,0,1-3.47,1.14l-11.83-2.17L273.34,125l12.78,2.33a18.26,18.26,0,0,0,12.54-1.46,62.63,62.63,0,0,0-4.14,6.82,2.45,2.45,0,0,0,.32,1.42l-32.38-5.92C264.35,127.76,265.46,126.22,266,123.46Z" transform="translate(-57.89 -62.81)" style="fill:#003090"/><path d="M308.17,140l-11.56-5.6c2.05,0,3.43-1.14,4.69-3.75l9-18.22a5,5,0,0,0,0-5.92l16.41,7.89a34.59,34.59,0,0,1,8.2,4.77,8.44,8.44,0,0,1,1.62,10.14,9,9,0,0,1-11.36,4.14,12.07,12.07,0,0,1,2.64,7,24.81,24.81,0,0,0,2.13,9.86l-11.83-5.8a2.48,2.48,0,0,0,1.62-1.22,11.2,11.2,0,0,0,0-7,9.19,9.19,0,0,0-5.48-6.43L311,128.27l-2.88,5.52C306.91,136.56,306.87,138.53,308.17,140Zm12.5-12.9c4.46,2.17,6.74,2.17,8.2-.83s0-4.73-4.46-6.9L317,115.81l-3.75,7.89Z" transform="translate(-57.89 -62.81)" style="fill:#003090"/><path d="M356.13,175c-1.62-1.62-5-3.47-8.48-6.86-7.89-7.89-8.32-16.29-1.3-23.39s16.8-6.78,25.08,1.34a106,106,0,0,1,7,8.64,7.89,7.89,0,0,0,1.46,1l-7.38,3.55a16.68,16.68,0,0,0-4.81-8.91,10.21,10.21,0,0,0-15.3,0,9.39,9.39,0,0,0,0,14.83,26.54,26.54,0,0,0,10.73,6l-5.48,5.76A6.9,6.9,0,0,0,356.13,175Z" transform="translate(-57.89 -62.81)" style="fill:#003090"/><path d="M385.63,173.23l-16.49,11.52c-2.33,1.66-3.31,3.27-2.92,5.28l-7.38-10.49c1.74,1.06,3.59.67,5.92-1L381.29,167c2.33-1.66,3.31-3.23,3-5.25l7.38,10.53C389.81,171.26,388,171.62,385.63,173.23Z" transform="translate(-57.89 -62.81)" style="fill:#003090"/><path d="M375,198.2l1.54-.75,18.26-8.72-.63-1.34a20.47,20.47,0,0,0-7.26-9.11c3.94-.75,6.27-.87,6.9-1.14a2.45,2.45,0,0,0,.91-1l13.13,27.61a2.09,2.09,0,0,0-1.34,0c-.55.28-2.13,1.93-5.25,4.61a20.47,20.47,0,0,0-2.52-11.44l-.71-1.46-18.26,8.68a5.52,5.52,0,0,0-3.67,4.85l-5.56-11.83A4.22,4.22,0,0,0,375,198.2Z" transform="translate(-57.89 -62.81)" style="fill:#003090"/><path d="M413.27,234.88a2.17,2.17,0,0,0,1.66-1.46l2.52,12.07a47.33,47.33,0,0,0-7.14-3.71l-16.37-7.89-4.73,1c-2.8.59-4.38,1.85-4.73,3.94l-2.64-12.62c1.34,1.77,3.08,2,5.84,1.46l4.57-.95,13.13-14a13.53,13.53,0,0,0,3.94-6L412.09,220a1.85,1.85,0,0,0-2-.79,4.81,4.81,0,0,0-2.6,1.77l-8.28,8.64,11.4,4.85A4.38,4.38,0,0,0,413.27,234.88Z" transform="translate(-57.89 -62.81)" style="fill:#003090"/><path d="M324.22,209.24l.39-.39v-.75a36.21,36.21,0,0,1,3.08-14,14,14,0,0,0,.75-12.23,3.49,3.49,0,0,0-.32-1,22.28,22.28,0,0,0-1.85-4.73l-.75-1.38-1.5.47c-.95.32-23.66,7.89-35.5,24.85l-4.38,3.39a4.93,4.93,0,0,0,0-.79,5.32,5.32,0,0,0-3.51-3.63A80.53,80.53,0,0,0,254.73,195a67.32,67.32,0,0,0-27.61,5.52l-1.85.83.55,1c-11.24-9.62-32.42-27.06-38.49-27.06h-1.26l-.51.67a12.78,12.78,0,0,0-1.81,3.94s0,.28-.43.55c-2,2.05-2.56,4.38,0,11.32a52.65,52.65,0,0,1,3.94,15.78A51.27,51.27,0,0,0,190.92,220c.47,2,3.94,15.78,5.48,19.72a4.57,4.57,0,0,1-1.69,6.25l0,0-.39.28a12.7,12.7,0,0,0-6.7,8.24,11.12,11.12,0,0,0,3.59,8.79,15.14,15.14,0,0,1,1.38,3.31h0c-1,1.58,0,2.6,1.06,3.59l.59.59a19.36,19.36,0,0,0,3.12,2.45,11,11,0,0,1,2.88,2.45,14.59,14.59,0,0,1,.95,1.5,7.89,7.89,0,0,0,3.16,3.39l-.32,2.17a12.5,12.5,0,0,0,7.14,12.78c2.05,1,3.55,1.62,4.69,2.13,2.92,1.26,2.92,1.26,3.94,2.92a31.87,31.87,0,0,0,9.19,9.62,21.49,21.49,0,0,1,6.15,7.06l3,.87h.32l.47-.63h.28a22,22,0,0,0-1.81,6.9c0,2.76,1.14,9.11,11.24,10.81h0l2.72,1.89,3.39,2.92.43.28h2.64l2.45-.55h.63l.39-.51,1.5-1.85,1.3-1.62a13.37,13.37,0,0,0,7.41-3h0a18.06,18.06,0,0,0,4.3-8.24c0-.59-.35-3.23-.59-4.77h0l-1.06-2.92a10.65,10.65,0,0,1,.87,1.7l1.1,3.31,2.17-2.64,5-6.11c.43-.43,3.08-3,4.73-4.54a13.92,13.92,0,0,0,3.08-4.61,12.62,12.62,0,0,1,.59-1.14,54.07,54.07,0,0,1,11.28-8.2,12.46,12.46,0,0,0,6.78-12.86v-.83l-.83-1.14a26.54,26.54,0,0,0,1.42-3.94,44.65,44.65,0,0,0,10-8.2l.75-.91-.43-1.06s-1.26-3.23,2.33-7.61,3.94-5.36,3.23-6.74a2.09,2.09,0,0,0-1.38-1.14,24.61,24.61,0,0,1-7.41-7.14l-.2-1.06a12.9,12.9,0,0,1,.95-9.86,13.76,13.76,0,0,0,2.13-7.53,3.71,3.71,0,0,1,0-.91A137.33,137.33,0,0,1,324.22,209.24Z" transform="translate(-57.89 -62.81)" style="fill:#fdb913"/><path d="M266.21,302.44l1.66,5.17.75,7L264.08,318l-16.45-.47-6.31-5.64,2.76-2.37,1.58-7.14c-20.59-15.46-29.7-17-29.7-17a41.37,41.37,0,0,0-12.15-3.23v.35a12.5,12.5,0,0,0,7.3,13c2.05,1,3.55,1.62,4.69,2.13,2.92,1.26,2.92,1.26,3.94,2.92a31.87,31.87,0,0,0,9.19,9.62,21.53,21.53,0,0,1,6.15,7.06l3,.87h.32l.47-.63h.28a22,22,0,0,0-1.81,6.9c0,2.76,1.14,9.11,11.24,10.81h0l2.72,1.89,3.39,2.92.43.28h2.64l2.45-.55h.63l.39-.51,1.5-1.85,1.3-1.62a13.37,13.37,0,0,0,7.41-3h0a18.06,18.06,0,0,0,4.3-8.24c0-.59-.35-3.23-.59-4.77h0l-1.06-2.92a9.94,9.94,0,0,1,.87,1.7l1.1,3.31,2.17-2.64,5-6.11c.43-.43,3.08-3,4.73-4.54a13.84,13.84,0,0,0,3.08-4.61,12.27,12.27,0,0,1,.59-1.14,54,54,0,0,1,11.28-8.2,12.46,12.46,0,0,0,6.78-12.86l-.63-2.45v-.51l-5.72,3.16C266,295.5,266.21,302.44,266.21,302.44Z" transform="translate(-57.89 -62.81)" style="fill:#fff"/><path d="M217.42,261.14s1.1-1.5,3.94.75,9.15,7.3,15.54,6.55c0,0,1.3,2.05-3.19,1.85a33.6,33.6,0,0,1-5.8-.55,34.67,34.67,0,0,1-8.32-7.1A4.73,4.73,0,0,0,217.42,261.14Z" transform="translate(-57.89 -62.81)" style="fill:#003090"/><path d="M259.3,217.76l-2.05-1.7a10.57,10.57,0,0,1-.55-4.85,43.15,43.15,0,0,1,9.94-7.1,19,19,0,0,1-4.3,5.44,10.33,10.33,0,0,0-3.19,3.35A10.85,10.85,0,0,0,259.3,217.76Z" transform="translate(-57.89 -62.81)" style="fill:#003090"/><path d="M252.76,217.21s2.45-3.94,1.1-5.25-9.35-7.18-9.35-7.18,0,3.94,2.05,5.25,3.55,1.3,3.75,2.25v.95a2,2,0,0,0,.39,1.85Z" transform="translate(-57.89 -62.81)" style="fill:#003090"/><path d="M273.34,240.56a99,99,0,0,1,13-5.88c3.31-.75,0-1.54-.75-1.77a15.78,15.78,0,0,0-3.08-.24l-3.08,1.26-1.54.75-2.29,1.77-1.77.75-1,.51S271.81,241.35,273.34,240.56Z" transform="translate(-57.89 -62.81)" style="fill:#003090"/><path d="M224.6,233.69c-.28-1.26,1.26.51,2.29,1s5.88,2.05,5.88,2.05l1.54,1,2.56,2.05-.51,1.26a3.94,3.94,0,0,1-2.29-.75c-.75-.75-3.23-2.45-3.39-2s-1.7,0-3-.83A5.4,5.4,0,0,1,224.6,233.69Z" transform="translate(-57.89 -62.81)" style="fill:#003090"/><path d="M214.62,213.78a17.08,17.08,0,0,1-1-2.37l-.24-.75a23.39,23.39,0,0,1-.95-5.21,12.54,12.54,0,0,0-3.94-7.49l-.55-.59A2.56,2.56,0,0,0,206,196c-.47,0-1.46-.32-3.94-2.56a74.93,74.93,0,0,0-9.43-7.45l-4.34-2.84,1.66,5a47.33,47.33,0,0,1,1.5,5.17,19.23,19.23,0,0,0,.32,3.47,30.1,30.1,0,0,1,.39,4.46c0,1.54,1,8.36,1.26,9.7v.51a55.21,55.21,0,0,0,3.35,5.21v.24a4.89,4.89,0,0,1,1,1.89V219a10.14,10.14,0,0,0,.35,7c1,3.16,2.72,3.94,3.94,3.94a6.51,6.51,0,0,0,4.5-2.76c.35-.43,1.26-1.54,1.81-2.09l.59-.63a49.18,49.18,0,0,1,4.61-4.42,4.54,4.54,0,0,0,2.05-3.43A4.14,4.14,0,0,0,214.62,213.78Z" transform="translate(-57.89 -62.81)" style="fill:#fff"/><path d="M291.37,258.54s-1.06,0-1.06,1.66-6,6.51-7.89,7.41a14.67,14.67,0,0,1-6.39.59c-2.13,0-2.84,2.8-2.84,2.8h0a27.1,27.1,0,0,0-1.5,3.39A72.61,72.61,0,0,1,269.28,285a24.25,24.25,0,0,0,1.22,13.17,28.59,28.59,0,0,0,2.8,5.17,16.05,16.05,0,0,1,.83,5.17l1.34-4.93s-.24-1.77-.47-2.8-1.7-2.29-2.17-3.94a58.53,58.53,0,0,1-1.7-7.89c0-1.26,1.22-8.36,1.46-9.62a31,31,0,0,0,1.58-7.38,9.59,9.59,0,0,0,0-1,19.72,19.72,0,0,0,17.2-7.45,22.09,22.09,0,0,0,1.93-5Z" transform="translate(-57.89 -62.81)" style="fill:#003090"/><path d="M317.52,185.38a33,33,0,0,1-7.53,5.4c-5.25,3.08-11.16,6.59-11.83,14v.63l.35.51c1.18,1.74.55,3-.87,5.36a13.88,13.88,0,0,0-1.77,3.94l-.28,1.14.95.71a28.24,28.24,0,0,1,3.94,3.94,14.79,14.79,0,0,0,9.23,6.11h1.06l.63-.87a21.69,21.69,0,0,0,3.39-9.66,18.62,18.62,0,0,1,2.72-8.12l.47-.63v-.75a32.85,32.85,0,0,1,1.38-11.6,53,53,0,0,0,1.5-8.64l.28-5.09Z" transform="translate(-57.89 -62.81)" style="fill:#fff"/><path d="M238.17,273.65c.67,7.89,7.89,14.08,3.12,22,.59,4.5-3.71,6.74-4.89,10.45-1.93,0-1-3.08-.75-4.34a26,26,0,0,0,1-25c0-1.3,0-2.72,1.46-3" transform="translate(-57.89 -62.81)" style="fill:#003090"/><path d="M320.59,180.41c-6.82,5.88-15.38,7.89-21.73,15.18-6.31,5.56,1,14.87-7.89,19.25a97.3,97.3,0,0,0,19.33,16c5.28-3.27,5.48-9.31,5.8-14.83,5.48-9.62,2.72-21.06,7-31.35C322.13,183.21,323.35,179.78,320.59,180.41Zm-4.46,26.27c-3.94,5.4-2.25,12.9-6.15,18.3-5.48-.63-7.89-6.35-12.3-9.78.83-3.59,5.28-6.7,2.41-10.92.67-10.29,12.86-12.07,19-18.77-.35,6.51-3.94,14.83-2.92,21.18Z" transform="translate(-57.89 -62.81)" style="fill:#003090"/><path d="M215.65,212.36c-.51-1.26-1.77-.24-1.3-3.94,1.14-8.2.28-4.42-3.94-11.52a22.36,22.36,0,0,1-3-3.94c0-.91-.87-.39-2.13-1.14s-2.05-1-3.94-2.05a20,20,0,0,1-4.57-3.94,29.38,29.38,0,0,0-7.06-4.69,1.62,1.62,0,0,0-2.05,0c-1.26,0,.51,5.36.51,6.39a108.93,108.93,0,0,0,1.77,13,91.46,91.46,0,0,0,3.94,15.3,33.44,33.44,0,0,1,2.09,10,9.66,9.66,0,0,0,4.73,7.89,83.69,83.69,0,0,1,9.78-8.2,14.47,14.47,0,0,0,5.09-5.36,39.2,39.2,0,0,0,2.8-3.94C219.59,213.86,216.2,213.62,215.65,212.36ZM212.88,219a62.24,62.24,0,0,0-5.6,5.52c-.75.75-2.05,2.29-2.05,2.29s-3.94,5.09-5.6-.51.28-5.88-.24-7.41a7.3,7.3,0,0,0-1.54-2.8c-.75-1-2.8-5.09-2.8-5.09s-1.26-8.16-1.26-9.7-.75-7.14-.75-8.16a45.24,45.24,0,0,0-1.66-5.92,76.55,76.55,0,0,1,9.54,7.45c4.34,3.94,5.09,2.56,5.6,3.55a14,14,0,0,1,4.34,7.65,26.31,26.31,0,0,0,1.26,6.39,22.2,22.2,0,0,0,1.26,3.08S215.45,216.93,212.88,219Z" transform="translate(-57.89 -62.81)" style="fill:#003090"/><circle cx="174.28" cy="199.88" r="4.3" style="fill:#003090"/><circle cx="172.47" cy="198.3" r="0.91" style="fill:#fff"/><circle cx="221.92" cy="199.88" r="4.3" style="fill:#003090"/><path d="M222.71,255.27a94.65,94.65,0,0,1-12.82.39,35.06,35.06,0,0,0,12.66,2.21,21.06,21.06,0,0,1,7.89-.55c6.94.83,10.14,8.12,15.54,10.81l.83-2.72A19.72,19.72,0,0,0,222.71,255.27Z" transform="translate(-57.89 -62.81)" style="fill:#003090"/><path d="M323.71,245.29c-7.89-6-3.19-10.85-1.5-14.24a34.79,34.79,0,0,0,2.45-11.44c0-1.7.35-8.24,2.45-10.1s2.45-11.83,3.35-14.43a27.29,27.29,0,0,0,1.3-7.3,20.45,20.45,0,0,1,.39-4.5,89.41,89.41,0,0,0-6.07-14c-9,.95-31.83,20.59-34.08,23a25,25,0,0,1-4.69,3.94c-12.74-3.75-19.72-2.8-32.22-3.55a114.37,114.37,0,0,0-30.45,4.5C212.1,181,186.18,171,186.18,171c-9.54,9.54-2.8,32.38-1.85,34.47a21.49,21.49,0,0,1,3,9.94,122.26,122.26,0,0,0,3.35,17.23,32.42,32.42,0,0,0,3.94,8.79s-2.05,2.25-5.64,5.8-2.25,1.85-4.3,2.8a5,5,0,0,0-2.45,3.55,49.85,49.85,0,0,0,5.25,7.69c2.45,2.6-.75,4.85-.75,4.85s4.3,3.55,6.94,5.6,1.1,1.85,3,3.55.55,3,.55,3l1.5,1.3c1.14,13.29,12.74,18.14,17,20.59a27.21,27.21,0,0,1,7.3,6.35l3.55,2.8c8.76,6.55,8.76,12.34,8.76,12.34-1.7,10.1,5.44,11.83,5.44,11.83,9.54,3.19,9,3.94,9,3.94,7.3,5.8,9.35,2.8,11.83,2.05a24.18,24.18,0,0,0,5.8-3c13.65-5.6,11.44-17.23,11.44-17.23a47.32,47.32,0,0,1,3.94-4.85,20.74,20.74,0,0,0,3.19-5,115.67,115.67,0,0,1,15.34-11.83A24.85,24.85,0,0,0,314.83,279a17.39,17.39,0,0,1,11.24-13.29,6.86,6.86,0,0,1,.35-7.3c2.05-3,5.4-7.65,5.44-7.69S331.44,251,323.71,245.29Zm-64,92.48-2.45.55h-1.7l-3.75-2.25a15.78,15.78,0,0,1,3.94-.39H261Zm61.8-81a9.47,9.47,0,0,0-2.6,9.54,51,51,0,0,1-17.59,11.83c-.75,0-2.05,1.7-2.8,2.45s-4.69,5.25-4.69,5.25h1.85l-.67,2.37s2.76-3.12,3.67-4.46,3.35-.55,3.35-.55l2.6-1.3,1.7-1.1c.55-.39,1.5,0,1.5,0a10.65,10.65,0,0,1-5.8,10.85,52.49,52.49,0,0,0-11.83,8.79,20.51,20.51,0,0,1-3.51,6c-1.85,1.7-4.85,4.69-4.85,4.69l-5.09,6.15a12.07,12.07,0,0,0-1.5-2.8c-1.3-2.05-.55-1.85-.75-3a11,11,0,0,0-1.5-3.75c-.95-1.7-2.05-.75-2.8-1.3a5.64,5.64,0,0,1-1.3-3.94c0-1.85-4.5-23.23-4.85-25.08l-.35-1.85a51.51,51.51,0,0,1,7.89-11.83,17.83,17.83,0,0,1,3.94-3.35h0a11.44,11.44,0,0,1,9.86-1.66h0a26.78,26.78,0,0,0,6.27,1,13.8,13.8,0,0,0,10.81-4.85c-2.88.63-8.52,1.26-8.52,1.26-27.33-2.45-20.59,1.22-20.59,1.22a17.83,17.83,0,0,0-8.79,10.1s-1.85,2.45-2.6,3.55a16.52,16.52,0,0,0-.55,6.74,33.09,33.09,0,0,0,.55,3.94c-2.05,9.19,3.75,23.39,3.94,24s2,8.79,2,8.79l1,.24,1.5-1.54h.47l.39.95,2.05,5.6s.55,3.94.55,4.5a18.22,18.22,0,0,1-3.55,6.74,11.83,11.83,0,0,1-9.54,2.6h-.43l-2.05-.43-1-.24-.75-.75-.28-1.06v-1.85a9,9,0,0,0,3.23-1.22,9.66,9.66,0,0,0,5.64-9.43c0-1.42-2.25-2.56-2.25-2.56a28.08,28.08,0,0,0-14.79,0c-3.19.75-2.05,5.25-2.05,5.25,0,2.68,5.25,6.94,5.25,6.94a6,6,0,0,0,3.71,1.34v1a11.28,11.28,0,0,1-.75,2.05c-.35.67-1.85,1-2.84,1.14h-.87c-9.54-.95-11.44-5.8-11.44-9.19a38.53,38.53,0,0,1,3.75-10.85l1.14.95a7.89,7.89,0,0,0,2.6-.35c.55-.39.39-1.3,0-1.85a15.59,15.59,0,0,1-.95-1.7c4.3-4.5,6.94-34.27,7.1-35a5.28,5.28,0,0,0,0-2.05l-.55-1.3-1.1-1.14s-2.45-1.85-3.55-1.3,1.1,3.55,1.1,3.55l1.3,1.7a55.21,55.21,0,0,0-2.72,12L245.15,300a41.88,41.88,0,0,0-2.33,7.34c-.75,3.55-3.94.95-3.94.95a10.29,10.29,0,0,1-1.85,8.44,21.57,21.57,0,0,0-6.94-8.24,29.89,29.89,0,0,1-8.79-9c-1.7-3-1.85-2.25-9.35-5.8a10.61,10.61,0,0,1-6.35-10.85s5.25,2.05,6,2.25a58.83,58.83,0,0,1,5.6,1.89c1.3.59,6.94,3.94,1.3-2.05s-8.44-3.94-11.83-5.44-3.35-2.8-5-5-3.94-3-6.19-5-1.5-1.3-1.1-2.45-1.7-4.85-1.7-4.85c-7.89-8.44.39-12.94,3-14.59a6.47,6.47,0,0,0,2.45-8.6c-1.7-3.94-5.44-19.48-5.44-19.48a49.26,49.26,0,0,1-3.55-11.83,55.21,55.21,0,0,0-3.94-16.49c-3.35-9.54,0-8.44.55-10.69a11.12,11.12,0,0,1,1.5-3.19c6.94-.35,43.38,31.83,43.38,31.83a28.48,28.48,0,0,0-2.72-6.82c22.09-9.9,47.13-3.43,52.18-1.42s.55,7.69.55,7.69c.75,0,9.54-7.1,9.54-7.1C301.54,184.51,324.73,177,324.73,177a20.86,20.86,0,0,1,1.58,4.1,13.57,13.57,0,0,1,0,11.83,39.12,39.12,0,0,0-3.35,15,108.14,108.14,0,0,0-4.3,15,13.88,13.88,0,0,1-2.05,7.89,15.78,15.78,0,0,0-.95,12.19c.55,3,8.6,8.6,8.6,8.6S326.07,251.28,321.46,256.73Z" transform="translate(-57.89 -62.81)" style="fill:#003090"/><circle cx="220.07" cy="198.3" r="0.91" style="fill:#fff"/></svg>