<svg xmlns="http://www.w3.org/2000/svg" viewBox="0 0 137.15 290.4"><title>Nottingham Forest logo</title><path d="M489.69,366.8,485,380.24H471l11.33,8.22-4.45,14.14,11.79-8.22,11.79,8.22L497,388.45l11.33-8.22h-14Zm43.95,0-4.69,13.44H515l11.32,8.22-4.45,14.14,11.79-8.22,11.79,8.22L541,388.45l11.33-8.22h-14Zm3.93,197.82c-22.78,14.5-40.49,5.77-49.62,0-17.1-10.8-30.65-4.66-35.23-.16v12.38a22.55,22.55,0,0,1,16.59-6.58s6.62-.66,17.8,5c7.52,3.78,24.51,15.89,51.3,0a34.16,34.16,0,0,1,17.81-5c6.85,0,12.7,2.41,16.89,6.89V564.76c-4.29-4.52-18.11-11.22-35.51-.13" transform="translate(-443.42 -366.8)" style="fill:#c8102e"/><path d="M537.57,580.49c-22.78,14.51-40.49,5.77-49.62,0-17.1-10.8-30.65-3.39-35.23,1.18v13.61c4.17-4.41,9.87-9.14,16.59-9.14,0,0,6.58-.66,17.8,5,7.52,3.78,24.51,15.9,51.3,0a34.14,34.14,0,0,1,17.81-5c6.85,0,12.69,4.79,16.89,9.28V581.8c-4.29-4.54-18.11-12.41-35.51-1.32m34.57-95.07c2.16-10.63-2.55-15.24-7.23-17.22,1.11-3.78-.62-9-4.69-13.15a17.54,17.54,0,0,0-7.49-4.6c2.68-10.13-.78-19.95-12.12-23a17.25,17.25,0,0,0-8.55,0,24.21,24.21,0,0,0-41.49-.29,17.36,17.36,0,0,0-14,3.49A18,18,0,0,0,471,451.11a12.42,12.42,0,0,0-10.91,17.74c-4.89,2.37-8.19,6.94-8.19,12.19a12.26,12.26,0,0,0,.52,3.55,19.47,19.47,0,0,0-9,16.38A19.78,19.78,0,0,0,470.72,519a19.37,19.37,0,0,0,28.46,7v26.39C480.11,541.66,471.3,542,468.3,542c-4.45-.21-12.17,1.84-15.59,5.42V559.8c3.48-3.62,12-6.16,18.54-5.87,3.45.15,10.79,1.69,18.48,6.1,11.23,6.43,19.88,7.66,19.89,7.66V509c-3.21,4.11-9.33,6.89-16.34,6.89-9,0-16.56-4.6-18.32-10.74a10.63,10.63,0,0,1-4.36,3c-5,1.86-10.46-.35-12.1-4.95s1.1-9.81,6.14-11.67a11,11,0,0,1,1.82-.5c-3.29-3.06-4.73-7.12-3.25-10.36s5.69-4.81,10.27-4.08a9.67,9.67,0,0,1-2.43-6.47c0-6,5.58-10.88,12.49-10.88a14.43,14.43,0,0,1,1.51.08,12.72,12.72,0,0,1-3.39-8.72,12.58,12.58,0,0,1,12.41-12.69,12.16,12.16,0,0,1,5.26,1.21,12.43,12.43,0,0,1,12.5-10.23c6.35,0,11.79,4.6,12.55,10.48a11.74,11.74,0,0,1,6.18-1.51c6.86,0,12.42,5.87,12.42,13.1a13.16,13.16,0,0,1-3,8.5c.43,0,.85-.06,1.32-.06,6.79,0,12.3,4.77,12.3,10.67a9.53,9.53,0,0,1-1.66,5.35,8.79,8.79,0,0,1,7.3,14.34l.39.06a9.32,9.32,0,0,1,7.58,10.75,9.2,9.2,0,0,1-10.75,7.46,9.48,9.48,0,0,1-6.28-4.18c-1.12,6.52-8.71,11.56-17.9,11.56-6.48,0-12.91-2.52-16.09-6.29v58.53s8.66-1.24,19.88-7.66c7.68-4.41,15-5.92,18.47-6.1,6.73-.3,15.32,2.08,18.53,5.92V547.48c-3.21-3.82-11-5.66-15.58-5.45-3,0-11.89-.35-31,10.41V526a21,21,0,0,0,7.46,2.59c8.2.74,16.89-3.18,21-9.81,13.22,3.48,23.21-5.14,25.16-14.55a21.07,21.07,0,0,0,.45-4.05c0-6.21-3.08-11.1-8.42-14.73m-68.89,129.7v2.31c0,2.22-.53,3-2.22,3h-1.29v-8.27H501c1.69,0,2.22.76,2.22,3h0ZM522.14,649c-11.54-.18-11.25-9.31-11.25-9.31v-8.44c0-4.77-1.53-6.68-6.29-7v-.23c4.2-.23,6.29-2.58,6.29-6.9v-4.39c0-5.26-2.83-7.48-9.47-7.48h-9.55v40h7.89V627.14h.11c1.75,0,2.89,1.21,2.89,3.51v9a19.61,19.61,0,0,0,.92,6.93c2.47,6.58,10,10.58,17.36,10.58a24.94,24.94,0,0,0,3.39-.24v-8c-.57,0-1.67.1-2.3.1m-69.42-3.8h7.87V627.14H467V620.4h-6.4v-8.17h7.08V605.5H452.72Zm28.46-10c0,1.57,0,2.06-.39,2.63a1.81,1.81,0,0,1-2.85,0c-.35-.54-.39-1-.39-2.63V615.3c0-1.57,0-2.06.39-2.63a1.81,1.81,0,0,1,2.85,0c.35.54.39,1,.39,2.63Zm-1.82-30.32c-3.54,0-6.1,1.08-7.67,3.05s-2.06,4.77-2.06,9v16.5c0,4.28.49,7.08,2.06,9s4.13,3.08,7.68,3.08,6.1-1.08,7.67-3.05,2.07-4.77,2.07-9V617c0-4.28-.49-7.08-2.06-9s-4.13-3.05-7.67-3.05m76,.57v6.74h4.94v33h7.87v-33h4.94V605.5Z" transform="translate(-443.42 -366.8)" style="fill:#c8102e"/><path d="M524.8,620.4h-3.25v-5.46a3.67,3.67,0,0,1,.35-2.16,1.67,1.67,0,0,1,2.55,0,3.68,3.68,0,0,1,.35,2.16v5.46ZM523.13,605c-3.2,0-5.51.74-7.14,2.31-1.77,1.72-2.26,4.13-2.26,7.58v20.8c0,3.45.49,5.85,2.26,7.58,1.62,1.57,3.84,2.31,7.14,2.31s5.56-.74,7.17-2.31,2.16-3.54,2.26-6.39v-5.69H524.8v4.6c0,1.23-.05,1.68-.35,2.12a1.67,1.67,0,0,1-2.55,0c-.3-.44-.35-.89-.35-2.12v-8.66h11V614.89c0-3.45-.49-5.85-2.26-7.58-1.62-1.57-4-2.31-7.18-2.31m24.68,17.15-1-.66c-3.1-1.92-3.58-2.63-3.58-4.37v-3c0-1.32.54-2,1.57-2a1.36,1.36,0,0,1,1.28.66c.25.49.3.84.3,4.28v1.45h7.89v-2c0-4.87-.25-6.83-2.32-9-1.62-1.67-4-2.56-7.13-2.56-6.05,0-9.44,3.44-9.44,9v3.67c0,5.31,2,6.89,6.79,9.87l1,.66c3.1,1.92,3.54,2.63,3.54,4.38v3.86c0,1.37-.66,2-1.57,2a1.36,1.36,0,0,1-1.28-.69c-.25-.54-.25-.34-.25-3.79v-2.78H535.7V634c0,4.87.24,6.84,2.31,9,1.63,1.67,4,2.56,7.14,2.56,6,0,9.44-3.45,9.44-9V632c0-5.31-2-6.88-6.79-9.87" transform="translate(-443.42 -366.8)" style="fill:#c8102e"/></svg>