<svg xmlns="http://www.w3.org/2000/svg" viewBox="0 0 281.5 319.5"><title>Southampton FC logo</title><path d="M473.18,421.8a33.93,33.93,0,0,1,0-18.5l6.28-1.65L478,421.8Z" transform="translate(-371.25 -352.25)" style="fill:#fff"/><path d="M551.15,403.13a33.93,33.93,0,0,1,0,18.5l-6.28,1.65,1.49-20.15Z" transform="translate(-371.25 -352.25)" style="fill:#fff"/><path d="M399.5,488h-1.82l-24.45-48.9,1.65.17c17.18,1.49,22.3-5,28.08-12.22,1.16-1.49,2.48-3,3.8-4.46,6.28-7.1,13.55-11.07,19-10.9a7,7,0,0,1,5.12,2.48,9.65,9.65,0,0,1,2.15,7.27c-.83,5.62-6.94,9.91-12.39,13.71-3.3,2.48-6.94,5-7.1,6.61a1.21,1.21,0,0,0,.33,1l.17.17,14.87,31.72-.33.5C425.1,480.45,411.06,488,399.5,488Zm-.66-1.82h.66c11.07,0,23.79-7.27,27.09-11.73l-14.37-30.73a3.79,3.79,0,0,1-.66-2.31c.33-2.48,3.63-5,7.93-7.93,5.12-3.63,10.9-7.76,11.56-12.56a7.72,7.72,0,0,0-1.82-5.95,4.26,4.26,0,0,0-3.63-1.65c-4-.17-10.57,2.48-17.51,10.24-1.32,1.49-2.48,3-3.63,4.46-5.78,7.27-11.07,14-28.08,13.05Z" transform="translate(-371.25 -352.25)" style="fill:#fff"/><path d="M399.5,489.2H397l-25.77-51.38,3.63.33c16.69,1.49,21.48-4.79,27.09-11.73,1.16-1.49,2.48-3,3.8-4.63,6.61-7.27,14-11.56,20-11.23a7.88,7.88,0,0,1,5.95,2.81,10.53,10.53,0,0,1,2.31,8.26c-1,5.95-7.27,10.57-12.72,14.54-2.64,1.82-6.44,4.63-6.61,5.95l.33.5L430.23,475l-.66,1C425.6,481.77,411.06,489.2,399.5,489.2Zm0-4.13h0c10.57,0,22.3-6.61,25.77-10.74l-14.21-30.07a3.68,3.68,0,0,1-.66-3c.5-3,4-5.45,8.26-8.59,5-3.47,10.41-7.43,11.07-11.73a6.4,6.4,0,0,0-1.49-5.12,3.87,3.87,0,0,0-2.81-1.16c-3.63-.17-9.91,2.31-16.69,9.91-1.32,1.49-2.48,3-3.63,4.3-5.45,6.94-11.07,13.88-27.09,13.55Z" transform="translate(-371.25 -352.25)" style="fill:#fff"/><path d="M417.84,446.41a7.13,7.13,0,0,1-4.3-1.49,2.6,2.6,0,0,1-1.16-1.16,3,3,0,0,1-.66-2.31c.33-2.48,3.63-5,7.93-7.93,6.77-4.79,14.21-10.24,10.74-17l1.65-.83,8.43,15.2-.66.5c-1.82,1.49-3.47,3-5.12,4.46C428.41,441.46,422.79,446.41,417.84,446.41Zm15-25.11c-.83,5.45-7.1,9.91-12.39,13.71-3.3,2.48-6.94,5-7.1,6.61a1.21,1.21,0,0,0,.33,1,1.16,1.16,0,0,0,.83.66c5,3.47,11.4-2.31,18.83-8.92,1.49-1.32,3-2.64,4.63-4.13Z" transform="translate(-371.25 -352.25)" style="fill:#fff"/><path d="M417.84,447.57a7.8,7.8,0,0,1-5-1.65,4.26,4.26,0,0,1-1.49-1.49,4.14,4.14,0,0,1-.83-3.14c.5-3,4-5.45,8.26-8.59,7.93-5.62,13.22-10.08,10.41-15.53l-.5-1,3.63-2,9.58,17-1.32,1.16c-1.82,1.49-3.47,3-5.12,4.46C428.9,442.62,423.29,447.57,417.84,447.57Zm15.36-23.29c-2.15,4.79-7.6,8.59-12.06,11.73-2.64,1.82-6.44,4.63-6.61,5.95.17.33.33.33.5.66,4.3,3,10.41-2.48,17.51-8.76l4-3.47Zm-1-5.78Z" transform="translate(-371.25 -352.25)" style="fill:#fff"/><path d="M624.5,488c-11.56,0-25.61-7.6-29.08-12.89l-.33-.5.17-.5,14.87-31.39a1.21,1.21,0,0,0,.33-1c-.33-1.82-3.8-4.3-7.1-6.61-5.45-3.8-11.4-8.26-12.39-13.71a9.47,9.47,0,0,1,2.15-7.27c1-1.49,2.81-2.31,5.12-2.48,5.45-.33,12.72,3.8,19,10.9,1.32,1.49,2.64,3,3.8,4.46,5.78,7.43,10.9,13.71,28.08,12.22l1.65-.17L626.32,488H624.5ZM597.41,474.5c3.3,4.46,16.52,12.06,27.92,11.73L648,441.29c-17,1-22.3-5.78-28.08-13.05-1.16-1.49-2.31-3-3.63-4.46-5.78-6.44-12.22-10.24-17.18-10.24h-.5a5.44,5.44,0,0,0-3.8,1.65,8.43,8.43,0,0,0-1.82,5.95c.83,4.79,6.44,8.92,11.56,12.56,4.13,3,7.43,5.45,7.93,7.93a3,3,0,0,1-.66,2.31Z" transform="translate(-371.25 -352.25)" style="fill:#fff"/><path d="M624.5,489.2c-11.56,0-26.1-7.43-29.9-13.38l-.66-1L609.47,442c-.17-1.32-4.13-4.13-6.61-5.95-5.62-4-11.89-8.43-12.89-14.54-.5-2.81.33-5.45,2.31-8.26a7.62,7.62,0,0,1,5.95-2.81c5.78-.33,13.38,3.8,20,11.23,1.32,1.49,2.64,3.14,3.8,4.63,5.95,7.43,10.41,13.22,27.09,11.89l3.63-.33L627,489h-1.16A3.22,3.22,0,0,1,624.5,489.2Zm-25.77-14.87c3.63,4,15.36,10.74,25.77,10.74h0l21.31-42.62c-16,.5-21.64-6.77-27.09-13.55a45.37,45.37,0,0,0-3.63-4.3c-5.62-6.11-11.73-9.91-16.35-9.91h-.33a3.62,3.62,0,0,0-2.81,1.16,6.4,6.4,0,0,0-1.49,5.12c.66,4.3,6.28,8.26,11.07,11.73,4.46,3.14,7.93,5.62,8.43,8.59a4.33,4.33,0,0,1-.83,3.14Z" transform="translate(-371.25 -352.25)" style="fill:#fff"/><path d="M606.16,446.41c-5.12,0-10.57-5-16.85-10.57-1.65-1.49-3.3-3-5.12-4.46l-.66-.5,8.43-15.2,1.65.83c-3.47,6.77,4.13,12.22,10.74,17,4.13,3,7.43,5.45,7.93,7.93a3.55,3.55,0,0,1-.66,2.48,7.63,7.63,0,0,1-1.16,1.16A8.19,8.19,0,0,1,606.16,446.41Zm-20.15-16c1.65,1.32,3.14,2.64,4.63,4,7.43,6.61,13.88,12.39,18.83,8.92.33-.33.66-.5.83-.66a1.21,1.21,0,0,0,.33-1c-.33-1.82-3.8-4.3-7.1-6.61-5.29-3.8-11.56-8.26-12.39-13.71Z" transform="translate(-371.25 -352.25)" style="fill:#fff"/><path d="M606.16,447.57c-5.45,0-11.07-5-17.68-10.74-1.82-1.49-3.47-3-5.12-4.46L582,431.22l9.42-17,3.63,2-.5,1c-2.81,5.45,2.48,9.91,10.41,15.53,4.46,3.14,7.93,5.62,8.43,8.76a4.75,4.75,0,0,1-.83,3.3,10,10,0,0,1-1.32,1.32A11.45,11.45,0,0,1,606.16,447.57ZM587.5,430.23l4,3.47c7.1,6.28,13.22,11.89,17.51,8.92q.5-.25.5-.5c0-1.49-4-4.3-6.44-6.11-4.46-3.14-9.91-7.1-12.06-11.73Zm4.3-11.56Z" transform="translate(-371.25 -352.25)" style="fill:#fff"/><path d="M512,477.64c-6.11,0-14.37-5.12-23.29-10.57-8.43-5.29-17.35-10.74-23.29-10.74-8.09,0-15,5.95-21.31,11.4-6.11,5.29-11.4,9.91-16.85,7.76l-.33-.17-14.87-31.55,1.65-.83c.17.17.33.5.66.66,5,3.47,11.4-2.31,18.83-8.92,7.93-7.1,17-15.2,27.42-15.2,9.42,0,18.17,5.62,22.47,9.09,5.45,4.46,22.63,14.87,28.75,14.87,6.28,0,23.13-10.24,28.75-14.87,4.3-3.3,13.05-9.09,22.47-9.09,10.41,0,19.49,8.09,27.42,15.2,7.43,6.61,13.88,12.39,18.83,8.92.33-.33.66-.5.83-.66l1.65,1-14.87,31.55-.33.17c-5.29,2-10.57-2.48-16.69-7.76s-13.05-11.4-21.31-11.4c-5.95,0-14.87,5.45-23.29,10.74C526.37,472.52,518.11,477.64,512,477.64Zm-46.59-23.13c6.44,0,15.53,5.62,24.28,11.07,8.26,5.12,16.69,10.24,22.3,10.24s14-5.29,22.3-10.24c8.76-5.45,17.84-11.07,24.28-11.07,8.76,0,16,6.28,22.47,11.73,5.45,4.79,10.24,8.92,14.54,7.6l13.22-27.92c-5.62,2.15-12.06-3.63-19.33-10.08-7.76-6.94-16.52-14.7-26.27-14.7-8.92,0-17.18,5.45-21.31,8.59-5.62,4.46-23,15.2-29.9,15.2-7.1,0-24.45-10.9-29.9-15.2-3.3-2.64-12.06-8.59-21.31-8.59-9.58,0-18.5,7.76-26.1,14.7-7.27,6.44-13.71,12.22-19.33,10.08l13.05,27.92c4.3,1.32,9.09-2.81,14.54-7.6C449.39,460.62,456.66,454.51,465.41,454.51Z" transform="translate(-371.25 -352.25)" style="fill:#fff"/><path d="M512,478.79c-6.44,0-14.87-5.29-23.79-10.74-8.43-5.12-17.18-10.57-22.8-10.57-7.76,0-14.54,5.95-20.49,11.07-6.44,5.62-11.89,10.41-18,8.09l-.66-.5-15.53-33,3.47-2,.66.83a2,2,0,0,0,.5.33c4.13,3,10.41-2.48,17.51-8.76C441,426.26,450.21,418,461,418c9.75,0,18.67,5.78,23.13,9.25,6.11,5,22.47,14.54,28.08,14.54s21.81-9.58,28.08-14.54c4.46-3.47,13.38-9.25,23.13-9.25,10.74,0,20,8.26,28.25,15.53,7.1,6.28,13.22,11.73,17.35,8.92q.5-.25.5-.5l.66-.83,3.3,2-15.53,33-.83.33c-5.95,2.31-11.56-2.48-17.84-8.09-5.95-5.12-12.72-11.07-20.49-11.07-5.62,0-14.37,5.29-22.8,10.57C526.87,473.51,518.44,478.79,512,478.79Zm-46.59-25.44c6.77,0,16,5.62,24.95,11.07,8.09,5,16.52,10.24,21.64,10.24,5.29,0,13.55-5.12,21.64-10.08,8.92-5.45,18.17-11.23,24.95-11.23,9.25,0,16.69,6.44,23.13,12.06,5.12,4.46,9.42,8.09,13.05,7.43l11.89-25.28c-5.62.33-11.4-4.79-18-10.74-7.6-6.77-16.19-14.37-25.44-14.37-8.59,0-16.52,5.29-20.65,8.43-4.63,3.8-22.8,15.53-30.56,15.53-7.43,0-24.78-10.9-30.73-15.53-3.3-2.48-11.73-8.43-20.65-8.43-9.25,0-17.84,7.6-25.44,14.37-6.61,5.95-12.56,11.07-18,10.74l12.06,25.28c3.63.66,8.09-3.3,13.05-7.6C448.73,459.63,456.16,453.35,465.41,453.35Z" transform="translate(-371.25 -352.25)" style="fill:#fff"/><rect x="65.42" y="247.31" width="152.98" height="40.31"/><path d="M590.47,600.71V450.38H436.67v152A135.46,135.46,0,0,1,414,581.55l-28.25,34.2a174.13,174.13,0,0,0,255.57-.66l-28.41-34.36a134.37,134.37,0,0,1-22.47,20.82Z" transform="translate(-371.25 -352.25)"/><path d="M513.32,671.75a175.69,175.69,0,0,1-127.87-55.67l-.33-.33.33-.33L414,580.89l.33.5a126.34,126.34,0,0,0,21.81,20.15V449.88H591V600.71a126.16,126.16,0,0,0,21.64-20.15l.33-.5.33.5L642,615.25l-.33.33A175.45,175.45,0,0,1,513.32,671.75Zm-126.87-56a173.67,173.67,0,0,0,254.25-.66l-27.92-33.54A125.27,125.27,0,0,1,590.64,602l-.66.5V450.88H437.16V603.36l-.83-.5A131.39,131.39,0,0,1,414,582.38Z" transform="translate(-371.25 -352.25)" style="fill:#fff"/><polygon points="69.05 214.93 69.05 121.75 215.42 121.75 215.59 214.93 69.05 214.93" style="fill:#fff"/><path d="M586.84,558.42c-1.32,2-4.46,3.47-8.09,3.47s-6.94-1.49-8.09-3.47h0c-1.32,2.15-4.46,3.47-8.09,3.47s-6.77-1.49-8.09-3.47h0c-1.32,2-4.46,3.47-8.09,3.47s-6.77-1.49-8.09-3.47h0c-1.32,2.15-4.46,3.47-8.09,3.47s-6.77-1.49-8.09-3.47h0c-1.32,2-4.46,3.47-8.09,3.47s-6.77-1.49-8.09-3.47h0c-1.32,2.15-4.46,3.47-8.09,3.47s-6.94-1.49-8.09-3.47h0c-1.32,2-4.46,3.47-8.09,3.47s-6.77-1.49-8.09-3.47h0c-1.32,2.15-4.46,3.47-8.09,3.47-3.8,0-6.94-1.49-8.09-3.47h0c-1.32,2.15-4.46,3.47-8.09,3.47-3.8,0-6.94-1.49-8.09-3.47v41a9.72,9.72,0,0,0,6.28,9.09l66.91,25.94,66.91-25.94a9.72,9.72,0,0,0,6.28-9.09V558.26h0" transform="translate(-371.25 -352.25)" style="fill:#d10a11"/><path d="M586.84,554.13c-1.32,2-4.46,3.47-8.09,3.47s-6.94-1.49-8.09-3.47h0c-1.32,2-4.46,3.47-8.09,3.47s-6.77-1.49-8.09-3.47h0c-1.32,2-4.46,3.47-8.09,3.47s-6.77-1.49-8.09-3.47h0c-1.32,2-4.46,3.47-8.09,3.47s-6.77-1.49-8.09-3.47h0c-1.32,2-4.46,3.47-8.09,3.47s-6.77-1.49-8.09-3.47h0c-1.32,2-4.46,3.47-8.09,3.47s-6.94-1.49-8.09-3.47h0c-1.32,2-4.46,3.47-8.09,3.47s-6.77-1.49-8.09-3.47h0c-1.32,2-4.46,3.47-8.09,3.47-3.8,0-6.94-1.49-8.09-3.47h0c-1.32,2-4.46,3.47-8.09,3.47-3.8,0-6.94-1.49-8.09-3.47V549c1.32,2,4.46,3.47,8.09,3.47S456,551,457.32,549h0c1.32,2.15,4.46,3.47,8.09,3.47s6.77-1.49,8.09-3.47h0c1.32,2,4.46,3.47,8.09,3.47s6.94-1.49,8.09-3.47h0c1.32,2.15,4.46,3.47,8.09,3.47s6.77-1.49,8.09-3.47h0c1.32,2,4.46,3.47,8.09,3.47s6.77-1.49,8.09-3.47h0c1.32,2.15,4.46,3.47,8.09,3.47s6.77-1.49,8.09-3.47h0c1.32,2,4.46,3.47,8.09,3.47s6.77-1.49,8.09-3.47h0c1.32,2.15,4.46,3.47,8.09,3.47s6.77-1.49,8.09-3.47h0c1.32,2,4.46,3.47,8.09,3.47s6.77-1.49,8.09-3.47Z" transform="translate(-371.25 -352.25)" style="fill:#009ee2"/><path d="M586.84,544.88c-1.32,2-4.46,3.47-8.09,3.47s-6.94-1.49-8.09-3.47h0c-1.32,2-4.46,3.47-8.09,3.47s-6.77-1.49-8.09-3.47h0c-1.32,2-4.46,3.47-8.09,3.47s-6.77-1.49-8.09-3.47h0c-1.32,2-4.46,3.47-8.09,3.47s-6.77-1.49-8.09-3.47h0c-1.32,2-4.46,3.47-8.09,3.47s-6.77-1.49-8.09-3.47h0c-1.32,2-4.46,3.47-8.09,3.47s-6.94-1.49-8.09-3.47h0c-1.32,2-4.46,3.47-8.09,3.47s-6.77-1.49-8.09-3.47h0c-1.32,2-4.46,3.47-8.09,3.47-3.8,0-6.94-1.49-8.09-3.47h0c-1.32,2.15-4.46,3.47-8.09,3.47-3.8,0-6.94-1.49-8.09-3.47v-5.12c1.32,2,4.46,3.47,8.09,3.47s6.77-1.49,8.09-3.47h0c1.32,2.15,4.46,3.47,8.09,3.47s6.77-1.49,8.09-3.47h0c1.32,2,4.46,3.47,8.09,3.47s6.94-1.49,8.09-3.47h0c1.32,2.15,4.46,3.47,8.09,3.47s6.77-1.49,8.09-3.47h0c1.32,2,4.46,3.47,8.09,3.47s6.77-1.49,8.09-3.47h0c1.32,2.15,4.46,3.47,8.09,3.47s6.77-1.49,8.09-3.47h0c1.32,2,4.46,3.47,8.09,3.47s6.77-1.49,8.09-3.47h0c1.32,2.15,4.46,3.47,8.09,3.47s6.77-1.49,8.09-3.47h0c1.32,2,4.46,3.47,8.09,3.47s6.77-1.49,8.09-3.47Z" transform="translate(-371.25 -352.25)" style="fill:#009ee2"/><path d="M498.95,472.52" transform="translate(-371.25 -352.25)" style="fill:none;stroke:#000;stroke-width:0.7057999968528748px"/><path d="M524.22,605.34s7.1,11.23,3.47,8.09c-2.81-2.31-6.61-7.76-9.25-12.39l-14.7,5.78s-8.43,10.24-6.61,5.78c1.32-3.3,5.45-8.59,8.92-12.72L496,587.66s-12.39-4.79-7.43-4.46c3.14.33,9.91,2.64,14.7,4.63l8.43-13.38s.83-13.38,2-8.59c.83,3.3.5,10.41.17,15.69l15.36,3.8s12.89-3.3,8.76-.83c-3,1.82-9.42,3.8-14.54,5Z" transform="translate(-371.25 -352.25)"/><path d="M528.69,614.26c-.33,0-.66-.33-1.16-.66-3.3-2.81-7.76-9.75-9.25-12.22L503.91,607c-4.13,5-6.44,7.27-7.1,6.94-.33-.17-.17-.83,0-1.49,1.49-3.63,6.11-9.25,8.92-12.56L495.81,588c-5.95-2.31-8.92-3.8-8.76-4.63.17-.33.66-.5,1.49-.33,3.8.33,11.89,3.47,14.7,4.63l8.26-13.05c.33-6.44,1-9.75,1.65-9.75.33,0,.66.5.83,1.32,1,3.8.5,11.89.17,15.53l15,3.63c6.28-1.65,9.42-2.15,9.75-1.49.17.33-.33.66-1,1.16-3.63,2.31-11.56,4.3-14.37,5l.83,15.53c3.47,5.45,5,8.43,4.3,8.92C528.85,614.26,528.69,614.26,528.69,614.26Zm-10.08-13.55.17.17c1.32,2.15,5.78,9.42,9.25,12.22.33.33.5.33.66.5-.17-1-2.31-4.79-4.46-8.09h0l-1-16h.17c5.12-1.16,11.56-3.14,14.37-5a2.28,2.28,0,0,0,.66-.5c-.83-.17-5.29.66-9.09,1.82h0L513.65,582v-.17c.33-3.47.83-11.89-.17-15.53a1.65,1.65,0,0,1-.17-.66c-.5.83-1,5.12-1.16,9.25h0l-8.59,13.55-.17-.17c-2.48-1-10.9-4.3-14.7-4.63h-.83c.66.66,4.63,2.48,8.43,4h.17l10.24,12.39-.17.17c-2.64,3.14-7.43,9.09-8.92,12.56a1.65,1.65,0,0,0-.17.66,45.71,45.71,0,0,0,6.28-6.77l.17-.17Z" transform="translate(-371.25 -352.25)"/><path d="M512.5,602.37c.17.17.33.33.5.33s.33-.17.5-.33h0a9.2,9.2,0,0,0,.33-3.14s.17-6.28,4.79.5c13.22,19-5.62,19-5.62,19h.17s-18.67-.17-5.62-19c4.63-6.77,4.79-.5,4.79-.5a7.18,7.18,0,0,0,.17,3.14Z" transform="translate(-371.25 -352.25)" style="fill:#fff"/><path d="M513,619.05h-.17c-1.16,0-7.43-.5-9.58-4.79q-2.73-5.2,4-14.87c1.65-2.48,3-3.47,4-3.14,1.16.33,1.32,2.64,1.32,3,0,1.65,0,2.64.33,3h0a.16.16,0,0,0,.17.17l.17-.17c.17-.17.33-1,.17-3,0-.33,0-2.48,1.32-3,1-.33,2.31.66,4,3.14q6.69,9.66,4,14.87c-2.15,4.3-8.43,4.79-9.58,4.79Zm-2.15-22.14c-.5,0-1.49.5-3.14,3-4.3,6.11-5.62,10.9-4,14.21,2.15,4.13,8.43,4.46,9.25,4.46s7.1-.33,9.25-4.46c1.65-3.3.33-8.09-4-14.21-2-2.81-3-3.14-3.3-3-.66.17-.83,1.82-.83,2.31a8.74,8.74,0,0,1-.33,3.3c-.17.17-.33.5-.66.5s-.5-.17-.66-.5h0c-.33-.5-.33-1.49-.33-3.3,0-.5-.17-2.15-.83-2.31Z" transform="translate(-371.25 -352.25)"/><path d="M502.91,594.77a.61.61,0,0,0-.17.5c0,.17.17.33.5.33h0a8.23,8.23,0,0,0,3.14-.66s5.95-1.82,1,4.63c-14,18.34-19.82.66-19.82.66v.17s-5.62-17.84,16.52-11.23c7.93,2.31,1.82,4.46,1.82,4.46a7.89,7.89,0,0,0-3,1.16Z" transform="translate(-371.25 -352.25)" style="fill:#fff"/><path d="M495.81,608.15a3.22,3.22,0,0,1-1.16-.17c-4.79-.83-7.1-6.77-7.43-7.76h0c-.17-.33-2.15-7.1,1.49-10.74,2.81-2.81,7.93-3,15.36-.83,2.81.83,4.3,1.82,4.3,2.81,0,1.32-2.15,2-2.31,2.15a9.92,9.92,0,0,0-2.81,1.16h0l-.17.17a.16.16,0,0,0,.17.17h0a8.19,8.19,0,0,0,3-.66c.33,0,2.48-.66,3.14.33.66.83,0,2.48-1.82,4.79C503.24,605.34,499.28,608.15,495.81,608.15Zm-8.09-8.09s2.31,6.61,7.1,7.43c3.63.66,7.76-2.15,12.39-8.09,2.15-2.81,2-3.8,1.82-4.13-.5-.66-2-.33-2.48-.17-1.49.5-2.48.83-3.14.66h0c-.33,0-.66-.17-.66-.5-.17-.17,0-.5.33-.83.33-.5,1.32-.83,3-1.32.5-.17,2-.83,2-1.65,0-.5-.5-1.32-3.8-2.31-7.27-2.15-12.22-2-14.7.66-3.63,3.47-2.15,9.42-1.82,10.24Z" transform="translate(-371.25 -352.25)"/><path d="M507,583.2a.31.31,0,0,0-.5,0,.61.61,0,0,0-.17.5h0a7.43,7.43,0,0,0,1.65,2.64s3.63,5.12-4.13,2.48c-21.81-7.6-6.77-18.67-6.77-18.67H497s15.2-10.9,15.69,12.22c.17,8.26-3.63,3.14-3.63,3.14-.83-1.49-1.49-2.15-2-2.31Z" transform="translate(-371.25 -352.25)" style="fill:#fff"/><path d="M507.37,590a15,15,0,0,1-3.63-.83c-7.27-2.48-11.4-5.78-11.89-9.58-.66-4.79,4.3-8.92,5-9.42h0c.17-.17,5.95-4.3,10.57-2q5.2,2.73,5.45,14.37c0,3-.33,4.63-1.32,5-1.16.5-2.64-1.32-2.81-1.65-1.16-1.65-1.65-2.15-2-2.31h-.17v.17h0a12.41,12.41,0,0,0,1.65,2.64c.17.17,1.49,2.15.66,3.14A2.15,2.15,0,0,1,507.37,590ZM497.3,570.32h0s-5.62,4.3-5,9.09c.5,3.63,4.46,6.77,11.56,9.25,3.3,1.16,4.3.83,4.46.5.5-.66-.33-2-.66-2.48a7.48,7.48,0,0,1-1.65-2.81h0c0-.33,0-.66.33-.83a.74.74,0,0,1,.83,0h0a8.62,8.62,0,0,1,2.15,2.48c.33.5,1.49,1.65,2.15,1.32.33-.17,1-.83,1-4.46-.17-7.6-2-12.22-5.29-13.88C503.24,566.52,498.12,569.82,497.3,570.32Z" transform="translate(-371.25 -352.25)"/><path d="M519.43,583.7c0-.17,0-.5-.17-.5h-.5a9.87,9.87,0,0,0-2.15,2.31s-3.8,5-3.63-3.14c.5-23.13,15.69-12.22,15.69-12.22h-.17s15,11.07-6.77,18.67c-7.76,2.64-4.13-2.48-4.13-2.48,1.32-1.49,1.82-2.31,1.82-2.64Z" transform="translate(-371.25 -352.25)" style="fill:#fff"/><path d="M518.44,589.81a2,2,0,0,1-1.49-.5c-.83-1,.5-2.81.66-3.14a19.53,19.53,0,0,0,1.65-2.64h0v-.17h-.33c-.33.17-.83.66-2,2.31-.17.17-1.49,2-2.81,1.65-1-.33-1.49-2-1.32-5q.25-11.65,5.45-14.37c4.3-2.15,9.75,1.32,10.57,1.82h0c.83.66,5.78,4.63,5,9.42-.5,3.8-4.63,7.1-11.89,9.58A6.58,6.58,0,0,1,518.44,589.81Zm1.32-6.11a11.32,11.32,0,0,1-1.65,2.81c-.33.5-1.16,1.82-.66,2.48.17.33,1.16.66,4.46-.5,7.1-2.48,11.07-5.62,11.56-9.25.66-4.63-4.46-8.59-4.79-8.92-.66-.5-5.95-3.8-10.08-1.82-3.3,1.65-5,6.28-5.12,13.88,0,3.47.66,4.3,1,4.3.66.17,1.82-1,2.15-1.32a12.32,12.32,0,0,1,2.15-2.48.74.74,0,0,1,.83,0A1.24,1.24,0,0,1,519.76,583.7Z" transform="translate(-371.25 -352.25)"/><path d="M522.9,595.59c.17,0,.33-.17.5-.33a.61.61,0,0,0-.17-.5h0a7.06,7.06,0,0,0-3-1.32s-5.95-2,1.82-4.46c22.14-6.61,16.52,11.23,16.52,11.23v-.17s-5.95,17.68-19.82-.66c-5-6.44,1-4.63,1-4.63a10.38,10.38,0,0,0,3.14.83Z" transform="translate(-371.25 -352.25)" style="fill:#fff"/><path d="M530.34,608.15c-3.63,0-7.43-2.81-11.73-8.43-1.82-2.31-2.48-4-1.82-4.79.66-1,3-.5,3.14-.33a10.07,10.07,0,0,0,2.81.66h.17c.17,0,.17,0,.17-.17a.16.16,0,0,0-.17-.17,6.6,6.6,0,0,0-2.81-1.16c-.33-.17-2.48-.83-2.31-2.15,0-1,1.49-2,4.3-2.81,7.43-2.31,12.56-2,15.36.83,3.63,3.63,1.49,10.41,1.49,10.74h0c-.33,1-2.64,6.94-7.43,7.76Zm-12.22-13.22a1.4,1.4,0,0,0-1,.33c-.17.33-.33,1.32,1.82,4.13,4.63,5.95,8.76,8.76,12.39,8.09,4.79-.83,6.94-7.43,7.1-7.43h0c.33-1,1.82-6.77-1.32-10.08-2.64-2.64-7.6-2.81-14.7-.66-3.3,1-3.8,1.82-3.8,2.31,0,.66,1.49,1.49,2,1.65a8.47,8.47,0,0,1,3,1.32,1.07,1.07,0,0,1,.33.83c0,.17-.17.33-.5.33h-.33a8.23,8.23,0,0,1-3.14-.66C519.43,595.1,518.77,594.93,518.11,594.93Z" transform="translate(-371.25 -352.25)"/><path d="M500.11,574.28a12,12,0,0,1-2.64,1.32,4.2,4.2,0,0,0-2,1.49s-.66,1.65-1.16,1,.5-1.82.5-1.82a3.5,3.5,0,0,1,1.82-1.49,12,12,0,0,0,2.64-1.32,23.7,23.7,0,0,0,2.15-2.15,3.74,3.74,0,0,1,2-1.32s1.49-.5,2,.17-1.32.83-1.32.83a3.66,3.66,0,0,0-2,1.32A7,7,0,0,1,500.11,574.28Z" transform="translate(-371.25 -352.25)"/><path d="M525.71,574.28a8.54,8.54,0,0,1-2-2.15,3.25,3.25,0,0,0-2-1.32s-1.82-.17-1.32-.83,2-.17,2-.17a2.89,2.89,0,0,1,2,1.32,9.35,9.35,0,0,0,4.79,3.47A3.5,3.5,0,0,1,531,576.1s1,1.32.5,1.82c-.5.66-1.16-1-1.16-1a3.42,3.42,0,0,0-2-1.49A8.2,8.2,0,0,1,525.71,574.28Z" transform="translate(-371.25 -352.25)"/><path d="M533.64,598.57a18,18,0,0,1,1.32-2.64,3.05,3.05,0,0,0,.66-2.31s-.33-1.65.33-1.49c.66.33.66,1.82.66,1.82a3.05,3.05,0,0,1-.66,2.31,8.92,8.92,0,0,0-1.32,2.64,12.53,12.53,0,0,0-.5,3,3.92,3.92,0,0,1-.83,2.31s-.83,1.32-1.65,1,.5-1.32.5-1.32a3.45,3.45,0,0,0,.83-2.31C533.31,600.38,533.64,598.57,533.64,598.57Z" transform="translate(-371.25 -352.25)"/><path d="M513,613.6a9.27,9.27,0,0,1,3,.5,3.64,3.64,0,0,0,2.48-.17s1.49-.83,1.49-.17c0,.83-1.49,1.16-1.49,1.16a3.49,3.49,0,0,1-2.48.17,9.17,9.17,0,0,0-5.95,0,2.87,2.87,0,0,1-2.48-.17s-1.49-.5-1.49-1.16c0-.83,1.49.17,1.49.17a3.49,3.49,0,0,0,2.48.17A20.37,20.37,0,0,1,513,613.6Z" transform="translate(-371.25 -352.25)"/><path d="M492.34,598.57a12.53,12.53,0,0,1,.5,3,3.92,3.92,0,0,0,.83,2.31s1.32,1.16.5,1.32-1.65-1-1.65-1a3.45,3.45,0,0,1-.83-2.31,14.69,14.69,0,0,0-.5-3,18,18,0,0,0-1.32-2.64,4.38,4.38,0,0,1-.66-2.31s0-1.49.66-1.82.33,1.49.33,1.49a3.05,3.05,0,0,0,.66,2.31A17.63,17.63,0,0,1,492.34,598.57Z" transform="translate(-371.25 -352.25)"/><path d="M512.83,587.66a4.13,4.13,0,0,0-4.13,4.3,4.21,4.21,0,1,0,8.43,0A4.17,4.17,0,0,0,512.83,587.66Z" transform="translate(-371.25 -352.25)" style="fill:#fcc200"/><path d="M512.83,596.25a4.27,4.27,0,0,1-4.3-4.3,4.37,4.37,0,0,1,4.3-4.3,4.27,4.27,0,0,1,4.3,4.3A4.16,4.16,0,0,1,512.83,596.25Zm0-8.43A4.13,4.13,0,1,0,517,592,4.09,4.09,0,0,0,512.83,587.83Z" transform="translate(-371.25 -352.25)" style="fill:#ffcb00"/><path d="M520.92,511.17l.5,11.4L531,516.3l3,5-11.4,6.61v2.31s13.22,7.43-3,7.1v.17c-5.62,4.63-10.9,0-10.9,0-16,.33-3-7.1-3-7.1V528l-10.08-7.76,2.31-5.12,8.92,7.76.5-11.4Z" transform="translate(-371.25 -352.25)"/><path d="M532.82,520.92c9.25,10.74,16.19-.5,16.19-.5,11.73-2.81,4.79-11.23,4.79-11.23,12.22-8.09-2.15-14.37-2.15-14.37-.17-10.74-9.25-9.91-9.25-9.91-9.58-8.26-18.67,1-18.67,1-14.21-11.89-25.11,1.82-25.11,1.82s-9.09-6.28-13.22,3.63c0,0-14.54-.33-9.09,14.21,0,0-11.23,11.23,3.47,16.85,0,0,7.76,14.37,18.5.66,0,0,6.61.33,5.62-8.92,0,0,8.43,3.47,16.19-.33,0,0,2.48,5.62,7.93,2.48,0,0-.83,3.63,4.46,4.46Z" transform="translate(-371.25 -352.25)" style="fill:#13a438"/><path d="M489,530h-.66c-5.12-.5-8.43-5.45-9.25-6.77-4.46-1.82-7.1-4.3-7.76-7.43-1-4.63,2.48-9.09,3.8-10.57q-2.23-6.94.5-10.9c2.48-3.47,7.27-4.13,9.09-4.13,1.32-2.81,3.14-4.63,5.62-5.29,3.3-1,6.61.5,8.26,1.32,1.65-1.65,5.95-5.62,11.89-6.28,4.46-.5,9.09,1,13.38,4.46,2.48-2.15,10.57-7.6,19-.66h0a9.41,9.41,0,0,1,6.61,2.48,11,11,0,0,1,3.3,7.93c1.82,1,6.77,3.8,7.1,7.93q.25,4-4.46,7.43c.83,1.49,2.15,4.13,1.32,6.77-.83,2.48-3.14,4.13-6.94,5.12-.83,1.32-3.8,5-8.09,5.29-3.3.33-6.44-1.32-9.58-5l-.17-.17a6.4,6.4,0,0,1-4.3-2.31,9.74,9.74,0,0,1-.66-1.32,6,6,0,0,1-3.8.17,7.35,7.35,0,0,1-3.63-2.81c-5.78,2.48-11.73,1.32-14.54.5q0,4.21-2,6.44a7.63,7.63,0,0,1-4.13,2C495.65,528,492.34,530,489,530Zm-3.63-37.67c-.66,0-5.62.17-7.93,3.3q-2.23,3.22,0,9.42l.33.66-.5.5s-4.63,4.63-3.63,8.92c.5,2.48,2.81,4.46,6.61,5.95l.33.17.17.33s3.14,5.62,7.76,5.95q4.21.25,8.92-5.45l.33-.5h.66a4.32,4.32,0,0,0,3-1.32c1.16-1.32,1.65-3.47,1.32-6.28l-.17-2,1.82.83s7.93,3.14,15.36-.33l1-.5.5,1.16a5.89,5.89,0,0,0,2.81,2.64,4.37,4.37,0,0,0,3.63-.66l2.31-1.32-.66,2.64a2,2,0,0,0,.33,1.49,5.56,5.56,0,0,0,3.14,1.49h.33l.66.66c2.64,3,5.29,4.3,7.76,4.13,4-.33,6.61-4.63,6.61-4.63l.17-.33.5-.17c3.3-.83,5.29-2.15,5.78-3.8.83-2.64-1.65-5.62-1.65-5.62l-.83-1,1.16-.66q4.71-3,4.46-5.95c-.33-3.14-4.63-5.62-6.44-6.44l-.66-.33v-.83q0-4.71-2.48-6.94a7.57,7.57,0,0,0-5.45-1.82h-.5l-.33-.33c-8.59-7.43-16.69.5-17,.83l-.83.83-.83-.66q-6.2-5.2-12.39-4.46c-6.61.66-11.07,6.11-11.07,6.11l-.66.83-.83-.66s-3.8-2.48-7.1-1.49c-1.82.5-3.3,2.15-4.3,4.63l-.33.66-1.16.33Z" transform="translate(-371.25 -352.25)"/><path d="M407.92,612.94l.66.66c-2.31,4.3-2.64,7.43-1,8.76,1.16,1,2.81.66,4.3-1a3.2,3.2,0,0,0,1-2.15c0-.83-.66-2-1.49-3.47-1.49-3-1.32-5.29,1.16-8.26s5.95-4,8.09-2.15a4.27,4.27,0,0,1,1.49,3.47l1.65-.5.5.5-5.12,6.28-.66-.66c2-4.13,2.48-6.61,1-7.93-1.16-1-2.64-.66-4,.83-1.65,2-.66,3,.5,5.45a6.48,6.48,0,0,1,1,4,12.78,12.78,0,0,1-2.48,4.63c-2.81,3.14-5.95,4.13-8.26,2.15a4.19,4.19,0,0,1-1.49-4l-2,.66-.66-.5Z" transform="translate(-371.25 -352.25)" style="fill:#fcc200"/><path d="M427.09,615.09a5.48,5.48,0,0,1,5.95.17c1.82,1.16,2.48,3,2.15,5.62a16.76,16.76,0,0,1-3.14,7.76c-1.82,2.64-3.63,4.46-5.95,5.45-2.48,1.16-4.63,1.16-6.28,0s-2.31-3-2.15-5.78a13.68,13.68,0,0,1,3.14-7.6A16.28,16.28,0,0,1,427.09,615.09ZM421,632.6c1.82,1.32,4.46-.83,8.26-6.11,3.8-5.45,4.79-8.59,3-9.91-1.82-1.16-4.46.83-8.26,6.28C420.15,628.14,419.16,631.28,421,632.6Z" transform="translate(-371.25 -352.25)" style="fill:#fcc200"/><path d="M445.92,625.49l-.83-.5c-.66-.33-1-.17-1.49,1l-5.29,9.75c-1.82,3.47-2,5.62,0,6.61a2.54,2.54,0,0,0,2.64,0c1.32-.66,2.31-2.31,3.47-4.63l3.8-7.1c1.16-2,1.32-3.14,0-4h-.17l.66-1.49,4.46,2.31-.83,1.32c-1.32-.5-2.15.17-3.14,2.15l-3.8,7.27a16.15,16.15,0,0,1-3.3,4.79,4.77,4.77,0,0,1-5.95.66c-3.14-1.65-3.63-4.79-1.32-8.92l5.62-10.57c.5-1.16.66-1.49,0-1.82l-.83-.5.66-1.49,6.11,3.3Z" transform="translate(-371.25 -352.25)" style="fill:#fcc200"/><path d="M462.94,633.09c-.66-.17-1,0-1.32,1.16L455.83,649c-.5,1.16-.5,1.49.33,1.82l.83.33-.66,1.49-6.44-2.48.66-1.49.83.33c.66.33,1,0,1.49-1.16l5.78-14.54c.5-1.16.5-1.49-.17-1.65-1.32-.5-3.3,1.32-5.29,5.29l-.83-.33,3.3-7.6,11.07,4.46-2.81,7.76-.83-.33C464.42,636.4,464.26,633.59,462.94,633.09Z" transform="translate(-371.25 -352.25)" style="fill:#fcc200"/><path d="M472.52,655.89c.66.17,1-.17,1.32-1.32l1.82-6.94L471,646.31l-1.82,6.94c-.33,1.16-.33,1.49.5,1.82l.83.33-.5,1.49-6.61-1.82.5-1.49.83.17c.83.17,1-.17,1.32-1.32l4-15c.33-1.16.33-1.65-.5-1.82l-.83-.17.5-1.49,6.61,1.82-.33,1.49-.83-.17c-.83-.17-1,.17-1.32,1.32l-1.65,6.28,4.63,1.32L478,639.7c.33-1.16.33-1.65-.5-1.82l-.83-.17.33-1.49,6.61,1.82-.33,1.49-1-.33c-.66-.17-1,.17-1.32,1.32l-4,15c-.33,1.16-.33,1.49.5,1.82l.83.33-.33,1.49-6.77-1.82.5-1.49Z" transform="translate(-371.25 -352.25)" style="fill:#fcc200"/><path d="M490.19,659.53h1c.33,0,.5-.17.66-.66V658l-.33-3.47-4.63-.66-.66,1.49a15.59,15.59,0,0,1-.5,1.49c-.17,1.32.33,1.82,1.65,2.15l-.17,1.49-5.12-.83.17-1.49c1.16-.17,2-1.32,3-3.63l6.61-15.86,1.32.17,2.15,19.82c.17,1,.33,1.32,1,1.49l-.17,1.65L490,661Zm-2.64-7.43,3.63.5-.66-7.6Z" transform="translate(-371.25 -352.25)" style="fill:#fcc200"/><path d="M503.57,657c-.17,2.81.33,3.8,2,4v1.65l-5.29-.17v-1.65c1.65,0,2-1.16,2-3.8l.33-13.22c0-1.16-.17-1.65-.83-1.65h-1v-1.65l5.95.17,2.48,13.22,3-13.05,5.78.17v1.65h-1c-.83,0-1,.33-1,1.65l-.33,15.53c0,1.16.17,1.65.83,1.65h1v1.65l-6.77-.17v-1.65h.83c.83,0,1-.33,1-1.49l.5-16.35L508.53,663h-.83l-3.8-20Z" transform="translate(-371.25 -352.25)" style="fill:#fcc200"/><path d="M528.35,660.35l1.16-.17.17,1.65-7.1.66-.17-1.65,1-.17c.83-.17.83-.5.83-1.65l-1.49-15.36c-.17-1.16-.33-1.65-1-1.49l-1,.17-.17-1.65,7.93-.83c3.3-.33,5.29,1.65,5.62,5.78.5,4.3-1.32,6.44-5.45,6.94-.5,0-1.16.17-1.82.17l.66,6.28C527.36,660.19,527.53,660.35,528.35,660.35Zm-1.82-9.42h.83c2.48-.17,3.3-1.32,3-5-.33-3.47-1.32-4.63-3.47-4.3-1.16.17-1.32.33-1.16,2Z" transform="translate(-371.25 -352.25)" style="fill:#fcc200"/><path d="M544.54,638.71c-.66.17-.66.5-.5,1.65l3.14,15.53c.33,1.16.5,1.49,1.16,1.32l.83-.17.33,1.65L542.73,660l-.33-1.49.83-.17c.83-.17.83-.5.66-1.82l-3.14-15.36c-.17-1.16-.5-1.49-1.16-1.32-1.49.33-2,3-1.49,7.27l-.83.17L536,639.21l11.73-2.48,2,8.09-.83.17C547.52,640.69,545.87,638.38,544.54,638.71Z" transform="translate(-371.25 -352.25)" style="fill:#fcc200"/><path d="M553,638c.5-2.48,1.82-4.13,3.8-4.63,2-.66,4-.17,5.95,1.65a18.53,18.53,0,0,1,4.3,7.1,15.81,15.81,0,0,1,.83,8.09c-.5,2.64-1.82,4.3-3.8,5s-3.8.17-5.78-1.82c-2-1.65-3.14-4-4.13-6.94A16,16,0,0,1,553,638Zm10.41,15.53c2.15-.66,2.15-4.13,0-10.24-2-6.28-4-9.09-6.11-8.26-2,.66-2,4.13,0,10.24S561.23,654.24,563.38,653.58Z" transform="translate(-371.25 -352.25)" style="fill:#fcc200"/><path d="M574.45,649.28c1.32-.83,1.16-2,.17-4.3L569,633.09l-.5-.33a1.28,1.28,0,0,0-1.65-.33l-.17.17-.66-1.49,4.13-2,12.06,9.42-3.47-7.43c-1.16-2.64-2-3.3-3.63-2.64l-.66-1.49,4.79-2.31.66,1.49c-1.32.83-1.32,1.82,0,4.3l7.1,15.2-1,.5-14.87-11.73,4.63,10.08c1.16,2.48,2,3.3,3.63,2.64l.66,1.49-4.79,2.15Z" transform="translate(-371.25 -352.25)" style="fill:#fcc200"/><path d="M601.87,619.55l-.66.5c-3.14-3.47-5.12-4.13-7.43-2.48-.83.66-1,.83-.17,2.15l3.63,5.29.17-.17c1.32-1,1.16-2.31-.33-5l.66-.5,5.62,8.26-.83.5c-2-2.31-3.14-3-4.46-2l-.17.17,4.13,5.95c.66,1,1,1.16,1.65.83l1.16-.66.83,1.32-5.95,4.13-.83-1.32.83-.5c.66-.5.5-.83-.17-1.82l-8.76-12.89c-.66-1-1-1.32-1.65-.83l-.83.5-.83-1.32,9.75-6.77Z" transform="translate(-371.25 -352.25)" style="fill:#fcc200"/><path d="M619.38,624a5.11,5.11,0,0,1-4.46,1c-2.64-.5-5.45-2.48-8.09-5.45a16.68,16.68,0,0,1-3.8-7.1c-.66-2.64,0-4.63,1.49-5.95a4.55,4.55,0,0,1,3.63-1l-.33-1.82.66-.5,5.95,6.44-.66.66c-3.8-3.3-6.61-4.3-8.09-3-1.82,1.65-.66,4.63,3.8,9.58,4.3,5.12,6.94,6.77,9.09,5,1.49-1.32,1.16-4-1-7.6l1.16-.17C621.53,618.56,621.86,622,619.38,624Z" transform="translate(-371.25 -352.25)" style="fill:#fcc200"/><path d="M499.11,524.06" transform="translate(-371.25 -352.25)" style="fill:none;stroke:#000;stroke-width:0.7057999968528748px"/><path d="M385.79,439.81l3.47,7.1-9.75,2.81,3,6.11,9.75-2.64,3,6.11-9.75,2.64,3,5.95,9.75-2.64,3.14,6.11L391.4,474l3.14,6.11,9.75-2.64,4.3,8.43c1.82-.5,3.63-1.16,5.45-1.82L391.4,438.15A18.65,18.65,0,0,1,385.79,439.81Z" transform="translate(-371.25 -352.25)" style="fill:#fff"/><path d="M412.55,442.28c-.66-3.3,6.61-7.1,12.56-11.89l-7.76-15.69a37.48,37.48,0,0,0-9.91,8.09c-1,1-1.65,2-2.48,3Z" transform="translate(-371.25 -352.25)" style="fill:#fff"/><path d="M430.06,414.53c-2-2.64-6.77-3-12.72.33l7.76,15.69C430.56,426.1,434.69,420.81,430.06,414.53Z" transform="translate(-371.25 -352.25)" style="fill:#d10a11"/><path d="M391.4,438.15l22.8,45.6c6.44-2.64,11.73-6.44,13.38-9.25l-9.75-21-5-10.41c-.33-.33-.33-.66-.5-1l-7.6-16.35C401,430.72,397.68,435.51,391.4,438.15Z" transform="translate(-371.25 -352.25)" style="fill:#d10a11"/><path d="M385.79,439.81a47,47,0,0,1-11.07.33l4.79,9.58,9.75-2.64Z" transform="translate(-371.25 -352.25)" style="fill:#d10a11"/><polygon points="20.98 100.77 11.23 103.42 14.37 109.53 24.12 106.89 20.98 100.77" style="fill:#d10a11"/><polygon points="27.09 112.83 17.35 115.48 20.32 121.59 30.23 118.94 27.09 112.83" style="fill:#d10a11"/><path d="M394.71,480l3.63,7.27a33.19,33.19,0,0,0,10.57-1.32l-4.3-8.43Z" transform="translate(-371.25 -352.25)" style="fill:#d10a11"/><path d="M424.94,430.56l4.3,8.59c3.14-2.64,6.44-5.62,9.91-8.59L431.05,416C434,421.8,430.06,426.59,424.94,430.56Z" transform="translate(-371.25 -352.25)" style="fill:#fff"/><path d="M413,443.28a2.8,2.8,0,0,0,1,1c4.3,3.14,9.42,0,15.36-5l-4.3-8.59C418.5,435.84,410.4,440,413,443.28Z" transform="translate(-371.25 -352.25)" style="fill:#d10a11"/><path d="M399.5,488h-1.82l-24.45-48.9,1.65.17c17.18,1.49,22.3-5,28.08-12.22,1.16-1.49,2.48-3,3.8-4.46,6.28-7.1,13.55-11.07,19-10.9a7,7,0,0,1,5.12,2.48,9.65,9.65,0,0,1,2.15,7.27c-.83,5.62-6.94,9.91-12.39,13.71-3.3,2.48-6.94,5-7.1,6.61a1.21,1.21,0,0,0,.33,1l.17.17,14.87,31.72-.33.5C425.1,480.45,411.06,488,399.5,488Zm-.66-1.82h.66c11.07,0,23.79-7.27,27.09-11.73l-14.37-30.73a3.79,3.79,0,0,1-.66-2.31c.33-2.48,3.63-5,7.93-7.93,5.12-3.63,10.9-7.76,11.56-12.56a7.72,7.72,0,0,0-1.82-5.95,4.26,4.26,0,0,0-3.63-1.65c-4-.17-10.57,2.48-17.51,10.24-1.32,1.49-2.48,3-3.63,4.46-5.78,7.27-11.07,14-28.08,13.05Z" transform="translate(-371.25 -352.25)"/><path d="M417.84,446.41a7.13,7.13,0,0,1-4.3-1.49,2.6,2.6,0,0,1-1.16-1.16,3,3,0,0,1-.66-2.31c.33-2.48,3.63-5,7.93-7.93,6.77-4.79,14.21-10.24,10.74-17l1.65-.83,8.43,15.2-.66.5c-1.82,1.49-3.47,3-5.12,4.46C428.41,441.46,422.79,446.41,417.84,446.41Zm15-25.11c-.83,5.45-7.1,9.91-12.39,13.71-3.3,2.48-6.94,5-7.1,6.61a1.21,1.21,0,0,0,.33,1,1.16,1.16,0,0,0,.83.66c5,3.47,11.4-2.31,18.83-8.92,1.49-1.32,3-2.64,4.63-4.13Z" transform="translate(-371.25 -352.25)"/><path d="M638.21,439.81l-3.47,7.1,9.75,2.64-3,6.11L631.77,453l-3,6.11,9.75,2.64-3,5.95-9.75-2.64-3.14,6.11,9.75,2.64-3,6.11-9.75-2.64-4.3,8.43c-1.82-.5-3.63-1.16-5.45-1.82l22.63-45.76A18.65,18.65,0,0,0,638.21,439.81Z" transform="translate(-371.25 -352.25)" style="fill:#fff"/><path d="M611.45,442.28c.66-3.3-6.61-7.1-12.56-11.89l7.76-15.69a37.48,37.48,0,0,1,9.91,8.09l2.48,3Z" transform="translate(-371.25 -352.25)" style="fill:#fff"/><path d="M593.94,414.53c2-2.64,6.77-3,12.72.33l-7.76,15.69C593.44,426.1,589.31,420.81,593.94,414.53Z" transform="translate(-371.25 -352.25)" style="fill:#d10a11"/><path d="M632.6,438.15l-22.8,45.6c-6.44-2.64-11.73-6.44-13.38-9.25l9.75-21,5-10.41c.33-.33.33-.66.5-1l7.76-16.35C623,430.72,626.32,435.51,632.6,438.15Z" transform="translate(-371.25 -352.25)" style="fill:#d10a11"/><path d="M638.21,439.81a46.69,46.69,0,0,0,11.07.33l-4.79,9.58-9.75-2.64Z" transform="translate(-371.25 -352.25)" style="fill:#d10a11"/><polygon points="260.52 100.77 270.27 103.42 267.13 109.53 257.38 106.89 260.52 100.77" style="fill:#d10a11"/><polygon points="254.41 112.83 264.16 115.48 261.18 121.59 251.27 118.94 254.41 112.83" style="fill:#d10a11"/><path d="M629.29,480l-3.63,7.27a33.19,33.19,0,0,1-10.57-1.32l4.3-8.43Z" transform="translate(-371.25 -352.25)" style="fill:#d10a11"/><path d="M599.06,430.56l-4.3,8.59c-3.14-2.64-6.44-5.62-9.91-8.59L592.95,416C590,421.8,593.94,426.59,599.06,430.56Z" transform="translate(-371.25 -352.25)" style="fill:#fff"/><path d="M611,443.28c-.17.33-.66.66-1,1-4.46,3.14-9.42,0-15.36-5l4.3-8.59C605.5,435.84,613.6,440,611,443.28Z" transform="translate(-371.25 -352.25)" style="fill:#d10a11"/><path d="M624.5,488c-11.56,0-25.61-7.6-29.08-12.89l-.33-.5.17-.5,14.87-31.39a1.21,1.21,0,0,0,.33-1c-.33-1.82-3.8-4.3-7.1-6.61-5.45-3.8-11.4-8.26-12.39-13.71a9.47,9.47,0,0,1,2.15-7.27c1-1.49,2.81-2.31,5.12-2.48,5.45-.33,12.72,3.8,19,10.9,1.32,1.49,2.64,3,3.8,4.46,5.78,7.43,10.9,13.71,28.08,12.22l1.65-.17L626.32,488H624.5ZM597.41,474.5c3.3,4.46,16.52,12.06,27.92,11.73L648,441.29c-17,1-22.3-5.78-28.08-13.05-1.16-1.49-2.31-3-3.63-4.46-5.78-6.44-12.22-10.24-17.18-10.24h-.5a5.44,5.44,0,0,0-3.8,1.65,8.43,8.43,0,0,0-1.82,5.95c.83,4.79,6.44,8.92,11.56,12.56,4.13,3,7.43,5.45,7.93,7.93a3,3,0,0,1-.66,2.31Z" transform="translate(-371.25 -352.25)"/><path d="M606.16,446.41c-5.12,0-10.57-5-16.85-10.57-1.65-1.49-3.3-3-5.12-4.46l-.66-.5,8.43-15.2,1.65.83c-3.47,6.77,4.13,12.22,10.74,17,4.13,3,7.43,5.45,7.93,7.93a3.55,3.55,0,0,1-.66,2.48,7.63,7.63,0,0,1-1.16,1.16A8.19,8.19,0,0,1,606.16,446.41Zm-20.15-16c1.65,1.32,3.14,2.64,4.63,4,7.43,6.61,13.88,12.39,18.83,8.92.33-.33.66-.5.83-.66a1.21,1.21,0,0,0,.33-1c-.33-1.82-3.8-4.3-7.1-6.61-5.29-3.8-11.56-8.26-12.39-13.71Z" transform="translate(-371.25 -352.25)"/><path d="M541.41,429.07c-2.15,1.65-5.78,4.13-9.75,6.61v32.38c4.63-2.81,9.25-5.78,13.71-8.09V426.43C543.72,427.42,542.4,428.41,541.41,429.07Z" transform="translate(-371.25 -352.25)" style="fill:#fff"/><path d="M563.21,420.31h-.5l-4.63,35h.5a21.88,21.88,0,0,1,10.57,3.14l10.41-31.88C574.61,423,569.16,420.31,563.21,420.31Z" transform="translate(-371.25 -352.25)" style="fill:#fff"/><path d="M610,444.27c-4.3,3-9.42,0-15.2-4.79l-13.55,28.25c5.45,4.79,10.41,8.76,15,6.94L611,443.44A6.29,6.29,0,0,1,610,444.27Z" transform="translate(-371.25 -352.25)" style="fill:#fff"/><path d="M414,444.27a2.8,2.8,0,0,1-1-1l14.7,31.22c4.63,1.65,9.58-2.15,15-6.94l-13.55-28.25C423.45,444.27,418.33,447.24,414,444.27Z" transform="translate(-371.25 -352.25)" style="fill:#fff"/><path d="M512,444.1a18.27,18.27,0,0,1-5.12-1.16v32.71a13.73,13.73,0,0,0,10.24,0V442.95A13.85,13.85,0,0,1,512,444.1Z" transform="translate(-371.25 -352.25)" style="fill:#fff"/><path d="M460.79,420.31c-5.78,0-11.23,2.64-16.35,6.28l10.41,31.88a21.88,21.88,0,0,1,10.57-3.14h.5l-4.63-35Z" transform="translate(-371.25 -352.25)" style="fill:#fff"/><path d="M482.59,429.07c-1-.83-2.31-1.65-3.8-2.64v33.7c4.46,2.31,9.09,5.29,13.71,8.09V435.68A112.78,112.78,0,0,1,482.59,429.07Z" transform="translate(-371.25 -352.25)" style="fill:#fff"/><path d="M492.51,435.68v32.38c5.12,3.14,10.08,5.95,14.37,7.43V442.95A73.5,73.5,0,0,1,492.51,435.68Z" transform="translate(-371.25 -352.25)" style="fill:#d10a11"/><path d="M461.28,420.31l4.63,35c3.63.17,8.09,2,12.89,4.63V426.43C474.5,423.62,468.06,420.48,461.28,420.31Z" transform="translate(-371.25 -352.25)" style="fill:#d10a11"/><path d="M429.23,439.48l13.55,28.25c3.63-3.14,7.6-6.61,12.06-9.09l-10.41-32C438.82,430.56,433.86,435.51,429.23,439.48Z" transform="translate(-371.25 -352.25)" style="fill:#d10a11"/><path d="M517.12,442.95v32.71c4.3-1.49,9.25-4.3,14.37-7.43V435.68A73.5,73.5,0,0,1,517.12,442.95Z" transform="translate(-371.25 -352.25)" style="fill:#d10a11"/><path d="M545.21,426.43v33.7c4.79-2.64,9.25-4.46,12.89-4.63l4.63-35C555.94,420.48,549.67,423.62,545.21,426.43Z" transform="translate(-371.25 -352.25)" style="fill:#d10a11"/><path d="M579.73,426.59l-10.41,31.88c4.3,2.48,8.26,5.95,12.06,9.09l13.55-28.25C590.31,435.51,585.18,430.56,579.73,426.59Z" transform="translate(-371.25 -352.25)" style="fill:#d10a11"/><path d="M512,477.64c-6.11,0-14.37-5.12-23.29-10.57-8.43-5.29-17.35-10.74-23.29-10.74-8.09,0-15,5.95-21.31,11.4-6.11,5.29-11.4,9.91-16.85,7.76l-.33-.17-14.87-31.55,1.65-.83c.17.17.33.5.66.66,5,3.47,11.4-2.31,18.83-8.92,7.93-7.1,17-15.2,27.42-15.2,9.42,0,18.17,5.62,22.47,9.09,5.45,4.46,22.63,14.87,28.75,14.87,6.28,0,23.13-10.24,28.75-14.87,4.3-3.3,13.05-9.09,22.47-9.09,10.41,0,19.49,8.09,27.42,15.2,7.43,6.61,13.88,12.39,18.83,8.92.33-.33.66-.5.83-.66l1.65,1-14.87,31.55-.33.17c-5.29,2-10.57-2.48-16.69-7.76s-13.05-11.4-21.31-11.4c-5.95,0-14.87,5.45-23.29,10.74C526.37,472.52,518.11,477.64,512,477.64Zm-46.59-23.13c6.44,0,15.53,5.62,24.28,11.07,8.26,5.12,16.69,10.24,22.3,10.24s14-5.29,22.3-10.24c8.76-5.45,17.84-11.07,24.28-11.07,8.76,0,16,6.28,22.47,11.73,5.45,4.79,10.24,8.92,14.54,7.6l13.22-27.92c-5.62,2.15-12.06-3.63-19.33-10.08-7.76-6.94-16.52-14.7-26.27-14.7-8.92,0-17.18,5.45-21.31,8.59-5.62,4.46-23,15.2-29.9,15.2-7.1,0-24.45-10.9-29.9-15.2-3.3-2.64-12.06-8.59-21.31-8.59-9.58,0-18.5,7.76-26.1,14.7-7.27,6.44-13.71,12.22-19.33,10.08l13.05,27.92c4.3,1.32,9.09-2.81,14.54-7.6C449.39,460.62,456.66,454.51,465.41,454.51Z" transform="translate(-371.25 -352.25)"/><path d="M512.5,412.22c30.4,0,55-13.38,55-29.74,0-16.52-24.62-29.74-55-29.74s-55,13.38-55,29.74C457.65,398.84,482.26,412.22,512.5,412.22Z" transform="translate(-371.25 -352.25)"/><path d="M512.5,412.71c-30.56,0-55.34-13.55-55.34-30.23s24.78-30.23,55.34-30.23,55.34,13.55,55.34,30.23C568,399.17,543.06,412.71,512.5,412.71Zm0-59.47c-30.07,0-54.52,13.22-54.52,29.24,0,16.19,24.45,29.24,54.52,29.24S567,398.51,567,382.48C567,366.29,542.56,353.24,512.5,353.24Z" transform="translate(-371.25 -352.25)" style="fill:#fff"/><path d="M512.66,407.43c26.93,0,48.9-11.23,48.9-24.95s-21.81-24.95-48.9-24.95-48.9,11.23-48.9,24.95S485.57,407.43,512.66,407.43Z" transform="translate(-371.25 -352.25)" style="fill:#fcc200"/><path d="M512.66,401.48c22,0,39.81-7.1,39.81-15.86s-17.84-15.86-39.81-15.86-39.81,7.1-39.81,15.86S490.69,401.48,512.66,401.48Z" transform="translate(-371.25 -352.25)" style="fill:#fff"/><path d="M512.66,403.3c-23.29,0-41.63-7.76-41.63-17.84,0-9.91,18.34-17.68,41.63-17.68s41.63,7.76,41.63,17.68C554.29,395.53,536,403.3,512.66,403.3Zm0-31.88c-22.3,0-38,7.43-38,14s15.53,14,38,14c22.3,0,38-7.43,38-14C550.49,378.85,535,371.41,512.66,371.41Z" transform="translate(-371.25 -352.25)"/><path d="M512.5,374.22a38.33,38.33,0,1,0,0,76.65H512a38.33,38.33,0,0,0,0-76.65Z" transform="translate(-371.25 -352.25)" style="fill:#fff"/><path d="M512.5,451.7H512a39.16,39.16,0,0,1,0-78.31h.5a39.16,39.16,0,0,1,0,78.31ZM512.33,375a37.42,37.42,0,1,0,37.17,37.5A37.51,37.51,0,0,0,512.33,375Z" transform="translate(-371.25 -352.25)"/><path d="M506.05,444.1l-7.93-13.38-14.37-2.31L480.28,433c.17.17.33.5.5.66l.66.83a38,38,0,0,0,20,14.54l1.49.33Z" transform="translate(-371.25 -352.25)"/><polygon points="125.06 55.01 131.17 74.01 141.08 74.01 150.83 74.01 156.94 55.01 140.92 43.28 125.06 55.01"/><path d="M512.17,387.93h0l11.89-7.76v-3.8a36.67,36.67,0,0,0-23.79,0v3.8Z" transform="translate(-371.25 -352.25)"/><path d="M490.19,401.15l.5-15.2-3.14-2.48a37.91,37.91,0,0,0-4.46,4.46l-.17.17a38.8,38.8,0,0,0-8.26,19l3.47,1.49Z" transform="translate(-371.25 -352.25)"/><path d="M526.21,430.72l-7.93,13.38,3.47,5.29,1.49-.33a39.11,39.11,0,0,0,20.32-14.87l.33-.5c.17-.33.33-.5.5-.83l-3.63-4.63Z" transform="translate(-371.25 -352.25)"/><path d="M534.3,401.15l12.06,7.6,3.47-1.49a40,40,0,0,0-8.26-19.16h0a59,59,0,0,0-4.46-4.63L534,386Z" transform="translate(-371.25 -352.25)"/></svg>