<svg xmlns="http://www.w3.org/2000/svg" viewBox="0 0 174.17 150.9"><defs><style>.a{fill:#231f20;}.b{fill:#fdb913;}.c{fill:#fff;}</style></defs><title>Wolverhampton Wanderers FC logo</title><polygon class="a" points="43.54 150.9 0 75.45 43.54 0 130.63 0 174.17 75.45 130.63 150.9 43.54 150.9"/><polygon class="b" points="51.91 136.38 16.74 75.45 51.91 14.53 122.26 14.53 157.43 75.45 122.26 136.38 51.91 136.38"/><path class="c" d="M477.57,571.67h68.88L580.88,512l-34.46-59.67H477.57L443.12,512Zm70.31,2.55H476.11L440.19,512l.37-.65,35.55-61.57h71.81l.37.65L583.84,512Z" transform="translate(-424.92 -436.55)"/><polygon class="a" points="76.98 47.01 97.12 47.01 107.87 20.04 136.95 79.16 105.49 97.77 95.38 130.86 78.78 130.86 68.72 97.7 37.22 79.16 66.27 20.04 76.98 47.01"/><path class="c" d="M506,520,491.22,504V520ZM532.78,504V520H517.92Z" transform="translate(-424.92 -436.55)"/></svg>